# 3ds Max Wavefront OBJ Exporter v0.97b - (c)2007 guruware
# File Created: 17.12.2019 02:06:11

mtllib Coin.mtl

#
# object Cylinder001
#

v  48.073 19.886 0.001
v  19.931 48.054 0.001
v  19.931 48.054 12.537
v  48.073 19.886 12.537
v  -19.886 48.073 0.001
v  -19.886 48.073 12.537
v  -48.054 19.931 0.001
v  -48.054 19.931 12.537
v  -48.073 -19.886 0.001
v  -48.073 -19.886 12.537
v  -19.931 -48.054 0.001
v  -19.931 -48.054 12.537
v  19.886 -48.073 0.001
v  19.886 -48.073 12.537
v  48.054 -19.931 0.001
v  48.054 -19.931 12.537
v  -6.037 -18.289 6.097
v  -6.023 18.296 6.097
v  6.037 18.289 6.097
v  6.023 -18.296 6.097
v  -18.289 7.585 10.037
v  -18.296 -7.568 10.037
v  -6.037 -18.289 10.037
v  -6.023 18.296 10.037
v  33.492 13.854 0.000
v  13.886 33.479 0.000
v  33.479 -13.886 -0.000
v  13.854 -33.492 -0.000
v  -13.886 -33.479 -0.000
v  -33.492 -13.854 -0.000
v  -33.479 13.886 0.000
v  -13.854 33.492 0.000
v  13.886 33.479 12.538
v  33.492 13.854 12.538
v  -13.854 33.492 12.538
v  -33.479 13.886 12.538
v  -33.492 -13.854 12.538
v  -13.886 -33.479 12.538
v  13.854 -33.492 12.538
v  33.479 -13.886 12.538
v  33.492 13.854 2.834
v  13.886 33.479 2.834
v  33.479 -13.886 2.834
v  13.854 -33.492 2.834
v  -13.886 -33.479 2.834
v  -33.492 -13.854 2.834
v  -33.479 13.886 2.834
v  -13.854 33.492 2.834
v  13.886 33.479 10.036
v  33.492 13.854 10.036
v  -13.854 33.492 10.036
v  -33.479 13.886 10.036
v  -33.492 -13.854 10.036
v  -13.886 -33.479 10.036
v  13.854 -33.492 10.036
v  33.479 -13.886 10.036
v  33.492 13.854 2.833
v  13.886 33.479 2.833
v  33.479 -13.886 2.833
v  13.854 -33.492 2.833
v  -13.886 -33.479 2.833
v  -33.492 -13.854 2.833
v  -33.479 13.886 2.833
v  -13.854 33.492 2.833
v  18.296 7.568 2.832
v  6.037 18.289 2.832
v  18.289 -7.585 2.832
v  6.023 -18.296 2.832
v  -6.037 -18.289 2.832
v  -18.296 -7.568 2.832
v  -18.289 7.585 2.832
v  -6.023 18.296 2.832
v  6.037 18.289 10.037
v  18.296 7.568 10.037
v  6.023 -18.296 10.037
v  18.289 -7.585 10.037
v  6.023 -18.296 6.471
v  6.037 18.289 6.471
v  -6.023 18.296 6.471
v  -6.037 -18.289 6.471
# 80 vertices

vn 0.707 0.707 0.000
vn 0.000 1.000 0.000
vn -0.707 0.707 0.000
vn -1.000 0.000 -0.000
vn -0.707 -0.707 -0.000
vn 0.000 -1.000 -0.000
vn 0.707 -0.707 -0.000
vn 1.000 0.000 -0.000
vn 0.000 0.000 -1.000
vn 0.000 -0.000 1.000
vn 0.001 1.000 0.000
vn -0.001 -1.000 -0.000
# 12 vertex normals

vt 0.750 0.000 1.000
vt 0.875 0.000 1.000
vt 0.875 1.000 1.000
vt 0.750 1.000 1.000
vt 1.000 0.000 1.000
vt 1.000 1.000 1.000
vt 0.000 0.000 1.000
vt 0.125 0.000 1.000
vt 0.125 1.000 1.000
vt 0.000 1.000 1.000
vt 0.250 0.000 1.000
vt 0.250 1.000 1.000
vt 0.375 0.000 1.000
vt 0.375 1.000 1.000
vt 0.500 0.000 1.000
vt 0.500 1.000 1.000
vt 0.625 0.000 1.000
vt 0.625 1.000 1.000
vt 0.854 0.146 -0.250
vt 0.000 0.500 -0.250
vt 0.146 0.854 -0.250
vt 1.000 0.500 -0.250
vt 0.146 0.146 0.250
vt 0.500 0.000 0.250
vt 0.854 0.146 0.250
vt 0.000 0.500 0.250
vt 0.500 1.000 -0.250
vt 0.854 0.854 -0.250
vt 0.500 0.000 -0.250
vt 0.146 0.146 -0.250
vt 0.500 1.000 0.250
vt 0.146 0.854 0.250
vt 1.000 0.500 0.250
vt 0.854 0.854 0.250
# 34 texture coords

o Cylinder001
g Cylinder001
usemtl Material__25
s off
f 1/1/1 2/2/1 3/3/1 
f 3/3/1 4/4/1 1/1/1 
f 2/2/2 5/5/2 6/6/2 
f 6/6/2 3/3/2 2/2/2 
f 5/7/3 7/8/3 8/9/3 
f 8/9/3 6/10/3 5/7/3 
f 7/8/4 9/11/4 10/12/4 
f 10/12/4 8/9/4 7/8/4 
f 9/11/5 11/13/5 12/14/5 
f 12/14/5 10/12/5 9/11/5 
f 11/13/6 13/15/6 14/16/6 
f 14/16/6 12/14/6 11/13/6 
f 13/15/7 15/17/7 16/18/7 
f 16/18/7 14/16/7 13/15/7 
f 15/17/8 1/1/8 4/4/8 
f 4/4/8 16/18/8 15/17/8 
f 17/19/9 18/20/9 19/21/9 
f 19/21/9 20/22/9 17/19/9 
f 21/23/10 22/24/10 23/25/10 
f 23/25/10 24/26/10 21/23/10 
f 2/21/9 1/27/9 25/27/9 
f 25/27/9 26/21/9 2/21/9 
f 1/27/9 15/28/9 27/28/9 
f 27/28/9 25/27/9 1/27/9 
f 15/28/9 13/22/9 28/22/9 
f 28/22/9 27/28/9 15/28/9 
f 13/22/9 11/19/9 29/19/9 
f 29/19/9 28/22/9 13/22/9 
f 11/19/9 9/29/9 30/29/9 
f 30/29/9 29/19/9 11/19/9 
f 9/29/9 7/30/9 31/30/9 
f 31/30/9 30/29/9 9/29/9 
f 7/30/9 5/20/9 32/20/9 
f 32/20/9 31/30/9 7/30/9 
f 5/20/9 2/21/9 26/21/9 
f 26/21/9 32/20/9 5/20/9 
f 4/31/10 3/32/10 33/32/10 
f 33/32/10 34/31/10 4/31/10 
f 3/32/10 6/26/10 35/26/10 
f 35/26/10 33/32/10 3/32/10 
f 6/26/10 8/23/10 36/23/10 
f 36/23/10 35/26/10 6/26/10 
f 8/23/10 10/24/10 37/24/10 
f 37/24/10 36/23/10 8/23/10 
f 10/24/10 12/25/10 38/25/10 
f 38/25/10 37/24/10 10/24/10 
f 12/25/10 14/33/10 39/33/10 
f 39/33/10 38/25/10 12/25/10 
f 14/33/10 16/34/10 40/34/10 
f 40/34/10 39/33/10 14/33/10 
f 16/34/10 4/31/10 34/31/10 
f 34/31/10 40/34/10 16/34/10 
f 26/21/5 25/27/5 41/27/5 
f 41/27/5 42/21/5 26/21/5 
f 25/27/4 27/28/4 43/28/4 
f 43/28/4 41/27/4 25/27/4 
f 27/28/3 28/22/3 44/22/3 
f 44/22/3 43/28/3 27/28/3 
f 28/22/2 29/19/2 45/19/2 
f 45/19/2 44/22/2 28/22/2 
f 29/19/1 30/29/1 46/29/1 
f 46/29/1 45/19/1 29/19/1 
f 30/29/8 31/30/8 47/30/8 
f 47/30/8 46/29/8 30/29/8 
f 31/30/7 32/20/7 48/20/7 
f 48/20/7 47/30/7 31/30/7 
f 32/20/6 26/21/6 42/21/6 
f 42/21/6 48/20/6 32/20/6 
f 34/31/5 33/32/5 49/32/5 
f 49/32/5 50/31/5 34/31/5 
f 33/32/6 35/26/6 51/26/6 
f 51/26/6 49/32/6 33/32/6 
f 35/26/7 36/23/7 52/23/7 
f 52/23/7 51/26/7 35/26/7 
f 36/23/8 37/24/8 53/24/8 
f 53/24/8 52/23/8 36/23/8 
f 37/24/1 38/25/1 54/25/1 
f 54/25/1 53/24/1 37/24/1 
f 38/25/2 39/33/2 55/33/2 
f 55/33/2 54/25/2 38/25/2 
f 39/33/3 40/34/3 56/34/3 
f 56/34/3 55/33/3 39/33/3 
f 40/34/4 34/31/4 50/31/4 
f 50/31/4 56/34/4 40/34/4 
f 42/21/1 41/27/1 57/27/1 
f 57/27/1 58/21/1 42/21/1 
f 41/27/8 43/28/8 59/28/8 
f 59/28/8 57/27/8 41/27/8 
f 43/28/7 44/22/7 60/22/7 
f 60/22/7 59/28/7 43/28/7 
f 44/22/6 45/19/6 61/19/6 
f 61/19/6 60/22/6 44/22/6 
f 45/19/5 46/29/5 62/29/5 
f 62/29/5 61/19/5 45/19/5 
f 46/29/4 47/30/4 63/30/4 
f 63/30/4 62/29/4 46/29/4 
f 47/30/3 48/20/3 64/20/3 
f 64/20/3 63/30/3 47/30/3 
f 48/20/2 42/21/2 58/21/2 
f 58/21/2 64/20/2 48/20/2 
f 58/21/9 57/27/9 65/27/9 
f 65/27/9 66/21/9 58/21/9 
f 57/27/9 59/28/9 67/28/9 
f 67/28/9 65/27/9 57/27/9 
f 59/28/9 60/22/9 68/22/9 
f 68/22/9 67/28/9 59/28/9 
f 60/22/9 61/19/9 69/19/9 
f 69/19/9 68/22/9 60/22/9 
f 61/19/9 62/29/9 70/29/9 
f 70/29/9 69/19/9 61/19/9 
f 62/29/9 63/30/9 71/30/9 
f 71/30/9 70/29/9 62/29/9 
f 63/30/9 64/20/9 72/20/9 
f 72/20/9 71/30/9 63/30/9 
f 64/20/9 58/21/9 66/21/9 
f 66/21/9 72/20/9 64/20/9 
f 50/31/10 49/32/10 73/32/10 
f 73/32/10 74/31/10 50/31/10 
f 49/32/10 51/26/10 24/26/10 
f 24/26/10 73/32/10 49/32/10 
f 51/26/10 52/23/10 21/23/10 
f 21/23/10 24/26/10 51/26/10 
f 52/23/10 53/24/10 22/24/10 
f 22/24/10 21/23/10 52/23/10 
f 53/24/10 54/25/10 23/25/10 
f 23/25/10 22/24/10 53/24/10 
f 54/25/10 55/33/10 75/33/10 
f 75/33/10 23/25/10 54/25/10 
f 55/33/10 56/34/10 76/34/10 
f 76/34/10 75/33/10 55/33/10 
f 56/34/10 50/31/10 74/31/10 
f 74/31/10 76/34/10 56/34/10 
f 70/29/9 71/30/9 72/20/9 
f 72/20/9 69/19/9 70/29/9 
f 65/27/9 67/28/9 68/22/9 
f 68/22/9 66/21/9 65/27/9 
f 76/34/10 74/31/10 73/32/10 
f 73/32/10 75/33/10 76/34/10 
f 77/33/10 78/32/10 79/26/10 
f 79/26/10 80/25/10 77/33/10 
f 68/22/11 69/19/11 17/19/11 
f 17/19/11 20/22/11 68/22/11 
f 69/19/8 72/20/8 18/20/8 
f 18/20/8 17/19/8 69/19/8 
f 72/20/12 66/21/12 19/21/12 
f 19/21/12 18/20/12 72/20/12 
f 66/21/4 68/22/4 20/22/4 
f 20/22/4 19/21/4 66/21/4 
f 73/32/12 24/26/12 79/26/12 
f 79/26/12 78/32/12 73/32/12 
f 24/26/8 23/25/8 80/25/8 
f 80/25/8 79/26/8 24/26/8 
f 23/25/11 75/33/11 77/33/11 
f 77/33/11 80/25/11 23/25/11 
f 75/33/4 73/32/4 78/32/4 
f 78/32/4 77/33/4 75/33/4 
# 156 faces

