# 3ds Max Wavefront OBJ Exporter v0.97b - (c)2007 guruware
# File Created: 06.08.2019 17:02:27

mtllib Elucidator18f.mtl

#
# object w00_013_00
#

v  -0.5680 0.3220 -0.6192
v  -0.5612 0.3416 -0.6493
v  -0.5496 0.3420 -0.6322
v  -0.5735 0.3582 -0.6412
v  -0.5279 0.3928 -0.6732
v  -0.5448 0.3922 -0.6979
v  -0.5781 0.3410 -0.6740
v  -0.6349 0.3196 -0.7173
v  -0.6473 0.3362 -0.7093
v  -0.5904 0.3576 -0.6660
v  -0.5804 0.3386 -0.6112
v  -0.5619 0.3586 -0.6242
v  -0.4399 0.3676 -0.4046
v  -0.4035 0.3584 -0.4104
v  -0.4252 0.3599 -0.3957
v  -0.4262 0.3337 -0.3943
v  -0.4414 0.3263 -0.4026
v  -0.4045 0.3322 -0.4091
v  -0.4073 0.3239 -0.4258
v  -0.4057 0.3652 -0.4278
v  -0.4210 0.3578 -0.4361
v  -0.4427 0.3593 -0.4213
v  -0.5722 0.3547 -0.6114
v  -0.4437 0.3331 -0.4200
v  -0.5732 0.3285 -0.6101
v  -0.4220 0.3316 -0.4348
v  -0.5515 0.3270 -0.6248
v  -0.5505 0.3532 -0.6261
v  -0.5182 0.4126 -0.6628
v  -0.5561 0.3713 -0.6360
v  -0.5514 0.4114 -0.7114
v  -0.5893 0.3702 -0.6846
v  -0.5991 0.3246 -0.6056
v  -0.6924 0.3213 -0.7425
v  -0.5746 0.3506 -0.6941
v  -0.6778 0.3017 -0.7520
v  -0.5845 0.3050 -0.6151
v  -0.5415 0.3517 -0.6455
v  -0.5367 0.3918 -0.7209
v  -0.5036 0.3930 -0.6723
v  -0.5536 0.3196 -0.6390
v  -0.5761 0.3223 -0.6018
v  -0.5434 0.3200 -0.6241
v  -0.5419 0.3596 -0.6260
v  -0.5521 0.3592 -0.6410
v  -0.5848 0.3615 -0.6187
v  -0.5863 0.3220 -0.6167
v  -0.5747 0.3619 -0.6038
v  -0.6495 0.3680 -0.7729
v  -0.6348 0.3484 -0.7824
v  -0.6682 0.3453 -0.7615
v  -0.8779 0.3090 -1.0390
v  -0.8642 0.3384 -1.0490
v  -0.8386 0.3517 -1.0668
v  -0.6426 0.3587 -0.7793
v  -0.8523 0.3224 -1.0568
v  -0.6563 0.3293 -0.7693
v  -0.6819 0.3159 -0.7515
v  -0.6421 0.3462 -0.7231
v  -0.6163 0.3650 -0.7518
v  -0.6302 0.3302 -0.7309
v  -0.6153 0.3308 -0.7091
v  -0.5318 0.4049 -0.7042
v  -0.5419 0.3856 -0.6650
v  -0.5793 0.3764 -0.6976
v  -0.5520 0.3993 -0.7236
v  -0.5710 0.3652 -0.7030
v  -0.5773 0.3869 -0.7369
v  -0.5911 0.3875 -0.7594
v  -0.6272 0.3467 -0.7014
v  -1.0477 0.3443 -1.3735
v  -1.0614 0.3150 -1.3635
v  -1.0870 0.3016 -1.3457
v  -1.1279 0.3208 -1.4484
v  -1.0733 0.3309 -1.3558
v  -0.6658 0.3111 -0.7168
v  -0.6858 0.2844 -0.6924
v  -0.6558 0.2956 -0.6806
v  -0.6346 0.3020 -0.6618
v  -0.6503 0.2929 -0.6639
v  -0.6658 0.2903 -0.6736
v  -0.6604 0.3017 -0.6777
v  -0.6394 0.3085 -0.6587
v  -0.6151 0.3390 -0.6962
v  -0.5767 0.3653 -0.6913
v  -0.5359 0.3776 -0.6688
v  -0.6538 0.2976 -0.6616
v  -0.6580 0.2859 -0.6525
v  -0.5006 0.4233 -0.6940
v  -0.5111 0.4057 -0.6739
v  -0.5376 0.3769 -0.6552
v  -0.6295 0.3052 -0.6486
# 92 vertices

vn -0.1252 0.9902 0.0614
vn -0.8339 0.4780 0.2759
vn -0.7950 -0.2598 0.5482
vn 0.0473 -0.9629 -0.2657
vn -0.7289 -0.2316 -0.6443
vn 0.1247 -0.3555 0.9263
vn -0.4418 0.4434 0.7799
vn -0.3972 0.1391 0.9071
vn 0.9458 -0.0121 -0.3245
vn 0.3637 -0.8757 0.3175
vn 0.7216 -0.4990 -0.4798
vn -0.0374 -0.9981 0.0496
vn -0.4088 0.8318 0.3755
vn 0.8218 0.5589 0.1112
vn -0.1409 0.6275 0.7657
vn -0.3256 -0.3191 0.8900
vn -0.6102 -0.6641 0.4320
vn 0.5886 -0.7593 0.2775
vn 0.5573 -0.7474 -0.3618
vn 0.6262 0.4975 -0.6003
vn 0.0303 0.7152 -0.6982
vn -0.9120 0.4073 -0.0485
vn -0.5573 0.7474 0.3618
vn 0.6102 0.6641 -0.4320
vn -0.7551 -0.3937 0.5242
vn -0.4027 -0.8664 0.2954
vn 0.3357 -0.9190 -0.2066
vn 0.2976 -0.4291 -0.8528
vn -0.6447 -0.7370 -0.2031
vn 0.5631 0.0199 0.8261
vn -0.5631 -0.0199 -0.8261
vn -0.7807 -0.3148 0.5398
vn -0.5156 0.7897 0.3324
vn 0.2353 0.9545 -0.1834
vn 0.7596 0.2898 -0.5823
vn 0.5855 -0.7151 -0.3819
vn 0.5156 -0.7897 -0.3324
vn -0.6438 -0.6641 0.3802
vn -0.5366 0.7809 0.3198
vn 0.2876 0.5825 -0.7603
vn 0.5760 -0.7114 -0.4027
vn 0.5933 -0.6370 -0.4922
vn 0.3973 0.6226 -0.6742
vn -0.5073 0.8174 0.2730
vn -0.4951 0.8368 0.2337
vn 0.3029 0.5887 -0.7494
vn 0.6037 -0.6368 -0.4797
vn 0.3007 0.5878 -0.7511
vn 0.0006 0.4361 -0.8999
vn -0.5042 0.8350 0.2204
vn 0.5515 0.6589 -0.5116
vn 0.5287 -0.7474 -0.4023
vn -0.2907 -0.9518 0.0980
vn -0.6183 0.7003 0.3567
vn -0.8276 -0.5354 -0.1687
vn -0.6944 0.5533 0.4600
vn -0.6709 0.6501 0.3568
vn -0.7911 -0.6103 0.0422
vn 0.4312 -0.8279 -0.3588
vn 0.4367 -0.8576 -0.2718
vn 0.5049 -0.8111 -0.2953
vn 0.5079 -0.8076 -0.2999
vn -0.6368 -0.6643 0.3914
vn 0.3318 -0.8998 -0.2834
vn -0.6585 0.6112 0.4392
vn -0.6034 0.6752 0.4243
vn -0.7176 -0.6527 0.2431
vn 0.1563 -0.3335 0.9297
vn -0.2320 0.2576 0.9380
vn -0.4373 0.3051 0.8460
vn -0.2190 -0.5526 0.8042
vn 0.4296 -0.8575 0.2831
vn 0.2638 -0.9632 0.0514
vn -0.7380 0.5350 0.4112
vn -0.7568 -0.6365 0.1492
vn 0.5987 -0.6659 -0.4451
vn 0.0260 0.4512 -0.8920
vn 0.6335 0.1010 0.7671
vn -0.3069 0.7368 0.6024
vn 0.7452 0.2579 0.6149
vn 0.7403 -0.6677 -0.0776
vn -0.6816 0.3048 0.6653
vn -0.4175 -0.6289 0.6559
vn 0.7684 0.2990 0.5659
vn 0.8885 -0.4587 0.0101
vn 0.7952 0.3549 0.4917
vn -0.0413 0.7884 0.6138
vn 0.1664 0.7099 0.6844
vn 0.0258 -0.4199 0.9072
vn 0.5361 -0.8425 -0.0520
vn 0.1179 -0.3601 0.9254
vn -0.5196 0.5734 0.6334
vn -0.5254 0.5087 0.6821
vn -0.6011 0.6798 0.4202
vn 0.9303 -0.3147 0.1884
vn 0.4997 -0.8661 0.0166
vn 0.3832 -0.8920 -0.2397
vn 0.5049 -0.7307 0.4596
# 98 vertex normals

vt 0.7254 0.5925 0.0000
vt 0.6602 0.5925 0.0000
vt 0.5950 0.5925 0.0000
vt 0.5950 0.6470 0.0000
vt 0.6711 0.6470 0.0000
vt 0.7254 0.7403 0.0000
vt 0.1169 0.8843 0.0000
vt 0.2255 0.8182 0.0000
vt 0.2255 0.8843 0.0000
vt 0.2255 0.9505 0.0000
vt 0.1169 0.9894 0.0000
vt 0.1169 0.7831 0.0000
vt 0.0191 0.8182 0.0000
vt 0.0191 0.8843 0.0000
vt 0.9210 0.9933 0.0000
vt 0.9862 0.7053 0.0000
vt 0.9210 0.7053 0.0000
vt 0.8558 0.7053 0.0000
vt 0.8558 0.9933 0.0000
vt 0.9862 0.9933 0.0000
vt 0.0191 0.9505 0.0000
vt 0.2581 0.0011 0.0000
vt 0.5516 0.0011 0.0000
vt 0.2581 0.1995 0.0000
vt 0.5516 0.1995 0.0000
vt 0.9971 0.0011 0.0000
vt 0.9971 0.5536 0.0000
vt 0.6711 0.8843 0.0000
vt 0.8232 0.9855 0.0000
vt 0.8232 0.8843 0.0000
vt 0.8232 0.7793 0.0000
vt 0.6711 0.7793 0.0000
vt 0.6711 0.9855 0.0000
vt 0.2581 0.9855 0.0000
vt 0.3234 0.9543 0.0000
vt 0.2581 0.9232 0.0000
vt 0.5733 0.6586 0.0000
vt 0.6820 0.6003 0.0000
vt 0.8015 0.6586 0.0000
vt 0.6820 0.7170 0.0000
vt 0.5516 0.5536 0.0000
vt 0.0191 0.4524 0.0000
vt 0.2255 0.0167 0.0000
vt 0.0191 0.0167 0.0000
vt 0.2255 0.4524 0.0000
vt 0.0191 0.6081 0.0000
vt 0.2255 0.6081 0.0000
vt 0.0191 0.7131 0.0000
vt 0.6494 0.8921 0.0000
vt 0.3559 0.9699 0.0000
vt 0.2690 0.8065 0.0000
vt 0.6494 0.7831 0.0000
vt 0.4972 0.7131 0.0000
vt 0.4972 0.6081 0.0000
vt 0.2690 0.5847 0.0000
vt 0.4864 0.5847 0.0000
vt 0.4864 0.3163 0.0000
vt 0.2690 0.3163 0.0000
vt 0.4864 0.2384 0.0000
vt -0.7742 0.6042 0.0000
vt -0.9915 0.6042 0.0000
vt -0.8829 0.7131 0.0000
vt -0.5025 0.6042 0.0000
vt -0.5786 0.7131 0.0000
vt -0.6981 0.7870 0.0000
vt -0.5786 0.7520 0.0000
vt -0.5025 0.6859 0.0000
vt -0.4699 0.7676 0.0000
vt 1.7360 0.8999 0.0000
vt 1.7795 0.8999 0.0000
vt 1.7795 0.8532 0.0000
vt 1.7360 0.8532 0.0000
vt 1.7795 0.8065 0.0000
vt -0.4047 0.7403 0.0000
vt 0.6494 0.9699 0.0000
vt 1.4970 0.3007 0.0000
vt 1.4426 0.3746 0.0000
vt 1.4426 0.2423 0.0000
vt 1.4970 0.3746 0.0000
vt 1.7360 0.8065 0.0000
vt 1.7795 0.8843 0.0000
vt 1.7360 0.8843 0.0000
vt 1.5948 0.9154 0.0000
vt 1.6382 0.8376 0.0000
vt 1.5948 0.8376 0.0000
vt 1.6382 0.9154 0.0000
# 86 texture coords

o w00_013_00
g w00_013_00
usemtl Material__237
s 1
f 3/2/3 2/2/2 1/1/1 
f 2/2/2 3/2/3 4/2/4 
f 4/2/4 5/3/5 2/2/2 
f 5/3/5 4/2/4 6/4/6 
f 6/4/6 2/2/2 5/3/5 
f 2/2/2 6/4/6 7/5/7 
f 7/5/7 1/1/1 2/2/2 
f 1/1/1 7/5/7 8/6/8 
f 8/6/8 9/6/9 1/1/1 
f 9/6/9 8/6/8 10/5/10 
f 10/5/10 11/1/11 9/6/9 
f 11/1/11 10/5/10 4/2/4 
f 4/2/4 12/2/12 11/1/11 
f 12/2/12 4/2/4 3/2/3 
f 15/9/15 14/8/14 13/7/13 
f 13/7/13 16/10/16 15/9/15 
f 16/10/16 13/7/13 17/11/17 
f 17/11/17 18/9/18 16/10/16 
f 18/9/18 17/11/17 19/7/19 
f 19/7/19 14/8/14 18/9/18 
f 14/8/14 19/7/19 20/12/20 
f 20/12/20 13/7/13 14/8/14 
f 13/7/13 20/12/20 21/13/21 
f 21/13/21 22/14/22 13/7/13 
f 22/17/23 21/16/24 23/15/23 
f 23/15/23 24/18/25 22/17/23 
f 24/18/25 23/15/23 25/19/26 
f 25/19/26 26/17/27 24/18/25 
f 26/17/27 25/19/26 27/15/11 
f 27/15/11 21/16/24 26/17/27 
f 21/16/24 27/15/11 28/20/24 
f 28/20/24 23/15/23 21/16/24 
f 26/14/28 20/12/20 19/7/19 
f 19/7/19 24/21/29 26/14/28 
f 24/21/29 19/7/19 17/11/17 
f 17/11/17 22/14/22 24/21/29 
f 22/14/22 17/11/17 13/7/13 
f 31/24/23 30/23/23 29/22/23 
f 30/23/23 31/24/23 32/25/23 
f 32/25/23 33/26/23 30/23/23 
f 33/26/23 32/25/23 34/27/23 
f 37/26/19 36/27/19 35/25/19 
f 35/25/19 38/23/19 37/26/19 
f 38/23/19 35/25/19 39/24/19 
f 39/24/19 40/22/19 38/23/19 
f 43/30/19 42/29/17 41/28/19 
f 41/28/19 44/31/24 43/30/19 
f 44/31/24 41/28/19 45/32/24 
f 45/32/24 46/28/23 44/31/24 
f 47/33/17 41/28/19 42/29/17 
f 42/29/17 46/28/23 47/33/17 
f 46/28/23 42/29/17 48/30/23 
f 48/30/23 44/31/24 46/28/23 
f 6/4/6 4/2/4 10/5/10 
f 10/5/10 7/5/7 6/4/6 
f 7/5/7 10/5/10 8/6/8 
f 15/36/30 16/35/30 18/34/30 
f 18/34/30 14/35/30 15/36/30 
f 47/39/31 46/38/31 45/37/31 
f 45/37/31 41/40/31 47/39/31 
f 44/37/30 48/38/30 42/39/30 
f 42/39/30 43/40/30 44/37/30 
f 26/14/28 21/13/21 20/12/20 
f 32/25/23 49/41/23 34/27/23 
f 35/25/19 36/27/19 50/41/19 
f 11/1/11 1/1/1 9/6/9 
f 53/44/33 52/43/32 51/42/23 
f 51/42/23 54/43/34 53/44/33 
f 54/43/34 51/42/23 55/45/35 
f 55/45/35 56/44/36 54/43/34 
f 56/44/36 55/45/35 57/42/37 
f 57/42/37 52/43/32 56/44/36 
f 52/43/32 57/42/37 58/45/38 
f 58/45/38 51/42/23 52/43/32 
f 51/42/23 58/45/38 59/46/39 
f 59/46/39 55/45/35 51/42/23 
f 55/45/35 59/46/39 60/47/40 
f 60/47/40 61/46/41 55/45/35 
f 61/46/41 60/47/40 62/48/42 
f 65/51/45 64/50/44 63/49/43 
f 63/49/43 66/52/46 65/51/45 
f 66/52/46 63/49/43 67/51/47 
f 67/51/47 68/53/48 66/52/46 
f 68/53/48 67/51/47 62/48/42 
f 62/48/42 69/54/49 68/53/48 
f 69/54/49 62/48/42 60/47/40 
f 60/47/40 70/48/50 69/54/49 
f 70/48/50 60/47/40 59/46/39 
f 71/57/51 54/56/34 56/55/36 
f 56/55/36 72/58/52 71/57/51 
f 72/58/52 56/55/36 73/57/53 
f 73/57/53 74/59/31 72/58/52 
f 74/59/31 73/57/53 75/58/54 
f 75/58/54 71/57/51 74/59/31 
f 71/57/51 75/58/54 53/55/33 
f 53/55/33 54/56/34 71/57/51 
f 70/62/57 59/61/56 76/60/55 
f 76/60/55 77/63/58 70/62/57 
f 77/63/58 76/60/55 62/62/59 
f 62/62/59 78/64/60 77/63/58 
f 78/64/60 62/62/59 79/65/61 
f 79/65/61 80/66/62 78/64/60 
f 78/64/60 80/68/64 81/67/63 
f 81/67/63 77/63/58 78/64/60 
f 77/63/58 81/67/63 82/64/65 
f 82/64/65 70/62/57 77/63/58 
f 70/62/57 82/64/65 83/65/66 
f 76/47/67 59/46/39 58/45/38 
f 58/45/38 61/46/41 76/47/67 
f 61/46/41 58/45/38 57/42/37 
f 57/42/37 55/45/35 61/46/41 
f 65/71/70 70/70/69 84/69/68 
f 84/69/68 85/72/71 65/71/70 
f 85/72/71 84/69/68 67/71/72 
f 67/71/72 86/73/73 85/72/71 
f 87/68/74 82/64/65 81/67/63 
f 81/67/63 88/74/75 87/68/74 
f 88/74/75 81/67/63 80/68/64 
f 86/50/76 67/51/47 63/49/43 
f 63/49/43 89/75/77 86/50/76 
f 89/75/77 63/49/43 64/50/44 
f 89/78/80 64/77/79 90/76/78 
f 90/76/78 86/77/81 89/78/80 
f 86/77/81 90/76/78 91/79/30 
f 64/73/82 65/71/70 85/72/71 
f 85/72/71 91/80/83 64/73/82 
f 91/80/83 85/72/71 86/73/73 
f 92/82/86 79/81/85 84/72/84 
f 84/72/84 83/81/87 92/82/86 
f 83/81/87 84/72/84 70/71/88 
f 88/85/91 80/84/90 92/83/89 
f 92/83/89 87/84/92 88/85/91 
f 87/84/92 92/83/89 83/86/93 
f 65/51/45 66/52/46 68/53/48 
f 68/53/48 70/48/50 65/51/45 
f 70/48/50 68/53/48 69/54/49 
f 73/57/53 56/55/36 52/56/32 
f 52/56/32 75/58/54 73/57/53 
f 75/58/54 52/56/32 53/55/33 
f 83/65/66 82/64/65 87/66/94 
f 90/76/78 64/77/79 91/79/30 
f 79/81/85 62/71/95 84/72/84 
f 80/84/90 79/86/96 92/83/89 
f 61/61/97 62/62/59 76/60/55 
f 84/69/68 62/70/98 67/71/72 
f 71/57/51 72/58/52 74/59/31 
# 146 faces

