# 3ds Max Wavefront OBJ Exporter v0.97b - (c)2007 guruware
# File Created: 06.08.2019 17:02:40

mtllib Elucidator41f.mtl

#
# object w00_013_00
#

v  0.5687 0.4113 0.0691
v  0.5642 0.3990 0.0349
v  0.5509 0.4113 0.0447
v  0.5534 0.3812 0.0427
v  0.5208 0.3903 -0.0135
v  0.5402 0.3723 -0.0276
v  0.5836 0.3810 0.0208
v  0.6454 0.3399 0.0130
v  0.6346 0.3222 0.0208
v  0.5728 0.3632 0.0286
v  0.5579 0.3935 0.0769
v  0.5401 0.3936 0.0525
v  0.3781 0.5293 0.1886
v  0.3714 0.5621 0.1706
v  0.3733 0.5472 0.1921
v  0.3932 0.5620 0.2006
v  0.4095 0.5526 0.2019
v  0.3913 0.5769 0.1791
v  0.4066 0.5761 0.1680
v  0.3752 0.5528 0.1546
v  0.3915 0.5434 0.1559
v  0.3933 0.5285 0.1775
v  0.5419 0.3904 0.0690
v  0.4133 0.5433 0.1860
v  0.5618 0.4052 0.0775
v  0.4114 0.5582 0.1644
v  0.5600 0.4201 0.0559
v  0.5400 0.4053 0.0474
v  0.4966 0.3885 -0.0138
v  0.5331 0.3883 0.0364
v  0.5345 0.3532 -0.0416
v  0.5711 0.3530 0.0087
v  0.5745 0.3881 0.0934
v  0.6815 0.2886 0.0152
v  0.5838 0.3740 -0.0005
v  0.6943 0.3096 0.0060
v  0.5873 0.4091 0.0841
v  0.5459 0.4093 0.0272
v  0.5473 0.3742 -0.0508
v  0.5093 0.4095 -0.0230
v  0.5730 0.4199 0.0464
v  0.5642 0.4082 0.0875
v  0.5613 0.4307 0.0550
v  0.5312 0.4084 0.0421
v  0.5428 0.3975 0.0336
v  0.5457 0.3750 0.0661
v  0.5758 0.3974 0.0790
v  0.5340 0.3859 0.0747
v  0.6401 0.2888 -0.0417
v  0.6529 0.3098 -0.0510
v  0.6609 0.2897 -0.0179
v  0.9097 0.0892 -0.1598
v  0.8856 0.0807 -0.1821
v  0.8719 0.0894 -0.2119
v  0.6471 0.2983 -0.0477
v  0.8960 0.0978 -0.1896
v  0.6713 0.3068 -0.0254
v  0.6850 0.2981 0.0043
v  0.6308 0.3176 0.0040
v  0.6179 0.3210 -0.0367
v  0.6412 0.3347 -0.0035
v  0.6242 0.3505 0.0089
v  0.5274 0.3738 -0.0419
v  0.5289 0.3852 0.0015
v  0.5678 0.3545 -0.0085
v  0.5497 0.3573 -0.0486
v  0.5750 0.3665 -0.0137
v  0.5767 0.3419 -0.0462
v  0.5927 0.3261 -0.0600
v  0.6138 0.3334 0.0164
v  1.1116 -0.1335 -0.3871
v  1.1357 -0.1251 -0.3648
v  1.1495 -0.1337 -0.3350
v  1.2000 -0.1982 -0.4118
v  1.1253 -0.1422 -0.3573
v  0.6656 0.3207 0.0289
v  0.6840 0.3256 0.0655
v  0.6565 0.3450 0.0600
v  0.6335 0.3618 0.0657
v  0.6485 0.3544 0.0729
v  0.6619 0.3418 0.0718
v  0.6525 0.3385 0.0629
v  0.6293 0.3549 0.0687
v  0.6120 0.3485 0.0178
v  0.5722 0.3644 -0.0012
v  0.5341 0.3938 -0.0022
v  0.6455 0.3494 0.0751
v  0.6521 0.3548 0.0879
v  0.4946 0.3897 -0.0511
v  0.5037 0.3958 -0.0246
v  0.5291 0.3957 0.0104
v  0.6227 0.3667 0.0741
# 92 vertices

vn -0.7314 -0.6637 -0.1564
vn -0.1163 -0.8774 0.4654
vn 0.3082 -0.3603 0.8804
vn 0.8386 0.5447 0.0052
vn 0.8001 -0.5697 -0.1879
vn -0.2055 0.4957 0.8438
vn -0.4963 -0.4457 0.7450
vn -0.3408 -0.2069 0.9171
vn -0.2696 0.6834 -0.6785
vn 0.3633 0.8621 0.3533
vn 0.2760 0.7596 -0.5889
vn 0.7602 0.5634 0.3236
vn -0.6250 -0.7296 0.2777
vn -0.8503 0.3421 -0.3999
vn -0.7669 -0.3197 0.5565
vn -0.0138 0.1132 0.9935
vn 0.5881 -0.0030 0.8088
vn 0.1908 0.9626 0.1925
vn 0.4870 0.7997 -0.3511
vn -0.3908 0.0783 -0.9171
vn -0.2444 -0.5371 -0.8073
vn 0.1210 -0.9642 0.2362
vn -0.4870 -0.7997 0.3512
vn -0.5881 0.0030 -0.8088
vn 0.4039 -0.2557 0.8783
vn 0.7119 0.2501 0.6562
vn 0.6480 0.7577 -0.0774
vn 0.5836 0.3091 -0.7509
vn 0.9489 -0.1180 0.2926
vn -0.6457 0.6004 0.4718
vn 0.6457 -0.6004 -0.4718
vn 0.3478 -0.3187 0.8817
vn -0.5249 -0.7978 0.2968
vn -0.7550 -0.4100 -0.5117
vn -0.2998 0.3080 -0.9029
vn 0.4586 0.7990 -0.3891
vn 0.5249 0.7978 -0.2968
vn 0.6268 -0.0400 0.7782
vn -0.5029 -0.8117 0.2971
vn -0.2303 -0.2702 -0.9348
vn 0.4695 0.7851 -0.4040
vn 0.4454 0.7368 -0.5087
vn -0.3499 -0.1898 -0.9174
vn -0.5228 -0.8196 0.2345
vn -0.5253 -0.8294 0.1901
vn -0.2470 -0.2596 -0.9336
vn 0.4348 0.7474 -0.5023
vn -0.2445 -0.2612 -0.9338
vn 0.0750 -0.4389 -0.8954
vn -0.5137 -0.8382 0.1829
vn -0.5213 -0.0565 -0.8515
vn 0.5184 0.7690 -0.3741
vn 0.8169 0.3473 0.4605
vn -0.4210 -0.8213 0.3851
vn 0.8611 -0.3723 0.3464
vn -0.3209 -0.7740 0.5458
vn -0.3588 -0.8332 0.4207
vn 0.8060 -0.2565 0.5335
vn 0.6043 0.7483 -0.2738
vn 0.5850 0.7878 -0.1929
vn 0.5292 0.8094 -0.2544
vn 0.5272 0.8088 -0.2606
vn 0.6187 -0.0321 0.7850
vn 0.6699 0.7277 -0.1473
vn -0.3721 -0.7838 0.4972
vn -0.4393 -0.7810 0.4439
vn 0.7139 -0.1328 0.6876
vn -0.2381 0.5084 0.8276
vn -0.5204 -0.1400 0.8424
vn -0.4223 -0.3479 0.8370
vn 0.1565 0.3157 0.9359
vn 0.3353 0.8961 0.2908
vn 0.5967 0.7801 0.1883
vn -0.2649 -0.8076 0.5268
vn 0.7619 -0.1923 0.6185
vn 0.4437 0.7676 -0.4625
vn 0.0484 -0.4261 -0.9034
vn -0.7128 0.5962 0.3694
vn -0.7014 -0.5475 0.4563
vn -0.8143 0.5611 0.1486
vn 0.2138 0.9554 -0.2036
vn -0.2295 -0.5767 0.7841
vn 0.3721 0.1738 0.9118
vn -0.8339 0.5453 0.0854
vn -0.0534 0.9678 -0.2459
vn -0.8551 0.5185 -0.0051
vn -0.8660 -0.3666 0.3400
vn -0.9316 -0.1431 0.3341
vn -0.1027 0.4517 0.8862
vn 0.4284 0.9023 -0.0486
vn -0.1985 0.4929 0.8472
vn -0.4942 -0.6128 0.6166
vn -0.4641 -0.5696 0.6784
vn -0.4419 -0.7827 0.4382
vn -0.2640 0.9532 -0.1474
vn 0.4317 0.9015 0.0325
vn 0.6209 0.7725 -0.1333
vn 0.1236 0.9175 0.3780
# 98 vertex normals

vt 0.7254 0.5925 0.0000
vt 0.6602 0.5925 0.0000
vt 0.5950 0.5925 0.0000
vt 0.5950 0.6470 0.0000
vt 0.6711 0.6470 0.0000
vt 0.7254 0.7403 0.0000
vt 0.1169 0.8843 0.0000
vt 0.2255 0.8182 0.0000
vt 0.2255 0.8843 0.0000
vt 0.2255 0.9505 0.0000
vt 0.1169 0.9894 0.0000
vt 0.1169 0.7831 0.0000
vt 0.0191 0.8182 0.0000
vt 0.0191 0.8843 0.0000
vt 0.9210 0.9933 0.0000
vt 0.9862 0.7053 0.0000
vt 0.9210 0.7053 0.0000
vt 0.8558 0.7053 0.0000
vt 0.8558 0.9933 0.0000
vt 0.9862 0.9933 0.0000
vt 0.0191 0.9505 0.0000
vt 0.2581 0.0011 0.0000
vt 0.5516 0.0011 0.0000
vt 0.2581 0.1995 0.0000
vt 0.5516 0.1995 0.0000
vt 0.9971 0.0011 0.0000
vt 0.9971 0.5536 0.0000
vt 0.6711 0.8843 0.0000
vt 0.8232 0.9855 0.0000
vt 0.8232 0.8843 0.0000
vt 0.8232 0.7793 0.0000
vt 0.6711 0.7793 0.0000
vt 0.6711 0.9855 0.0000
vt 0.2581 0.9855 0.0000
vt 0.3234 0.9543 0.0000
vt 0.2581 0.9232 0.0000
vt 0.5733 0.6586 0.0000
vt 0.6820 0.6003 0.0000
vt 0.8015 0.6586 0.0000
vt 0.6820 0.7170 0.0000
vt 0.5516 0.5536 0.0000
vt 0.0191 0.4524 0.0000
vt 0.2255 0.0167 0.0000
vt 0.0191 0.0167 0.0000
vt 0.2255 0.4524 0.0000
vt 0.0191 0.6081 0.0000
vt 0.2255 0.6081 0.0000
vt 0.0191 0.7131 0.0000
vt 0.6494 0.8921 0.0000
vt 0.3559 0.9699 0.0000
vt 0.2690 0.8065 0.0000
vt 0.6494 0.7831 0.0000
vt 0.4972 0.7131 0.0000
vt 0.4972 0.6081 0.0000
vt 0.2690 0.5847 0.0000
vt 0.4864 0.5847 0.0000
vt 0.4864 0.3163 0.0000
vt 0.2690 0.3163 0.0000
vt 0.4864 0.2384 0.0000
vt -0.7742 0.6042 0.0000
vt -0.9915 0.6042 0.0000
vt -0.8829 0.7131 0.0000
vt -0.5025 0.6042 0.0000
vt -0.5786 0.7131 0.0000
vt -0.6981 0.7870 0.0000
vt -0.5786 0.7520 0.0000
vt -0.5025 0.6859 0.0000
vt -0.4699 0.7676 0.0000
vt 1.7360 0.8999 0.0000
vt 1.7795 0.8999 0.0000
vt 1.7795 0.8532 0.0000
vt 1.7360 0.8532 0.0000
vt 1.7795 0.8065 0.0000
vt -0.4047 0.7403 0.0000
vt 0.6494 0.9699 0.0000
vt 1.4970 0.3007 0.0000
vt 1.4426 0.3746 0.0000
vt 1.4426 0.2423 0.0000
vt 1.4970 0.3746 0.0000
vt 1.7360 0.8065 0.0000
vt 1.7795 0.8843 0.0000
vt 1.7360 0.8843 0.0000
vt 1.5948 0.9154 0.0000
vt 1.6382 0.8376 0.0000
vt 1.5948 0.8376 0.0000
vt 1.6382 0.9154 0.0000
# 86 texture coords

o w00_013_00
g w00_013_00
usemtl Material__237
s 1
f 3/2/3 2/2/2 1/1/1 
f 2/2/2 3/2/3 4/2/4 
f 4/2/4 5/3/5 2/2/2 
f 5/3/5 4/2/4 6/4/6 
f 6/4/6 2/2/2 5/3/5 
f 2/2/2 6/4/6 7/5/7 
f 7/5/7 1/1/1 2/2/2 
f 1/1/1 7/5/7 8/6/8 
f 8/6/8 9/6/9 1/1/1 
f 9/6/9 8/6/8 10/5/10 
f 10/5/10 11/1/11 9/6/9 
f 11/1/11 10/5/10 4/2/4 
f 4/2/4 12/2/12 11/1/11 
f 12/2/12 4/2/4 3/2/3 
f 15/9/15 14/8/14 13/7/13 
f 13/7/13 16/10/16 15/9/15 
f 16/10/16 13/7/13 17/11/17 
f 17/11/17 18/9/18 16/10/16 
f 18/9/18 17/11/17 19/7/19 
f 19/7/19 14/8/14 18/9/18 
f 14/8/14 19/7/19 20/12/20 
f 20/12/20 13/7/13 14/8/14 
f 13/7/13 20/12/20 21/13/21 
f 21/13/21 22/14/22 13/7/13 
f 22/17/23 21/16/24 23/15/23 
f 23/15/23 24/18/25 22/17/23 
f 24/18/25 23/15/23 25/19/26 
f 25/19/26 26/17/27 24/18/25 
f 26/17/27 25/19/26 27/15/11 
f 27/15/11 21/16/24 26/17/27 
f 21/16/24 27/15/11 28/20/24 
f 28/20/24 23/15/23 21/16/24 
f 26/14/28 20/12/20 19/7/19 
f 19/7/19 24/21/29 26/14/28 
f 24/21/29 19/7/19 17/11/17 
f 17/11/17 22/14/22 24/21/29 
f 22/14/22 17/11/17 13/7/13 
f 31/24/23 30/23/23 29/22/23 
f 30/23/23 31/24/23 32/25/23 
f 32/25/23 33/26/23 30/23/23 
f 33/26/23 32/25/23 34/27/23 
f 37/26/19 36/27/19 35/25/19 
f 35/25/19 38/23/19 37/26/19 
f 38/23/19 35/25/19 39/24/19 
f 39/24/19 40/22/19 38/23/19 
f 43/30/19 42/29/17 41/28/19 
f 41/28/19 44/31/24 43/30/19 
f 44/31/24 41/28/19 45/32/24 
f 45/32/24 46/28/23 44/31/24 
f 47/33/17 41/28/19 42/29/17 
f 42/29/17 46/28/23 47/33/17 
f 46/28/23 42/29/17 48/30/23 
f 48/30/23 44/31/24 46/28/23 
f 6/4/6 4/2/4 10/5/10 
f 10/5/10 7/5/7 6/4/6 
f 7/5/7 10/5/10 8/6/8 
f 15/36/30 16/35/30 18/34/30 
f 18/34/30 14/35/30 15/36/30 
f 47/39/31 46/38/31 45/37/31 
f 45/37/31 41/40/31 47/39/31 
f 44/37/30 48/38/30 42/39/30 
f 42/39/30 43/40/30 44/37/30 
f 26/14/28 21/13/21 20/12/20 
f 32/25/23 49/41/23 34/27/23 
f 35/25/19 36/27/19 50/41/19 
f 11/1/11 1/1/1 9/6/9 
f 53/44/33 52/43/32 51/42/23 
f 51/42/23 54/43/34 53/44/33 
f 54/43/34 51/42/23 55/45/35 
f 55/45/35 56/44/36 54/43/34 
f 56/44/36 55/45/35 57/42/37 
f 57/42/37 52/43/32 56/44/36 
f 52/43/32 57/42/37 58/45/38 
f 58/45/38 51/42/23 52/43/32 
f 51/42/23 58/45/38 59/46/39 
f 59/46/39 55/45/35 51/42/23 
f 55/45/35 59/46/39 60/47/40 
f 60/47/40 61/46/41 55/45/35 
f 61/46/41 60/47/40 62/48/42 
f 65/51/45 64/50/44 63/49/43 
f 63/49/43 66/52/46 65/51/45 
f 66/52/46 63/49/43 67/51/47 
f 67/51/47 68/53/48 66/52/46 
f 68/53/48 67/51/47 62/48/42 
f 62/48/42 69/54/49 68/53/48 
f 69/54/49 62/48/42 60/47/40 
f 60/47/40 70/48/50 69/54/49 
f 70/48/50 60/47/40 59/46/39 
f 71/57/51 54/56/34 56/55/36 
f 56/55/36 72/58/52 71/57/51 
f 72/58/52 56/55/36 73/57/53 
f 73/57/53 74/59/31 72/58/52 
f 74/59/31 73/57/53 75/58/54 
f 75/58/54 71/57/51 74/59/31 
f 71/57/51 75/58/54 53/55/33 
f 53/55/33 54/56/34 71/57/51 
f 70/62/57 59/61/56 76/60/55 
f 76/60/55 77/63/58 70/62/57 
f 77/63/58 76/60/55 62/62/59 
f 62/62/59 78/64/60 77/63/58 
f 78/64/60 62/62/59 79/65/61 
f 79/65/61 80/66/62 78/64/60 
f 78/64/60 80/68/64 81/67/63 
f 81/67/63 77/63/58 78/64/60 
f 77/63/58 81/67/63 82/64/65 
f 82/64/65 70/62/57 77/63/58 
f 70/62/57 82/64/65 83/65/66 
f 76/47/67 59/46/39 58/45/38 
f 58/45/38 61/46/41 76/47/67 
f 61/46/41 58/45/38 57/42/37 
f 57/42/37 55/45/35 61/46/41 
f 65/71/70 70/70/69 84/69/68 
f 84/69/68 85/72/71 65/71/70 
f 85/72/71 84/69/68 67/71/72 
f 67/71/72 86/73/73 85/72/71 
f 87/68/74 82/64/65 81/67/63 
f 81/67/63 88/74/75 87/68/74 
f 88/74/75 81/67/63 80/68/64 
f 86/50/76 67/51/47 63/49/43 
f 63/49/43 89/75/77 86/50/76 
f 89/75/77 63/49/43 64/50/44 
f 89/78/80 64/77/79 90/76/78 
f 90/76/78 86/77/81 89/78/80 
f 86/77/81 90/76/78 91/79/30 
f 64/73/82 65/71/70 85/72/71 
f 85/72/71 91/80/83 64/73/82 
f 91/80/83 85/72/71 86/73/73 
f 92/82/86 79/81/85 84/72/84 
f 84/72/84 83/81/87 92/82/86 
f 83/81/87 84/72/84 70/71/88 
f 88/85/91 80/84/90 92/83/89 
f 92/83/89 87/84/92 88/85/91 
f 87/84/92 92/83/89 83/86/93 
f 65/51/45 66/52/46 68/53/48 
f 68/53/48 70/48/50 65/51/45 
f 70/48/50 68/53/48 69/54/49 
f 73/57/53 56/55/36 52/56/32 
f 52/56/32 75/58/54 73/57/53 
f 75/58/54 52/56/32 53/55/33 
f 83/65/66 82/64/65 87/66/94 
f 90/76/78 64/77/79 91/79/30 
f 79/81/85 62/71/95 84/72/84 
f 80/84/90 79/86/96 92/83/89 
f 61/61/97 62/62/59 76/60/55 
f 84/69/68 62/70/98 67/71/72 
f 71/57/51 72/58/52 74/59/31 
# 146 faces

