# 3ds Max Wavefront OBJ Exporter v0.97b - (c)2007 guruware
# File Created: 06.08.2019 17:02:25

mtllib Elucidator12f.mtl

#
# object w00_013_00
#

v  -0.6119 0.9560 0.2708
v  -0.5982 0.9614 0.2374
v  -0.5906 0.9480 0.2511
v  -0.5848 0.9772 0.2454
v  -0.5458 0.9521 0.1991
v  -0.5569 0.9716 0.1792
v  -0.6093 0.9809 0.2175
v  -0.6559 1.0333 0.1920
v  -0.6425 1.0490 0.2000
v  -0.5959 0.9967 0.2255
v  -0.5986 0.9718 0.2789
v  -0.5772 0.9638 0.2591
v  -0.4838 0.8178 0.4412
v  -0.4825 0.7819 0.4288
v  -0.4845 0.8001 0.4476
v  -0.5088 0.7918 0.4531
v  -0.5221 0.8047 0.4497
v  -0.5068 0.7737 0.4342
v  -0.5190 0.7762 0.4200
v  -0.4807 0.7892 0.4114
v  -0.4940 0.8022 0.4081
v  -0.4960 0.8203 0.4270
v  -0.5811 0.9698 0.2744
v  -0.5203 0.8120 0.4324
v  -0.6054 0.9616 0.2798
v  -0.5183 0.7939 0.4136
v  -0.6035 0.9434 0.2610
v  -0.5792 0.9517 0.2555
v  -0.5222 0.9483 0.2038
v  -0.5662 0.9647 0.2445
v  -0.5440 0.9865 0.1648
v  -0.5880 1.0030 0.2055
v  -0.6160 0.9834 0.2906
v  -0.6774 1.0912 0.1807
v  -0.6038 0.9843 0.1960
v  -0.6931 1.0725 0.1712
v  -0.6318 0.9648 0.2811
v  -0.5820 0.9461 0.2350
v  -0.5598 0.9678 0.1553
v  -0.5380 0.9296 0.1944
v  -0.6140 0.9452 0.2489
v  -0.6103 0.9608 0.2894
v  -0.6073 0.9334 0.2609
v  -0.5706 0.9459 0.2526
v  -0.5773 0.9577 0.2407
v  -0.5803 0.9851 0.2692
v  -0.6170 0.9725 0.2774
v  -0.5736 0.9733 0.2811
v  -0.6275 1.0725 0.1346
v  -0.6433 1.0538 0.1251
v  -0.6519 1.0802 0.1532
v  -0.8099 1.3074 -0.0605
v  -0.7807 1.3064 -0.0777
v  -0.7644 1.2903 -0.1026
v  -0.6355 1.0640 0.1283
v  -0.7936 1.2912 -0.0854
v  -0.6648 1.0650 0.1455
v  -0.6811 1.0811 0.1704
v  -0.6347 1.0500 0.1841
v  -0.6157 1.0373 0.1478
v  -0.6475 1.0347 0.1763
v  -0.6378 1.0176 0.1938
v  -0.5425 0.9650 0.1683
v  -0.5550 0.9612 0.2113
v  -0.5820 0.9980 0.1897
v  -0.5581 0.9849 0.1551
v  -0.5910 0.9874 0.1843
v  -0.5803 1.0063 0.1499
v  -0.5887 1.0229 0.1313
v  -0.6249 1.0328 0.2015
v  -0.9018 1.5317 -0.3490
v  -0.9310 1.5326 -0.3318
v  -0.9474 1.5488 -0.3068
v  -0.9644 1.6101 -0.3992
v  -0.9182 1.5478 -0.3240
v  -0.6731 1.0588 0.2009
v  -0.6986 1.0641 0.2329
v  -0.6765 1.0383 0.2357
v  -0.6600 1.0178 0.2480
v  -0.6737 1.0296 0.2510
v  -0.6830 1.0445 0.2456
v  -0.6716 1.0441 0.2387
v  -0.6548 1.0240 0.2512
v  -0.6273 1.0181 0.2049
v  -0.5901 0.9907 0.1969
v  -0.5614 0.9536 0.2074
v  -0.6700 1.0340 0.2532
v  -0.6801 1.0323 0.2647
v  -0.5138 0.9408 0.1682
v  -0.5289 0.9411 0.1927
v  -0.5595 0.9526 0.2210
v  -0.6526 1.0120 0.2591
# 92 vertices

vn 0.8933 0.4451 -0.0623
vn 0.2492 0.8896 0.3828
vn -0.3637 0.5558 0.7475
vn -0.9362 -0.3300 -0.1206
vn -0.5773 0.7009 -0.4188
vn -0.0896 -0.3899 0.9165
vn 0.4464 0.4320 0.7837
vn 0.2056 0.2655 0.9419
vn 0.2063 -0.8253 -0.5256
vn -0.6318 -0.6889 0.3552
vn -0.3473 -0.7593 -0.5503
vn -0.9259 -0.3157 0.2073
vn 0.7285 0.6013 0.3283
vn 0.7929 -0.5867 -0.1646
vn 0.7058 0.2192 0.6737
vn -0.2011 0.0450 0.9785
vn -0.7075 0.2655 0.6549
vn -0.4641 -0.8504 0.2479
vn -0.6019 -0.7119 -0.3617
vn 0.5212 -0.3097 -0.7952
vn 0.5201 0.3323 -0.7868
vn 0.0891 0.9911 0.0992
vn 0.6019 0.7119 0.3617
vn 0.7075 -0.2655 -0.6549
vn -0.4809 0.4770 0.7357
vn -0.8616 0.0267 0.5069
vn -0.7948 -0.5914 -0.1361
vn -0.4930 -0.2817 -0.8231
vn -0.9240 0.3771 0.0629
vn 0.3702 -0.6502 0.6635
vn -0.3702 0.6502 -0.6635
vn -0.4121 0.5252 0.7445
vn 0.6475 0.6928 0.3175
vn 0.9167 0.1398 -0.3744
vn 0.3733 -0.5072 -0.7768
vn -0.5677 -0.7237 -0.3924
vn -0.6475 -0.6928 -0.3175
vn -0.7290 0.3050 0.6128
vn 0.6301 0.7112 0.3115
vn 0.4619 0.0591 -0.8849
vn -0.5717 -0.7102 -0.4108
vn -0.5170 -0.6859 -0.5121
vn 0.5514 -0.0429 -0.8331
vn 0.6627 0.7044 0.2543
vn 0.6759 0.7062 0.2108
vn 0.4748 0.0452 -0.8789
vn -0.5109 -0.6975 -0.5024
vn 0.4729 0.0473 -0.8799
vn 0.2084 0.2973 -0.9318
vn 0.6685 0.7162 0.2004
vn 0.6674 -0.1998 -0.7174
vn -0.6195 -0.6788 -0.3942
vn -0.9497 -0.0736 0.3045
vn 0.5386 0.7531 0.3779
vn -0.7854 0.6097 0.1070
vn 0.4016 0.7561 0.5168
vn 0.4760 0.7845 0.3974
vn -0.7977 0.5154 0.3130
vn -0.7144 -0.6234 -0.3179
vn -0.7213 -0.6530 -0.2310
vn -0.6625 -0.6963 -0.2762
vn -0.6593 -0.6971 -0.2818
vn -0.7247 0.2967 0.6220
vn -0.7949 -0.5685 -0.2119
vn 0.4617 0.7461 0.4798
vn 0.5346 0.7195 0.4432
vn -0.7709 0.3998 0.4959
vn -0.0590 -0.4121 0.9092
vn 0.3726 0.1482 0.9161
vn 0.3340 0.3696 0.8671
vn -0.4038 -0.1194 0.9070
vn -0.6024 -0.7379 0.3044
vn -0.8014 -0.5827 0.1352
vn 0.3607 0.7982 0.4825
vn -0.7882 0.4571 0.4120
vn -0.5320 -0.7086 -0.4636
vn 0.2319 0.2777 -0.9323
vn 0.4539 -0.6777 0.5785
vn 0.7209 0.4371 0.5378
vn 0.6003 -0.7021 0.3829
vn -0.4104 -0.9008 -0.1420
vn 0.2198 0.6251 0.7489
vn -0.5673 0.0625 0.8211
vn 0.6347 -0.7014 0.3242
vn -0.1523 -0.9806 -0.1231
vn 0.6786 -0.6948 0.2383
vn 0.8521 0.2073 0.4805
vn 0.8580 -0.0233 0.5131
vn -0.1837 -0.3174 0.9303
vn -0.6291 -0.7761 -0.0445
vn -0.0962 -0.3851 0.9179
vn 0.5113 0.5727 0.6408
vn 0.4602 0.5478 0.6987
vn 0.5386 0.7197 0.4381
vn 0.0328 -0.9993 0.0171
vn -0.6471 -0.7617 0.0333
vn -0.7625 -0.6207 -0.1828
vn -0.4234 -0.7932 0.4377
# 98 vertex normals

vt 0.7254 0.5925 0.0000
vt 0.6602 0.5925 0.0000
vt 0.5950 0.5925 0.0000
vt 0.5950 0.6470 0.0000
vt 0.6711 0.6470 0.0000
vt 0.7254 0.7403 0.0000
vt 0.1169 0.8843 0.0000
vt 0.2255 0.8182 0.0000
vt 0.2255 0.8843 0.0000
vt 0.2255 0.9505 0.0000
vt 0.1169 0.9894 0.0000
vt 0.1169 0.7831 0.0000
vt 0.0191 0.8182 0.0000
vt 0.0191 0.8843 0.0000
vt 0.9210 0.9933 0.0000
vt 0.9862 0.7053 0.0000
vt 0.9210 0.7053 0.0000
vt 0.8558 0.7053 0.0000
vt 0.8558 0.9933 0.0000
vt 0.9862 0.9933 0.0000
vt 0.0191 0.9505 0.0000
vt 0.2581 0.0011 0.0000
vt 0.5516 0.0011 0.0000
vt 0.2581 0.1995 0.0000
vt 0.5516 0.1995 0.0000
vt 0.9971 0.0011 0.0000
vt 0.9971 0.5536 0.0000
vt 0.6711 0.8843 0.0000
vt 0.8232 0.9855 0.0000
vt 0.8232 0.8843 0.0000
vt 0.8232 0.7793 0.0000
vt 0.6711 0.7793 0.0000
vt 0.6711 0.9855 0.0000
vt 0.2581 0.9855 0.0000
vt 0.3234 0.9543 0.0000
vt 0.2581 0.9232 0.0000
vt 0.5733 0.6586 0.0000
vt 0.6820 0.6003 0.0000
vt 0.8015 0.6586 0.0000
vt 0.6820 0.7170 0.0000
vt 0.5516 0.5536 0.0000
vt 0.0191 0.4524 0.0000
vt 0.2255 0.0167 0.0000
vt 0.0191 0.0167 0.0000
vt 0.2255 0.4524 0.0000
vt 0.0191 0.6081 0.0000
vt 0.2255 0.6081 0.0000
vt 0.0191 0.7131 0.0000
vt 0.6494 0.8921 0.0000
vt 0.3559 0.9699 0.0000
vt 0.2690 0.8065 0.0000
vt 0.6494 0.7831 0.0000
vt 0.4972 0.7131 0.0000
vt 0.4972 0.6081 0.0000
vt 0.2690 0.5847 0.0000
vt 0.4864 0.5847 0.0000
vt 0.4864 0.3163 0.0000
vt 0.2690 0.3163 0.0000
vt 0.4864 0.2384 0.0000
vt -0.7742 0.6042 0.0000
vt -0.9915 0.6042 0.0000
vt -0.8829 0.7131 0.0000
vt -0.5025 0.6042 0.0000
vt -0.5786 0.7131 0.0000
vt -0.6981 0.7870 0.0000
vt -0.5786 0.7520 0.0000
vt -0.5025 0.6859 0.0000
vt -0.4699 0.7676 0.0000
vt 1.7360 0.8999 0.0000
vt 1.7795 0.8999 0.0000
vt 1.7795 0.8532 0.0000
vt 1.7360 0.8532 0.0000
vt 1.7795 0.8065 0.0000
vt -0.4047 0.7403 0.0000
vt 0.6494 0.9699 0.0000
vt 1.4970 0.3007 0.0000
vt 1.4426 0.3746 0.0000
vt 1.4426 0.2423 0.0000
vt 1.4970 0.3746 0.0000
vt 1.7360 0.8065 0.0000
vt 1.7795 0.8843 0.0000
vt 1.7360 0.8843 0.0000
vt 1.5948 0.9154 0.0000
vt 1.6382 0.8376 0.0000
vt 1.5948 0.8376 0.0000
vt 1.6382 0.9154 0.0000
# 86 texture coords

o w00_013_00
g w00_013_00
usemtl Material__237
s 1
f 3/2/3 2/2/2 1/1/1 
f 2/2/2 3/2/3 4/2/4 
f 4/2/4 5/3/5 2/2/2 
f 5/3/5 4/2/4 6/4/6 
f 6/4/6 2/2/2 5/3/5 
f 2/2/2 6/4/6 7/5/7 
f 7/5/7 1/1/1 2/2/2 
f 1/1/1 7/5/7 8/6/8 
f 8/6/8 9/6/9 1/1/1 
f 9/6/9 8/6/8 10/5/10 
f 10/5/10 11/1/11 9/6/9 
f 11/1/11 10/5/10 4/2/4 
f 4/2/4 12/2/12 11/1/11 
f 12/2/12 4/2/4 3/2/3 
f 15/9/15 14/8/14 13/7/13 
f 13/7/13 16/10/16 15/9/15 
f 16/10/16 13/7/13 17/11/17 
f 17/11/17 18/9/18 16/10/16 
f 18/9/18 17/11/17 19/7/19 
f 19/7/19 14/8/14 18/9/18 
f 14/8/14 19/7/19 20/12/20 
f 20/12/20 13/7/13 14/8/14 
f 13/7/13 20/12/20 21/13/21 
f 21/13/21 22/14/22 13/7/13 
f 22/17/23 21/16/24 23/15/23 
f 23/15/23 24/18/25 22/17/23 
f 24/18/25 23/15/23 25/19/26 
f 25/19/26 26/17/27 24/18/25 
f 26/17/27 25/19/26 27/15/11 
f 27/15/11 21/16/24 26/17/27 
f 21/16/24 27/15/11 28/20/24 
f 28/20/24 23/15/23 21/16/24 
f 26/14/28 20/12/20 19/7/19 
f 19/7/19 24/21/29 26/14/28 
f 24/21/29 19/7/19 17/11/17 
f 17/11/17 22/14/22 24/21/29 
f 22/14/22 17/11/17 13/7/13 
f 31/24/23 30/23/23 29/22/23 
f 30/23/23 31/24/23 32/25/23 
f 32/25/23 33/26/23 30/23/23 
f 33/26/23 32/25/23 34/27/23 
f 37/26/19 36/27/19 35/25/19 
f 35/25/19 38/23/19 37/26/19 
f 38/23/19 35/25/19 39/24/19 
f 39/24/19 40/22/19 38/23/19 
f 43/30/19 42/29/17 41/28/19 
f 41/28/19 44/31/24 43/30/19 
f 44/31/24 41/28/19 45/32/24 
f 45/32/24 46/28/23 44/31/24 
f 47/33/17 41/28/19 42/29/17 
f 42/29/17 46/28/23 47/33/17 
f 46/28/23 42/29/17 48/30/23 
f 48/30/23 44/31/24 46/28/23 
f 6/4/6 4/2/4 10/5/10 
f 10/5/10 7/5/7 6/4/6 
f 7/5/7 10/5/10 8/6/8 
f 15/36/30 16/35/30 18/34/30 
f 18/34/30 14/35/30 15/36/30 
f 47/39/31 46/38/31 45/37/31 
f 45/37/31 41/40/31 47/39/31 
f 44/37/30 48/38/30 42/39/30 
f 42/39/30 43/40/30 44/37/30 
f 26/14/28 21/13/21 20/12/20 
f 32/25/23 49/41/23 34/27/23 
f 35/25/19 36/27/19 50/41/19 
f 11/1/11 1/1/1 9/6/9 
f 53/44/33 52/43/32 51/42/23 
f 51/42/23 54/43/34 53/44/33 
f 54/43/34 51/42/23 55/45/35 
f 55/45/35 56/44/36 54/43/34 
f 56/44/36 55/45/35 57/42/37 
f 57/42/37 52/43/32 56/44/36 
f 52/43/32 57/42/37 58/45/38 
f 58/45/38 51/42/23 52/43/32 
f 51/42/23 58/45/38 59/46/39 
f 59/46/39 55/45/35 51/42/23 
f 55/45/35 59/46/39 60/47/40 
f 60/47/40 61/46/41 55/45/35 
f 61/46/41 60/47/40 62/48/42 
f 65/51/45 64/50/44 63/49/43 
f 63/49/43 66/52/46 65/51/45 
f 66/52/46 63/49/43 67/51/47 
f 67/51/47 68/53/48 66/52/46 
f 68/53/48 67/51/47 62/48/42 
f 62/48/42 69/54/49 68/53/48 
f 69/54/49 62/48/42 60/47/40 
f 60/47/40 70/48/50 69/54/49 
f 70/48/50 60/47/40 59/46/39 
f 71/57/51 54/56/34 56/55/36 
f 56/55/36 72/58/52 71/57/51 
f 72/58/52 56/55/36 73/57/53 
f 73/57/53 74/59/31 72/58/52 
f 74/59/31 73/57/53 75/58/54 
f 75/58/54 71/57/51 74/59/31 
f 71/57/51 75/58/54 53/55/33 
f 53/55/33 54/56/34 71/57/51 
f 70/62/57 59/61/56 76/60/55 
f 76/60/55 77/63/58 70/62/57 
f 77/63/58 76/60/55 62/62/59 
f 62/62/59 78/64/60 77/63/58 
f 78/64/60 62/62/59 79/65/61 
f 79/65/61 80/66/62 78/64/60 
f 78/64/60 80/68/64 81/67/63 
f 81/67/63 77/63/58 78/64/60 
f 77/63/58 81/67/63 82/64/65 
f 82/64/65 70/62/57 77/63/58 
f 70/62/57 82/64/65 83/65/66 
f 76/47/67 59/46/39 58/45/38 
f 58/45/38 61/46/41 76/47/67 
f 61/46/41 58/45/38 57/42/37 
f 57/42/37 55/45/35 61/46/41 
f 65/71/70 70/70/69 84/69/68 
f 84/69/68 85/72/71 65/71/70 
f 85/72/71 84/69/68 67/71/72 
f 67/71/72 86/73/73 85/72/71 
f 87/68/74 82/64/65 81/67/63 
f 81/67/63 88/74/75 87/68/74 
f 88/74/75 81/67/63 80/68/64 
f 86/50/76 67/51/47 63/49/43 
f 63/49/43 89/75/77 86/50/76 
f 89/75/77 63/49/43 64/50/44 
f 89/78/80 64/77/79 90/76/78 
f 90/76/78 86/77/81 89/78/80 
f 86/77/81 90/76/78 91/79/30 
f 64/73/82 65/71/70 85/72/71 
f 85/72/71 91/80/83 64/73/82 
f 91/80/83 85/72/71 86/73/73 
f 92/82/86 79/81/85 84/72/84 
f 84/72/84 83/81/87 92/82/86 
f 83/81/87 84/72/84 70/71/88 
f 88/85/91 80/84/90 92/83/89 
f 92/83/89 87/84/92 88/85/91 
f 87/84/92 92/83/89 83/86/93 
f 65/51/45 66/52/46 68/53/48 
f 68/53/48 70/48/50 65/51/45 
f 70/48/50 68/53/48 69/54/49 
f 73/57/53 56/55/36 52/56/32 
f 52/56/32 75/58/54 73/57/53 
f 75/58/54 52/56/32 53/55/33 
f 83/65/66 82/64/65 87/66/94 
f 90/76/78 64/77/79 91/79/30 
f 79/81/85 62/71/95 84/72/84 
f 80/84/90 79/86/96 92/83/89 
f 61/61/97 62/62/59 76/60/55 
f 84/69/68 62/70/98 67/71/72 
f 71/57/51 72/58/52 74/59/31 
# 146 faces

