# 3ds Max Wavefront OBJ Exporter v0.97b - (c)2007 guruware
# File Created: 06.08.2019 17:02:36

mtllib Elucidator35f.mtl

#
# object w00_013_00
#

v  -0.2655 0.8470 0.5765
v  -0.2308 0.8357 0.5749
v  -0.2428 0.8387 0.5584
v  -0.2376 0.8146 0.5760
v  -0.1855 0.8074 0.5368
v  -0.1680 0.8031 0.5607
v  -0.2133 0.8314 0.5989
v  -0.1962 0.8297 0.6715
v  -0.2030 0.8087 0.6726
v  -0.2201 0.8103 0.6000
v  -0.2723 0.8259 0.5776
v  -0.2496 0.8176 0.5596
v  -0.4118 0.8408 0.3690
v  -0.3980 0.8657 0.3439
v  -0.4176 0.8532 0.3560
v  -0.4259 0.8759 0.3662
v  -0.4249 0.8766 0.3850
v  -0.4062 0.8884 0.3541
v  -0.3939 0.8963 0.3660
v  -0.3809 0.8605 0.3500
v  -0.3798 0.8612 0.3688
v  -0.3995 0.8486 0.3808
v  -0.2655 0.8152 0.5647
v  -0.4078 0.8714 0.3910
v  -0.2737 0.8379 0.5749
v  -0.3881 0.8839 0.3790
v  -0.2541 0.8505 0.5629
v  -0.2458 0.8277 0.5527
v  -0.1870 0.7930 0.5172
v  -0.2337 0.8101 0.5544
v  -0.1527 0.7845 0.5642
v  -0.1995 0.8016 0.6014
v  -0.2867 0.8295 0.5965
v  -0.1901 0.8054 0.7290
v  -0.1914 0.8265 0.6001
v  -0.1821 0.8303 0.7277
v  -0.2786 0.8544 0.5952
v  -0.2257 0.8350 0.5531
v  -0.1447 0.8094 0.5629
v  -0.1789 0.8180 0.5159
v  -0.2436 0.8576 0.5728
v  -0.2838 0.8413 0.5766
v  -0.2541 0.8602 0.5584
v  -0.2416 0.8259 0.5430
v  -0.2311 0.8232 0.5575
v  -0.2608 0.8043 0.5756
v  -0.2733 0.8386 0.5910
v  -0.2713 0.8069 0.5612
v  -0.1372 0.7860 0.6869
v  -0.1291 0.8109 0.6856
v  -0.1591 0.7967 0.7069
v  0.0227 0.7651 1.0039
v  0.0437 0.7461 0.9852
v  0.0712 0.7474 0.9654
v  -0.1316 0.7980 0.6871
v  0.0502 0.7664 0.9841
v  -0.1526 0.8170 0.7058
v  -0.1801 0.8157 0.7256
v  -0.1862 0.8035 0.6698
v  -0.1473 0.8012 0.6520
v  -0.1797 0.8238 0.6687
v  -0.1950 0.8276 0.6476
v  -0.1551 0.7982 0.5474
v  -0.1991 0.8068 0.5481
v  -0.1828 0.8019 0.5957
v  -0.1449 0.7963 0.5740
v  -0.1783 0.8160 0.5949
v  -0.1435 0.7975 0.6052
v  -0.1268 0.7932 0.6251
v  -0.2016 0.8073 0.6487
v  0.2875 0.6934 1.2622
v  0.2666 0.7124 1.2809
v  0.2391 0.7111 1.3007
v  0.3260 0.6866 1.3674
v  0.2600 0.6921 1.2820
v  -0.2083 0.8235 0.7005
v  -0.2436 0.8358 0.7180
v  -0.2425 0.8379 0.6841
v  -0.2517 0.8397 0.6566
v  -0.2568 0.8411 0.6740
v  -0.2533 0.8376 0.6918
v  -0.2449 0.8302 0.6845
v  -0.2543 0.8315 0.6570
v  -0.2046 0.8191 0.6394
v  -0.1908 0.8122 0.5952
v  -0.1959 0.8170 0.5476
v  -0.2588 0.8351 0.6744
v  -0.2714 0.8427 0.6787
v  -0.1503 0.7946 0.5103
v  -0.1765 0.8035 0.5181
v  -0.2091 0.8154 0.5440
v  -0.2614 0.8377 0.6460
# 92 vertices

vn 0.1622 -0.9433 -0.2898
vn -0.3812 -0.8245 0.4182
vn -0.8103 -0.1792 0.5580
vn 0.0088 0.9058 0.4236
vn 0.3110 -0.0498 0.9491
vn -0.9043 0.2744 -0.3271
vn -0.7342 -0.6725 -0.0930
vn -0.9162 -0.3953 -0.0651
vn 0.5803 0.4646 -0.6689
vn -0.4082 0.9074 -0.0999
vn 0.5290 0.8147 -0.2374
vn -0.3152 0.8664 0.3873
vn -0.2527 -0.9611 -0.1115
vn 0.2908 -0.1443 -0.9458
vn -0.5827 -0.7014 -0.4106
vn -0.9975 0.0460 0.0531
vn -0.7525 0.2748 0.5985
vn -0.2734 0.9078 -0.3179
vn 0.3068 0.9504 -0.0507
vn 0.8687 -0.1018 -0.4849
vn 0.8349 -0.5498 -0.0262
vn -0.1255 -0.7622 0.6351
vn -0.3068 -0.9504 0.0507
vn 0.7525 -0.2748 -0.5985
vn -0.8109 -0.0398 0.5838
vn -0.6169 0.5613 0.5517
vn 0.0531 0.9886 0.1412
vn 0.7613 0.6035 0.2372
vn -0.1991 0.3911 0.8986
vn -0.5827 0.1455 -0.7995
vn 0.5827 -0.1455 0.7995
vn -0.8125 -0.1231 0.5698
vn -0.2562 -0.9666 0.0109
vn 0.4864 -0.7257 -0.4865
vn 0.8386 0.1404 -0.5263
vn 0.3421 0.9363 -0.0790
vn 0.2562 0.9666 -0.0109
vn -0.7152 0.2653 0.6466
vn -0.2533 -0.9667 0.0368
vn 0.9352 -0.3109 -0.1696
vn 0.3593 0.9310 -0.0644
vn 0.4659 0.8819 -0.0726
vn 0.8997 -0.3070 -0.3104
vn -0.1921 -0.9812 0.0164
vn -0.1473 -0.9890 0.0138
vn 0.9315 -0.3108 -0.1891
vn 0.4576 0.8850 -0.0862
vn 0.9321 -0.3108 -0.1862
vn 0.9387 -0.2934 0.1809
vn -0.1383 -0.9900 0.0273
vn 0.8065 -0.2879 -0.5164
vn 0.3353 0.9421 -0.0110
vn -0.4241 0.7077 0.5651
vn -0.3328 -0.9351 0.1219
vn -0.2337 0.1269 0.9640
vn -0.4886 -0.8489 0.2017
vn -0.3616 -0.9138 0.1850
vn -0.4356 0.1876 0.8804
vn 0.2451 0.9658 0.0847
vn 0.1593 0.9855 0.0579
vn 0.2134 0.9769 -0.0081
vn 0.2194 0.9756 -0.0102
vn -0.7234 0.2675 0.6365
vn 0.1273 0.9778 0.1667
vn -0.4436 -0.8823 0.1575
vn -0.3967 -0.9132 0.0927
vn -0.6087 0.2369 0.7572
vn -0.8921 0.2686 -0.3633
vn -0.8640 -0.4307 -0.2608
vn -0.8293 -0.5544 -0.0702
vn -0.9470 0.3101 0.0838
vn -0.3520 0.9240 -0.1490
vn -0.2168 0.9689 0.1194
vn -0.4617 -0.8469 0.2640
vn -0.5301 0.2149 0.8202
vn 0.4168 0.9051 -0.0843
vn 0.9431 -0.2964 0.1508
vn -0.4864 0.1108 -0.8667
vn -0.4547 -0.8552 -0.2488
vn -0.2724 0.0366 -0.9615
vn 0.1219 0.9310 -0.3441
vn -0.7373 -0.6436 0.2054
vn -0.8907 0.3055 0.3368
vn -0.2097 0.0155 -0.9776
vn 0.1403 0.8015 -0.5813
vn -0.1191 -0.0145 -0.9928
vn -0.3716 -0.7844 -0.4967
vn -0.3939 -0.6298 -0.6695
vn -0.9332 0.2899 -0.2121
vn -0.0084 0.9932 -0.1160
vn -0.9067 0.2756 -0.3193
vn -0.5897 -0.8074 -0.0199
vn -0.6528 -0.7575 -0.0094
vn -0.3911 -0.9159 0.0907
vn 0.0266 0.6732 -0.7390
vn -0.0885 0.9908 -0.1027
vn 0.1047 0.9891 0.1036
vn -0.4583 0.8261 -0.3279
# 98 vertex normals

vt 0.7254 0.5925 0.0000
vt 0.6602 0.5925 0.0000
vt 0.5950 0.5925 0.0000
vt 0.5950 0.6470 0.0000
vt 0.6711 0.6470 0.0000
vt 0.7254 0.7403 0.0000
vt 0.1169 0.8843 0.0000
vt 0.2255 0.8182 0.0000
vt 0.2255 0.8843 0.0000
vt 0.2255 0.9505 0.0000
vt 0.1169 0.9894 0.0000
vt 0.1169 0.7831 0.0000
vt 0.0191 0.8182 0.0000
vt 0.0191 0.8843 0.0000
vt 0.9210 0.9933 0.0000
vt 0.9862 0.7053 0.0000
vt 0.9210 0.7053 0.0000
vt 0.8558 0.7053 0.0000
vt 0.8558 0.9933 0.0000
vt 0.9862 0.9933 0.0000
vt 0.0191 0.9505 0.0000
vt 0.2581 0.0011 0.0000
vt 0.5516 0.0011 0.0000
vt 0.2581 0.1995 0.0000
vt 0.5516 0.1995 0.0000
vt 0.9971 0.0011 0.0000
vt 0.9971 0.5536 0.0000
vt 0.6711 0.8843 0.0000
vt 0.8232 0.9855 0.0000
vt 0.8232 0.8843 0.0000
vt 0.8232 0.7793 0.0000
vt 0.6711 0.7793 0.0000
vt 0.6711 0.9855 0.0000
vt 0.2581 0.9855 0.0000
vt 0.3234 0.9543 0.0000
vt 0.2581 0.9232 0.0000
vt 0.5733 0.6586 0.0000
vt 0.6820 0.6003 0.0000
vt 0.8015 0.6586 0.0000
vt 0.6820 0.7170 0.0000
vt 0.5516 0.5536 0.0000
vt 0.0191 0.4524 0.0000
vt 0.2255 0.0167 0.0000
vt 0.0191 0.0167 0.0000
vt 0.2255 0.4524 0.0000
vt 0.0191 0.6081 0.0000
vt 0.2255 0.6081 0.0000
vt 0.0191 0.7131 0.0000
vt 0.6494 0.8921 0.0000
vt 0.3559 0.9699 0.0000
vt 0.2690 0.8065 0.0000
vt 0.6494 0.7831 0.0000
vt 0.4972 0.7131 0.0000
vt 0.4972 0.6081 0.0000
vt 0.2690 0.5847 0.0000
vt 0.4864 0.5847 0.0000
vt 0.4864 0.3163 0.0000
vt 0.2690 0.3163 0.0000
vt 0.4864 0.2384 0.0000
vt -0.7742 0.6042 0.0000
vt -0.9915 0.6042 0.0000
vt -0.8829 0.7131 0.0000
vt -0.5025 0.6042 0.0000
vt -0.5786 0.7131 0.0000
vt -0.6981 0.7870 0.0000
vt -0.5786 0.7520 0.0000
vt -0.5025 0.6859 0.0000
vt -0.4699 0.7676 0.0000
vt 1.7360 0.8999 0.0000
vt 1.7795 0.8999 0.0000
vt 1.7795 0.8532 0.0000
vt 1.7360 0.8532 0.0000
vt 1.7795 0.8065 0.0000
vt -0.4047 0.7403 0.0000
vt 0.6494 0.9699 0.0000
vt 1.4970 0.3007 0.0000
vt 1.4426 0.3746 0.0000
vt 1.4426 0.2423 0.0000
vt 1.4970 0.3746 0.0000
vt 1.7360 0.8065 0.0000
vt 1.7795 0.8843 0.0000
vt 1.7360 0.8843 0.0000
vt 1.5948 0.9154 0.0000
vt 1.6382 0.8376 0.0000
vt 1.5948 0.8376 0.0000
vt 1.6382 0.9154 0.0000
# 86 texture coords

o w00_013_00
g w00_013_00
usemtl Material__237
s 1
f 3/2/3 2/2/2 1/1/1 
f 2/2/2 3/2/3 4/2/4 
f 4/2/4 5/3/5 2/2/2 
f 5/3/5 4/2/4 6/4/6 
f 6/4/6 2/2/2 5/3/5 
f 2/2/2 6/4/6 7/5/7 
f 7/5/7 1/1/1 2/2/2 
f 1/1/1 7/5/7 8/6/8 
f 8/6/8 9/6/9 1/1/1 
f 9/6/9 8/6/8 10/5/10 
f 10/5/10 11/1/11 9/6/9 
f 11/1/11 10/5/10 4/2/4 
f 4/2/4 12/2/12 11/1/11 
f 12/2/12 4/2/4 3/2/3 
f 15/9/15 14/8/14 13/7/13 
f 13/7/13 16/10/16 15/9/15 
f 16/10/16 13/7/13 17/11/17 
f 17/11/17 18/9/18 16/10/16 
f 18/9/18 17/11/17 19/7/19 
f 19/7/19 14/8/14 18/9/18 
f 14/8/14 19/7/19 20/12/20 
f 20/12/20 13/7/13 14/8/14 
f 13/7/13 20/12/20 21/13/21 
f 21/13/21 22/14/22 13/7/13 
f 22/17/23 21/16/24 23/15/23 
f 23/15/23 24/18/25 22/17/23 
f 24/18/25 23/15/23 25/19/26 
f 25/19/26 26/17/27 24/18/25 
f 26/17/27 25/19/26 27/15/11 
f 27/15/11 21/16/24 26/17/27 
f 21/16/24 27/15/11 28/20/24 
f 28/20/24 23/15/23 21/16/24 
f 26/14/28 20/12/20 19/7/19 
f 19/7/19 24/21/29 26/14/28 
f 24/21/29 19/7/19 17/11/17 
f 17/11/17 22/14/22 24/21/29 
f 22/14/22 17/11/17 13/7/13 
f 31/24/23 30/23/23 29/22/23 
f 30/23/23 31/24/23 32/25/23 
f 32/25/23 33/26/23 30/23/23 
f 33/26/23 32/25/23 34/27/23 
f 37/26/19 36/27/19 35/25/19 
f 35/25/19 38/23/19 37/26/19 
f 38/23/19 35/25/19 39/24/19 
f 39/24/19 40/22/19 38/23/19 
f 43/30/19 42/29/17 41/28/19 
f 41/28/19 44/31/24 43/30/19 
f 44/31/24 41/28/19 45/32/24 
f 45/32/24 46/28/23 44/31/24 
f 47/33/17 41/28/19 42/29/17 
f 42/29/17 46/28/23 47/33/17 
f 46/28/23 42/29/17 48/30/23 
f 48/30/23 44/31/24 46/28/23 
f 6/4/6 4/2/4 10/5/10 
f 10/5/10 7/5/7 6/4/6 
f 7/5/7 10/5/10 8/6/8 
f 15/36/30 16/35/30 18/34/30 
f 18/34/30 14/35/30 15/36/30 
f 47/39/31 46/38/31 45/37/31 
f 45/37/31 41/40/31 47/39/31 
f 44/37/30 48/38/30 42/39/30 
f 42/39/30 43/40/30 44/37/30 
f 26/14/28 21/13/21 20/12/20 
f 32/25/23 49/41/23 34/27/23 
f 35/25/19 36/27/19 50/41/19 
f 11/1/11 1/1/1 9/6/9 
f 53/44/33 52/43/32 51/42/23 
f 51/42/23 54/43/34 53/44/33 
f 54/43/34 51/42/23 55/45/35 
f 55/45/35 56/44/36 54/43/34 
f 56/44/36 55/45/35 57/42/37 
f 57/42/37 52/43/32 56/44/36 
f 52/43/32 57/42/37 58/45/38 
f 58/45/38 51/42/23 52/43/32 
f 51/42/23 58/45/38 59/46/39 
f 59/46/39 55/45/35 51/42/23 
f 55/45/35 59/46/39 60/47/40 
f 60/47/40 61/46/41 55/45/35 
f 61/46/41 60/47/40 62/48/42 
f 65/51/45 64/50/44 63/49/43 
f 63/49/43 66/52/46 65/51/45 
f 66/52/46 63/49/43 67/51/47 
f 67/51/47 68/53/48 66/52/46 
f 68/53/48 67/51/47 62/48/42 
f 62/48/42 69/54/49 68/53/48 
f 69/54/49 62/48/42 60/47/40 
f 60/47/40 70/48/50 69/54/49 
f 70/48/50 60/47/40 59/46/39 
f 71/57/51 54/56/34 56/55/36 
f 56/55/36 72/58/52 71/57/51 
f 72/58/52 56/55/36 73/57/53 
f 73/57/53 74/59/31 72/58/52 
f 74/59/31 73/57/53 75/58/54 
f 75/58/54 71/57/51 74/59/31 
f 71/57/51 75/58/54 53/55/33 
f 53/55/33 54/56/34 71/57/51 
f 70/62/57 59/61/56 76/60/55 
f 76/60/55 77/63/58 70/62/57 
f 77/63/58 76/60/55 62/62/59 
f 62/62/59 78/64/60 77/63/58 
f 78/64/60 62/62/59 79/65/61 
f 79/65/61 80/66/62 78/64/60 
f 78/64/60 80/68/64 81/67/63 
f 81/67/63 77/63/58 78/64/60 
f 77/63/58 81/67/63 82/64/65 
f 82/64/65 70/62/57 77/63/58 
f 70/62/57 82/64/65 83/65/66 
f 76/47/67 59/46/39 58/45/38 
f 58/45/38 61/46/41 76/47/67 
f 61/46/41 58/45/38 57/42/37 
f 57/42/37 55/45/35 61/46/41 
f 65/71/70 70/70/69 84/69/68 
f 84/69/68 85/72/71 65/71/70 
f 85/72/71 84/69/68 67/71/72 
f 67/71/72 86/73/73 85/72/71 
f 87/68/74 82/64/65 81/67/63 
f 81/67/63 88/74/75 87/68/74 
f 88/74/75 81/67/63 80/68/64 
f 86/50/76 67/51/47 63/49/43 
f 63/49/43 89/75/77 86/50/76 
f 89/75/77 63/49/43 64/50/44 
f 89/78/80 64/77/79 90/76/78 
f 90/76/78 86/77/81 89/78/80 
f 86/77/81 90/76/78 91/79/30 
f 64/73/82 65/71/70 85/72/71 
f 85/72/71 91/80/83 64/73/82 
f 91/80/83 85/72/71 86/73/73 
f 92/82/86 79/81/85 84/72/84 
f 84/72/84 83/81/87 92/82/86 
f 83/81/87 84/72/84 70/71/88 
f 88/85/91 80/84/90 92/83/89 
f 92/83/89 87/84/92 88/85/91 
f 87/84/92 92/83/89 83/86/93 
f 65/51/45 66/52/46 68/53/48 
f 68/53/48 70/48/50 65/51/45 
f 70/48/50 68/53/48 69/54/49 
f 73/57/53 56/55/36 52/56/32 
f 52/56/32 75/58/54 73/57/53 
f 75/58/54 52/56/32 53/55/33 
f 83/65/66 82/64/65 87/66/94 
f 90/76/78 64/77/79 91/79/30 
f 79/81/85 62/71/95 84/72/84 
f 80/84/90 79/86/96 92/83/89 
f 61/61/97 62/62/59 76/60/55 
f 84/69/68 62/70/98 67/71/72 
f 71/57/51 72/58/52 74/59/31 
# 146 faces

