# 3ds Max Wavefront OBJ Exporter v0.97b - (c)2007 guruware
# File Created: 06.08.2019 17:02:19

mtllib Elucidator0f.mtl

#
# object w00_013_00
#

v  0.0528 0.5530 0.4932
v  0.0833 0.5351 0.4838
v  0.0743 0.5496 0.4722
v  0.0710 0.5195 0.4739
v  0.1231 0.5200 0.4340
v  0.1362 0.4990 0.4509
v  0.0964 0.5141 0.5007
v  0.1047 0.4697 0.5600
v  0.0925 0.4541 0.5501
v  0.0841 0.4985 0.4907
v  0.0406 0.5374 0.4832
v  0.0620 0.5340 0.4623
v  -0.0676 0.6985 0.3232
v  -0.0450 0.7279 0.3147
v  -0.0685 0.7169 0.3193
v  -0.0715 0.7321 0.3405
v  -0.0722 0.7224 0.3566
v  -0.0480 0.7430 0.3359
v  -0.0354 0.7396 0.3495
v  -0.0307 0.7157 0.3161
v  -0.0315 0.7061 0.3322
v  -0.0549 0.6951 0.3368
v  0.0456 0.5337 0.4662
v  -0.0579 0.7103 0.3580
v  0.0426 0.5489 0.4874
v  -0.0344 0.7212 0.3534
v  0.0661 0.5598 0.4829
v  0.0690 0.5447 0.4617
v  0.1200 0.5192 0.4099
v  0.0758 0.5263 0.4530
v  0.1457 0.4780 0.4430
v  0.1015 0.4850 0.4861
v  0.0257 0.5343 0.5018
v  0.0981 0.4180 0.5951
v  0.1159 0.5035 0.4979
v  0.1126 0.4365 0.6069
v  0.0402 0.5527 0.5136
v  0.0902 0.5447 0.4648
v  0.1601 0.4964 0.4548
v  0.1344 0.5377 0.4217
v  0.0770 0.5573 0.4945
v  0.0337 0.5535 0.4912
v  0.0691 0.5700 0.4843
v  0.0736 0.5471 0.4523
v  0.0815 0.5344 0.4624
v  0.0461 0.5179 0.4693
v  0.0416 0.5408 0.5013
v  0.0382 0.5306 0.4591
v  0.1482 0.4100 0.5463
v  0.1626 0.4285 0.5580
v  0.1279 0.4141 0.5701
v  0.2629 0.1811 0.7931
v  0.2799 0.1700 0.7660
v  0.3087 0.1738 0.7485
v  0.1566 0.4180 0.5526
v  0.2917 0.1850 0.7756
v  0.1396 0.4292 0.5797
v  0.1109 0.4253 0.5972
v  0.1076 0.4468 0.5439
v  0.1461 0.4435 0.5256
v  0.1193 0.4618 0.5536
v  0.1078 0.4803 0.5387
v  0.1487 0.4985 0.4363
v  0.1087 0.5173 0.4440
v  0.1181 0.4837 0.4805
v  0.1553 0.4801 0.4571
v  0.1263 0.4941 0.4872
v  0.1537 0.4642 0.4839
v  0.1664 0.4455 0.4975
v  0.0960 0.4652 0.5291
v  0.4709 -0.0867 0.9574
v  0.4539 -0.0755 0.9845
v  0.4252 -0.0794 1.0021
v  0.4950 -0.1585 1.0403
v  0.4422 -0.0905 0.9749
v  0.0885 0.4527 0.5818
v  0.0561 0.4632 0.6052
v  0.0613 0.4825 0.5776
v  0.0558 0.5010 0.5559
v  0.0493 0.4943 0.5717
v  0.0500 0.4811 0.5845
v  0.0568 0.4768 0.5740
v  0.0510 0.4949 0.5520
v  0.0972 0.4804 0.5278
v  0.1133 0.4944 0.4861
v  0.1146 0.5248 0.4488
v  0.0459 0.4899 0.5688
v  0.0353 0.4972 0.5773
v  0.1563 0.5139 0.4029
v  0.1327 0.5242 0.4156
v  0.1019 0.5292 0.4457
v  0.0470 0.5077 0.5465
# 92 vertices

vn -0.0637 -0.6483 -0.7587
vn -0.6271 -0.7760 -0.0681
vn -0.8824 -0.2130 0.4196
vn 0.2038 0.4999 0.8418
vn 0.1862 -0.6283 0.7554
vn -0.7603 0.6449 -0.0776
vn -0.8721 -0.2855 -0.3974
vn -0.9762 -0.0273 -0.2152
vn 0.7489 0.5645 -0.3472
vn -0.1410 0.8941 0.4251
vn 0.7474 0.6314 0.2069
vn -0.1135 0.5777 0.8083
vn -0.4847 -0.6413 -0.5948
vn 0.3392 0.3033 -0.8905
vn -0.7013 -0.1830 -0.6890
vn -0.9498 0.2867 0.1255
vn -0.7112 0.1136 0.6938
vn 0.0110 0.9722 0.2341
vn 0.5507 0.7034 0.4493
vn 0.8564 -0.0673 -0.5118
vn 0.6579 -0.6595 -0.3637
vn -0.3880 -0.9119 0.1336
vn -0.5507 -0.7034 -0.4494
vn 0.7112 -0.1136 -0.6938
vn -0.8488 -0.1147 0.5161
vn -0.5005 0.3302 0.8003
vn 0.2976 0.7032 0.6457
vn 0.8647 0.1464 0.4804
vn -0.1811 -0.1060 0.9777
vn -0.4369 0.7016 -0.5628
vn 0.4369 -0.7016 0.5628
vn -0.8709 -0.1736 0.4598
vn -0.5024 -0.7094 -0.4944
vn 0.3251 -0.4602 -0.8261
vn 0.8960 0.1572 -0.4153
vn 0.5838 0.6972 0.4160
vn 0.5024 0.7094 0.4944
vn -0.6829 0.0702 0.7271
vn -0.5023 -0.7240 -0.4728
vn 0.8321 -0.4201 -0.3621
vn 0.5973 0.6805 0.4245
vn 0.6874 0.6157 0.3853
vn 0.8138 -0.3327 -0.4766
vn -0.4453 -0.7419 -0.5013
vn -0.4042 -0.7592 -0.5101
vn 0.8306 -0.4087 -0.3782
vn 0.6817 0.6277 0.3759
vn 0.8308 -0.4104 -0.3758
vn 0.8036 -0.5924 -0.0576
vn -0.3972 -0.7697 -0.4998
vn 0.7509 -0.1825 -0.6346
vn 0.5717 0.6678 0.4767
vn -0.2784 0.3869 0.8791
vn -0.5790 -0.7215 -0.3797
vn -0.2910 -0.3428 0.8932
vn -0.7139 -0.6512 -0.2576
vn -0.6076 -0.7298 -0.3135
vn -0.4598 -0.1937 0.8667
vn 0.4815 0.6613 0.5752
vn 0.4073 0.7152 0.5680
vn 0.4638 0.7281 0.5047
vn 0.4694 0.7265 0.5019
vn -0.6892 0.0795 0.7202
vn 0.3632 0.6604 0.6572
vn -0.6750 -0.6671 -0.3151
vn -0.6315 -0.6708 -0.3890
vn -0.5998 -0.0408 0.7991
vn -0.7465 0.6559 -0.1119
vn -0.9151 0.0333 -0.4019
vn -0.9344 -0.1764 -0.3096
vn -0.8347 0.4682 0.2900
vn -0.0776 0.9178 0.3894
vn 0.0359 0.7742 0.6320
vn -0.6941 -0.6900 -0.2054
vn -0.5369 -0.1136 0.8359
vn 0.6477 0.6541 0.3906
vn 0.8101 -0.5801 -0.0848
vn -0.3467 0.6825 -0.6434
vn -0.6361 -0.4275 -0.6423
vn -0.1513 0.6135 -0.7750
vn 0.3989 0.8944 0.2022
vn -0.8985 -0.4192 -0.1304
vn -0.8083 0.3150 0.4975
vn -0.0951 0.5877 -0.8035
vn 0.4070 0.9109 -0.0680
vn -0.0146 0.5464 -0.8374
vn -0.5119 -0.2628 -0.8178
vn -0.4745 -0.0413 -0.8793
vn -0.7960 0.6046 0.0292
vn 0.2666 0.8601 0.4350
vn -0.7631 0.6424 -0.0703
vn -0.7768 -0.4726 -0.4163
vn -0.8252 -0.4205 -0.3772
vn -0.6266 -0.6734 -0.3924
vn 0.2805 0.9230 -0.2633
vn 0.1878 0.8734 0.4494
vn 0.3511 0.7091 0.6114
vn -0.1868 0.9634 0.1923
# 98 vertex normals

vt 0.7254 0.5925 0.0000
vt 0.6602 0.5925 0.0000
vt 0.5950 0.5925 0.0000
vt 0.5950 0.6470 0.0000
vt 0.6711 0.6470 0.0000
vt 0.7254 0.7403 0.0000
vt 0.1169 0.8843 0.0000
vt 0.2255 0.8182 0.0000
vt 0.2255 0.8843 0.0000
vt 0.2255 0.9505 0.0000
vt 0.1169 0.9894 0.0000
vt 0.1169 0.7831 0.0000
vt 0.0191 0.8182 0.0000
vt 0.0191 0.8843 0.0000
vt 0.9210 0.9933 0.0000
vt 0.9862 0.7053 0.0000
vt 0.9210 0.7053 0.0000
vt 0.8558 0.7053 0.0000
vt 0.8558 0.9933 0.0000
vt 0.9862 0.9933 0.0000
vt 0.0191 0.9505 0.0000
vt 0.2581 0.0011 0.0000
vt 0.5516 0.0011 0.0000
vt 0.2581 0.1995 0.0000
vt 0.5516 0.1995 0.0000
vt 0.9971 0.0011 0.0000
vt 0.9971 0.5536 0.0000
vt 0.6711 0.8843 0.0000
vt 0.8232 0.9855 0.0000
vt 0.8232 0.8843 0.0000
vt 0.8232 0.7793 0.0000
vt 0.6711 0.7793 0.0000
vt 0.6711 0.9855 0.0000
vt 0.2581 0.9855 0.0000
vt 0.3234 0.9543 0.0000
vt 0.2581 0.9232 0.0000
vt 0.5733 0.6586 0.0000
vt 0.6820 0.6003 0.0000
vt 0.8015 0.6586 0.0000
vt 0.6820 0.7170 0.0000
vt 0.5516 0.5536 0.0000
vt 0.0191 0.4524 0.0000
vt 0.2255 0.0167 0.0000
vt 0.0191 0.0167 0.0000
vt 0.2255 0.4524 0.0000
vt 0.0191 0.6081 0.0000
vt 0.2255 0.6081 0.0000
vt 0.0191 0.7131 0.0000
vt 0.6494 0.8921 0.0000
vt 0.3559 0.9699 0.0000
vt 0.2690 0.8065 0.0000
vt 0.6494 0.7831 0.0000
vt 0.4972 0.7131 0.0000
vt 0.4972 0.6081 0.0000
vt 0.2690 0.5847 0.0000
vt 0.4864 0.5847 0.0000
vt 0.4864 0.3163 0.0000
vt 0.2690 0.3163 0.0000
vt 0.4864 0.2384 0.0000
vt -0.7742 0.6042 0.0000
vt -0.9915 0.6042 0.0000
vt -0.8829 0.7131 0.0000
vt -0.5025 0.6042 0.0000
vt -0.5786 0.7131 0.0000
vt -0.6981 0.7870 0.0000
vt -0.5786 0.7520 0.0000
vt -0.5025 0.6859 0.0000
vt -0.4699 0.7676 0.0000
vt 1.7360 0.8999 0.0000
vt 1.7795 0.8999 0.0000
vt 1.7795 0.8532 0.0000
vt 1.7360 0.8532 0.0000
vt 1.7795 0.8065 0.0000
vt -0.4047 0.7403 0.0000
vt 0.6494 0.9699 0.0000
vt 1.4970 0.3007 0.0000
vt 1.4426 0.3746 0.0000
vt 1.4426 0.2423 0.0000
vt 1.4970 0.3746 0.0000
vt 1.7360 0.8065 0.0000
vt 1.7795 0.8843 0.0000
vt 1.7360 0.8843 0.0000
vt 1.5948 0.9154 0.0000
vt 1.6382 0.8376 0.0000
vt 1.5948 0.8376 0.0000
vt 1.6382 0.9154 0.0000
# 86 texture coords

o w00_013_00
g w00_013_00
usemtl Material__237
s 1
f 3/2/3 2/2/2 1/1/1 
f 2/2/2 3/2/3 4/2/4 
f 4/2/4 5/3/5 2/2/2 
f 5/3/5 4/2/4 6/4/6 
f 6/4/6 2/2/2 5/3/5 
f 2/2/2 6/4/6 7/5/7 
f 7/5/7 1/1/1 2/2/2 
f 1/1/1 7/5/7 8/6/8 
f 8/6/8 9/6/9 1/1/1 
f 9/6/9 8/6/8 10/5/10 
f 10/5/10 11/1/11 9/6/9 
f 11/1/11 10/5/10 4/2/4 
f 4/2/4 12/2/12 11/1/11 
f 12/2/12 4/2/4 3/2/3 
f 15/9/15 14/8/14 13/7/13 
f 13/7/13 16/10/16 15/9/15 
f 16/10/16 13/7/13 17/11/17 
f 17/11/17 18/9/18 16/10/16 
f 18/9/18 17/11/17 19/7/19 
f 19/7/19 14/8/14 18/9/18 
f 14/8/14 19/7/19 20/12/20 
f 20/12/20 13/7/13 14/8/14 
f 13/7/13 20/12/20 21/13/21 
f 21/13/21 22/14/22 13/7/13 
f 22/17/23 21/16/24 23/15/23 
f 23/15/23 24/18/25 22/17/23 
f 24/18/25 23/15/23 25/19/26 
f 25/19/26 26/17/27 24/18/25 
f 26/17/27 25/19/26 27/15/11 
f 27/15/11 21/16/24 26/17/27 
f 21/16/24 27/15/11 28/20/24 
f 28/20/24 23/15/23 21/16/24 
f 26/14/28 20/12/20 19/7/19 
f 19/7/19 24/21/29 26/14/28 
f 24/21/29 19/7/19 17/11/17 
f 17/11/17 22/14/22 24/21/29 
f 22/14/22 17/11/17 13/7/13 
f 31/24/23 30/23/23 29/22/23 
f 30/23/23 31/24/23 32/25/23 
f 32/25/23 33/26/23 30/23/23 
f 33/26/23 32/25/23 34/27/23 
f 37/26/19 36/27/19 35/25/19 
f 35/25/19 38/23/19 37/26/19 
f 38/23/19 35/25/19 39/24/19 
f 39/24/19 40/22/19 38/23/19 
f 43/30/19 42/29/17 41/28/19 
f 41/28/19 44/31/24 43/30/19 
f 44/31/24 41/28/19 45/32/24 
f 45/32/24 46/28/23 44/31/24 
f 47/33/17 41/28/19 42/29/17 
f 42/29/17 46/28/23 47/33/17 
f 46/28/23 42/29/17 48/30/23 
f 48/30/23 44/31/24 46/28/23 
f 6/4/6 4/2/4 10/5/10 
f 10/5/10 7/5/7 6/4/6 
f 7/5/7 10/5/10 8/6/8 
f 15/36/30 16/35/30 18/34/30 
f 18/34/30 14/35/30 15/36/30 
f 47/39/31 46/38/31 45/37/31 
f 45/37/31 41/40/31 47/39/31 
f 44/37/30 48/38/30 42/39/30 
f 42/39/30 43/40/30 44/37/30 
f 26/14/28 21/13/21 20/12/20 
f 32/25/23 49/41/23 34/27/23 
f 35/25/19 36/27/19 50/41/19 
f 11/1/11 1/1/1 9/6/9 
f 53/44/33 52/43/32 51/42/23 
f 51/42/23 54/43/34 53/44/33 
f 54/43/34 51/42/23 55/45/35 
f 55/45/35 56/44/36 54/43/34 
f 56/44/36 55/45/35 57/42/37 
f 57/42/37 52/43/32 56/44/36 
f 52/43/32 57/42/37 58/45/38 
f 58/45/38 51/42/23 52/43/32 
f 51/42/23 58/45/38 59/46/39 
f 59/46/39 55/45/35 51/42/23 
f 55/45/35 59/46/39 60/47/40 
f 60/47/40 61/46/41 55/45/35 
f 61/46/41 60/47/40 62/48/42 
f 65/51/45 64/50/44 63/49/43 
f 63/49/43 66/52/46 65/51/45 
f 66/52/46 63/49/43 67/51/47 
f 67/51/47 68/53/48 66/52/46 
f 68/53/48 67/51/47 62/48/42 
f 62/48/42 69/54/49 68/53/48 
f 69/54/49 62/48/42 60/47/40 
f 60/47/40 70/48/50 69/54/49 
f 70/48/50 60/47/40 59/46/39 
f 71/57/51 54/56/34 56/55/36 
f 56/55/36 72/58/52 71/57/51 
f 72/58/52 56/55/36 73/57/53 
f 73/57/53 74/59/31 72/58/52 
f 74/59/31 73/57/53 75/58/54 
f 75/58/54 71/57/51 74/59/31 
f 71/57/51 75/58/54 53/55/33 
f 53/55/33 54/56/34 71/57/51 
f 70/62/57 59/61/56 76/60/55 
f 76/60/55 77/63/58 70/62/57 
f 77/63/58 76/60/55 62/62/59 
f 62/62/59 78/64/60 77/63/58 
f 78/64/60 62/62/59 79/65/61 
f 79/65/61 80/66/62 78/64/60 
f 78/64/60 80/68/64 81/67/63 
f 81/67/63 77/63/58 78/64/60 
f 77/63/58 81/67/63 82/64/65 
f 82/64/65 70/62/57 77/63/58 
f 70/62/57 82/64/65 83/65/66 
f 76/47/67 59/46/39 58/45/38 
f 58/45/38 61/46/41 76/47/67 
f 61/46/41 58/45/38 57/42/37 
f 57/42/37 55/45/35 61/46/41 
f 65/71/70 70/70/69 84/69/68 
f 84/69/68 85/72/71 65/71/70 
f 85/72/71 84/69/68 67/71/72 
f 67/71/72 86/73/73 85/72/71 
f 87/68/74 82/64/65 81/67/63 
f 81/67/63 88/74/75 87/68/74 
f 88/74/75 81/67/63 80/68/64 
f 86/50/76 67/51/47 63/49/43 
f 63/49/43 89/75/77 86/50/76 
f 89/75/77 63/49/43 64/50/44 
f 89/78/80 64/77/79 90/76/78 
f 90/76/78 86/77/81 89/78/80 
f 86/77/81 90/76/78 91/79/30 
f 64/73/82 65/71/70 85/72/71 
f 85/72/71 91/80/83 64/73/82 
f 91/80/83 85/72/71 86/73/73 
f 92/82/86 79/81/85 84/72/84 
f 84/72/84 83/81/87 92/82/86 
f 83/81/87 84/72/84 70/71/88 
f 88/85/91 80/84/90 92/83/89 
f 92/83/89 87/84/92 88/85/91 
f 87/84/92 92/83/89 83/86/93 
f 65/51/45 66/52/46 68/53/48 
f 68/53/48 70/48/50 65/51/45 
f 70/48/50 68/53/48 69/54/49 
f 73/57/53 56/55/36 52/56/32 
f 52/56/32 75/58/54 73/57/53 
f 75/58/54 52/56/32 53/55/33 
f 83/65/66 82/64/65 87/66/94 
f 90/76/78 64/77/79 91/79/30 
f 79/81/85 62/71/95 84/72/84 
f 80/84/90 79/86/96 92/83/89 
f 61/61/97 62/62/59 76/60/55 
f 84/69/68 62/70/98 67/71/72 
f 71/57/51 72/58/52 74/59/31 
# 146 faces

