# 3ds Max Wavefront OBJ Exporter v0.97b - (c)2007 guruware
# File Created: 06.08.2019 17:03:09

mtllib Elucidator86f.mtl

#
# object w00_013_00
#

v  -0.1034 0.1944 0.3675
v  -0.0886 0.2278 0.3682
v  -0.1089 0.2240 0.3673
v  -0.0877 0.2278 0.3460
v  -0.0999 0.2914 0.3568
v  -0.0704 0.2968 0.3580
v  -0.0592 0.2332 0.3694
v  0.0133 0.2159 0.3723
v  0.0142 0.2159 0.3501
v  -0.0583 0.2333 0.3472
v  -0.1025 0.1945 0.3453
v  -0.1080 0.2241 0.3452
v  -0.3506 0.1648 0.3169
v  -0.3704 0.1801 0.3454
v  -0.3663 0.1619 0.3269
v  -0.3637 0.1436 0.3455
v  -0.3465 0.1359 0.3462
v  -0.3678 0.1618 0.3640
v  -0.3530 0.1646 0.3753
v  -0.3571 0.1934 0.3460
v  -0.3399 0.1857 0.3466
v  -0.3358 0.1675 0.3282
v  -0.1097 0.2091 0.3376
v  -0.3332 0.1492 0.3468
v  -0.1071 0.1908 0.3562
v  -0.3373 0.1674 0.3653
v  -0.1113 0.2090 0.3747
v  -0.1139 0.2273 0.3560
v  -0.1161 0.3032 0.3431
v  -0.1049 0.2420 0.3433
v  -0.0583 0.3138 0.3455
v  -0.0471 0.2527 0.3457
v  -0.0922 0.1728 0.3436
v  0.0707 0.2028 0.3504
v  -0.0482 0.2526 0.3719
v  0.0696 0.2027 0.3766
v  -0.0932 0.1727 0.3698
v  -0.1060 0.2420 0.3695
v  -0.0594 0.3137 0.3717
v  -0.1172 0.3031 0.3693
v  -0.0988 0.2113 0.3847
v  -0.1104 0.1806 0.3560
v  -0.1166 0.2081 0.3839
v  -0.1205 0.2357 0.3558
v  -0.1028 0.2390 0.3565
v  -0.0965 0.2115 0.3286
v  -0.0926 0.1839 0.3568
v  -0.1143 0.2083 0.3279
v  0.0579 0.2720 0.3501
v  0.0569 0.2719 0.3763
v  0.0652 0.2414 0.3527
v  0.4125 0.2726 0.3777
v  0.4071 0.3043 0.3669
v  0.4009 0.3359 0.3775
v  0.0589 0.2730 0.3633
v  0.4063 0.3042 0.3883
v  0.0643 0.2413 0.3741
v  0.0706 0.2097 0.3635
v  0.0195 0.2329 0.3508
v  0.0204 0.2744 0.3617
v  0.0186 0.2329 0.3722
v  -0.0073 0.2281 0.3711
v  -0.0762 0.3151 0.3579
v  -0.0954 0.2750 0.3516
v  -0.0452 0.2692 0.3515
v  -0.0478 0.3125 0.3590
v  -0.0458 0.2691 0.3664
v  -0.0195 0.2995 0.3601
v  0.0061 0.3060 0.3612
v  -0.0064 0.2282 0.3497
v  0.7657 0.4030 0.3926
v  0.7711 0.3714 0.4034
v  0.7774 0.3397 0.3929
v  0.8772 0.3908 0.3971
v  0.7720 0.3714 0.3821
v  0.0350 0.1947 0.3620
v  0.0341 0.1534 0.3619
v  0.0039 0.1688 0.3647
v  -0.0249 0.1727 0.3638
v  -0.0116 0.1601 0.3631
v  0.0063 0.1563 0.3607
v  0.0042 0.1688 0.3566
v  -0.0245 0.1727 0.3552
v  -0.0175 0.2262 0.3600
v  -0.0504 0.2596 0.3587
v  -0.0958 0.2750 0.3623
v  -0.0113 0.1602 0.3569
v  -0.0138 0.1453 0.3599
v  -0.1070 0.3367 0.3567
v  -0.1123 0.3085 0.3564
v  -0.1045 0.2659 0.3565
v  -0.0382 0.1697 0.3589
# 92 vertices

vn -0.0663 0.5483 -0.8337
vn 0.3219 -0.2605 -0.9102
vn 0.1800 -0.8782 -0.4431
vn 0.2636 -0.4520 0.8522
vn 0.9888 -0.1437 0.0400
vn -0.7128 -0.7007 -0.0315
vn -0.3058 -0.3772 -0.8742
vn -0.3946 -0.6264 -0.6722
vn -0.4147 0.6477 0.6392
vn -0.3824 -0.5723 0.7254
vn -0.0960 0.3079 0.9466
vn 0.0989 -0.6977 0.7095
vn -0.0801 0.1242 -0.9890
vn -0.7051 0.7086 -0.0266
vn -0.5223 -0.0996 -0.8470
vn -0.3815 -0.8797 -0.2837
vn 0.1808 -0.9835 0.0042
vn -0.5207 -0.3619 0.7732
vn -0.0409 -0.0033 0.9992
vn -0.0526 0.9793 0.1956
vn 0.4032 0.8815 -0.2459
vn 0.6165 -0.1594 -0.7710
vn 0.0409 0.0033 -0.9992
vn -0.1808 0.9835 -0.0042
vn 0.1845 -0.9320 -0.3120
vn 0.1586 -0.9341 0.3199
vn 0.0184 -0.3141 0.9492
vn 0.4556 0.3567 0.8156
vn 0.6690 -0.6842 0.2904
vn -0.9827 -0.1808 -0.0408
vn 0.9827 0.1808 0.0408
vn 0.1823 -0.9022 -0.3909
vn 0.0288 0.0684 -0.9972
vn -0.1338 0.8442 -0.5190
vn -0.1345 0.8997 0.4152
vn -0.0494 0.0434 0.9978
vn -0.0288 -0.0684 0.9972
vn 0.2410 -0.9705 0.0067
vn 0.0533 0.0595 -0.9968
vn 0.2856 0.9582 0.0148
vn -0.0284 0.0530 0.9982
vn 0.0160 0.1614 0.9868
vn 0.1440 0.9895 0.0091
vn 0.0628 0.1246 -0.9902
vn 0.0805 0.1659 -0.9829
vn 0.2666 0.9637 0.0141
vn -0.0001 0.1595 0.9872
vn 0.2694 0.9629 0.0142
vn 0.5989 0.8004 0.0271
vn 0.0966 0.1678 -0.9811
vn -0.0826 0.9966 -0.0001
vn 0.0078 0.0057 1.0000
vn 0.2330 -0.8211 0.5212
vn 0.0916 -0.0549 -0.9943
vn 0.7478 -0.6633 0.0285
vn 0.0857 -0.2477 -0.9650
vn 0.1331 -0.1137 -0.9846
vn 0.5793 -0.8149 0.0211
vn 0.0523 -0.1201 0.9914
vn -0.0108 -0.1866 0.9824
vn -0.0458 -0.1090 0.9930
vn -0.0450 -0.1025 0.9937
vn 0.2282 -0.9736 0.0062
vn 0.0742 -0.2595 0.9629
vn 0.0696 -0.1802 -0.9812
vn 0.0355 -0.1025 -0.9941
vn 0.3891 -0.9211 0.0129
vn -0.7393 -0.6726 -0.0325
vn -0.5432 -0.4848 -0.6855
vn -0.3413 -0.5030 -0.7941
vn -0.3675 -0.9299 -0.0181
vn -0.4049 -0.5081 0.7602
vn -0.1130 -0.5265 0.8427
vn 0.1527 -0.2533 -0.9553
vn 0.4817 -0.8762 0.0169
vn -0.0183 0.1182 0.9928
vn 0.5742 0.8183 0.0262
vn -0.9974 -0.0592 -0.0410
vn -0.3027 -0.0172 -0.9529
vn -0.9818 0.1858 -0.0396
vn -0.3796 -0.0233 0.9248
vn -0.0436 -0.5209 -0.8525
vn -0.1163 -0.9932 -0.0080
vn -0.9669 0.2522 -0.0388
vn -0.5672 0.1363 0.8122
vn -0.9381 0.3445 -0.0373
vn -0.4989 0.1417 -0.8550
vn -0.6837 0.1532 -0.7135
vn -0.6241 -0.7809 -0.0281
vn -0.2387 -0.2533 0.9375
vn -0.7070 -0.7065 -0.0312
vn -0.1612 -0.2471 -0.9555
vn -0.1852 -0.3201 -0.9291
vn 0.0364 -0.0961 -0.9947
vn -0.7397 0.1488 0.6562
vn -0.2604 -0.3261 0.9088
vn 0.0066 -0.2540 0.9672
vn -0.5972 -0.4891 0.6357
# 98 vertex normals

vt 0.7254 0.5925 0.0000
vt 0.6602 0.5925 0.0000
vt 0.5950 0.5925 0.0000
vt 0.5950 0.6470 0.0000
vt 0.6711 0.6470 0.0000
vt 0.7254 0.7403 0.0000
vt 0.1169 0.8843 0.0000
vt 0.2255 0.8182 0.0000
vt 0.2255 0.8843 0.0000
vt 0.2255 0.9505 0.0000
vt 0.1169 0.9894 0.0000
vt 0.1169 0.7831 0.0000
vt 0.0191 0.8182 0.0000
vt 0.0191 0.8843 0.0000
vt 0.9210 0.9933 0.0000
vt 0.9862 0.7053 0.0000
vt 0.9210 0.7053 0.0000
vt 0.8558 0.7053 0.0000
vt 0.8558 0.9933 0.0000
vt 0.9862 0.9933 0.0000
vt 0.0191 0.9505 0.0000
vt 0.2581 0.0011 0.0000
vt 0.5516 0.0011 0.0000
vt 0.2581 0.1995 0.0000
vt 0.5516 0.1995 0.0000
vt 0.9971 0.0011 0.0000
vt 0.9971 0.5536 0.0000
vt 0.6711 0.8843 0.0000
vt 0.8232 0.9855 0.0000
vt 0.8232 0.8843 0.0000
vt 0.8232 0.7793 0.0000
vt 0.6711 0.7793 0.0000
vt 0.6711 0.9855 0.0000
vt 0.2581 0.9855 0.0000
vt 0.3234 0.9543 0.0000
vt 0.2581 0.9232 0.0000
vt 0.5733 0.6586 0.0000
vt 0.6820 0.6003 0.0000
vt 0.8015 0.6586 0.0000
vt 0.6820 0.7170 0.0000
vt 0.5516 0.5536 0.0000
vt 0.0191 0.4524 0.0000
vt 0.2255 0.0167 0.0000
vt 0.0191 0.0167 0.0000
vt 0.2255 0.4524 0.0000
vt 0.0191 0.6081 0.0000
vt 0.2255 0.6081 0.0000
vt 0.0191 0.7131 0.0000
vt 0.6494 0.8921 0.0000
vt 0.3559 0.9699 0.0000
vt 0.2690 0.8065 0.0000
vt 0.6494 0.7831 0.0000
vt 0.4972 0.7131 0.0000
vt 0.4972 0.6081 0.0000
vt 0.2690 0.5847 0.0000
vt 0.4864 0.5847 0.0000
vt 0.4864 0.3163 0.0000
vt 0.2690 0.3163 0.0000
vt 0.4864 0.2384 0.0000
vt -0.7742 0.6042 0.0000
vt -0.9915 0.6042 0.0000
vt -0.8829 0.7131 0.0000
vt -0.5025 0.6042 0.0000
vt -0.5786 0.7131 0.0000
vt -0.6981 0.7870 0.0000
vt -0.5786 0.7520 0.0000
vt -0.5025 0.6859 0.0000
vt -0.4699 0.7676 0.0000
vt 1.7360 0.8999 0.0000
vt 1.7795 0.8999 0.0000
vt 1.7795 0.8532 0.0000
vt 1.7360 0.8532 0.0000
vt 1.7795 0.8065 0.0000
vt -0.4047 0.7403 0.0000
vt 0.6494 0.9699 0.0000
vt 1.4970 0.3007 0.0000
vt 1.4426 0.3746 0.0000
vt 1.4426 0.2423 0.0000
vt 1.4970 0.3746 0.0000
vt 1.7360 0.8065 0.0000
vt 1.7795 0.8843 0.0000
vt 1.7360 0.8843 0.0000
vt 1.5948 0.9154 0.0000
vt 1.6382 0.8376 0.0000
vt 1.5948 0.8376 0.0000
vt 1.6382 0.9154 0.0000
# 86 texture coords

o w00_013_00
g w00_013_00
usemtl Material__237
s 1
f 3/2/3 2/2/2 1/1/1 
f 2/2/2 3/2/3 4/2/4 
f 4/2/4 5/3/5 2/2/2 
f 5/3/5 4/2/4 6/4/6 
f 6/4/6 2/2/2 5/3/5 
f 2/2/2 6/4/6 7/5/7 
f 7/5/7 1/1/1 2/2/2 
f 1/1/1 7/5/7 8/6/8 
f 8/6/8 9/6/9 1/1/1 
f 9/6/9 8/6/8 10/5/10 
f 10/5/10 11/1/11 9/6/9 
f 11/1/11 10/5/10 4/2/4 
f 4/2/4 12/2/12 11/1/11 
f 12/2/12 4/2/4 3/2/3 
f 15/9/15 14/8/14 13/7/13 
f 13/7/13 16/10/16 15/9/15 
f 16/10/16 13/7/13 17/11/17 
f 17/11/17 18/9/18 16/10/16 
f 18/9/18 17/11/17 19/7/19 
f 19/7/19 14/8/14 18/9/18 
f 14/8/14 19/7/19 20/12/20 
f 20/12/20 13/7/13 14/8/14 
f 13/7/13 20/12/20 21/13/21 
f 21/13/21 22/14/22 13/7/13 
f 22/17/23 21/16/24 23/15/23 
f 23/15/23 24/18/25 22/17/23 
f 24/18/25 23/15/23 25/19/26 
f 25/19/26 26/17/27 24/18/25 
f 26/17/27 25/19/26 27/15/11 
f 27/15/11 21/16/24 26/17/27 
f 21/16/24 27/15/11 28/20/24 
f 28/20/24 23/15/23 21/16/24 
f 26/14/28 20/12/20 19/7/19 
f 19/7/19 24/21/29 26/14/28 
f 24/21/29 19/7/19 17/11/17 
f 17/11/17 22/14/22 24/21/29 
f 22/14/22 17/11/17 13/7/13 
f 31/24/23 30/23/23 29/22/23 
f 30/23/23 31/24/23 32/25/23 
f 32/25/23 33/26/23 30/23/23 
f 33/26/23 32/25/23 34/27/23 
f 37/26/19 36/27/19 35/25/19 
f 35/25/19 38/23/19 37/26/19 
f 38/23/19 35/25/19 39/24/19 
f 39/24/19 40/22/19 38/23/19 
f 43/30/19 42/29/17 41/28/19 
f 41/28/19 44/31/24 43/30/19 
f 44/31/24 41/28/19 45/32/24 
f 45/32/24 46/28/23 44/31/24 
f 47/33/17 41/28/19 42/29/17 
f 42/29/17 46/28/23 47/33/17 
f 46/28/23 42/29/17 48/30/23 
f 48/30/23 44/31/24 46/28/23 
f 6/4/6 4/2/4 10/5/10 
f 10/5/10 7/5/7 6/4/6 
f 7/5/7 10/5/10 8/6/8 
f 15/36/30 16/35/30 18/34/30 
f 18/34/30 14/35/30 15/36/30 
f 47/39/31 46/38/31 45/37/31 
f 45/37/31 41/40/31 47/39/31 
f 44/37/30 48/38/30 42/39/30 
f 42/39/30 43/40/30 44/37/30 
f 26/14/28 21/13/21 20/12/20 
f 32/25/23 49/41/23 34/27/23 
f 35/25/19 36/27/19 50/41/19 
f 11/1/11 1/1/1 9/6/9 
f 53/44/33 52/43/32 51/42/23 
f 51/42/23 54/43/34 53/44/33 
f 54/43/34 51/42/23 55/45/35 
f 55/45/35 56/44/36 54/43/34 
f 56/44/36 55/45/35 57/42/37 
f 57/42/37 52/43/32 56/44/36 
f 52/43/32 57/42/37 58/45/38 
f 58/45/38 51/42/23 52/43/32 
f 51/42/23 58/45/38 59/46/39 
f 59/46/39 55/45/35 51/42/23 
f 55/45/35 59/46/39 60/47/40 
f 60/47/40 61/46/41 55/45/35 
f 61/46/41 60/47/40 62/48/42 
f 65/51/45 64/50/44 63/49/43 
f 63/49/43 66/52/46 65/51/45 
f 66/52/46 63/49/43 67/51/47 
f 67/51/47 68/53/48 66/52/46 
f 68/53/48 67/51/47 62/48/42 
f 62/48/42 69/54/49 68/53/48 
f 69/54/49 62/48/42 60/47/40 
f 60/47/40 70/48/50 69/54/49 
f 70/48/50 60/47/40 59/46/39 
f 71/57/51 54/56/34 56/55/36 
f 56/55/36 72/58/52 71/57/51 
f 72/58/52 56/55/36 73/57/53 
f 73/57/53 74/59/31 72/58/52 
f 74/59/31 73/57/53 75/58/54 
f 75/58/54 71/57/51 74/59/31 
f 71/57/51 75/58/54 53/55/33 
f 53/55/33 54/56/34 71/57/51 
f 70/62/57 59/61/56 76/60/55 
f 76/60/55 77/63/58 70/62/57 
f 77/63/58 76/60/55 62/62/59 
f 62/62/59 78/64/60 77/63/58 
f 78/64/60 62/62/59 79/65/61 
f 79/65/61 80/66/62 78/64/60 
f 78/64/60 80/68/64 81/67/63 
f 81/67/63 77/63/58 78/64/60 
f 77/63/58 81/67/63 82/64/65 
f 82/64/65 70/62/57 77/63/58 
f 70/62/57 82/64/65 83/65/66 
f 76/47/67 59/46/39 58/45/38 
f 58/45/38 61/46/41 76/47/67 
f 61/46/41 58/45/38 57/42/37 
f 57/42/37 55/45/35 61/46/41 
f 65/71/70 70/70/69 84/69/68 
f 84/69/68 85/72/71 65/71/70 
f 85/72/71 84/69/68 67/71/72 
f 67/71/72 86/73/73 85/72/71 
f 87/68/74 82/64/65 81/67/63 
f 81/67/63 88/74/75 87/68/74 
f 88/74/75 81/67/63 80/68/64 
f 86/50/76 67/51/47 63/49/43 
f 63/49/43 89/75/77 86/50/76 
f 89/75/77 63/49/43 64/50/44 
f 89/78/80 64/77/79 90/76/78 
f 90/76/78 86/77/81 89/78/80 
f 86/77/81 90/76/78 91/79/30 
f 64/73/82 65/71/70 85/72/71 
f 85/72/71 91/80/83 64/73/82 
f 91/80/83 85/72/71 86/73/73 
f 92/82/86 79/81/85 84/72/84 
f 84/72/84 83/81/87 92/82/86 
f 83/81/87 84/72/84 70/71/88 
f 88/85/91 80/84/90 92/83/89 
f 92/83/89 87/84/92 88/85/91 
f 87/84/92 92/83/89 83/86/93 
f 65/51/45 66/52/46 68/53/48 
f 68/53/48 70/48/50 65/51/45 
f 70/48/50 68/53/48 69/54/49 
f 73/57/53 56/55/36 52/56/32 
f 52/56/32 75/58/54 73/57/53 
f 75/58/54 52/56/32 53/55/33 
f 83/65/66 82/64/65 87/66/94 
f 90/76/78 64/77/79 91/79/30 
f 79/81/85 62/71/95 84/72/84 
f 80/84/90 79/86/96 92/83/89 
f 61/61/97 62/62/59 76/60/55 
f 84/69/68 62/70/98 67/71/72 
f 71/57/51 72/58/52 74/59/31 
# 146 faces

