# 3ds Max Wavefront OBJ Exporter v0.97b - (c)2007 guruware
# File Created: 06.08.2019 17:02:51

mtllib Elucidator56f.mtl

#
# object w00_013_00
#

v  0.4224 0.6450 -0.2537
v  0.4131 0.6348 -0.2198
v  0.4022 0.6479 -0.2315
v  0.4247 0.6518 -0.2115
v  0.3755 0.6497 -0.1681
v  0.3914 0.6306 -0.1512
v  0.4289 0.6158 -0.2029
v  0.4851 0.5696 -0.1865
v  0.4967 0.5866 -0.1782
v  0.4405 0.6328 -0.1946
v  0.4340 0.6620 -0.2454
v  0.4138 0.6649 -0.2232
v  0.3009 0.8362 -0.3684
v  0.2650 0.8254 -0.3745
v  0.2871 0.8379 -0.3812
v  0.2899 0.8218 -0.4018
v  0.3052 0.8109 -0.4009
v  0.2677 0.8094 -0.3951
v  0.2704 0.7913 -0.3903
v  0.2660 0.8166 -0.3579
v  0.2814 0.8057 -0.3569
v  0.3035 0.8181 -0.3636
v  0.4248 0.6723 -0.2337
v  0.3063 0.8021 -0.3842
v  0.4276 0.6562 -0.2543
v  0.2841 0.7897 -0.3775
v  0.4055 0.6438 -0.2475
v  0.4027 0.6598 -0.2269
v  0.3650 0.6703 -0.1607
v  0.4067 0.6642 -0.2064
v  0.3961 0.6330 -0.1274
v  0.4377 0.6269 -0.1731
v  0.4539 0.6573 -0.2581
v  0.5413 0.5522 -0.1645
v  0.4240 0.6068 -0.1829
v  0.5276 0.5321 -0.1743
v  0.4402 0.6372 -0.2679
v  0.3930 0.6441 -0.2162
v  0.3824 0.6128 -0.1372
v  0.3513 0.6502 -0.1705
v  0.4074 0.6282 -0.2437
v  0.4313 0.6585 -0.2641
v  0.3979 0.6397 -0.2539
v  0.3937 0.6639 -0.2228
v  0.4032 0.6525 -0.2126
v  0.4367 0.6712 -0.2228
v  0.4408 0.6470 -0.2538
v  0.4271 0.6827 -0.2330
v  0.4941 0.5591 -0.1127
v  0.4804 0.5390 -0.1225
v  0.5148 0.5531 -0.1358
v  0.7144 0.3210 0.0332
v  0.6984 0.3324 0.0609
v  0.6712 0.3273 0.0805
v  0.4876 0.5480 -0.1161
v  0.6872 0.3160 0.0529
v  0.5036 0.5367 -0.1438
v  0.5308 0.5418 -0.1635
v  0.4903 0.5826 -0.1621
v  0.4622 0.5728 -0.1313
v  0.4791 0.5662 -0.1701
v  0.4652 0.5829 -0.1850
v  0.3773 0.6340 -0.1385
v  0.3903 0.6513 -0.1779
v  0.4268 0.6209 -0.1607
v  0.3970 0.6158 -0.1286
v  0.4190 0.6095 -0.1663
v  0.4225 0.5979 -0.1274
v  0.4352 0.5814 -0.1112
v  0.4764 0.5993 -0.1770
v  0.8671 0.0918 0.2904
v  0.8831 0.0805 0.2627
v  0.9102 0.0855 0.2430
v  0.9454 0.0205 0.3274
v  0.8942 0.0969 0.2707
v  0.5165 0.5648 -0.1909
v  0.5392 0.5662 -0.2254
v  0.5091 0.5821 -0.2269
v  0.4884 0.6003 -0.2359
v  0.5046 0.5929 -0.2402
v  0.5197 0.5840 -0.2347
v  0.5134 0.5883 -0.2238
v  0.4929 0.6069 -0.2327
v  0.4651 0.5980 -0.1871
v  0.4252 0.6185 -0.1735
v  0.3847 0.6431 -0.1819
v  0.5078 0.5977 -0.2379
v  0.5131 0.5971 -0.2524
v  0.3454 0.6534 -0.1337
v  0.3579 0.6573 -0.1593
v  0.3870 0.6531 -0.1911
v  0.4836 0.6123 -0.2425
# 92 vertices

vn 0.0623 0.6923 0.7189
vn 0.8116 0.5293 0.2472
vn 0.8330 0.2555 -0.4908
vn 0.0049 -0.8288 -0.5595
vn 0.7145 -0.6322 0.2998
vn -0.0615 0.4707 -0.8802
vn 0.4444 0.8853 -0.1368
vn 0.4255 0.7834 -0.4531
vn -0.9559 -0.2642 0.1282
vn -0.2915 -0.3326 -0.8969
vn -0.7070 -0.6966 -0.1219
vn 0.1051 -0.6114 -0.7843
vn 0.3688 0.8307 0.4171
vn -0.8513 0.4395 0.2867
vn 0.1318 0.9912 -0.0116
vn 0.3835 0.4716 -0.7941
vn 0.6704 -0.0978 -0.7355
vn -0.5250 -0.2896 -0.8003
vn -0.5218 -0.7669 -0.3737
vn -0.6826 -0.1386 0.7175
vn -0.1070 -0.0650 0.9921
vn 0.8803 0.2378 0.4105
vn 0.5218 0.7669 0.3737
vn -0.6704 0.0978 0.7355
vn 0.8010 0.1498 -0.5796
vn 0.4710 -0.3353 -0.8159
vn -0.2830 -0.7585 -0.5871
vn -0.3048 -0.9299 0.2061
vn 0.6825 -0.6270 -0.3755
vn -0.5275 0.6343 -0.5651
vn 0.5275 -0.6343 0.5651
vn 0.8220 0.2132 -0.5280
vn 0.4762 0.7717 0.4216
vn -0.3051 0.4794 0.8229
vn -0.8011 -0.2615 0.5383
vn -0.5530 -0.7614 -0.3384
vn -0.4762 -0.7717 -0.4216
vn 0.7017 -0.1367 -0.6993
vn 0.4972 0.7566 0.4247
vn -0.3574 -0.2012 0.9120
vn -0.5446 -0.7747 -0.3214
vn -0.5705 -0.7944 -0.2083
vn -0.4658 -0.1109 0.8779
vn 0.4636 0.7445 0.4805
vn 0.4484 0.7272 0.5197
vn -0.3726 -0.1891 0.9085
vn -0.5804 -0.7849 -0.2171
vn -0.3704 -0.1909 0.9090
vn -0.0676 -0.3994 0.9143
vn 0.4571 0.7160 0.5277
vn -0.6149 0.0345 0.7879
vn -0.4950 -0.7974 -0.3452
vn 0.3566 -0.5419 -0.7611
vn 0.5856 0.7330 0.3461
vn 0.8531 -0.4678 -0.2311
vn 0.6755 0.7166 0.1737
vn 0.6412 0.7010 0.3122
vn 0.8306 -0.3567 -0.4277
vn -0.3907 -0.8156 -0.4267
vn -0.3905 -0.7690 -0.5061
vn -0.4625 -0.7573 -0.4610
vn -0.4659 -0.7585 -0.4556
vn 0.6952 -0.1284 -0.7073
vn -0.2836 -0.8042 -0.5224
vn 0.6349 0.7381 0.2282
vn 0.5752 0.7679 0.2821
vn 0.7686 -0.2326 -0.5959
vn -0.0943 0.4872 -0.8682
vn 0.2543 0.8822 -0.3963
vn 0.4519 0.8454 -0.2846
vn 0.2889 0.2533 -0.9232
vn -0.3598 -0.3475 -0.8659
vn -0.1975 -0.5905 -0.7825
vn 0.7181 0.6681 0.1950
vn 0.8026 -0.2930 -0.5196
vn -0.5720 -0.7776 -0.2612
vn -0.0936 -0.3839 0.9186
vn -0.6055 0.6415 -0.4710
vn 0.2832 0.9401 0.1900
vn -0.7337 0.6269 -0.2621
vn -0.6974 -0.5012 -0.5122
vn 0.6878 0.7106 -0.1486
vn 0.4856 0.0932 -0.8692
vn -0.7616 0.6161 -0.2010
vn -0.8552 -0.3002 -0.4225
vn -0.7952 0.5959 -0.1126
vn 0.0155 0.9795 0.2010
vn -0.1834 0.9798 0.0796
vn 0.0405 0.4152 -0.9088
vn -0.4813 -0.5934 -0.6452
vn -0.0545 0.4671 -0.8825
vn 0.5073 0.8595 0.0627
vn 0.5193 0.8544 -0.0174
vn 0.5725 0.7677 0.2880
vn -0.8987 -0.0715 -0.4326
vn -0.4404 -0.5562 -0.7047
vn -0.3336 -0.7665 -0.5489
vn -0.4357 -0.1319 -0.8904
# 98 vertex normals

vt 0.7254 0.5925 0.0000
vt 0.6602 0.5925 0.0000
vt 0.5950 0.5925 0.0000
vt 0.5950 0.6470 0.0000
vt 0.6711 0.6470 0.0000
vt 0.7254 0.7403 0.0000
vt 0.1169 0.8843 0.0000
vt 0.2255 0.8182 0.0000
vt 0.2255 0.8843 0.0000
vt 0.2255 0.9505 0.0000
vt 0.1169 0.9894 0.0000
vt 0.1169 0.7831 0.0000
vt 0.0191 0.8182 0.0000
vt 0.0191 0.8843 0.0000
vt 0.9210 0.9933 0.0000
vt 0.9862 0.7053 0.0000
vt 0.9210 0.7053 0.0000
vt 0.8558 0.7053 0.0000
vt 0.8558 0.9933 0.0000
vt 0.9862 0.9933 0.0000
vt 0.0191 0.9505 0.0000
vt 0.2581 0.0011 0.0000
vt 0.5516 0.0011 0.0000
vt 0.2581 0.1995 0.0000
vt 0.5516 0.1995 0.0000
vt 0.9971 0.0011 0.0000
vt 0.9971 0.5536 0.0000
vt 0.6711 0.8843 0.0000
vt 0.8232 0.9855 0.0000
vt 0.8232 0.8843 0.0000
vt 0.8232 0.7793 0.0000
vt 0.6711 0.7793 0.0000
vt 0.6711 0.9855 0.0000
vt 0.2581 0.9855 0.0000
vt 0.3234 0.9543 0.0000
vt 0.2581 0.9232 0.0000
vt 0.5733 0.6586 0.0000
vt 0.6820 0.6003 0.0000
vt 0.8015 0.6586 0.0000
vt 0.6820 0.7170 0.0000
vt 0.5516 0.5536 0.0000
vt 0.0191 0.4524 0.0000
vt 0.2255 0.0167 0.0000
vt 0.0191 0.0167 0.0000
vt 0.2255 0.4524 0.0000
vt 0.0191 0.6081 0.0000
vt 0.2255 0.6081 0.0000
vt 0.0191 0.7131 0.0000
vt 0.6494 0.8921 0.0000
vt 0.3559 0.9699 0.0000
vt 0.2690 0.8065 0.0000
vt 0.6494 0.7831 0.0000
vt 0.4972 0.7131 0.0000
vt 0.4972 0.6081 0.0000
vt 0.2690 0.5847 0.0000
vt 0.4864 0.5847 0.0000
vt 0.4864 0.3163 0.0000
vt 0.2690 0.3163 0.0000
vt 0.4864 0.2384 0.0000
vt -0.7742 0.6042 0.0000
vt -0.9915 0.6042 0.0000
vt -0.8829 0.7131 0.0000
vt -0.5025 0.6042 0.0000
vt -0.5786 0.7131 0.0000
vt -0.6981 0.7870 0.0000
vt -0.5786 0.7520 0.0000
vt -0.5025 0.6859 0.0000
vt -0.4699 0.7676 0.0000
vt 1.7360 0.8999 0.0000
vt 1.7795 0.8999 0.0000
vt 1.7795 0.8532 0.0000
vt 1.7360 0.8532 0.0000
vt 1.7795 0.8065 0.0000
vt -0.4047 0.7403 0.0000
vt 0.6494 0.9699 0.0000
vt 1.4970 0.3007 0.0000
vt 1.4426 0.3746 0.0000
vt 1.4426 0.2423 0.0000
vt 1.4970 0.3746 0.0000
vt 1.7360 0.8065 0.0000
vt 1.7795 0.8843 0.0000
vt 1.7360 0.8843 0.0000
vt 1.5948 0.9154 0.0000
vt 1.6382 0.8376 0.0000
vt 1.5948 0.8376 0.0000
vt 1.6382 0.9154 0.0000
# 86 texture coords

o w00_013_00
g w00_013_00
usemtl Material__237
s 1
f 3/2/3 2/2/2 1/1/1 
f 2/2/2 3/2/3 4/2/4 
f 4/2/4 5/3/5 2/2/2 
f 5/3/5 4/2/4 6/4/6 
f 6/4/6 2/2/2 5/3/5 
f 2/2/2 6/4/6 7/5/7 
f 7/5/7 1/1/1 2/2/2 
f 1/1/1 7/5/7 8/6/8 
f 8/6/8 9/6/9 1/1/1 
f 9/6/9 8/6/8 10/5/10 
f 10/5/10 11/1/11 9/6/9 
f 11/1/11 10/5/10 4/2/4 
f 4/2/4 12/2/12 11/1/11 
f 12/2/12 4/2/4 3/2/3 
f 15/9/15 14/8/14 13/7/13 
f 13/7/13 16/10/16 15/9/15 
f 16/10/16 13/7/13 17/11/17 
f 17/11/17 18/9/18 16/10/16 
f 18/9/18 17/11/17 19/7/19 
f 19/7/19 14/8/14 18/9/18 
f 14/8/14 19/7/19 20/12/20 
f 20/12/20 13/7/13 14/8/14 
f 13/7/13 20/12/20 21/13/21 
f 21/13/21 22/14/22 13/7/13 
f 22/17/23 21/16/24 23/15/23 
f 23/15/23 24/18/25 22/17/23 
f 24/18/25 23/15/23 25/19/26 
f 25/19/26 26/17/27 24/18/25 
f 26/17/27 25/19/26 27/15/11 
f 27/15/11 21/16/24 26/17/27 
f 21/16/24 27/15/11 28/20/24 
f 28/20/24 23/15/23 21/16/24 
f 26/14/28 20/12/20 19/7/19 
f 19/7/19 24/21/29 26/14/28 
f 24/21/29 19/7/19 17/11/17 
f 17/11/17 22/14/22 24/21/29 
f 22/14/22 17/11/17 13/7/13 
f 31/24/23 30/23/23 29/22/23 
f 30/23/23 31/24/23 32/25/23 
f 32/25/23 33/26/23 30/23/23 
f 33/26/23 32/25/23 34/27/23 
f 37/26/19 36/27/19 35/25/19 
f 35/25/19 38/23/19 37/26/19 
f 38/23/19 35/25/19 39/24/19 
f 39/24/19 40/22/19 38/23/19 
f 43/30/19 42/29/17 41/28/19 
f 41/28/19 44/31/24 43/30/19 
f 44/31/24 41/28/19 45/32/24 
f 45/32/24 46/28/23 44/31/24 
f 47/33/17 41/28/19 42/29/17 
f 42/29/17 46/28/23 47/33/17 
f 46/28/23 42/29/17 48/30/23 
f 48/30/23 44/31/24 46/28/23 
f 6/4/6 4/2/4 10/5/10 
f 10/5/10 7/5/7 6/4/6 
f 7/5/7 10/5/10 8/6/8 
f 15/36/30 16/35/30 18/34/30 
f 18/34/30 14/35/30 15/36/30 
f 47/39/31 46/38/31 45/37/31 
f 45/37/31 41/40/31 47/39/31 
f 44/37/30 48/38/30 42/39/30 
f 42/39/30 43/40/30 44/37/30 
f 26/14/28 21/13/21 20/12/20 
f 32/25/23 49/41/23 34/27/23 
f 35/25/19 36/27/19 50/41/19 
f 11/1/11 1/1/1 9/6/9 
f 53/44/33 52/43/32 51/42/23 
f 51/42/23 54/43/34 53/44/33 
f 54/43/34 51/42/23 55/45/35 
f 55/45/35 56/44/36 54/43/34 
f 56/44/36 55/45/35 57/42/37 
f 57/42/37 52/43/32 56/44/36 
f 52/43/32 57/42/37 58/45/38 
f 58/45/38 51/42/23 52/43/32 
f 51/42/23 58/45/38 59/46/39 
f 59/46/39 55/45/35 51/42/23 
f 55/45/35 59/46/39 60/47/40 
f 60/47/40 61/46/41 55/45/35 
f 61/46/41 60/47/40 62/48/42 
f 65/51/45 64/50/44 63/49/43 
f 63/49/43 66/52/46 65/51/45 
f 66/52/46 63/49/43 67/51/47 
f 67/51/47 68/53/48 66/52/46 
f 68/53/48 67/51/47 62/48/42 
f 62/48/42 69/54/49 68/53/48 
f 69/54/49 62/48/42 60/47/40 
f 60/47/40 70/48/50 69/54/49 
f 70/48/50 60/47/40 59/46/39 
f 71/57/51 54/56/34 56/55/36 
f 56/55/36 72/58/52 71/57/51 
f 72/58/52 56/55/36 73/57/53 
f 73/57/53 74/59/31 72/58/52 
f 74/59/31 73/57/53 75/58/54 
f 75/58/54 71/57/51 74/59/31 
f 71/57/51 75/58/54 53/55/33 
f 53/55/33 54/56/34 71/57/51 
f 70/62/57 59/61/56 76/60/55 
f 76/60/55 77/63/58 70/62/57 
f 77/63/58 76/60/55 62/62/59 
f 62/62/59 78/64/60 77/63/58 
f 78/64/60 62/62/59 79/65/61 
f 79/65/61 80/66/62 78/64/60 
f 78/64/60 80/68/64 81/67/63 
f 81/67/63 77/63/58 78/64/60 
f 77/63/58 81/67/63 82/64/65 
f 82/64/65 70/62/57 77/63/58 
f 70/62/57 82/64/65 83/65/66 
f 76/47/67 59/46/39 58/45/38 
f 58/45/38 61/46/41 76/47/67 
f 61/46/41 58/45/38 57/42/37 
f 57/42/37 55/45/35 61/46/41 
f 65/71/70 70/70/69 84/69/68 
f 84/69/68 85/72/71 65/71/70 
f 85/72/71 84/69/68 67/71/72 
f 67/71/72 86/73/73 85/72/71 
f 87/68/74 82/64/65 81/67/63 
f 81/67/63 88/74/75 87/68/74 
f 88/74/75 81/67/63 80/68/64 
f 86/50/76 67/51/47 63/49/43 
f 63/49/43 89/75/77 86/50/76 
f 89/75/77 63/49/43 64/50/44 
f 89/78/80 64/77/79 90/76/78 
f 90/76/78 86/77/81 89/78/80 
f 86/77/81 90/76/78 91/79/30 
f 64/73/82 65/71/70 85/72/71 
f 85/72/71 91/80/83 64/73/82 
f 91/80/83 85/72/71 86/73/73 
f 92/82/86 79/81/85 84/72/84 
f 84/72/84 83/81/87 92/82/86 
f 83/81/87 84/72/84 70/71/88 
f 88/85/91 80/84/90 92/83/89 
f 92/83/89 87/84/92 88/85/91 
f 87/84/92 92/83/89 83/86/93 
f 65/51/45 66/52/46 68/53/48 
f 68/53/48 70/48/50 65/51/45 
f 70/48/50 68/53/48 69/54/49 
f 73/57/53 56/55/36 52/56/32 
f 52/56/32 75/58/54 73/57/53 
f 75/58/54 52/56/32 53/55/33 
f 83/65/66 82/64/65 87/66/94 
f 90/76/78 64/77/79 91/79/30 
f 79/81/85 62/71/95 84/72/84 
f 80/84/90 79/86/96 92/83/89 
f 61/61/97 62/62/59 76/60/55 
f 84/69/68 62/70/98 67/71/72 
f 71/57/51 72/58/52 74/59/31 
# 146 faces

