# 3ds Max Wavefront OBJ Exporter v0.97b - (c)2007 guruware
# File Created: 06.08.2019 17:02:32

mtllib Elucidator27f.mtl

#
# object w00_013_00
#

v  -0.1001 0.4480 0.0854
v  -0.0992 0.4834 0.0943
v  -0.1074 0.4760 0.0769
v  -0.0796 0.4855 0.0843
v  -0.1051 0.5445 0.0711
v  -0.0932 0.5553 0.0964
v  -0.0874 0.4942 0.1197
v  -0.0531 0.4907 0.1858
v  -0.0335 0.4928 0.1758
v  -0.0677 0.4963 0.1096
v  -0.0804 0.4501 0.0753
v  -0.0877 0.4781 0.0668
v  -0.1672 0.3765 -0.1489
v  -0.2037 0.3854 -0.1540
v  -0.1828 0.3699 -0.1572
v  -0.1947 0.3509 -0.1435
v  -0.1860 0.3466 -0.1274
v  -0.2157 0.3664 -0.1403
v  -0.2190 0.3710 -0.1224
v  -0.2002 0.4009 -0.1439
v  -0.1914 0.3966 -0.1277
v  -0.1705 0.3811 -0.1309
v  -0.0795 0.4637 0.0635
v  -0.1824 0.3621 -0.1173
v  -0.0915 0.4448 0.0771
v  -0.2034 0.3776 -0.1141
v  -0.1124 0.4603 0.0803
v  -0.1005 0.4792 0.0667
v  -0.1027 0.5541 0.0489
v  -0.0876 0.4964 0.0664
v  -0.0794 0.5752 0.0986
v  -0.0644 0.5175 0.1161
v  -0.0706 0.4310 0.0862
v  -0.0051 0.4906 0.2262
v  -0.0876 0.5151 0.1280
v  -0.0283 0.4881 0.2382
v  -0.0938 0.4286 0.0981
v  -0.1109 0.4939 0.0783
v  -0.1027 0.5728 0.1105
v  -0.1259 0.5516 0.0608
v  -0.1156 0.4641 0.0957
v  -0.0912 0.4342 0.0756
v  -0.1228 0.4576 0.0804
v  -0.1047 0.4862 0.0598
v  -0.0976 0.4927 0.0750
v  -0.0660 0.4693 0.0702
v  -0.0840 0.4407 0.0908
v  -0.0731 0.4628 0.0549
v  -0.0221 0.5559 0.2064
v  -0.0453 0.5535 0.2183
v  -0.0160 0.5271 0.2178
v  0.1200 0.6213 0.5258
v  0.1217 0.6522 0.5119
v  0.1044 0.6811 0.5077
v  -0.0332 0.5560 0.2136
v  0.1027 0.6502 0.5216
v  -0.0349 0.5251 0.2275
v  -0.0177 0.4962 0.2317
v  -0.0344 0.5104 0.1785
v  -0.0502 0.5502 0.1794
v  -0.0533 0.5084 0.1882
v  -0.0637 0.4989 0.1659
v  -0.0988 0.5721 0.0890
v  -0.0958 0.5298 0.0745
v  -0.0712 0.5335 0.1185
v  -0.0860 0.5748 0.1145
v  -0.0844 0.5321 0.1252
v  -0.0716 0.5674 0.1411
v  -0.0616 0.5785 0.1628
v  -0.0448 0.5009 0.1562
v  0.2512 0.8145 0.8215
v  0.2495 0.7837 0.8354
v  0.2668 0.7548 0.8397
v  0.3015 0.8233 0.9215
v  0.2685 0.7856 0.8257
v  -0.0305 0.4749 0.2022
v  -0.0240 0.4344 0.2065
v  -0.0432 0.4435 0.1799
v  -0.0566 0.4420 0.1542
v  -0.0477 0.4323 0.1669
v  -0.0366 0.4321 0.1816
v  -0.0360 0.4443 0.1762
v  -0.0489 0.4428 0.1502
v  -0.0586 0.4960 0.1519
v  -0.0783 0.5226 0.1187
v  -0.1052 0.5288 0.0793
v  -0.0422 0.4328 0.1640
v  -0.0435 0.4175 0.1652
v  -0.1157 0.5875 0.0592
v  -0.1133 0.5589 0.0580
v  -0.1028 0.5187 0.0702
v  -0.0581 0.4370 0.1406
# 92 vertices

vn 0.6029 0.5926 -0.5341
vn 0.9837 -0.1190 -0.1350
vn 0.6128 -0.7888 0.0487
vn -0.5422 -0.4627 0.7014
vn 0.4522 0.0431 0.8909
vn -0.1920 -0.8179 -0.5424
vn 0.6773 -0.3549 -0.6444
vn 0.5012 -0.6322 -0.5909
vn -0.8552 0.5027 -0.1263
vn -0.7152 -0.6921 0.0970
vn -0.9171 0.2051 0.3419
vn -0.4553 -0.7225 0.5203
vn 0.8007 0.1879 -0.5688
vn -0.4234 0.5622 -0.7104
vn 0.5068 -0.1265 -0.8527
vn 0.2115 -0.9096 -0.3576
vn 0.2421 -0.9285 0.2816
vn -0.8560 -0.5163 -0.0254
vn -0.8860 -0.0933 0.4542
vn -0.3547 0.9321 -0.0727
vn 0.2581 0.9590 0.1168
vn 0.9843 0.0242 0.1746
vn 0.8860 0.0933 -0.4542
vn -0.2421 0.9285 -0.2816
vn 0.5098 -0.8514 0.1235
vn -0.0505 -0.9103 0.4108
vn -0.7640 -0.3821 0.5199
vn -0.5529 0.3680 0.7476
vn 0.1734 -0.5669 0.8054
vn -0.3955 -0.3595 -0.8452
vn 0.3955 0.3595 0.8452
vn 0.5725 -0.8161 0.0792
vn 0.8680 0.1546 -0.4719
vn 0.2497 0.8435 -0.4755
vn -0.5707 0.8207 -0.0258
vn -0.8965 -0.0491 0.4404
vn -0.8680 -0.1546 0.4719
vn 0.2660 -0.9046 0.3332
vn 0.8806 0.1504 -0.4494
vn -0.0359 0.9904 0.1334
vn -0.8885 -0.0358 0.4575
vn -0.8755 0.0796 0.4766
vn -0.1024 0.9947 0.0044
vn 0.8687 0.2154 -0.4461
vn 0.8638 0.2585 -0.4324
vn -0.0450 0.9922 0.1159
vn -0.8831 0.0747 0.4631
vn -0.0437 0.9920 0.1185
vn 0.1261 0.8942 0.4296
vn 0.8695 0.2633 -0.4180
vn -0.2018 0.9595 -0.1965
vn -0.8653 -0.0753 0.4955
vn -0.2088 -0.8023 0.5592
vn 0.9151 0.0456 -0.4007
vn 0.4343 -0.5099 0.7426
vn 0.9184 -0.1466 -0.3674
vn 0.9357 -0.0049 -0.3528
vn 0.3866 -0.6895 0.6125
vn -0.8165 -0.1893 0.5455
vn -0.8273 -0.2655 0.4950
vn -0.8656 -0.1971 0.4602
vn -0.8669 -0.1907 0.4605
vn 0.2610 -0.9100 0.3222
vn -0.7586 -0.3192 0.5679
vn 0.9139 -0.0823 -0.3976
vn 0.8964 -0.0116 -0.4431
vn 0.3219 -0.8288 0.4577
vn -0.2081 -0.7953 -0.5693
vn 0.4199 -0.5206 -0.7434
vn 0.6117 -0.4913 -0.6200
vn -0.0043 -0.9779 -0.2092
vn -0.7665 -0.6364 0.0866
vn -0.6983 -0.6059 0.3811
vn 0.9423 -0.1402 -0.3041
vn 0.3545 -0.7676 0.5340
vn -0.8898 0.0303 0.4553
vn 0.1124 0.9072 0.4055
vn -0.4221 -0.2433 -0.8733
vn 0.6882 0.0044 -0.7255
vn -0.4561 -0.0007 -0.8899
vn -0.9769 -0.1708 0.1281
vn 0.8049 -0.4477 -0.3895
vn 0.1150 -0.9931 0.0205
vn -0.4607 0.0670 -0.8850
vn -0.9932 -0.0408 -0.1089
vn -0.4636 0.1627 -0.8710
vn 0.4852 0.1148 -0.8668
vn 0.2739 0.0794 -0.9585
vn -0.1402 -0.8798 -0.4542
vn -0.8842 -0.3703 0.2847
vn -0.1885 -0.8225 -0.5366
vn 0.7943 -0.1936 -0.5758
vn 0.7722 -0.2717 -0.5744
vn 0.8963 -0.0051 -0.4434
vn -0.9407 -0.0485 -0.3358
vn -0.8576 -0.4432 0.2611
vn -0.7950 -0.3270 0.5110
vn -0.7517 -0.6439 -0.1428
# 98 vertex normals

vt 0.7254 0.5925 0.0000
vt 0.6602 0.5925 0.0000
vt 0.5950 0.5925 0.0000
vt 0.5950 0.6470 0.0000
vt 0.6711 0.6470 0.0000
vt 0.7254 0.7403 0.0000
vt 0.1169 0.8843 0.0000
vt 0.2255 0.8182 0.0000
vt 0.2255 0.8843 0.0000
vt 0.2255 0.9505 0.0000
vt 0.1169 0.9894 0.0000
vt 0.1169 0.7831 0.0000
vt 0.0191 0.8182 0.0000
vt 0.0191 0.8843 0.0000
vt 0.9210 0.9933 0.0000
vt 0.9862 0.7053 0.0000
vt 0.9210 0.7053 0.0000
vt 0.8558 0.7053 0.0000
vt 0.8558 0.9933 0.0000
vt 0.9862 0.9933 0.0000
vt 0.0191 0.9505 0.0000
vt 0.2581 0.0011 0.0000
vt 0.5516 0.0011 0.0000
vt 0.2581 0.1995 0.0000
vt 0.5516 0.1995 0.0000
vt 0.9971 0.0011 0.0000
vt 0.9971 0.5536 0.0000
vt 0.6711 0.8843 0.0000
vt 0.8232 0.9855 0.0000
vt 0.8232 0.8843 0.0000
vt 0.8232 0.7793 0.0000
vt 0.6711 0.7793 0.0000
vt 0.6711 0.9855 0.0000
vt 0.2581 0.9855 0.0000
vt 0.3234 0.9543 0.0000
vt 0.2581 0.9232 0.0000
vt 0.5733 0.6586 0.0000
vt 0.6820 0.6003 0.0000
vt 0.8015 0.6586 0.0000
vt 0.6820 0.7170 0.0000
vt 0.5516 0.5536 0.0000
vt 0.0191 0.4524 0.0000
vt 0.2255 0.0167 0.0000
vt 0.0191 0.0167 0.0000
vt 0.2255 0.4524 0.0000
vt 0.0191 0.6081 0.0000
vt 0.2255 0.6081 0.0000
vt 0.0191 0.7131 0.0000
vt 0.6494 0.8921 0.0000
vt 0.3559 0.9699 0.0000
vt 0.2690 0.8065 0.0000
vt 0.6494 0.7831 0.0000
vt 0.4972 0.7131 0.0000
vt 0.4972 0.6081 0.0000
vt 0.2690 0.5847 0.0000
vt 0.4864 0.5847 0.0000
vt 0.4864 0.3163 0.0000
vt 0.2690 0.3163 0.0000
vt 0.4864 0.2384 0.0000
vt -0.7742 0.6042 0.0000
vt -0.9915 0.6042 0.0000
vt -0.8829 0.7131 0.0000
vt -0.5025 0.6042 0.0000
vt -0.5786 0.7131 0.0000
vt -0.6981 0.7870 0.0000
vt -0.5786 0.7520 0.0000
vt -0.5025 0.6859 0.0000
vt -0.4699 0.7676 0.0000
vt 1.7360 0.8999 0.0000
vt 1.7795 0.8999 0.0000
vt 1.7795 0.8532 0.0000
vt 1.7360 0.8532 0.0000
vt 1.7795 0.8065 0.0000
vt -0.4047 0.7403 0.0000
vt 0.6494 0.9699 0.0000
vt 1.4970 0.3007 0.0000
vt 1.4426 0.3746 0.0000
vt 1.4426 0.2423 0.0000
vt 1.4970 0.3746 0.0000
vt 1.7360 0.8065 0.0000
vt 1.7795 0.8843 0.0000
vt 1.7360 0.8843 0.0000
vt 1.5948 0.9154 0.0000
vt 1.6382 0.8376 0.0000
vt 1.5948 0.8376 0.0000
vt 1.6382 0.9154 0.0000
# 86 texture coords

o w00_013_00
g w00_013_00
usemtl Material__237
s 1
f 3/2/3 2/2/2 1/1/1 
f 2/2/2 3/2/3 4/2/4 
f 4/2/4 5/3/5 2/2/2 
f 5/3/5 4/2/4 6/4/6 
f 6/4/6 2/2/2 5/3/5 
f 2/2/2 6/4/6 7/5/7 
f 7/5/7 1/1/1 2/2/2 
f 1/1/1 7/5/7 8/6/8 
f 8/6/8 9/6/9 1/1/1 
f 9/6/9 8/6/8 10/5/10 
f 10/5/10 11/1/11 9/6/9 
f 11/1/11 10/5/10 4/2/4 
f 4/2/4 12/2/12 11/1/11 
f 12/2/12 4/2/4 3/2/3 
f 15/9/15 14/8/14 13/7/13 
f 13/7/13 16/10/16 15/9/15 
f 16/10/16 13/7/13 17/11/17 
f 17/11/17 18/9/18 16/10/16 
f 18/9/18 17/11/17 19/7/19 
f 19/7/19 14/8/14 18/9/18 
f 14/8/14 19/7/19 20/12/20 
f 20/12/20 13/7/13 14/8/14 
f 13/7/13 20/12/20 21/13/21 
f 21/13/21 22/14/22 13/7/13 
f 22/17/23 21/16/24 23/15/23 
f 23/15/23 24/18/25 22/17/23 
f 24/18/25 23/15/23 25/19/26 
f 25/19/26 26/17/27 24/18/25 
f 26/17/27 25/19/26 27/15/11 
f 27/15/11 21/16/24 26/17/27 
f 21/16/24 27/15/11 28/20/24 
f 28/20/24 23/15/23 21/16/24 
f 26/14/28 20/12/20 19/7/19 
f 19/7/19 24/21/29 26/14/28 
f 24/21/29 19/7/19 17/11/17 
f 17/11/17 22/14/22 24/21/29 
f 22/14/22 17/11/17 13/7/13 
f 31/24/23 30/23/23 29/22/23 
f 30/23/23 31/24/23 32/25/23 
f 32/25/23 33/26/23 30/23/23 
f 33/26/23 32/25/23 34/27/23 
f 37/26/19 36/27/19 35/25/19 
f 35/25/19 38/23/19 37/26/19 
f 38/23/19 35/25/19 39/24/19 
f 39/24/19 40/22/19 38/23/19 
f 43/30/19 42/29/17 41/28/19 
f 41/28/19 44/31/24 43/30/19 
f 44/31/24 41/28/19 45/32/24 
f 45/32/24 46/28/23 44/31/24 
f 47/33/17 41/28/19 42/29/17 
f 42/29/17 46/28/23 47/33/17 
f 46/28/23 42/29/17 48/30/23 
f 48/30/23 44/31/24 46/28/23 
f 6/4/6 4/2/4 10/5/10 
f 10/5/10 7/5/7 6/4/6 
f 7/5/7 10/5/10 8/6/8 
f 15/36/30 16/35/30 18/34/30 
f 18/34/30 14/35/30 15/36/30 
f 47/39/31 46/38/31 45/37/31 
f 45/37/31 41/40/31 47/39/31 
f 44/37/30 48/38/30 42/39/30 
f 42/39/30 43/40/30 44/37/30 
f 26/14/28 21/13/21 20/12/20 
f 32/25/23 49/41/23 34/27/23 
f 35/25/19 36/27/19 50/41/19 
f 11/1/11 1/1/1 9/6/9 
f 53/44/33 52/43/32 51/42/23 
f 51/42/23 54/43/34 53/44/33 
f 54/43/34 51/42/23 55/45/35 
f 55/45/35 56/44/36 54/43/34 
f 56/44/36 55/45/35 57/42/37 
f 57/42/37 52/43/32 56/44/36 
f 52/43/32 57/42/37 58/45/38 
f 58/45/38 51/42/23 52/43/32 
f 51/42/23 58/45/38 59/46/39 
f 59/46/39 55/45/35 51/42/23 
f 55/45/35 59/46/39 60/47/40 
f 60/47/40 61/46/41 55/45/35 
f 61/46/41 60/47/40 62/48/42 
f 65/51/45 64/50/44 63/49/43 
f 63/49/43 66/52/46 65/51/45 
f 66/52/46 63/49/43 67/51/47 
f 67/51/47 68/53/48 66/52/46 
f 68/53/48 67/51/47 62/48/42 
f 62/48/42 69/54/49 68/53/48 
f 69/54/49 62/48/42 60/47/40 
f 60/47/40 70/48/50 69/54/49 
f 70/48/50 60/47/40 59/46/39 
f 71/57/51 54/56/34 56/55/36 
f 56/55/36 72/58/52 71/57/51 
f 72/58/52 56/55/36 73/57/53 
f 73/57/53 74/59/31 72/58/52 
f 74/59/31 73/57/53 75/58/54 
f 75/58/54 71/57/51 74/59/31 
f 71/57/51 75/58/54 53/55/33 
f 53/55/33 54/56/34 71/57/51 
f 70/62/57 59/61/56 76/60/55 
f 76/60/55 77/63/58 70/62/57 
f 77/63/58 76/60/55 62/62/59 
f 62/62/59 78/64/60 77/63/58 
f 78/64/60 62/62/59 79/65/61 
f 79/65/61 80/66/62 78/64/60 
f 78/64/60 80/68/64 81/67/63 
f 81/67/63 77/63/58 78/64/60 
f 77/63/58 81/67/63 82/64/65 
f 82/64/65 70/62/57 77/63/58 
f 70/62/57 82/64/65 83/65/66 
f 76/47/67 59/46/39 58/45/38 
f 58/45/38 61/46/41 76/47/67 
f 61/46/41 58/45/38 57/42/37 
f 57/42/37 55/45/35 61/46/41 
f 65/71/70 70/70/69 84/69/68 
f 84/69/68 85/72/71 65/71/70 
f 85/72/71 84/69/68 67/71/72 
f 67/71/72 86/73/73 85/72/71 
f 87/68/74 82/64/65 81/67/63 
f 81/67/63 88/74/75 87/68/74 
f 88/74/75 81/67/63 80/68/64 
f 86/50/76 67/51/47 63/49/43 
f 63/49/43 89/75/77 86/50/76 
f 89/75/77 63/49/43 64/50/44 
f 89/78/80 64/77/79 90/76/78 
f 90/76/78 86/77/81 89/78/80 
f 86/77/81 90/76/78 91/79/30 
f 64/73/82 65/71/70 85/72/71 
f 85/72/71 91/80/83 64/73/82 
f 91/80/83 85/72/71 86/73/73 
f 92/82/86 79/81/85 84/72/84 
f 84/72/84 83/81/87 92/82/86 
f 83/81/87 84/72/84 70/71/88 
f 88/85/91 80/84/90 92/83/89 
f 92/83/89 87/84/92 88/85/91 
f 87/84/92 92/83/89 83/86/93 
f 65/51/45 66/52/46 68/53/48 
f 68/53/48 70/48/50 65/51/45 
f 70/48/50 68/53/48 69/54/49 
f 73/57/53 56/55/36 52/56/32 
f 52/56/32 75/58/54 73/57/53 
f 75/58/54 52/56/32 53/55/33 
f 83/65/66 82/64/65 87/66/94 
f 90/76/78 64/77/79 91/79/30 
f 79/81/85 62/71/95 84/72/84 
f 80/84/90 79/86/96 92/83/89 
f 61/61/97 62/62/59 76/60/55 
f 84/69/68 62/70/98 67/71/72 
f 71/57/51 72/58/52 74/59/31 
# 146 faces

