# 3ds Max Wavefront OBJ Exporter v0.97b - (c)2007 guruware
# File Created: 06.08.2019 17:03:16

mtllib Elucidator98f.mtl

#
# object w00_013_00
#

v  0.2549 0.4255 0.1012
v  0.2605 0.4226 0.0652
v  0.2461 0.4346 0.0738
v  0.2460 0.4059 0.0642
v  0.2345 0.4339 0.0060
v  0.2554 0.4164 -0.0065
v  0.2814 0.4052 0.0527
v  0.3377 0.3563 0.0516
v  0.3232 0.3396 0.0506
v  0.2669 0.3884 0.0517
v  0.2403 0.4087 0.1002
v  0.2316 0.4179 0.0728
v  0.0492 0.5456 0.1896
v  0.0522 0.5824 0.1805
v  0.0454 0.5627 0.1965
v  0.0629 0.5711 0.2142
v  0.0769 0.5588 0.2174
v  0.0697 0.5907 0.1981
v  0.0876 0.5897 0.1921
v  0.0599 0.5766 0.1643
v  0.0739 0.5643 0.1675
v  0.0671 0.5446 0.1835
v  0.2275 0.4107 0.0875
v  0.0846 0.5530 0.2012
v  0.2451 0.4190 0.1052
v  0.0914 0.5726 0.1851
v  0.2519 0.4387 0.0891
v  0.2343 0.4303 0.0715
v  0.2116 0.4368 -0.0018
v  0.2296 0.4179 0.0546
v  0.2527 0.4026 -0.0263
v  0.2707 0.3837 0.0301
v  0.2500 0.3966 0.1185
v  0.3656 0.3001 0.0494
v  0.2879 0.4035 0.0312
v  0.3828 0.3198 0.0505
v  0.2672 0.4163 0.1197
v  0.2468 0.4377 0.0558
v  0.2699 0.4223 -0.0252
v  0.2288 0.4566 -0.0006
v  0.2672 0.4382 0.0841
v  0.2443 0.4191 0.1159
v  0.2546 0.4487 0.0916
v  0.2281 0.4361 0.0650
v  0.2407 0.4256 0.0574
v  0.2304 0.3959 0.0817
v  0.2569 0.4086 0.1083
v  0.2178 0.4065 0.0892
v  0.3452 0.3214 -0.0145
v  0.3624 0.3412 -0.0134
v  0.3571 0.3127 0.0134
v  0.6162 0.1084 -0.1021
v  0.5998 0.1101 -0.1318
v  0.5975 0.1279 -0.1606
v  0.3548 0.3306 -0.0153
v  0.6139 0.1262 -0.1309
v  0.3711 0.3289 0.0144
v  0.3734 0.3110 0.0431
v  0.3247 0.3398 0.0328
v  0.3261 0.3551 -0.0072
v  0.3387 0.3559 0.0338
v  0.3203 0.3713 0.0448
v  0.2482 0.4236 -0.0228
v  0.2367 0.4240 0.0206
v  0.2733 0.3898 0.0138
v  0.2696 0.4053 -0.0273
v  0.2831 0.4011 0.0145
v  0.2926 0.3849 -0.0217
v  0.3105 0.3702 -0.0343
v  0.3063 0.3552 0.0438
v  0.8565 -0.0883 -0.3155
v  0.8728 -0.0900 -0.2858
v  0.8752 -0.1079 -0.2571
v  0.9408 -0.1607 -0.3312
v  0.8588 -0.1062 -0.2868
v  0.3496 0.3304 0.0664
v  0.3554 0.3230 0.1066
v  0.3334 0.3480 0.0992
v  0.3117 0.3670 0.1026
v  0.3227 0.3553 0.1114
v  0.3344 0.3411 0.1106
v  0.3281 0.3418 0.0989
v  0.3061 0.3605 0.1022
v  0.3057 0.3696 0.0488
v  0.2761 0.3967 0.0246
v  0.2438 0.4321 0.0211
v  0.3186 0.3506 0.1111
v  0.3213 0.3516 0.1263
v  0.2221 0.4471 -0.0362
v  0.2226 0.4450 -0.0075
v  0.2351 0.4319 0.0318
v  0.2994 0.3717 0.1086
# 92 vertices

vn -0.7059 -0.4590 -0.5394
vn -0.3523 -0.9246 0.1452
vn -0.0341 -0.6088 0.7926
vn 0.8434 0.3609 0.3979
vn 0.7536 -0.6490 -0.1047
vn -0.4157 0.3124 0.8542
vn -0.7552 -0.5075 0.4149
vn -0.6401 -0.3495 0.6842
vn 0.0386 0.8621 -0.5053
vn 0.3167 0.6708 0.6707
vn 0.5302 0.8114 -0.2461
vn 0.6682 0.3185 0.6724
vn -0.7539 -0.6440 -0.1300
vn -0.6334 0.5799 -0.5123
vn -0.9351 -0.2922 0.2005
vn -0.3240 -0.1235 0.9379
vn 0.2896 -0.3037 0.9077
vn 0.2173 0.8368 0.5026
vn 0.6554 0.7541 0.0432
vn -0.0610 0.3640 -0.9294
vn -0.0234 -0.2761 -0.9608
vn -0.0638 -0.9977 -0.0215
vn -0.6554 -0.7540 -0.0432
vn -0.2896 0.3037 -0.9077
vn 0.0675 -0.5265 0.8475
vn 0.4820 -0.0496 0.8748
vn 0.7133 0.6193 0.3280
vn 0.8249 0.3623 -0.4339
vn 0.7845 -0.3593 0.5055
vn -0.6976 0.5824 0.4174
vn 0.6976 -0.5824 -0.4174
vn 0.0070 -0.5769 0.8168
vn -0.6731 -0.7323 -0.1032
vn -0.5862 -0.1289 -0.7999
vn 0.0439 0.5627 -0.8255
vn 0.6409 0.7676 0.0001
vn 0.6731 0.7323 0.1032
vn 0.3320 -0.3390 0.8803
vn -0.6540 -0.7498 -0.1006
vn 0.0592 0.0057 -0.9982
vn 0.6546 0.7558 -0.0144
vn 0.6609 0.7390 -0.1307
vn -0.0505 0.1008 -0.9936
vn -0.6532 -0.7388 -0.1659
vn -0.6422 -0.7372 -0.2100
vn 0.0442 0.0188 -0.9988
vn 0.6501 0.7496 -0.1249
vn 0.0464 0.0168 -0.9988
vn 0.3157 -0.2216 -0.9226
vn -0.6299 -0.7461 -0.2157
vn -0.2191 0.2445 -0.9446
vn 0.6891 0.7243 0.0225
vn 0.6544 0.0696 0.7529
vn -0.6066 -0.7950 0.0007
vn 0.6579 -0.5980 0.4578
vn -0.5599 -0.8066 0.1897
vn -0.5610 -0.8264 0.0476
vn 0.5573 -0.5214 0.6462
vn 0.7351 0.6648 0.1330
vn 0.6948 0.6870 0.2127
vn 0.6647 0.7326 0.1466
vn 0.6647 0.7338 0.1402
vn 0.3230 -0.3315 0.8864
vn 0.7536 0.6030 0.2617
vn -0.5932 -0.7948 0.1279
vn -0.6388 -0.7670 0.0607
vn 0.4336 -0.4224 0.7960
vn -0.4397 0.3344 0.8336
vn -0.7775 -0.2344 0.5835
vn -0.7053 -0.4498 0.5479
vn -0.1241 0.0512 0.9909
vn 0.3142 0.7232 0.6150
vn 0.5811 0.5876 0.5630
vn -0.5046 -0.8446 0.1788
vn 0.4949 -0.4720 0.7296
vn 0.6476 0.7578 -0.0802
vn 0.2946 -0.2026 -0.9339
vn -0.7277 0.6152 0.3033
vn -0.8648 -0.4981 0.0632
vn -0.7551 0.6527 0.0622
vn 0.3669 0.9190 0.1443
vn -0.5308 -0.6917 0.4898
vn 0.0715 -0.1189 0.9903
vn -0.7546 0.6562 -0.0058
vn 0.1308 0.9909 0.0329
vn -0.7479 0.6559 -0.1022
vn -0.9628 -0.2674 -0.0392
vn -0.9992 -0.0406 -0.0003
vn -0.3374 0.2412 0.9099
vn 0.5127 0.7916 0.3325
vn -0.4105 0.3076 0.8584
vn -0.7290 -0.6370 0.2507
vn -0.7162 -0.6160 0.3280
vn -0.6396 -0.7668 0.0542
vn -0.1007 0.9932 0.0589
vn 0.4893 0.7711 0.4075
vn 0.7076 0.6517 0.2732
vn 0.0891 0.7627 0.6406
# 98 vertex normals

vt 0.7254 0.5925 0.0000
vt 0.6602 0.5925 0.0000
vt 0.5950 0.5925 0.0000
vt 0.5950 0.6470 0.0000
vt 0.6711 0.6470 0.0000
vt 0.7254 0.7403 0.0000
vt 0.1169 0.8843 0.0000
vt 0.2255 0.8182 0.0000
vt 0.2255 0.8843 0.0000
vt 0.2255 0.9505 0.0000
vt 0.1169 0.9894 0.0000
vt 0.1169 0.7831 0.0000
vt 0.0191 0.8182 0.0000
vt 0.0191 0.8843 0.0000
vt 0.9210 0.9933 0.0000
vt 0.9862 0.7053 0.0000
vt 0.9210 0.7053 0.0000
vt 0.8558 0.7053 0.0000
vt 0.8558 0.9933 0.0000
vt 0.9862 0.9933 0.0000
vt 0.0191 0.9505 0.0000
vt 0.2581 0.0011 0.0000
vt 0.5516 0.0011 0.0000
vt 0.2581 0.1995 0.0000
vt 0.5516 0.1995 0.0000
vt 0.9971 0.0011 0.0000
vt 0.9971 0.5536 0.0000
vt 0.6711 0.8843 0.0000
vt 0.8232 0.9855 0.0000
vt 0.8232 0.8843 0.0000
vt 0.8232 0.7793 0.0000
vt 0.6711 0.7793 0.0000
vt 0.6711 0.9855 0.0000
vt 0.2581 0.9855 0.0000
vt 0.3234 0.9543 0.0000
vt 0.2581 0.9232 0.0000
vt 0.5733 0.6586 0.0000
vt 0.6820 0.6003 0.0000
vt 0.8015 0.6586 0.0000
vt 0.6820 0.7170 0.0000
vt 0.5516 0.5536 0.0000
vt 0.0191 0.4524 0.0000
vt 0.2255 0.0167 0.0000
vt 0.0191 0.0167 0.0000
vt 0.2255 0.4524 0.0000
vt 0.0191 0.6081 0.0000
vt 0.2255 0.6081 0.0000
vt 0.0191 0.7131 0.0000
vt 0.6494 0.8921 0.0000
vt 0.3559 0.9699 0.0000
vt 0.2690 0.8065 0.0000
vt 0.6494 0.7831 0.0000
vt 0.4972 0.7131 0.0000
vt 0.4972 0.6081 0.0000
vt 0.2690 0.5847 0.0000
vt 0.4864 0.5847 0.0000
vt 0.4864 0.3163 0.0000
vt 0.2690 0.3163 0.0000
vt 0.4864 0.2384 0.0000
vt -0.7742 0.6042 0.0000
vt -0.9915 0.6042 0.0000
vt -0.8829 0.7131 0.0000
vt -0.5025 0.6042 0.0000
vt -0.5786 0.7131 0.0000
vt -0.6981 0.7870 0.0000
vt -0.5786 0.7520 0.0000
vt -0.5025 0.6859 0.0000
vt -0.4699 0.7676 0.0000
vt 1.7360 0.8999 0.0000
vt 1.7795 0.8999 0.0000
vt 1.7795 0.8532 0.0000
vt 1.7360 0.8532 0.0000
vt 1.7795 0.8065 0.0000
vt -0.4047 0.7403 0.0000
vt 0.6494 0.9699 0.0000
vt 1.4970 0.3007 0.0000
vt 1.4426 0.3746 0.0000
vt 1.4426 0.2423 0.0000
vt 1.4970 0.3746 0.0000
vt 1.7360 0.8065 0.0000
vt 1.7795 0.8843 0.0000
vt 1.7360 0.8843 0.0000
vt 1.5948 0.9154 0.0000
vt 1.6382 0.8376 0.0000
vt 1.5948 0.8376 0.0000
vt 1.6382 0.9154 0.0000
# 86 texture coords

o w00_013_00
g w00_013_00
usemtl Material__237
s 1
f 3/2/3 2/2/2 1/1/1 
f 2/2/2 3/2/3 4/2/4 
f 4/2/4 5/3/5 2/2/2 
f 5/3/5 4/2/4 6/4/6 
f 6/4/6 2/2/2 5/3/5 
f 2/2/2 6/4/6 7/5/7 
f 7/5/7 1/1/1 2/2/2 
f 1/1/1 7/5/7 8/6/8 
f 8/6/8 9/6/9 1/1/1 
f 9/6/9 8/6/8 10/5/10 
f 10/5/10 11/1/11 9/6/9 
f 11/1/11 10/5/10 4/2/4 
f 4/2/4 12/2/12 11/1/11 
f 12/2/12 4/2/4 3/2/3 
f 15/9/15 14/8/14 13/7/13 
f 13/7/13 16/10/16 15/9/15 
f 16/10/16 13/7/13 17/11/17 
f 17/11/17 18/9/18 16/10/16 
f 18/9/18 17/11/17 19/7/19 
f 19/7/19 14/8/14 18/9/18 
f 14/8/14 19/7/19 20/12/20 
f 20/12/20 13/7/13 14/8/14 
f 13/7/13 20/12/20 21/13/21 
f 21/13/21 22/14/22 13/7/13 
f 22/17/23 21/16/24 23/15/23 
f 23/15/23 24/18/25 22/17/23 
f 24/18/25 23/15/23 25/19/26 
f 25/19/26 26/17/27 24/18/25 
f 26/17/27 25/19/26 27/15/11 
f 27/15/11 21/16/24 26/17/27 
f 21/16/24 27/15/11 28/20/24 
f 28/20/24 23/15/23 21/16/24 
f 26/14/28 20/12/20 19/7/19 
f 19/7/19 24/21/29 26/14/28 
f 24/21/29 19/7/19 17/11/17 
f 17/11/17 22/14/22 24/21/29 
f 22/14/22 17/11/17 13/7/13 
f 31/24/23 30/23/23 29/22/23 
f 30/23/23 31/24/23 32/25/23 
f 32/25/23 33/26/23 30/23/23 
f 33/26/23 32/25/23 34/27/23 
f 37/26/19 36/27/19 35/25/19 
f 35/25/19 38/23/19 37/26/19 
f 38/23/19 35/25/19 39/24/19 
f 39/24/19 40/22/19 38/23/19 
f 43/30/19 42/29/17 41/28/19 
f 41/28/19 44/31/24 43/30/19 
f 44/31/24 41/28/19 45/32/24 
f 45/32/24 46/28/23 44/31/24 
f 47/33/17 41/28/19 42/29/17 
f 42/29/17 46/28/23 47/33/17 
f 46/28/23 42/29/17 48/30/23 
f 48/30/23 44/31/24 46/28/23 
f 6/4/6 4/2/4 10/5/10 
f 10/5/10 7/5/7 6/4/6 
f 7/5/7 10/5/10 8/6/8 
f 15/36/30 16/35/30 18/34/30 
f 18/34/30 14/35/30 15/36/30 
f 47/39/31 46/38/31 45/37/31 
f 45/37/31 41/40/31 47/39/31 
f 44/37/30 48/38/30 42/39/30 
f 42/39/30 43/40/30 44/37/30 
f 26/14/28 21/13/21 20/12/20 
f 32/25/23 49/41/23 34/27/23 
f 35/25/19 36/27/19 50/41/19 
f 11/1/11 1/1/1 9/6/9 
f 53/44/33 52/43/32 51/42/23 
f 51/42/23 54/43/34 53/44/33 
f 54/43/34 51/42/23 55/45/35 
f 55/45/35 56/44/36 54/43/34 
f 56/44/36 55/45/35 57/42/37 
f 57/42/37 52/43/32 56/44/36 
f 52/43/32 57/42/37 58/45/38 
f 58/45/38 51/42/23 52/43/32 
f 51/42/23 58/45/38 59/46/39 
f 59/46/39 55/45/35 51/42/23 
f 55/45/35 59/46/39 60/47/40 
f 60/47/40 61/46/41 55/45/35 
f 61/46/41 60/47/40 62/48/42 
f 65/51/45 64/50/44 63/49/43 
f 63/49/43 66/52/46 65/51/45 
f 66/52/46 63/49/43 67/51/47 
f 67/51/47 68/53/48 66/52/46 
f 68/53/48 67/51/47 62/48/42 
f 62/48/42 69/54/49 68/53/48 
f 69/54/49 62/48/42 60/47/40 
f 60/47/40 70/48/50 69/54/49 
f 70/48/50 60/47/40 59/46/39 
f 71/57/51 54/56/34 56/55/36 
f 56/55/36 72/58/52 71/57/51 
f 72/58/52 56/55/36 73/57/53 
f 73/57/53 74/59/31 72/58/52 
f 74/59/31 73/57/53 75/58/54 
f 75/58/54 71/57/51 74/59/31 
f 71/57/51 75/58/54 53/55/33 
f 53/55/33 54/56/34 71/57/51 
f 70/62/57 59/61/56 76/60/55 
f 76/60/55 77/63/58 70/62/57 
f 77/63/58 76/60/55 62/62/59 
f 62/62/59 78/64/60 77/63/58 
f 78/64/60 62/62/59 79/65/61 
f 79/65/61 80/66/62 78/64/60 
f 78/64/60 80/68/64 81/67/63 
f 81/67/63 77/63/58 78/64/60 
f 77/63/58 81/67/63 82/64/65 
f 82/64/65 70/62/57 77/63/58 
f 70/62/57 82/64/65 83/65/66 
f 76/47/67 59/46/39 58/45/38 
f 58/45/38 61/46/41 76/47/67 
f 61/46/41 58/45/38 57/42/37 
f 57/42/37 55/45/35 61/46/41 
f 65/71/70 70/70/69 84/69/68 
f 84/69/68 85/72/71 65/71/70 
f 85/72/71 84/69/68 67/71/72 
f 67/71/72 86/73/73 85/72/71 
f 87/68/74 82/64/65 81/67/63 
f 81/67/63 88/74/75 87/68/74 
f 88/74/75 81/67/63 80/68/64 
f 86/50/76 67/51/47 63/49/43 
f 63/49/43 89/75/77 86/50/76 
f 89/75/77 63/49/43 64/50/44 
f 89/78/80 64/77/79 90/76/78 
f 90/76/78 86/77/81 89/78/80 
f 86/77/81 90/76/78 91/79/30 
f 64/73/82 65/71/70 85/72/71 
f 85/72/71 91/80/83 64/73/82 
f 91/80/83 85/72/71 86/73/73 
f 92/82/86 79/81/85 84/72/84 
f 84/72/84 83/81/87 92/82/86 
f 83/81/87 84/72/84 70/71/88 
f 88/85/91 80/84/90 92/83/89 
f 92/83/89 87/84/92 88/85/91 
f 87/84/92 92/83/89 83/86/93 
f 65/51/45 66/52/46 68/53/48 
f 68/53/48 70/48/50 65/51/45 
f 70/48/50 68/53/48 69/54/49 
f 73/57/53 56/55/36 52/56/32 
f 52/56/32 75/58/54 73/57/53 
f 75/58/54 52/56/32 53/55/33 
f 83/65/66 82/64/65 87/66/94 
f 90/76/78 64/77/79 91/79/30 
f 79/81/85 62/71/95 84/72/84 
f 80/84/90 79/86/96 92/83/89 
f 61/61/97 62/62/59 76/60/55 
f 84/69/68 62/70/98 67/71/72 
f 71/57/51 72/58/52 74/59/31 
# 146 faces

