# 3ds Max Wavefront OBJ Exporter v0.97b - (c)2007 guruware
# File Created: 06.08.2019 17:02:34

mtllib Elucidator32f.mtl

#
# object w00_013_00
#

v  0.0009 0.5586 0.3859
v  0.0277 0.5580 0.3611
v  0.0085 0.5644 0.3573
v  0.0219 0.5373 0.3554
v  0.0411 0.5601 0.2969
v  0.0690 0.5508 0.3025
v  0.0556 0.5487 0.3666
v  0.1116 0.5216 0.4078
v  0.1059 0.5010 0.4021
v  0.0499 0.5280 0.3609
v  -0.0049 0.5379 0.3802
v  0.0027 0.5438 0.3516
v  -0.2390 0.6020 0.3145
v  -0.2412 0.6376 0.3015
v  -0.2507 0.6167 0.3143
v  -0.2506 0.6304 0.3367
v  -0.2388 0.6235 0.3497
v  -0.2411 0.6513 0.3239
v  -0.2238 0.6564 0.3295
v  -0.2241 0.6348 0.2943
v  -0.2122 0.6279 0.3073
v  -0.2217 0.6071 0.3201
v  -0.0073 0.5355 0.3624
v  -0.2216 0.6208 0.3425
v  -0.0071 0.5492 0.3848
v  -0.2121 0.6416 0.3296
v  0.0024 0.5701 0.3720
v  0.0022 0.5564 0.3496
v  0.0279 0.5552 0.2771
v  0.0123 0.5432 0.3360
v  0.0827 0.5369 0.2879
v  0.0671 0.5249 0.3469
v  -0.0054 0.5297 0.4028
v  0.1490 0.4781 0.4333
v  0.0739 0.5493 0.3536
v  0.1559 0.5025 0.4401
v  0.0014 0.5541 0.4096
v  0.0191 0.5676 0.3428
v  0.0895 0.5613 0.2947
v  0.0347 0.5796 0.2839
v  0.0170 0.5748 0.3769
v  -0.0142 0.5490 0.3929
v  0.0001 0.5804 0.3735
v  -0.0001 0.5597 0.3397
v  0.0167 0.5541 0.3430
v  0.0024 0.5226 0.3624
v  0.0026 0.5433 0.3962
v  -0.0144 0.5283 0.3591
v  0.1668 0.4917 0.3665
v  0.1736 0.5161 0.3733
v  0.1610 0.4874 0.3973
v  0.4802 0.3829 0.4947
v  0.4855 0.3791 0.4614
v  0.4964 0.3953 0.4337
v  0.1719 0.5035 0.3696
v  0.4910 0.3990 0.4669
v  0.1666 0.5073 0.4028
v  0.1557 0.4911 0.4306
v  0.1177 0.5018 0.3888
v  0.1389 0.5168 0.3547
v  0.1232 0.5217 0.3943
v  0.0987 0.5299 0.3894
v  0.0716 0.5552 0.2839
v  0.0366 0.5515 0.3118
v  0.0773 0.5317 0.3342
v  0.0953 0.5452 0.2963
v  0.0811 0.5456 0.3381
v  0.1146 0.5338 0.3180
v  0.1396 0.5259 0.3212
v  0.0931 0.5100 0.3839
v  0.8425 0.2798 0.5021
v  0.8372 0.2835 0.5353
v  0.8263 0.2674 0.5631
v  0.9347 0.2401 0.5524
v  0.8317 0.2636 0.5298
v  0.1185 0.5012 0.4316
v  0.1005 0.4960 0.4684
v  0.0818 0.5121 0.4449
v  0.0584 0.5227 0.4313
v  0.0644 0.5154 0.4470
v  0.0774 0.5059 0.4559
v  0.0797 0.5046 0.4429
v  0.0561 0.5147 0.4291
v  0.0857 0.5234 0.3847
v  0.0710 0.5390 0.3430
v  0.0393 0.5615 0.3146
v  0.0628 0.5096 0.4454
v  0.0553 0.5113 0.4588
v  0.0538 0.5686 0.2536
v  0.0373 0.5666 0.2772
v  0.0265 0.5583 0.3182
v  0.0442 0.5229 0.4281
# 92 vertices

vn -0.0764 -0.6676 -0.7406
vn -0.1010 -0.9899 0.0998
vn -0.3411 -0.5884 0.7331
vn 0.2916 0.6224 0.7264
vn 0.8027 -0.3563 0.4783
vn -0.9133 0.1499 0.3787
vn -0.6787 -0.7344 -0.0001
vn -0.7987 -0.5481 0.2482
vn 0.1017 0.8269 -0.5530
vn -0.3516 0.7351 0.5797
vn 0.3258 0.9438 -0.0554
vn 0.0056 0.5220 0.8529
vn -0.3104 -0.8599 -0.4053
vn -0.3200 0.3347 -0.8863
vn -0.7416 -0.5914 -0.3167
vn -0.7775 -0.2300 0.5853
vn -0.2516 -0.1925 0.9485
vn -0.3690 0.8587 0.3558
vn 0.2596 0.9307 0.2577
vn 0.4193 0.3265 -0.8471
vn 0.6399 -0.2633 -0.7219
vn 0.2356 -0.9607 0.1469
vn -0.2596 -0.9307 -0.2577
vn 0.2516 0.1925 -0.9485
vn -0.3208 -0.4769 0.8183
vn -0.1566 0.1117 0.9813
vn 0.1667 0.8221 0.5445
vn 0.7817 0.6213 0.0540
vn 0.3774 -0.0761 0.9229
vn -0.9324 0.3111 -0.1842
vn 0.9324 -0.3111 0.1842
vn -0.3337 -0.5446 0.7695
vn -0.2423 -0.9159 -0.3200
vn 0.0816 -0.3152 -0.9455
vn 0.3810 0.5484 -0.7444
vn 0.2712 0.9388 0.2125
vn 0.2423 0.9159 0.3200
vn -0.1937 -0.2113 0.9580
vn -0.2249 -0.9259 -0.3035
vn 0.6479 0.0301 -0.7611
vn 0.2934 0.9324 0.2112
vn 0.3732 0.9192 0.1257
vn 0.5374 0.0825 -0.8393
vn -0.1877 -0.9150 -0.3571
vn -0.1531 -0.9096 -0.3862
vn 0.6336 0.0373 -0.7728
vn 0.3587 0.9255 0.1220
vn 0.6358 0.0362 -0.7710
vn 0.8555 -0.0978 -0.5085
vn -0.1380 -0.9138 -0.3820
vn 0.3427 0.1607 -0.9256
vn 0.3055 0.9141 0.2665
vn 0.0139 0.2826 0.9591
vn -0.2386 -0.9530 -0.1868
vn 0.3763 -0.3433 0.8606
vn -0.3152 -0.9490 -0.0073
vn -0.2245 -0.9674 -0.1170
vn 0.1661 -0.3059 0.9374
vn 0.2889 0.8731 0.3927
vn 0.2044 0.8801 0.4286
vn 0.2096 0.9132 0.3496
vn 0.2133 0.9143 0.3443
vn -0.2061 -0.2073 0.9563
vn 0.2414 0.8206 0.5181
vn -0.3057 -0.9489 -0.0779
vn -0.3066 -0.9378 -0.1630
vn -0.0440 -0.2552 0.9659
vn -0.9247 0.1626 0.3441
vn -0.8716 -0.4857 0.0663
vn -0.7377 -0.6639 0.1226
vn -0.7075 0.0016 0.7067
vn -0.3339 0.7839 0.5235
vn -0.0661 0.7465 0.6621
vn -0.2570 -0.9661 0.0233
vn 0.0555 -0.2808 0.9582
vn 0.3275 0.9321 0.1544
vn 0.8414 -0.0870 -0.5334
vn -0.8946 0.3323 -0.2988
vn -0.5499 -0.7609 -0.3444
vn -0.7790 0.3595 -0.5137
vn -0.0621 0.9882 0.1400
vn -0.5065 -0.8324 0.2248
vn -0.5148 -0.0925 0.8523
vn -0.7384 0.3633 -0.5681
vn -0.1905 0.9768 -0.0982
vn -0.6748 0.3657 -0.6410
vn -0.6237 -0.5762 -0.5282
vn -0.7359 -0.3752 -0.5637
vn -0.8693 0.1090 0.4821
vn -0.0327 0.9165 0.3986
vn -0.9107 0.1471 0.3860
vn -0.5245 -0.8467 -0.0897
vn -0.5675 -0.8230 -0.0251
vn -0.3033 -0.9378 -0.1687
vn -0.3800 0.9007 -0.2104
vn -0.0901 0.8890 0.4490
vn 0.1868 0.8508 0.4911
vn -0.5284 0.7450 0.4071
# 98 vertex normals

vt 0.7254 0.5925 0.0000
vt 0.6602 0.5925 0.0000
vt 0.5950 0.5925 0.0000
vt 0.5950 0.6470 0.0000
vt 0.6711 0.6470 0.0000
vt 0.7254 0.7403 0.0000
vt 0.1169 0.8843 0.0000
vt 0.2255 0.8182 0.0000
vt 0.2255 0.8843 0.0000
vt 0.2255 0.9505 0.0000
vt 0.1169 0.9894 0.0000
vt 0.1169 0.7831 0.0000
vt 0.0191 0.8182 0.0000
vt 0.0191 0.8843 0.0000
vt 0.9210 0.9933 0.0000
vt 0.9862 0.7053 0.0000
vt 0.9210 0.7053 0.0000
vt 0.8558 0.7053 0.0000
vt 0.8558 0.9933 0.0000
vt 0.9862 0.9933 0.0000
vt 0.0191 0.9505 0.0000
vt 0.2581 0.0011 0.0000
vt 0.5516 0.0011 0.0000
vt 0.2581 0.1995 0.0000
vt 0.5516 0.1995 0.0000
vt 0.9971 0.0011 0.0000
vt 0.9971 0.5536 0.0000
vt 0.6711 0.8843 0.0000
vt 0.8232 0.9855 0.0000
vt 0.8232 0.8843 0.0000
vt 0.8232 0.7793 0.0000
vt 0.6711 0.7793 0.0000
vt 0.6711 0.9855 0.0000
vt 0.2581 0.9855 0.0000
vt 0.3234 0.9543 0.0000
vt 0.2581 0.9232 0.0000
vt 0.5733 0.6586 0.0000
vt 0.6820 0.6003 0.0000
vt 0.8015 0.6586 0.0000
vt 0.6820 0.7170 0.0000
vt 0.5516 0.5536 0.0000
vt 0.0191 0.4524 0.0000
vt 0.2255 0.0167 0.0000
vt 0.0191 0.0167 0.0000
vt 0.2255 0.4524 0.0000
vt 0.0191 0.6081 0.0000
vt 0.2255 0.6081 0.0000
vt 0.0191 0.7131 0.0000
vt 0.6494 0.8921 0.0000
vt 0.3559 0.9699 0.0000
vt 0.2690 0.8065 0.0000
vt 0.6494 0.7831 0.0000
vt 0.4972 0.7131 0.0000
vt 0.4972 0.6081 0.0000
vt 0.2690 0.5847 0.0000
vt 0.4864 0.5847 0.0000
vt 0.4864 0.3163 0.0000
vt 0.2690 0.3163 0.0000
vt 0.4864 0.2384 0.0000
vt -0.7742 0.6042 0.0000
vt -0.9915 0.6042 0.0000
vt -0.8829 0.7131 0.0000
vt -0.5025 0.6042 0.0000
vt -0.5786 0.7131 0.0000
vt -0.6981 0.7870 0.0000
vt -0.5786 0.7520 0.0000
vt -0.5025 0.6859 0.0000
vt -0.4699 0.7676 0.0000
vt 1.7360 0.8999 0.0000
vt 1.7795 0.8999 0.0000
vt 1.7795 0.8532 0.0000
vt 1.7360 0.8532 0.0000
vt 1.7795 0.8065 0.0000
vt -0.4047 0.7403 0.0000
vt 0.6494 0.9699 0.0000
vt 1.4970 0.3007 0.0000
vt 1.4426 0.3746 0.0000
vt 1.4426 0.2423 0.0000
vt 1.4970 0.3746 0.0000
vt 1.7360 0.8065 0.0000
vt 1.7795 0.8843 0.0000
vt 1.7360 0.8843 0.0000
vt 1.5948 0.9154 0.0000
vt 1.6382 0.8376 0.0000
vt 1.5948 0.8376 0.0000
vt 1.6382 0.9154 0.0000
# 86 texture coords

o w00_013_00
g w00_013_00
usemtl Material__237
s 1
f 3/2/3 2/2/2 1/1/1 
f 2/2/2 3/2/3 4/2/4 
f 4/2/4 5/3/5 2/2/2 
f 5/3/5 4/2/4 6/4/6 
f 6/4/6 2/2/2 5/3/5 
f 2/2/2 6/4/6 7/5/7 
f 7/5/7 1/1/1 2/2/2 
f 1/1/1 7/5/7 8/6/8 
f 8/6/8 9/6/9 1/1/1 
f 9/6/9 8/6/8 10/5/10 
f 10/5/10 11/1/11 9/6/9 
f 11/1/11 10/5/10 4/2/4 
f 4/2/4 12/2/12 11/1/11 
f 12/2/12 4/2/4 3/2/3 
f 15/9/15 14/8/14 13/7/13 
f 13/7/13 16/10/16 15/9/15 
f 16/10/16 13/7/13 17/11/17 
f 17/11/17 18/9/18 16/10/16 
f 18/9/18 17/11/17 19/7/19 
f 19/7/19 14/8/14 18/9/18 
f 14/8/14 19/7/19 20/12/20 
f 20/12/20 13/7/13 14/8/14 
f 13/7/13 20/12/20 21/13/21 
f 21/13/21 22/14/22 13/7/13 
f 22/17/23 21/16/24 23/15/23 
f 23/15/23 24/18/25 22/17/23 
f 24/18/25 23/15/23 25/19/26 
f 25/19/26 26/17/27 24/18/25 
f 26/17/27 25/19/26 27/15/11 
f 27/15/11 21/16/24 26/17/27 
f 21/16/24 27/15/11 28/20/24 
f 28/20/24 23/15/23 21/16/24 
f 26/14/28 20/12/20 19/7/19 
f 19/7/19 24/21/29 26/14/28 
f 24/21/29 19/7/19 17/11/17 
f 17/11/17 22/14/22 24/21/29 
f 22/14/22 17/11/17 13/7/13 
f 31/24/23 30/23/23 29/22/23 
f 30/23/23 31/24/23 32/25/23 
f 32/25/23 33/26/23 30/23/23 
f 33/26/23 32/25/23 34/27/23 
f 37/26/19 36/27/19 35/25/19 
f 35/25/19 38/23/19 37/26/19 
f 38/23/19 35/25/19 39/24/19 
f 39/24/19 40/22/19 38/23/19 
f 43/30/19 42/29/17 41/28/19 
f 41/28/19 44/31/24 43/30/19 
f 44/31/24 41/28/19 45/32/24 
f 45/32/24 46/28/23 44/31/24 
f 47/33/17 41/28/19 42/29/17 
f 42/29/17 46/28/23 47/33/17 
f 46/28/23 42/29/17 48/30/23 
f 48/30/23 44/31/24 46/28/23 
f 6/4/6 4/2/4 10/5/10 
f 10/5/10 7/5/7 6/4/6 
f 7/5/7 10/5/10 8/6/8 
f 15/36/30 16/35/30 18/34/30 
f 18/34/30 14/35/30 15/36/30 
f 47/39/31 46/38/31 45/37/31 
f 45/37/31 41/40/31 47/39/31 
f 44/37/30 48/38/30 42/39/30 
f 42/39/30 43/40/30 44/37/30 
f 26/14/28 21/13/21 20/12/20 
f 32/25/23 49/41/23 34/27/23 
f 35/25/19 36/27/19 50/41/19 
f 11/1/11 1/1/1 9/6/9 
f 53/44/33 52/43/32 51/42/23 
f 51/42/23 54/43/34 53/44/33 
f 54/43/34 51/42/23 55/45/35 
f 55/45/35 56/44/36 54/43/34 
f 56/44/36 55/45/35 57/42/37 
f 57/42/37 52/43/32 56/44/36 
f 52/43/32 57/42/37 58/45/38 
f 58/45/38 51/42/23 52/43/32 
f 51/42/23 58/45/38 59/46/39 
f 59/46/39 55/45/35 51/42/23 
f 55/45/35 59/46/39 60/47/40 
f 60/47/40 61/46/41 55/45/35 
f 61/46/41 60/47/40 62/48/42 
f 65/51/45 64/50/44 63/49/43 
f 63/49/43 66/52/46 65/51/45 
f 66/52/46 63/49/43 67/51/47 
f 67/51/47 68/53/48 66/52/46 
f 68/53/48 67/51/47 62/48/42 
f 62/48/42 69/54/49 68/53/48 
f 69/54/49 62/48/42 60/47/40 
f 60/47/40 70/48/50 69/54/49 
f 70/48/50 60/47/40 59/46/39 
f 71/57/51 54/56/34 56/55/36 
f 56/55/36 72/58/52 71/57/51 
f 72/58/52 56/55/36 73/57/53 
f 73/57/53 74/59/31 72/58/52 
f 74/59/31 73/57/53 75/58/54 
f 75/58/54 71/57/51 74/59/31 
f 71/57/51 75/58/54 53/55/33 
f 53/55/33 54/56/34 71/57/51 
f 70/62/57 59/61/56 76/60/55 
f 76/60/55 77/63/58 70/62/57 
f 77/63/58 76/60/55 62/62/59 
f 62/62/59 78/64/60 77/63/58 
f 78/64/60 62/62/59 79/65/61 
f 79/65/61 80/66/62 78/64/60 
f 78/64/60 80/68/64 81/67/63 
f 81/67/63 77/63/58 78/64/60 
f 77/63/58 81/67/63 82/64/65 
f 82/64/65 70/62/57 77/63/58 
f 70/62/57 82/64/65 83/65/66 
f 76/47/67 59/46/39 58/45/38 
f 58/45/38 61/46/41 76/47/67 
f 61/46/41 58/45/38 57/42/37 
f 57/42/37 55/45/35 61/46/41 
f 65/71/70 70/70/69 84/69/68 
f 84/69/68 85/72/71 65/71/70 
f 85/72/71 84/69/68 67/71/72 
f 67/71/72 86/73/73 85/72/71 
f 87/68/74 82/64/65 81/67/63 
f 81/67/63 88/74/75 87/68/74 
f 88/74/75 81/67/63 80/68/64 
f 86/50/76 67/51/47 63/49/43 
f 63/49/43 89/75/77 86/50/76 
f 89/75/77 63/49/43 64/50/44 
f 89/78/80 64/77/79 90/76/78 
f 90/76/78 86/77/81 89/78/80 
f 86/77/81 90/76/78 91/79/30 
f 64/73/82 65/71/70 85/72/71 
f 85/72/71 91/80/83 64/73/82 
f 91/80/83 85/72/71 86/73/73 
f 92/82/86 79/81/85 84/72/84 
f 84/72/84 83/81/87 92/82/86 
f 83/81/87 84/72/84 70/71/88 
f 88/85/91 80/84/90 92/83/89 
f 92/83/89 87/84/92 88/85/91 
f 87/84/92 92/83/89 83/86/93 
f 65/51/45 66/52/46 68/53/48 
f 68/53/48 70/48/50 65/51/45 
f 70/48/50 68/53/48 69/54/49 
f 73/57/53 56/55/36 52/56/32 
f 52/56/32 75/58/54 73/57/53 
f 75/58/54 52/56/32 53/55/33 
f 83/65/66 82/64/65 87/66/94 
f 90/76/78 64/77/79 91/79/30 
f 79/81/85 62/71/95 84/72/84 
f 80/84/90 79/86/96 92/83/89 
f 61/61/97 62/62/59 76/60/55 
f 84/69/68 62/70/98 67/71/72 
f 71/57/51 72/58/52 74/59/31 
# 146 faces

