# 3ds Max Wavefront OBJ Exporter v0.97b - (c)2007 guruware
# File Created: 06.08.2019 17:02:26

mtllib Elucidator15f.mtl

#
# object w00_013_00
#

v  0.2790 1.0325 -0.0485
v  0.2430 1.0272 -0.0450
v  0.2542 1.0205 -0.0609
v  0.2392 1.0462 -0.0558
v  0.1880 1.0110 -0.0769
v  0.1717 1.0208 -0.0538
v  0.2267 1.0371 -0.0218
v  0.2142 1.0715 0.0432
v  0.2104 1.0905 0.0324
v  0.2228 1.0561 -0.0326
v  0.2751 1.0515 -0.0593
v  0.2504 1.0395 -0.0717
v  0.3955 0.9787 -0.2677
v  0.3938 0.9411 -0.2731
v  0.4058 0.9644 -0.2746
v  0.4242 0.9559 -0.2579
v  0.4245 0.9653 -0.2415
v  0.4122 0.9326 -0.2565
v  0.4056 0.9286 -0.2393
v  0.3765 0.9420 -0.2655
v  0.3768 0.9513 -0.2491
v  0.3888 0.9746 -0.2506
v  0.2635 1.0501 -0.0731
v  0.4073 0.9661 -0.2339
v  0.2819 1.0415 -0.0564
v  0.3952 0.9428 -0.2325
v  0.2699 1.0183 -0.0550
v  0.2515 1.0268 -0.0717
v  0.1817 1.0117 -0.1003
v  0.2326 1.0365 -0.0749
v  0.1496 1.0310 -0.0550
v  0.2006 1.0557 -0.0295
v  0.2904 1.0645 -0.0460
v  0.2001 1.1188 0.0819
v  0.2051 1.0333 -0.0167
v  0.2046 1.0963 0.0946
v  0.2949 1.0420 -0.0332
v  0.2372 1.0140 -0.0621
v  0.1541 1.0085 -0.0422
v  0.1862 0.9892 -0.0876
v  0.2644 1.0144 -0.0404
v  0.2924 1.0437 -0.0564
v  0.2743 1.0085 -0.0543
v  0.2464 1.0213 -0.0794
v  0.2366 1.0273 -0.0655
v  0.2548 1.0624 -0.0676
v  0.2826 1.0496 -0.0425
v  0.2646 1.0565 -0.0815
v  0.1423 1.0908 0.0530
v  0.1469 1.0683 0.0658
v  0.1677 1.1018 0.0684
v  0.0063 1.2196 0.3553
v  -0.0220 1.2159 0.3369
v  -0.0465 1.1939 0.3289
v  0.1431 1.0798 0.0604
v  -0.0183 1.1976 0.3473
v  0.1714 1.0835 0.0788
v  0.1959 1.1054 0.0868
v  0.1930 1.0865 0.0325
v  0.1568 1.0641 0.0279
v  0.1967 1.0682 0.0429
v  0.2111 1.0596 0.0226
v  0.1574 1.0125 -0.0634
v  0.2003 1.0227 -0.0716
v  0.1858 1.0462 -0.0293
v  0.1487 1.0245 -0.0390
v  0.1884 1.0335 -0.0221
v  0.1495 1.0401 -0.0120
v  0.1337 1.0480 0.0076
v  0.2074 1.0779 0.0122
v  -0.2489 1.3157 0.6154
v  -0.2206 1.3193 0.6338
v  -0.1960 1.3413 0.6418
v  -0.2810 1.3637 0.7116
v  -0.2243 1.3376 0.6234
v  0.2233 1.0964 0.0611
v  0.2610 1.1098 0.0713
v  0.2594 1.0893 0.0441
v  0.2671 1.0764 0.0192
v  0.2731 1.0868 0.0330
v  0.2692 1.0978 0.0473
v  0.2580 1.0963 0.0401
v  0.2656 1.0838 0.0150
v  0.2151 1.0652 0.0090
v  0.1977 1.0411 -0.0272
v  0.2021 1.0135 -0.0664
v  0.2720 1.0922 0.0299
v  0.2870 1.0935 0.0334
v  0.1497 0.9931 -0.0948
v  0.1774 1.0004 -0.0918
v  0.2129 1.0176 -0.0740
v  0.2743 1.0758 0.0066
# 92 vertices

vn -0.5989 0.4919 -0.6319
vn -0.0309 0.9895 -0.1415
vn 0.6566 0.7393 0.1495
vn 0.4367 -0.4545 0.7763
vn -0.2535 0.4382 0.8624
vn 0.9110 -0.0486 -0.4095
vn 0.3279 0.7282 -0.6019
vn 0.6197 0.6023 -0.5032
vn -0.3251 -0.9289 -0.1773
vn 0.7809 -0.5855 0.2175
vn -0.0955 -0.9386 0.3314
vn 0.7023 -0.3242 0.6337
vn -0.2331 0.7564 -0.6112
vn -0.3682 -0.5139 -0.7748
vn 0.1659 0.5209 -0.8374
vn 0.9038 0.3647 -0.2237
vn 0.8205 0.3982 0.4102
vn 0.6521 -0.7545 0.0741
vn 0.1728 -0.8567 0.4860
vn -0.8364 -0.5098 -0.2013
vn -0.9954 0.0893 -0.0340
vn -0.2172 0.9656 0.1433
vn -0.1728 0.8567 -0.4860
vn -0.8205 -0.3982 -0.4102
vn 0.7237 0.6487 0.2355
vn 0.8330 0.1068 0.5429
vn 0.4234 -0.6868 0.5908
vn -0.3774 -0.6078 0.6987
vn 0.4008 0.2684 0.8759
vn 0.5450 -0.3279 -0.7717
vn -0.5450 0.3279 0.7717
vn 0.6854 0.7043 0.1848
vn -0.2268 0.8284 -0.5122
vn -0.7920 0.1008 -0.6021
vn -0.6983 -0.7034 -0.1327
vn 0.1337 -0.8746 0.4660
vn 0.2268 -0.8284 0.5122
vn 0.7853 0.4176 0.4570
vn -0.2282 0.8415 -0.4897
vn -0.9785 -0.2056 -0.0146
vn 0.1168 -0.8690 0.4808
vn -0.0007 -0.8761 0.4822
vn -0.9519 -0.2720 -0.1410
vn -0.2900 0.8186 -0.4958
vn -0.3332 0.8064 -0.4885
vn -0.9761 -0.2150 -0.0319
vn 0.0074 -0.8828 0.4698
vn -0.9765 -0.2136 -0.0293
vn -0.9571 -0.0295 0.2883
vn -0.3410 0.8112 -0.4751
vn -0.8704 -0.3638 -0.3318
vn 0.1456 -0.8394 0.5237
vn 0.7322 -0.0677 0.6777
vn -0.1394 0.8935 -0.4269
vn 0.3105 0.5157 0.7985
vn 0.0422 0.9299 -0.3653
vn -0.1010 0.9225 -0.3725
vn 0.5132 0.4995 0.6980
vn 0.2407 -0.7717 0.5887
vn 0.3244 -0.7693 0.5505
vn 0.2695 -0.8188 0.5069
vn 0.2635 -0.8211 0.5063
vn 0.7931 0.4136 0.4471
vn 0.3540 -0.6924 0.6287
vn -0.0151 0.9143 -0.4047
vn -0.0741 0.8850 -0.4597
vn 0.6832 0.4597 0.5674
vn 0.8959 -0.0684 -0.4390
vn 0.5479 0.5031 -0.6684
vn 0.4681 0.6870 -0.5558
vn 0.9846 0.1639 -0.0611
vn 0.7369 -0.6457 0.2003
vn 0.6512 -0.5836 0.4851
vn 0.0223 0.9523 -0.3043
vn 0.6065 0.4813 0.6328
vn 0.0529 -0.8817 0.4689
vn -0.9638 -0.0452 0.2629
vn 0.4406 -0.3741 -0.8160
vn -0.0116 0.6770 -0.7359
vn 0.2126 -0.4494 -0.8677
vn 0.3131 -0.9330 0.1776
vn 0.3581 0.8698 -0.3394
vn 0.9445 0.2841 0.1650
vn 0.1467 -0.4656 -0.8728
vn 0.2250 -0.9714 -0.0757
vn 0.0520 -0.4848 -0.8731
vn -0.0632 0.4581 -0.8867
vn 0.0209 0.2561 -0.9664
vn 0.9492 0.0131 -0.3144
vn 0.4678 -0.8073 0.3597
vn 0.9141 -0.0444 -0.4031
vn 0.1405 0.8157 -0.5611
vn 0.2201 0.8073 -0.5476
vn -0.0803 0.8838 -0.4610
vn 0.2578 -0.9184 -0.3001
vn 0.5379 -0.7685 0.3464
vn 0.3763 -0.7268 0.5746
vn 0.7764 -0.6298 -0.0257
# 98 vertex normals

vt 0.7254 0.5925 0.0000
vt 0.6602 0.5925 0.0000
vt 0.5950 0.5925 0.0000
vt 0.5950 0.6470 0.0000
vt 0.6711 0.6470 0.0000
vt 0.7254 0.7403 0.0000
vt 0.1169 0.8843 0.0000
vt 0.2255 0.8182 0.0000
vt 0.2255 0.8843 0.0000
vt 0.2255 0.9505 0.0000
vt 0.1169 0.9894 0.0000
vt 0.1169 0.7831 0.0000
vt 0.0191 0.8182 0.0000
vt 0.0191 0.8843 0.0000
vt 0.9210 0.9933 0.0000
vt 0.9862 0.7053 0.0000
vt 0.9210 0.7053 0.0000
vt 0.8558 0.7053 0.0000
vt 0.8558 0.9933 0.0000
vt 0.9862 0.9933 0.0000
vt 0.0191 0.9505 0.0000
vt 0.2581 0.0011 0.0000
vt 0.5516 0.0011 0.0000
vt 0.2581 0.1995 0.0000
vt 0.5516 0.1995 0.0000
vt 0.9971 0.0011 0.0000
vt 0.9971 0.5536 0.0000
vt 0.6711 0.8843 0.0000
vt 0.8232 0.9855 0.0000
vt 0.8232 0.8843 0.0000
vt 0.8232 0.7793 0.0000
vt 0.6711 0.7793 0.0000
vt 0.6711 0.9855 0.0000
vt 0.2581 0.9855 0.0000
vt 0.3234 0.9543 0.0000
vt 0.2581 0.9232 0.0000
vt 0.5733 0.6586 0.0000
vt 0.6820 0.6003 0.0000
vt 0.8015 0.6586 0.0000
vt 0.6820 0.7170 0.0000
vt 0.5516 0.5536 0.0000
vt 0.0191 0.4524 0.0000
vt 0.2255 0.0167 0.0000
vt 0.0191 0.0167 0.0000
vt 0.2255 0.4524 0.0000
vt 0.0191 0.6081 0.0000
vt 0.2255 0.6081 0.0000
vt 0.0191 0.7131 0.0000
vt 0.6494 0.8921 0.0000
vt 0.3559 0.9699 0.0000
vt 0.2690 0.8065 0.0000
vt 0.6494 0.7831 0.0000
vt 0.4972 0.7131 0.0000
vt 0.4972 0.6081 0.0000
vt 0.2690 0.5847 0.0000
vt 0.4864 0.5847 0.0000
vt 0.4864 0.3163 0.0000
vt 0.2690 0.3163 0.0000
vt 0.4864 0.2384 0.0000
vt -0.7742 0.6042 0.0000
vt -0.9915 0.6042 0.0000
vt -0.8829 0.7131 0.0000
vt -0.5025 0.6042 0.0000
vt -0.5786 0.7131 0.0000
vt -0.6981 0.7870 0.0000
vt -0.5786 0.7520 0.0000
vt -0.5025 0.6859 0.0000
vt -0.4699 0.7676 0.0000
vt 1.7360 0.8999 0.0000
vt 1.7795 0.8999 0.0000
vt 1.7795 0.8532 0.0000
vt 1.7360 0.8532 0.0000
vt 1.7795 0.8065 0.0000
vt -0.4047 0.7403 0.0000
vt 0.6494 0.9699 0.0000
vt 1.4970 0.3007 0.0000
vt 1.4426 0.3746 0.0000
vt 1.4426 0.2423 0.0000
vt 1.4970 0.3746 0.0000
vt 1.7360 0.8065 0.0000
vt 1.7795 0.8843 0.0000
vt 1.7360 0.8843 0.0000
vt 1.5948 0.9154 0.0000
vt 1.6382 0.8376 0.0000
vt 1.5948 0.8376 0.0000
vt 1.6382 0.9154 0.0000
# 86 texture coords

o w00_013_00
g w00_013_00
usemtl Material__237
s 1
f 3/2/3 2/2/2 1/1/1 
f 2/2/2 3/2/3 4/2/4 
f 4/2/4 5/3/5 2/2/2 
f 5/3/5 4/2/4 6/4/6 
f 6/4/6 2/2/2 5/3/5 
f 2/2/2 6/4/6 7/5/7 
f 7/5/7 1/1/1 2/2/2 
f 1/1/1 7/5/7 8/6/8 
f 8/6/8 9/6/9 1/1/1 
f 9/6/9 8/6/8 10/5/10 
f 10/5/10 11/1/11 9/6/9 
f 11/1/11 10/5/10 4/2/4 
f 4/2/4 12/2/12 11/1/11 
f 12/2/12 4/2/4 3/2/3 
f 15/9/15 14/8/14 13/7/13 
f 13/7/13 16/10/16 15/9/15 
f 16/10/16 13/7/13 17/11/17 
f 17/11/17 18/9/18 16/10/16 
f 18/9/18 17/11/17 19/7/19 
f 19/7/19 14/8/14 18/9/18 
f 14/8/14 19/7/19 20/12/20 
f 20/12/20 13/7/13 14/8/14 
f 13/7/13 20/12/20 21/13/21 
f 21/13/21 22/14/22 13/7/13 
f 22/17/23 21/16/24 23/15/23 
f 23/15/23 24/18/25 22/17/23 
f 24/18/25 23/15/23 25/19/26 
f 25/19/26 26/17/27 24/18/25 
f 26/17/27 25/19/26 27/15/11 
f 27/15/11 21/16/24 26/17/27 
f 21/16/24 27/15/11 28/20/24 
f 28/20/24 23/15/23 21/16/24 
f 26/14/28 20/12/20 19/7/19 
f 19/7/19 24/21/29 26/14/28 
f 24/21/29 19/7/19 17/11/17 
f 17/11/17 22/14/22 24/21/29 
f 22/14/22 17/11/17 13/7/13 
f 31/24/23 30/23/23 29/22/23 
f 30/23/23 31/24/23 32/25/23 
f 32/25/23 33/26/23 30/23/23 
f 33/26/23 32/25/23 34/27/23 
f 37/26/19 36/27/19 35/25/19 
f 35/25/19 38/23/19 37/26/19 
f 38/23/19 35/25/19 39/24/19 
f 39/24/19 40/22/19 38/23/19 
f 43/30/19 42/29/17 41/28/19 
f 41/28/19 44/31/24 43/30/19 
f 44/31/24 41/28/19 45/32/24 
f 45/32/24 46/28/23 44/31/24 
f 47/33/17 41/28/19 42/29/17 
f 42/29/17 46/28/23 47/33/17 
f 46/28/23 42/29/17 48/30/23 
f 48/30/23 44/31/24 46/28/23 
f 6/4/6 4/2/4 10/5/10 
f 10/5/10 7/5/7 6/4/6 
f 7/5/7 10/5/10 8/6/8 
f 15/36/30 16/35/30 18/34/30 
f 18/34/30 14/35/30 15/36/30 
f 47/39/31 46/38/31 45/37/31 
f 45/37/31 41/40/31 47/39/31 
f 44/37/30 48/38/30 42/39/30 
f 42/39/30 43/40/30 44/37/30 
f 26/14/28 21/13/21 20/12/20 
f 32/25/23 49/41/23 34/27/23 
f 35/25/19 36/27/19 50/41/19 
f 11/1/11 1/1/1 9/6/9 
f 53/44/33 52/43/32 51/42/23 
f 51/42/23 54/43/34 53/44/33 
f 54/43/34 51/42/23 55/45/35 
f 55/45/35 56/44/36 54/43/34 
f 56/44/36 55/45/35 57/42/37 
f 57/42/37 52/43/32 56/44/36 
f 52/43/32 57/42/37 58/45/38 
f 58/45/38 51/42/23 52/43/32 
f 51/42/23 58/45/38 59/46/39 
f 59/46/39 55/45/35 51/42/23 
f 55/45/35 59/46/39 60/47/40 
f 60/47/40 61/46/41 55/45/35 
f 61/46/41 60/47/40 62/48/42 
f 65/51/45 64/50/44 63/49/43 
f 63/49/43 66/52/46 65/51/45 
f 66/52/46 63/49/43 67/51/47 
f 67/51/47 68/53/48 66/52/46 
f 68/53/48 67/51/47 62/48/42 
f 62/48/42 69/54/49 68/53/48 
f 69/54/49 62/48/42 60/47/40 
f 60/47/40 70/48/50 69/54/49 
f 70/48/50 60/47/40 59/46/39 
f 71/57/51 54/56/34 56/55/36 
f 56/55/36 72/58/52 71/57/51 
f 72/58/52 56/55/36 73/57/53 
f 73/57/53 74/59/31 72/58/52 
f 74/59/31 73/57/53 75/58/54 
f 75/58/54 71/57/51 74/59/31 
f 71/57/51 75/58/54 53/55/33 
f 53/55/33 54/56/34 71/57/51 
f 70/62/57 59/61/56 76/60/55 
f 76/60/55 77/63/58 70/62/57 
f 77/63/58 76/60/55 62/62/59 
f 62/62/59 78/64/60 77/63/58 
f 78/64/60 62/62/59 79/65/61 
f 79/65/61 80/66/62 78/64/60 
f 78/64/60 80/68/64 81/67/63 
f 81/67/63 77/63/58 78/64/60 
f 77/63/58 81/67/63 82/64/65 
f 82/64/65 70/62/57 77/63/58 
f 70/62/57 82/64/65 83/65/66 
f 76/47/67 59/46/39 58/45/38 
f 58/45/38 61/46/41 76/47/67 
f 61/46/41 58/45/38 57/42/37 
f 57/42/37 55/45/35 61/46/41 
f 65/71/70 70/70/69 84/69/68 
f 84/69/68 85/72/71 65/71/70 
f 85/72/71 84/69/68 67/71/72 
f 67/71/72 86/73/73 85/72/71 
f 87/68/74 82/64/65 81/67/63 
f 81/67/63 88/74/75 87/68/74 
f 88/74/75 81/67/63 80/68/64 
f 86/50/76 67/51/47 63/49/43 
f 63/49/43 89/75/77 86/50/76 
f 89/75/77 63/49/43 64/50/44 
f 89/78/80 64/77/79 90/76/78 
f 90/76/78 86/77/81 89/78/80 
f 86/77/81 90/76/78 91/79/30 
f 64/73/82 65/71/70 85/72/71 
f 85/72/71 91/80/83 64/73/82 
f 91/80/83 85/72/71 86/73/73 
f 92/82/86 79/81/85 84/72/84 
f 84/72/84 83/81/87 92/82/86 
f 83/81/87 84/72/84 70/71/88 
f 88/85/91 80/84/90 92/83/89 
f 92/83/89 87/84/92 88/85/91 
f 87/84/92 92/83/89 83/86/93 
f 65/51/45 66/52/46 68/53/48 
f 68/53/48 70/48/50 65/51/45 
f 70/48/50 68/53/48 69/54/49 
f 73/57/53 56/55/36 52/56/32 
f 52/56/32 75/58/54 73/57/53 
f 75/58/54 52/56/32 53/55/33 
f 83/65/66 82/64/65 87/66/94 
f 90/76/78 64/77/79 91/79/30 
f 79/81/85 62/71/95 84/72/84 
f 80/84/90 79/86/96 92/83/89 
f 61/61/97 62/62/59 76/60/55 
f 84/69/68 62/70/98 67/71/72 
f 71/57/51 72/58/52 74/59/31 
# 146 faces

