# 3ds Max Wavefront OBJ Exporter v0.97b - (c)2007 guruware
# File Created: 06.08.2019 17:03:02

mtllib Elucidator73f.mtl

#
# object w00_013_00
#

v  0.3970 1.1351 -0.0574
v  0.3654 1.1428 -0.0406
v  0.3669 1.1358 -0.0600
v  0.3665 1.1636 -0.0481
v  0.3016 1.1547 -0.0499
v  0.2994 1.1649 -0.0218
v  0.3632 1.1529 -0.0125
v  0.3883 1.1754 0.0540
v  0.3895 1.1962 0.0466
v  0.3644 1.1738 -0.0200
v  0.3981 1.1559 -0.0648
v  0.3680 1.1566 -0.0674
v  0.4015 1.0884 -0.3071
v  0.3826 1.0561 -0.3134
v  0.4021 1.0731 -0.3180
v  0.4196 1.0552 -0.3102
v  0.4291 1.0603 -0.2947
v  0.4002 1.0382 -0.3056
v  0.3985 1.0335 -0.2874
v  0.3709 1.0616 -0.2997
v  0.3804 1.0667 -0.2842
v  0.3998 1.0837 -0.2889
v  0.3831 1.1617 -0.0732
v  0.4174 1.0658 -0.2810
v  0.4006 1.1438 -0.0653
v  0.3979 1.0488 -0.2764
v  0.3812 1.1268 -0.0607
v  0.3637 1.1447 -0.0685
v  0.2888 1.1625 -0.0691
v  0.3507 1.1611 -0.0637
v  0.2845 1.1825 -0.0139
v  0.3464 1.1810 -0.0086
v  0.4208 1.1594 -0.0577
v  0.4088 1.2156 0.0977
v  0.3451 1.1563 0.0002
v  0.4074 1.1909 0.1065
v  0.4195 1.1347 -0.0489
v  0.3493 1.1364 -0.0549
v  0.2832 1.1578 -0.0051
v  0.2875 1.1379 -0.0603
v  0.3798 1.1223 -0.0453
v  0.4104 1.1419 -0.0692
v  0.3811 1.1162 -0.0622
v  0.3546 1.1432 -0.0740
v  0.3533 1.1493 -0.0571
v  0.3826 1.1750 -0.0641
v  0.4091 1.1480 -0.0523
v  0.3840 1.1689 -0.0811
v  0.3386 1.2173 0.0917
v  0.3373 1.1926 0.1005
v  0.3697 1.2148 0.0967
v  0.3760 1.3221 0.4295
v  0.3445 1.3329 0.4231
v  0.3118 1.3236 0.4240
v  0.3371 1.2055 0.0976
v  0.3434 1.3128 0.4303
v  0.3686 1.1947 0.1039
v  0.4012 1.2040 0.1031
v  0.3731 1.1990 0.0531
v  0.3316 1.1929 0.0615
v  0.3720 1.1789 0.0603
v  0.3739 1.1700 0.0356
v  0.2806 1.1645 -0.0257
v  0.3186 1.1598 -0.0491
v  0.3300 1.1778 -0.0033
v  0.2863 1.1737 0.0008
v  0.3292 1.1638 0.0017
v  0.3023 1.1819 0.0263
v  0.2986 1.1909 0.0508
v  0.3750 1.1901 0.0284
v  0.2849 1.4495 0.7722
v  0.3164 1.4387 0.7785
v  0.3490 1.4480 0.7777
v  0.3091 1.4853 0.8758
v  0.3175 1.4588 0.7713
v  0.4123 1.1910 0.0685
v  0.4532 1.1872 0.0641
v  0.4344 1.1748 0.0386
v  0.4274 1.1654 0.0120
v  0.4413 1.1698 0.0229
v  0.4472 1.1783 0.0382
v  0.4348 1.1824 0.0358
v  0.4278 1.1735 0.0091
v  0.3753 1.1764 0.0218
v  0.3386 1.1684 -0.0062
v  0.3180 1.1497 -0.0455
v  0.4416 1.1757 0.0208
v  0.4560 1.1707 0.0184
v  0.2558 1.1562 -0.0527
v  0.2833 1.1521 -0.0601
v  0.3264 1.1511 -0.0564
v  0.4291 1.1648 -0.0024
# 92 vertices

vn -0.5098 0.7956 -0.3273
vn 0.3398 0.9382 -0.0656
vn 0.9138 0.3994 -0.0737
vn 0.4352 -0.7317 0.5245
vn 0.2502 0.3138 0.9159
vn 0.6181 -0.2943 -0.7289
vn 0.3843 0.6639 -0.6415
vn 0.6116 0.4224 -0.6689
vn -0.7208 -0.6874 -0.0890
vn 0.4894 -0.8624 -0.1296
vn -0.3636 -0.8847 0.2918
vn 0.6680 -0.6817 0.2983
vn -0.0826 0.8972 -0.4339
vn -0.7802 -0.1724 -0.6013
vn 0.0834 0.5835 -0.8078
vn 0.8452 0.0453 -0.5326
vn 0.9960 -0.0237 0.0857
vn 0.2628 -0.9390 -0.2217
vn -0.0513 -0.9404 0.3362
vn -0.9876 -0.1145 0.1071
vn -0.8180 0.4531 0.3544
vn 0.2651 0.9265 0.2671
vn 0.0513 0.9404 -0.3362
vn -0.9960 0.0237 -0.0857
vn 0.9611 0.2749 -0.0250
vn 0.9287 -0.3198 0.1876
vn 0.2663 -0.8996 0.3460
vn -0.3444 -0.5563 0.7562
vn 0.7387 -0.0830 0.6689
vn 0.0727 -0.3393 -0.9379
vn -0.0727 0.3393 0.9379
vn 0.9353 0.3498 -0.0541
vn -0.0148 0.9399 -0.3411
vn -0.8268 0.5054 -0.2469
vn -0.9287 -0.3549 0.1071
vn -0.0984 -0.9382 0.3317
vn 0.0148 -0.9399 0.3411
vn 0.9897 -0.0027 0.1434
vn -0.0032 0.9477 -0.3191
vn -0.9202 0.1753 0.3500
vn -0.1057 -0.9300 0.3521
vn -0.2078 -0.8936 0.3980
vn -0.9667 0.1313 0.2197
vn -0.0672 0.9508 -0.3024
vn -0.1065 0.9541 -0.2798
vn -0.9277 0.1695 0.3325
vn -0.2077 -0.9001 0.3831
vn -0.9266 0.1704 0.3352
vn -0.7294 0.2652 0.6306
vn -0.1067 0.9586 -0.2641
vn -0.9983 0.0571 0.0075
vn -0.0548 -0.9224 0.3822
vn 0.8147 -0.4689 0.3412
vn 0.1143 0.9494 -0.2924
vn 0.7398 0.1904 0.6454
vn 0.3036 0.9033 -0.3032
vn 0.1768 0.9505 -0.2554
vn 0.8719 0.1220 0.4742
vn 0.0754 -0.9092 0.4095
vn 0.1348 -0.9299 0.3423
vn 0.0534 -0.9458 0.3204
vn 0.0471 -0.9456 0.3220
vn 0.9913 -0.0072 0.1311
vn 0.2176 -0.8870 0.4073
vn 0.2356 0.9182 -0.3184
vn 0.1554 0.9245 -0.3482
vn 0.9567 0.0503 0.2865
vn 0.5874 -0.3007 -0.7514
vn 0.4553 0.3926 -0.7991
vn 0.5012 0.5656 -0.6549
vn 0.8832 -0.1999 -0.4244
vn 0.4214 -0.8972 -0.1319
vn 0.4679 -0.8679 0.1669
vn 0.3161 0.9184 -0.2381
vn 0.9222 0.0846 0.3774
vn -0.1690 -0.9156 0.3649
vn -0.7499 0.2586 0.6089
vn -0.0496 -0.3338 -0.9413
vn 0.0312 0.7695 -0.6379
vn -0.2912 -0.3079 -0.9058
vn -0.0652 -0.9979 -0.0061
vn 0.5549 0.7276 -0.4034
vn 0.9733 -0.1224 -0.1940
vn -0.3555 -0.2974 -0.8861
vn -0.2388 -0.9485 -0.2080
vn -0.4440 -0.2801 -0.8512
vn -0.1532 0.6206 -0.7690
vn -0.1921 0.4228 -0.8856
vn 0.7073 -0.2719 -0.6525
vn 0.1781 -0.9779 0.1094
vn 0.6245 -0.2929 -0.7240
vn 0.2753 0.8037 -0.5276
vn 0.3437 0.7641 -0.5459
vn 0.1492 0.9259 -0.3470
vn -0.2624 -0.8664 -0.4248
vn 0.2493 -0.9657 0.0724
vn 0.2044 -0.9153 0.3469
vn 0.3875 -0.8510 -0.3546
# 98 vertex normals

vt 0.7254 0.5925 0.0000
vt 0.6602 0.5925 0.0000
vt 0.5950 0.5925 0.0000
vt 0.5950 0.6470 0.0000
vt 0.6711 0.6470 0.0000
vt 0.7254 0.7403 0.0000
vt 0.1169 0.8843 0.0000
vt 0.2255 0.8182 0.0000
vt 0.2255 0.8843 0.0000
vt 0.2255 0.9505 0.0000
vt 0.1169 0.9894 0.0000
vt 0.1169 0.7831 0.0000
vt 0.0191 0.8182 0.0000
vt 0.0191 0.8843 0.0000
vt 0.9210 0.9933 0.0000
vt 0.9862 0.7053 0.0000
vt 0.9210 0.7053 0.0000
vt 0.8558 0.7053 0.0000
vt 0.8558 0.9933 0.0000
vt 0.9862 0.9933 0.0000
vt 0.0191 0.9505 0.0000
vt 0.2581 0.0011 0.0000
vt 0.5516 0.0011 0.0000
vt 0.2581 0.1995 0.0000
vt 0.5516 0.1995 0.0000
vt 0.9971 0.0011 0.0000
vt 0.9971 0.5536 0.0000
vt 0.6711 0.8843 0.0000
vt 0.8232 0.9855 0.0000
vt 0.8232 0.8843 0.0000
vt 0.8232 0.7793 0.0000
vt 0.6711 0.7793 0.0000
vt 0.6711 0.9855 0.0000
vt 0.2581 0.9855 0.0000
vt 0.3234 0.9543 0.0000
vt 0.2581 0.9232 0.0000
vt 0.5733 0.6586 0.0000
vt 0.6820 0.6003 0.0000
vt 0.8015 0.6586 0.0000
vt 0.6820 0.7170 0.0000
vt 0.5516 0.5536 0.0000
vt 0.0191 0.4524 0.0000
vt 0.2255 0.0167 0.0000
vt 0.0191 0.0167 0.0000
vt 0.2255 0.4524 0.0000
vt 0.0191 0.6081 0.0000
vt 0.2255 0.6081 0.0000
vt 0.0191 0.7131 0.0000
vt 0.6494 0.8921 0.0000
vt 0.3559 0.9699 0.0000
vt 0.2690 0.8065 0.0000
vt 0.6494 0.7831 0.0000
vt 0.4972 0.7131 0.0000
vt 0.4972 0.6081 0.0000
vt 0.2690 0.5847 0.0000
vt 0.4864 0.5847 0.0000
vt 0.4864 0.3163 0.0000
vt 0.2690 0.3163 0.0000
vt 0.4864 0.2384 0.0000
vt -0.7742 0.6042 0.0000
vt -0.9915 0.6042 0.0000
vt -0.8829 0.7131 0.0000
vt -0.5025 0.6042 0.0000
vt -0.5786 0.7131 0.0000
vt -0.6981 0.7870 0.0000
vt -0.5786 0.7520 0.0000
vt -0.5025 0.6859 0.0000
vt -0.4699 0.7676 0.0000
vt 1.7360 0.8999 0.0000
vt 1.7795 0.8999 0.0000
vt 1.7795 0.8532 0.0000
vt 1.7360 0.8532 0.0000
vt 1.7795 0.8065 0.0000
vt -0.4047 0.7403 0.0000
vt 0.6494 0.9699 0.0000
vt 1.4970 0.3007 0.0000
vt 1.4426 0.3746 0.0000
vt 1.4426 0.2423 0.0000
vt 1.4970 0.3746 0.0000
vt 1.7360 0.8065 0.0000
vt 1.7795 0.8843 0.0000
vt 1.7360 0.8843 0.0000
vt 1.5948 0.9154 0.0000
vt 1.6382 0.8376 0.0000
vt 1.5948 0.8376 0.0000
vt 1.6382 0.9154 0.0000
# 86 texture coords

o w00_013_00
g w00_013_00
usemtl Material__237
s 1
f 3/2/3 2/2/2 1/1/1 
f 2/2/2 3/2/3 4/2/4 
f 4/2/4 5/3/5 2/2/2 
f 5/3/5 4/2/4 6/4/6 
f 6/4/6 2/2/2 5/3/5 
f 2/2/2 6/4/6 7/5/7 
f 7/5/7 1/1/1 2/2/2 
f 1/1/1 7/5/7 8/6/8 
f 8/6/8 9/6/9 1/1/1 
f 9/6/9 8/6/8 10/5/10 
f 10/5/10 11/1/11 9/6/9 
f 11/1/11 10/5/10 4/2/4 
f 4/2/4 12/2/12 11/1/11 
f 12/2/12 4/2/4 3/2/3 
f 15/9/15 14/8/14 13/7/13 
f 13/7/13 16/10/16 15/9/15 
f 16/10/16 13/7/13 17/11/17 
f 17/11/17 18/9/18 16/10/16 
f 18/9/18 17/11/17 19/7/19 
f 19/7/19 14/8/14 18/9/18 
f 14/8/14 19/7/19 20/12/20 
f 20/12/20 13/7/13 14/8/14 
f 13/7/13 20/12/20 21/13/21 
f 21/13/21 22/14/22 13/7/13 
f 22/17/23 21/16/24 23/15/23 
f 23/15/23 24/18/25 22/17/23 
f 24/18/25 23/15/23 25/19/26 
f 25/19/26 26/17/27 24/18/25 
f 26/17/27 25/19/26 27/15/11 
f 27/15/11 21/16/24 26/17/27 
f 21/16/24 27/15/11 28/20/24 
f 28/20/24 23/15/23 21/16/24 
f 26/14/28 20/12/20 19/7/19 
f 19/7/19 24/21/29 26/14/28 
f 24/21/29 19/7/19 17/11/17 
f 17/11/17 22/14/22 24/21/29 
f 22/14/22 17/11/17 13/7/13 
f 31/24/23 30/23/23 29/22/23 
f 30/23/23 31/24/23 32/25/23 
f 32/25/23 33/26/23 30/23/23 
f 33/26/23 32/25/23 34/27/23 
f 37/26/19 36/27/19 35/25/19 
f 35/25/19 38/23/19 37/26/19 
f 38/23/19 35/25/19 39/24/19 
f 39/24/19 40/22/19 38/23/19 
f 43/30/19 42/29/17 41/28/19 
f 41/28/19 44/31/24 43/30/19 
f 44/31/24 41/28/19 45/32/24 
f 45/32/24 46/28/23 44/31/24 
f 47/33/17 41/28/19 42/29/17 
f 42/29/17 46/28/23 47/33/17 
f 46/28/23 42/29/17 48/30/23 
f 48/30/23 44/31/24 46/28/23 
f 6/4/6 4/2/4 10/5/10 
f 10/5/10 7/5/7 6/4/6 
f 7/5/7 10/5/10 8/6/8 
f 15/36/30 16/35/30 18/34/30 
f 18/34/30 14/35/30 15/36/30 
f 47/39/31 46/38/31 45/37/31 
f 45/37/31 41/40/31 47/39/31 
f 44/37/30 48/38/30 42/39/30 
f 42/39/30 43/40/30 44/37/30 
f 26/14/28 21/13/21 20/12/20 
f 32/25/23 49/41/23 34/27/23 
f 35/25/19 36/27/19 50/41/19 
f 11/1/11 1/1/1 9/6/9 
f 53/44/33 52/43/32 51/42/23 
f 51/42/23 54/43/34 53/44/33 
f 54/43/34 51/42/23 55/45/35 
f 55/45/35 56/44/36 54/43/34 
f 56/44/36 55/45/35 57/42/37 
f 57/42/37 52/43/32 56/44/36 
f 52/43/32 57/42/37 58/45/38 
f 58/45/38 51/42/23 52/43/32 
f 51/42/23 58/45/38 59/46/39 
f 59/46/39 55/45/35 51/42/23 
f 55/45/35 59/46/39 60/47/40 
f 60/47/40 61/46/41 55/45/35 
f 61/46/41 60/47/40 62/48/42 
f 65/51/45 64/50/44 63/49/43 
f 63/49/43 66/52/46 65/51/45 
f 66/52/46 63/49/43 67/51/47 
f 67/51/47 68/53/48 66/52/46 
f 68/53/48 67/51/47 62/48/42 
f 62/48/42 69/54/49 68/53/48 
f 69/54/49 62/48/42 60/47/40 
f 60/47/40 70/48/50 69/54/49 
f 70/48/50 60/47/40 59/46/39 
f 71/57/51 54/56/34 56/55/36 
f 56/55/36 72/58/52 71/57/51 
f 72/58/52 56/55/36 73/57/53 
f 73/57/53 74/59/31 72/58/52 
f 74/59/31 73/57/53 75/58/54 
f 75/58/54 71/57/51 74/59/31 
f 71/57/51 75/58/54 53/55/33 
f 53/55/33 54/56/34 71/57/51 
f 70/62/57 59/61/56 76/60/55 
f 76/60/55 77/63/58 70/62/57 
f 77/63/58 76/60/55 62/62/59 
f 62/62/59 78/64/60 77/63/58 
f 78/64/60 62/62/59 79/65/61 
f 79/65/61 80/66/62 78/64/60 
f 78/64/60 80/68/64 81/67/63 
f 81/67/63 77/63/58 78/64/60 
f 77/63/58 81/67/63 82/64/65 
f 82/64/65 70/62/57 77/63/58 
f 70/62/57 82/64/65 83/65/66 
f 76/47/67 59/46/39 58/45/38 
f 58/45/38 61/46/41 76/47/67 
f 61/46/41 58/45/38 57/42/37 
f 57/42/37 55/45/35 61/46/41 
f 65/71/70 70/70/69 84/69/68 
f 84/69/68 85/72/71 65/71/70 
f 85/72/71 84/69/68 67/71/72 
f 67/71/72 86/73/73 85/72/71 
f 87/68/74 82/64/65 81/67/63 
f 81/67/63 88/74/75 87/68/74 
f 88/74/75 81/67/63 80/68/64 
f 86/50/76 67/51/47 63/49/43 
f 63/49/43 89/75/77 86/50/76 
f 89/75/77 63/49/43 64/50/44 
f 89/78/80 64/77/79 90/76/78 
f 90/76/78 86/77/81 89/78/80 
f 86/77/81 90/76/78 91/79/30 
f 64/73/82 65/71/70 85/72/71 
f 85/72/71 91/80/83 64/73/82 
f 91/80/83 85/72/71 86/73/73 
f 92/82/86 79/81/85 84/72/84 
f 84/72/84 83/81/87 92/82/86 
f 83/81/87 84/72/84 70/71/88 
f 88/85/91 80/84/90 92/83/89 
f 92/83/89 87/84/92 88/85/91 
f 87/84/92 92/83/89 83/86/93 
f 65/51/45 66/52/46 68/53/48 
f 68/53/48 70/48/50 65/51/45 
f 70/48/50 68/53/48 69/54/49 
f 73/57/53 56/55/36 52/56/32 
f 52/56/32 75/58/54 73/57/53 
f 75/58/54 52/56/32 53/55/33 
f 83/65/66 82/64/65 87/66/94 
f 90/76/78 64/77/79 91/79/30 
f 79/81/85 62/71/95 84/72/84 
f 80/84/90 79/86/96 92/83/89 
f 61/61/97 62/62/59 76/60/55 
f 84/69/68 62/70/98 67/71/72 
f 71/57/51 72/58/52 74/59/31 
# 146 faces

