# 3ds Max Wavefront OBJ Exporter v0.97b - (c)2007 guruware
# File Created: 06.08.2019 17:02:26

mtllib Elucidator16f.mtl

#
# object w00_013_00
#

v  0.2670 0.8095 -0.8069
v  0.2536 0.8229 -0.7757
v  0.2453 0.8073 -0.7861
v  0.2412 0.8373 -0.7872
v  0.2007 0.8253 -0.7369
v  0.2129 0.8481 -0.7217
v  0.2658 0.8457 -0.7604
v  0.3154 0.8997 -0.7465
v  0.3029 0.9140 -0.7580
v  0.2534 0.8600 -0.7719
v  0.2546 0.8239 -0.8184
v  0.2328 0.8216 -0.7976
v  0.1313 0.6444 -0.9442
v  0.1279 0.6123 -0.9241
v  0.1309 0.6257 -0.9465
v  0.1547 0.6151 -0.9497
v  0.1687 0.6277 -0.9491
v  0.1517 0.6017 -0.9273
v  0.1640 0.6066 -0.9139
v  0.1265 0.6234 -0.9089
v  0.1405 0.6360 -0.9083
v  0.1436 0.6493 -0.9307
v  0.2371 0.8239 -0.8138
v  0.1673 0.6387 -0.9339
v  0.2609 0.8133 -0.8170
v  0.1643 0.6253 -0.9115
v  0.2579 0.7999 -0.7946
v  0.2341 0.8105 -0.7914
v  0.1770 0.8218 -0.7410
v  0.2219 0.8264 -0.7838
v  0.2010 0.8665 -0.7111
v  0.2458 0.8710 -0.7539
v  0.2727 0.8316 -0.8322
v  0.3401 0.9574 -0.7480
v  0.2605 0.8541 -0.7403
v  0.3548 0.9404 -0.7344
v  0.2874 0.8146 -0.8186
v  0.2366 0.8094 -0.7702
v  0.2156 0.8495 -0.6976
v  0.1917 0.8049 -0.7274
v  0.2685 0.8037 -0.7831
v  0.2657 0.8102 -0.8260
v  0.2611 0.7900 -0.7922
v  0.2252 0.8060 -0.7875
v  0.2326 0.8197 -0.7783
v  0.2371 0.8399 -0.8121
v  0.2730 0.8239 -0.8169
v  0.2298 0.8262 -0.8213
v  0.2893 0.9522 -0.6996
v  0.3040 0.9352 -0.6860
v  0.3140 0.9542 -0.7191
v  0.4848 1.2138 -0.5588
v  0.4556 1.2184 -0.5422
v  0.4383 1.2091 -0.5145
v  0.2968 0.9449 -0.6914
v  0.4676 1.2045 -0.5311
v  0.3260 0.9404 -0.7080
v  0.3433 0.9497 -0.7357
v  0.2951 0.9189 -0.7427
v  0.2755 0.9157 -0.7048
v  0.3071 0.9051 -0.7317
v  0.2964 0.8851 -0.7450
v  0.1982 0.8449 -0.7098
v  0.2104 0.8310 -0.7507
v  0.2396 0.8700 -0.7375
v  0.2150 0.8663 -0.7011
v  0.2479 0.8604 -0.7298
v  0.2383 0.8870 -0.7005
v  0.2477 0.9069 -0.6859
v  0.2844 0.8989 -0.7561
v  0.5894 1.4909 -0.3258
v  0.6186 1.4864 -0.3424
v  0.6358 1.4956 -0.3701
v  0.6563 1.5749 -0.2933
v  0.6066 1.5002 -0.3535
v  0.3340 0.9217 -0.7606
v  0.3598 0.9183 -0.7927
v  0.3362 0.8938 -0.7900
v  0.3186 0.8720 -0.7977
v  0.3330 0.8821 -0.8030
v  0.3431 0.8973 -0.8009
v  0.3317 0.8991 -0.7942
v  0.3138 0.8776 -0.8021
v  0.2860 0.8837 -0.7561
v  0.2473 0.8609 -0.7428
v  0.2164 0.8241 -0.7452
v  0.3295 0.8861 -0.8062
v  0.3395 0.8813 -0.8169
v  0.1681 0.8229 -0.7048
v  0.1833 0.8170 -0.7285
v  0.2145 0.8202 -0.7582
v  0.3109 0.8643 -0.8073
# 92 vertices

vn -0.8662 0.4973 -0.0494
vn -0.1973 0.7953 -0.5732
vn 0.3955 0.3552 -0.8470
vn 0.9156 -0.3471 0.2030
vn 0.6166 0.7427 0.2612
vn 0.0675 -0.5875 -0.8064
vn -0.4204 0.2721 -0.8656
vn -0.1895 0.0615 -0.9800
vn -0.2538 -0.6756 0.6922
vn 0.5912 -0.7848 -0.1858
vn 0.3027 -0.6369 0.7090
vn 0.9063 -0.4052 -0.1201
vn -0.6924 0.5536 -0.4627
vn -0.8255 -0.4903 0.2797
vn -0.6916 0.1038 -0.7147
vn 0.2038 -0.1840 -0.9616
vn 0.7220 0.0738 -0.6880
vn 0.4144 -0.9088 -0.0477
vn 0.5597 -0.6468 0.5180
vn -0.5386 -0.0962 0.8370
vn -0.5005 0.5269 0.6870
vn -0.0318 0.9479 -0.3169
vn -0.5597 0.6468 -0.5181
vn -0.7220 -0.0738 0.6879
vn 0.5080 0.2745 -0.8165
vn 0.8619 -0.1346 -0.4888
vn 0.7593 -0.5903 0.2739
vn 0.4756 -0.1197 0.8715
vn 0.9443 0.3013 -0.1324
vn -0.4067 -0.7591 -0.5083
vn 0.4067 0.7591 0.5083
vn 0.4421 0.3233 -0.8367
vn -0.6063 0.6405 -0.4713
vn -0.9073 0.2705 0.3221
vn -0.4023 -0.3009 0.8647
vn 0.5249 -0.6496 0.5501
vn 0.6063 -0.6405 0.4713
vn 0.7457 0.1204 -0.6553
vn -0.5879 0.6589 -0.4693
vn -0.4582 0.2793 0.8438
vn 0.5296 -0.6326 0.5651
vn 0.4763 -0.5834 0.6578
vn -0.5534 0.1736 0.8146
vn -0.6209 0.6667 -0.4124
vn -0.6340 0.6788 -0.3706
vn -0.4718 0.2652 0.8409
vn 0.4696 -0.5965 0.6509
vn -0.4698 0.2673 0.8413
vn -0.1914 0.5074 0.8402
vn -0.6260 0.6904 -0.3625
vn -0.6782 0.0017 0.7349
vn 0.5792 -0.6084 0.5426
vn 0.9440 -0.1923 -0.2681
vn -0.4940 0.6798 -0.5420
vn 0.8193 0.5258 -0.2287
vn -0.3571 0.6442 -0.6764
vn -0.4298 0.7025 -0.5672
vn 0.8263 0.3877 -0.4086
vn 0.6771 -0.5766 0.4573
vn 0.6823 -0.6251 0.3792
vn 0.6211 -0.6539 0.4319
vn 0.6179 -0.6533 0.4376
vn 0.7409 0.1105 -0.6625
vn 0.7607 -0.5512 0.3428
vn -0.4176 0.6460 -0.6389
vn -0.4920 0.6324 -0.5983
vn 0.7929 0.2362 -0.5617
vn 0.0356 -0.6058 -0.7948
vn -0.3629 -0.0376 -0.9311
vn -0.3117 0.1866 -0.9317
vn 0.3967 -0.3397 -0.8528
vn 0.5590 -0.8196 -0.1258
vn 0.7665 -0.6422 0.0075
vn -0.3138 0.6905 -0.6517
vn 0.8135 0.3096 -0.4924
vn 0.4900 -0.6171 0.6158
vn -0.2159 0.4897 0.8447
vn -0.4920 -0.7624 -0.4204
vn -0.6942 0.3470 -0.6306
vn -0.6396 -0.7347 -0.2262
vn 0.3577 -0.8686 0.3430
vn -0.1830 0.4552 -0.8714
vn 0.5704 -0.1528 -0.8070
vn -0.6740 -0.7190 -0.1696
vn 0.0954 -0.9360 0.3387
vn -0.7174 -0.6911 -0.0878
vn -0.8385 0.1432 -0.5257
vn -0.8577 -0.0881 -0.5065
vn 0.1656 -0.5252 -0.8347
vn 0.5833 -0.7810 0.2233
vn 0.0743 -0.5835 -0.8087
vn -0.4771 0.4444 -0.7582
vn -0.4275 0.4045 -0.8085
vn -0.4960 0.6339 -0.5934
vn -0.0904 -0.9749 0.2037
vn 0.6021 -0.7853 0.1444
vn 0.7253 -0.6066 0.3255
vn 0.3772 -0.8929 -0.2460
# 98 vertex normals

vt 0.7254 0.5925 0.0000
vt 0.6602 0.5925 0.0000
vt 0.5950 0.5925 0.0000
vt 0.5950 0.6470 0.0000
vt 0.6711 0.6470 0.0000
vt 0.7254 0.7403 0.0000
vt 0.1169 0.8843 0.0000
vt 0.2255 0.8182 0.0000
vt 0.2255 0.8843 0.0000
vt 0.2255 0.9505 0.0000
vt 0.1169 0.9894 0.0000
vt 0.1169 0.7831 0.0000
vt 0.0191 0.8182 0.0000
vt 0.0191 0.8843 0.0000
vt 0.9210 0.9933 0.0000
vt 0.9862 0.7053 0.0000
vt 0.9210 0.7053 0.0000
vt 0.8558 0.7053 0.0000
vt 0.8558 0.9933 0.0000
vt 0.9862 0.9933 0.0000
vt 0.0191 0.9505 0.0000
vt 0.2581 0.0011 0.0000
vt 0.5516 0.0011 0.0000
vt 0.2581 0.1995 0.0000
vt 0.5516 0.1995 0.0000
vt 0.9971 0.0011 0.0000
vt 0.9971 0.5536 0.0000
vt 0.6711 0.8843 0.0000
vt 0.8232 0.9855 0.0000
vt 0.8232 0.8843 0.0000
vt 0.8232 0.7793 0.0000
vt 0.6711 0.7793 0.0000
vt 0.6711 0.9855 0.0000
vt 0.2581 0.9855 0.0000
vt 0.3234 0.9543 0.0000
vt 0.2581 0.9232 0.0000
vt 0.5733 0.6586 0.0000
vt 0.6820 0.6003 0.0000
vt 0.8015 0.6586 0.0000
vt 0.6820 0.7170 0.0000
vt 0.5516 0.5536 0.0000
vt 0.0191 0.4524 0.0000
vt 0.2255 0.0167 0.0000
vt 0.0191 0.0167 0.0000
vt 0.2255 0.4524 0.0000
vt 0.0191 0.6081 0.0000
vt 0.2255 0.6081 0.0000
vt 0.0191 0.7131 0.0000
vt 0.6494 0.8921 0.0000
vt 0.3559 0.9699 0.0000
vt 0.2690 0.8065 0.0000
vt 0.6494 0.7831 0.0000
vt 0.4972 0.7131 0.0000
vt 0.4972 0.6081 0.0000
vt 0.2690 0.5847 0.0000
vt 0.4864 0.5847 0.0000
vt 0.4864 0.3163 0.0000
vt 0.2690 0.3163 0.0000
vt 0.4864 0.2384 0.0000
vt -0.7742 0.6042 0.0000
vt -0.9915 0.6042 0.0000
vt -0.8829 0.7131 0.0000
vt -0.5025 0.6042 0.0000
vt -0.5786 0.7131 0.0000
vt -0.6981 0.7870 0.0000
vt -0.5786 0.7520 0.0000
vt -0.5025 0.6859 0.0000
vt -0.4699 0.7676 0.0000
vt 1.7360 0.8999 0.0000
vt 1.7795 0.8999 0.0000
vt 1.7795 0.8532 0.0000
vt 1.7360 0.8532 0.0000
vt 1.7795 0.8065 0.0000
vt -0.4047 0.7403 0.0000
vt 0.6494 0.9699 0.0000
vt 1.4970 0.3007 0.0000
vt 1.4426 0.3746 0.0000
vt 1.4426 0.2423 0.0000
vt 1.4970 0.3746 0.0000
vt 1.7360 0.8065 0.0000
vt 1.7795 0.8843 0.0000
vt 1.7360 0.8843 0.0000
vt 1.5948 0.9154 0.0000
vt 1.6382 0.8376 0.0000
vt 1.5948 0.8376 0.0000
vt 1.6382 0.9154 0.0000
# 86 texture coords

o w00_013_00
g w00_013_00
usemtl Material__237
s 1
f 3/2/3 2/2/2 1/1/1 
f 2/2/2 3/2/3 4/2/4 
f 4/2/4 5/3/5 2/2/2 
f 5/3/5 4/2/4 6/4/6 
f 6/4/6 2/2/2 5/3/5 
f 2/2/2 6/4/6 7/5/7 
f 7/5/7 1/1/1 2/2/2 
f 1/1/1 7/5/7 8/6/8 
f 8/6/8 9/6/9 1/1/1 
f 9/6/9 8/6/8 10/5/10 
f 10/5/10 11/1/11 9/6/9 
f 11/1/11 10/5/10 4/2/4 
f 4/2/4 12/2/12 11/1/11 
f 12/2/12 4/2/4 3/2/3 
f 15/9/15 14/8/14 13/7/13 
f 13/7/13 16/10/16 15/9/15 
f 16/10/16 13/7/13 17/11/17 
f 17/11/17 18/9/18 16/10/16 
f 18/9/18 17/11/17 19/7/19 
f 19/7/19 14/8/14 18/9/18 
f 14/8/14 19/7/19 20/12/20 
f 20/12/20 13/7/13 14/8/14 
f 13/7/13 20/12/20 21/13/21 
f 21/13/21 22/14/22 13/7/13 
f 22/17/23 21/16/24 23/15/23 
f 23/15/23 24/18/25 22/17/23 
f 24/18/25 23/15/23 25/19/26 
f 25/19/26 26/17/27 24/18/25 
f 26/17/27 25/19/26 27/15/11 
f 27/15/11 21/16/24 26/17/27 
f 21/16/24 27/15/11 28/20/24 
f 28/20/24 23/15/23 21/16/24 
f 26/14/28 20/12/20 19/7/19 
f 19/7/19 24/21/29 26/14/28 
f 24/21/29 19/7/19 17/11/17 
f 17/11/17 22/14/22 24/21/29 
f 22/14/22 17/11/17 13/7/13 
f 31/24/23 30/23/23 29/22/23 
f 30/23/23 31/24/23 32/25/23 
f 32/25/23 33/26/23 30/23/23 
f 33/26/23 32/25/23 34/27/23 
f 37/26/19 36/27/19 35/25/19 
f 35/25/19 38/23/19 37/26/19 
f 38/23/19 35/25/19 39/24/19 
f 39/24/19 40/22/19 38/23/19 
f 43/30/19 42/29/17 41/28/19 
f 41/28/19 44/31/24 43/30/19 
f 44/31/24 41/28/19 45/32/24 
f 45/32/24 46/28/23 44/31/24 
f 47/33/17 41/28/19 42/29/17 
f 42/29/17 46/28/23 47/33/17 
f 46/28/23 42/29/17 48/30/23 
f 48/30/23 44/31/24 46/28/23 
f 6/4/6 4/2/4 10/5/10 
f 10/5/10 7/5/7 6/4/6 
f 7/5/7 10/5/10 8/6/8 
f 15/36/30 16/35/30 18/34/30 
f 18/34/30 14/35/30 15/36/30 
f 47/39/31 46/38/31 45/37/31 
f 45/37/31 41/40/31 47/39/31 
f 44/37/30 48/38/30 42/39/30 
f 42/39/30 43/40/30 44/37/30 
f 26/14/28 21/13/21 20/12/20 
f 32/25/23 49/41/23 34/27/23 
f 35/25/19 36/27/19 50/41/19 
f 11/1/11 1/1/1 9/6/9 
f 53/44/33 52/43/32 51/42/23 
f 51/42/23 54/43/34 53/44/33 
f 54/43/34 51/42/23 55/45/35 
f 55/45/35 56/44/36 54/43/34 
f 56/44/36 55/45/35 57/42/37 
f 57/42/37 52/43/32 56/44/36 
f 52/43/32 57/42/37 58/45/38 
f 58/45/38 51/42/23 52/43/32 
f 51/42/23 58/45/38 59/46/39 
f 59/46/39 55/45/35 51/42/23 
f 55/45/35 59/46/39 60/47/40 
f 60/47/40 61/46/41 55/45/35 
f 61/46/41 60/47/40 62/48/42 
f 65/51/45 64/50/44 63/49/43 
f 63/49/43 66/52/46 65/51/45 
f 66/52/46 63/49/43 67/51/47 
f 67/51/47 68/53/48 66/52/46 
f 68/53/48 67/51/47 62/48/42 
f 62/48/42 69/54/49 68/53/48 
f 69/54/49 62/48/42 60/47/40 
f 60/47/40 70/48/50 69/54/49 
f 70/48/50 60/47/40 59/46/39 
f 71/57/51 54/56/34 56/55/36 
f 56/55/36 72/58/52 71/57/51 
f 72/58/52 56/55/36 73/57/53 
f 73/57/53 74/59/31 72/58/52 
f 74/59/31 73/57/53 75/58/54 
f 75/58/54 71/57/51 74/59/31 
f 71/57/51 75/58/54 53/55/33 
f 53/55/33 54/56/34 71/57/51 
f 70/62/57 59/61/56 76/60/55 
f 76/60/55 77/63/58 70/62/57 
f 77/63/58 76/60/55 62/62/59 
f 62/62/59 78/64/60 77/63/58 
f 78/64/60 62/62/59 79/65/61 
f 79/65/61 80/66/62 78/64/60 
f 78/64/60 80/68/64 81/67/63 
f 81/67/63 77/63/58 78/64/60 
f 77/63/58 81/67/63 82/64/65 
f 82/64/65 70/62/57 77/63/58 
f 70/62/57 82/64/65 83/65/66 
f 76/47/67 59/46/39 58/45/38 
f 58/45/38 61/46/41 76/47/67 
f 61/46/41 58/45/38 57/42/37 
f 57/42/37 55/45/35 61/46/41 
f 65/71/70 70/70/69 84/69/68 
f 84/69/68 85/72/71 65/71/70 
f 85/72/71 84/69/68 67/71/72 
f 67/71/72 86/73/73 85/72/71 
f 87/68/74 82/64/65 81/67/63 
f 81/67/63 88/74/75 87/68/74 
f 88/74/75 81/67/63 80/68/64 
f 86/50/76 67/51/47 63/49/43 
f 63/49/43 89/75/77 86/50/76 
f 89/75/77 63/49/43 64/50/44 
f 89/78/80 64/77/79 90/76/78 
f 90/76/78 86/77/81 89/78/80 
f 86/77/81 90/76/78 91/79/30 
f 64/73/82 65/71/70 85/72/71 
f 85/72/71 91/80/83 64/73/82 
f 91/80/83 85/72/71 86/73/73 
f 92/82/86 79/81/85 84/72/84 
f 84/72/84 83/81/87 92/82/86 
f 83/81/87 84/72/84 70/71/88 
f 88/85/91 80/84/90 92/83/89 
f 92/83/89 87/84/92 88/85/91 
f 87/84/92 92/83/89 83/86/93 
f 65/51/45 66/52/46 68/53/48 
f 68/53/48 70/48/50 65/51/45 
f 70/48/50 68/53/48 69/54/49 
f 73/57/53 56/55/36 52/56/32 
f 52/56/32 75/58/54 73/57/53 
f 75/58/54 52/56/32 53/55/33 
f 83/65/66 82/64/65 87/66/94 
f 90/76/78 64/77/79 91/79/30 
f 79/81/85 62/71/95 84/72/84 
f 80/84/90 79/86/96 92/83/89 
f 61/61/97 62/62/59 76/60/55 
f 84/69/68 62/70/98 67/71/72 
f 71/57/51 72/58/52 74/59/31 
# 146 faces

