# 3ds Max Wavefront OBJ Exporter v0.97b - (c)2007 guruware
# File Created: 06.08.2019 17:02:34

mtllib Elucidator31f.mtl

#
# object w00_013_00
#

v  0.1031 0.4553 0.2486
v  0.1233 0.4629 0.2191
v  0.1035 0.4683 0.2214
v  0.1169 0.4437 0.2099
v  0.1210 0.4811 0.1561
v  0.1497 0.4732 0.1528
v  0.1520 0.4549 0.2158
v  0.2169 0.4239 0.2354
v  0.2105 0.4047 0.2262
v  0.1456 0.4358 0.2066
v  0.0967 0.4362 0.2394
v  0.0972 0.4492 0.2122
v  -0.1480 0.4936 0.2454
v  -0.1543 0.5310 0.2425
v  -0.1598 0.5070 0.2516
v  -0.1548 0.5150 0.2760
v  -0.1400 0.5063 0.2839
v  -0.1492 0.5390 0.2670
v  -0.1312 0.5441 0.2697
v  -0.1392 0.5315 0.2312
v  -0.1245 0.5227 0.2391
v  -0.1301 0.4987 0.2481
v  0.0903 0.4378 0.2226
v  -0.1250 0.5068 0.2726
v  0.0953 0.4458 0.2471
v  -0.1194 0.5308 0.2636
v  0.1009 0.4698 0.2380
v  0.0958 0.4618 0.2135
v  0.1037 0.4799 0.1392
v  0.1028 0.4531 0.1952
v  0.1600 0.4643 0.1326
v  0.1591 0.4375 0.1887
v  0.1018 0.4228 0.2588
v  0.2605 0.3789 0.2404
v  0.1666 0.4602 0.1996
v  0.2680 0.4016 0.2513
v  0.1093 0.4455 0.2697
v  0.1103 0.4758 0.2061
v  0.1675 0.4869 0.1435
v  0.1112 0.5025 0.1501
v  0.1161 0.4745 0.2405
v  0.0904 0.4431 0.2562
v  0.0988 0.4793 0.2425
v  0.0912 0.4672 0.2056
v  0.1085 0.4624 0.2036
v  0.1000 0.4262 0.2172
v  0.1077 0.4383 0.2542
v  0.0827 0.4310 0.2192
v  0.2615 0.4092 0.1768
v  0.2690 0.4319 0.1877
v  0.2633 0.3973 0.2061
v  0.5993 0.3005 0.2009
v  0.5967 0.3051 0.1674
v  0.6002 0.3282 0.1428
v  0.2669 0.4204 0.1815
v  0.6028 0.3236 0.1763
v  0.2695 0.4158 0.2150
v  0.2659 0.3927 0.2396
v  0.2188 0.4097 0.2112
v  0.2309 0.4340 0.1781
v  0.2249 0.4281 0.2201
v  0.1997 0.4351 0.2230
v  0.1477 0.4820 0.1359
v  0.1204 0.4689 0.1690
v  0.1658 0.4479 0.1762
v  0.1739 0.4714 0.1398
v  0.1701 0.4608 0.1824
v  0.1981 0.4569 0.1531
v  0.2234 0.4507 0.1486
v  0.1936 0.4166 0.2141
v  0.9558 0.2298 0.1016
v  0.9584 0.2252 0.1351
v  0.9549 0.2021 0.1597
v  1.0583 0.1875 0.1187
v  0.9523 0.2068 0.1262
v  0.2297 0.3991 0.2513
v  0.2211 0.3839 0.2887
v  0.1969 0.4034 0.2747
v  0.1707 0.4148 0.2698
v  0.1804 0.4046 0.2814
v  0.1955 0.3945 0.2845
v  0.1946 0.3964 0.2714
v  0.1682 0.4074 0.2662
v  0.1862 0.4287 0.2198
v  0.1616 0.4524 0.1877
v  0.1235 0.4781 0.1735
v  0.1786 0.3992 0.2788
v  0.1745 0.3971 0.2935
v  0.1228 0.5005 0.1146
v  0.1125 0.4917 0.1400
v  0.1119 0.4731 0.1790
v  0.1562 0.4146 0.2699
# 92 vertices

vn -0.2307 -0.4793 -0.8468
vn -0.0466 -0.9906 -0.1289
vn -0.1412 -0.7708 0.6213
vn 0.4376 0.4572 0.7743
vn 0.9028 -0.3888 0.1839
vn -0.8016 -0.0215 0.5975
vn -0.6385 -0.7690 -0.0311
vn -0.7015 -0.6570 0.2759
vn -0.0554 0.9391 -0.3390
vn -0.2249 0.5459 0.8071
vn 0.2767 0.9547 0.1092
vn 0.1927 0.3059 0.9324
vn -0.3732 -0.7641 -0.5262
vn -0.5300 0.5047 -0.6814
vn -0.7785 -0.5616 -0.2802
vn -0.6101 -0.4263 0.6679
vn -0.0144 -0.4303 0.9026
vn -0.2983 0.7166 0.6305
vn 0.2869 0.8629 0.4160
vn 0.1975 0.5506 -0.8111
vn 0.4580 -0.0311 -0.8884
vn 0.2906 -0.9447 -0.1521
vn -0.2869 -0.8629 -0.4160
vn 0.0144 0.4303 -0.9026
vn -0.1044 -0.6811 0.7247
vn 0.0771 -0.1353 0.9878
vn 0.2676 0.6826 0.6800
vn 0.7545 0.6556 0.0310
vn 0.5871 -0.2580 0.7673
vn -0.9578 0.2650 0.1110
vn 0.9578 -0.2650 -0.1110
vn -0.1266 -0.7362 0.6648
vn -0.2853 -0.8325 -0.4749
vn -0.1357 -0.0766 -0.9878
vn 0.1783 0.7381 -0.6507
vn 0.2873 0.8824 0.3727
vn 0.2853 0.8325 0.4749
vn 0.0446 -0.4458 0.8940
vn -0.2642 -0.8446 -0.4656
vn 0.4482 0.2628 -0.8544
vn 0.3087 0.8784 0.3649
vn 0.3663 0.8925 0.2633
vn 0.3209 0.3226 -0.8905
vn -0.2410 -0.8183 -0.5218
vn -0.2145 -0.8033 -0.5556
vn 0.4314 0.2713 -0.8604
vn 0.3512 0.8981 0.2646
vn 0.4339 0.2701 -0.8595
vn 0.7132 0.0975 -0.6942
vn -0.1987 -0.8071 -0.5560
vn 0.1092 0.4019 -0.9091
vn 0.3340 0.8487 0.4100
vn 0.2326 0.0500 0.9713
vn -0.2491 -0.8994 -0.3592
vn 0.5788 -0.5022 0.6425
vn -0.2811 -0.9441 -0.1720
vn -0.2185 -0.9285 -0.3002
vn 0.3919 -0.5020 0.7710
vn 0.3489 0.7780 0.5224
vn 0.2752 0.7692 0.5768
vn 0.2606 0.8202 0.5093
vn 0.2629 0.8228 0.5038
vn 0.0320 -0.4426 0.8961
vn 0.3340 0.6937 0.6382
vn -0.2887 -0.9267 -0.2407
vn -0.3100 -0.8960 -0.3179
vn 0.1931 -0.4774 0.8572
vn -0.8212 -0.0020 0.5706
vn -0.8171 -0.5601 0.1362
vn -0.6687 -0.7345 0.1152
vn -0.5199 -0.2245 0.8242
vn -0.2224 0.6078 0.7623
vn 0.0715 0.5620 0.8240
vn -0.2168 -0.9629 -0.1604
vn 0.2886 -0.4919 0.8214
vn 0.3284 0.8943 0.3038
vn 0.6933 0.1126 -0.7118
vn -0.9489 0.3156 -0.0002
vn -0.5942 -0.7029 -0.3909
vn -0.8883 0.4022 -0.2217
vn -0.0550 0.9188 0.3908
vn -0.4152 -0.9020 0.1183
vn -0.2956 -0.3333 0.8953
vn -0.8618 0.4221 -0.2812
vn -0.2358 0.9527 0.1920
vn -0.8174 0.4470 -0.3634
vn -0.7145 -0.4873 -0.5021
vn -0.8375 -0.2938 -0.4607
vn -0.7332 -0.0816 0.6751
vn 0.0368 0.7913 0.6104
vn -0.7972 -0.0257 0.6031
vn -0.5067 -0.8436 -0.1777
vn -0.5340 -0.8394 -0.1013
vn -0.3081 -0.8945 -0.3240
vn -0.4442 0.8892 0.1096
vn -0.0062 0.7479 0.6638
vn 0.2737 0.7247 0.6324
vn -0.4377 0.5810 0.6862
# 98 vertex normals

vt 0.7254 0.5925 0.0000
vt 0.6602 0.5925 0.0000
vt 0.5950 0.5925 0.0000
vt 0.5950 0.6470 0.0000
vt 0.6711 0.6470 0.0000
vt 0.7254 0.7403 0.0000
vt 0.1169 0.8843 0.0000
vt 0.2255 0.8182 0.0000
vt 0.2255 0.8843 0.0000
vt 0.2255 0.9505 0.0000
vt 0.1169 0.9894 0.0000
vt 0.1169 0.7831 0.0000
vt 0.0191 0.8182 0.0000
vt 0.0191 0.8843 0.0000
vt 0.9210 0.9933 0.0000
vt 0.9862 0.7053 0.0000
vt 0.9210 0.7053 0.0000
vt 0.8558 0.7053 0.0000
vt 0.8558 0.9933 0.0000
vt 0.9862 0.9933 0.0000
vt 0.0191 0.9505 0.0000
vt 0.2581 0.0011 0.0000
vt 0.5516 0.0011 0.0000
vt 0.2581 0.1995 0.0000
vt 0.5516 0.1995 0.0000
vt 0.9971 0.0011 0.0000
vt 0.9971 0.5536 0.0000
vt 0.6711 0.8843 0.0000
vt 0.8232 0.9855 0.0000
vt 0.8232 0.8843 0.0000
vt 0.8232 0.7793 0.0000
vt 0.6711 0.7793 0.0000
vt 0.6711 0.9855 0.0000
vt 0.2581 0.9855 0.0000
vt 0.3234 0.9543 0.0000
vt 0.2581 0.9232 0.0000
vt 0.5733 0.6586 0.0000
vt 0.6820 0.6003 0.0000
vt 0.8015 0.6586 0.0000
vt 0.6820 0.7170 0.0000
vt 0.5516 0.5536 0.0000
vt 0.0191 0.4524 0.0000
vt 0.2255 0.0167 0.0000
vt 0.0191 0.0167 0.0000
vt 0.2255 0.4524 0.0000
vt 0.0191 0.6081 0.0000
vt 0.2255 0.6081 0.0000
vt 0.0191 0.7131 0.0000
vt 0.6494 0.8921 0.0000
vt 0.3559 0.9699 0.0000
vt 0.2690 0.8065 0.0000
vt 0.6494 0.7831 0.0000
vt 0.4972 0.7131 0.0000
vt 0.4972 0.6081 0.0000
vt 0.2690 0.5847 0.0000
vt 0.4864 0.5847 0.0000
vt 0.4864 0.3163 0.0000
vt 0.2690 0.3163 0.0000
vt 0.4864 0.2384 0.0000
vt -0.7742 0.6042 0.0000
vt -0.9915 0.6042 0.0000
vt -0.8829 0.7131 0.0000
vt -0.5025 0.6042 0.0000
vt -0.5786 0.7131 0.0000
vt -0.6981 0.7870 0.0000
vt -0.5786 0.7520 0.0000
vt -0.5025 0.6859 0.0000
vt -0.4699 0.7676 0.0000
vt 1.7360 0.8999 0.0000
vt 1.7795 0.8999 0.0000
vt 1.7795 0.8532 0.0000
vt 1.7360 0.8532 0.0000
vt 1.7795 0.8065 0.0000
vt -0.4047 0.7403 0.0000
vt 0.6494 0.9699 0.0000
vt 1.4970 0.3007 0.0000
vt 1.4426 0.3746 0.0000
vt 1.4426 0.2423 0.0000
vt 1.4970 0.3746 0.0000
vt 1.7360 0.8065 0.0000
vt 1.7795 0.8843 0.0000
vt 1.7360 0.8843 0.0000
vt 1.5948 0.9154 0.0000
vt 1.6382 0.8376 0.0000
vt 1.5948 0.8376 0.0000
vt 1.6382 0.9154 0.0000
# 86 texture coords

o w00_013_00
g w00_013_00
usemtl Material__237
s 1
f 3/2/3 2/2/2 1/1/1 
f 2/2/2 3/2/3 4/2/4 
f 4/2/4 5/3/5 2/2/2 
f 5/3/5 4/2/4 6/4/6 
f 6/4/6 2/2/2 5/3/5 
f 2/2/2 6/4/6 7/5/7 
f 7/5/7 1/1/1 2/2/2 
f 1/1/1 7/5/7 8/6/8 
f 8/6/8 9/6/9 1/1/1 
f 9/6/9 8/6/8 10/5/10 
f 10/5/10 11/1/11 9/6/9 
f 11/1/11 10/5/10 4/2/4 
f 4/2/4 12/2/12 11/1/11 
f 12/2/12 4/2/4 3/2/3 
f 15/9/15 14/8/14 13/7/13 
f 13/7/13 16/10/16 15/9/15 
f 16/10/16 13/7/13 17/11/17 
f 17/11/17 18/9/18 16/10/16 
f 18/9/18 17/11/17 19/7/19 
f 19/7/19 14/8/14 18/9/18 
f 14/8/14 19/7/19 20/12/20 
f 20/12/20 13/7/13 14/8/14 
f 13/7/13 20/12/20 21/13/21 
f 21/13/21 22/14/22 13/7/13 
f 22/17/23 21/16/24 23/15/23 
f 23/15/23 24/18/25 22/17/23 
f 24/18/25 23/15/23 25/19/26 
f 25/19/26 26/17/27 24/18/25 
f 26/17/27 25/19/26 27/15/11 
f 27/15/11 21/16/24 26/17/27 
f 21/16/24 27/15/11 28/20/24 
f 28/20/24 23/15/23 21/16/24 
f 26/14/28 20/12/20 19/7/19 
f 19/7/19 24/21/29 26/14/28 
f 24/21/29 19/7/19 17/11/17 
f 17/11/17 22/14/22 24/21/29 
f 22/14/22 17/11/17 13/7/13 
f 31/24/23 30/23/23 29/22/23 
f 30/23/23 31/24/23 32/25/23 
f 32/25/23 33/26/23 30/23/23 
f 33/26/23 32/25/23 34/27/23 
f 37/26/19 36/27/19 35/25/19 
f 35/25/19 38/23/19 37/26/19 
f 38/23/19 35/25/19 39/24/19 
f 39/24/19 40/22/19 38/23/19 
f 43/30/19 42/29/17 41/28/19 
f 41/28/19 44/31/24 43/30/19 
f 44/31/24 41/28/19 45/32/24 
f 45/32/24 46/28/23 44/31/24 
f 47/33/17 41/28/19 42/29/17 
f 42/29/17 46/28/23 47/33/17 
f 46/28/23 42/29/17 48/30/23 
f 48/30/23 44/31/24 46/28/23 
f 6/4/6 4/2/4 10/5/10 
f 10/5/10 7/5/7 6/4/6 
f 7/5/7 10/5/10 8/6/8 
f 15/36/30 16/35/30 18/34/30 
f 18/34/30 14/35/30 15/36/30 
f 47/39/31 46/38/31 45/37/31 
f 45/37/31 41/40/31 47/39/31 
f 44/37/30 48/38/30 42/39/30 
f 42/39/30 43/40/30 44/37/30 
f 26/14/28 21/13/21 20/12/20 
f 32/25/23 49/41/23 34/27/23 
f 35/25/19 36/27/19 50/41/19 
f 11/1/11 1/1/1 9/6/9 
f 53/44/33 52/43/32 51/42/23 
f 51/42/23 54/43/34 53/44/33 
f 54/43/34 51/42/23 55/45/35 
f 55/45/35 56/44/36 54/43/34 
f 56/44/36 55/45/35 57/42/37 
f 57/42/37 52/43/32 56/44/36 
f 52/43/32 57/42/37 58/45/38 
f 58/45/38 51/42/23 52/43/32 
f 51/42/23 58/45/38 59/46/39 
f 59/46/39 55/45/35 51/42/23 
f 55/45/35 59/46/39 60/47/40 
f 60/47/40 61/46/41 55/45/35 
f 61/46/41 60/47/40 62/48/42 
f 65/51/45 64/50/44 63/49/43 
f 63/49/43 66/52/46 65/51/45 
f 66/52/46 63/49/43 67/51/47 
f 67/51/47 68/53/48 66/52/46 
f 68/53/48 67/51/47 62/48/42 
f 62/48/42 69/54/49 68/53/48 
f 69/54/49 62/48/42 60/47/40 
f 60/47/40 70/48/50 69/54/49 
f 70/48/50 60/47/40 59/46/39 
f 71/57/51 54/56/34 56/55/36 
f 56/55/36 72/58/52 71/57/51 
f 72/58/52 56/55/36 73/57/53 
f 73/57/53 74/59/31 72/58/52 
f 74/59/31 73/57/53 75/58/54 
f 75/58/54 71/57/51 74/59/31 
f 71/57/51 75/58/54 53/55/33 
f 53/55/33 54/56/34 71/57/51 
f 70/62/57 59/61/56 76/60/55 
f 76/60/55 77/63/58 70/62/57 
f 77/63/58 76/60/55 62/62/59 
f 62/62/59 78/64/60 77/63/58 
f 78/64/60 62/62/59 79/65/61 
f 79/65/61 80/66/62 78/64/60 
f 78/64/60 80/68/64 81/67/63 
f 81/67/63 77/63/58 78/64/60 
f 77/63/58 81/67/63 82/64/65 
f 82/64/65 70/62/57 77/63/58 
f 70/62/57 82/64/65 83/65/66 
f 76/47/67 59/46/39 58/45/38 
f 58/45/38 61/46/41 76/47/67 
f 61/46/41 58/45/38 57/42/37 
f 57/42/37 55/45/35 61/46/41 
f 65/71/70 70/70/69 84/69/68 
f 84/69/68 85/72/71 65/71/70 
f 85/72/71 84/69/68 67/71/72 
f 67/71/72 86/73/73 85/72/71 
f 87/68/74 82/64/65 81/67/63 
f 81/67/63 88/74/75 87/68/74 
f 88/74/75 81/67/63 80/68/64 
f 86/50/76 67/51/47 63/49/43 
f 63/49/43 89/75/77 86/50/76 
f 89/75/77 63/49/43 64/50/44 
f 89/78/80 64/77/79 90/76/78 
f 90/76/78 86/77/81 89/78/80 
f 86/77/81 90/76/78 91/79/30 
f 64/73/82 65/71/70 85/72/71 
f 85/72/71 91/80/83 64/73/82 
f 91/80/83 85/72/71 86/73/73 
f 92/82/86 79/81/85 84/72/84 
f 84/72/84 83/81/87 92/82/86 
f 83/81/87 84/72/84 70/71/88 
f 88/85/91 80/84/90 92/83/89 
f 92/83/89 87/84/92 88/85/91 
f 87/84/92 92/83/89 83/86/93 
f 65/51/45 66/52/46 68/53/48 
f 68/53/48 70/48/50 65/51/45 
f 70/48/50 68/53/48 69/54/49 
f 73/57/53 56/55/36 52/56/32 
f 52/56/32 75/58/54 73/57/53 
f 75/58/54 52/56/32 53/55/33 
f 83/65/66 82/64/65 87/66/94 
f 90/76/78 64/77/79 91/79/30 
f 79/81/85 62/71/95 84/72/84 
f 80/84/90 79/86/96 92/83/89 
f 61/61/97 62/62/59 76/60/55 
f 84/69/68 62/70/98 67/71/72 
f 71/57/51 72/58/52 74/59/31 
# 146 faces

