# 3ds Max Wavefront OBJ Exporter v0.97b - (c)2007 guruware
# File Created: 06.08.2019 17:02:31

mtllib Elucidator24f.mtl

#
# object w00_013_00
#

v  -0.1717 0.5653 0.0986
v  -0.2008 0.5812 0.1140
v  -0.1998 0.5754 0.0942
v  -0.1928 0.6011 0.1086
v  -0.2570 0.6128 0.1020
v  -0.2584 0.6212 0.1308
v  -0.2022 0.5895 0.1427
v  -0.1774 0.5984 0.2125
v  -0.1694 0.6184 0.2071
v  -0.1942 0.6095 0.1373
v  -0.1637 0.5853 0.0932
v  -0.1918 0.5954 0.0888
v  -0.1599 0.5372 -0.1536
v  -0.1870 0.5128 -0.1641
v  -0.1630 0.5232 -0.1660
v  -0.1524 0.5003 -0.1588
v  -0.1432 0.5011 -0.1423
v  -0.1764 0.4898 -0.1569
v  -0.1810 0.4846 -0.1394
v  -0.1977 0.5207 -0.1507
v  -0.1885 0.5214 -0.1343
v  -0.1645 0.5319 -0.1361
v  -0.1755 0.5960 0.0845
v  -0.1539 0.5090 -0.1289
v  -0.1649 0.5730 0.0917
v  -0.1779 0.4985 -0.1271
v  -0.1889 0.5626 0.0935
v  -0.1995 0.5855 0.0864
v  -0.2651 0.6255 0.0829
v  -0.2072 0.6047 0.0918
v  -0.2679 0.6419 0.1393
v  -0.2100 0.6211 0.1482
v  -0.1417 0.5811 0.1019
v  -0.1496 0.6272 0.2609
v  -0.2195 0.5975 0.1546
v  -0.1591 0.6036 0.2673
v  -0.1512 0.5575 0.1083
v  -0.2167 0.5811 0.0982
v  -0.2774 0.6183 0.1457
v  -0.2746 0.6019 0.0893
v  -0.1929 0.5577 0.1084
v  -0.1558 0.5685 0.0882
v  -0.1921 0.5526 0.0910
v  -0.2080 0.5873 0.0802
v  -0.2089 0.5923 0.0975
v  -0.1727 0.6081 0.0947
v  -0.1567 0.5735 0.1056
v  -0.1718 0.6031 0.0774
v  -0.2151 0.6508 0.2508
v  -0.2246 0.6272 0.2572
v  -0.1868 0.6386 0.2575
v  -0.1773 0.7151 0.5985
v  -0.2034 0.7355 0.5913
v  -0.2372 0.7367 0.5893
v  -0.2206 0.6397 0.2555
v  -0.2111 0.7163 0.5965
v  -0.1945 0.6193 0.2627
v  -0.1607 0.6182 0.2647
v  -0.1846 0.6256 0.2129
v  -0.2266 0.6321 0.2181
v  -0.1923 0.6064 0.2181
v  -0.1911 0.5990 0.1928
v  -0.2760 0.6269 0.1257
v  -0.2394 0.6123 0.1043
v  -0.2271 0.6227 0.1522
v  -0.2702 0.6320 0.1532
v  -0.2325 0.6093 0.1558
v  -0.2547 0.6331 0.1803
v  -0.2576 0.6410 0.2053
v  -0.1833 0.6183 0.1876
v  -0.2549 0.8401 0.9454
v  -0.2288 0.8197 0.9526
v  -0.1950 0.8186 0.9547
v  -0.2301 0.8593 1.0532
v  -0.2211 0.8390 0.9474
v  -0.1511 0.6049 0.2298
v  -0.1131 0.5890 0.2276
v  -0.1325 0.5848 0.1999
v  -0.1397 0.5799 0.1722
v  -0.1260 0.5790 0.1843
v  -0.1192 0.5841 0.2006
v  -0.1296 0.5921 0.1979
v  -0.1366 0.5877 0.1701
v  -0.1867 0.6056 0.1798
v  -0.2215 0.6113 0.1490
v  -0.2432 0.6027 0.1069
v  -0.1238 0.5846 0.1828
v  -0.1114 0.5757 0.1808
v  -0.2997 0.6286 0.0966
v  -0.2743 0.6167 0.0905
v  -0.2340 0.6022 0.0967
v  -0.1370 0.5798 0.1579
# 92 vertices

vn -0.2155 0.9348 -0.2822
vn 0.6115 0.7901 0.0429
vn 0.9945 0.1025 0.0197
vn 0.1469 -0.8651 0.4796
vn 0.2530 0.1565 0.9547
vn 0.5610 -0.4186 -0.7141
vn 0.6208 0.5564 -0.5523
vn 0.7661 0.2592 -0.5882
vn -0.8842 -0.4239 -0.1963
vn 0.2155 -0.9599 -0.1793
vn -0.6376 -0.7477 0.1855
vn 0.4026 -0.8735 0.2737
vn 0.2300 0.9070 -0.3527
vn -0.7407 0.1189 -0.6612
vn 0.3252 0.5844 -0.7434
vn 0.8621 -0.1801 -0.4736
vn 0.9311 -0.3354 0.1437
vn -0.0148 -0.9564 -0.2917
vn -0.3617 -0.9000 0.2434
vn -0.9815 0.1881 0.0356
vn -0.6704 0.6571 0.3445
vn 0.5083 0.7786 0.3678
vn 0.3617 0.9000 -0.2434
vn -0.9311 0.3354 -0.1437
vn 0.9977 -0.0336 0.0593
vn 0.7689 -0.6027 0.2133
vn -0.0487 -0.9598 0.2764
vn -0.5604 -0.4747 0.6787
vn 0.6184 -0.3532 0.7020
vn 0.0477 -0.2786 -0.9592
vn -0.0477 0.2786 0.9592
vn 0.9982 0.0475 0.0358
vn 0.2992 0.9202 -0.2524
vn -0.6110 0.7516 -0.2487
vn -0.9982 -0.0581 0.0167
vn -0.4054 -0.8830 0.2363
vn -0.2992 -0.9202 0.2524
vn 0.9264 -0.3175 0.2025
vn 0.3107 0.9225 -0.2291
vn -0.8510 0.4253 0.3080
vn -0.4116 -0.8744 0.2569
vn -0.5015 -0.8116 0.2996
vn -0.8972 0.4070 0.1716
vn 0.2494 0.9440 -0.2160
vn 0.2111 0.9577 -0.1957
vn -0.8584 0.4234 0.2897
vn -0.5021 -0.8168 0.2842
vn -0.8573 0.4237 0.2925
vn -0.6670 0.4322 0.6069
vn 0.2109 0.9608 -0.1797
vn -0.9312 0.3613 -0.0480
vn -0.3636 -0.8850 0.2906
vn 0.6024 -0.7198 0.3451
vn 0.4205 0.8860 -0.1952
vn 0.7040 -0.0925 0.7042
vn 0.5872 0.7847 -0.1987
vn 0.4770 0.8652 -0.1545
vn 0.8236 -0.1861 0.5357
vn -0.2384 -0.9145 0.3268
vn -0.1824 -0.9477 0.2618
vn -0.2626 -0.9362 0.2336
vn -0.2687 -0.9342 0.2349
vn 0.9277 -0.3215 0.1900
vn -0.0964 -0.9371 0.3354
vn 0.5285 0.8209 -0.2166
vn 0.4568 0.8536 -0.2504
vn 0.8987 -0.2672 0.3478
vn 0.5319 -0.4136 -0.7389
vn 0.6199 0.2881 -0.7299
vn 0.7033 0.4281 -0.5676
vn 0.8148 -0.4320 -0.3865
vn 0.1406 -0.9719 -0.1889
vn 0.1677 -0.9793 0.1136
vn 0.5980 0.7906 -0.1319
vn 0.8684 -0.2303 0.4391
vn -0.4685 -0.8422 0.2671
vn -0.6866 0.4338 0.5835
vn -0.0665 -0.2355 -0.9696
vn 0.3172 0.7651 -0.5604
vn -0.2911 -0.1390 -0.9465
vn -0.3626 -0.9262 -0.1029
vn 0.7814 0.5476 -0.2993
vn 0.9039 -0.4025 -0.1449
vn -0.3506 -0.1106 -0.9300
vn -0.4951 -0.8118 -0.3096
vn -0.4324 -0.0693 -0.8990
vn 0.1085 0.6899 -0.7158
vn 0.0219 0.5223 -0.8525
vn 0.6459 -0.4302 -0.6307
vn -0.1357 -0.9903 0.0285
vn 0.5671 -0.4196 -0.7087
vn 0.5496 0.7146 -0.4327
vn 0.6042 0.6573 -0.4505
vn 0.4512 0.8568 -0.2495
vn -0.4740 -0.7115 -0.5188
vn -0.0611 -0.9981 -0.0027
vn -0.1123 -0.9557 0.2720
vn 0.1416 -0.9019 -0.4080
# 98 vertex normals

vt 0.7254 0.5925 0.0000
vt 0.6602 0.5925 0.0000
vt 0.5950 0.5925 0.0000
vt 0.5950 0.6470 0.0000
vt 0.6711 0.6470 0.0000
vt 0.7254 0.7403 0.0000
vt 0.1169 0.8843 0.0000
vt 0.2255 0.8182 0.0000
vt 0.2255 0.8843 0.0000
vt 0.2255 0.9505 0.0000
vt 0.1169 0.9894 0.0000
vt 0.1169 0.7831 0.0000
vt 0.0191 0.8182 0.0000
vt 0.0191 0.8843 0.0000
vt 0.9210 0.9933 0.0000
vt 0.9862 0.7053 0.0000
vt 0.9210 0.7053 0.0000
vt 0.8558 0.7053 0.0000
vt 0.8558 0.9933 0.0000
vt 0.9862 0.9933 0.0000
vt 0.0191 0.9505 0.0000
vt 0.2581 0.0011 0.0000
vt 0.5516 0.0011 0.0000
vt 0.2581 0.1995 0.0000
vt 0.5516 0.1995 0.0000
vt 0.9971 0.0011 0.0000
vt 0.9971 0.5536 0.0000
vt 0.6711 0.8843 0.0000
vt 0.8232 0.9855 0.0000
vt 0.8232 0.8843 0.0000
vt 0.8232 0.7793 0.0000
vt 0.6711 0.7793 0.0000
vt 0.6711 0.9855 0.0000
vt 0.2581 0.9855 0.0000
vt 0.3234 0.9543 0.0000
vt 0.2581 0.9232 0.0000
vt 0.5733 0.6586 0.0000
vt 0.6820 0.6003 0.0000
vt 0.8015 0.6586 0.0000
vt 0.6820 0.7170 0.0000
vt 0.5516 0.5536 0.0000
vt 0.0191 0.4524 0.0000
vt 0.2255 0.0167 0.0000
vt 0.0191 0.0167 0.0000
vt 0.2255 0.4524 0.0000
vt 0.0191 0.6081 0.0000
vt 0.2255 0.6081 0.0000
vt 0.0191 0.7131 0.0000
vt 0.6494 0.8921 0.0000
vt 0.3559 0.9699 0.0000
vt 0.2690 0.8065 0.0000
vt 0.6494 0.7831 0.0000
vt 0.4972 0.7131 0.0000
vt 0.4972 0.6081 0.0000
vt 0.2690 0.5847 0.0000
vt 0.4864 0.5847 0.0000
vt 0.4864 0.3163 0.0000
vt 0.2690 0.3163 0.0000
vt 0.4864 0.2384 0.0000
vt -0.7742 0.6042 0.0000
vt -0.9915 0.6042 0.0000
vt -0.8829 0.7131 0.0000
vt -0.5025 0.6042 0.0000
vt -0.5786 0.7131 0.0000
vt -0.6981 0.7870 0.0000
vt -0.5786 0.7520 0.0000
vt -0.5025 0.6859 0.0000
vt -0.4699 0.7676 0.0000
vt 1.7360 0.8999 0.0000
vt 1.7795 0.8999 0.0000
vt 1.7795 0.8532 0.0000
vt 1.7360 0.8532 0.0000
vt 1.7795 0.8065 0.0000
vt -0.4047 0.7403 0.0000
vt 0.6494 0.9699 0.0000
vt 1.4970 0.3007 0.0000
vt 1.4426 0.3746 0.0000
vt 1.4426 0.2423 0.0000
vt 1.4970 0.3746 0.0000
vt 1.7360 0.8065 0.0000
vt 1.7795 0.8843 0.0000
vt 1.7360 0.8843 0.0000
vt 1.5948 0.9154 0.0000
vt 1.6382 0.8376 0.0000
vt 1.5948 0.8376 0.0000
vt 1.6382 0.9154 0.0000
# 86 texture coords

o w00_013_00
g w00_013_00
usemtl Material__237
s 1
f 3/2/3 2/2/2 1/1/1 
f 2/2/2 3/2/3 4/2/4 
f 4/2/4 5/3/5 2/2/2 
f 5/3/5 4/2/4 6/4/6 
f 6/4/6 2/2/2 5/3/5 
f 2/2/2 6/4/6 7/5/7 
f 7/5/7 1/1/1 2/2/2 
f 1/1/1 7/5/7 8/6/8 
f 8/6/8 9/6/9 1/1/1 
f 9/6/9 8/6/8 10/5/10 
f 10/5/10 11/1/11 9/6/9 
f 11/1/11 10/5/10 4/2/4 
f 4/2/4 12/2/12 11/1/11 
f 12/2/12 4/2/4 3/2/3 
f 15/9/15 14/8/14 13/7/13 
f 13/7/13 16/10/16 15/9/15 
f 16/10/16 13/7/13 17/11/17 
f 17/11/17 18/9/18 16/10/16 
f 18/9/18 17/11/17 19/7/19 
f 19/7/19 14/8/14 18/9/18 
f 14/8/14 19/7/19 20/12/20 
f 20/12/20 13/7/13 14/8/14 
f 13/7/13 20/12/20 21/13/21 
f 21/13/21 22/14/22 13/7/13 
f 22/17/23 21/16/24 23/15/23 
f 23/15/23 24/18/25 22/17/23 
f 24/18/25 23/15/23 25/19/26 
f 25/19/26 26/17/27 24/18/25 
f 26/17/27 25/19/26 27/15/11 
f 27/15/11 21/16/24 26/17/27 
f 21/16/24 27/15/11 28/20/24 
f 28/20/24 23/15/23 21/16/24 
f 26/14/28 20/12/20 19/7/19 
f 19/7/19 24/21/29 26/14/28 
f 24/21/29 19/7/19 17/11/17 
f 17/11/17 22/14/22 24/21/29 
f 22/14/22 17/11/17 13/7/13 
f 31/24/23 30/23/23 29/22/23 
f 30/23/23 31/24/23 32/25/23 
f 32/25/23 33/26/23 30/23/23 
f 33/26/23 32/25/23 34/27/23 
f 37/26/19 36/27/19 35/25/19 
f 35/25/19 38/23/19 37/26/19 
f 38/23/19 35/25/19 39/24/19 
f 39/24/19 40/22/19 38/23/19 
f 43/30/19 42/29/17 41/28/19 
f 41/28/19 44/31/24 43/30/19 
f 44/31/24 41/28/19 45/32/24 
f 45/32/24 46/28/23 44/31/24 
f 47/33/17 41/28/19 42/29/17 
f 42/29/17 46/28/23 47/33/17 
f 46/28/23 42/29/17 48/30/23 
f 48/30/23 44/31/24 46/28/23 
f 6/4/6 4/2/4 10/5/10 
f 10/5/10 7/5/7 6/4/6 
f 7/5/7 10/5/10 8/6/8 
f 15/36/30 16/35/30 18/34/30 
f 18/34/30 14/35/30 15/36/30 
f 47/39/31 46/38/31 45/37/31 
f 45/37/31 41/40/31 47/39/31 
f 44/37/30 48/38/30 42/39/30 
f 42/39/30 43/40/30 44/37/30 
f 26/14/28 21/13/21 20/12/20 
f 32/25/23 49/41/23 34/27/23 
f 35/25/19 36/27/19 50/41/19 
f 11/1/11 1/1/1 9/6/9 
f 53/44/33 52/43/32 51/42/23 
f 51/42/23 54/43/34 53/44/33 
f 54/43/34 51/42/23 55/45/35 
f 55/45/35 56/44/36 54/43/34 
f 56/44/36 55/45/35 57/42/37 
f 57/42/37 52/43/32 56/44/36 
f 52/43/32 57/42/37 58/45/38 
f 58/45/38 51/42/23 52/43/32 
f 51/42/23 58/45/38 59/46/39 
f 59/46/39 55/45/35 51/42/23 
f 55/45/35 59/46/39 60/47/40 
f 60/47/40 61/46/41 55/45/35 
f 61/46/41 60/47/40 62/48/42 
f 65/51/45 64/50/44 63/49/43 
f 63/49/43 66/52/46 65/51/45 
f 66/52/46 63/49/43 67/51/47 
f 67/51/47 68/53/48 66/52/46 
f 68/53/48 67/51/47 62/48/42 
f 62/48/42 69/54/49 68/53/48 
f 69/54/49 62/48/42 60/47/40 
f 60/47/40 70/48/50 69/54/49 
f 70/48/50 60/47/40 59/46/39 
f 71/57/51 54/56/34 56/55/36 
f 56/55/36 72/58/52 71/57/51 
f 72/58/52 56/55/36 73/57/53 
f 73/57/53 74/59/31 72/58/52 
f 74/59/31 73/57/53 75/58/54 
f 75/58/54 71/57/51 74/59/31 
f 71/57/51 75/58/54 53/55/33 
f 53/55/33 54/56/34 71/57/51 
f 70/62/57 59/61/56 76/60/55 
f 76/60/55 77/63/58 70/62/57 
f 77/63/58 76/60/55 62/62/59 
f 62/62/59 78/64/60 77/63/58 
f 78/64/60 62/62/59 79/65/61 
f 79/65/61 80/66/62 78/64/60 
f 78/64/60 80/68/64 81/67/63 
f 81/67/63 77/63/58 78/64/60 
f 77/63/58 81/67/63 82/64/65 
f 82/64/65 70/62/57 77/63/58 
f 70/62/57 82/64/65 83/65/66 
f 76/47/67 59/46/39 58/45/38 
f 58/45/38 61/46/41 76/47/67 
f 61/46/41 58/45/38 57/42/37 
f 57/42/37 55/45/35 61/46/41 
f 65/71/70 70/70/69 84/69/68 
f 84/69/68 85/72/71 65/71/70 
f 85/72/71 84/69/68 67/71/72 
f 67/71/72 86/73/73 85/72/71 
f 87/68/74 82/64/65 81/67/63 
f 81/67/63 88/74/75 87/68/74 
f 88/74/75 81/67/63 80/68/64 
f 86/50/76 67/51/47 63/49/43 
f 63/49/43 89/75/77 86/50/76 
f 89/75/77 63/49/43 64/50/44 
f 89/78/80 64/77/79 90/76/78 
f 90/76/78 86/77/81 89/78/80 
f 86/77/81 90/76/78 91/79/30 
f 64/73/82 65/71/70 85/72/71 
f 85/72/71 91/80/83 64/73/82 
f 91/80/83 85/72/71 86/73/73 
f 92/82/86 79/81/85 84/72/84 
f 84/72/84 83/81/87 92/82/86 
f 83/81/87 84/72/84 70/71/88 
f 88/85/91 80/84/90 92/83/89 
f 92/83/89 87/84/92 88/85/91 
f 87/84/92 92/83/89 83/86/93 
f 65/51/45 66/52/46 68/53/48 
f 68/53/48 70/48/50 65/51/45 
f 70/48/50 68/53/48 69/54/49 
f 73/57/53 56/55/36 52/56/32 
f 52/56/32 75/58/54 73/57/53 
f 75/58/54 52/56/32 53/55/33 
f 83/65/66 82/64/65 87/66/94 
f 90/76/78 64/77/79 91/79/30 
f 79/81/85 62/71/95 84/72/84 
f 80/84/90 79/86/96 92/83/89 
f 61/61/97 62/62/59 76/60/55 
f 84/69/68 62/70/98 67/71/72 
f 71/57/51 72/58/52 74/59/31 
# 146 faces

