# 3ds Max Wavefront OBJ Exporter v0.97b - (c)2007 guruware
# File Created: 06.08.2019 17:02:24

mtllib Elucidator11f.mtl

#
# object w00_013_00
#

v  -0.4923 1.1056 0.2642
v  -0.4683 1.1171 0.2392
v  -0.4693 1.0978 0.2464
v  -0.4540 1.1223 0.2554
v  -0.4118 1.1030 0.2091
v  -0.4103 1.1311 0.1986
v  -0.4669 1.1452 0.2288
v  -0.4866 1.2168 0.2229
v  -0.4724 1.2221 0.2390
v  -0.4526 1.1504 0.2449
v  -0.4781 1.1109 0.2803
v  -0.4550 1.1031 0.2625
v  -0.4664 0.8767 0.3713
v  -0.4718 0.8504 0.3444
v  -0.4740 0.8596 0.3689
v  -0.5001 0.8600 0.3664
v  -0.5075 0.8773 0.3673
v  -0.4979 0.8508 0.3419
v  -0.5040 0.8628 0.3287
v  -0.4629 0.8622 0.3327
v  -0.4703 0.8795 0.3336
v  -0.4725 0.8887 0.3581
v  -0.4614 1.1041 0.2781
v  -0.4986 0.8891 0.3556
v  -0.4876 1.1045 0.2756
v  -0.4964 0.8799 0.3311
v  -0.4853 1.0953 0.2511
v  -0.4592 1.0949 0.2536
v  -0.3929 1.0889 0.2150
v  -0.4404 1.1049 0.2517
v  -0.3901 1.1439 0.1946
v  -0.4376 1.1600 0.2313
v  -0.4942 1.1231 0.2933
v  -0.4862 1.2783 0.2357
v  -0.4544 1.1538 0.2122
v  -0.5031 1.2721 0.2166
v  -0.5110 1.1169 0.2743
v  -0.4573 1.0987 0.2326
v  -0.4070 1.1377 0.1755
v  -0.4098 1.0826 0.1959
v  -0.4908 1.1052 0.2397
v  -0.4950 1.1022 0.2829
v  -0.4917 1.0883 0.2460
v  -0.4522 1.0877 0.2498
v  -0.4513 1.1046 0.2435
v  -0.4547 1.1185 0.2805
v  -0.4942 1.1192 0.2766
v  -0.4556 1.1016 0.2868
v  -0.4324 1.2601 0.1941
v  -0.4493 1.2539 0.1750
v  -0.4579 1.2692 0.2104
v  -0.4727 1.6009 0.1006
v  -0.4412 1.5951 0.0894
v  -0.4235 1.5842 0.0626
v  -0.4402 1.2583 0.1836
v  -0.4550 1.5900 0.0738
v  -0.4717 1.2641 0.1948
v  -0.4894 1.2750 0.2216
v  -0.4602 1.2257 0.2265
v  -0.4357 1.2209 0.1917
v  -0.4739 1.2206 0.2110
v  -0.4752 1.1959 0.2201
v  -0.3959 1.1239 0.1882
v  -0.4212 1.1098 0.2225
v  -0.4288 1.1593 0.2160
v  -0.4005 1.1516 0.1832
v  -0.4384 1.1557 0.2052
v  -0.4129 1.1802 0.1849
v  -0.4103 1.2044 0.1747
v  -0.4614 1.2010 0.2357
v  -0.4057 1.9319 -0.0665
v  -0.4371 1.9376 -0.0553
v  -0.4548 1.9485 -0.0285
v  -0.4251 2.0409 -0.0849
v  -0.4234 1.9427 -0.0397
v  -0.4976 1.2419 0.2396
v  -0.5289 1.2445 0.2665
v  -0.5170 1.2131 0.2606
v  -0.5116 1.1849 0.2647
v  -0.5216 1.1990 0.2705
v  -0.5241 1.2173 0.2711
v  -0.5118 1.2150 0.2665
v  -0.5061 1.1869 0.2710
v  -0.4688 1.1883 0.2317
v  -0.4405 1.1536 0.2179
v  -0.4281 1.1072 0.2147
v  -0.5176 1.2005 0.2751
v  -0.5307 1.1988 0.2830
v  -0.3767 1.0923 0.1815
v  -0.3977 1.0895 0.2010
v  -0.4307 1.1007 0.2266
v  -0.5099 1.1730 0.2729
# 92 vertices

vn 0.9592 0.0539 0.2777
vn 0.3670 0.5164 0.7737
vn -0.3956 0.3375 0.8542
vn -0.9105 0.1270 -0.3936
vn -0.1992 0.9699 -0.1401
vn -0.4678 -0.6308 0.6192
vn 0.2954 -0.0940 0.9508
vn -0.0189 -0.1996 0.9797
vn 0.1087 -0.5860 -0.8030
vn -0.8788 -0.4686 -0.0902
vn -0.3688 -0.3069 -0.8774
vn -0.9952 0.0152 -0.0967
vn 0.7369 0.1069 0.6675
vn 0.6027 -0.7431 -0.2906
vn 0.5034 -0.3342 0.7968
vn -0.4631 -0.2423 0.8525
vn -0.7640 0.2587 0.5911
vn -0.7403 -0.6309 -0.2323
vn -0.6434 -0.2373 -0.7278
vn 0.6238 -0.1727 -0.7623
vn 0.8042 0.3680 -0.4668
vn 0.3353 0.7680 0.5456
vn 0.6434 0.2372 0.7278
vn 0.7640 -0.2587 -0.5911
vn -0.5213 0.3205 0.7909
vn -0.9283 0.1704 0.3306
vn -0.8520 -0.1433 -0.5035
vn -0.2829 0.2536 -0.9250
vn -0.7517 0.6536 0.0874
vn -0.0481 -0.9364 0.3477
vn 0.0481 0.9364 -0.3477
vn -0.4476 0.3314 0.8306
vn 0.6927 0.2196 0.6870
vn 0.9864 -0.0993 -0.1309
vn 0.4270 -0.2894 -0.8567
vn -0.6065 -0.2492 -0.7550
vn -0.6927 -0.2196 -0.6870
vn -0.7596 0.3159 0.5685
vn 0.6840 0.2442 0.6874
vn 0.7023 0.1952 -0.6846
vn -0.6008 -0.2296 -0.7657
vn -0.5137 -0.1931 -0.8360
vn 0.7390 0.0553 -0.6714
vn 0.7288 0.2467 0.6388
vn 0.7543 0.2590 0.6032
vn 0.7082 0.1763 -0.6836
vn -0.5144 -0.2088 -0.8318
vn 0.7074 0.1791 -0.6838
vn 0.5539 0.5120 -0.6566
vn 0.7536 0.2742 0.5974
vn 0.7650 -0.1648 -0.6226
vn -0.6403 -0.1906 -0.7441
vn -0.9765 0.1937 0.0941
vn 0.5927 0.2907 0.7511
vn -0.5721 0.7807 0.2513
vn 0.4273 0.2954 0.8545
vn 0.5390 0.3343 0.7731
vn -0.6720 0.6303 0.3887
vn -0.7335 -0.1349 -0.6662
vn -0.7743 -0.1891 -0.6039
vn -0.7197 -0.2319 -0.6544
vn -0.7153 -0.2318 -0.6592
vn -0.7608 0.3038 0.5736
vn -0.8228 -0.0961 -0.5601
vn 0.4902 0.2772 0.8264
vn 0.5599 0.2399 0.7930
vn -0.7355 0.4551 0.5019
vn -0.4440 -0.6588 0.6073
vn 0.1072 -0.3540 0.9291
vn 0.1502 -0.1338 0.9796
vn -0.6733 -0.2769 0.6855
vn -0.8508 -0.5029 -0.1526
vn -0.9367 -0.2326 -0.2615
vn 0.4124 0.3594 0.8371
vn -0.7098 0.5410 0.4511
vn -0.5483 -0.2242 -0.8057
vn 0.5698 0.4865 -0.6623
vn 0.0457 -0.9610 0.2729
vn 0.6203 -0.1058 0.7772
vn 0.2305 -0.9667 0.1113
vn -0.5890 -0.5517 -0.5906
vn 0.1549 0.1699 0.9732
vn -0.7443 -0.0282 0.6672
vn 0.2796 -0.9579 0.0651
vn -0.3827 -0.7260 -0.5713
vn 0.3471 -0.9378 -0.0012
vn 0.6910 -0.3302 0.6431
vn 0.6205 -0.5395 0.5691
vn -0.5367 -0.5380 0.6499
vn -0.7815 -0.3972 -0.4812
vn -0.4727 -0.6247 0.6216
vn 0.4375 0.0523 0.8977
vn 0.3665 0.0299 0.9299
vn 0.5652 0.2404 0.7892
vn -0.2616 -0.8648 -0.4287
vn -0.8171 -0.4065 -0.4088
vn -0.8170 -0.1634 -0.5530
vn -0.7437 -0.6677 -0.0333
# 98 vertex normals

vt 0.7254 0.5925 0.0000
vt 0.6602 0.5925 0.0000
vt 0.5950 0.5925 0.0000
vt 0.5950 0.6470 0.0000
vt 0.6711 0.6470 0.0000
vt 0.7254 0.7403 0.0000
vt 0.1169 0.8843 0.0000
vt 0.2255 0.8182 0.0000
vt 0.2255 0.8843 0.0000
vt 0.2255 0.9505 0.0000
vt 0.1169 0.9894 0.0000
vt 0.1169 0.7831 0.0000
vt 0.0191 0.8182 0.0000
vt 0.0191 0.8843 0.0000
vt 0.9210 0.9933 0.0000
vt 0.9862 0.7053 0.0000
vt 0.9210 0.7053 0.0000
vt 0.8558 0.7053 0.0000
vt 0.8558 0.9933 0.0000
vt 0.9862 0.9933 0.0000
vt 0.0191 0.9505 0.0000
vt 0.2581 0.0011 0.0000
vt 0.5516 0.0011 0.0000
vt 0.2581 0.1995 0.0000
vt 0.5516 0.1995 0.0000
vt 0.9971 0.0011 0.0000
vt 0.9971 0.5536 0.0000
vt 0.6711 0.8843 0.0000
vt 0.8232 0.9855 0.0000
vt 0.8232 0.8843 0.0000
vt 0.8232 0.7793 0.0000
vt 0.6711 0.7793 0.0000
vt 0.6711 0.9855 0.0000
vt 0.2581 0.9855 0.0000
vt 0.3234 0.9543 0.0000
vt 0.2581 0.9232 0.0000
vt 0.5733 0.6586 0.0000
vt 0.6820 0.6003 0.0000
vt 0.8015 0.6586 0.0000
vt 0.6820 0.7170 0.0000
vt 0.5516 0.5536 0.0000
vt 0.0191 0.4524 0.0000
vt 0.2255 0.0167 0.0000
vt 0.0191 0.0167 0.0000
vt 0.2255 0.4524 0.0000
vt 0.0191 0.6081 0.0000
vt 0.2255 0.6081 0.0000
vt 0.0191 0.7131 0.0000
vt 0.6494 0.8921 0.0000
vt 0.3559 0.9699 0.0000
vt 0.2690 0.8065 0.0000
vt 0.6494 0.7831 0.0000
vt 0.4972 0.7131 0.0000
vt 0.4972 0.6081 0.0000
vt 0.2690 0.5847 0.0000
vt 0.4864 0.5847 0.0000
vt 0.4864 0.3163 0.0000
vt 0.2690 0.3163 0.0000
vt 0.4864 0.2384 0.0000
vt -0.7742 0.6042 0.0000
vt -0.9915 0.6042 0.0000
vt -0.8829 0.7131 0.0000
vt -0.5025 0.6042 0.0000
vt -0.5786 0.7131 0.0000
vt -0.6981 0.7870 0.0000
vt -0.5786 0.7520 0.0000
vt -0.5025 0.6859 0.0000
vt -0.4699 0.7676 0.0000
vt 1.7360 0.8999 0.0000
vt 1.7795 0.8999 0.0000
vt 1.7795 0.8532 0.0000
vt 1.7360 0.8532 0.0000
vt 1.7795 0.8065 0.0000
vt -0.4047 0.7403 0.0000
vt 0.6494 0.9699 0.0000
vt 1.4970 0.3007 0.0000
vt 1.4426 0.3746 0.0000
vt 1.4426 0.2423 0.0000
vt 1.4970 0.3746 0.0000
vt 1.7360 0.8065 0.0000
vt 1.7795 0.8843 0.0000
vt 1.7360 0.8843 0.0000
vt 1.5948 0.9154 0.0000
vt 1.6382 0.8376 0.0000
vt 1.5948 0.8376 0.0000
vt 1.6382 0.9154 0.0000
# 86 texture coords

o w00_013_00
g w00_013_00
usemtl Material__237
s 1
f 3/2/3 2/2/2 1/1/1 
f 2/2/2 3/2/3 4/2/4 
f 4/2/4 5/3/5 2/2/2 
f 5/3/5 4/2/4 6/4/6 
f 6/4/6 2/2/2 5/3/5 
f 2/2/2 6/4/6 7/5/7 
f 7/5/7 1/1/1 2/2/2 
f 1/1/1 7/5/7 8/6/8 
f 8/6/8 9/6/9 1/1/1 
f 9/6/9 8/6/8 10/5/10 
f 10/5/10 11/1/11 9/6/9 
f 11/1/11 10/5/10 4/2/4 
f 4/2/4 12/2/12 11/1/11 
f 12/2/12 4/2/4 3/2/3 
f 15/9/15 14/8/14 13/7/13 
f 13/7/13 16/10/16 15/9/15 
f 16/10/16 13/7/13 17/11/17 
f 17/11/17 18/9/18 16/10/16 
f 18/9/18 17/11/17 19/7/19 
f 19/7/19 14/8/14 18/9/18 
f 14/8/14 19/7/19 20/12/20 
f 20/12/20 13/7/13 14/8/14 
f 13/7/13 20/12/20 21/13/21 
f 21/13/21 22/14/22 13/7/13 
f 22/17/23 21/16/24 23/15/23 
f 23/15/23 24/18/25 22/17/23 
f 24/18/25 23/15/23 25/19/26 
f 25/19/26 26/17/27 24/18/25 
f 26/17/27 25/19/26 27/15/11 
f 27/15/11 21/16/24 26/17/27 
f 21/16/24 27/15/11 28/20/24 
f 28/20/24 23/15/23 21/16/24 
f 26/14/28 20/12/20 19/7/19 
f 19/7/19 24/21/29 26/14/28 
f 24/21/29 19/7/19 17/11/17 
f 17/11/17 22/14/22 24/21/29 
f 22/14/22 17/11/17 13/7/13 
f 31/24/23 30/23/23 29/22/23 
f 30/23/23 31/24/23 32/25/23 
f 32/25/23 33/26/23 30/23/23 
f 33/26/23 32/25/23 34/27/23 
f 37/26/19 36/27/19 35/25/19 
f 35/25/19 38/23/19 37/26/19 
f 38/23/19 35/25/19 39/24/19 
f 39/24/19 40/22/19 38/23/19 
f 43/30/19 42/29/17 41/28/19 
f 41/28/19 44/31/24 43/30/19 
f 44/31/24 41/28/19 45/32/24 
f 45/32/24 46/28/23 44/31/24 
f 47/33/17 41/28/19 42/29/17 
f 42/29/17 46/28/23 47/33/17 
f 46/28/23 42/29/17 48/30/23 
f 48/30/23 44/31/24 46/28/23 
f 6/4/6 4/2/4 10/5/10 
f 10/5/10 7/5/7 6/4/6 
f 7/5/7 10/5/10 8/6/8 
f 15/36/30 16/35/30 18/34/30 
f 18/34/30 14/35/30 15/36/30 
f 47/39/31 46/38/31 45/37/31 
f 45/37/31 41/40/31 47/39/31 
f 44/37/30 48/38/30 42/39/30 
f 42/39/30 43/40/30 44/37/30 
f 26/14/28 21/13/21 20/12/20 
f 32/25/23 49/41/23 34/27/23 
f 35/25/19 36/27/19 50/41/19 
f 11/1/11 1/1/1 9/6/9 
f 53/44/33 52/43/32 51/42/23 
f 51/42/23 54/43/34 53/44/33 
f 54/43/34 51/42/23 55/45/35 
f 55/45/35 56/44/36 54/43/34 
f 56/44/36 55/45/35 57/42/37 
f 57/42/37 52/43/32 56/44/36 
f 52/43/32 57/42/37 58/45/38 
f 58/45/38 51/42/23 52/43/32 
f 51/42/23 58/45/38 59/46/39 
f 59/46/39 55/45/35 51/42/23 
f 55/45/35 59/46/39 60/47/40 
f 60/47/40 61/46/41 55/45/35 
f 61/46/41 60/47/40 62/48/42 
f 65/51/45 64/50/44 63/49/43 
f 63/49/43 66/52/46 65/51/45 
f 66/52/46 63/49/43 67/51/47 
f 67/51/47 68/53/48 66/52/46 
f 68/53/48 67/51/47 62/48/42 
f 62/48/42 69/54/49 68/53/48 
f 69/54/49 62/48/42 60/47/40 
f 60/47/40 70/48/50 69/54/49 
f 70/48/50 60/47/40 59/46/39 
f 71/57/51 54/56/34 56/55/36 
f 56/55/36 72/58/52 71/57/51 
f 72/58/52 56/55/36 73/57/53 
f 73/57/53 74/59/31 72/58/52 
f 74/59/31 73/57/53 75/58/54 
f 75/58/54 71/57/51 74/59/31 
f 71/57/51 75/58/54 53/55/33 
f 53/55/33 54/56/34 71/57/51 
f 70/62/57 59/61/56 76/60/55 
f 76/60/55 77/63/58 70/62/57 
f 77/63/58 76/60/55 62/62/59 
f 62/62/59 78/64/60 77/63/58 
f 78/64/60 62/62/59 79/65/61 
f 79/65/61 80/66/62 78/64/60 
f 78/64/60 80/68/64 81/67/63 
f 81/67/63 77/63/58 78/64/60 
f 77/63/58 81/67/63 82/64/65 
f 82/64/65 70/62/57 77/63/58 
f 70/62/57 82/64/65 83/65/66 
f 76/47/67 59/46/39 58/45/38 
f 58/45/38 61/46/41 76/47/67 
f 61/46/41 58/45/38 57/42/37 
f 57/42/37 55/45/35 61/46/41 
f 65/71/70 70/70/69 84/69/68 
f 84/69/68 85/72/71 65/71/70 
f 85/72/71 84/69/68 67/71/72 
f 67/71/72 86/73/73 85/72/71 
f 87/68/74 82/64/65 81/67/63 
f 81/67/63 88/74/75 87/68/74 
f 88/74/75 81/67/63 80/68/64 
f 86/50/76 67/51/47 63/49/43 
f 63/49/43 89/75/77 86/50/76 
f 89/75/77 63/49/43 64/50/44 
f 89/78/80 64/77/79 90/76/78 
f 90/76/78 86/77/81 89/78/80 
f 86/77/81 90/76/78 91/79/30 
f 64/73/82 65/71/70 85/72/71 
f 85/72/71 91/80/83 64/73/82 
f 91/80/83 85/72/71 86/73/73 
f 92/82/86 79/81/85 84/72/84 
f 84/72/84 83/81/87 92/82/86 
f 83/81/87 84/72/84 70/71/88 
f 88/85/91 80/84/90 92/83/89 
f 92/83/89 87/84/92 88/85/91 
f 87/84/92 92/83/89 83/86/93 
f 65/51/45 66/52/46 68/53/48 
f 68/53/48 70/48/50 65/51/45 
f 70/48/50 68/53/48 69/54/49 
f 73/57/53 56/55/36 52/56/32 
f 52/56/32 75/58/54 73/57/53 
f 75/58/54 52/56/32 53/55/33 
f 83/65/66 82/64/65 87/66/94 
f 90/76/78 64/77/79 91/79/30 
f 79/81/85 62/71/95 84/72/84 
f 80/84/90 79/86/96 92/83/89 
f 61/61/97 62/62/59 76/60/55 
f 84/69/68 62/70/98 67/71/72 
f 71/57/51 72/58/52 74/59/31 
# 146 faces

