# 3ds Max Wavefront OBJ Exporter v0.97b - (c)2007 guruware
# File Created: 06.08.2019 17:02:54

mtllib Elucidator61f.mtl

#
# object w00_013_00
#

v  -0.4146 0.7517 0.7520
v  -0.4057 0.7163 0.7526
v  -0.4028 0.7288 0.7365
v  -0.4258 0.7111 0.7451
v  -0.3904 0.6644 0.7155
v  -0.3946 0.6464 0.7391
v  -0.4098 0.6982 0.7762
v  -0.4311 0.6801 0.8453
v  -0.4513 0.6748 0.8378
v  -0.4300 0.6930 0.7686
v  -0.4348 0.7465 0.7444
v  -0.4230 0.7235 0.7289
v  -0.4104 0.8811 0.5335
v  -0.3744 0.8833 0.5217
v  -0.3985 0.8930 0.5249
v  -0.3889 0.9116 0.5408
v  -0.3953 0.9103 0.5585
v  -0.3648 0.9018 0.5376
v  -0.3572 0.8950 0.5535
v  -0.3724 0.8658 0.5284
v  -0.3787 0.8645 0.5461
v  -0.4029 0.8743 0.5493
v  -0.4348 0.7356 0.7300
v  -0.3932 0.8928 0.5653
v  -0.4251 0.7541 0.7459
v  -0.3691 0.8831 0.5620
v  -0.4010 0.7443 0.7427
v  -0.4106 0.7258 0.7268
v  -0.3947 0.6589 0.6922
v  -0.4190 0.7063 0.7243
v  -0.4028 0.6235 0.7384
v  -0.4272 0.6708 0.7704
v  -0.4466 0.7599 0.7606
v  -0.4696 0.6600 0.8907
v  -0.4033 0.6770 0.7794
v  -0.4457 0.6662 0.8997
v  -0.4227 0.7661 0.7695
v  -0.3951 0.7125 0.7332
v  -0.3790 0.6297 0.7474
v  -0.3708 0.6651 0.7012
v  -0.3942 0.7387 0.7562
v  -0.4282 0.7643 0.7469
v  -0.3917 0.7496 0.7420
v  -0.4062 0.7216 0.7179
v  -0.4087 0.7107 0.7321
v  -0.4452 0.7255 0.7370
v  -0.4307 0.7535 0.7611
v  -0.4427 0.7364 0.7228
v  -0.4420 0.6063 0.8544
v  -0.4181 0.6125 0.8634
v  -0.4523 0.6299 0.8728
v  -0.5035 0.4471 1.1664
v  -0.5006 0.4200 1.1461
v  -0.4783 0.3980 1.1332
v  -0.4300 0.6079 0.8598
v  -0.4812 0.4251 1.1535
v  -0.4329 0.6349 0.8801
v  -0.4552 0.6569 0.8930
v  -0.4459 0.6579 0.8363
v  -0.4215 0.6243 0.8259
v  -0.4264 0.6630 0.8436
v  -0.4228 0.6789 0.8229
v  -0.3868 0.6333 0.7273
v  -0.4021 0.6753 0.7234
v  -0.4165 0.6570 0.7682
v  -0.3936 0.6226 0.7529
v  -0.4029 0.6605 0.7733
v  -0.4042 0.6208 0.7822
v  -0.4071 0.6036 0.8020
v  -0.4422 0.6738 0.8156
v  -0.5298 0.1741 1.4248
v  -0.5327 0.2012 1.4451
v  -0.5550 0.2231 1.4580
v  -0.5573 0.1338 1.5259
v  -0.5521 0.1961 1.4378
v  -0.4533 0.6860 0.8678
v  -0.4679 0.7219 0.8820
v  -0.4524 0.7233 0.8517
v  -0.4448 0.7331 0.8255
v  -0.4532 0.7376 0.8411
v  -0.4611 0.7320 0.8568
v  -0.4598 0.7214 0.8490
v  -0.4527 0.7311 0.8225
v  -0.4310 0.6829 0.8107
v  -0.4122 0.6692 0.7700
v  -0.3924 0.6778 0.7270
v  -0.4589 0.7361 0.8390
v  -0.4609 0.7507 0.8435
v  -0.3726 0.6287 0.6928
v  -0.3817 0.6554 0.6985
v  -0.3986 0.6884 0.7208
v  -0.4470 0.7408 0.8134
# 92 vertices

vn -0.5395 -0.6191 -0.5706
vn -0.9923 -0.1210 0.0274
vn -0.7571 0.5759 0.3084
vn 0.5424 0.4488 0.7103
vn -0.2569 -0.3273 0.9093
vn -0.1045 0.9264 -0.3618
vn -0.8481 0.2786 -0.4507
vn -0.7334 0.5773 -0.3591
vn 0.9089 -0.2267 -0.3500
vn 0.5429 0.8250 0.1568
vn 0.9868 -0.0169 0.1613
vn 0.3662 0.7057 0.6065
vn -0.8277 -0.2817 -0.4854
vn 0.4015 -0.2870 -0.8697
vn -0.6715 0.1465 -0.7264
vn -0.4768 0.8722 -0.1091
vn -0.3917 0.7619 0.5158
vn 0.6950 0.7187 -0.0200
vn 0.9096 0.2362 0.3419
vn 0.5390 -0.7750 -0.3301
vn -0.0053 -0.9974 -0.0722
vn -0.9027 -0.3148 0.2934
vn -0.9096 -0.2362 -0.3419
vn 0.3917 -0.7619 -0.5158
vn -0.6592 0.6481 0.3812
vn -0.0840 0.7975 0.5974
vn 0.7390 0.4650 0.4875
vn 0.7513 -0.3432 0.5637
vn -0.1461 0.3394 0.9292
vn 0.1387 0.6031 -0.7855
vn -0.1387 -0.6031 0.7855
vn -0.7192 0.6066 0.3387
vn -0.8816 -0.2861 -0.3754
vn -0.1337 -0.7745 -0.6182
vn 0.7286 -0.6215 -0.2881
vn 0.9271 0.1998 0.3171
vn 0.8816 0.2861 0.3754
vn -0.3995 0.7233 0.5632
vn -0.8904 -0.2897 -0.3511
vn 0.2859 -0.9528 -0.1024
vn 0.9257 0.1818 0.3316
vn 0.9433 0.0656 0.3254
vn 0.3265 -0.9151 -0.2365
vn -0.8635 -0.3487 -0.3643
vn -0.8465 -0.3908 -0.3616
vn 0.2918 -0.9488 -0.1209
vn 0.9470 0.0748 0.3125
vn 0.2909 -0.9494 -0.1181
vn 0.1640 -0.9600 0.2268
vn -0.8481 -0.3995 -0.3480
vn 0.3761 -0.8179 -0.4355
vn 0.9016 0.2060 0.3804
vn 0.1196 0.7090 0.6950
vn -0.9383 -0.2088 -0.2756
vn -0.3940 0.2286 0.8902
vn -0.9794 -0.0340 -0.1991
vn -0.9607 -0.1754 -0.2151
vn -0.4136 0.4355 0.7995
vn 0.8381 0.2916 0.4611
vn 0.8216 0.3761 0.4284
vn 0.8675 0.3279 0.3741
vn 0.8702 0.3222 0.3728
vn -0.3980 0.7318 0.5532
vn 0.7572 0.3951 0.5201
vn -0.9659 -0.0880 -0.2435
vn -0.9415 -0.1417 -0.3059
vn -0.4124 0.6135 0.6735
vn -0.0889 0.9144 -0.3950
vn -0.6585 0.5217 -0.5424
vn -0.8121 0.4203 -0.4047
vn -0.2587 0.9657 0.0211
vn 0.6028 0.7877 0.1272
vn 0.5992 0.6856 0.4134
vn -0.9890 -0.0583 -0.1363
vn -0.4155 0.5326 0.7373
vn 0.9417 0.1200 0.3143
vn 0.1756 -0.9642 0.1988
vn 0.1856 0.5054 -0.8427
vn -0.7912 -0.0490 -0.6096
vn 0.2706 0.2880 -0.9186
vn 0.9182 0.3948 0.0330
vn -0.9439 0.2849 -0.1667
vn -0.3336 0.9056 0.2619
vn 0.2914 0.2242 -0.9300
vn 0.9195 0.3206 -0.2274
vn 0.3186 0.1318 -0.9387
vn -0.5982 -0.0734 -0.7980
vn -0.4215 0.0329 -0.9062
vn -0.1518 0.9548 -0.2557
vn 0.8130 0.5297 0.2420
vn -0.1078 0.9288 -0.3547
vn -0.9102 0.0823 -0.4058
vn -0.9067 0.1617 -0.3896
vn -0.9399 -0.1478 -0.3077
vn 0.8255 0.3566 -0.4375
vn 0.7664 0.5961 0.2394
vn 0.7796 0.4227 0.4622
vn 0.5443 0.8340 -0.0903
# 98 vertex normals

vt 0.7254 0.5925 0.0000
vt 0.6602 0.5925 0.0000
vt 0.5950 0.5925 0.0000
vt 0.5950 0.6470 0.0000
vt 0.6711 0.6470 0.0000
vt 0.7254 0.7403 0.0000
vt 0.1169 0.8843 0.0000
vt 0.2255 0.8182 0.0000
vt 0.2255 0.8843 0.0000
vt 0.2255 0.9505 0.0000
vt 0.1169 0.9894 0.0000
vt 0.1169 0.7831 0.0000
vt 0.0191 0.8182 0.0000
vt 0.0191 0.8843 0.0000
vt 0.9210 0.9933 0.0000
vt 0.9862 0.7053 0.0000
vt 0.9210 0.7053 0.0000
vt 0.8558 0.7053 0.0000
vt 0.8558 0.9933 0.0000
vt 0.9862 0.9933 0.0000
vt 0.0191 0.9505 0.0000
vt 0.2581 0.0011 0.0000
vt 0.5516 0.0011 0.0000
vt 0.2581 0.1995 0.0000
vt 0.5516 0.1995 0.0000
vt 0.9971 0.0011 0.0000
vt 0.9971 0.5536 0.0000
vt 0.6711 0.8843 0.0000
vt 0.8232 0.9855 0.0000
vt 0.8232 0.8843 0.0000
vt 0.8232 0.7793 0.0000
vt 0.6711 0.7793 0.0000
vt 0.6711 0.9855 0.0000
vt 0.2581 0.9855 0.0000
vt 0.3234 0.9543 0.0000
vt 0.2581 0.9232 0.0000
vt 0.5733 0.6586 0.0000
vt 0.6820 0.6003 0.0000
vt 0.8015 0.6586 0.0000
vt 0.6820 0.7170 0.0000
vt 0.5516 0.5536 0.0000
vt 0.0191 0.4524 0.0000
vt 0.2255 0.0167 0.0000
vt 0.0191 0.0167 0.0000
vt 0.2255 0.4524 0.0000
vt 0.0191 0.6081 0.0000
vt 0.2255 0.6081 0.0000
vt 0.0191 0.7131 0.0000
vt 0.6494 0.8921 0.0000
vt 0.3559 0.9699 0.0000
vt 0.2690 0.8065 0.0000
vt 0.6494 0.7831 0.0000
vt 0.4972 0.7131 0.0000
vt 0.4972 0.6081 0.0000
vt 0.2690 0.5847 0.0000
vt 0.4864 0.5847 0.0000
vt 0.4864 0.3163 0.0000
vt 0.2690 0.3163 0.0000
vt 0.4864 0.2384 0.0000
vt -0.7742 0.6042 0.0000
vt -0.9915 0.6042 0.0000
vt -0.8829 0.7131 0.0000
vt -0.5025 0.6042 0.0000
vt -0.5786 0.7131 0.0000
vt -0.6981 0.7870 0.0000
vt -0.5786 0.7520 0.0000
vt -0.5025 0.6859 0.0000
vt -0.4699 0.7676 0.0000
vt 1.7360 0.8999 0.0000
vt 1.7795 0.8999 0.0000
vt 1.7795 0.8532 0.0000
vt 1.7360 0.8532 0.0000
vt 1.7795 0.8065 0.0000
vt -0.4047 0.7403 0.0000
vt 0.6494 0.9699 0.0000
vt 1.4970 0.3007 0.0000
vt 1.4426 0.3746 0.0000
vt 1.4426 0.2423 0.0000
vt 1.4970 0.3746 0.0000
vt 1.7360 0.8065 0.0000
vt 1.7795 0.8843 0.0000
vt 1.7360 0.8843 0.0000
vt 1.5948 0.9154 0.0000
vt 1.6382 0.8376 0.0000
vt 1.5948 0.8376 0.0000
vt 1.6382 0.9154 0.0000
# 86 texture coords

o w00_013_00
g w00_013_00
usemtl Material__237
s 1
f 3/2/3 2/2/2 1/1/1 
f 2/2/2 3/2/3 4/2/4 
f 4/2/4 5/3/5 2/2/2 
f 5/3/5 4/2/4 6/4/6 
f 6/4/6 2/2/2 5/3/5 
f 2/2/2 6/4/6 7/5/7 
f 7/5/7 1/1/1 2/2/2 
f 1/1/1 7/5/7 8/6/8 
f 8/6/8 9/6/9 1/1/1 
f 9/6/9 8/6/8 10/5/10 
f 10/5/10 11/1/11 9/6/9 
f 11/1/11 10/5/10 4/2/4 
f 4/2/4 12/2/12 11/1/11 
f 12/2/12 4/2/4 3/2/3 
f 15/9/15 14/8/14 13/7/13 
f 13/7/13 16/10/16 15/9/15 
f 16/10/16 13/7/13 17/11/17 
f 17/11/17 18/9/18 16/10/16 
f 18/9/18 17/11/17 19/7/19 
f 19/7/19 14/8/14 18/9/18 
f 14/8/14 19/7/19 20/12/20 
f 20/12/20 13/7/13 14/8/14 
f 13/7/13 20/12/20 21/13/21 
f 21/13/21 22/14/22 13/7/13 
f 22/17/23 21/16/24 23/15/23 
f 23/15/23 24/18/25 22/17/23 
f 24/18/25 23/15/23 25/19/26 
f 25/19/26 26/17/27 24/18/25 
f 26/17/27 25/19/26 27/15/11 
f 27/15/11 21/16/24 26/17/27 
f 21/16/24 27/15/11 28/20/24 
f 28/20/24 23/15/23 21/16/24 
f 26/14/28 20/12/20 19/7/19 
f 19/7/19 24/21/29 26/14/28 
f 24/21/29 19/7/19 17/11/17 
f 17/11/17 22/14/22 24/21/29 
f 22/14/22 17/11/17 13/7/13 
f 31/24/23 30/23/23 29/22/23 
f 30/23/23 31/24/23 32/25/23 
f 32/25/23 33/26/23 30/23/23 
f 33/26/23 32/25/23 34/27/23 
f 37/26/19 36/27/19 35/25/19 
f 35/25/19 38/23/19 37/26/19 
f 38/23/19 35/25/19 39/24/19 
f 39/24/19 40/22/19 38/23/19 
f 43/30/19 42/29/17 41/28/19 
f 41/28/19 44/31/24 43/30/19 
f 44/31/24 41/28/19 45/32/24 
f 45/32/24 46/28/23 44/31/24 
f 47/33/17 41/28/19 42/29/17 
f 42/29/17 46/28/23 47/33/17 
f 46/28/23 42/29/17 48/30/23 
f 48/30/23 44/31/24 46/28/23 
f 6/4/6 4/2/4 10/5/10 
f 10/5/10 7/5/7 6/4/6 
f 7/5/7 10/5/10 8/6/8 
f 15/36/30 16/35/30 18/34/30 
f 18/34/30 14/35/30 15/36/30 
f 47/39/31 46/38/31 45/37/31 
f 45/37/31 41/40/31 47/39/31 
f 44/37/30 48/38/30 42/39/30 
f 42/39/30 43/40/30 44/37/30 
f 26/14/28 21/13/21 20/12/20 
f 32/25/23 49/41/23 34/27/23 
f 35/25/19 36/27/19 50/41/19 
f 11/1/11 1/1/1 9/6/9 
f 53/44/33 52/43/32 51/42/23 
f 51/42/23 54/43/34 53/44/33 
f 54/43/34 51/42/23 55/45/35 
f 55/45/35 56/44/36 54/43/34 
f 56/44/36 55/45/35 57/42/37 
f 57/42/37 52/43/32 56/44/36 
f 52/43/32 57/42/37 58/45/38 
f 58/45/38 51/42/23 52/43/32 
f 51/42/23 58/45/38 59/46/39 
f 59/46/39 55/45/35 51/42/23 
f 55/45/35 59/46/39 60/47/40 
f 60/47/40 61/46/41 55/45/35 
f 61/46/41 60/47/40 62/48/42 
f 65/51/45 64/50/44 63/49/43 
f 63/49/43 66/52/46 65/51/45 
f 66/52/46 63/49/43 67/51/47 
f 67/51/47 68/53/48 66/52/46 
f 68/53/48 67/51/47 62/48/42 
f 62/48/42 69/54/49 68/53/48 
f 69/54/49 62/48/42 60/47/40 
f 60/47/40 70/48/50 69/54/49 
f 70/48/50 60/47/40 59/46/39 
f 71/57/51 54/56/34 56/55/36 
f 56/55/36 72/58/52 71/57/51 
f 72/58/52 56/55/36 73/57/53 
f 73/57/53 74/59/31 72/58/52 
f 74/59/31 73/57/53 75/58/54 
f 75/58/54 71/57/51 74/59/31 
f 71/57/51 75/58/54 53/55/33 
f 53/55/33 54/56/34 71/57/51 
f 70/62/57 59/61/56 76/60/55 
f 76/60/55 77/63/58 70/62/57 
f 77/63/58 76/60/55 62/62/59 
f 62/62/59 78/64/60 77/63/58 
f 78/64/60 62/62/59 79/65/61 
f 79/65/61 80/66/62 78/64/60 
f 78/64/60 80/68/64 81/67/63 
f 81/67/63 77/63/58 78/64/60 
f 77/63/58 81/67/63 82/64/65 
f 82/64/65 70/62/57 77/63/58 
f 70/62/57 82/64/65 83/65/66 
f 76/47/67 59/46/39 58/45/38 
f 58/45/38 61/46/41 76/47/67 
f 61/46/41 58/45/38 57/42/37 
f 57/42/37 55/45/35 61/46/41 
f 65/71/70 70/70/69 84/69/68 
f 84/69/68 85/72/71 65/71/70 
f 85/72/71 84/69/68 67/71/72 
f 67/71/72 86/73/73 85/72/71 
f 87/68/74 82/64/65 81/67/63 
f 81/67/63 88/74/75 87/68/74 
f 88/74/75 81/67/63 80/68/64 
f 86/50/76 67/51/47 63/49/43 
f 63/49/43 89/75/77 86/50/76 
f 89/75/77 63/49/43 64/50/44 
f 89/78/80 64/77/79 90/76/78 
f 90/76/78 86/77/81 89/78/80 
f 86/77/81 90/76/78 91/79/30 
f 64/73/82 65/71/70 85/72/71 
f 85/72/71 91/80/83 64/73/82 
f 91/80/83 85/72/71 86/73/73 
f 92/82/86 79/81/85 84/72/84 
f 84/72/84 83/81/87 92/82/86 
f 83/81/87 84/72/84 70/71/88 
f 88/85/91 80/84/90 92/83/89 
f 92/83/89 87/84/92 88/85/91 
f 87/84/92 92/83/89 83/86/93 
f 65/51/45 66/52/46 68/53/48 
f 68/53/48 70/48/50 65/51/45 
f 70/48/50 68/53/48 69/54/49 
f 73/57/53 56/55/36 52/56/32 
f 52/56/32 75/58/54 73/57/53 
f 75/58/54 52/56/32 53/55/33 
f 83/65/66 82/64/65 87/66/94 
f 90/76/78 64/77/79 91/79/30 
f 79/81/85 62/71/95 84/72/84 
f 80/84/90 79/86/96 92/83/89 
f 61/61/97 62/62/59 76/60/55 
f 84/69/68 62/70/98 67/71/72 
f 71/57/51 72/58/52 74/59/31 
# 146 faces

