# 3ds Max Wavefront OBJ Exporter v0.97b - (c)2007 guruware
# File Created: 06.08.2019 17:03:11

mtllib Elucidator90f.mtl

#
# object w00_013_00
#

v  -0.3063 0.3062 0.2245
v  -0.2724 0.3161 0.2150
v  -0.2895 0.3241 0.2069
v  -0.2722 0.3004 0.1993
v  -0.2364 0.3465 0.1694
v  -0.2114 0.3349 0.1813
v  -0.2474 0.3044 0.2269
v  -0.2075 0.2600 0.2716
v  -0.2073 0.2444 0.2559
v  -0.2473 0.2888 0.2112
v  -0.3061 0.2906 0.2088
v  -0.2893 0.3084 0.1912
v  -0.5053 0.3844 0.0874
v  -0.5082 0.4221 0.0911
v  -0.5183 0.3980 0.0888
v  -0.5288 0.4001 0.1127
v  -0.5218 0.3877 0.1251
v  -0.5186 0.4242 0.1150
v  -0.5058 0.4257 0.1288
v  -0.4893 0.4223 0.0910
v  -0.4823 0.4100 0.1034
v  -0.4925 0.3859 0.1011
v  -0.3012 0.2965 0.1924
v  -0.5029 0.3880 0.1251
v  -0.3117 0.2986 0.2164
v  -0.4928 0.4121 0.1274
v  -0.3015 0.3227 0.2187
v  -0.2910 0.3206 0.1947
v  -0.2402 0.3515 0.1459
v  -0.2747 0.3147 0.1822
v  -0.1913 0.3286 0.1693
v  -0.2258 0.2918 0.2055
v  -0.3138 0.2730 0.2233
v  -0.1760 0.2086 0.2891
v  -0.2260 0.3103 0.2241
v  -0.1762 0.2271 0.3077
v  -0.3140 0.2915 0.2419
v  -0.2749 0.3332 0.2008
v  -0.1915 0.3471 0.1878
v  -0.2404 0.3700 0.1645
v  -0.2907 0.3243 0.2305
v  -0.3211 0.2949 0.2199
v  -0.3058 0.3313 0.2234
v  -0.2900 0.3281 0.1871
v  -0.2750 0.3211 0.1943
v  -0.2903 0.2847 0.1908
v  -0.3061 0.2879 0.2271
v  -0.3053 0.2917 0.1837
v  -0.1369 0.2503 0.2480
v  -0.1371 0.2688 0.2665
v  -0.1530 0.2327 0.2687
v  0.1184 0.0859 0.4332
v  0.1364 0.0974 0.4068
v  0.1542 0.1240 0.3956
v  -0.1352 0.2593 0.2575
v  0.1362 0.1125 0.4220
v  -0.1532 0.2478 0.2839
v  -0.1710 0.2212 0.2951
v  -0.1917 0.2508 0.2503
v  -0.1619 0.2789 0.2377
v  -0.1918 0.2659 0.2654
v  -0.2137 0.2761 0.2550
v  -0.2028 0.3471 0.1692
v  -0.2447 0.3323 0.1760
v  -0.2128 0.3032 0.2023
v  -0.1843 0.3318 0.1847
v  -0.2129 0.3138 0.2129
v  -0.1730 0.3113 0.2053
v  -0.1501 0.3021 0.2146
v  -0.2136 0.2610 0.2398
v  0.4629 -0.0203 0.5429
v  0.4449 -0.0318 0.5693
v  0.4271 -0.0584 0.5805
v  0.5344 -0.0811 0.6044
v  0.4451 -0.0469 0.5542
v  -0.2069 0.2309 0.2850
v  -0.2363 0.2102 0.3053
v  -0.2472 0.2357 0.2855
v  -0.2651 0.2520 0.2694
v  -0.2644 0.2382 0.2815
v  -0.2543 0.2254 0.2900
v  -0.2471 0.2300 0.2798
v  -0.2651 0.2459 0.2633
v  -0.2227 0.2728 0.2431
v  -0.2230 0.3060 0.2100
v  -0.2448 0.3398 0.1836
v  -0.2643 0.2338 0.2771
v  -0.2764 0.2296 0.2856
v  -0.2099 0.3732 0.1431
v  -0.2334 0.3613 0.1547
v  -0.2574 0.3357 0.1799
v  -0.2769 0.2540 0.2612
# 92 vertices

vn 0.3146 -0.2592 -0.9131
vn 0.0277 -0.9249 -0.3791
vn -0.4933 -0.8452 0.2058
vn -0.1057 0.2187 0.9700
vn 0.6098 -0.5578 0.5630
vn -1.0000 -0.0095 -0.0016
vn -0.5028 -0.6345 -0.5870
vn -0.7353 -0.5767 -0.3559
vn 0.1691 0.9840 -0.0565
vn -0.6557 0.4049 0.6373
vn 0.1682 0.8570 0.4870
vn -0.3983 0.0808 0.9137
vn 0.0056 -0.5749 -0.8182
vn -0.0125 0.7080 -0.7061
vn -0.4640 -0.3623 -0.8084
vn -0.8932 -0.4456 0.0602
vn -0.5555 -0.5919 0.5841
vn -0.6071 0.6166 0.5013
vn -0.0078 0.7061 0.7081
vn 0.6492 0.6606 -0.3771
vn 0.8973 0.0714 -0.4356
vn 0.3126 -0.9303 -0.1917
vn 0.0078 -0.7061 -0.7081
vn 0.5555 0.5919 -0.5841
vn -0.5245 -0.7848 0.3302
vn -0.5294 -0.3382 0.7780
vn -0.1831 0.4827 0.8564
vn 0.5946 0.5062 0.6247
vn 0.0099 -0.4955 0.8685
vn -0.8315 0.3887 -0.3968
vn 0.8315 -0.3887 0.3968
vn -0.5072 -0.8227 0.2568
vn 0.0446 -0.6653 -0.7452
vn 0.4799 0.1428 -0.8656
vn 0.5403 0.8134 -0.2157
vn 0.0185 0.7334 0.6796
vn -0.0446 0.6653 0.7452
vn -0.5032 -0.6147 0.6074
vn 0.0559 -0.6823 -0.7290
vn 0.8727 0.3505 -0.3399
vn 0.0403 0.7276 0.6848
vn 0.1474 0.7520 0.6425
vn 0.7928 0.4359 -0.4259
vn 0.1083 -0.6495 -0.7526
vn 0.1499 -0.6326 -0.7599
vn 0.8629 0.3626 -0.3521
vn 0.1345 0.7597 0.6362
vn 0.8644 0.3608 -0.3503
vn 0.9876 0.1163 -0.1050
vn 0.1628 -0.6387 -0.7520
vn 0.6350 0.5505 -0.5419
vn 0.0334 0.6860 0.7269
vn -0.3926 -0.1809 0.9018
vn 0.0038 -0.7586 -0.6515
vn 0.0748 -0.7057 0.7046
vn -0.1341 -0.8337 -0.5357
vn -0.0071 -0.8034 -0.5954
vn -0.1519 -0.7007 0.6971
vn -0.0226 0.5930 0.8049
vn -0.1143 0.5856 0.8025
vn -0.0851 0.6506 0.7547
vn -0.0800 0.6539 0.7523
vn -0.5145 -0.6100 0.6026
vn -0.1047 0.4910 0.8648
vn -0.0990 -0.8021 -0.5890
vn -0.0696 -0.7537 -0.6535
vn -0.3625 -0.6619 0.6561
vn -0.9994 0.0178 -0.0288
vn -0.7435 -0.4368 -0.5064
vn -0.6140 -0.6252 -0.4818
vn -0.9117 -0.2959 0.2850
vn -0.6262 0.4732 0.6197
vn -0.4278 0.3693 0.8250
vn -0.0897 -0.8645 -0.4945
vn -0.2646 -0.6843 0.6795
vn 0.0928 0.7519 0.6527
vn 0.9824 0.1376 -0.1263
vn -0.7574 0.4582 -0.4653
vn -0.2517 -0.5068 -0.8245
vn -0.5754 0.5759 -0.5807
vn -0.2664 0.8202 0.5062
vn -0.4145 -0.8286 -0.3763
vn -0.7755 -0.4513 0.4415
vn -0.5185 0.6026 -0.6067
vn -0.2924 0.9213 0.2563
vn -0.4335 0.6357 -0.6387
vn -0.2793 -0.2569 -0.9252
vn -0.4004 -0.0582 -0.9145
vn -0.9921 -0.0940 0.0827
vn -0.3253 0.6388 0.6972
vn -0.9999 -0.0153 0.0042
vn -0.3105 -0.6990 -0.6442
vn -0.3779 -0.7056 -0.5994
vn -0.0645 -0.7513 -0.6568
vn -0.4111 0.9098 0.0562
vn -0.3923 0.5932 0.7030
vn -0.1492 0.5318 0.8336
vn -0.7538 0.4969 0.4299
# 98 vertex normals

vt 0.7254 0.5925 0.0000
vt 0.6602 0.5925 0.0000
vt 0.5950 0.5925 0.0000
vt 0.5950 0.6470 0.0000
vt 0.6711 0.6470 0.0000
vt 0.7254 0.7403 0.0000
vt 0.1169 0.8843 0.0000
vt 0.2255 0.8182 0.0000
vt 0.2255 0.8843 0.0000
vt 0.2255 0.9505 0.0000
vt 0.1169 0.9894 0.0000
vt 0.1169 0.7831 0.0000
vt 0.0191 0.8182 0.0000
vt 0.0191 0.8843 0.0000
vt 0.9210 0.9933 0.0000
vt 0.9862 0.7053 0.0000
vt 0.9210 0.7053 0.0000
vt 0.8558 0.7053 0.0000
vt 0.8558 0.9933 0.0000
vt 0.9862 0.9933 0.0000
vt 0.0191 0.9505 0.0000
vt 0.2581 0.0011 0.0000
vt 0.5516 0.0011 0.0000
vt 0.2581 0.1995 0.0000
vt 0.5516 0.1995 0.0000
vt 0.9971 0.0011 0.0000
vt 0.9971 0.5536 0.0000
vt 0.6711 0.8843 0.0000
vt 0.8232 0.9855 0.0000
vt 0.8232 0.8843 0.0000
vt 0.8232 0.7793 0.0000
vt 0.6711 0.7793 0.0000
vt 0.6711 0.9855 0.0000
vt 0.2581 0.9855 0.0000
vt 0.3234 0.9543 0.0000
vt 0.2581 0.9232 0.0000
vt 0.5733 0.6586 0.0000
vt 0.6820 0.6003 0.0000
vt 0.8015 0.6586 0.0000
vt 0.6820 0.7170 0.0000
vt 0.5516 0.5536 0.0000
vt 0.0191 0.4524 0.0000
vt 0.2255 0.0167 0.0000
vt 0.0191 0.0167 0.0000
vt 0.2255 0.4524 0.0000
vt 0.0191 0.6081 0.0000
vt 0.2255 0.6081 0.0000
vt 0.0191 0.7131 0.0000
vt 0.6494 0.8921 0.0000
vt 0.3559 0.9699 0.0000
vt 0.2690 0.8065 0.0000
vt 0.6494 0.7831 0.0000
vt 0.4972 0.7131 0.0000
vt 0.4972 0.6081 0.0000
vt 0.2690 0.5847 0.0000
vt 0.4864 0.5847 0.0000
vt 0.4864 0.3163 0.0000
vt 0.2690 0.3163 0.0000
vt 0.4864 0.2384 0.0000
vt -0.7742 0.6042 0.0000
vt -0.9915 0.6042 0.0000
vt -0.8829 0.7131 0.0000
vt -0.5025 0.6042 0.0000
vt -0.5786 0.7131 0.0000
vt -0.6981 0.7870 0.0000
vt -0.5786 0.7520 0.0000
vt -0.5025 0.6859 0.0000
vt -0.4699 0.7676 0.0000
vt 1.7360 0.8999 0.0000
vt 1.7795 0.8999 0.0000
vt 1.7795 0.8532 0.0000
vt 1.7360 0.8532 0.0000
vt 1.7795 0.8065 0.0000
vt -0.4047 0.7403 0.0000
vt 0.6494 0.9699 0.0000
vt 1.4970 0.3007 0.0000
vt 1.4426 0.3746 0.0000
vt 1.4426 0.2423 0.0000
vt 1.4970 0.3746 0.0000
vt 1.7360 0.8065 0.0000
vt 1.7795 0.8843 0.0000
vt 1.7360 0.8843 0.0000
vt 1.5948 0.9154 0.0000
vt 1.6382 0.8376 0.0000
vt 1.5948 0.8376 0.0000
vt 1.6382 0.9154 0.0000
# 86 texture coords

o w00_013_00
g w00_013_00
usemtl Material__237
s 1
f 3/2/3 2/2/2 1/1/1 
f 2/2/2 3/2/3 4/2/4 
f 4/2/4 5/3/5 2/2/2 
f 5/3/5 4/2/4 6/4/6 
f 6/4/6 2/2/2 5/3/5 
f 2/2/2 6/4/6 7/5/7 
f 7/5/7 1/1/1 2/2/2 
f 1/1/1 7/5/7 8/6/8 
f 8/6/8 9/6/9 1/1/1 
f 9/6/9 8/6/8 10/5/10 
f 10/5/10 11/1/11 9/6/9 
f 11/1/11 10/5/10 4/2/4 
f 4/2/4 12/2/12 11/1/11 
f 12/2/12 4/2/4 3/2/3 
f 15/9/15 14/8/14 13/7/13 
f 13/7/13 16/10/16 15/9/15 
f 16/10/16 13/7/13 17/11/17 
f 17/11/17 18/9/18 16/10/16 
f 18/9/18 17/11/17 19/7/19 
f 19/7/19 14/8/14 18/9/18 
f 14/8/14 19/7/19 20/12/20 
f 20/12/20 13/7/13 14/8/14 
f 13/7/13 20/12/20 21/13/21 
f 21/13/21 22/14/22 13/7/13 
f 22/17/23 21/16/24 23/15/23 
f 23/15/23 24/18/25 22/17/23 
f 24/18/25 23/15/23 25/19/26 
f 25/19/26 26/17/27 24/18/25 
f 26/17/27 25/19/26 27/15/11 
f 27/15/11 21/16/24 26/17/27 
f 21/16/24 27/15/11 28/20/24 
f 28/20/24 23/15/23 21/16/24 
f 26/14/28 20/12/20 19/7/19 
f 19/7/19 24/21/29 26/14/28 
f 24/21/29 19/7/19 17/11/17 
f 17/11/17 22/14/22 24/21/29 
f 22/14/22 17/11/17 13/7/13 
f 31/24/23 30/23/23 29/22/23 
f 30/23/23 31/24/23 32/25/23 
f 32/25/23 33/26/23 30/23/23 
f 33/26/23 32/25/23 34/27/23 
f 37/26/19 36/27/19 35/25/19 
f 35/25/19 38/23/19 37/26/19 
f 38/23/19 35/25/19 39/24/19 
f 39/24/19 40/22/19 38/23/19 
f 43/30/19 42/29/17 41/28/19 
f 41/28/19 44/31/24 43/30/19 
f 44/31/24 41/28/19 45/32/24 
f 45/32/24 46/28/23 44/31/24 
f 47/33/17 41/28/19 42/29/17 
f 42/29/17 46/28/23 47/33/17 
f 46/28/23 42/29/17 48/30/23 
f 48/30/23 44/31/24 46/28/23 
f 6/4/6 4/2/4 10/5/10 
f 10/5/10 7/5/7 6/4/6 
f 7/5/7 10/5/10 8/6/8 
f 15/36/30 16/35/30 18/34/30 
f 18/34/30 14/35/30 15/36/30 
f 47/39/31 46/38/31 45/37/31 
f 45/37/31 41/40/31 47/39/31 
f 44/37/30 48/38/30 42/39/30 
f 42/39/30 43/40/30 44/37/30 
f 26/14/28 21/13/21 20/12/20 
f 32/25/23 49/41/23 34/27/23 
f 35/25/19 36/27/19 50/41/19 
f 11/1/11 1/1/1 9/6/9 
f 53/44/33 52/43/32 51/42/23 
f 51/42/23 54/43/34 53/44/33 
f 54/43/34 51/42/23 55/45/35 
f 55/45/35 56/44/36 54/43/34 
f 56/44/36 55/45/35 57/42/37 
f 57/42/37 52/43/32 56/44/36 
f 52/43/32 57/42/37 58/45/38 
f 58/45/38 51/42/23 52/43/32 
f 51/42/23 58/45/38 59/46/39 
f 59/46/39 55/45/35 51/42/23 
f 55/45/35 59/46/39 60/47/40 
f 60/47/40 61/46/41 55/45/35 
f 61/46/41 60/47/40 62/48/42 
f 65/51/45 64/50/44 63/49/43 
f 63/49/43 66/52/46 65/51/45 
f 66/52/46 63/49/43 67/51/47 
f 67/51/47 68/53/48 66/52/46 
f 68/53/48 67/51/47 62/48/42 
f 62/48/42 69/54/49 68/53/48 
f 69/54/49 62/48/42 60/47/40 
f 60/47/40 70/48/50 69/54/49 
f 70/48/50 60/47/40 59/46/39 
f 71/57/51 54/56/34 56/55/36 
f 56/55/36 72/58/52 71/57/51 
f 72/58/52 56/55/36 73/57/53 
f 73/57/53 74/59/31 72/58/52 
f 74/59/31 73/57/53 75/58/54 
f 75/58/54 71/57/51 74/59/31 
f 71/57/51 75/58/54 53/55/33 
f 53/55/33 54/56/34 71/57/51 
f 70/62/57 59/61/56 76/60/55 
f 76/60/55 77/63/58 70/62/57 
f 77/63/58 76/60/55 62/62/59 
f 62/62/59 78/64/60 77/63/58 
f 78/64/60 62/62/59 79/65/61 
f 79/65/61 80/66/62 78/64/60 
f 78/64/60 80/68/64 81/67/63 
f 81/67/63 77/63/58 78/64/60 
f 77/63/58 81/67/63 82/64/65 
f 82/64/65 70/62/57 77/63/58 
f 70/62/57 82/64/65 83/65/66 
f 76/47/67 59/46/39 58/45/38 
f 58/45/38 61/46/41 76/47/67 
f 61/46/41 58/45/38 57/42/37 
f 57/42/37 55/45/35 61/46/41 
f 65/71/70 70/70/69 84/69/68 
f 84/69/68 85/72/71 65/71/70 
f 85/72/71 84/69/68 67/71/72 
f 67/71/72 86/73/73 85/72/71 
f 87/68/74 82/64/65 81/67/63 
f 81/67/63 88/74/75 87/68/74 
f 88/74/75 81/67/63 80/68/64 
f 86/50/76 67/51/47 63/49/43 
f 63/49/43 89/75/77 86/50/76 
f 89/75/77 63/49/43 64/50/44 
f 89/78/80 64/77/79 90/76/78 
f 90/76/78 86/77/81 89/78/80 
f 86/77/81 90/76/78 91/79/30 
f 64/73/82 65/71/70 85/72/71 
f 85/72/71 91/80/83 64/73/82 
f 91/80/83 85/72/71 86/73/73 
f 92/82/86 79/81/85 84/72/84 
f 84/72/84 83/81/87 92/82/86 
f 83/81/87 84/72/84 70/71/88 
f 88/85/91 80/84/90 92/83/89 
f 92/83/89 87/84/92 88/85/91 
f 87/84/92 92/83/89 83/86/93 
f 65/51/45 66/52/46 68/53/48 
f 68/53/48 70/48/50 65/51/45 
f 70/48/50 68/53/48 69/54/49 
f 73/57/53 56/55/36 52/56/32 
f 52/56/32 75/58/54 73/57/53 
f 75/58/54 52/56/32 53/55/33 
f 83/65/66 82/64/65 87/66/94 
f 90/76/78 64/77/79 91/79/30 
f 79/81/85 62/71/95 84/72/84 
f 80/84/90 79/86/96 92/83/89 
f 61/61/97 62/62/59 76/60/55 
f 84/69/68 62/70/98 67/71/72 
f 71/57/51 72/58/52 74/59/31 
# 146 faces

