# 3ds Max Wavefront OBJ Exporter v0.97b - (c)2007 guruware
# File Created: 06.08.2019 17:03:12

mtllib Elucidator92f.mtl

#
# object w00_013_00
#

v  -0.4568 0.4679 -0.0407
v  -0.4252 0.4754 -0.0240
v  -0.4304 0.4824 -0.0426
v  -0.4160 0.4575 -0.0333
v  -0.3641 0.4975 -0.0327
v  -0.3565 0.4872 -0.0056
v  -0.4176 0.4651 0.0031
v  -0.4267 0.4272 0.0667
v  -0.4175 0.4093 0.0574
v  -0.4084 0.4472 -0.0062
v  -0.4476 0.4500 -0.0501
v  -0.4213 0.4645 -0.0520
v  -0.4898 0.5288 -0.2851
v  -0.4896 0.5666 -0.2880
v  -0.4982 0.5427 -0.2947
v  -0.5221 0.5488 -0.2857
v  -0.5275 0.5383 -0.2710
v  -0.5135 0.5727 -0.2790
v  -0.5140 0.5760 -0.2605
v  -0.4763 0.5664 -0.2746
v  -0.4817 0.5560 -0.2599
v  -0.4903 0.5321 -0.2666
v  -0.4320 0.4532 -0.0585
v  -0.5142 0.5381 -0.2576
v  -0.4559 0.4593 -0.0495
v  -0.5056 0.5620 -0.2509
v  -0.4473 0.4832 -0.0429
v  -0.4234 0.4771 -0.0519
v  -0.3496 0.4988 -0.0522
v  -0.4039 0.4690 -0.0483
v  -0.3347 0.4787 0.0010
v  -0.3890 0.4488 0.0049
v  -0.4655 0.4351 -0.0439
v  -0.4235 0.3783 0.1060
v  -0.3998 0.4700 0.0160
v  -0.4343 0.3995 0.1171
v  -0.4763 0.4563 -0.0328
v  -0.4148 0.4901 -0.0372
v  -0.3455 0.4998 0.0121
v  -0.3604 0.5200 -0.0411
v  -0.4479 0.4863 -0.0271
v  -0.4654 0.4564 -0.0535
v  -0.4525 0.4925 -0.0434
v  -0.4164 0.4834 -0.0570
v  -0.4118 0.4772 -0.0407
v  -0.4247 0.4411 -0.0507
v  -0.4608 0.4502 -0.0371
v  -0.4293 0.4473 -0.0671
v  -0.3619 0.4121 0.1016
v  -0.3727 0.4333 0.1127
v  -0.3900 0.3984 0.1061
v  -0.3343 0.2722 0.4274
v  -0.3018 0.2791 0.4209
v  -0.2781 0.3032 0.4234
v  -0.3663 0.4225 0.1086
v  -0.3106 0.2963 0.4299
v  -0.3988 0.4157 0.1151
v  -0.4226 0.3916 0.1126
v  -0.4018 0.4143 0.0641
v  -0.3685 0.4394 0.0740
v  -0.4106 0.4316 0.0731
v  -0.4173 0.4406 0.0492
v  -0.3404 0.4972 -0.0090
v  -0.3763 0.4846 -0.0328
v  -0.3762 0.4593 0.0109
v  -0.3402 0.4840 0.0164
v  -0.3824 0.4713 0.0172
v  -0.3494 0.4667 0.0406
v  -0.3412 0.4585 0.0643
v  -0.4085 0.4234 0.0402
v  -0.1839 0.1759 0.7592
v  -0.2165 0.1690 0.7657
v  -0.2402 0.1449 0.7632
v  -0.1848 0.1235 0.8585
v  -0.2077 0.1518 0.7567
v  -0.4394 0.4005 0.0791
v  -0.4769 0.3839 0.0741
v  -0.4673 0.4063 0.0502
v  -0.4665 0.4203 0.0248
v  -0.4762 0.4086 0.0350
v  -0.4768 0.3969 0.0492
v  -0.4640 0.3997 0.0468
v  -0.4630 0.4133 0.0212
v  -0.4156 0.4357 0.0349
v  -0.3884 0.4634 0.0087
v  -0.3807 0.4933 -0.0283
v  -0.4736 0.4035 0.0323
v  -0.4886 0.4009 0.0300
v  -0.3236 0.5191 -0.0345
v  -0.3497 0.5098 -0.0422
v  -0.3876 0.4890 -0.0395
v  -0.4687 0.4213 0.0105
# 92 vertices

vn 0.8290 -0.4048 -0.3858
vn 0.1682 -0.9728 -0.1593
vn -0.5974 -0.7909 -0.1324
vn -0.7279 0.3685 0.5782
vn -0.0399 -0.4788 0.8770
vn -0.6999 0.0148 -0.7141
vn -0.0201 -0.7051 -0.7088
vn -0.3378 -0.6067 -0.7196
vn 0.2833 0.9590 -0.0080
vn -0.8553 0.5144 -0.0624
vn -0.1155 0.9176 0.3803
vn -0.9107 0.2307 0.3427
vn 0.5058 -0.6944 -0.5118
vn 0.5777 0.5904 -0.5636
vn 0.1973 -0.4714 -0.8595
vn -0.7241 -0.4090 -0.5553
vn -0.8746 -0.4807 0.0629
vn -0.6987 0.7013 -0.1414
vn -0.4133 0.8070 0.4218
vn 0.8034 0.5783 0.1415
vn 0.9432 -0.0187 0.3317
vn 0.2351 -0.9561 0.1747
vn 0.4133 -0.8070 -0.4218
vn 0.8746 0.4807 -0.0629
vn -0.6990 -0.7113 -0.0737
vn -0.9604 -0.2009 0.1930
vn -0.6686 0.6136 0.4200
vn 0.0415 0.5820 0.8121
vn -0.6666 -0.3554 0.6552
vn -0.2535 0.3429 -0.9045
vn 0.2535 -0.3429 0.9045
vn -0.6401 -0.7605 -0.1089
vn 0.4703 -0.7734 -0.4250
vn 0.9624 -0.0045 -0.2715
vn 0.6332 0.7568 0.1619
vn -0.3714 0.8289 0.4183
vn -0.4703 0.7734 0.4250
vn -0.8573 -0.5010 0.1185
vn 0.4647 -0.7879 -0.4041
vn 0.8943 0.2723 0.3551
vn -0.3605 0.8235 0.4381
vn -0.2527 0.8384 0.4829
vn 0.9097 0.3453 0.2306
vn 0.5221 -0.7604 -0.3861
vn 0.5585 -0.7459 -0.3630
vn 0.8975 0.2827 0.3385
vn -0.2564 0.8454 0.4687
vn 0.8970 0.2811 0.3410
vn 0.7798 0.0745 0.6216
vn 0.5612 -0.7510 -0.3478
vn 0.8954 0.4444 0.0270
vn -0.4002 0.7890 0.4661
vn -0.9316 -0.0297 0.3623
vn 0.3640 -0.8501 -0.3806
vn -0.5327 -0.5899 0.6068
vn 0.1766 -0.9029 -0.3918
vn 0.3112 -0.8854 -0.3454
vn -0.6854 -0.5806 0.4394
vn -0.5061 0.7106 0.4888
vn -0.5695 0.7052 0.4223
vn -0.5072 0.7612 0.4040
vn -0.5016 0.7641 0.4057
vn -0.8613 -0.4968 0.1066
vn -0.6187 0.6212 0.4810
vn 0.2426 -0.8808 -0.4066
vn 0.3147 -0.8437 -0.4348
vn -0.7991 -0.5435 0.2570
vn -0.6769 0.0376 -0.7351
vn -0.2200 -0.4915 -0.8426
vn -0.1706 -0.6770 -0.7160
vn -0.8760 -0.2259 -0.4261
vn -0.8135 0.5784 -0.0598
vn -0.8322 0.5027 0.2338
vn 0.1748 -0.9281 -0.3287
vn -0.7499 -0.5644 0.3451
vn -0.2981 0.8413 0.4510
vn 0.7938 0.0924 0.6011
vn -0.1447 0.3991 -0.9054
vn 0.3388 -0.6218 -0.7061
vn 0.0787 0.4931 -0.8664
vn -0.4378 0.8949 0.0866
vn -0.1311 -0.8665 -0.4817
vn -0.9105 -0.3586 -0.2060
vn 0.1402 0.5141 -0.8462
vn -0.2675 0.9567 -0.1146
vn 0.2265 0.5397 -0.8108
vn 0.4221 -0.3899 -0.8184
vn 0.3551 -0.1890 -0.9155
vn -0.7644 -0.0558 -0.6423
vn -0.6365 0.7466 0.1937
vn -0.7047 0.0099 -0.7095
vn 0.1465 -0.7823 -0.6054
vn 0.0670 -0.7803 -0.6217
vn 0.3209 -0.8420 -0.4337
vn -0.2114 0.9174 -0.3373
vn -0.6932 0.7041 0.1541
vn -0.6227 0.6577 0.4239
vn -0.7665 0.5757 -0.2849
# 98 vertex normals

vt 0.7254 0.5925 0.0000
vt 0.6602 0.5925 0.0000
vt 0.5950 0.5925 0.0000
vt 0.5950 0.6470 0.0000
vt 0.6711 0.6470 0.0000
vt 0.7254 0.7403 0.0000
vt 0.1169 0.8843 0.0000
vt 0.2255 0.8182 0.0000
vt 0.2255 0.8843 0.0000
vt 0.2255 0.9505 0.0000
vt 0.1169 0.9894 0.0000
vt 0.1169 0.7831 0.0000
vt 0.0191 0.8182 0.0000
vt 0.0191 0.8843 0.0000
vt 0.9210 0.9933 0.0000
vt 0.9862 0.7053 0.0000
vt 0.9210 0.7053 0.0000
vt 0.8558 0.7053 0.0000
vt 0.8558 0.9933 0.0000
vt 0.9862 0.9933 0.0000
vt 0.0191 0.9505 0.0000
vt 0.2581 0.0011 0.0000
vt 0.5516 0.0011 0.0000
vt 0.2581 0.1995 0.0000
vt 0.5516 0.1995 0.0000
vt 0.9971 0.0011 0.0000
vt 0.9971 0.5536 0.0000
vt 0.6711 0.8843 0.0000
vt 0.8232 0.9855 0.0000
vt 0.8232 0.8843 0.0000
vt 0.8232 0.7793 0.0000
vt 0.6711 0.7793 0.0000
vt 0.6711 0.9855 0.0000
vt 0.2581 0.9855 0.0000
vt 0.3234 0.9543 0.0000
vt 0.2581 0.9232 0.0000
vt 0.5733 0.6586 0.0000
vt 0.6820 0.6003 0.0000
vt 0.8015 0.6586 0.0000
vt 0.6820 0.7170 0.0000
vt 0.5516 0.5536 0.0000
vt 0.0191 0.4524 0.0000
vt 0.2255 0.0167 0.0000
vt 0.0191 0.0167 0.0000
vt 0.2255 0.4524 0.0000
vt 0.0191 0.6081 0.0000
vt 0.2255 0.6081 0.0000
vt 0.0191 0.7131 0.0000
vt 0.6494 0.8921 0.0000
vt 0.3559 0.9699 0.0000
vt 0.2690 0.8065 0.0000
vt 0.6494 0.7831 0.0000
vt 0.4972 0.7131 0.0000
vt 0.4972 0.6081 0.0000
vt 0.2690 0.5847 0.0000
vt 0.4864 0.5847 0.0000
vt 0.4864 0.3163 0.0000
vt 0.2690 0.3163 0.0000
vt 0.4864 0.2384 0.0000
vt -0.7742 0.6042 0.0000
vt -0.9915 0.6042 0.0000
vt -0.8829 0.7131 0.0000
vt -0.5025 0.6042 0.0000
vt -0.5786 0.7131 0.0000
vt -0.6981 0.7870 0.0000
vt -0.5786 0.7520 0.0000
vt -0.5025 0.6859 0.0000
vt -0.4699 0.7676 0.0000
vt 1.7360 0.8999 0.0000
vt 1.7795 0.8999 0.0000
vt 1.7795 0.8532 0.0000
vt 1.7360 0.8532 0.0000
vt 1.7795 0.8065 0.0000
vt -0.4047 0.7403 0.0000
vt 0.6494 0.9699 0.0000
vt 1.4970 0.3007 0.0000
vt 1.4426 0.3746 0.0000
vt 1.4426 0.2423 0.0000
vt 1.4970 0.3746 0.0000
vt 1.7360 0.8065 0.0000
vt 1.7795 0.8843 0.0000
vt 1.7360 0.8843 0.0000
vt 1.5948 0.9154 0.0000
vt 1.6382 0.8376 0.0000
vt 1.5948 0.8376 0.0000
vt 1.6382 0.9154 0.0000
# 86 texture coords

o w00_013_00
g w00_013_00
usemtl Material__237
s 1
f 3/2/3 2/2/2 1/1/1 
f 2/2/2 3/2/3 4/2/4 
f 4/2/4 5/3/5 2/2/2 
f 5/3/5 4/2/4 6/4/6 
f 6/4/6 2/2/2 5/3/5 
f 2/2/2 6/4/6 7/5/7 
f 7/5/7 1/1/1 2/2/2 
f 1/1/1 7/5/7 8/6/8 
f 8/6/8 9/6/9 1/1/1 
f 9/6/9 8/6/8 10/5/10 
f 10/5/10 11/1/11 9/6/9 
f 11/1/11 10/5/10 4/2/4 
f 4/2/4 12/2/12 11/1/11 
f 12/2/12 4/2/4 3/2/3 
f 15/9/15 14/8/14 13/7/13 
f 13/7/13 16/10/16 15/9/15 
f 16/10/16 13/7/13 17/11/17 
f 17/11/17 18/9/18 16/10/16 
f 18/9/18 17/11/17 19/7/19 
f 19/7/19 14/8/14 18/9/18 
f 14/8/14 19/7/19 20/12/20 
f 20/12/20 13/7/13 14/8/14 
f 13/7/13 20/12/20 21/13/21 
f 21/13/21 22/14/22 13/7/13 
f 22/17/23 21/16/24 23/15/23 
f 23/15/23 24/18/25 22/17/23 
f 24/18/25 23/15/23 25/19/26 
f 25/19/26 26/17/27 24/18/25 
f 26/17/27 25/19/26 27/15/11 
f 27/15/11 21/16/24 26/17/27 
f 21/16/24 27/15/11 28/20/24 
f 28/20/24 23/15/23 21/16/24 
f 26/14/28 20/12/20 19/7/19 
f 19/7/19 24/21/29 26/14/28 
f 24/21/29 19/7/19 17/11/17 
f 17/11/17 22/14/22 24/21/29 
f 22/14/22 17/11/17 13/7/13 
f 31/24/23 30/23/23 29/22/23 
f 30/23/23 31/24/23 32/25/23 
f 32/25/23 33/26/23 30/23/23 
f 33/26/23 32/25/23 34/27/23 
f 37/26/19 36/27/19 35/25/19 
f 35/25/19 38/23/19 37/26/19 
f 38/23/19 35/25/19 39/24/19 
f 39/24/19 40/22/19 38/23/19 
f 43/30/19 42/29/17 41/28/19 
f 41/28/19 44/31/24 43/30/19 
f 44/31/24 41/28/19 45/32/24 
f 45/32/24 46/28/23 44/31/24 
f 47/33/17 41/28/19 42/29/17 
f 42/29/17 46/28/23 47/33/17 
f 46/28/23 42/29/17 48/30/23 
f 48/30/23 44/31/24 46/28/23 
f 6/4/6 4/2/4 10/5/10 
f 10/5/10 7/5/7 6/4/6 
f 7/5/7 10/5/10 8/6/8 
f 15/36/30 16/35/30 18/34/30 
f 18/34/30 14/35/30 15/36/30 
f 47/39/31 46/38/31 45/37/31 
f 45/37/31 41/40/31 47/39/31 
f 44/37/30 48/38/30 42/39/30 
f 42/39/30 43/40/30 44/37/30 
f 26/14/28 21/13/21 20/12/20 
f 32/25/23 49/41/23 34/27/23 
f 35/25/19 36/27/19 50/41/19 
f 11/1/11 1/1/1 9/6/9 
f 53/44/33 52/43/32 51/42/23 
f 51/42/23 54/43/34 53/44/33 
f 54/43/34 51/42/23 55/45/35 
f 55/45/35 56/44/36 54/43/34 
f 56/44/36 55/45/35 57/42/37 
f 57/42/37 52/43/32 56/44/36 
f 52/43/32 57/42/37 58/45/38 
f 58/45/38 51/42/23 52/43/32 
f 51/42/23 58/45/38 59/46/39 
f 59/46/39 55/45/35 51/42/23 
f 55/45/35 59/46/39 60/47/40 
f 60/47/40 61/46/41 55/45/35 
f 61/46/41 60/47/40 62/48/42 
f 65/51/45 64/50/44 63/49/43 
f 63/49/43 66/52/46 65/51/45 
f 66/52/46 63/49/43 67/51/47 
f 67/51/47 68/53/48 66/52/46 
f 68/53/48 67/51/47 62/48/42 
f 62/48/42 69/54/49 68/53/48 
f 69/54/49 62/48/42 60/47/40 
f 60/47/40 70/48/50 69/54/49 
f 70/48/50 60/47/40 59/46/39 
f 71/57/51 54/56/34 56/55/36 
f 56/55/36 72/58/52 71/57/51 
f 72/58/52 56/55/36 73/57/53 
f 73/57/53 74/59/31 72/58/52 
f 74/59/31 73/57/53 75/58/54 
f 75/58/54 71/57/51 74/59/31 
f 71/57/51 75/58/54 53/55/33 
f 53/55/33 54/56/34 71/57/51 
f 70/62/57 59/61/56 76/60/55 
f 76/60/55 77/63/58 70/62/57 
f 77/63/58 76/60/55 62/62/59 
f 62/62/59 78/64/60 77/63/58 
f 78/64/60 62/62/59 79/65/61 
f 79/65/61 80/66/62 78/64/60 
f 78/64/60 80/68/64 81/67/63 
f 81/67/63 77/63/58 78/64/60 
f 77/63/58 81/67/63 82/64/65 
f 82/64/65 70/62/57 77/63/58 
f 70/62/57 82/64/65 83/65/66 
f 76/47/67 59/46/39 58/45/38 
f 58/45/38 61/46/41 76/47/67 
f 61/46/41 58/45/38 57/42/37 
f 57/42/37 55/45/35 61/46/41 
f 65/71/70 70/70/69 84/69/68 
f 84/69/68 85/72/71 65/71/70 
f 85/72/71 84/69/68 67/71/72 
f 67/71/72 86/73/73 85/72/71 
f 87/68/74 82/64/65 81/67/63 
f 81/67/63 88/74/75 87/68/74 
f 88/74/75 81/67/63 80/68/64 
f 86/50/76 67/51/47 63/49/43 
f 63/49/43 89/75/77 86/50/76 
f 89/75/77 63/49/43 64/50/44 
f 89/78/80 64/77/79 90/76/78 
f 90/76/78 86/77/81 89/78/80 
f 86/77/81 90/76/78 91/79/30 
f 64/73/82 65/71/70 85/72/71 
f 85/72/71 91/80/83 64/73/82 
f 91/80/83 85/72/71 86/73/73 
f 92/82/86 79/81/85 84/72/84 
f 84/72/84 83/81/87 92/82/86 
f 83/81/87 84/72/84 70/71/88 
f 88/85/91 80/84/90 92/83/89 
f 92/83/89 87/84/92 88/85/91 
f 87/84/92 92/83/89 83/86/93 
f 65/51/45 66/52/46 68/53/48 
f 68/53/48 70/48/50 65/51/45 
f 70/48/50 68/53/48 69/54/49 
f 73/57/53 56/55/36 52/56/32 
f 52/56/32 75/58/54 73/57/53 
f 75/58/54 52/56/32 53/55/33 
f 83/65/66 82/64/65 87/66/94 
f 90/76/78 64/77/79 91/79/30 
f 79/81/85 62/71/95 84/72/84 
f 80/84/90 79/86/96 92/83/89 
f 61/61/97 62/62/59 76/60/55 
f 84/69/68 62/70/98 67/71/72 
f 71/57/51 72/58/52 74/59/31 
# 146 faces

