# 3ds Max Wavefront OBJ Exporter v0.97b - (c)2007 guruware
# File Created: 06.08.2019 17:02:52

mtllib Elucidator59f.mtl

#
# object w00_013_00
#

v  -0.7401 0.6084 0.1353
v  -0.7360 0.6151 0.0996
v  -0.7230 0.6215 0.1142
v  -0.7477 0.6338 0.1018
v  -0.7051 0.6526 0.0555
v  -0.7241 0.6432 0.0343
v  -0.7550 0.6057 0.0784
v  -0.8152 0.5713 0.0511
v  -0.8269 0.5900 0.0533
v  -0.7667 0.6244 0.0805
v  -0.7518 0.6271 0.1375
v  -0.7347 0.6403 0.1164
v  -0.5941 0.7276 0.3056
v  -0.5583 0.7159 0.3008
v  -0.5786 0.7235 0.3156
v  -0.5794 0.6997 0.3267
v  -0.5953 0.6902 0.3232
v  -0.5591 0.6921 0.3120
v  -0.5633 0.6782 0.2999
v  -0.5621 0.7156 0.2823
v  -0.5780 0.7061 0.2787
v  -0.5983 0.7137 0.2935
v  -0.7438 0.6418 0.1305
v  -0.5991 0.6900 0.3047
v  -0.7445 0.6181 0.1417
v  -0.5787 0.6824 0.2899
v  -0.7242 0.6105 0.1269
v  -0.7234 0.6342 0.1157
v  -0.6947 0.6745 0.0568
v  -0.7300 0.6475 0.1002
v  -0.7319 0.6561 0.0151
v  -0.7671 0.6291 0.0586
v  -0.7699 0.6168 0.1494
v  -0.8747 0.5650 0.0320
v  -0.7533 0.6069 0.0560
v  -0.8609 0.5429 0.0294
v  -0.7561 0.5947 0.1469
v  -0.7161 0.6253 0.0977
v  -0.7180 0.6339 0.0126
v  -0.6808 0.6523 0.0543
v  -0.7275 0.5984 0.1167
v  -0.7467 0.6155 0.1519
v  -0.7160 0.6040 0.1296
v  -0.7149 0.6399 0.1127
v  -0.7263 0.6342 0.0999
v  -0.7570 0.6457 0.1222
v  -0.7582 0.6099 0.1391
v  -0.7456 0.6514 0.1350
v  -0.8347 0.5956 -0.0172
v  -0.8209 0.5735 -0.0197
v  -0.8524 0.5794 0.0034
v  -1.0851 0.4475 -0.2218
v  -1.0725 0.4706 -0.2432
v  -1.0486 0.4755 -0.2668
v  -0.8285 0.5844 -0.0202
v  -1.0612 0.4525 -0.2453
v  -0.8411 0.5613 0.0013
v  -0.8650 0.5564 0.0248
v  -0.8230 0.5939 0.0363
v  -0.7999 0.5998 0.0007
v  -0.8117 0.5759 0.0342
v  -0.7951 0.5841 0.0529
v  -0.7118 0.6522 0.0226
v  -0.7183 0.6494 0.0670
v  -0.7584 0.6296 0.0434
v  -0.7335 0.6403 0.0085
v  -0.7505 0.6170 0.0419
v  -0.7599 0.6245 0.0030
v  -0.7755 0.6170 -0.0169
v  -0.8063 0.6022 0.0550
v  -1.2834 0.3594 -0.5299
v  -1.2960 0.3364 -0.5085
v  -1.3199 0.3314 -0.4849
v  -1.3696 0.3118 -0.5836
v  -1.3073 0.3544 -0.5064
v  -0.8460 0.5645 0.0574
v  -0.8636 0.5496 0.0915
v  -0.8328 0.5635 0.0957
v  -0.8101 0.5758 0.1089
v  -0.8259 0.5671 0.1117
v  -0.8421 0.5614 0.1051
v  -0.8371 0.5703 0.0965
v  -0.8147 0.5831 0.1098
v  -0.7938 0.5965 0.0617
v  -0.7552 0.6216 0.0532
v  -0.7127 0.6403 0.0659
v  -0.8292 0.5723 0.1123
v  -0.8325 0.5651 0.1255
v  -0.6798 0.6721 0.0226
v  -0.6885 0.6637 0.0487
v  -0.7131 0.6449 0.0789
v  -0.8039 0.5836 0.1195
# 92 vertices

vn -0.1232 0.9438 -0.3066
vn -0.8087 0.5707 0.1423
vn -0.7436 -0.0113 0.6685
vn 0.0278 -0.9931 0.1142
vn -0.7810 -0.4355 -0.4476
vn 0.2057 0.0155 0.9785
vn -0.3743 0.7168 0.5883
vn -0.3177 0.4815 0.8168
vn 0.9142 -0.1608 -0.3720
vn 0.3932 -0.7022 0.5936
vn 0.6793 -0.6636 -0.3133
vn -0.0292 -0.9046 0.4252
vn -0.3779 0.9235 0.0660
vn 0.8262 0.5355 -0.1752
vn -0.0765 0.8732 0.4813
vn -0.2462 0.0487 0.9680
vn -0.5680 -0.4348 0.6988
vn 0.6132 -0.6160 0.4944
vn 0.5267 -0.8444 -0.0974
vn 0.5700 0.2168 -0.7925
vn -0.0330 0.3989 -0.9164
vn -0.9143 0.3856 -0.1240
vn -0.5267 0.8445 0.0974
vn 0.5680 0.4349 -0.6988
vn -0.7054 -0.1455 0.6937
vn -0.3723 -0.6796 0.6321
vn 0.3201 -0.9386 0.1286
vn 0.2243 -0.7268 -0.6492
vn -0.6570 -0.7402 0.1432
vn 0.6324 0.3127 0.7087
vn -0.6324 -0.3127 -0.7087
vn -0.7299 -0.0658 0.6804
vn -0.4879 0.8714 0.0508
vn 0.2149 0.8082 -0.5484
vn 0.7053 0.0273 -0.7084
vn 0.5530 -0.8229 -0.1304
vn 0.4879 -0.8714 -0.0508
vn -0.6059 -0.4533 0.6538
vn -0.5099 0.8591 0.0443
vn 0.2185 0.2452 -0.9445
vn 0.5418 -0.8270 -0.1502
vn 0.5509 -0.7923 -0.2623
vn 0.3351 0.3116 -0.8892
vn -0.4849 0.8744 -0.0151
vn -0.4762 0.8773 -0.0596
vn 0.2347 0.2546 -0.9381
vn 0.5623 -0.7877 -0.2516
vn 0.2323 0.2532 -0.9391
vn -0.0789 0.0655 -0.9947
vn -0.4864 0.8709 -0.0705
vn 0.5026 0.4018 -0.7655
vn 0.4947 -0.8589 -0.1324
vn -0.2775 -0.8362 0.4731
vn -0.5878 0.8007 0.1154
vn -0.8370 -0.5352 0.1138
vn -0.6541 0.7056 0.2724
vn -0.6400 0.7558 0.1387
vn -0.7821 -0.5263 0.3337
vn 0.4017 -0.9142 -0.0539
vn 0.4148 -0.9092 0.0370
vn 0.4805 -0.8770 -0.0077
vn 0.4831 -0.8755 -0.0135
vn -0.5980 -0.4495 0.6636
vn 0.3094 -0.9496 0.0508
vn -0.6203 0.7504 0.2284
vn -0.5670 0.8025 0.1860
vn -0.6913 -0.4922 0.5290
vn 0.2374 0.0361 0.9707
vn -0.1510 0.5980 0.7871
vn -0.3636 0.6134 0.7011
vn -0.1465 -0.2030 0.9682
vn 0.4557 -0.7002 0.5496
vn 0.2710 -0.8804 0.3892
vn -0.7017 0.6716 0.2378
vn -0.7386 -0.5113 0.4394
vn 0.5605 -0.8016 -0.2083
vn -0.0530 0.0817 -0.9952
vn 0.6971 0.3635 0.6180
vn -0.2565 0.9179 0.3029
vn 0.7946 0.4484 0.4092
vn 0.7334 -0.6692 0.1199
vn -0.6226 0.5523 0.5544
vn -0.3568 -0.3236 0.8763
vn 0.8133 0.4673 0.3466
vn 0.8878 -0.4469 0.1098
vn 0.8334 0.4904 0.2549
vn 0.0089 0.9622 0.2723
vn 0.2222 0.9100 0.3501
vn 0.1058 -0.0485 0.9932
vn 0.5328 -0.8155 0.2260
vn 0.1989 0.0111 0.9799
vn -0.4650 0.7844 0.4105
vn -0.4663 0.7429 0.4803
vn -0.5651 0.8051 0.1803
vn 0.9443 -0.2477 0.2166
vn 0.5025 -0.8104 0.3012
vn 0.3644 -0.9274 0.0840
vn 0.5455 -0.5186 0.6584
# 98 vertex normals

vt 0.7254 0.5925 0.0000
vt 0.6602 0.5925 0.0000
vt 0.5950 0.5925 0.0000
vt 0.5950 0.6470 0.0000
vt 0.6711 0.6470 0.0000
vt 0.7254 0.7403 0.0000
vt 0.1169 0.8843 0.0000
vt 0.2255 0.8182 0.0000
vt 0.2255 0.8843 0.0000
vt 0.2255 0.9505 0.0000
vt 0.1169 0.9894 0.0000
vt 0.1169 0.7831 0.0000
vt 0.0191 0.8182 0.0000
vt 0.0191 0.8843 0.0000
vt 0.9210 0.9933 0.0000
vt 0.9862 0.7053 0.0000
vt 0.9210 0.7053 0.0000
vt 0.8558 0.7053 0.0000
vt 0.8558 0.9933 0.0000
vt 0.9862 0.9933 0.0000
vt 0.0191 0.9505 0.0000
vt 0.2581 0.0011 0.0000
vt 0.5516 0.0011 0.0000
vt 0.2581 0.1995 0.0000
vt 0.5516 0.1995 0.0000
vt 0.9971 0.0011 0.0000
vt 0.9971 0.5536 0.0000
vt 0.6711 0.8843 0.0000
vt 0.8232 0.9855 0.0000
vt 0.8232 0.8843 0.0000
vt 0.8232 0.7793 0.0000
vt 0.6711 0.7793 0.0000
vt 0.6711 0.9855 0.0000
vt 0.2581 0.9855 0.0000
vt 0.3234 0.9543 0.0000
vt 0.2581 0.9232 0.0000
vt 0.5733 0.6586 0.0000
vt 0.6820 0.6003 0.0000
vt 0.8015 0.6586 0.0000
vt 0.6820 0.7170 0.0000
vt 0.5516 0.5536 0.0000
vt 0.0191 0.4524 0.0000
vt 0.2255 0.0167 0.0000
vt 0.0191 0.0167 0.0000
vt 0.2255 0.4524 0.0000
vt 0.0191 0.6081 0.0000
vt 0.2255 0.6081 0.0000
vt 0.0191 0.7131 0.0000
vt 0.6494 0.8921 0.0000
vt 0.3559 0.9699 0.0000
vt 0.2690 0.8065 0.0000
vt 0.6494 0.7831 0.0000
vt 0.4972 0.7131 0.0000
vt 0.4972 0.6081 0.0000
vt 0.2690 0.5847 0.0000
vt 0.4864 0.5847 0.0000
vt 0.4864 0.3163 0.0000
vt 0.2690 0.3163 0.0000
vt 0.4864 0.2384 0.0000
vt -0.7742 0.6042 0.0000
vt -0.9915 0.6042 0.0000
vt -0.8829 0.7131 0.0000
vt -0.5025 0.6042 0.0000
vt -0.5786 0.7131 0.0000
vt -0.6981 0.7870 0.0000
vt -0.5786 0.7520 0.0000
vt -0.5025 0.6859 0.0000
vt -0.4699 0.7676 0.0000
vt 1.7360 0.8999 0.0000
vt 1.7795 0.8999 0.0000
vt 1.7795 0.8532 0.0000
vt 1.7360 0.8532 0.0000
vt 1.7795 0.8065 0.0000
vt -0.4047 0.7403 0.0000
vt 0.6494 0.9699 0.0000
vt 1.4970 0.3007 0.0000
vt 1.4426 0.3746 0.0000
vt 1.4426 0.2423 0.0000
vt 1.4970 0.3746 0.0000
vt 1.7360 0.8065 0.0000
vt 1.7795 0.8843 0.0000
vt 1.7360 0.8843 0.0000
vt 1.5948 0.9154 0.0000
vt 1.6382 0.8376 0.0000
vt 1.5948 0.8376 0.0000
vt 1.6382 0.9154 0.0000
# 86 texture coords

o w00_013_00
g w00_013_00
usemtl Material__237
s 1
f 3/2/3 2/2/2 1/1/1 
f 2/2/2 3/2/3 4/2/4 
f 4/2/4 5/3/5 2/2/2 
f 5/3/5 4/2/4 6/4/6 
f 6/4/6 2/2/2 5/3/5 
f 2/2/2 6/4/6 7/5/7 
f 7/5/7 1/1/1 2/2/2 
f 1/1/1 7/5/7 8/6/8 
f 8/6/8 9/6/9 1/1/1 
f 9/6/9 8/6/8 10/5/10 
f 10/5/10 11/1/11 9/6/9 
f 11/1/11 10/5/10 4/2/4 
f 4/2/4 12/2/12 11/1/11 
f 12/2/12 4/2/4 3/2/3 
f 15/9/15 14/8/14 13/7/13 
f 13/7/13 16/10/16 15/9/15 
f 16/10/16 13/7/13 17/11/17 
f 17/11/17 18/9/18 16/10/16 
f 18/9/18 17/11/17 19/7/19 
f 19/7/19 14/8/14 18/9/18 
f 14/8/14 19/7/19 20/12/20 
f 20/12/20 13/7/13 14/8/14 
f 13/7/13 20/12/20 21/13/21 
f 21/13/21 22/14/22 13/7/13 
f 22/17/23 21/16/24 23/15/23 
f 23/15/23 24/18/25 22/17/23 
f 24/18/25 23/15/23 25/19/26 
f 25/19/26 26/17/27 24/18/25 
f 26/17/27 25/19/26 27/15/11 
f 27/15/11 21/16/24 26/17/27 
f 21/16/24 27/15/11 28/20/24 
f 28/20/24 23/15/23 21/16/24 
f 26/14/28 20/12/20 19/7/19 
f 19/7/19 24/21/29 26/14/28 
f 24/21/29 19/7/19 17/11/17 
f 17/11/17 22/14/22 24/21/29 
f 22/14/22 17/11/17 13/7/13 
f 31/24/23 30/23/23 29/22/23 
f 30/23/23 31/24/23 32/25/23 
f 32/25/23 33/26/23 30/23/23 
f 33/26/23 32/25/23 34/27/23 
f 37/26/19 36/27/19 35/25/19 
f 35/25/19 38/23/19 37/26/19 
f 38/23/19 35/25/19 39/24/19 
f 39/24/19 40/22/19 38/23/19 
f 43/30/19 42/29/17 41/28/19 
f 41/28/19 44/31/24 43/30/19 
f 44/31/24 41/28/19 45/32/24 
f 45/32/24 46/28/23 44/31/24 
f 47/33/17 41/28/19 42/29/17 
f 42/29/17 46/28/23 47/33/17 
f 46/28/23 42/29/17 48/30/23 
f 48/30/23 44/31/24 46/28/23 
f 6/4/6 4/2/4 10/5/10 
f 10/5/10 7/5/7 6/4/6 
f 7/5/7 10/5/10 8/6/8 
f 15/36/30 16/35/30 18/34/30 
f 18/34/30 14/35/30 15/36/30 
f 47/39/31 46/38/31 45/37/31 
f 45/37/31 41/40/31 47/39/31 
f 44/37/30 48/38/30 42/39/30 
f 42/39/30 43/40/30 44/37/30 
f 26/14/28 21/13/21 20/12/20 
f 32/25/23 49/41/23 34/27/23 
f 35/25/19 36/27/19 50/41/19 
f 11/1/11 1/1/1 9/6/9 
f 53/44/33 52/43/32 51/42/23 
f 51/42/23 54/43/34 53/44/33 
f 54/43/34 51/42/23 55/45/35 
f 55/45/35 56/44/36 54/43/34 
f 56/44/36 55/45/35 57/42/37 
f 57/42/37 52/43/32 56/44/36 
f 52/43/32 57/42/37 58/45/38 
f 58/45/38 51/42/23 52/43/32 
f 51/42/23 58/45/38 59/46/39 
f 59/46/39 55/45/35 51/42/23 
f 55/45/35 59/46/39 60/47/40 
f 60/47/40 61/46/41 55/45/35 
f 61/46/41 60/47/40 62/48/42 
f 65/51/45 64/50/44 63/49/43 
f 63/49/43 66/52/46 65/51/45 
f 66/52/46 63/49/43 67/51/47 
f 67/51/47 68/53/48 66/52/46 
f 68/53/48 67/51/47 62/48/42 
f 62/48/42 69/54/49 68/53/48 
f 69/54/49 62/48/42 60/47/40 
f 60/47/40 70/48/50 69/54/49 
f 70/48/50 60/47/40 59/46/39 
f 71/57/51 54/56/34 56/55/36 
f 56/55/36 72/58/52 71/57/51 
f 72/58/52 56/55/36 73/57/53 
f 73/57/53 74/59/31 72/58/52 
f 74/59/31 73/57/53 75/58/54 
f 75/58/54 71/57/51 74/59/31 
f 71/57/51 75/58/54 53/55/33 
f 53/55/33 54/56/34 71/57/51 
f 70/62/57 59/61/56 76/60/55 
f 76/60/55 77/63/58 70/62/57 
f 77/63/58 76/60/55 62/62/59 
f 62/62/59 78/64/60 77/63/58 
f 78/64/60 62/62/59 79/65/61 
f 79/65/61 80/66/62 78/64/60 
f 78/64/60 80/68/64 81/67/63 
f 81/67/63 77/63/58 78/64/60 
f 77/63/58 81/67/63 82/64/65 
f 82/64/65 70/62/57 77/63/58 
f 70/62/57 82/64/65 83/65/66 
f 76/47/67 59/46/39 58/45/38 
f 58/45/38 61/46/41 76/47/67 
f 61/46/41 58/45/38 57/42/37 
f 57/42/37 55/45/35 61/46/41 
f 65/71/70 70/70/69 84/69/68 
f 84/69/68 85/72/71 65/71/70 
f 85/72/71 84/69/68 67/71/72 
f 67/71/72 86/73/73 85/72/71 
f 87/68/74 82/64/65 81/67/63 
f 81/67/63 88/74/75 87/68/74 
f 88/74/75 81/67/63 80/68/64 
f 86/50/76 67/51/47 63/49/43 
f 63/49/43 89/75/77 86/50/76 
f 89/75/77 63/49/43 64/50/44 
f 89/78/80 64/77/79 90/76/78 
f 90/76/78 86/77/81 89/78/80 
f 86/77/81 90/76/78 91/79/30 
f 64/73/82 65/71/70 85/72/71 
f 85/72/71 91/80/83 64/73/82 
f 91/80/83 85/72/71 86/73/73 
f 92/82/86 79/81/85 84/72/84 
f 84/72/84 83/81/87 92/82/86 
f 83/81/87 84/72/84 70/71/88 
f 88/85/91 80/84/90 92/83/89 
f 92/83/89 87/84/92 88/85/91 
f 87/84/92 92/83/89 83/86/93 
f 65/51/45 66/52/46 68/53/48 
f 68/53/48 70/48/50 65/51/45 
f 70/48/50 68/53/48 69/54/49 
f 73/57/53 56/55/36 52/56/32 
f 52/56/32 75/58/54 73/57/53 
f 75/58/54 52/56/32 53/55/33 
f 83/65/66 82/64/65 87/66/94 
f 90/76/78 64/77/79 91/79/30 
f 79/81/85 62/71/95 84/72/84 
f 80/84/90 79/86/96 92/83/89 
f 61/61/97 62/62/59 76/60/55 
f 84/69/68 62/70/98 67/71/72 
f 71/57/51 72/58/52 74/59/31 
# 146 faces

