# 3ds Max Wavefront OBJ Exporter v0.97b - (c)2007 guruware
# File Created: 06.08.2019 17:02:35

mtllib Elucidator34f.mtl

#
# object w00_013_00
#

v  -0.2028 0.7570 0.5546
v  -0.1687 0.7496 0.5438
v  -0.1842 0.7539 0.5310
v  -0.1738 0.7280 0.5427
v  -0.1314 0.7321 0.4928
v  -0.1088 0.7258 0.5114
v  -0.1461 0.7433 0.5625
v  -0.1132 0.7320 0.6285
v  -0.1183 0.7105 0.6274
v  -0.1512 0.7217 0.5614
v  -0.2079 0.7355 0.5535
v  -0.1893 0.7323 0.5299
v  -0.3911 0.7689 0.3845
v  -0.3847 0.7986 0.3618
v  -0.4004 0.7825 0.3753
v  -0.4075 0.8025 0.3908
v  -0.4024 0.8003 0.4088
v  -0.3918 0.8186 0.3772
v  -0.3777 0.8257 0.3875
v  -0.3664 0.7942 0.3631
v  -0.3612 0.7921 0.3811
v  -0.3769 0.7760 0.3947
v  -0.2034 0.7276 0.5378
v  -0.3841 0.7959 0.4101
v  -0.2106 0.7475 0.5532
v  -0.3684 0.8120 0.3966
v  -0.1949 0.7637 0.5397
v  -0.1878 0.7437 0.5242
v  -0.1363 0.7208 0.4718
v  -0.1746 0.7273 0.5203
v  -0.0920 0.7085 0.5084
v  -0.1302 0.7149 0.5569
v  -0.2179 0.7346 0.5753
v  -0.0929 0.6997 0.6784
v  -0.1242 0.7404 0.5582
v  -0.0869 0.7252 0.6797
v  -0.2119 0.7601 0.5766
v  -0.1686 0.7528 0.5216
v  -0.0860 0.7340 0.5097
v  -0.1303 0.7463 0.4731
v  -0.1829 0.7701 0.5483
v  -0.2202 0.7496 0.5575
v  -0.1966 0.7739 0.5370
v  -0.1857 0.7438 0.5137
v  -0.1721 0.7400 0.5249
v  -0.1958 0.7156 0.5454
v  -0.2066 0.7458 0.5687
v  -0.2094 0.7194 0.5342
v  -0.0496 0.6924 0.6234
v  -0.0436 0.7179 0.6247
v  -0.0672 0.6977 0.6491
v  0.1779 0.6382 0.8913
v  0.1953 0.6245 0.8656
v  0.2175 0.6315 0.8410
v  -0.0449 0.7047 0.6245
v  0.2002 0.6453 0.8667
v  -0.0623 0.7185 0.6502
v  -0.0845 0.7114 0.6748
v  -0.1022 0.7075 0.6202
v  -0.0682 0.7118 0.5946
v  -0.0973 0.7283 0.6213
v  -0.1172 0.7338 0.6049
v  -0.0989 0.7243 0.4950
v  -0.1421 0.7284 0.5064
v  -0.1154 0.7177 0.5479
v  -0.0829 0.7193 0.5182
v  -0.1119 0.7322 0.5487
v  -0.0747 0.7158 0.5481
v  -0.0537 0.7101 0.5630
v  -0.1221 0.7130 0.6038
v  0.4975 0.5534 1.0720
v  0.4802 0.5672 1.0977
v  0.4579 0.5601 1.1223
v  0.5588 0.5341 1.1641
v  0.4753 0.5464 1.0966
v  -0.1181 0.7202 0.6579
v  -0.1493 0.7262 0.6843
v  -0.1559 0.7336 0.6517
v  -0.1710 0.7388 0.6275
v  -0.1723 0.7369 0.6456
v  -0.1647 0.7310 0.6614
v  -0.1577 0.7257 0.6513
v  -0.1730 0.7304 0.6270
v  -0.1278 0.7257 0.5976
v  -0.1238 0.7272 0.5509
v  -0.1397 0.7388 0.5070
v  -0.1737 0.7308 0.6453
v  -0.1855 0.7364 0.6535
v  -0.1023 0.7270 0.4577
v  -0.1266 0.7320 0.4722
v  -0.1532 0.7365 0.5060
v  -0.1828 0.7375 0.6190
# 92 vertices

vn 0.1509 -0.8665 -0.4759
vn -0.2272 -0.9126 0.3399
vn -0.6530 -0.3418 0.6759
vn 0.0476 0.8255 0.5623
vn 0.5173 -0.1660 0.8396
vn -0.9695 0.2325 -0.0778
vn -0.6939 -0.7182 -0.0517
vn -0.8818 -0.4677 0.0611
vn 0.3870 0.6171 -0.6851
vn -0.4749 0.8678 0.1463
vn 0.4119 0.8893 -0.1986
vn -0.2733 0.7609 0.5886
vn -0.2119 -0.9521 -0.2204
vn 0.0808 0.0333 -0.9962
vn -0.6155 -0.6825 -0.3941
vn -0.9615 -0.0602 0.2682
vn -0.6155 0.1040 0.7812
vn -0.3924 0.9152 -0.0917
vn 0.2290 0.9721 0.0511
vn 0.7432 0.0599 -0.6663
vn 0.8401 -0.4550 -0.2953
vn 0.0662 -0.8601 0.5058
vn -0.2290 -0.9721 -0.0511
vn 0.6155 -0.1039 -0.7812
vn -0.6563 -0.2088 0.7250
vn -0.5115 0.4060 0.7573
vn 0.0226 0.9551 0.2955
vn 0.7566 0.6306 0.1730
vn -0.0173 0.2255 0.9741
vn -0.7541 0.2104 -0.6221
vn 0.7541 -0.2104 0.6221
vn -0.6559 -0.2886 0.6975
vn -0.1877 -0.9768 -0.1028
vn 0.4091 -0.5905 -0.6956
vn 0.6900 0.3014 -0.6581
vn 0.2579 0.9661 0.0140
vn 0.1877 0.9768 0.1028
vn -0.5679 0.0908 0.8181
vn -0.1791 -0.9807 -0.0785
vn 0.8910 -0.1882 -0.4131
vn 0.2782 0.9602 0.0236
vn 0.3831 0.9236 -0.0151
vn 0.8249 -0.1659 -0.5404
vn -0.1232 -0.9859 -0.1135
vn -0.0798 -0.9887 -0.1267
vn 0.8831 -0.1854 -0.4310
vn 0.3718 0.9279 -0.0260
vn 0.8843 -0.1858 -0.4284
vn 0.9716 -0.2251 -0.0734
vn -0.0679 -0.9909 -0.1158
vn 0.6871 -0.1243 -0.7158
vn 0.2661 0.9605 0.0819
vn -0.3299 0.5667 0.7550
vn -0.2394 -0.9706 0.0255
vn -0.0202 -0.0477 0.9987
vn -0.3784 -0.9134 0.1498
vn -0.2547 -0.9622 0.0960
vn -0.2390 0.0053 0.9710
vn 0.1983 0.9601 0.1971
vn 0.1076 0.9754 0.1926
vn 0.1461 0.9824 0.1163
vn 0.1515 0.9820 0.1127
vn -0.5782 0.0936 0.8105
vn 0.1012 0.9477 0.3027
vn -0.3425 -0.9350 0.0922
vn -0.3094 -0.9508 0.0146
vn -0.4378 0.0560 0.8973
vn -0.9654 0.2336 -0.1161
vn -0.8724 -0.4670 -0.1443
vn -0.7885 -0.6149 0.0105
vn -0.9216 0.1996 0.3328
vn -0.4322 0.8972 0.0900
vn -0.2436 0.9128 0.3277
vn -0.3385 -0.9185 0.2046
vn -0.3460 0.0322 0.9377
vn 0.3314 0.9434 -0.0121
vn 0.9693 -0.2229 -0.1038
vn -0.6732 0.1961 -0.7130
vn -0.4455 -0.8464 -0.2919
vn -0.4816 0.1588 -0.8619
vn -0.0151 0.9805 -0.1959
vn -0.6322 -0.7364 0.2410
vn -0.8101 0.1612 0.5637
vn -0.4230 0.1467 -0.8942
vn -0.0421 0.8919 -0.4503
vn -0.3363 0.1283 -0.9330
vn -0.4243 -0.7302 -0.5356
vn -0.4940 -0.5535 -0.6705
vn -0.9730 0.2271 0.0417
vn -0.0948 0.9936 0.0618
vn -0.9702 0.2322 -0.0696
vn -0.5287 -0.8481 -0.0351
vn -0.5909 -0.8068 -0.0031
vn -0.3042 -0.9525 0.0110
vn -0.1800 0.7791 -0.6005
vn -0.1696 0.9813 0.0909
vn 0.0645 0.9664 0.2486
vn -0.5695 0.8184 -0.0767
# 98 vertex normals

vt 0.7254 0.5925 0.0000
vt 0.6602 0.5925 0.0000
vt 0.5950 0.5925 0.0000
vt 0.5950 0.6470 0.0000
vt 0.6711 0.6470 0.0000
vt 0.7254 0.7403 0.0000
vt 0.1169 0.8843 0.0000
vt 0.2255 0.8182 0.0000
vt 0.2255 0.8843 0.0000
vt 0.2255 0.9505 0.0000
vt 0.1169 0.9894 0.0000
vt 0.1169 0.7831 0.0000
vt 0.0191 0.8182 0.0000
vt 0.0191 0.8843 0.0000
vt 0.9210 0.9933 0.0000
vt 0.9862 0.7053 0.0000
vt 0.9210 0.7053 0.0000
vt 0.8558 0.7053 0.0000
vt 0.8558 0.9933 0.0000
vt 0.9862 0.9933 0.0000
vt 0.0191 0.9505 0.0000
vt 0.2581 0.0011 0.0000
vt 0.5516 0.0011 0.0000
vt 0.2581 0.1995 0.0000
vt 0.5516 0.1995 0.0000
vt 0.9971 0.0011 0.0000
vt 0.9971 0.5536 0.0000
vt 0.6711 0.8843 0.0000
vt 0.8232 0.9855 0.0000
vt 0.8232 0.8843 0.0000
vt 0.8232 0.7793 0.0000
vt 0.6711 0.7793 0.0000
vt 0.6711 0.9855 0.0000
vt 0.2581 0.9855 0.0000
vt 0.3234 0.9543 0.0000
vt 0.2581 0.9232 0.0000
vt 0.5733 0.6586 0.0000
vt 0.6820 0.6003 0.0000
vt 0.8015 0.6586 0.0000
vt 0.6820 0.7170 0.0000
vt 0.5516 0.5536 0.0000
vt 0.0191 0.4524 0.0000
vt 0.2255 0.0167 0.0000
vt 0.0191 0.0167 0.0000
vt 0.2255 0.4524 0.0000
vt 0.0191 0.6081 0.0000
vt 0.2255 0.6081 0.0000
vt 0.0191 0.7131 0.0000
vt 0.6494 0.8921 0.0000
vt 0.3559 0.9699 0.0000
vt 0.2690 0.8065 0.0000
vt 0.6494 0.7831 0.0000
vt 0.4972 0.7131 0.0000
vt 0.4972 0.6081 0.0000
vt 0.2690 0.5847 0.0000
vt 0.4864 0.5847 0.0000
vt 0.4864 0.3163 0.0000
vt 0.2690 0.3163 0.0000
vt 0.4864 0.2384 0.0000
vt -0.7742 0.6042 0.0000
vt -0.9915 0.6042 0.0000
vt -0.8829 0.7131 0.0000
vt -0.5025 0.6042 0.0000
vt -0.5786 0.7131 0.0000
vt -0.6981 0.7870 0.0000
vt -0.5786 0.7520 0.0000
vt -0.5025 0.6859 0.0000
vt -0.4699 0.7676 0.0000
vt 1.7360 0.8999 0.0000
vt 1.7795 0.8999 0.0000
vt 1.7795 0.8532 0.0000
vt 1.7360 0.8532 0.0000
vt 1.7795 0.8065 0.0000
vt -0.4047 0.7403 0.0000
vt 0.6494 0.9699 0.0000
vt 1.4970 0.3007 0.0000
vt 1.4426 0.3746 0.0000
vt 1.4426 0.2423 0.0000
vt 1.4970 0.3746 0.0000
vt 1.7360 0.8065 0.0000
vt 1.7795 0.8843 0.0000
vt 1.7360 0.8843 0.0000
vt 1.5948 0.9154 0.0000
vt 1.6382 0.8376 0.0000
vt 1.5948 0.8376 0.0000
vt 1.6382 0.9154 0.0000
# 86 texture coords

o w00_013_00
g w00_013_00
usemtl Material__237
s 1
f 3/2/3 2/2/2 1/1/1 
f 2/2/2 3/2/3 4/2/4 
f 4/2/4 5/3/5 2/2/2 
f 5/3/5 4/2/4 6/4/6 
f 6/4/6 2/2/2 5/3/5 
f 2/2/2 6/4/6 7/5/7 
f 7/5/7 1/1/1 2/2/2 
f 1/1/1 7/5/7 8/6/8 
f 8/6/8 9/6/9 1/1/1 
f 9/6/9 8/6/8 10/5/10 
f 10/5/10 11/1/11 9/6/9 
f 11/1/11 10/5/10 4/2/4 
f 4/2/4 12/2/12 11/1/11 
f 12/2/12 4/2/4 3/2/3 
f 15/9/15 14/8/14 13/7/13 
f 13/7/13 16/10/16 15/9/15 
f 16/10/16 13/7/13 17/11/17 
f 17/11/17 18/9/18 16/10/16 
f 18/9/18 17/11/17 19/7/19 
f 19/7/19 14/8/14 18/9/18 
f 14/8/14 19/7/19 20/12/20 
f 20/12/20 13/7/13 14/8/14 
f 13/7/13 20/12/20 21/13/21 
f 21/13/21 22/14/22 13/7/13 
f 22/17/23 21/16/24 23/15/23 
f 23/15/23 24/18/25 22/17/23 
f 24/18/25 23/15/23 25/19/26 
f 25/19/26 26/17/27 24/18/25 
f 26/17/27 25/19/26 27/15/11 
f 27/15/11 21/16/24 26/17/27 
f 21/16/24 27/15/11 28/20/24 
f 28/20/24 23/15/23 21/16/24 
f 26/14/28 20/12/20 19/7/19 
f 19/7/19 24/21/29 26/14/28 
f 24/21/29 19/7/19 17/11/17 
f 17/11/17 22/14/22 24/21/29 
f 22/14/22 17/11/17 13/7/13 
f 31/24/23 30/23/23 29/22/23 
f 30/23/23 31/24/23 32/25/23 
f 32/25/23 33/26/23 30/23/23 
f 33/26/23 32/25/23 34/27/23 
f 37/26/19 36/27/19 35/25/19 
f 35/25/19 38/23/19 37/26/19 
f 38/23/19 35/25/19 39/24/19 
f 39/24/19 40/22/19 38/23/19 
f 43/30/19 42/29/17 41/28/19 
f 41/28/19 44/31/24 43/30/19 
f 44/31/24 41/28/19 45/32/24 
f 45/32/24 46/28/23 44/31/24 
f 47/33/17 41/28/19 42/29/17 
f 42/29/17 46/28/23 47/33/17 
f 46/28/23 42/29/17 48/30/23 
f 48/30/23 44/31/24 46/28/23 
f 6/4/6 4/2/4 10/5/10 
f 10/5/10 7/5/7 6/4/6 
f 7/5/7 10/5/10 8/6/8 
f 15/36/30 16/35/30 18/34/30 
f 18/34/30 14/35/30 15/36/30 
f 47/39/31 46/38/31 45/37/31 
f 45/37/31 41/40/31 47/39/31 
f 44/37/30 48/38/30 42/39/30 
f 42/39/30 43/40/30 44/37/30 
f 26/14/28 21/13/21 20/12/20 
f 32/25/23 49/41/23 34/27/23 
f 35/25/19 36/27/19 50/41/19 
f 11/1/11 1/1/1 9/6/9 
f 53/44/33 52/43/32 51/42/23 
f 51/42/23 54/43/34 53/44/33 
f 54/43/34 51/42/23 55/45/35 
f 55/45/35 56/44/36 54/43/34 
f 56/44/36 55/45/35 57/42/37 
f 57/42/37 52/43/32 56/44/36 
f 52/43/32 57/42/37 58/45/38 
f 58/45/38 51/42/23 52/43/32 
f 51/42/23 58/45/38 59/46/39 
f 59/46/39 55/45/35 51/42/23 
f 55/45/35 59/46/39 60/47/40 
f 60/47/40 61/46/41 55/45/35 
f 61/46/41 60/47/40 62/48/42 
f 65/51/45 64/50/44 63/49/43 
f 63/49/43 66/52/46 65/51/45 
f 66/52/46 63/49/43 67/51/47 
f 67/51/47 68/53/48 66/52/46 
f 68/53/48 67/51/47 62/48/42 
f 62/48/42 69/54/49 68/53/48 
f 69/54/49 62/48/42 60/47/40 
f 60/47/40 70/48/50 69/54/49 
f 70/48/50 60/47/40 59/46/39 
f 71/57/51 54/56/34 56/55/36 
f 56/55/36 72/58/52 71/57/51 
f 72/58/52 56/55/36 73/57/53 
f 73/57/53 74/59/31 72/58/52 
f 74/59/31 73/57/53 75/58/54 
f 75/58/54 71/57/51 74/59/31 
f 71/57/51 75/58/54 53/55/33 
f 53/55/33 54/56/34 71/57/51 
f 70/62/57 59/61/56 76/60/55 
f 76/60/55 77/63/58 70/62/57 
f 77/63/58 76/60/55 62/62/59 
f 62/62/59 78/64/60 77/63/58 
f 78/64/60 62/62/59 79/65/61 
f 79/65/61 80/66/62 78/64/60 
f 78/64/60 80/68/64 81/67/63 
f 81/67/63 77/63/58 78/64/60 
f 77/63/58 81/67/63 82/64/65 
f 82/64/65 70/62/57 77/63/58 
f 70/62/57 82/64/65 83/65/66 
f 76/47/67 59/46/39 58/45/38 
f 58/45/38 61/46/41 76/47/67 
f 61/46/41 58/45/38 57/42/37 
f 57/42/37 55/45/35 61/46/41 
f 65/71/70 70/70/69 84/69/68 
f 84/69/68 85/72/71 65/71/70 
f 85/72/71 84/69/68 67/71/72 
f 67/71/72 86/73/73 85/72/71 
f 87/68/74 82/64/65 81/67/63 
f 81/67/63 88/74/75 87/68/74 
f 88/74/75 81/67/63 80/68/64 
f 86/50/76 67/51/47 63/49/43 
f 63/49/43 89/75/77 86/50/76 
f 89/75/77 63/49/43 64/50/44 
f 89/78/80 64/77/79 90/76/78 
f 90/76/78 86/77/81 89/78/80 
f 86/77/81 90/76/78 91/79/30 
f 64/73/82 65/71/70 85/72/71 
f 85/72/71 91/80/83 64/73/82 
f 91/80/83 85/72/71 86/73/73 
f 92/82/86 79/81/85 84/72/84 
f 84/72/84 83/81/87 92/82/86 
f 83/81/87 84/72/84 70/71/88 
f 88/85/91 80/84/90 92/83/89 
f 92/83/89 87/84/92 88/85/91 
f 87/84/92 92/83/89 83/86/93 
f 65/51/45 66/52/46 68/53/48 
f 68/53/48 70/48/50 65/51/45 
f 70/48/50 68/53/48 69/54/49 
f 73/57/53 56/55/36 52/56/32 
f 52/56/32 75/58/54 73/57/53 
f 75/58/54 52/56/32 53/55/33 
f 83/65/66 82/64/65 87/66/94 
f 90/76/78 64/77/79 91/79/30 
f 79/81/85 62/71/95 84/72/84 
f 80/84/90 79/86/96 92/83/89 
f 61/61/97 62/62/59 76/60/55 
f 84/69/68 62/70/98 67/71/72 
f 71/57/51 72/58/52 74/59/31 
# 146 faces

