# 3ds Max Wavefront OBJ Exporter v0.97b - (c)2007 guruware
# File Created: 06.08.2019 17:02:23

mtllib Elucidator9f.mtl

#
# object w00_013_00
#

v  -0.2771 1.1254 0.4056
v  -0.2415 1.1268 0.3975
v  -0.2556 1.1164 0.3865
v  -0.2379 1.1088 0.4100
v  -0.1936 1.0984 0.3627
v  -0.1732 1.1136 0.3786
v  -0.2211 1.1419 0.4133
v  -0.1960 1.1854 0.4686
v  -0.1925 1.1674 0.4811
v  -0.2175 1.1240 0.4258
v  -0.2735 1.1075 0.4182
v  -0.2520 1.0984 0.3991
v  -0.4301 0.9618 0.2859
v  -0.4321 0.9721 0.2494
v  -0.4424 0.9626 0.2716
v  -0.4586 0.9832 0.2729
v  -0.4556 0.9943 0.2879
v  -0.4484 0.9927 0.2507
v  -0.4395 1.0092 0.2529
v  -0.4139 0.9767 0.2508
v  -0.4109 0.9878 0.2658
v  -0.4212 0.9783 0.2881
v  -0.2643 1.0943 0.4099
v  -0.4374 0.9989 0.2894
v  -0.2805 1.1149 0.4112
v  -0.4272 1.0084 0.2671
v  -0.2703 1.1244 0.3889
v  -0.2540 1.1038 0.3876
v  -0.1909 1.0762 0.3533
v  -0.2353 1.0948 0.3927
v  -0.1508 1.1059 0.3844
v  -0.1951 1.1245 0.4238
v  -0.2855 1.1159 0.4373
v  -0.1724 1.1995 0.5250
v  -0.1994 1.1457 0.4090
v  -0.1767 1.2207 0.5102
v  -0.2897 1.1372 0.4225
v  -0.2395 1.1161 0.3779
v  -0.1550 1.1271 0.3696
v  -0.1952 1.0974 0.3385
v  -0.2629 1.1386 0.3905
v  -0.2907 1.1152 0.4145
v  -0.2752 1.1295 0.3809
v  -0.2507 1.0984 0.3790
v  -0.2384 1.1075 0.3885
v  -0.2539 1.0932 0.4221
v  -0.2784 1.1243 0.4241
v  -0.2662 1.0841 0.4125
v  -0.1222 1.1784 0.4804
v  -0.1264 1.1996 0.4656
v  -0.1439 1.1906 0.4998
v  0.0688 1.3844 0.6985
v  0.0935 1.3661 0.6841
v  0.1147 1.3651 0.6577
v  -0.1227 1.1896 0.4734
v  0.0900 1.3834 0.6721
v  -0.1474 1.2079 0.4878
v  -0.1686 1.2089 0.5142
v  -0.1756 1.1672 0.4752
v  -0.1424 1.1681 0.4482
v  -0.1791 1.1845 0.4632
v  -0.1970 1.1712 0.4492
v  -0.1612 1.1066 0.3653
v  -0.2040 1.0998 0.3771
v  -0.1813 1.1269 0.4132
v  -0.1479 1.1228 0.3847
v  -0.1837 1.1389 0.4048
v  -0.1433 1.1411 0.4096
v  -0.1241 1.1538 0.4224
v  -0.1936 1.1539 0.4613
v  0.3680 1.5524 0.8543
v  0.3433 1.5707 0.8687
v  0.3220 1.5716 0.8951
v  0.4183 1.6162 0.9316
v  0.3467 1.5533 0.8807
v  -0.2002 1.1924 0.4995
v  -0.2348 1.2003 0.5207
v  -0.2390 1.1839 0.4912
v  -0.2514 1.1675 0.4707
v  -0.2544 1.1764 0.4864
v  -0.2475 1.1844 0.5015
v  -0.2377 1.1773 0.4958
v  -0.2501 1.1605 0.4756
v  -0.2027 1.1571 0.4495
v  -0.1930 1.1322 0.4110
v  -0.2057 1.1084 0.3711
v  -0.2534 1.1713 0.4899
v  -0.2675 1.1756 0.4945
v  -0.1600 1.0853 0.3343
v  -0.1862 1.0881 0.3458
v  -0.2171 1.1011 0.3733
v  -0.2605 1.1571 0.4661
# 92 vertices

vn 0.5295 -0.8401 0.1180
vn 0.0850 -0.5364 0.8397
vn -0.5661 -0.0941 0.8189
vn -0.3444 0.9375 -0.0487
vn 0.4177 0.5737 0.7045
vn -0.9646 -0.2499 -0.0838
vn -0.3602 -0.8066 0.4686
vn -0.6420 -0.6333 0.4321
vn 0.2207 0.1834 -0.9580
vn -0.7805 0.5233 -0.3422
vn 0.0731 0.6735 -0.7356
vn -0.6181 0.7846 0.0490
vn 0.1929 -0.8889 0.4156
vn 0.2023 -0.5325 -0.8219
vn -0.2534 -0.9531 0.1656
vn -0.8967 -0.2515 0.3643
vn -0.7134 0.2997 0.6335
vn -0.6890 0.4482 -0.5696
vn -0.1608 0.8098 -0.5642
vn 0.7530 -0.0666 -0.6547
vn 0.9819 -0.1778 -0.0653
vn 0.3109 -0.2894 0.9053
vn 0.1608 -0.8098 0.5642
vn 0.7133 -0.2997 -0.6335
vn -0.6259 0.0282 0.7794
vn -0.7276 0.5404 0.4226
vn -0.3781 0.8631 -0.3349
vn 0.4334 0.8396 -0.3276
vn -0.2377 0.7280 0.6430
vn -0.6821 -0.5043 -0.5295
vn 0.6821 0.5043 0.5295
vn -0.5918 -0.0447 0.8049
vn 0.2077 -0.8279 0.5210
vn 0.6940 -0.6745 -0.2516
vn 0.6126 0.0900 -0.7852
vn -0.1268 0.7947 -0.5936
vn -0.2077 0.8279 -0.5210
vn -0.6699 0.3302 0.6649
vn 0.2136 -0.8131 0.5415
vn 0.9455 -0.0377 -0.3236
vn -0.1074 0.8039 -0.5850
vn 0.0080 0.7950 -0.6065
vn 0.8945 -0.1221 -0.4302
vn 0.2718 -0.8161 0.5100
vn 0.3145 -0.8094 0.4960
vn 0.9396 -0.0493 -0.3386
vn -0.0025 0.7874 -0.6164
vn 0.9405 -0.0476 -0.3363
vn 0.9851 0.1669 -0.0411
vn 0.3246 -0.8000 0.5046
vn 0.7774 -0.2483 -0.5780
vn -0.1268 0.8338 -0.5373
vn -0.6209 0.7228 0.3036
vn 0.1399 -0.7676 0.6255
vn -0.1416 0.5468 0.8252
vn -0.0265 -0.7066 0.7071
vn 0.1128 -0.7260 0.6784
vn -0.3581 0.4848 0.7979
vn -0.2051 0.8756 -0.4373
vn -0.2933 0.8493 -0.4390
vn -0.2499 0.8240 -0.5085
vn -0.2442 0.8237 -0.5118
vn -0.6795 0.3238 0.6584
vn -0.3043 0.8920 -0.3343
vn 0.0226 -0.7423 0.6697
vn 0.0698 -0.7866 0.6135
vn -0.5489 0.4017 0.7330
vn -0.9559 -0.2702 -0.1154
vn -0.6047 -0.7503 0.2672
vn -0.4944 -0.7325 0.4681
vn -0.9664 -0.0131 0.2566
vn -0.7444 0.5273 -0.4095
vn -0.6109 0.7504 -0.2523
vn 0.0043 -0.6627 0.7488
vn -0.4616 0.4436 0.7682
vn -0.0473 0.7912 -0.6097
vn 0.9865 0.1496 -0.0663
vn -0.5898 -0.5372 -0.6030
vn -0.0507 -0.9447 0.3239
vn -0.3792 -0.5784 -0.7222
vn -0.3528 0.5772 -0.7364
vn -0.3382 -0.6235 0.7049
vn -0.8824 0.1381 0.4497
vn -0.3164 -0.5837 -0.7478
vn -0.3085 0.3539 -0.8829
vn -0.2246 -0.5866 -0.7781
vn -0.0403 -0.9975 0.0585
vn -0.1512 -0.9777 -0.1454
vn -0.9827 -0.1847 0.0149
vn -0.4672 0.7079 -0.5297
vn -0.9663 -0.2455 -0.0770
vn -0.1626 -0.8263 0.5392
vn -0.2395 -0.8018 0.5475
vn 0.0757 -0.7880 0.6110
vn -0.3716 0.1325 -0.9189
vn -0.5352 0.6879 -0.4902
vn -0.3374 0.8595 -0.3840
vn -0.8173 0.3206 -0.4789
# 98 vertex normals

vt 0.7254 0.5925 0.0000
vt 0.6602 0.5925 0.0000
vt 0.5950 0.5925 0.0000
vt 0.5950 0.6470 0.0000
vt 0.6711 0.6470 0.0000
vt 0.7254 0.7403 0.0000
vt 0.1169 0.8843 0.0000
vt 0.2255 0.8182 0.0000
vt 0.2255 0.8843 0.0000
vt 0.2255 0.9505 0.0000
vt 0.1169 0.9894 0.0000
vt 0.1169 0.7831 0.0000
vt 0.0191 0.8182 0.0000
vt 0.0191 0.8843 0.0000
vt 0.9210 0.9933 0.0000
vt 0.9862 0.7053 0.0000
vt 0.9210 0.7053 0.0000
vt 0.8558 0.7053 0.0000
vt 0.8558 0.9933 0.0000
vt 0.9862 0.9933 0.0000
vt 0.0191 0.9505 0.0000
vt 0.2581 0.0011 0.0000
vt 0.5516 0.0011 0.0000
vt 0.2581 0.1995 0.0000
vt 0.5516 0.1995 0.0000
vt 0.9971 0.0011 0.0000
vt 0.9971 0.5536 0.0000
vt 0.6711 0.8843 0.0000
vt 0.8232 0.9855 0.0000
vt 0.8232 0.8843 0.0000
vt 0.8232 0.7793 0.0000
vt 0.6711 0.7793 0.0000
vt 0.6711 0.9855 0.0000
vt 0.2581 0.9855 0.0000
vt 0.3234 0.9543 0.0000
vt 0.2581 0.9232 0.0000
vt 0.5733 0.6586 0.0000
vt 0.6820 0.6003 0.0000
vt 0.8015 0.6586 0.0000
vt 0.6820 0.7170 0.0000
vt 0.5516 0.5536 0.0000
vt 0.0191 0.4524 0.0000
vt 0.2255 0.0167 0.0000
vt 0.0191 0.0167 0.0000
vt 0.2255 0.4524 0.0000
vt 0.0191 0.6081 0.0000
vt 0.2255 0.6081 0.0000
vt 0.0191 0.7131 0.0000
vt 0.6494 0.8921 0.0000
vt 0.3559 0.9699 0.0000
vt 0.2690 0.8065 0.0000
vt 0.6494 0.7831 0.0000
vt 0.4972 0.7131 0.0000
vt 0.4972 0.6081 0.0000
vt 0.2690 0.5847 0.0000
vt 0.4864 0.5847 0.0000
vt 0.4864 0.3163 0.0000
vt 0.2690 0.3163 0.0000
vt 0.4864 0.2384 0.0000
vt -0.7742 0.6042 0.0000
vt -0.9915 0.6042 0.0000
vt -0.8829 0.7131 0.0000
vt -0.5025 0.6042 0.0000
vt -0.5786 0.7131 0.0000
vt -0.6981 0.7870 0.0000
vt -0.5786 0.7520 0.0000
vt -0.5025 0.6859 0.0000
vt -0.4699 0.7676 0.0000
vt 1.7360 0.8999 0.0000
vt 1.7795 0.8999 0.0000
vt 1.7795 0.8532 0.0000
vt 1.7360 0.8532 0.0000
vt 1.7795 0.8065 0.0000
vt -0.4047 0.7403 0.0000
vt 0.6494 0.9699 0.0000
vt 1.4970 0.3007 0.0000
vt 1.4426 0.3746 0.0000
vt 1.4426 0.2423 0.0000
vt 1.4970 0.3746 0.0000
vt 1.7360 0.8065 0.0000
vt 1.7795 0.8843 0.0000
vt 1.7360 0.8843 0.0000
vt 1.5948 0.9154 0.0000
vt 1.6382 0.8376 0.0000
vt 1.5948 0.8376 0.0000
vt 1.6382 0.9154 0.0000
# 86 texture coords

o w00_013_00
g w00_013_00
usemtl Material__237
s 1
f 3/2/3 2/2/2 1/1/1 
f 2/2/2 3/2/3 4/2/4 
f 4/2/4 5/3/5 2/2/2 
f 5/3/5 4/2/4 6/4/6 
f 6/4/6 2/2/2 5/3/5 
f 2/2/2 6/4/6 7/5/7 
f 7/5/7 1/1/1 2/2/2 
f 1/1/1 7/5/7 8/6/8 
f 8/6/8 9/6/9 1/1/1 
f 9/6/9 8/6/8 10/5/10 
f 10/5/10 11/1/11 9/6/9 
f 11/1/11 10/5/10 4/2/4 
f 4/2/4 12/2/12 11/1/11 
f 12/2/12 4/2/4 3/2/3 
f 15/9/15 14/8/14 13/7/13 
f 13/7/13 16/10/16 15/9/15 
f 16/10/16 13/7/13 17/11/17 
f 17/11/17 18/9/18 16/10/16 
f 18/9/18 17/11/17 19/7/19 
f 19/7/19 14/8/14 18/9/18 
f 14/8/14 19/7/19 20/12/20 
f 20/12/20 13/7/13 14/8/14 
f 13/7/13 20/12/20 21/13/21 
f 21/13/21 22/14/22 13/7/13 
f 22/17/23 21/16/24 23/15/23 
f 23/15/23 24/18/25 22/17/23 
f 24/18/25 23/15/23 25/19/26 
f 25/19/26 26/17/27 24/18/25 
f 26/17/27 25/19/26 27/15/11 
f 27/15/11 21/16/24 26/17/27 
f 21/16/24 27/15/11 28/20/24 
f 28/20/24 23/15/23 21/16/24 
f 26/14/28 20/12/20 19/7/19 
f 19/7/19 24/21/29 26/14/28 
f 24/21/29 19/7/19 17/11/17 
f 17/11/17 22/14/22 24/21/29 
f 22/14/22 17/11/17 13/7/13 
f 31/24/23 30/23/23 29/22/23 
f 30/23/23 31/24/23 32/25/23 
f 32/25/23 33/26/23 30/23/23 
f 33/26/23 32/25/23 34/27/23 
f 37/26/19 36/27/19 35/25/19 
f 35/25/19 38/23/19 37/26/19 
f 38/23/19 35/25/19 39/24/19 
f 39/24/19 40/22/19 38/23/19 
f 43/30/19 42/29/17 41/28/19 
f 41/28/19 44/31/24 43/30/19 
f 44/31/24 41/28/19 45/32/24 
f 45/32/24 46/28/23 44/31/24 
f 47/33/17 41/28/19 42/29/17 
f 42/29/17 46/28/23 47/33/17 
f 46/28/23 42/29/17 48/30/23 
f 48/30/23 44/31/24 46/28/23 
f 6/4/6 4/2/4 10/5/10 
f 10/5/10 7/5/7 6/4/6 
f 7/5/7 10/5/10 8/6/8 
f 15/36/30 16/35/30 18/34/30 
f 18/34/30 14/35/30 15/36/30 
f 47/39/31 46/38/31 45/37/31 
f 45/37/31 41/40/31 47/39/31 
f 44/37/30 48/38/30 42/39/30 
f 42/39/30 43/40/30 44/37/30 
f 26/14/28 21/13/21 20/12/20 
f 32/25/23 49/41/23 34/27/23 
f 35/25/19 36/27/19 50/41/19 
f 11/1/11 1/1/1 9/6/9 
f 53/44/33 52/43/32 51/42/23 
f 51/42/23 54/43/34 53/44/33 
f 54/43/34 51/42/23 55/45/35 
f 55/45/35 56/44/36 54/43/34 
f 56/44/36 55/45/35 57/42/37 
f 57/42/37 52/43/32 56/44/36 
f 52/43/32 57/42/37 58/45/38 
f 58/45/38 51/42/23 52/43/32 
f 51/42/23 58/45/38 59/46/39 
f 59/46/39 55/45/35 51/42/23 
f 55/45/35 59/46/39 60/47/40 
f 60/47/40 61/46/41 55/45/35 
f 61/46/41 60/47/40 62/48/42 
f 65/51/45 64/50/44 63/49/43 
f 63/49/43 66/52/46 65/51/45 
f 66/52/46 63/49/43 67/51/47 
f 67/51/47 68/53/48 66/52/46 
f 68/53/48 67/51/47 62/48/42 
f 62/48/42 69/54/49 68/53/48 
f 69/54/49 62/48/42 60/47/40 
f 60/47/40 70/48/50 69/54/49 
f 70/48/50 60/47/40 59/46/39 
f 71/57/51 54/56/34 56/55/36 
f 56/55/36 72/58/52 71/57/51 
f 72/58/52 56/55/36 73/57/53 
f 73/57/53 74/59/31 72/58/52 
f 74/59/31 73/57/53 75/58/54 
f 75/58/54 71/57/51 74/59/31 
f 71/57/51 75/58/54 53/55/33 
f 53/55/33 54/56/34 71/57/51 
f 70/62/57 59/61/56 76/60/55 
f 76/60/55 77/63/58 70/62/57 
f 77/63/58 76/60/55 62/62/59 
f 62/62/59 78/64/60 77/63/58 
f 78/64/60 62/62/59 79/65/61 
f 79/65/61 80/66/62 78/64/60 
f 78/64/60 80/68/64 81/67/63 
f 81/67/63 77/63/58 78/64/60 
f 77/63/58 81/67/63 82/64/65 
f 82/64/65 70/62/57 77/63/58 
f 70/62/57 82/64/65 83/65/66 
f 76/47/67 59/46/39 58/45/38 
f 58/45/38 61/46/41 76/47/67 
f 61/46/41 58/45/38 57/42/37 
f 57/42/37 55/45/35 61/46/41 
f 65/71/70 70/70/69 84/69/68 
f 84/69/68 85/72/71 65/71/70 
f 85/72/71 84/69/68 67/71/72 
f 67/71/72 86/73/73 85/72/71 
f 87/68/74 82/64/65 81/67/63 
f 81/67/63 88/74/75 87/68/74 
f 88/74/75 81/67/63 80/68/64 
f 86/50/76 67/51/47 63/49/43 
f 63/49/43 89/75/77 86/50/76 
f 89/75/77 63/49/43 64/50/44 
f 89/78/80 64/77/79 90/76/78 
f 90/76/78 86/77/81 89/78/80 
f 86/77/81 90/76/78 91/79/30 
f 64/73/82 65/71/70 85/72/71 
f 85/72/71 91/80/83 64/73/82 
f 91/80/83 85/72/71 86/73/73 
f 92/82/86 79/81/85 84/72/84 
f 84/72/84 83/81/87 92/82/86 
f 83/81/87 84/72/84 70/71/88 
f 88/85/91 80/84/90 92/83/89 
f 92/83/89 87/84/92 88/85/91 
f 87/84/92 92/83/89 83/86/93 
f 65/51/45 66/52/46 68/53/48 
f 68/53/48 70/48/50 65/51/45 
f 70/48/50 68/53/48 69/54/49 
f 73/57/53 56/55/36 52/56/32 
f 52/56/32 75/58/54 73/57/53 
f 75/58/54 52/56/32 53/55/33 
f 83/65/66 82/64/65 87/66/94 
f 90/76/78 64/77/79 91/79/30 
f 79/81/85 62/71/95 84/72/84 
f 80/84/90 79/86/96 92/83/89 
f 61/61/97 62/62/59 76/60/55 
f 84/69/68 62/70/98 67/71/72 
f 71/57/51 72/58/52 74/59/31 
# 146 faces

