# 3ds Max Wavefront OBJ Exporter v0.97b - (c)2007 guruware
# File Created: 06.08.2019 17:02:21

mtllib Elucidator5f.mtl

#
# object w00_013_00
#

v  -0.0653 0.8018 0.6206
v  -0.0429 0.7747 0.6105
v  -0.0496 0.7896 0.5979
v  -0.0604 0.7623 0.6051
v  -0.0179 0.7424 0.5592
v  -0.0082 0.7208 0.5776
v  -0.0331 0.7531 0.6289
v  -0.0267 0.7162 0.6933
v  -0.0442 0.7037 0.6879
v  -0.0506 0.7407 0.6235
v  -0.0828 0.7893 0.6152
v  -0.0671 0.7771 0.5925
v  -0.1702 0.9531 0.4456
v  -0.1425 0.9733 0.4292
v  -0.1668 0.9703 0.4387
v  -0.1619 0.9883 0.4571
v  -0.1624 0.9814 0.4747
v  -0.1375 0.9912 0.4477
v  -0.1240 0.9860 0.4599
v  -0.1319 0.9577 0.4307
v  -0.1324 0.9509 0.4483
v  -0.1567 0.9479 0.4577
v  -0.0820 0.7821 0.5986
v  -0.1517 0.9659 0.4762
v  -0.0770 0.8001 0.6171
v  -0.1274 0.9688 0.4668
v  -0.0527 0.8030 0.6076
v  -0.0577 0.7851 0.5891
v  -0.0254 0.7395 0.5362
v  -0.0578 0.7646 0.5830
v  -0.0063 0.6971 0.5723
v  -0.0387 0.7222 0.6190
v  -0.0944 0.7930 0.6359
v  -0.0406 0.6736 0.7374
v  -0.0180 0.7370 0.6254
v  -0.0199 0.6884 0.7438
v  -0.0737 0.8078 0.6423
v  -0.0371 0.7794 0.5894
v  0.0144 0.7119 0.5787
v  -0.0047 0.7543 0.5427
v  -0.0410 0.7990 0.6179
v  -0.0836 0.8075 0.6211
v  -0.0469 0.8120 0.6069
v  -0.0544 0.7849 0.5789
v  -0.0485 0.7719 0.5900
v  -0.0853 0.7674 0.6042
v  -0.0777 0.7945 0.6322
v  -0.0911 0.7804 0.5932
v  -0.0039 0.6452 0.6844
v  0.0168 0.6599 0.6909
v  -0.0179 0.6580 0.7097
v  0.0868 0.4263 0.9496
v  0.0952 0.4072 0.9228
v  0.1204 0.4003 0.9013
v  0.0073 0.6511 0.6881
v  0.1120 0.4193 0.9281
v  -0.0010 0.6701 0.7149
v  -0.0262 0.6771 0.7365
v  -0.0330 0.6916 0.6812
v  -0.0006 0.6748 0.6588
v  -0.0161 0.7036 0.6865
v  -0.0247 0.7226 0.6703
v  0.0010 0.7148 0.5618
v  -0.0306 0.7453 0.5714
v  -0.0243 0.7153 0.6115
v  0.0059 0.6981 0.5844
v  -0.0125 0.7237 0.6152
v  0.0048 0.6869 0.6135
v  0.0143 0.6673 0.6283
v  -0.0415 0.7105 0.6651
v  0.2410 0.1327 1.1286
v  0.2326 0.1517 1.1555
v  0.2074 0.1587 1.1770
v  0.2591 0.0682 1.2187
v  0.2158 0.1397 1.1502
v  -0.0428 0.7076 0.7197
v  -0.0666 0.7300 0.7450
v  -0.0613 0.7432 0.7141
v  -0.0654 0.7596 0.6904
v  -0.0705 0.7571 0.7078
v  -0.0712 0.7461 0.7226
v  -0.0677 0.7387 0.7121
v  -0.0722 0.7547 0.6883
v  -0.0366 0.7244 0.6610
v  -0.0250 0.7277 0.6158
v  -0.0221 0.7513 0.5740
v  -0.0755 0.7536 0.7063
v  -0.0820 0.7647 0.7147
v  0.0064 0.7230 0.5255
v  -0.0110 0.7413 0.5393
v  -0.0335 0.7588 0.5718
v  -0.0735 0.7674 0.6812
# 92 vertices

vn -0.3676 -0.6929 -0.6204
vn -0.8140 -0.5611 0.1504
vn -0.8191 0.1094 0.5631
vn 0.4751 0.5219 0.7084
vn 0.1408 -0.5533 0.8210
vn -0.5610 0.8233 -0.0863
vn -0.9725 -0.0668 -0.2232
vn -0.9698 0.2316 -0.0760
vn 0.7996 0.2721 -0.5354
vn 0.1808 0.9430 0.2795
vn 0.9135 0.4067 -0.0059
vn 0.1895 0.6840 0.7044
vn -0.7357 -0.5424 -0.4058
vn 0.2460 0.0747 -0.9664
vn -0.8345 -0.0568 -0.5480
vn -0.8007 0.5651 0.1988
vn -0.5212 0.4040 0.7518
vn 0.3122 0.9482 0.0594
vn 0.7892 0.5634 0.2444
vn 0.7032 -0.3792 -0.6014
vn 0.3824 -0.8637 -0.3284
vn -0.5884 -0.7340 0.3390
vn -0.7892 -0.5634 -0.2444
vn 0.5212 -0.4040 -0.7518
vn -0.7440 0.2051 0.6359
vn -0.2448 0.5614 0.7905
vn 0.5839 0.6622 0.4696
vn 0.9428 -0.0523 0.3292
vn -0.0280 0.0774 0.9966
vn -0.3248 0.7207 -0.6125
vn 0.3248 -0.7207 0.6125
vn -0.7906 0.1485 0.5940
vn -0.7529 -0.5889 -0.2937
vn 0.0393 -0.6367 -0.7701
vn 0.8178 -0.1657 -0.5511
vn 0.8130 0.5436 0.2085
vn 0.7529 0.5889 0.2937
vn -0.5002 0.3588 0.7881
vn -0.7530 -0.6000 -0.2701
vn 0.6119 -0.6874 -0.3912
vn 0.8228 0.5249 0.2179
vn 0.8839 0.4321 0.1788
vn 0.5978 -0.6138 -0.5156
vn -0.7088 -0.6373 -0.3024
vn -0.6761 -0.6668 -0.3135
vn 0.6107 -0.6782 -0.4088
vn 0.8801 0.4440 0.1684
vn 0.6109 -0.6796 -0.4061
vn 0.5923 -0.8035 -0.0605
vn -0.6705 -0.6775 -0.3025
vn 0.5508 -0.4733 -0.6875
vn 0.8043 0.5270 0.2744
vn -0.0053 0.5603 0.8283
vn -0.8086 -0.5634 -0.1696
vn -0.2104 -0.1258 0.9695
vn -0.8960 -0.4417 -0.0446
vn -0.8263 -0.5544 -0.0997
vn -0.3350 0.0614 0.9402
vn 0.7345 0.5598 0.3836
vn 0.6774 0.6316 0.3771
vn 0.7232 0.6193 0.3057
vn 0.7276 0.6157 0.3024
vn -0.5048 0.3686 0.7806
vn 0.6366 0.6039 0.4795
vn -0.8736 -0.4755 -0.1032
vn -0.8464 -0.5011 -0.1804
vn -0.4386 0.2386 0.8664
vn -0.5509 0.8254 -0.1235
vn -0.9285 0.2473 -0.2769
vn -0.9868 0.0660 -0.1480
vn -0.6141 0.7245 0.3129
vn 0.2409 0.9424 0.2322
vn 0.3526 0.8041 0.4786
vn -0.8785 -0.4776 0.0104
vn -0.3920 0.1559 0.9067
vn 0.8576 0.4808 0.1827
vn 0.5970 -0.7972 -0.0901
vn -0.2587 0.6659 -0.6998
vn -0.8301 -0.3016 -0.4690
vn -0.1152 0.5267 -0.8422
vn 0.6531 0.7572 -0.0097
vn -0.9864 -0.1517 0.0640
vn -0.5937 0.5981 0.5383
vn -0.0739 0.4822 -0.8730
vn 0.6177 0.7358 -0.2774
vn -0.0146 0.4151 -0.9097
vn -0.6992 -0.2042 -0.6852
vn -0.6151 -0.0130 -0.7883
vn -0.5868 0.8092 0.0297
vn 0.5596 0.7930 0.2410
vn -0.5630 0.8227 -0.0783
vn -0.9357 -0.2744 -0.2220
vn -0.9607 -0.2059 -0.1863
vn -0.8430 -0.5055 -0.1839
vn 0.4668 0.7593 -0.4533
vn 0.4910 0.8304 0.2632
vn 0.6302 0.6478 0.4280
vn 0.1151 0.9923 0.0463
# 98 vertex normals

vt 0.7254 0.5925 0.0000
vt 0.6602 0.5925 0.0000
vt 0.5950 0.5925 0.0000
vt 0.5950 0.6470 0.0000
vt 0.6711 0.6470 0.0000
vt 0.7254 0.7403 0.0000
vt 0.1169 0.8843 0.0000
vt 0.2255 0.8182 0.0000
vt 0.2255 0.8843 0.0000
vt 0.2255 0.9505 0.0000
vt 0.1169 0.9894 0.0000
vt 0.1169 0.7831 0.0000
vt 0.0191 0.8182 0.0000
vt 0.0191 0.8843 0.0000
vt 0.9210 0.9933 0.0000
vt 0.9862 0.7053 0.0000
vt 0.9210 0.7053 0.0000
vt 0.8558 0.7053 0.0000
vt 0.8558 0.9933 0.0000
vt 0.9862 0.9933 0.0000
vt 0.0191 0.9505 0.0000
vt 0.2581 0.0011 0.0000
vt 0.5516 0.0011 0.0000
vt 0.2581 0.1995 0.0000
vt 0.5516 0.1995 0.0000
vt 0.9971 0.0011 0.0000
vt 0.9971 0.5536 0.0000
vt 0.6711 0.8843 0.0000
vt 0.8232 0.9855 0.0000
vt 0.8232 0.8843 0.0000
vt 0.8232 0.7793 0.0000
vt 0.6711 0.7793 0.0000
vt 0.6711 0.9855 0.0000
vt 0.2581 0.9855 0.0000
vt 0.3234 0.9543 0.0000
vt 0.2581 0.9232 0.0000
vt 0.5733 0.6586 0.0000
vt 0.6820 0.6003 0.0000
vt 0.8015 0.6586 0.0000
vt 0.6820 0.7170 0.0000
vt 0.5516 0.5536 0.0000
vt 0.0191 0.4524 0.0000
vt 0.2255 0.0167 0.0000
vt 0.0191 0.0167 0.0000
vt 0.2255 0.4524 0.0000
vt 0.0191 0.6081 0.0000
vt 0.2255 0.6081 0.0000
vt 0.0191 0.7131 0.0000
vt 0.6494 0.8921 0.0000
vt 0.3559 0.9699 0.0000
vt 0.2690 0.8065 0.0000
vt 0.6494 0.7831 0.0000
vt 0.4972 0.7131 0.0000
vt 0.4972 0.6081 0.0000
vt 0.2690 0.5847 0.0000
vt 0.4864 0.5847 0.0000
vt 0.4864 0.3163 0.0000
vt 0.2690 0.3163 0.0000
vt 0.4864 0.2384 0.0000
vt -0.7742 0.6042 0.0000
vt -0.9915 0.6042 0.0000
vt -0.8829 0.7131 0.0000
vt -0.5025 0.6042 0.0000
vt -0.5786 0.7131 0.0000
vt -0.6981 0.7870 0.0000
vt -0.5786 0.7520 0.0000
vt -0.5025 0.6859 0.0000
vt -0.4699 0.7676 0.0000
vt 1.7360 0.8999 0.0000
vt 1.7795 0.8999 0.0000
vt 1.7795 0.8532 0.0000
vt 1.7360 0.8532 0.0000
vt 1.7795 0.8065 0.0000
vt -0.4047 0.7403 0.0000
vt 0.6494 0.9699 0.0000
vt 1.4970 0.3007 0.0000
vt 1.4426 0.3746 0.0000
vt 1.4426 0.2423 0.0000
vt 1.4970 0.3746 0.0000
vt 1.7360 0.8065 0.0000
vt 1.7795 0.8843 0.0000
vt 1.7360 0.8843 0.0000
vt 1.5948 0.9154 0.0000
vt 1.6382 0.8376 0.0000
vt 1.5948 0.8376 0.0000
vt 1.6382 0.9154 0.0000
# 86 texture coords

o w00_013_00
g w00_013_00
usemtl Material__237
s 1
f 3/2/3 2/2/2 1/1/1 
f 2/2/2 3/2/3 4/2/4 
f 4/2/4 5/3/5 2/2/2 
f 5/3/5 4/2/4 6/4/6 
f 6/4/6 2/2/2 5/3/5 
f 2/2/2 6/4/6 7/5/7 
f 7/5/7 1/1/1 2/2/2 
f 1/1/1 7/5/7 8/6/8 
f 8/6/8 9/6/9 1/1/1 
f 9/6/9 8/6/8 10/5/10 
f 10/5/10 11/1/11 9/6/9 
f 11/1/11 10/5/10 4/2/4 
f 4/2/4 12/2/12 11/1/11 
f 12/2/12 4/2/4 3/2/3 
f 15/9/15 14/8/14 13/7/13 
f 13/7/13 16/10/16 15/9/15 
f 16/10/16 13/7/13 17/11/17 
f 17/11/17 18/9/18 16/10/16 
f 18/9/18 17/11/17 19/7/19 
f 19/7/19 14/8/14 18/9/18 
f 14/8/14 19/7/19 20/12/20 
f 20/12/20 13/7/13 14/8/14 
f 13/7/13 20/12/20 21/13/21 
f 21/13/21 22/14/22 13/7/13 
f 22/17/23 21/16/24 23/15/23 
f 23/15/23 24/18/25 22/17/23 
f 24/18/25 23/15/23 25/19/26 
f 25/19/26 26/17/27 24/18/25 
f 26/17/27 25/19/26 27/15/11 
f 27/15/11 21/16/24 26/17/27 
f 21/16/24 27/15/11 28/20/24 
f 28/20/24 23/15/23 21/16/24 
f 26/14/28 20/12/20 19/7/19 
f 19/7/19 24/21/29 26/14/28 
f 24/21/29 19/7/19 17/11/17 
f 17/11/17 22/14/22 24/21/29 
f 22/14/22 17/11/17 13/7/13 
f 31/24/23 30/23/23 29/22/23 
f 30/23/23 31/24/23 32/25/23 
f 32/25/23 33/26/23 30/23/23 
f 33/26/23 32/25/23 34/27/23 
f 37/26/19 36/27/19 35/25/19 
f 35/25/19 38/23/19 37/26/19 
f 38/23/19 35/25/19 39/24/19 
f 39/24/19 40/22/19 38/23/19 
f 43/30/19 42/29/17 41/28/19 
f 41/28/19 44/31/24 43/30/19 
f 44/31/24 41/28/19 45/32/24 
f 45/32/24 46/28/23 44/31/24 
f 47/33/17 41/28/19 42/29/17 
f 42/29/17 46/28/23 47/33/17 
f 46/28/23 42/29/17 48/30/23 
f 48/30/23 44/31/24 46/28/23 
f 6/4/6 4/2/4 10/5/10 
f 10/5/10 7/5/7 6/4/6 
f 7/5/7 10/5/10 8/6/8 
f 15/36/30 16/35/30 18/34/30 
f 18/34/30 14/35/30 15/36/30 
f 47/39/31 46/38/31 45/37/31 
f 45/37/31 41/40/31 47/39/31 
f 44/37/30 48/38/30 42/39/30 
f 42/39/30 43/40/30 44/37/30 
f 26/14/28 21/13/21 20/12/20 
f 32/25/23 49/41/23 34/27/23 
f 35/25/19 36/27/19 50/41/19 
f 11/1/11 1/1/1 9/6/9 
f 53/44/33 52/43/32 51/42/23 
f 51/42/23 54/43/34 53/44/33 
f 54/43/34 51/42/23 55/45/35 
f 55/45/35 56/44/36 54/43/34 
f 56/44/36 55/45/35 57/42/37 
f 57/42/37 52/43/32 56/44/36 
f 52/43/32 57/42/37 58/45/38 
f 58/45/38 51/42/23 52/43/32 
f 51/42/23 58/45/38 59/46/39 
f 59/46/39 55/45/35 51/42/23 
f 55/45/35 59/46/39 60/47/40 
f 60/47/40 61/46/41 55/45/35 
f 61/46/41 60/47/40 62/48/42 
f 65/51/45 64/50/44 63/49/43 
f 63/49/43 66/52/46 65/51/45 
f 66/52/46 63/49/43 67/51/47 
f 67/51/47 68/53/48 66/52/46 
f 68/53/48 67/51/47 62/48/42 
f 62/48/42 69/54/49 68/53/48 
f 69/54/49 62/48/42 60/47/40 
f 60/47/40 70/48/50 69/54/49 
f 70/48/50 60/47/40 59/46/39 
f 71/57/51 54/56/34 56/55/36 
f 56/55/36 72/58/52 71/57/51 
f 72/58/52 56/55/36 73/57/53 
f 73/57/53 74/59/31 72/58/52 
f 74/59/31 73/57/53 75/58/54 
f 75/58/54 71/57/51 74/59/31 
f 71/57/51 75/58/54 53/55/33 
f 53/55/33 54/56/34 71/57/51 
f 70/62/57 59/61/56 76/60/55 
f 76/60/55 77/63/58 70/62/57 
f 77/63/58 76/60/55 62/62/59 
f 62/62/59 78/64/60 77/63/58 
f 78/64/60 62/62/59 79/65/61 
f 79/65/61 80/66/62 78/64/60 
f 78/64/60 80/68/64 81/67/63 
f 81/67/63 77/63/58 78/64/60 
f 77/63/58 81/67/63 82/64/65 
f 82/64/65 70/62/57 77/63/58 
f 70/62/57 82/64/65 83/65/66 
f 76/47/67 59/46/39 58/45/38 
f 58/45/38 61/46/41 76/47/67 
f 61/46/41 58/45/38 57/42/37 
f 57/42/37 55/45/35 61/46/41 
f 65/71/70 70/70/69 84/69/68 
f 84/69/68 85/72/71 65/71/70 
f 85/72/71 84/69/68 67/71/72 
f 67/71/72 86/73/73 85/72/71 
f 87/68/74 82/64/65 81/67/63 
f 81/67/63 88/74/75 87/68/74 
f 88/74/75 81/67/63 80/68/64 
f 86/50/76 67/51/47 63/49/43 
f 63/49/43 89/75/77 86/50/76 
f 89/75/77 63/49/43 64/50/44 
f 89/78/80 64/77/79 90/76/78 
f 90/76/78 86/77/81 89/78/80 
f 86/77/81 90/76/78 91/79/30 
f 64/73/82 65/71/70 85/72/71 
f 85/72/71 91/80/83 64/73/82 
f 91/80/83 85/72/71 86/73/73 
f 92/82/86 79/81/85 84/72/84 
f 84/72/84 83/81/87 92/82/86 
f 83/81/87 84/72/84 70/71/88 
f 88/85/91 80/84/90 92/83/89 
f 92/83/89 87/84/92 88/85/91 
f 87/84/92 92/83/89 83/86/93 
f 65/51/45 66/52/46 68/53/48 
f 68/53/48 70/48/50 65/51/45 
f 70/48/50 68/53/48 69/54/49 
f 73/57/53 56/55/36 52/56/32 
f 52/56/32 75/58/54 73/57/53 
f 75/58/54 52/56/32 53/55/33 
f 83/65/66 82/64/65 87/66/94 
f 90/76/78 64/77/79 91/79/30 
f 79/81/85 62/71/95 84/72/84 
f 80/84/90 79/86/96 92/83/89 
f 61/61/97 62/62/59 76/60/55 
f 84/69/68 62/70/98 67/71/72 
f 71/57/51 72/58/52 74/59/31 
# 146 faces

