# 3ds Max Wavefront OBJ Exporter v0.97b - (c)2007 guruware
# File Created: 06.08.2019 17:02:44

mtllib Elucidator46f.mtl

#
# object w00_013_00
#

v  -0.1290 0.7619 0.4014
v  -0.1142 0.7344 0.4204
v  -0.1082 0.7400 0.4015
v  -0.1290 0.7203 0.4116
v  -0.0771 0.6804 0.4161
v  -0.0858 0.6723 0.4436
v  -0.1229 0.7262 0.4479
v  -0.1634 0.7295 0.5104
v  -0.1782 0.7155 0.5016
v  -0.1377 0.7122 0.4391
v  -0.1437 0.7478 0.3926
v  -0.1230 0.7260 0.3927
v  -0.0724 0.7931 0.1558
v  -0.0357 0.8023 0.1532
v  -0.0608 0.8041 0.1457
v  -0.0612 0.8293 0.1531
v  -0.0730 0.8328 0.1673
v  -0.0361 0.8275 0.1605
v  -0.0335 0.8300 0.1790
v  -0.0328 0.7904 0.1674
v  -0.0447 0.7939 0.1817
v  -0.0698 0.7956 0.1743
v  -0.1365 0.7330 0.3853
v  -0.0702 0.8208 0.1816
v  -0.1369 0.7582 0.3926
v  -0.0451 0.8191 0.1890
v  -0.1118 0.7564 0.4001
v  -0.1114 0.7312 0.3927
v  -0.0716 0.6655 0.3977
v  -0.1144 0.7106 0.3976
v  -0.0887 0.6495 0.4517
v  -0.1314 0.6946 0.4515
v  -0.1628 0.7617 0.3974
v  -0.2109 0.7165 0.5495
v  -0.1140 0.7111 0.4620
v  -0.1934 0.7331 0.5599
v  -0.1454 0.7783 0.4079
v  -0.0969 0.7272 0.4080
v  -0.0712 0.6661 0.4621
v  -0.0542 0.6821 0.4081
v  -0.1093 0.7589 0.4158
v  -0.1420 0.7664 0.3880
v  -0.1040 0.7638 0.3992
v  -0.1034 0.7257 0.3881
v  -0.1086 0.7208 0.4047
v  -0.1466 0.7234 0.3935
v  -0.1472 0.7615 0.4046
v  -0.1413 0.7284 0.3769
v  -0.1624 0.6655 0.5496
v  -0.1450 0.6820 0.5600
v  -0.1830 0.6894 0.5520
v  -0.2989 0.6247 0.8755
v  -0.2839 0.5946 0.8713
v  -0.2546 0.5780 0.8756
v  -0.1537 0.6728 0.5564
v  -0.2696 0.6081 0.8798
v  -0.1687 0.7029 0.5605
v  -0.1980 0.7195 0.5562
v  -0.1695 0.7020 0.5094
v  -0.1370 0.6770 0.5218
v  -0.1553 0.7155 0.5179
v  -0.1476 0.7227 0.4937
v  -0.0720 0.6591 0.4415
v  -0.0926 0.6890 0.4151
v  -0.1182 0.6853 0.4585
v  -0.0853 0.6572 0.4667
v  -0.1083 0.6947 0.4644
v  -0.1050 0.6633 0.4901
v  -0.1114 0.6548 0.5142
v  -0.1618 0.7092 0.4852
v  -0.3623 0.4769 1.2163
v  -0.3773 0.5070 1.2205
v  -0.4066 0.5236 1.2161
v  -0.4156 0.4710 1.3149
v  -0.3915 0.4935 1.2120
v  -0.1928 0.7358 0.5216
v  -0.2182 0.7674 0.5139
v  -0.1935 0.7623 0.4910
v  -0.1791 0.7634 0.4657
v  -0.1932 0.7705 0.4751
v  -0.2049 0.7690 0.4892
v  -0.1989 0.7572 0.4877
v  -0.1849 0.7580 0.4623
v  -0.1516 0.7189 0.4795
v  -0.1173 0.6979 0.4554
v  -0.0855 0.6957 0.4193
v  -0.1974 0.7665 0.4726
v  -0.2036 0.7802 0.4693
v  -0.0459 0.6468 0.4173
v  -0.0614 0.6691 0.4078
v  -0.0911 0.7005 0.4077
v  -0.1783 0.7648 0.4513
# 92 vertices

vn -0.1719 -0.9282 -0.3299
vn -0.8942 -0.4202 -0.1544
vn -0.9129 0.3666 -0.1797
vn 0.1577 0.8341 0.5286
vn -0.4950 -0.0256 0.8685
vn -0.1452 0.6321 -0.7612
vn -0.6694 -0.2066 -0.7136
vn -0.6543 0.1243 -0.7459
vn 0.9994 -0.0299 0.0189
vn 0.2824 0.9520 -0.1183
vn 0.8487 0.3699 0.3780
vn -0.0161 0.9599 0.2799
vn -0.5307 -0.6984 -0.4803
vn 0.7313 -0.4443 -0.5174
vn -0.3845 -0.3669 -0.8471
vn -0.5651 0.5581 -0.6076
vn -0.6880 0.7257 -0.0020
vn 0.5048 0.8432 -0.1848
vn 0.6653 0.6318 0.3978
vn 0.7592 -0.6188 0.2016
vn 0.2125 -0.8930 0.3967
vn -0.8695 -0.4586 0.1837
vn -0.6653 -0.6318 -0.3978
vn 0.6880 -0.7257 0.0020
vn -0.8631 0.4887 -0.1277
vn -0.4423 0.8883 0.1239
vn 0.4136 0.8289 0.3767
vn 0.5531 0.1614 0.8173
vn -0.5289 0.5959 0.6043
vn 0.2900 0.2723 -0.9175
vn -0.2900 -0.2723 0.9175
vn -0.8949 0.4170 -0.1590
vn -0.6182 -0.6785 -0.3968
vn 0.2462 -0.9476 -0.2035
vn 0.8883 -0.4078 0.2114
vn 0.6971 0.5967 0.3975
vn 0.6182 0.6785 0.3968
vn -0.7045 0.7076 0.0545
vn -0.6342 -0.6753 -0.3764
vn 0.4810 -0.7702 0.4188
vn 0.6941 0.5861 0.4178
vn 0.7348 0.4889 0.4702
vn 0.5586 -0.7747 0.2962
vn -0.5935 -0.7226 -0.3543
vn -0.5708 -0.7525 -0.3285
vn 0.4922 -0.7718 0.4026
vn 0.7409 0.4932 0.4558
vn 0.4906 -0.7716 0.4050
vn 0.2540 -0.6926 0.6751
vn -0.5755 -0.7554 -0.3132
vn 0.6559 -0.7491 0.0928
vn 0.6501 0.6175 0.4428
vn -0.2737 0.9151 0.2960
vn -0.7204 -0.5925 -0.3605
vn -0.7206 0.4038 0.5637
vn -0.8187 -0.4258 -0.3852
vn -0.7688 -0.5482 -0.3293
vn -0.7461 0.5426 0.3860
vn 0.5469 0.7012 0.4574
vn 0.5272 0.7567 0.3866
vn 0.5977 0.7096 0.3732
vn 0.6018 0.7050 0.3753
vn -0.7012 0.7117 0.0424
vn 0.4321 0.7866 0.4412
vn -0.7802 -0.4849 -0.3951
vn -0.7254 -0.5469 -0.4180
vn -0.7344 0.6496 0.1965
vn -0.1168 0.6143 -0.7804
vn -0.5100 0.0318 -0.8596
vn -0.6800 -0.0547 -0.7311
vn -0.4297 0.7598 -0.4880
vn 0.3549 0.9281 -0.1123
vn 0.2696 0.9462 0.1788
vn -0.8451 -0.4263 -0.3225
vn -0.7443 0.6027 0.2876
vn 0.7268 0.5313 0.4352
vn 0.2754 -0.7029 0.6558
vn 0.3719 0.1816 -0.9103
vn -0.4979 -0.5316 -0.6852
vn 0.5184 -0.0075 -0.8551
vn 0.7524 0.6558 0.0624
vn -0.8591 -0.1256 -0.4961
vn -0.5722 0.7737 -0.2718
vn 0.5538 -0.0602 -0.8305
vn 0.8603 0.4939 -0.1260
vn 0.5995 -0.1346 -0.7889
vn -0.2498 -0.5603 -0.7897
vn -0.0700 -0.4510 -0.8898
vn -0.2315 0.6811 -0.6946
vn 0.5560 0.8167 0.1543
vn -0.1512 0.6358 -0.7569
vn -0.7044 -0.3802 -0.5994
vn -0.7222 -0.3041 -0.6213
vn -0.7222 -0.5523 -0.4164
vn 0.8420 0.4152 -0.3444
vn 0.5016 0.8580 0.1104
vn 0.4678 0.7960 0.3841
vn 0.3697 0.8672 -0.3335
# 98 vertex normals

vt 0.7254 0.5925 0.0000
vt 0.6602 0.5925 0.0000
vt 0.5950 0.5925 0.0000
vt 0.5950 0.6470 0.0000
vt 0.6711 0.6470 0.0000
vt 0.7254 0.7403 0.0000
vt 0.1169 0.8843 0.0000
vt 0.2255 0.8182 0.0000
vt 0.2255 0.8843 0.0000
vt 0.2255 0.9505 0.0000
vt 0.1169 0.9894 0.0000
vt 0.1169 0.7831 0.0000
vt 0.0191 0.8182 0.0000
vt 0.0191 0.8843 0.0000
vt 0.9210 0.9933 0.0000
vt 0.9862 0.7053 0.0000
vt 0.9210 0.7053 0.0000
vt 0.8558 0.7053 0.0000
vt 0.8558 0.9933 0.0000
vt 0.9862 0.9933 0.0000
vt 0.0191 0.9505 0.0000
vt 0.2581 0.0011 0.0000
vt 0.5516 0.0011 0.0000
vt 0.2581 0.1995 0.0000
vt 0.5516 0.1995 0.0000
vt 0.9971 0.0011 0.0000
vt 0.9971 0.5536 0.0000
vt 0.6711 0.8843 0.0000
vt 0.8232 0.9855 0.0000
vt 0.8232 0.8843 0.0000
vt 0.8232 0.7793 0.0000
vt 0.6711 0.7793 0.0000
vt 0.6711 0.9855 0.0000
vt 0.2581 0.9855 0.0000
vt 0.3234 0.9543 0.0000
vt 0.2581 0.9232 0.0000
vt 0.5733 0.6586 0.0000
vt 0.6820 0.6003 0.0000
vt 0.8015 0.6586 0.0000
vt 0.6820 0.7170 0.0000
vt 0.5516 0.5536 0.0000
vt 0.0191 0.4524 0.0000
vt 0.2255 0.0167 0.0000
vt 0.0191 0.0167 0.0000
vt 0.2255 0.4524 0.0000
vt 0.0191 0.6081 0.0000
vt 0.2255 0.6081 0.0000
vt 0.0191 0.7131 0.0000
vt 0.6494 0.8921 0.0000
vt 0.3559 0.9699 0.0000
vt 0.2690 0.8065 0.0000
vt 0.6494 0.7831 0.0000
vt 0.4972 0.7131 0.0000
vt 0.4972 0.6081 0.0000
vt 0.2690 0.5847 0.0000
vt 0.4864 0.5847 0.0000
vt 0.4864 0.3163 0.0000
vt 0.2690 0.3163 0.0000
vt 0.4864 0.2384 0.0000
vt -0.7742 0.6042 0.0000
vt -0.9915 0.6042 0.0000
vt -0.8829 0.7131 0.0000
vt -0.5025 0.6042 0.0000
vt -0.5786 0.7131 0.0000
vt -0.6981 0.7870 0.0000
vt -0.5786 0.7520 0.0000
vt -0.5025 0.6859 0.0000
vt -0.4699 0.7676 0.0000
vt 1.7360 0.8999 0.0000
vt 1.7795 0.8999 0.0000
vt 1.7795 0.8532 0.0000
vt 1.7360 0.8532 0.0000
vt 1.7795 0.8065 0.0000
vt -0.4047 0.7403 0.0000
vt 0.6494 0.9699 0.0000
vt 1.4970 0.3007 0.0000
vt 1.4426 0.3746 0.0000
vt 1.4426 0.2423 0.0000
vt 1.4970 0.3746 0.0000
vt 1.7360 0.8065 0.0000
vt 1.7795 0.8843 0.0000
vt 1.7360 0.8843 0.0000
vt 1.5948 0.9154 0.0000
vt 1.6382 0.8376 0.0000
vt 1.5948 0.8376 0.0000
vt 1.6382 0.9154 0.0000
# 86 texture coords

o w00_013_00
g w00_013_00
usemtl Material__237
s 1
f 3/2/3 2/2/2 1/1/1 
f 2/2/2 3/2/3 4/2/4 
f 4/2/4 5/3/5 2/2/2 
f 5/3/5 4/2/4 6/4/6 
f 6/4/6 2/2/2 5/3/5 
f 2/2/2 6/4/6 7/5/7 
f 7/5/7 1/1/1 2/2/2 
f 1/1/1 7/5/7 8/6/8 
f 8/6/8 9/6/9 1/1/1 
f 9/6/9 8/6/8 10/5/10 
f 10/5/10 11/1/11 9/6/9 
f 11/1/11 10/5/10 4/2/4 
f 4/2/4 12/2/12 11/1/11 
f 12/2/12 4/2/4 3/2/3 
f 15/9/15 14/8/14 13/7/13 
f 13/7/13 16/10/16 15/9/15 
f 16/10/16 13/7/13 17/11/17 
f 17/11/17 18/9/18 16/10/16 
f 18/9/18 17/11/17 19/7/19 
f 19/7/19 14/8/14 18/9/18 
f 14/8/14 19/7/19 20/12/20 
f 20/12/20 13/7/13 14/8/14 
f 13/7/13 20/12/20 21/13/21 
f 21/13/21 22/14/22 13/7/13 
f 22/17/23 21/16/24 23/15/23 
f 23/15/23 24/18/25 22/17/23 
f 24/18/25 23/15/23 25/19/26 
f 25/19/26 26/17/27 24/18/25 
f 26/17/27 25/19/26 27/15/11 
f 27/15/11 21/16/24 26/17/27 
f 21/16/24 27/15/11 28/20/24 
f 28/20/24 23/15/23 21/16/24 
f 26/14/28 20/12/20 19/7/19 
f 19/7/19 24/21/29 26/14/28 
f 24/21/29 19/7/19 17/11/17 
f 17/11/17 22/14/22 24/21/29 
f 22/14/22 17/11/17 13/7/13 
f 31/24/23 30/23/23 29/22/23 
f 30/23/23 31/24/23 32/25/23 
f 32/25/23 33/26/23 30/23/23 
f 33/26/23 32/25/23 34/27/23 
f 37/26/19 36/27/19 35/25/19 
f 35/25/19 38/23/19 37/26/19 
f 38/23/19 35/25/19 39/24/19 
f 39/24/19 40/22/19 38/23/19 
f 43/30/19 42/29/17 41/28/19 
f 41/28/19 44/31/24 43/30/19 
f 44/31/24 41/28/19 45/32/24 
f 45/32/24 46/28/23 44/31/24 
f 47/33/17 41/28/19 42/29/17 
f 42/29/17 46/28/23 47/33/17 
f 46/28/23 42/29/17 48/30/23 
f 48/30/23 44/31/24 46/28/23 
f 6/4/6 4/2/4 10/5/10 
f 10/5/10 7/5/7 6/4/6 
f 7/5/7 10/5/10 8/6/8 
f 15/36/30 16/35/30 18/34/30 
f 18/34/30 14/35/30 15/36/30 
f 47/39/31 46/38/31 45/37/31 
f 45/37/31 41/40/31 47/39/31 
f 44/37/30 48/38/30 42/39/30 
f 42/39/30 43/40/30 44/37/30 
f 26/14/28 21/13/21 20/12/20 
f 32/25/23 49/41/23 34/27/23 
f 35/25/19 36/27/19 50/41/19 
f 11/1/11 1/1/1 9/6/9 
f 53/44/33 52/43/32 51/42/23 
f 51/42/23 54/43/34 53/44/33 
f 54/43/34 51/42/23 55/45/35 
f 55/45/35 56/44/36 54/43/34 
f 56/44/36 55/45/35 57/42/37 
f 57/42/37 52/43/32 56/44/36 
f 52/43/32 57/42/37 58/45/38 
f 58/45/38 51/42/23 52/43/32 
f 51/42/23 58/45/38 59/46/39 
f 59/46/39 55/45/35 51/42/23 
f 55/45/35 59/46/39 60/47/40 
f 60/47/40 61/46/41 55/45/35 
f 61/46/41 60/47/40 62/48/42 
f 65/51/45 64/50/44 63/49/43 
f 63/49/43 66/52/46 65/51/45 
f 66/52/46 63/49/43 67/51/47 
f 67/51/47 68/53/48 66/52/46 
f 68/53/48 67/51/47 62/48/42 
f 62/48/42 69/54/49 68/53/48 
f 69/54/49 62/48/42 60/47/40 
f 60/47/40 70/48/50 69/54/49 
f 70/48/50 60/47/40 59/46/39 
f 71/57/51 54/56/34 56/55/36 
f 56/55/36 72/58/52 71/57/51 
f 72/58/52 56/55/36 73/57/53 
f 73/57/53 74/59/31 72/58/52 
f 74/59/31 73/57/53 75/58/54 
f 75/58/54 71/57/51 74/59/31 
f 71/57/51 75/58/54 53/55/33 
f 53/55/33 54/56/34 71/57/51 
f 70/62/57 59/61/56 76/60/55 
f 76/60/55 77/63/58 70/62/57 
f 77/63/58 76/60/55 62/62/59 
f 62/62/59 78/64/60 77/63/58 
f 78/64/60 62/62/59 79/65/61 
f 79/65/61 80/66/62 78/64/60 
f 78/64/60 80/68/64 81/67/63 
f 81/67/63 77/63/58 78/64/60 
f 77/63/58 81/67/63 82/64/65 
f 82/64/65 70/62/57 77/63/58 
f 70/62/57 82/64/65 83/65/66 
f 76/47/67 59/46/39 58/45/38 
f 58/45/38 61/46/41 76/47/67 
f 61/46/41 58/45/38 57/42/37 
f 57/42/37 55/45/35 61/46/41 
f 65/71/70 70/70/69 84/69/68 
f 84/69/68 85/72/71 65/71/70 
f 85/72/71 84/69/68 67/71/72 
f 67/71/72 86/73/73 85/72/71 
f 87/68/74 82/64/65 81/67/63 
f 81/67/63 88/74/75 87/68/74 
f 88/74/75 81/67/63 80/68/64 
f 86/50/76 67/51/47 63/49/43 
f 63/49/43 89/75/77 86/50/76 
f 89/75/77 63/49/43 64/50/44 
f 89/78/80 64/77/79 90/76/78 
f 90/76/78 86/77/81 89/78/80 
f 86/77/81 90/76/78 91/79/30 
f 64/73/82 65/71/70 85/72/71 
f 85/72/71 91/80/83 64/73/82 
f 91/80/83 85/72/71 86/73/73 
f 92/82/86 79/81/85 84/72/84 
f 84/72/84 83/81/87 92/82/86 
f 83/81/87 84/72/84 70/71/88 
f 88/85/91 80/84/90 92/83/89 
f 92/83/89 87/84/92 88/85/91 
f 87/84/92 92/83/89 83/86/93 
f 65/51/45 66/52/46 68/53/48 
f 68/53/48 70/48/50 65/51/45 
f 70/48/50 68/53/48 69/54/49 
f 73/57/53 56/55/36 52/56/32 
f 52/56/32 75/58/54 73/57/53 
f 75/58/54 52/56/32 53/55/33 
f 83/65/66 82/64/65 87/66/94 
f 90/76/78 64/77/79 91/79/30 
f 79/81/85 62/71/95 84/72/84 
f 80/84/90 79/86/96 92/83/89 
f 61/61/97 62/62/59 76/60/55 
f 84/69/68 62/70/98 67/71/72 
f 71/57/51 72/58/52 74/59/31 
# 146 faces

