# 3ds Max Wavefront OBJ Exporter v0.97b - (c)2007 guruware
# File Created: 06.08.2019 17:02:58

mtllib Elucidator68f.mtl

#
# object w00_013_00
#

v  -0.0047 1.1909 0.4005
v  0.0158 1.2095 0.3767
v  0.0115 1.1894 0.3751
v  0.0339 1.2048 0.3886
v  0.0597 1.2040 0.3282
v  0.0659 1.2332 0.3305
v  0.0220 1.2387 0.3789
v  0.0198 1.3068 0.4094
v  0.0379 1.3020 0.4213
v  0.0401 1.2340 0.3908
v  0.0134 1.1861 0.4124
v  0.0296 1.1847 0.3870
v  -0.0149 0.9373 0.3900
v  -0.0320 0.9274 0.3576
v  -0.0268 0.9244 0.3831
v  -0.0520 0.9293 0.3888
v  -0.0545 0.9450 0.3989
v  -0.0571 0.9323 0.3632
v  -0.0626 0.9498 0.3587
v  -0.0230 0.9421 0.3498
v  -0.0255 0.9578 0.3599
v  -0.0204 0.9547 0.3855
v  0.0270 1.1791 0.4028
v  -0.0456 0.9596 0.3911
v  0.0018 1.1840 0.4084
v  -0.0507 0.9627 0.3656
v  -0.0033 1.1871 0.3829
v  0.0219 1.1822 0.3772
v  0.0753 1.1864 0.3220
v  0.0418 1.1894 0.3742
v  0.0874 1.2438 0.3264
v  0.0539 1.2468 0.3786
v  0.0038 1.1929 0.4334
v  0.0380 1.3546 0.4459
v  0.0325 1.2524 0.3646
v  0.0166 1.3602 0.4318
v  -0.0176 1.1985 0.4193
v  0.0204 1.1951 0.3601
v  0.0660 1.2494 0.3123
v  0.0538 1.1920 0.3079
v  -0.0084 1.2018 0.3788
v  -0.0043 1.1796 0.4160
v  -0.0121 1.1842 0.3774
v  0.0259 1.1768 0.3689
v  0.0296 1.1944 0.3702
v  0.0374 1.1898 0.4088
v  -0.0006 1.1972 0.4174
v  0.0337 1.1722 0.4074
v  0.0759 1.3511 0.3867
v  0.0545 1.3567 0.3726
v  0.0573 1.3548 0.4119
v  0.1030 1.6982 0.4594
v  0.1291 1.6943 0.4381
v  0.1377 1.6950 0.4053
v  0.0660 1.3555 0.3791
v  0.1116 1.6989 0.4267
v  0.0399 1.3594 0.4005
v  0.0313 1.3587 0.4333
v  0.0478 1.3094 0.4084
v  0.0627 1.3183 0.3693
v  0.0303 1.3140 0.3970
v  0.0249 1.2883 0.3950
v  0.0756 1.2299 0.3143
v  0.0552 1.2048 0.3454
v  0.0589 1.2522 0.3626
v  0.0771 1.2572 0.3228
v  0.0467 1.2554 0.3547
v  0.0727 1.2829 0.3398
v  0.0791 1.3085 0.3403
v  0.0423 1.2837 0.4065
v  0.2142 2.0573 0.4332
v  0.1881 2.0611 0.4546
v  0.1795 2.0604 0.4874
v  0.2190 2.1637 0.4684
v  0.2056 2.0565 0.4660
v  0.0190 1.3223 0.4375
v  -0.0045 1.3161 0.4708
v  -0.0022 1.2898 0.4493
v  -0.0033 1.2625 0.4395
v  -0.0080 1.2735 0.4533
v  -0.0058 1.2895 0.4621
v  0.0044 1.2881 0.4537
v  0.0038 1.2607 0.4441
v  0.0314 1.2754 0.3999
v  0.0468 1.2478 0.3653
v  0.0465 1.2071 0.3397
v  -0.0029 1.2721 0.4567
v  -0.0142 1.2686 0.4666
v  0.0847 1.2029 0.2898
v  0.0681 1.1941 0.3115
v  0.0447 1.1962 0.3479
v  -0.0028 1.2481 0.4411
# 92 vertices

vn 0.9785 -0.2051 -0.0205
vn 0.6333 0.0446 0.7726
vn -0.1168 -0.0518 0.9918
vn -0.9113 0.4113 -0.0184
vn 0.0226 0.9400 0.3406
vn -0.4726 -0.7807 0.4087
vn 0.4506 -0.5631 0.6927
vn 0.1328 -0.6288 0.7661
vn -0.2059 -0.1529 -0.9666
vn -0.9667 -0.2556 -0.0139
vn -0.6044 0.1874 -0.7743
vn -0.9586 0.1859 0.2157
vn 0.8607 -0.3119 0.4024
vn 0.3278 -0.5924 -0.7359
vn 0.5568 -0.7283 0.3994
vn -0.3245 -0.5499 0.7696
vn -0.5389 0.0490 0.8409
vn -0.9046 -0.3492 -0.2443
vn -0.8167 0.2138 -0.5359
vn 0.3925 0.1240 -0.9114
vn 0.7574 0.4366 -0.4855
vn 0.6190 0.3752 0.6900
vn 0.8167 -0.2138 0.5359
vn 0.5389 -0.0490 -0.8409
vn -0.2530 -0.0211 0.9672
vn -0.7696 0.1142 0.6283
vn -0.9453 0.2184 -0.2425
vn -0.3941 0.6893 -0.6079
vn -0.5325 0.6279 0.5676
vn -0.2061 -0.9756 -0.0752
vn 0.2061 0.9756 0.0752
vn -0.1724 -0.0394 0.9842
vn 0.8507 -0.2166 0.4790
vn 0.8830 -0.1523 -0.4439
vn 0.1579 0.0911 -0.9832
vn -0.7903 0.2113 -0.5752
vn -0.8507 0.2166 -0.4790
vn -0.5252 0.1091 0.8439
vn 0.8486 -0.1942 0.4921
vn 0.5737 0.3998 -0.7148
vn -0.7822 0.2328 -0.5779
vn -0.7050 0.2863 -0.6489
vn 0.5766 0.2665 -0.7724
vn 0.8817 -0.1751 0.4381
vn 0.9017 -0.1510 0.4051
vn 0.5748 0.3820 -0.7236
vn -0.7087 0.2707 -0.6516
vn 0.5747 0.3847 -0.7223
vn 0.5172 0.6832 -0.5156
vn 0.9036 -0.1349 0.4066
vn 0.5567 0.0478 -0.8293
vn -0.8055 0.2619 -0.5315
vn -0.8578 0.2509 0.4486
vn 0.7867 -0.1714 0.5931
vn -0.2975 0.6397 0.7087
vn 0.6523 -0.1943 0.7327
vn 0.7510 -0.1366 0.6460
vn -0.4013 0.4569 0.7939
vn -0.8641 0.2863 -0.4139
vn -0.9035 0.2151 -0.3708
vn -0.8727 0.1941 -0.4481
vn -0.8695 0.1959 -0.4535
vn -0.5283 0.0963 0.8436
vn -0.9175 0.2823 -0.2802
vn 0.7016 -0.2052 0.6824
vn 0.7516 -0.2312 0.6177
vn -0.4816 0.2589 0.8373
vn -0.4595 -0.8028 0.3799
vn 0.2037 -0.7565 0.6214
vn 0.3091 -0.5928 0.7437
vn -0.5663 -0.4755 0.6732
vn -0.9614 -0.2601 -0.0900
vn -0.9982 0.0383 -0.0463
vn 0.6505 -0.1282 0.7486
vn -0.4463 0.3545 0.8217
vn -0.7393 0.2494 -0.6255
vn 0.5248 0.6615 -0.5358
vn -0.1387 -0.9743 -0.1774
vn 0.7200 -0.5342 0.4429
vn 0.0020 -0.9277 -0.3732
vn -0.8149 -0.1323 -0.5643
vn 0.3875 -0.3245 0.8629
vn -0.5757 -0.2401 0.7816
vn 0.0412 -0.9048 -0.4238
vn -0.6587 -0.3204 -0.6808
vn 0.0966 -0.8650 -0.4924
vn 0.7041 -0.6772 0.2135
vn 0.5705 -0.8170 0.0835
vn -0.5088 -0.7051 0.4940
vn -0.9367 -0.0234 -0.3494
vn -0.4753 -0.7759 0.4148
vn 0.6106 -0.4285 0.6660
vn 0.5444 -0.4541 0.7053
vn 0.7559 -0.2297 0.6131
vn -0.5492 -0.5239 -0.6512
vn -0.9579 -0.0607 -0.2805
vn -0.9272 0.2193 -0.3037
vn -0.8763 -0.4737 -0.0872
# 98 vertex normals

vt 0.7254 0.5925 0.0000
vt 0.6602 0.5925 0.0000
vt 0.5950 0.5925 0.0000
vt 0.5950 0.6470 0.0000
vt 0.6711 0.6470 0.0000
vt 0.7254 0.7403 0.0000
vt 0.1169 0.8843 0.0000
vt 0.2255 0.8182 0.0000
vt 0.2255 0.8843 0.0000
vt 0.2255 0.9505 0.0000
vt 0.1169 0.9894 0.0000
vt 0.1169 0.7831 0.0000
vt 0.0191 0.8182 0.0000
vt 0.0191 0.8843 0.0000
vt 0.9210 0.9933 0.0000
vt 0.9862 0.7053 0.0000
vt 0.9210 0.7053 0.0000
vt 0.8558 0.7053 0.0000
vt 0.8558 0.9933 0.0000
vt 0.9862 0.9933 0.0000
vt 0.0191 0.9505 0.0000
vt 0.2581 0.0011 0.0000
vt 0.5516 0.0011 0.0000
vt 0.2581 0.1995 0.0000
vt 0.5516 0.1995 0.0000
vt 0.9971 0.0011 0.0000
vt 0.9971 0.5536 0.0000
vt 0.6711 0.8843 0.0000
vt 0.8232 0.9855 0.0000
vt 0.8232 0.8843 0.0000
vt 0.8232 0.7793 0.0000
vt 0.6711 0.7793 0.0000
vt 0.6711 0.9855 0.0000
vt 0.2581 0.9855 0.0000
vt 0.3234 0.9543 0.0000
vt 0.2581 0.9232 0.0000
vt 0.5733 0.6586 0.0000
vt 0.6820 0.6003 0.0000
vt 0.8015 0.6586 0.0000
vt 0.6820 0.7170 0.0000
vt 0.5516 0.5536 0.0000
vt 0.0191 0.4524 0.0000
vt 0.2255 0.0167 0.0000
vt 0.0191 0.0167 0.0000
vt 0.2255 0.4524 0.0000
vt 0.0191 0.6081 0.0000
vt 0.2255 0.6081 0.0000
vt 0.0191 0.7131 0.0000
vt 0.6494 0.8921 0.0000
vt 0.3559 0.9699 0.0000
vt 0.2690 0.8065 0.0000
vt 0.6494 0.7831 0.0000
vt 0.4972 0.7131 0.0000
vt 0.4972 0.6081 0.0000
vt 0.2690 0.5847 0.0000
vt 0.4864 0.5847 0.0000
vt 0.4864 0.3163 0.0000
vt 0.2690 0.3163 0.0000
vt 0.4864 0.2384 0.0000
vt -0.7742 0.6042 0.0000
vt -0.9915 0.6042 0.0000
vt -0.8829 0.7131 0.0000
vt -0.5025 0.6042 0.0000
vt -0.5786 0.7131 0.0000
vt -0.6981 0.7870 0.0000
vt -0.5786 0.7520 0.0000
vt -0.5025 0.6859 0.0000
vt -0.4699 0.7676 0.0000
vt 1.7360 0.8999 0.0000
vt 1.7795 0.8999 0.0000
vt 1.7795 0.8532 0.0000
vt 1.7360 0.8532 0.0000
vt 1.7795 0.8065 0.0000
vt -0.4047 0.7403 0.0000
vt 0.6494 0.9699 0.0000
vt 1.4970 0.3007 0.0000
vt 1.4426 0.3746 0.0000
vt 1.4426 0.2423 0.0000
vt 1.4970 0.3746 0.0000
vt 1.7360 0.8065 0.0000
vt 1.7795 0.8843 0.0000
vt 1.7360 0.8843 0.0000
vt 1.5948 0.9154 0.0000
vt 1.6382 0.8376 0.0000
vt 1.5948 0.8376 0.0000
vt 1.6382 0.9154 0.0000
# 86 texture coords

o w00_013_00
g w00_013_00
usemtl Material__237
s 1
f 3/2/3 2/2/2 1/1/1 
f 2/2/2 3/2/3 4/2/4 
f 4/2/4 5/3/5 2/2/2 
f 5/3/5 4/2/4 6/4/6 
f 6/4/6 2/2/2 5/3/5 
f 2/2/2 6/4/6 7/5/7 
f 7/5/7 1/1/1 2/2/2 
f 1/1/1 7/5/7 8/6/8 
f 8/6/8 9/6/9 1/1/1 
f 9/6/9 8/6/8 10/5/10 
f 10/5/10 11/1/11 9/6/9 
f 11/1/11 10/5/10 4/2/4 
f 4/2/4 12/2/12 11/1/11 
f 12/2/12 4/2/4 3/2/3 
f 15/9/15 14/8/14 13/7/13 
f 13/7/13 16/10/16 15/9/15 
f 16/10/16 13/7/13 17/11/17 
f 17/11/17 18/9/18 16/10/16 
f 18/9/18 17/11/17 19/7/19 
f 19/7/19 14/8/14 18/9/18 
f 14/8/14 19/7/19 20/12/20 
f 20/12/20 13/7/13 14/8/14 
f 13/7/13 20/12/20 21/13/21 
f 21/13/21 22/14/22 13/7/13 
f 22/17/23 21/16/24 23/15/23 
f 23/15/23 24/18/25 22/17/23 
f 24/18/25 23/15/23 25/19/26 
f 25/19/26 26/17/27 24/18/25 
f 26/17/27 25/19/26 27/15/11 
f 27/15/11 21/16/24 26/17/27 
f 21/16/24 27/15/11 28/20/24 
f 28/20/24 23/15/23 21/16/24 
f 26/14/28 20/12/20 19/7/19 
f 19/7/19 24/21/29 26/14/28 
f 24/21/29 19/7/19 17/11/17 
f 17/11/17 22/14/22 24/21/29 
f 22/14/22 17/11/17 13/7/13 
f 31/24/23 30/23/23 29/22/23 
f 30/23/23 31/24/23 32/25/23 
f 32/25/23 33/26/23 30/23/23 
f 33/26/23 32/25/23 34/27/23 
f 37/26/19 36/27/19 35/25/19 
f 35/25/19 38/23/19 37/26/19 
f 38/23/19 35/25/19 39/24/19 
f 39/24/19 40/22/19 38/23/19 
f 43/30/19 42/29/17 41/28/19 
f 41/28/19 44/31/24 43/30/19 
f 44/31/24 41/28/19 45/32/24 
f 45/32/24 46/28/23 44/31/24 
f 47/33/17 41/28/19 42/29/17 
f 42/29/17 46/28/23 47/33/17 
f 46/28/23 42/29/17 48/30/23 
f 48/30/23 44/31/24 46/28/23 
f 6/4/6 4/2/4 10/5/10 
f 10/5/10 7/5/7 6/4/6 
f 7/5/7 10/5/10 8/6/8 
f 15/36/30 16/35/30 18/34/30 
f 18/34/30 14/35/30 15/36/30 
f 47/39/31 46/38/31 45/37/31 
f 45/37/31 41/40/31 47/39/31 
f 44/37/30 48/38/30 42/39/30 
f 42/39/30 43/40/30 44/37/30 
f 26/14/28 21/13/21 20/12/20 
f 32/25/23 49/41/23 34/27/23 
f 35/25/19 36/27/19 50/41/19 
f 11/1/11 1/1/1 9/6/9 
f 53/44/33 52/43/32 51/42/23 
f 51/42/23 54/43/34 53/44/33 
f 54/43/34 51/42/23 55/45/35 
f 55/45/35 56/44/36 54/43/34 
f 56/44/36 55/45/35 57/42/37 
f 57/42/37 52/43/32 56/44/36 
f 52/43/32 57/42/37 58/45/38 
f 58/45/38 51/42/23 52/43/32 
f 51/42/23 58/45/38 59/46/39 
f 59/46/39 55/45/35 51/42/23 
f 55/45/35 59/46/39 60/47/40 
f 60/47/40 61/46/41 55/45/35 
f 61/46/41 60/47/40 62/48/42 
f 65/51/45 64/50/44 63/49/43 
f 63/49/43 66/52/46 65/51/45 
f 66/52/46 63/49/43 67/51/47 
f 67/51/47 68/53/48 66/52/46 
f 68/53/48 67/51/47 62/48/42 
f 62/48/42 69/54/49 68/53/48 
f 69/54/49 62/48/42 60/47/40 
f 60/47/40 70/48/50 69/54/49 
f 70/48/50 60/47/40 59/46/39 
f 71/57/51 54/56/34 56/55/36 
f 56/55/36 72/58/52 71/57/51 
f 72/58/52 56/55/36 73/57/53 
f 73/57/53 74/59/31 72/58/52 
f 74/59/31 73/57/53 75/58/54 
f 75/58/54 71/57/51 74/59/31 
f 71/57/51 75/58/54 53/55/33 
f 53/55/33 54/56/34 71/57/51 
f 70/62/57 59/61/56 76/60/55 
f 76/60/55 77/63/58 70/62/57 
f 77/63/58 76/60/55 62/62/59 
f 62/62/59 78/64/60 77/63/58 
f 78/64/60 62/62/59 79/65/61 
f 79/65/61 80/66/62 78/64/60 
f 78/64/60 80/68/64 81/67/63 
f 81/67/63 77/63/58 78/64/60 
f 77/63/58 81/67/63 82/64/65 
f 82/64/65 70/62/57 77/63/58 
f 70/62/57 82/64/65 83/65/66 
f 76/47/67 59/46/39 58/45/38 
f 58/45/38 61/46/41 76/47/67 
f 61/46/41 58/45/38 57/42/37 
f 57/42/37 55/45/35 61/46/41 
f 65/71/70 70/70/69 84/69/68 
f 84/69/68 85/72/71 65/71/70 
f 85/72/71 84/69/68 67/71/72 
f 67/71/72 86/73/73 85/72/71 
f 87/68/74 82/64/65 81/67/63 
f 81/67/63 88/74/75 87/68/74 
f 88/74/75 81/67/63 80/68/64 
f 86/50/76 67/51/47 63/49/43 
f 63/49/43 89/75/77 86/50/76 
f 89/75/77 63/49/43 64/50/44 
f 89/78/80 64/77/79 90/76/78 
f 90/76/78 86/77/81 89/78/80 
f 86/77/81 90/76/78 91/79/30 
f 64/73/82 65/71/70 85/72/71 
f 85/72/71 91/80/83 64/73/82 
f 91/80/83 85/72/71 86/73/73 
f 92/82/86 79/81/85 84/72/84 
f 84/72/84 83/81/87 92/82/86 
f 83/81/87 84/72/84 70/71/88 
f 88/85/91 80/84/90 92/83/89 
f 92/83/89 87/84/92 88/85/91 
f 87/84/92 92/83/89 83/86/93 
f 65/51/45 66/52/46 68/53/48 
f 68/53/48 70/48/50 65/51/45 
f 70/48/50 68/53/48 69/54/49 
f 73/57/53 56/55/36 52/56/32 
f 52/56/32 75/58/54 73/57/53 
f 75/58/54 52/56/32 53/55/33 
f 83/65/66 82/64/65 87/66/94 
f 90/76/78 64/77/79 91/79/30 
f 79/81/85 62/71/95 84/72/84 
f 80/84/90 79/86/96 92/83/89 
f 61/61/97 62/62/59 76/60/55 
f 84/69/68 62/70/98 67/71/72 
f 71/57/51 72/58/52 74/59/31 
# 146 faces

