# 3ds Max Wavefront OBJ Exporter v0.97b - (c)2007 guruware
# File Created: 06.08.2019 17:03:16

mtllib Elucidator99f.mtl

#
# object w00_013_00
#

v  0.0461 0.5051 0.4253
v  0.0786 0.4898 0.4190
v  0.0695 0.5033 0.4064
v  0.0687 0.4731 0.4082
v  0.1240 0.4777 0.3732
v  0.1372 0.4580 0.3915
v  0.0919 0.4701 0.4373
v  0.0985 0.4270 0.4978
v  0.0886 0.4104 0.4871
v  0.0820 0.4534 0.4265
v  0.0362 0.4885 0.4145
v  0.0596 0.4867 0.3956
v  -0.0702 0.6384 0.2430
v  -0.0496 0.6695 0.2361
v  -0.0723 0.6567 0.2387
v  -0.0785 0.6717 0.2593
v  -0.0799 0.6621 0.2755
v  -0.0557 0.6846 0.2567
v  -0.0441 0.6824 0.2714
v  -0.0344 0.6587 0.2389
v  -0.0358 0.6491 0.2550
v  -0.0586 0.6362 0.2576
v  0.0430 0.4850 0.3981
v  -0.0647 0.6513 0.2783
v  0.0368 0.5001 0.4187
v  -0.0420 0.6641 0.2757
v  0.0596 0.5129 0.4161
v  0.0657 0.4979 0.3955
v  0.1231 0.4764 0.3489
v  0.0747 0.4801 0.3878
v  0.1490 0.4378 0.3848
v  0.1007 0.4414 0.4237
v  0.0200 0.4842 0.4318
v  0.0932 0.3753 0.5330
v  0.1124 0.4611 0.4364
v  0.1049 0.3950 0.5457
v  0.0317 0.5039 0.4445
v  0.0865 0.4998 0.4005
v  0.1608 0.4575 0.3975
v  0.1348 0.4962 0.3616
v  0.0696 0.5115 0.4287
v  0.0273 0.5039 0.4216
v  0.0616 0.5234 0.4177
v  0.0709 0.5006 0.3865
v  0.0789 0.4888 0.3975
v  0.0445 0.4694 0.4015
v  0.0352 0.4921 0.4326
v  0.0365 0.4812 0.3904
v  0.1479 0.3712 0.4889
v  0.1596 0.3909 0.5017
v  0.1253 0.3737 0.5108
v  0.2587 0.1549 0.7487
v  0.2789 0.1450 0.7233
v  0.3088 0.1511 0.7084
v  0.1551 0.3799 0.4959
v  0.2885 0.1610 0.7337
v  0.1348 0.3898 0.5212
v  0.1050 0.3836 0.5361
v  0.1047 0.4043 0.4824
v  0.1449 0.4042 0.4677
v  0.1143 0.4204 0.4928
v  0.1027 0.4377 0.4767
v  0.1510 0.4584 0.3781
v  0.1090 0.4739 0.3819
v  0.1178 0.4414 0.4196
v  0.1571 0.4408 0.3997
v  0.1245 0.4526 0.4268
v  0.1545 0.4251 0.4265
v  0.1675 0.4077 0.4414
v  0.0931 0.4216 0.4663
v  0.4727 -0.0929 0.9351
v  0.4524 -0.0830 0.9604
v  0.4226 -0.0892 0.9754
v  0.4951 -0.1617 1.0209
v  0.4429 -0.0991 0.9501
v  0.0819 0.4089 0.5184
v  0.0467 0.4168 0.5385
v  0.0527 0.4362 0.5113
v  0.0477 0.4540 0.4889
v  0.0405 0.4469 0.5041
v  0.0410 0.4340 0.5172
v  0.0491 0.4301 0.5073
v  0.0438 0.4475 0.4847
v  0.0931 0.4368 0.4649
v  0.1116 0.4518 0.4246
v  0.1138 0.4819 0.3871
v  0.0377 0.4422 0.5010
v  0.0258 0.4487 0.5084
v  0.1602 0.4742 0.3452
v  0.1348 0.4826 0.3557
v  0.1011 0.4851 0.3827
v  0.0393 0.4599 0.4786
# 92 vertices

vn 0.0596 -0.6576 -0.7510
vn -0.5512 -0.8269 -0.1115
vn -0.8957 -0.2836 0.3424
vn 0.0844 0.5224 0.8485
vn 0.1692 -0.6040 0.7789
vn -0.8016 0.5773 -0.1554
vn -0.8056 -0.3618 -0.4691
vn -0.9470 -0.1118 -0.3010
vn 0.7272 0.6231 -0.2878
vn -0.2533 0.8824 0.3966
vn 0.6701 0.6942 0.2627
vn -0.2340 0.5727 0.7857
vn -0.3736 -0.6850 -0.6254
vn 0.3916 0.3236 -0.8614
vn -0.6184 -0.2476 -0.7458
vn -0.9779 0.2061 0.0356
vn -0.7779 0.0586 0.6256
vn -0.0917 0.9715 0.2187
vn 0.4470 0.7513 0.4855
vn 0.9018 0.0015 -0.4322
vn 0.7410 -0.6043 -0.2930
vn -0.3207 -0.9404 0.1129
vn -0.4470 -0.7513 -0.4855
vn 0.7779 -0.0586 -0.6256
vn -0.8794 -0.1820 0.4400
vn -0.5967 0.2932 0.7470
vn 0.1781 0.7313 0.6584
vn 0.8025 0.2232 0.5533
vn -0.2591 -0.1129 0.9592
vn -0.4416 0.6573 -0.6107
vn 0.4416 -0.6573 0.6107
vn -0.8913 -0.2431 0.3829
vn -0.3945 -0.7535 -0.5259
vn 0.4358 -0.4378 -0.7864
vn 0.9135 0.2292 -0.3361
vn 0.4834 0.7477 0.4553
vn 0.3945 0.7535 0.5259
vn -0.7492 0.0179 0.6621
vn -0.3951 -0.7679 -0.5042
vn 0.8936 -0.3510 -0.2797
vn 0.4974 0.7322 0.4652
vn 0.5958 0.6750 0.4353
vn 0.8785 -0.2663 -0.3967
vn -0.3345 -0.7812 -0.5272
vn -0.2914 -0.7950 -0.5320
vn 0.8927 -0.3398 -0.2960
vn 0.5900 0.6864 0.4252
vn 0.8929 -0.3415 -0.2936
vn 0.8523 -0.5225 0.0238
vn -0.2846 -0.8048 -0.5209
vn 0.8178 -0.1234 -0.5621
vn 0.4683 0.7178 0.5152
vn -0.3880 0.3691 0.8445
vn -0.4798 -0.7712 -0.4184
vn -0.3407 -0.3589 0.8690
vn -0.6306 -0.7115 -0.3099
vn -0.5135 -0.7813 -0.3548
vn -0.5183 -0.2248 0.8251
vn 0.3705 0.7045 0.6053
vn 0.2929 0.7519 0.5906
vn 0.3536 0.7690 0.5325
vn 0.3596 0.7678 0.5302
vn -0.7556 0.0267 0.6545
vn 0.2458 0.6943 0.6765
vn -0.5855 -0.7246 -0.3635
vn -0.5353 -0.7252 -0.4331
vn -0.6640 -0.0850 0.7429
vn -0.7856 0.5893 -0.1885
vn -0.8746 -0.0479 -0.4825
vn -0.8845 -0.2577 -0.3889
vn -0.8937 0.3980 0.2069
vn -0.1891 0.9111 0.3663
vn -0.0864 0.7796 0.6203
vn -0.6124 -0.7481 -0.2556
vn -0.5988 -0.1519 0.7864
vn 0.5527 0.7100 0.4364
vn 0.8602 -0.5099 -0.0029
vn -0.3432 0.6452 -0.6826
vn -0.5374 -0.4853 -0.6897
vn -0.1315 0.5921 -0.7951
vn 0.3026 0.9267 0.2227
vn -0.8447 -0.4950 -0.2034
vn -0.8734 0.2494 0.4183
vn -0.0711 0.5709 -0.8180
vn 0.3338 0.9415 -0.0459
vn 0.0154 0.5362 -0.8439
vn -0.4121 -0.3121 -0.8560
vn -0.3880 -0.0887 -0.9174
vn -0.8432 0.5351 -0.0516
vn 0.1532 0.8832 0.4434
vn -0.8048 0.5747 -0.1484
vn -0.6936 -0.5402 -0.4764
vn -0.7496 -0.4921 -0.4426
vn -0.5300 -0.7273 -0.4360
vn 0.2248 0.9413 -0.2518
vn 0.0726 0.8898 0.4504
vn 0.2338 0.7414 0.6290
vn -0.2835 0.9456 0.1595
# 98 vertex normals

vt 0.7254 0.5925 0.0000
vt 0.6602 0.5925 0.0000
vt 0.5950 0.5925 0.0000
vt 0.5950 0.6470 0.0000
vt 0.6711 0.6470 0.0000
vt 0.7254 0.7403 0.0000
vt 0.1169 0.8843 0.0000
vt 0.2255 0.8182 0.0000
vt 0.2255 0.8843 0.0000
vt 0.2255 0.9505 0.0000
vt 0.1169 0.9894 0.0000
vt 0.1169 0.7831 0.0000
vt 0.0191 0.8182 0.0000
vt 0.0191 0.8843 0.0000
vt 0.9210 0.9933 0.0000
vt 0.9862 0.7053 0.0000
vt 0.9210 0.7053 0.0000
vt 0.8558 0.7053 0.0000
vt 0.8558 0.9933 0.0000
vt 0.9862 0.9933 0.0000
vt 0.0191 0.9505 0.0000
vt 0.2581 0.0011 0.0000
vt 0.5516 0.0011 0.0000
vt 0.2581 0.1995 0.0000
vt 0.5516 0.1995 0.0000
vt 0.9971 0.0011 0.0000
vt 0.9971 0.5536 0.0000
vt 0.6711 0.8843 0.0000
vt 0.8232 0.9855 0.0000
vt 0.8232 0.8843 0.0000
vt 0.8232 0.7793 0.0000
vt 0.6711 0.7793 0.0000
vt 0.6711 0.9855 0.0000
vt 0.2581 0.9855 0.0000
vt 0.3234 0.9543 0.0000
vt 0.2581 0.9232 0.0000
vt 0.5733 0.6586 0.0000
vt 0.6820 0.6003 0.0000
vt 0.8015 0.6586 0.0000
vt 0.6820 0.7170 0.0000
vt 0.5516 0.5536 0.0000
vt 0.0191 0.4524 0.0000
vt 0.2255 0.0167 0.0000
vt 0.0191 0.0167 0.0000
vt 0.2255 0.4524 0.0000
vt 0.0191 0.6081 0.0000
vt 0.2255 0.6081 0.0000
vt 0.0191 0.7131 0.0000
vt 0.6494 0.8921 0.0000
vt 0.3559 0.9699 0.0000
vt 0.2690 0.8065 0.0000
vt 0.6494 0.7831 0.0000
vt 0.4972 0.7131 0.0000
vt 0.4972 0.6081 0.0000
vt 0.2690 0.5847 0.0000
vt 0.4864 0.5847 0.0000
vt 0.4864 0.3163 0.0000
vt 0.2690 0.3163 0.0000
vt 0.4864 0.2384 0.0000
vt -0.7742 0.6042 0.0000
vt -0.9915 0.6042 0.0000
vt -0.8829 0.7131 0.0000
vt -0.5025 0.6042 0.0000
vt -0.5786 0.7131 0.0000
vt -0.6981 0.7870 0.0000
vt -0.5786 0.7520 0.0000
vt -0.5025 0.6859 0.0000
vt -0.4699 0.7676 0.0000
vt 1.7360 0.8999 0.0000
vt 1.7795 0.8999 0.0000
vt 1.7795 0.8532 0.0000
vt 1.7360 0.8532 0.0000
vt 1.7795 0.8065 0.0000
vt -0.4047 0.7403 0.0000
vt 0.6494 0.9699 0.0000
vt 1.4970 0.3007 0.0000
vt 1.4426 0.3746 0.0000
vt 1.4426 0.2423 0.0000
vt 1.4970 0.3746 0.0000
vt 1.7360 0.8065 0.0000
vt 1.7795 0.8843 0.0000
vt 1.7360 0.8843 0.0000
vt 1.5948 0.9154 0.0000
vt 1.6382 0.8376 0.0000
vt 1.5948 0.8376 0.0000
vt 1.6382 0.9154 0.0000
# 86 texture coords

o w00_013_00
g w00_013_00
usemtl Material__237
s 1
f 3/2/3 2/2/2 1/1/1 
f 2/2/2 3/2/3 4/2/4 
f 4/2/4 5/3/5 2/2/2 
f 5/3/5 4/2/4 6/4/6 
f 6/4/6 2/2/2 5/3/5 
f 2/2/2 6/4/6 7/5/7 
f 7/5/7 1/1/1 2/2/2 
f 1/1/1 7/5/7 8/6/8 
f 8/6/8 9/6/9 1/1/1 
f 9/6/9 8/6/8 10/5/10 
f 10/5/10 11/1/11 9/6/9 
f 11/1/11 10/5/10 4/2/4 
f 4/2/4 12/2/12 11/1/11 
f 12/2/12 4/2/4 3/2/3 
f 15/9/15 14/8/14 13/7/13 
f 13/7/13 16/10/16 15/9/15 
f 16/10/16 13/7/13 17/11/17 
f 17/11/17 18/9/18 16/10/16 
f 18/9/18 17/11/17 19/7/19 
f 19/7/19 14/8/14 18/9/18 
f 14/8/14 19/7/19 20/12/20 
f 20/12/20 13/7/13 14/8/14 
f 13/7/13 20/12/20 21/13/21 
f 21/13/21 22/14/22 13/7/13 
f 22/17/23 21/16/24 23/15/23 
f 23/15/23 24/18/25 22/17/23 
f 24/18/25 23/15/23 25/19/26 
f 25/19/26 26/17/27 24/18/25 
f 26/17/27 25/19/26 27/15/11 
f 27/15/11 21/16/24 26/17/27 
f 21/16/24 27/15/11 28/20/24 
f 28/20/24 23/15/23 21/16/24 
f 26/14/28 20/12/20 19/7/19 
f 19/7/19 24/21/29 26/14/28 
f 24/21/29 19/7/19 17/11/17 
f 17/11/17 22/14/22 24/21/29 
f 22/14/22 17/11/17 13/7/13 
f 31/24/23 30/23/23 29/22/23 
f 30/23/23 31/24/23 32/25/23 
f 32/25/23 33/26/23 30/23/23 
f 33/26/23 32/25/23 34/27/23 
f 37/26/19 36/27/19 35/25/19 
f 35/25/19 38/23/19 37/26/19 
f 38/23/19 35/25/19 39/24/19 
f 39/24/19 40/22/19 38/23/19 
f 43/30/19 42/29/17 41/28/19 
f 41/28/19 44/31/24 43/30/19 
f 44/31/24 41/28/19 45/32/24 
f 45/32/24 46/28/23 44/31/24 
f 47/33/17 41/28/19 42/29/17 
f 42/29/17 46/28/23 47/33/17 
f 46/28/23 42/29/17 48/30/23 
f 48/30/23 44/31/24 46/28/23 
f 6/4/6 4/2/4 10/5/10 
f 10/5/10 7/5/7 6/4/6 
f 7/5/7 10/5/10 8/6/8 
f 15/36/30 16/35/30 18/34/30 
f 18/34/30 14/35/30 15/36/30 
f 47/39/31 46/38/31 45/37/31 
f 45/37/31 41/40/31 47/39/31 
f 44/37/30 48/38/30 42/39/30 
f 42/39/30 43/40/30 44/37/30 
f 26/14/28 21/13/21 20/12/20 
f 32/25/23 49/41/23 34/27/23 
f 35/25/19 36/27/19 50/41/19 
f 11/1/11 1/1/1 9/6/9 
f 53/44/33 52/43/32 51/42/23 
f 51/42/23 54/43/34 53/44/33 
f 54/43/34 51/42/23 55/45/35 
f 55/45/35 56/44/36 54/43/34 
f 56/44/36 55/45/35 57/42/37 
f 57/42/37 52/43/32 56/44/36 
f 52/43/32 57/42/37 58/45/38 
f 58/45/38 51/42/23 52/43/32 
f 51/42/23 58/45/38 59/46/39 
f 59/46/39 55/45/35 51/42/23 
f 55/45/35 59/46/39 60/47/40 
f 60/47/40 61/46/41 55/45/35 
f 61/46/41 60/47/40 62/48/42 
f 65/51/45 64/50/44 63/49/43 
f 63/49/43 66/52/46 65/51/45 
f 66/52/46 63/49/43 67/51/47 
f 67/51/47 68/53/48 66/52/46 
f 68/53/48 67/51/47 62/48/42 
f 62/48/42 69/54/49 68/53/48 
f 69/54/49 62/48/42 60/47/40 
f 60/47/40 70/48/50 69/54/49 
f 70/48/50 60/47/40 59/46/39 
f 71/57/51 54/56/34 56/55/36 
f 56/55/36 72/58/52 71/57/51 
f 72/58/52 56/55/36 73/57/53 
f 73/57/53 74/59/31 72/58/52 
f 74/59/31 73/57/53 75/58/54 
f 75/58/54 71/57/51 74/59/31 
f 71/57/51 75/58/54 53/55/33 
f 53/55/33 54/56/34 71/57/51 
f 70/62/57 59/61/56 76/60/55 
f 76/60/55 77/63/58 70/62/57 
f 77/63/58 76/60/55 62/62/59 
f 62/62/59 78/64/60 77/63/58 
f 78/64/60 62/62/59 79/65/61 
f 79/65/61 80/66/62 78/64/60 
f 78/64/60 80/68/64 81/67/63 
f 81/67/63 77/63/58 78/64/60 
f 77/63/58 81/67/63 82/64/65 
f 82/64/65 70/62/57 77/63/58 
f 70/62/57 82/64/65 83/65/66 
f 76/47/67 59/46/39 58/45/38 
f 58/45/38 61/46/41 76/47/67 
f 61/46/41 58/45/38 57/42/37 
f 57/42/37 55/45/35 61/46/41 
f 65/71/70 70/70/69 84/69/68 
f 84/69/68 85/72/71 65/71/70 
f 85/72/71 84/69/68 67/71/72 
f 67/71/72 86/73/73 85/72/71 
f 87/68/74 82/64/65 81/67/63 
f 81/67/63 88/74/75 87/68/74 
f 88/74/75 81/67/63 80/68/64 
f 86/50/76 67/51/47 63/49/43 
f 63/49/43 89/75/77 86/50/76 
f 89/75/77 63/49/43 64/50/44 
f 89/78/80 64/77/79 90/76/78 
f 90/76/78 86/77/81 89/78/80 
f 86/77/81 90/76/78 91/79/30 
f 64/73/82 65/71/70 85/72/71 
f 85/72/71 91/80/83 64/73/82 
f 91/80/83 85/72/71 86/73/73 
f 92/82/86 79/81/85 84/72/84 
f 84/72/84 83/81/87 92/82/86 
f 83/81/87 84/72/84 70/71/88 
f 88/85/91 80/84/90 92/83/89 
f 92/83/89 87/84/92 88/85/91 
f 87/84/92 92/83/89 83/86/93 
f 65/51/45 66/52/46 68/53/48 
f 68/53/48 70/48/50 65/51/45 
f 70/48/50 68/53/48 69/54/49 
f 73/57/53 56/55/36 52/56/32 
f 52/56/32 75/58/54 73/57/53 
f 75/58/54 52/56/32 53/55/33 
f 83/65/66 82/64/65 87/66/94 
f 90/76/78 64/77/79 91/79/30 
f 79/81/85 62/71/95 84/72/84 
f 80/84/90 79/86/96 92/83/89 
f 61/61/97 62/62/59 76/60/55 
f 84/69/68 62/70/98 67/71/72 
f 71/57/51 72/58/52 74/59/31 
# 146 faces

