# 3ds Max Wavefront OBJ Exporter v0.97b - (c)2007 guruware
# File Created: 06.08.2019 17:02:37

mtllib Elucidator37f.mtl

#
# object w00_013_00
#

v  -0.3556 0.9467 0.3569
v  -0.3282 0.9277 0.3719
v  -0.3320 0.9286 0.3516
v  -0.3414 0.9099 0.3735
v  -0.2842 0.8802 0.3614
v  -0.2787 0.8788 0.3908
v  -0.3227 0.9263 0.4013
v  -0.3338 0.9411 0.4736
v  -0.3470 0.9234 0.4752
v  -0.3359 0.9085 0.4029
v  -0.3688 0.9289 0.3585
v  -0.3452 0.9109 0.3533
v  -0.4131 0.9166 0.1113
v  -0.3840 0.9297 0.0907
v  -0.4096 0.9259 0.0953
v  -0.4131 0.9519 0.0971
v  -0.4186 0.9575 0.1143
v  -0.3875 0.9556 0.0925
v  -0.3783 0.9634 0.1070
v  -0.3728 0.9226 0.1041
v  -0.3783 0.9282 0.1212
v  -0.4039 0.9244 0.1258
v  -0.3617 0.9137 0.3516
v  -0.4074 0.9504 0.1277
v  -0.3652 0.9397 0.3535
v  -0.3818 0.9542 0.1231
v  -0.3397 0.9434 0.3489
v  -0.3362 0.9175 0.3470
v  -0.2833 0.8616 0.3457
v  -0.3319 0.8988 0.3565
v  -0.2725 0.8589 0.4034
v  -0.3211 0.8960 0.4143
v  -0.3870 0.9408 0.3688
v  -0.3566 0.9331 0.5315
v  -0.3055 0.9170 0.4123
v  -0.3410 0.9541 0.5296
v  -0.3714 0.9618 0.3669
v  -0.3163 0.9198 0.3546
v  -0.2569 0.8799 0.4015
v  -0.2676 0.8826 0.3438
v  -0.3316 0.9504 0.3610
v  -0.3736 0.9456 0.3502
v  -0.3349 0.9512 0.3433
v  -0.3297 0.9121 0.3405
v  -0.3264 0.9112 0.3582
v  -0.3650 0.9055 0.3651
v  -0.3702 0.9447 0.3680
v  -0.3683 0.9064 0.3474
v  -0.3015 0.8910 0.5192
v  -0.2859 0.9120 0.5173
v  -0.3244 0.9117 0.5262
v  -0.2794 0.9233 0.8727
v  -0.2606 0.8955 0.8679
v  -0.2290 0.8848 0.8615
v  -0.2928 0.9010 0.5198
v  -0.2478 0.9126 0.8663
v  -0.3116 0.9288 0.5246
v  -0.3432 0.9395 0.5310
v  -0.3329 0.9139 0.4805
v  -0.2932 0.8978 0.4813
v  -0.3202 0.9310 0.4790
v  -0.3250 0.9322 0.4531
v  -0.2642 0.8675 0.3852
v  -0.3004 0.8859 0.3659
v  -0.3044 0.8908 0.4160
v  -0.2652 0.8708 0.4135
v  -0.2955 0.9028 0.4150
v  -0.2746 0.8803 0.4417
v  -0.2683 0.8780 0.4672
v  -0.3377 0.9151 0.4547
v  -0.1609 0.8675 1.2261
v  -0.1798 0.8952 1.2309
v  -0.2113 0.9059 1.2373
v  -0.1664 0.8817 1.3373
v  -0.1925 0.8781 1.2325
v  -0.3566 0.9462 0.4955
v  -0.3898 0.9708 0.4943
v  -0.3762 0.9630 0.4641
v  -0.3740 0.9591 0.4354
v  -0.3843 0.9664 0.4486
v  -0.3885 0.9673 0.4665
v  -0.3810 0.9565 0.4647
v  -0.3791 0.9521 0.4360
v  -0.3334 0.9242 0.4432
v  -0.3078 0.9022 0.4106
v  -0.2940 0.8945 0.3652
v  -0.3880 0.9614 0.4491
v  -0.3982 0.9726 0.4464
v  -0.2481 0.8527 0.3546
v  -0.2710 0.8692 0.3491
v  -0.3048 0.8951 0.3566
v  -0.3795 0.9565 0.4222
# 92 vertices

vn -0.0610 -0.9975 -0.0360
vn -0.7489 -0.5630 0.3495
vn -0.9660 0.1766 0.1888
vn 0.1519 0.9605 0.2332
vn -0.0769 0.1472 0.9861
vn -0.5902 0.3734 -0.7157
vn -0.8298 -0.4828 -0.2798
vn -0.9098 -0.1746 -0.3767
vn 0.8954 0.1115 -0.4310
vn -0.0296 0.9120 -0.4091
vn 0.8119 0.5704 -0.1245
vn -0.1326 0.9886 0.0717
vn -0.4938 -0.8683 -0.0474
vn 0.5415 -0.4664 -0.6995
vn -0.5943 -0.6336 -0.4953
vn -0.8799 0.2885 -0.3776
vn -0.7826 0.5976 0.1745
vn 0.1656 0.8202 -0.5475
vn 0.5950 0.8004 -0.0731
vn 0.9006 -0.4314 -0.0529
vn 0.5645 -0.7127 0.4163
vn -0.5804 -0.5035 0.6400
vn -0.5950 -0.8004 0.0731
vn 0.7826 -0.5976 -0.1745
vn -0.9305 0.3138 0.1887
vn -0.5543 0.8201 0.1425
vn 0.3170 0.9483 -0.0141
vn 0.7805 0.4526 0.4313
vn -0.3645 0.6618 0.6551
vn -0.1833 0.0467 -0.9819
vn 0.1833 -0.0467 0.9819
vn -0.9540 0.2327 0.1892
vn -0.5418 -0.8383 0.0613
vn 0.3635 -0.9249 -0.1118
vn 0.9672 -0.2104 -0.1422
vn 0.6314 0.7712 -0.0812
vn 0.5418 0.8383 -0.0613
vn -0.7698 0.5936 0.2347
vn -0.5484 -0.8318 0.0857
vn 0.7804 -0.5535 0.2909
vn 0.6396 0.7664 -0.0602
vn 0.7202 0.6936 -0.0147
vn 0.8000 -0.5810 0.1497
vn -0.4921 -0.8653 0.0955
vn -0.4544 -0.8836 0.1132
vn 0.7840 -0.5580 0.2719
vn 0.7187 0.6946 -0.0309
vn 0.7835 -0.5573 0.2748
vn 0.6658 -0.4399 0.6026
vn -0.4516 -0.8828 0.1292
vn 0.7969 -0.5993 -0.0765
vn 0.6033 0.7971 -0.0243
vn -0.3422 0.9156 0.2110
vn -0.6379 -0.7602 0.1232
vn -0.5034 0.4420 0.7424
vn -0.7749 -0.6215 0.1152
vn -0.6785 -0.7160 0.1641
vn -0.6317 0.5219 0.5733
vn 0.4981 0.8669 0.0196
vn 0.4386 0.8976 -0.0436
vn 0.5065 0.8586 -0.0784
vn 0.5121 0.8554 -0.0776
vn -0.7728 0.5947 0.2219
vn 0.3697 0.9282 0.0415
vn -0.7307 -0.6754 0.1000
vn -0.6767 -0.7332 0.0669
vn -0.7244 0.5734 0.3828
vn -0.5687 0.3550 -0.7420
vn -0.8064 -0.2744 -0.5238
vn -0.8831 -0.3444 -0.3186
vn -0.7608 0.5315 -0.3724
vn 0.0424 0.9007 -0.4323
vn 0.0812 0.9863 -0.1433
vn -0.7725 -0.6084 0.1818
vn -0.6847 0.5523 0.4755
vn 0.6887 0.7233 -0.0496
vn 0.6793 -0.4521 0.5781
vn -0.0863 -0.0267 -0.9959
vn -0.5886 -0.7613 -0.2720
vn 0.1110 -0.1719 -0.9788
vn 0.5296 0.7430 -0.4093
vn -0.9282 -0.3716 -0.0194
vn -0.8019 0.5849 -0.1221
vn 0.1649 -0.2105 -0.9636
vn 0.5873 0.5517 -0.5922
vn 0.2401 -0.2637 -0.9342
vn -0.4055 -0.7839 -0.4703
vn -0.3143 -0.6830 -0.6594
vn -0.6511 0.4267 -0.6276
vn 0.3549 0.8950 -0.2703
vn -0.5947 0.3772 -0.7099
vn -0.7723 -0.6215 -0.1319
vn -0.8152 -0.5574 -0.1572
vn -0.6719 -0.7375 0.0678
vn 0.5014 0.4143 -0.7596
vn 0.2792 0.9149 -0.2916
vn 0.3757 0.9264 -0.0261
vn -0.0197 0.7840 -0.6204
# 98 vertex normals

vt 0.7254 0.5925 0.0000
vt 0.6602 0.5925 0.0000
vt 0.5950 0.5925 0.0000
vt 0.5950 0.6470 0.0000
vt 0.6711 0.6470 0.0000
vt 0.7254 0.7403 0.0000
vt 0.1169 0.8843 0.0000
vt 0.2255 0.8182 0.0000
vt 0.2255 0.8843 0.0000
vt 0.2255 0.9505 0.0000
vt 0.1169 0.9894 0.0000
vt 0.1169 0.7831 0.0000
vt 0.0191 0.8182 0.0000
vt 0.0191 0.8843 0.0000
vt 0.9210 0.9933 0.0000
vt 0.9862 0.7053 0.0000
vt 0.9210 0.7053 0.0000
vt 0.8558 0.7053 0.0000
vt 0.8558 0.9933 0.0000
vt 0.9862 0.9933 0.0000
vt 0.0191 0.9505 0.0000
vt 0.2581 0.0011 0.0000
vt 0.5516 0.0011 0.0000
vt 0.2581 0.1995 0.0000
vt 0.5516 0.1995 0.0000
vt 0.9971 0.0011 0.0000
vt 0.9971 0.5536 0.0000
vt 0.6711 0.8843 0.0000
vt 0.8232 0.9855 0.0000
vt 0.8232 0.8843 0.0000
vt 0.8232 0.7793 0.0000
vt 0.6711 0.7793 0.0000
vt 0.6711 0.9855 0.0000
vt 0.2581 0.9855 0.0000
vt 0.3234 0.9543 0.0000
vt 0.2581 0.9232 0.0000
vt 0.5733 0.6586 0.0000
vt 0.6820 0.6003 0.0000
vt 0.8015 0.6586 0.0000
vt 0.6820 0.7170 0.0000
vt 0.5516 0.5536 0.0000
vt 0.0191 0.4524 0.0000
vt 0.2255 0.0167 0.0000
vt 0.0191 0.0167 0.0000
vt 0.2255 0.4524 0.0000
vt 0.0191 0.6081 0.0000
vt 0.2255 0.6081 0.0000
vt 0.0191 0.7131 0.0000
vt 0.6494 0.8921 0.0000
vt 0.3559 0.9699 0.0000
vt 0.2690 0.8065 0.0000
vt 0.6494 0.7831 0.0000
vt 0.4972 0.7131 0.0000
vt 0.4972 0.6081 0.0000
vt 0.2690 0.5847 0.0000
vt 0.4864 0.5847 0.0000
vt 0.4864 0.3163 0.0000
vt 0.2690 0.3163 0.0000
vt 0.4864 0.2384 0.0000
vt -0.7742 0.6042 0.0000
vt -0.9915 0.6042 0.0000
vt -0.8829 0.7131 0.0000
vt -0.5025 0.6042 0.0000
vt -0.5786 0.7131 0.0000
vt -0.6981 0.7870 0.0000
vt -0.5786 0.7520 0.0000
vt -0.5025 0.6859 0.0000
vt -0.4699 0.7676 0.0000
vt 1.7360 0.8999 0.0000
vt 1.7795 0.8999 0.0000
vt 1.7795 0.8532 0.0000
vt 1.7360 0.8532 0.0000
vt 1.7795 0.8065 0.0000
vt -0.4047 0.7403 0.0000
vt 0.6494 0.9699 0.0000
vt 1.4970 0.3007 0.0000
vt 1.4426 0.3746 0.0000
vt 1.4426 0.2423 0.0000
vt 1.4970 0.3746 0.0000
vt 1.7360 0.8065 0.0000
vt 1.7795 0.8843 0.0000
vt 1.7360 0.8843 0.0000
vt 1.5948 0.9154 0.0000
vt 1.6382 0.8376 0.0000
vt 1.5948 0.8376 0.0000
vt 1.6382 0.9154 0.0000
# 86 texture coords

o w00_013_00
g w00_013_00
usemtl Material__237
s 1
f 3/2/3 2/2/2 1/1/1 
f 2/2/2 3/2/3 4/2/4 
f 4/2/4 5/3/5 2/2/2 
f 5/3/5 4/2/4 6/4/6 
f 6/4/6 2/2/2 5/3/5 
f 2/2/2 6/4/6 7/5/7 
f 7/5/7 1/1/1 2/2/2 
f 1/1/1 7/5/7 8/6/8 
f 8/6/8 9/6/9 1/1/1 
f 9/6/9 8/6/8 10/5/10 
f 10/5/10 11/1/11 9/6/9 
f 11/1/11 10/5/10 4/2/4 
f 4/2/4 12/2/12 11/1/11 
f 12/2/12 4/2/4 3/2/3 
f 15/9/15 14/8/14 13/7/13 
f 13/7/13 16/10/16 15/9/15 
f 16/10/16 13/7/13 17/11/17 
f 17/11/17 18/9/18 16/10/16 
f 18/9/18 17/11/17 19/7/19 
f 19/7/19 14/8/14 18/9/18 
f 14/8/14 19/7/19 20/12/20 
f 20/12/20 13/7/13 14/8/14 
f 13/7/13 20/12/20 21/13/21 
f 21/13/21 22/14/22 13/7/13 
f 22/17/23 21/16/24 23/15/23 
f 23/15/23 24/18/25 22/17/23 
f 24/18/25 23/15/23 25/19/26 
f 25/19/26 26/17/27 24/18/25 
f 26/17/27 25/19/26 27/15/11 
f 27/15/11 21/16/24 26/17/27 
f 21/16/24 27/15/11 28/20/24 
f 28/20/24 23/15/23 21/16/24 
f 26/14/28 20/12/20 19/7/19 
f 19/7/19 24/21/29 26/14/28 
f 24/21/29 19/7/19 17/11/17 
f 17/11/17 22/14/22 24/21/29 
f 22/14/22 17/11/17 13/7/13 
f 31/24/23 30/23/23 29/22/23 
f 30/23/23 31/24/23 32/25/23 
f 32/25/23 33/26/23 30/23/23 
f 33/26/23 32/25/23 34/27/23 
f 37/26/19 36/27/19 35/25/19 
f 35/25/19 38/23/19 37/26/19 
f 38/23/19 35/25/19 39/24/19 
f 39/24/19 40/22/19 38/23/19 
f 43/30/19 42/29/17 41/28/19 
f 41/28/19 44/31/24 43/30/19 
f 44/31/24 41/28/19 45/32/24 
f 45/32/24 46/28/23 44/31/24 
f 47/33/17 41/28/19 42/29/17 
f 42/29/17 46/28/23 47/33/17 
f 46/28/23 42/29/17 48/30/23 
f 48/30/23 44/31/24 46/28/23 
f 6/4/6 4/2/4 10/5/10 
f 10/5/10 7/5/7 6/4/6 
f 7/5/7 10/5/10 8/6/8 
f 15/36/30 16/35/30 18/34/30 
f 18/34/30 14/35/30 15/36/30 
f 47/39/31 46/38/31 45/37/31 
f 45/37/31 41/40/31 47/39/31 
f 44/37/30 48/38/30 42/39/30 
f 42/39/30 43/40/30 44/37/30 
f 26/14/28 21/13/21 20/12/20 
f 32/25/23 49/41/23 34/27/23 
f 35/25/19 36/27/19 50/41/19 
f 11/1/11 1/1/1 9/6/9 
f 53/44/33 52/43/32 51/42/23 
f 51/42/23 54/43/34 53/44/33 
f 54/43/34 51/42/23 55/45/35 
f 55/45/35 56/44/36 54/43/34 
f 56/44/36 55/45/35 57/42/37 
f 57/42/37 52/43/32 56/44/36 
f 52/43/32 57/42/37 58/45/38 
f 58/45/38 51/42/23 52/43/32 
f 51/42/23 58/45/38 59/46/39 
f 59/46/39 55/45/35 51/42/23 
f 55/45/35 59/46/39 60/47/40 
f 60/47/40 61/46/41 55/45/35 
f 61/46/41 60/47/40 62/48/42 
f 65/51/45 64/50/44 63/49/43 
f 63/49/43 66/52/46 65/51/45 
f 66/52/46 63/49/43 67/51/47 
f 67/51/47 68/53/48 66/52/46 
f 68/53/48 67/51/47 62/48/42 
f 62/48/42 69/54/49 68/53/48 
f 69/54/49 62/48/42 60/47/40 
f 60/47/40 70/48/50 69/54/49 
f 70/48/50 60/47/40 59/46/39 
f 71/57/51 54/56/34 56/55/36 
f 56/55/36 72/58/52 71/57/51 
f 72/58/52 56/55/36 73/57/53 
f 73/57/53 74/59/31 72/58/52 
f 74/59/31 73/57/53 75/58/54 
f 75/58/54 71/57/51 74/59/31 
f 71/57/51 75/58/54 53/55/33 
f 53/55/33 54/56/34 71/57/51 
f 70/62/57 59/61/56 76/60/55 
f 76/60/55 77/63/58 70/62/57 
f 77/63/58 76/60/55 62/62/59 
f 62/62/59 78/64/60 77/63/58 
f 78/64/60 62/62/59 79/65/61 
f 79/65/61 80/66/62 78/64/60 
f 78/64/60 80/68/64 81/67/63 
f 81/67/63 77/63/58 78/64/60 
f 77/63/58 81/67/63 82/64/65 
f 82/64/65 70/62/57 77/63/58 
f 70/62/57 82/64/65 83/65/66 
f 76/47/67 59/46/39 58/45/38 
f 58/45/38 61/46/41 76/47/67 
f 61/46/41 58/45/38 57/42/37 
f 57/42/37 55/45/35 61/46/41 
f 65/71/70 70/70/69 84/69/68 
f 84/69/68 85/72/71 65/71/70 
f 85/72/71 84/69/68 67/71/72 
f 67/71/72 86/73/73 85/72/71 
f 87/68/74 82/64/65 81/67/63 
f 81/67/63 88/74/75 87/68/74 
f 88/74/75 81/67/63 80/68/64 
f 86/50/76 67/51/47 63/49/43 
f 63/49/43 89/75/77 86/50/76 
f 89/75/77 63/49/43 64/50/44 
f 89/78/80 64/77/79 90/76/78 
f 90/76/78 86/77/81 89/78/80 
f 86/77/81 90/76/78 91/79/30 
f 64/73/82 65/71/70 85/72/71 
f 85/72/71 91/80/83 64/73/82 
f 91/80/83 85/72/71 86/73/73 
f 92/82/86 79/81/85 84/72/84 
f 84/72/84 83/81/87 92/82/86 
f 83/81/87 84/72/84 70/71/88 
f 88/85/91 80/84/90 92/83/89 
f 92/83/89 87/84/92 88/85/91 
f 87/84/92 92/83/89 83/86/93 
f 65/51/45 66/52/46 68/53/48 
f 68/53/48 70/48/50 65/51/45 
f 70/48/50 68/53/48 69/54/49 
f 73/57/53 56/55/36 52/56/32 
f 52/56/32 75/58/54 73/57/53 
f 75/58/54 52/56/32 53/55/33 
f 83/65/66 82/64/65 87/66/94 
f 90/76/78 64/77/79 91/79/30 
f 79/81/85 62/71/95 84/72/84 
f 80/84/90 79/86/96 92/83/89 
f 61/61/97 62/62/59 76/60/55 
f 84/69/68 62/70/98 67/71/72 
f 71/57/51 72/58/52 74/59/31 
# 146 faces

