# 3ds Max Wavefront OBJ Exporter v0.97b - (c)2007 guruware
# File Created: 06.08.2019 17:02:59

mtllib Elucidator69f.mtl

#
# object w00_013_00
#

v  -0.2824 1.1618 0.2995
v  -0.2637 1.1804 0.2742
v  -0.2586 1.1615 0.2809
v  -0.2512 1.1894 0.2901
v  -0.2065 1.1844 0.2423
v  -0.2139 1.2118 0.2325
v  -0.2711 1.2077 0.2645
v  -0.3116 1.2703 0.2609
v  -0.2991 1.2793 0.2768
v  -0.2586 1.2168 0.2804
v  -0.2699 1.1708 0.3154
v  -0.2461 1.1706 0.2968
v  -0.1856 0.9495 0.4001
v  -0.1837 0.9233 0.3727
v  -0.1878 0.9310 0.3975
v  -0.2129 0.9236 0.3956
v  -0.2251 0.9378 0.3971
v  -0.2088 0.9158 0.3708
v  -0.2186 0.9257 0.3581
v  -0.1791 0.9374 0.3611
v  -0.1913 0.9517 0.3626
v  -0.1954 0.9594 0.3874
v  -0.2520 1.1694 0.3126
v  -0.2206 0.9520 0.3855
v  -0.2771 1.1620 0.3107
v  -0.2164 0.9442 0.3607
v  -0.2730 1.1543 0.2859
v  -0.2479 1.1617 0.2878
v  -0.1841 1.1765 0.2474
v  -0.2330 1.1770 0.2857
v  -0.1986 1.2302 0.2283
v  -0.2475 1.2307 0.2666
v  -0.2885 1.1775 0.3291
v  -0.3292 1.3288 0.2752
v  -0.2623 1.2200 0.2478
v  -0.3441 1.3181 0.2564
v  -0.3033 1.1668 0.3103
v  -0.2479 1.1663 0.2669
v  -0.2134 1.2195 0.2095
v  -0.1990 1.1658 0.2286
v  -0.2816 1.1623 0.2749
v  -0.2834 1.1574 0.3182
v  -0.2771 1.1458 0.2808
v  -0.2392 1.1570 0.2836
v  -0.2437 1.1735 0.2777
v  -0.2499 1.1852 0.3151
v  -0.2878 1.1739 0.3123
v  -0.2454 1.1687 0.3210
v  -0.2738 1.3283 0.2318
v  -0.2886 1.3176 0.2130
v  -0.3004 1.3290 0.2490
v  -0.4174 1.6427 0.1480
v  -0.3860 1.6468 0.1358
v  -0.3667 1.6422 0.1083
v  -0.2811 1.3244 0.2214
v  -0.3981 1.6381 0.1205
v  -0.3124 1.3203 0.2336
v  -0.3317 1.3249 0.2611
v  -0.2889 1.2866 0.2641
v  -0.2652 1.2900 0.2285
v  -0.3010 1.2779 0.2487
v  -0.2945 1.2538 0.2573
v  -0.1983 1.2095 0.2216
v  -0.2171 1.1878 0.2561
v  -0.2395 1.2328 0.2511
v  -0.2112 1.2346 0.2174
v  -0.2479 1.2268 0.2404
v  -0.2316 1.2581 0.2201
v  -0.2366 1.2821 0.2105
v  -0.2824 1.2625 0.2726
v  -0.4580 1.9812 -0.0124
v  -0.4894 1.9771 -0.0002
v  -0.5087 1.9817 0.0273
v  -0.5098 2.0796 -0.0275
v  -0.4773 1.9858 0.0151
v  -0.3290 1.2906 0.2785
v  -0.3588 1.2832 0.3062
v  -0.3383 1.2570 0.2993
v  -0.3245 1.2316 0.3025
v  -0.3381 1.2420 0.3089
v  -0.3460 1.2586 0.3100
v  -0.3337 1.2603 0.3051
v  -0.3196 1.2351 0.3087
v  -0.2858 1.2482 0.2685
v  -0.2488 1.2239 0.2531
v  -0.2232 1.1835 0.2485
v  -0.3346 1.2445 0.3134
v  -0.3463 1.2388 0.3216
v  -0.1707 1.1852 0.2136
v  -0.1893 1.1759 0.2335
v  -0.2234 1.1762 0.2602
v  -0.3190 1.2207 0.3104
# 92 vertices

vn 0.9071 0.3351 0.2547
vn 0.2195 0.5900 0.7770
vn -0.4513 0.1889 0.8721
vn -0.9186 -0.1460 -0.3671
vn -0.4852 0.8674 -0.1105
vn -0.2372 -0.7523 0.6147
vn 0.3399 -0.0165 0.9403
vn 0.0729 -0.2122 0.9745
vn 0.2540 -0.5129 -0.8200
vn -0.7001 -0.7095 -0.0798
vn -0.2874 -0.3891 -0.8752
vn -0.9565 -0.2830 -0.0711
vn 0.6916 0.3124 0.6512
vn 0.7884 -0.5227 -0.3244
vn 0.6054 -0.1805 0.7752
vn -0.3419 -0.3843 0.8576
vn -0.7873 0.0074 0.6165
vn -0.5239 -0.8203 -0.2294
vn -0.5654 -0.4077 -0.7171
vn 0.6224 0.0354 -0.7819
vn 0.6416 0.6003 -0.4775
vn 0.1066 0.8242 0.5562
vn 0.5654 0.4076 0.7171
vn 0.7873 -0.0074 -0.6165
vn -0.5681 0.1359 0.8116
vn -0.9257 -0.1219 0.3581
vn -0.7853 -0.3844 -0.4853
vn -0.3751 0.1721 -0.9109
vn -0.9100 0.3960 0.1228
vn 0.2460 -0.9131 0.3251
vn -0.2460 0.9131 -0.3251
vn -0.4998 0.1678 0.8497
vn 0.6163 0.4063 0.6746
vn 0.9661 0.2040 -0.1582
vn 0.4668 -0.1335 -0.8742
vn -0.5274 -0.4075 -0.7455
vn -0.6163 -0.4063 -0.6746
vn -0.8010 0.0636 0.5953
vn 0.6006 0.4271 0.6759
vn 0.5894 0.4085 -0.6969
vn -0.5282 -0.3869 -0.7559
vn -0.4583 -0.3247 -0.8273
vn 0.6668 0.2859 -0.6882
vn 0.6411 0.4437 0.6262
vn 0.6606 0.4638 0.5903
vn 0.6007 0.3922 -0.6966
vn -0.4541 -0.3400 -0.8235
vn 0.5991 0.3947 -0.6967
vn 0.3537 0.6656 -0.6572
vn 0.6552 0.4781 0.5849
vn 0.7591 0.0831 -0.6457
vn -0.5769 -0.3619 -0.7323
vn -0.9862 -0.1103 0.1236
vn 0.5017 0.4430 0.7430
vn -0.7717 0.5684 0.2853
vn 0.3459 0.3960 0.8506
vn 0.4381 0.4681 0.7675
vn -0.8175 0.3927 0.4213
vn -0.6800 -0.3381 -0.6506
vn -0.7006 -0.4031 -0.5888
vn -0.6374 -0.4267 -0.6416
vn -0.6334 -0.4252 -0.6466
vn -0.7983 0.0516 0.6001
vn -0.7734 -0.3297 -0.5414
vn 0.4104 0.3981 0.8204
vn 0.4870 0.3840 0.7844
vn -0.8219 0.2047 0.5316
vn -0.2065 -0.7717 0.6015
vn 0.2378 -0.3207 0.9169
vn 0.2143 -0.0986 0.9718
vn -0.5372 -0.4777 0.6951
vn -0.6651 -0.7328 -0.1437
vn -0.8316 -0.4990 -0.2436
vn 0.3119 0.4529 0.8352
vn -0.8247 0.2952 0.4824
vn -0.4810 -0.3653 -0.7970
vn 0.3763 0.6461 -0.6640
vn 0.3404 -0.9072 0.2473
vn 0.6477 0.0727 0.7584
vn 0.5132 -0.8544 0.0811
vn -0.4148 -0.6934 -0.5892
vn 0.1275 0.1926 0.9730
vn -0.6801 -0.2616 0.6849
vn 0.5560 -0.8305 0.0338
vn -0.1652 -0.7980 -0.5796
vn 0.6122 -0.7900 -0.0336
vn 0.7782 -0.1178 0.6169
vn 0.7715 -0.3374 0.5394
vn -0.3298 -0.6851 0.6495
vn -0.6412 -0.6057 -0.4711
vn -0.2437 -0.7480 0.6173
vn 0.4299 0.1666 0.8874
vn 0.3699 0.1233 0.9209
vn 0.4917 0.3861 0.7805
vn -0.0036 -0.8962 -0.4436
vn -0.6700 -0.6265 -0.3982
vn -0.7474 -0.3923 -0.5361
vn -0.5098 -0.8597 -0.0314
# 98 vertex normals

vt 0.7254 0.5925 0.0000
vt 0.6602 0.5925 0.0000
vt 0.5950 0.5925 0.0000
vt 0.5950 0.6470 0.0000
vt 0.6711 0.6470 0.0000
vt 0.7254 0.7403 0.0000
vt 0.1169 0.8843 0.0000
vt 0.2255 0.8182 0.0000
vt 0.2255 0.8843 0.0000
vt 0.2255 0.9505 0.0000
vt 0.1169 0.9894 0.0000
vt 0.1169 0.7831 0.0000
vt 0.0191 0.8182 0.0000
vt 0.0191 0.8843 0.0000
vt 0.9210 0.9933 0.0000
vt 0.9862 0.7053 0.0000
vt 0.9210 0.7053 0.0000
vt 0.8558 0.7053 0.0000
vt 0.8558 0.9933 0.0000
vt 0.9862 0.9933 0.0000
vt 0.0191 0.9505 0.0000
vt 0.2581 0.0011 0.0000
vt 0.5516 0.0011 0.0000
vt 0.2581 0.1995 0.0000
vt 0.5516 0.1995 0.0000
vt 0.9971 0.0011 0.0000
vt 0.9971 0.5536 0.0000
vt 0.6711 0.8843 0.0000
vt 0.8232 0.9855 0.0000
vt 0.8232 0.8843 0.0000
vt 0.8232 0.7793 0.0000
vt 0.6711 0.7793 0.0000
vt 0.6711 0.9855 0.0000
vt 0.2581 0.9855 0.0000
vt 0.3234 0.9543 0.0000
vt 0.2581 0.9232 0.0000
vt 0.5733 0.6586 0.0000
vt 0.6820 0.6003 0.0000
vt 0.8015 0.6586 0.0000
vt 0.6820 0.7170 0.0000
vt 0.5516 0.5536 0.0000
vt 0.0191 0.4524 0.0000
vt 0.2255 0.0167 0.0000
vt 0.0191 0.0167 0.0000
vt 0.2255 0.4524 0.0000
vt 0.0191 0.6081 0.0000
vt 0.2255 0.6081 0.0000
vt 0.0191 0.7131 0.0000
vt 0.6494 0.8921 0.0000
vt 0.3559 0.9699 0.0000
vt 0.2690 0.8065 0.0000
vt 0.6494 0.7831 0.0000
vt 0.4972 0.7131 0.0000
vt 0.4972 0.6081 0.0000
vt 0.2690 0.5847 0.0000
vt 0.4864 0.5847 0.0000
vt 0.4864 0.3163 0.0000
vt 0.2690 0.3163 0.0000
vt 0.4864 0.2384 0.0000
vt -0.7742 0.6042 0.0000
vt -0.9915 0.6042 0.0000
vt -0.8829 0.7131 0.0000
vt -0.5025 0.6042 0.0000
vt -0.5786 0.7131 0.0000
vt -0.6981 0.7870 0.0000
vt -0.5786 0.7520 0.0000
vt -0.5025 0.6859 0.0000
vt -0.4699 0.7676 0.0000
vt 1.7360 0.8999 0.0000
vt 1.7795 0.8999 0.0000
vt 1.7795 0.8532 0.0000
vt 1.7360 0.8532 0.0000
vt 1.7795 0.8065 0.0000
vt -0.4047 0.7403 0.0000
vt 0.6494 0.9699 0.0000
vt 1.4970 0.3007 0.0000
vt 1.4426 0.3746 0.0000
vt 1.4426 0.2423 0.0000
vt 1.4970 0.3746 0.0000
vt 1.7360 0.8065 0.0000
vt 1.7795 0.8843 0.0000
vt 1.7360 0.8843 0.0000
vt 1.5948 0.9154 0.0000
vt 1.6382 0.8376 0.0000
vt 1.5948 0.8376 0.0000
vt 1.6382 0.9154 0.0000
# 86 texture coords

o w00_013_00
g w00_013_00
usemtl Material__237
s 1
f 3/2/3 2/2/2 1/1/1 
f 2/2/2 3/2/3 4/2/4 
f 4/2/4 5/3/5 2/2/2 
f 5/3/5 4/2/4 6/4/6 
f 6/4/6 2/2/2 5/3/5 
f 2/2/2 6/4/6 7/5/7 
f 7/5/7 1/1/1 2/2/2 
f 1/1/1 7/5/7 8/6/8 
f 8/6/8 9/6/9 1/1/1 
f 9/6/9 8/6/8 10/5/10 
f 10/5/10 11/1/11 9/6/9 
f 11/1/11 10/5/10 4/2/4 
f 4/2/4 12/2/12 11/1/11 
f 12/2/12 4/2/4 3/2/3 
f 15/9/15 14/8/14 13/7/13 
f 13/7/13 16/10/16 15/9/15 
f 16/10/16 13/7/13 17/11/17 
f 17/11/17 18/9/18 16/10/16 
f 18/9/18 17/11/17 19/7/19 
f 19/7/19 14/8/14 18/9/18 
f 14/8/14 19/7/19 20/12/20 
f 20/12/20 13/7/13 14/8/14 
f 13/7/13 20/12/20 21/13/21 
f 21/13/21 22/14/22 13/7/13 
f 22/17/23 21/16/24 23/15/23 
f 23/15/23 24/18/25 22/17/23 
f 24/18/25 23/15/23 25/19/26 
f 25/19/26 26/17/27 24/18/25 
f 26/17/27 25/19/26 27/15/11 
f 27/15/11 21/16/24 26/17/27 
f 21/16/24 27/15/11 28/20/24 
f 28/20/24 23/15/23 21/16/24 
f 26/14/28 20/12/20 19/7/19 
f 19/7/19 24/21/29 26/14/28 
f 24/21/29 19/7/19 17/11/17 
f 17/11/17 22/14/22 24/21/29 
f 22/14/22 17/11/17 13/7/13 
f 31/24/23 30/23/23 29/22/23 
f 30/23/23 31/24/23 32/25/23 
f 32/25/23 33/26/23 30/23/23 
f 33/26/23 32/25/23 34/27/23 
f 37/26/19 36/27/19 35/25/19 
f 35/25/19 38/23/19 37/26/19 
f 38/23/19 35/25/19 39/24/19 
f 39/24/19 40/22/19 38/23/19 
f 43/30/19 42/29/17 41/28/19 
f 41/28/19 44/31/24 43/30/19 
f 44/31/24 41/28/19 45/32/24 
f 45/32/24 46/28/23 44/31/24 
f 47/33/17 41/28/19 42/29/17 
f 42/29/17 46/28/23 47/33/17 
f 46/28/23 42/29/17 48/30/23 
f 48/30/23 44/31/24 46/28/23 
f 6/4/6 4/2/4 10/5/10 
f 10/5/10 7/5/7 6/4/6 
f 7/5/7 10/5/10 8/6/8 
f 15/36/30 16/35/30 18/34/30 
f 18/34/30 14/35/30 15/36/30 
f 47/39/31 46/38/31 45/37/31 
f 45/37/31 41/40/31 47/39/31 
f 44/37/30 48/38/30 42/39/30 
f 42/39/30 43/40/30 44/37/30 
f 26/14/28 21/13/21 20/12/20 
f 32/25/23 49/41/23 34/27/23 
f 35/25/19 36/27/19 50/41/19 
f 11/1/11 1/1/1 9/6/9 
f 53/44/33 52/43/32 51/42/23 
f 51/42/23 54/43/34 53/44/33 
f 54/43/34 51/42/23 55/45/35 
f 55/45/35 56/44/36 54/43/34 
f 56/44/36 55/45/35 57/42/37 
f 57/42/37 52/43/32 56/44/36 
f 52/43/32 57/42/37 58/45/38 
f 58/45/38 51/42/23 52/43/32 
f 51/42/23 58/45/38 59/46/39 
f 59/46/39 55/45/35 51/42/23 
f 55/45/35 59/46/39 60/47/40 
f 60/47/40 61/46/41 55/45/35 
f 61/46/41 60/47/40 62/48/42 
f 65/51/45 64/50/44 63/49/43 
f 63/49/43 66/52/46 65/51/45 
f 66/52/46 63/49/43 67/51/47 
f 67/51/47 68/53/48 66/52/46 
f 68/53/48 67/51/47 62/48/42 
f 62/48/42 69/54/49 68/53/48 
f 69/54/49 62/48/42 60/47/40 
f 60/47/40 70/48/50 69/54/49 
f 70/48/50 60/47/40 59/46/39 
f 71/57/51 54/56/34 56/55/36 
f 56/55/36 72/58/52 71/57/51 
f 72/58/52 56/55/36 73/57/53 
f 73/57/53 74/59/31 72/58/52 
f 74/59/31 73/57/53 75/58/54 
f 75/58/54 71/57/51 74/59/31 
f 71/57/51 75/58/54 53/55/33 
f 53/55/33 54/56/34 71/57/51 
f 70/62/57 59/61/56 76/60/55 
f 76/60/55 77/63/58 70/62/57 
f 77/63/58 76/60/55 62/62/59 
f 62/62/59 78/64/60 77/63/58 
f 78/64/60 62/62/59 79/65/61 
f 79/65/61 80/66/62 78/64/60 
f 78/64/60 80/68/64 81/67/63 
f 81/67/63 77/63/58 78/64/60 
f 77/63/58 81/67/63 82/64/65 
f 82/64/65 70/62/57 77/63/58 
f 70/62/57 82/64/65 83/65/66 
f 76/47/67 59/46/39 58/45/38 
f 58/45/38 61/46/41 76/47/67 
f 61/46/41 58/45/38 57/42/37 
f 57/42/37 55/45/35 61/46/41 
f 65/71/70 70/70/69 84/69/68 
f 84/69/68 85/72/71 65/71/70 
f 85/72/71 84/69/68 67/71/72 
f 67/71/72 86/73/73 85/72/71 
f 87/68/74 82/64/65 81/67/63 
f 81/67/63 88/74/75 87/68/74 
f 88/74/75 81/67/63 80/68/64 
f 86/50/76 67/51/47 63/49/43 
f 63/49/43 89/75/77 86/50/76 
f 89/75/77 63/49/43 64/50/44 
f 89/78/80 64/77/79 90/76/78 
f 90/76/78 86/77/81 89/78/80 
f 86/77/81 90/76/78 91/79/30 
f 64/73/82 65/71/70 85/72/71 
f 85/72/71 91/80/83 64/73/82 
f 91/80/83 85/72/71 86/73/73 
f 92/82/86 79/81/85 84/72/84 
f 84/72/84 83/81/87 92/82/86 
f 83/81/87 84/72/84 70/71/88 
f 88/85/91 80/84/90 92/83/89 
f 92/83/89 87/84/92 88/85/91 
f 87/84/92 92/83/89 83/86/93 
f 65/51/45 66/52/46 68/53/48 
f 68/53/48 70/48/50 65/51/45 
f 70/48/50 68/53/48 69/54/49 
f 73/57/53 56/55/36 52/56/32 
f 52/56/32 75/58/54 73/57/53 
f 75/58/54 52/56/32 53/55/33 
f 83/65/66 82/64/65 87/66/94 
f 90/76/78 64/77/79 91/79/30 
f 79/81/85 62/71/95 84/72/84 
f 80/84/90 79/86/96 92/83/89 
f 61/61/97 62/62/59 76/60/55 
f 84/69/68 62/70/98 67/71/72 
f 71/57/51 72/58/52 74/59/31 
# 146 faces

