# 3ds Max Wavefront OBJ Exporter v0.97b - (c)2007 guruware
# File Created: 06.08.2019 17:02:29

mtllib Elucidator22f.mtl

#
# object w00_013_00
#

v  -0.2292 0.6565 0.1025
v  -0.2607 0.6526 0.1206
v  -0.2583 0.6489 0.1005
v  -0.2659 0.6737 0.1161
v  -0.3258 0.6469 0.1139
v  -0.3292 0.6523 0.1432
v  -0.2642 0.6580 0.1499
v  -0.2431 0.6780 0.2186
v  -0.2482 0.6990 0.2140
v  -0.2694 0.6791 0.1454
v  -0.2344 0.6776 0.0980
v  -0.2635 0.6700 0.0960
v  -0.2247 0.6456 -0.1512
v  -0.2340 0.6103 -0.1617
v  -0.2204 0.6326 -0.1642
v  -0.1982 0.6196 -0.1592
v  -0.1897 0.6251 -0.1433
v  -0.2118 0.5973 -0.1567
v  -0.2111 0.5900 -0.1393
v  -0.2461 0.6104 -0.1473
v  -0.2377 0.6159 -0.1313
v  -0.2241 0.6382 -0.1339
v  -0.2508 0.6798 0.0908
v  -0.2018 0.6253 -0.1288
v  -0.2286 0.6669 0.0958
v  -0.2154 0.6029 -0.1263
v  -0.2422 0.6445 0.0983
v  -0.2644 0.6575 0.0933
v  -0.3412 0.6531 0.0962
v  -0.2812 0.6687 0.1004
v  -0.3480 0.6638 0.1536
v  -0.2880 0.6794 0.1579
v  -0.2132 0.6864 0.1053
v  -0.2325 0.7164 0.2671
v  -0.2819 0.6544 0.1632
v  -0.2264 0.6915 0.2724
v  -0.2071 0.6615 0.1106
v  -0.2751 0.6438 0.1058
v  -0.3419 0.6388 0.1590
v  -0.3351 0.6282 0.1015
v  -0.2415 0.6379 0.1130
v  -0.2188 0.6683 0.0916
v  -0.2394 0.6346 0.0954
v  -0.2730 0.6542 0.0877
v  -0.2751 0.6575 0.1054
v  -0.2545 0.6912 0.1016
v  -0.2209 0.6716 0.1092
v  -0.2524 0.6879 0.0839
v  -0.3005 0.6987 0.2623
v  -0.2944 0.6738 0.2676
v  -0.2697 0.7046 0.2665
v  -0.2767 0.7655 0.6108
v  -0.3102 0.7676 0.6064
v  -0.3388 0.7493 0.6064
v  -0.2983 0.6864 0.2665
v  -0.3052 0.7472 0.6107
v  -0.2648 0.6843 0.2709
v  -0.2362 0.7025 0.2709
v  -0.2643 0.6962 0.2211
v  -0.3020 0.6775 0.2291
v  -0.2593 0.6759 0.2255
v  -0.2563 0.6711 0.1998
v  -0.3474 0.6471 0.1395
v  -0.3108 0.6565 0.1152
v  -0.3026 0.6709 0.1629
v  -0.3431 0.6540 0.1669
v  -0.2991 0.6568 0.1659
v  -0.3288 0.6632 0.1931
v  -0.3336 0.6675 0.2187
v  -0.2613 0.6914 0.1954
v  -0.3820 0.8165 0.9690
v  -0.3484 0.8144 0.9733
v  -0.3199 0.8326 0.9734
v  -0.3634 0.8440 1.0762
v  -0.3534 0.8347 0.9690
v  -0.2237 0.6978 0.2347
v  -0.1837 0.7065 0.2293
v  -0.1996 0.6926 0.2025
v  -0.2050 0.6851 0.1750
v  -0.1923 0.6918 0.1863
v  -0.1882 0.6996 0.2025
v  -0.2015 0.7003 0.2009
v  -0.2070 0.6933 0.1732
v  -0.2575 0.6793 0.1870
v  -0.2919 0.6648 0.1586
v  -0.3083 0.6463 0.1174
v  -0.1938 0.6978 0.1850
v  -0.1787 0.6975 0.1817
v  -0.3702 0.6356 0.1120
v  -0.3431 0.6405 0.1037
v  -0.3013 0.6514 0.1066
v  -0.2040 0.6868 0.1606
# 92 vertices

vn -0.7294 0.6518 -0.2076
vn 0.0581 0.9965 0.0600
vn 0.7594 0.6500 -0.0299
vn 0.6502 -0.6378 0.4127
vn 0.1990 0.2518 0.9471
vn 0.6372 -0.0091 -0.7706
vn 0.1480 0.8227 -0.5488
vn 0.4324 0.6619 -0.6122
vn -0.5018 -0.8474 -0.1734
vn 0.7049 -0.6623 -0.2538
vn -0.0843 -0.9815 0.1717
vn 0.8475 -0.4947 0.1926
vn -0.3542 0.8841 -0.3049
vn -0.7303 -0.3095 -0.6090
vn -0.1263 0.6817 -0.7206
vn 0.7694 0.3531 -0.5324
vn 0.9655 0.2513 0.0685
vn 0.5046 -0.7881 -0.3525
vn 0.2330 -0.9509 0.2039
vn -0.9085 -0.4049 0.1033
vn -0.8929 0.1509 0.4243
vn 0.0072 0.9213 0.3888
vn -0.2330 0.9509 -0.2039
vn -0.9655 -0.2513 -0.0685
vn 0.8423 0.5391 0.0005
vn 0.9896 -0.0623 0.1295
vn 0.5263 -0.8226 0.2151
vn -0.1341 -0.7239 0.6767
vn 0.7659 0.0464 0.6413
vn 0.1164 -0.1809 -0.9766
vn -0.1164 0.1809 0.9766
vn 0.7949 0.6065 -0.0176
vn -0.2965 0.9321 -0.2080
vn -0.9473 0.2753 -0.1639
vn -0.7844 -0.6163 0.0693
vn 0.1870 -0.9617 0.2004
vn 0.2965 -0.9321 0.2080
vn 0.9565 0.2619 0.1286
vn -0.2864 0.9400 -0.1852
vn -0.9129 -0.1416 0.3829
vn 0.1788 -0.9586 0.2218
vn 0.0731 -0.9591 0.2736
vn -0.9518 -0.1800 0.2484
vn -0.3477 0.9226 -0.1674
vn -0.3852 0.9115 -0.1440
vn -0.9193 -0.1470 0.3650
vn 0.0742 -0.9633 0.2579
vn -0.9184 -0.1462 0.3676
vn -0.7408 -0.0377 0.6707
vn -0.3858 0.9137 -0.1279
vn -0.9723 -0.2321 0.0285
vn 0.2269 -0.9407 0.2520
vn 0.9303 -0.2562 0.2625
vn -0.1728 0.9719 -0.1601
vn 0.6888 0.3093 0.6556
vn 0.0209 0.9835 -0.1797
vn -0.1114 0.9860 -0.1241
vn 0.8258 0.3042 0.4749
vn 0.3494 -0.8944 0.2791
vn 0.4087 -0.8885 0.2089
vn 0.3340 -0.9240 0.1861
vn 0.3280 -0.9258 0.1878
vn 0.9587 0.2597 0.1157
vn 0.4793 -0.8324 0.2781
vn -0.0492 0.9802 -0.1917
vn -0.1294 0.9670 -0.2193
vn 0.9175 0.2844 0.2781
vn 0.6084 -0.0210 -0.7934
vn 0.2842 0.6056 -0.7432
vn 0.2870 0.7646 -0.5771
vn 0.8804 0.1172 -0.4595
vn 0.6494 -0.7146 -0.2600
vn 0.7012 -0.7118 0.0394
vn 0.0320 0.9930 -0.1133
vn 0.8794 0.2955 0.3732
vn 0.1147 -0.9646 0.2373
vn -0.7597 -0.0471 0.6486
vn -0.0025 -0.2102 -0.9776
vn -0.2198 0.8216 -0.5260
vn -0.2394 -0.2593 -0.9357
vn 0.2181 -0.9654 -0.1429
vn 0.3060 0.9014 -0.3065
vn 0.9570 0.1869 -0.2218
vn -0.3030 -0.2702 -0.9139
vn 0.0274 -0.9423 -0.3337
vn -0.3908 -0.2835 -0.8757
vn -0.3614 0.6444 -0.6739
vn -0.3491 0.4603 -0.8162
vn 0.7203 0.0279 -0.6931
vn 0.4515 -0.8918 -0.0290
vn 0.6432 -0.0066 -0.7657
vn 0.0101 0.9097 -0.4152
vn 0.0859 0.8940 -0.4398
vn -0.1357 0.9665 -0.2179
vn -0.0297 -0.8432 -0.5367
vn 0.5145 -0.8551 -0.0648
vn 0.4715 -0.8554 0.2146
vn 0.5923 -0.6518 -0.4737
# 98 vertex normals

vt 0.7254 0.5925 0.0000
vt 0.6602 0.5925 0.0000
vt 0.5950 0.5925 0.0000
vt 0.5950 0.6470 0.0000
vt 0.6711 0.6470 0.0000
vt 0.7254 0.7403 0.0000
vt 0.1169 0.8843 0.0000
vt 0.2255 0.8182 0.0000
vt 0.2255 0.8843 0.0000
vt 0.2255 0.9505 0.0000
vt 0.1169 0.9894 0.0000
vt 0.1169 0.7831 0.0000
vt 0.0191 0.8182 0.0000
vt 0.0191 0.8843 0.0000
vt 0.9210 0.9933 0.0000
vt 0.9862 0.7053 0.0000
vt 0.9210 0.7053 0.0000
vt 0.8558 0.7053 0.0000
vt 0.8558 0.9933 0.0000
vt 0.9862 0.9933 0.0000
vt 0.0191 0.9505 0.0000
vt 0.2581 0.0011 0.0000
vt 0.5516 0.0011 0.0000
vt 0.2581 0.1995 0.0000
vt 0.5516 0.1995 0.0000
vt 0.9971 0.0011 0.0000
vt 0.9971 0.5536 0.0000
vt 0.6711 0.8843 0.0000
vt 0.8232 0.9855 0.0000
vt 0.8232 0.8843 0.0000
vt 0.8232 0.7793 0.0000
vt 0.6711 0.7793 0.0000
vt 0.6711 0.9855 0.0000
vt 0.2581 0.9855 0.0000
vt 0.3234 0.9543 0.0000
vt 0.2581 0.9232 0.0000
vt 0.5733 0.6586 0.0000
vt 0.6820 0.6003 0.0000
vt 0.8015 0.6586 0.0000
vt 0.6820 0.7170 0.0000
vt 0.5516 0.5536 0.0000
vt 0.0191 0.4524 0.0000
vt 0.2255 0.0167 0.0000
vt 0.0191 0.0167 0.0000
vt 0.2255 0.4524 0.0000
vt 0.0191 0.6081 0.0000
vt 0.2255 0.6081 0.0000
vt 0.0191 0.7131 0.0000
vt 0.6494 0.8921 0.0000
vt 0.3559 0.9699 0.0000
vt 0.2690 0.8065 0.0000
vt 0.6494 0.7831 0.0000
vt 0.4972 0.7131 0.0000
vt 0.4972 0.6081 0.0000
vt 0.2690 0.5847 0.0000
vt 0.4864 0.5847 0.0000
vt 0.4864 0.3163 0.0000
vt 0.2690 0.3163 0.0000
vt 0.4864 0.2384 0.0000
vt -0.7742 0.6042 0.0000
vt -0.9915 0.6042 0.0000
vt -0.8829 0.7131 0.0000
vt -0.5025 0.6042 0.0000
vt -0.5786 0.7131 0.0000
vt -0.6981 0.7870 0.0000
vt -0.5786 0.7520 0.0000
vt -0.5025 0.6859 0.0000
vt -0.4699 0.7676 0.0000
vt 1.7360 0.8999 0.0000
vt 1.7795 0.8999 0.0000
vt 1.7795 0.8532 0.0000
vt 1.7360 0.8532 0.0000
vt 1.7795 0.8065 0.0000
vt -0.4047 0.7403 0.0000
vt 0.6494 0.9699 0.0000
vt 1.4970 0.3007 0.0000
vt 1.4426 0.3746 0.0000
vt 1.4426 0.2423 0.0000
vt 1.4970 0.3746 0.0000
vt 1.7360 0.8065 0.0000
vt 1.7795 0.8843 0.0000
vt 1.7360 0.8843 0.0000
vt 1.5948 0.9154 0.0000
vt 1.6382 0.8376 0.0000
vt 1.5948 0.8376 0.0000
vt 1.6382 0.9154 0.0000
# 86 texture coords

o w00_013_00
g w00_013_00
usemtl Material__237
s 1
f 3/2/3 2/2/2 1/1/1 
f 2/2/2 3/2/3 4/2/4 
f 4/2/4 5/3/5 2/2/2 
f 5/3/5 4/2/4 6/4/6 
f 6/4/6 2/2/2 5/3/5 
f 2/2/2 6/4/6 7/5/7 
f 7/5/7 1/1/1 2/2/2 
f 1/1/1 7/5/7 8/6/8 
f 8/6/8 9/6/9 1/1/1 
f 9/6/9 8/6/8 10/5/10 
f 10/5/10 11/1/11 9/6/9 
f 11/1/11 10/5/10 4/2/4 
f 4/2/4 12/2/12 11/1/11 
f 12/2/12 4/2/4 3/2/3 
f 15/9/15 14/8/14 13/7/13 
f 13/7/13 16/10/16 15/9/15 
f 16/10/16 13/7/13 17/11/17 
f 17/11/17 18/9/18 16/10/16 
f 18/9/18 17/11/17 19/7/19 
f 19/7/19 14/8/14 18/9/18 
f 14/8/14 19/7/19 20/12/20 
f 20/12/20 13/7/13 14/8/14 
f 13/7/13 20/12/20 21/13/21 
f 21/13/21 22/14/22 13/7/13 
f 22/17/23 21/16/24 23/15/23 
f 23/15/23 24/18/25 22/17/23 
f 24/18/25 23/15/23 25/19/26 
f 25/19/26 26/17/27 24/18/25 
f 26/17/27 25/19/26 27/15/11 
f 27/15/11 21/16/24 26/17/27 
f 21/16/24 27/15/11 28/20/24 
f 28/20/24 23/15/23 21/16/24 
f 26/14/28 20/12/20 19/7/19 
f 19/7/19 24/21/29 26/14/28 
f 24/21/29 19/7/19 17/11/17 
f 17/11/17 22/14/22 24/21/29 
f 22/14/22 17/11/17 13/7/13 
f 31/24/23 30/23/23 29/22/23 
f 30/23/23 31/24/23 32/25/23 
f 32/25/23 33/26/23 30/23/23 
f 33/26/23 32/25/23 34/27/23 
f 37/26/19 36/27/19 35/25/19 
f 35/25/19 38/23/19 37/26/19 
f 38/23/19 35/25/19 39/24/19 
f 39/24/19 40/22/19 38/23/19 
f 43/30/19 42/29/17 41/28/19 
f 41/28/19 44/31/24 43/30/19 
f 44/31/24 41/28/19 45/32/24 
f 45/32/24 46/28/23 44/31/24 
f 47/33/17 41/28/19 42/29/17 
f 42/29/17 46/28/23 47/33/17 
f 46/28/23 42/29/17 48/30/23 
f 48/30/23 44/31/24 46/28/23 
f 6/4/6 4/2/4 10/5/10 
f 10/5/10 7/5/7 6/4/6 
f 7/5/7 10/5/10 8/6/8 
f 15/36/30 16/35/30 18/34/30 
f 18/34/30 14/35/30 15/36/30 
f 47/39/31 46/38/31 45/37/31 
f 45/37/31 41/40/31 47/39/31 
f 44/37/30 48/38/30 42/39/30 
f 42/39/30 43/40/30 44/37/30 
f 26/14/28 21/13/21 20/12/20 
f 32/25/23 49/41/23 34/27/23 
f 35/25/19 36/27/19 50/41/19 
f 11/1/11 1/1/1 9/6/9 
f 53/44/33 52/43/32 51/42/23 
f 51/42/23 54/43/34 53/44/33 
f 54/43/34 51/42/23 55/45/35 
f 55/45/35 56/44/36 54/43/34 
f 56/44/36 55/45/35 57/42/37 
f 57/42/37 52/43/32 56/44/36 
f 52/43/32 57/42/37 58/45/38 
f 58/45/38 51/42/23 52/43/32 
f 51/42/23 58/45/38 59/46/39 
f 59/46/39 55/45/35 51/42/23 
f 55/45/35 59/46/39 60/47/40 
f 60/47/40 61/46/41 55/45/35 
f 61/46/41 60/47/40 62/48/42 
f 65/51/45 64/50/44 63/49/43 
f 63/49/43 66/52/46 65/51/45 
f 66/52/46 63/49/43 67/51/47 
f 67/51/47 68/53/48 66/52/46 
f 68/53/48 67/51/47 62/48/42 
f 62/48/42 69/54/49 68/53/48 
f 69/54/49 62/48/42 60/47/40 
f 60/47/40 70/48/50 69/54/49 
f 70/48/50 60/47/40 59/46/39 
f 71/57/51 54/56/34 56/55/36 
f 56/55/36 72/58/52 71/57/51 
f 72/58/52 56/55/36 73/57/53 
f 73/57/53 74/59/31 72/58/52 
f 74/59/31 73/57/53 75/58/54 
f 75/58/54 71/57/51 74/59/31 
f 71/57/51 75/58/54 53/55/33 
f 53/55/33 54/56/34 71/57/51 
f 70/62/57 59/61/56 76/60/55 
f 76/60/55 77/63/58 70/62/57 
f 77/63/58 76/60/55 62/62/59 
f 62/62/59 78/64/60 77/63/58 
f 78/64/60 62/62/59 79/65/61 
f 79/65/61 80/66/62 78/64/60 
f 78/64/60 80/68/64 81/67/63 
f 81/67/63 77/63/58 78/64/60 
f 77/63/58 81/67/63 82/64/65 
f 82/64/65 70/62/57 77/63/58 
f 70/62/57 82/64/65 83/65/66 
f 76/47/67 59/46/39 58/45/38 
f 58/45/38 61/46/41 76/47/67 
f 61/46/41 58/45/38 57/42/37 
f 57/42/37 55/45/35 61/46/41 
f 65/71/70 70/70/69 84/69/68 
f 84/69/68 85/72/71 65/71/70 
f 85/72/71 84/69/68 67/71/72 
f 67/71/72 86/73/73 85/72/71 
f 87/68/74 82/64/65 81/67/63 
f 81/67/63 88/74/75 87/68/74 
f 88/74/75 81/67/63 80/68/64 
f 86/50/76 67/51/47 63/49/43 
f 63/49/43 89/75/77 86/50/76 
f 89/75/77 63/49/43 64/50/44 
f 89/78/80 64/77/79 90/76/78 
f 90/76/78 86/77/81 89/78/80 
f 86/77/81 90/76/78 91/79/30 
f 64/73/82 65/71/70 85/72/71 
f 85/72/71 91/80/83 64/73/82 
f 91/80/83 85/72/71 86/73/73 
f 92/82/86 79/81/85 84/72/84 
f 84/72/84 83/81/87 92/82/86 
f 83/81/87 84/72/84 70/71/88 
f 88/85/91 80/84/90 92/83/89 
f 92/83/89 87/84/92 88/85/91 
f 87/84/92 92/83/89 83/86/93 
f 65/51/45 66/52/46 68/53/48 
f 68/53/48 70/48/50 65/51/45 
f 70/48/50 68/53/48 69/54/49 
f 73/57/53 56/55/36 52/56/32 
f 52/56/32 75/58/54 73/57/53 
f 75/58/54 52/56/32 53/55/33 
f 83/65/66 82/64/65 87/66/94 
f 90/76/78 64/77/79 91/79/30 
f 79/81/85 62/71/95 84/72/84 
f 80/84/90 79/86/96 92/83/89 
f 61/61/97 62/62/59 76/60/55 
f 84/69/68 62/70/98 67/71/72 
f 71/57/51 72/58/52 74/59/31 
# 146 faces

