# 3ds Max Wavefront OBJ Exporter v0.97b - (c)2007 guruware
# File Created: 06.08.2019 17:02:28

mtllib Elucidator19f.mtl

#
# object w00_013_00
#

v  -0.5251 0.3373 -0.1341
v  -0.5531 0.3381 -0.1577
v  -0.5341 0.3449 -0.1619
v  -0.5586 0.3584 -0.1504
v  -0.5750 0.3644 -0.2136
v  -0.6026 0.3546 -0.2074
v  -0.5807 0.3283 -0.1514
v  -0.6347 0.2985 -0.1095
v  -0.6402 0.3187 -0.1022
v  -0.5862 0.3485 -0.1442
v  -0.5307 0.3575 -0.1269
v  -0.5396 0.3651 -0.1547
v  -0.3091 0.4599 -0.1874
v  -0.2930 0.4430 -0.2173
v  -0.2921 0.4553 -0.1941
v  -0.2820 0.4337 -0.1831
v  -0.2931 0.4259 -0.1700
v  -0.2828 0.4214 -0.2063
v  -0.2945 0.4066 -0.2065
v  -0.3105 0.4406 -0.2239
v  -0.3216 0.4328 -0.2108
v  -0.3208 0.4451 -0.1876
v  -0.5328 0.3699 -0.1399
v  -0.3106 0.4235 -0.1766
v  -0.5227 0.3483 -0.1289
v  -0.3115 0.4113 -0.1998
v  -0.5236 0.3360 -0.1521
v  -0.5337 0.3576 -0.1631
v  -0.5693 0.3847 -0.2257
v  -0.5509 0.3692 -0.1685
v  -0.6235 0.3655 -0.2135
v  -0.6051 0.3499 -0.1563
v  -0.5300 0.3516 -0.1036
v  -0.6828 0.2974 -0.0692
v  -0.5986 0.3260 -0.1649
v  -0.6763 0.2734 -0.0778
v  -0.5235 0.3277 -0.1122
v  -0.5443 0.3453 -0.1771
v  -0.6170 0.3416 -0.2221
v  -0.5627 0.3608 -0.2343
v  -0.5332 0.3231 -0.1525
v  -0.5152 0.3476 -0.1212
v  -0.5166 0.3290 -0.1563
v  -0.5319 0.3616 -0.1729
v  -0.5485 0.3557 -0.1692
v  -0.5472 0.3742 -0.1341
v  -0.5319 0.3417 -0.1175
v  -0.5305 0.3801 -0.1379
v  -0.7037 0.3150 -0.1341
v  -0.6971 0.2911 -0.1427
v  -0.6953 0.3043 -0.1055
v  -1.0039 0.1727 -0.0072
v  -1.0161 0.1905 -0.0334
v  -1.0230 0.1888 -0.0665
v  -0.7021 0.3027 -0.1387
v  -1.0108 0.1710 -0.0404
v  -0.6899 0.2849 -0.1125
v  -0.6831 0.2865 -0.0794
v  -0.6524 0.3196 -0.1152
v  -0.6699 0.3171 -0.1542
v  -0.6471 0.3001 -0.1222
v  -0.6228 0.3087 -0.1277
v  -0.6061 0.3602 -0.2255
v  -0.5724 0.3647 -0.1960
v  -0.6130 0.3471 -0.1717
v  -0.6291 0.3493 -0.2127
v  -0.6093 0.3335 -0.1766
v  -0.6474 0.3364 -0.1908
v  -0.6721 0.3283 -0.1870
v  -0.6281 0.3282 -0.1206
v  -1.3653 0.0674 0.0104
v  -1.3531 0.0496 0.0366
v  -1.3462 0.0513 0.0698
v  -1.4549 0.0241 0.0624
v  -1.3584 0.0691 0.0436
v  -0.6459 0.2968 -0.0795
v  -0.6262 0.2894 -0.0440
v  -0.6066 0.2996 -0.0699
v  -0.5837 0.3107 -0.0840
v  -0.5896 0.3046 -0.0678
v  -0.6037 0.3002 -0.0569
v  -0.6086 0.3070 -0.0672
v  -0.5859 0.3186 -0.0812
v  -0.6154 0.3220 -0.1264
v  -0.6026 0.3403 -0.1676
v  -0.5698 0.3549 -0.1996
v  -0.5911 0.3103 -0.0658
v  -0.5815 0.3055 -0.0547
v  -0.5897 0.3755 -0.2557
v  -0.5722 0.3722 -0.2331
v  -0.5594 0.3614 -0.1932
v  -0.5719 0.3190 -0.0850
# 92 vertices

vn -0.3720 0.8971 -0.2386
vn -0.3521 0.6862 0.6365
vn 0.1533 0.1835 0.9710
vn 0.1615 -0.9609 0.2250
vn -0.7785 -0.3901 0.4917
vn 0.9296 0.1307 0.3445
vn 0.2507 0.8375 0.4855
vn 0.4846 0.6327 0.6040
vn 0.1967 -0.3314 -0.9228
vn 0.7470 -0.6537 0.1214
vn 0.1431 -0.7853 -0.6024
vn 0.3859 -0.8214 0.4200
vn -0.1986 0.9647 0.1731
vn 0.2774 0.3915 -0.8773
vn 0.3158 0.9364 0.1529
vn 0.6723 0.2209 0.7066
vn 0.2962 -0.2504 0.9217
vn 0.7799 -0.6124 -0.1294
vn 0.2496 -0.9112 -0.3277
vn -0.3622 0.0226 -0.9318
vn -0.8046 0.2621 -0.5329
vn -0.6229 0.4797 0.6180
vn -0.2496 0.9112 0.3277
vn -0.2962 0.2504 -0.9217
vn 0.2020 0.0506 0.9781
vn 0.3599 -0.5257 0.7708
vn 0.3304 -0.9436 -0.0194
vn -0.3830 -0.8366 -0.3917
vn -0.2013 -0.6190 0.7591
vn 0.9219 0.3271 -0.2074
vn -0.9219 -0.3271 0.2074
vn 0.1734 0.1300 0.9762
vn -0.2687 0.9258 0.2659
vn -0.3825 0.6846 -0.6205
vn -0.2084 -0.1686 -0.9634
vn 0.2353 -0.8983 -0.3711
vn 0.2687 -0.9258 -0.2659
vn 0.2388 -0.2701 0.9328
vn -0.2856 0.9156 0.2830
vn -0.6829 0.0743 -0.7267
vn 0.2128 -0.9038 -0.3714
vn 0.1223 -0.8872 -0.4449
vn -0.5763 0.1322 -0.8065
vn -0.3223 0.9188 0.2280
vn -0.3549 0.9140 0.1967
vn -0.6691 0.0824 -0.7386
vn 0.1372 -0.8827 -0.4495
vn -0.6712 0.0812 -0.7368
vn -0.8781 -0.0703 -0.4733
vn -0.3693 0.9074 0.2006
vn -0.3860 0.2168 -0.8967
vn 0.2036 -0.9263 -0.3171
vn 0.2868 -0.7148 0.6378
vn -0.2657 0.8789 0.3961
vn -0.3347 -0.3988 0.8538
vn -0.1658 0.8172 0.5520
vn -0.2724 0.8451 0.4600
vn -0.1213 -0.3652 0.9230
vn 0.2212 -0.9569 -0.1881
vn 0.3041 -0.9405 -0.1518
vn 0.3010 -0.9240 -0.2359
vn 0.2975 -0.9237 -0.2414
vn 0.2511 -0.2660 0.9307
vn 0.2602 -0.9643 -0.0497
vn -0.1864 0.8503 0.4923
vn -0.1954 0.8882 0.4159
vn 0.0898 -0.3152 0.9448
vn 0.9394 0.1457 0.3103
vn 0.5449 0.7208 0.4283
vn 0.3560 0.7512 0.5558
vn 0.7398 -0.0390 0.6717
vn 0.7443 -0.6663 0.0460
vn 0.5185 -0.8422 0.1480
vn -0.2190 0.7850 0.5795
vn -0.0099 -0.3408 0.9401
vn 0.1731 -0.8897 -0.4225
vn -0.8652 -0.0578 -0.4981
vn 0.8788 0.3553 -0.3185
vn 0.0661 0.9778 0.1990
vn 0.7532 0.3954 -0.5256
vn 0.5352 -0.7347 -0.4169
vn 0.0951 0.7038 0.7041
vn 0.5543 -0.1431 0.8199
vn 0.7101 0.4023 -0.5778
vn 0.5997 -0.5384 -0.5920
vn 0.6432 0.4090 -0.6473
vn 0.1832 0.9820 -0.0451
vn 0.3675 0.9143 -0.1706
vn 0.8906 0.0832 0.4471
vn 0.5218 -0.8365 -0.1672
vn 0.9274 0.1275 0.3517
vn 0.0490 0.8898 0.4537
vn 0.1087 0.8595 0.4995
vn -0.1992 0.8897 0.4108
vn 0.7097 -0.3349 -0.6199
vn 0.5678 -0.8166 -0.1033
vn 0.3169 -0.9449 -0.0818
vn 0.8750 -0.4841 -0.0051
# 98 vertex normals

vt 0.7254 0.5925 0.0000
vt 0.6602 0.5925 0.0000
vt 0.5950 0.5925 0.0000
vt 0.5950 0.6470 0.0000
vt 0.6711 0.6470 0.0000
vt 0.7254 0.7403 0.0000
vt 0.1169 0.8843 0.0000
vt 0.2255 0.8182 0.0000
vt 0.2255 0.8843 0.0000
vt 0.2255 0.9505 0.0000
vt 0.1169 0.9894 0.0000
vt 0.1169 0.7831 0.0000
vt 0.0191 0.8182 0.0000
vt 0.0191 0.8843 0.0000
vt 0.9210 0.9933 0.0000
vt 0.9862 0.7053 0.0000
vt 0.9210 0.7053 0.0000
vt 0.8558 0.7053 0.0000
vt 0.8558 0.9933 0.0000
vt 0.9862 0.9933 0.0000
vt 0.0191 0.9505 0.0000
vt 0.2581 0.0011 0.0000
vt 0.5516 0.0011 0.0000
vt 0.2581 0.1995 0.0000
vt 0.5516 0.1995 0.0000
vt 0.9971 0.0011 0.0000
vt 0.9971 0.5536 0.0000
vt 0.6711 0.8843 0.0000
vt 0.8232 0.9855 0.0000
vt 0.8232 0.8843 0.0000
vt 0.8232 0.7793 0.0000
vt 0.6711 0.7793 0.0000
vt 0.6711 0.9855 0.0000
vt 0.2581 0.9855 0.0000
vt 0.3234 0.9543 0.0000
vt 0.2581 0.9232 0.0000
vt 0.5733 0.6586 0.0000
vt 0.6820 0.6003 0.0000
vt 0.8015 0.6586 0.0000
vt 0.6820 0.7170 0.0000
vt 0.5516 0.5536 0.0000
vt 0.0191 0.4524 0.0000
vt 0.2255 0.0167 0.0000
vt 0.0191 0.0167 0.0000
vt 0.2255 0.4524 0.0000
vt 0.0191 0.6081 0.0000
vt 0.2255 0.6081 0.0000
vt 0.0191 0.7131 0.0000
vt 0.6494 0.8921 0.0000
vt 0.3559 0.9699 0.0000
vt 0.2690 0.8065 0.0000
vt 0.6494 0.7831 0.0000
vt 0.4972 0.7131 0.0000
vt 0.4972 0.6081 0.0000
vt 0.2690 0.5847 0.0000
vt 0.4864 0.5847 0.0000
vt 0.4864 0.3163 0.0000
vt 0.2690 0.3163 0.0000
vt 0.4864 0.2384 0.0000
vt -0.7742 0.6042 0.0000
vt -0.9915 0.6042 0.0000
vt -0.8829 0.7131 0.0000
vt -0.5025 0.6042 0.0000
vt -0.5786 0.7131 0.0000
vt -0.6981 0.7870 0.0000
vt -0.5786 0.7520 0.0000
vt -0.5025 0.6859 0.0000
vt -0.4699 0.7676 0.0000
vt 1.7360 0.8999 0.0000
vt 1.7795 0.8999 0.0000
vt 1.7795 0.8532 0.0000
vt 1.7360 0.8532 0.0000
vt 1.7795 0.8065 0.0000
vt -0.4047 0.7403 0.0000
vt 0.6494 0.9699 0.0000
vt 1.4970 0.3007 0.0000
vt 1.4426 0.3746 0.0000
vt 1.4426 0.2423 0.0000
vt 1.4970 0.3746 0.0000
vt 1.7360 0.8065 0.0000
vt 1.7795 0.8843 0.0000
vt 1.7360 0.8843 0.0000
vt 1.5948 0.9154 0.0000
vt 1.6382 0.8376 0.0000
vt 1.5948 0.8376 0.0000
vt 1.6382 0.9154 0.0000
# 86 texture coords

o w00_013_00
g w00_013_00
usemtl Material__237
s 1
f 3/2/3 2/2/2 1/1/1 
f 2/2/2 3/2/3 4/2/4 
f 4/2/4 5/3/5 2/2/2 
f 5/3/5 4/2/4 6/4/6 
f 6/4/6 2/2/2 5/3/5 
f 2/2/2 6/4/6 7/5/7 
f 7/5/7 1/1/1 2/2/2 
f 1/1/1 7/5/7 8/6/8 
f 8/6/8 9/6/9 1/1/1 
f 9/6/9 8/6/8 10/5/10 
f 10/5/10 11/1/11 9/6/9 
f 11/1/11 10/5/10 4/2/4 
f 4/2/4 12/2/12 11/1/11 
f 12/2/12 4/2/4 3/2/3 
f 15/9/15 14/8/14 13/7/13 
f 13/7/13 16/10/16 15/9/15 
f 16/10/16 13/7/13 17/11/17 
f 17/11/17 18/9/18 16/10/16 
f 18/9/18 17/11/17 19/7/19 
f 19/7/19 14/8/14 18/9/18 
f 14/8/14 19/7/19 20/12/20 
f 20/12/20 13/7/13 14/8/14 
f 13/7/13 20/12/20 21/13/21 
f 21/13/21 22/14/22 13/7/13 
f 22/17/23 21/16/24 23/15/23 
f 23/15/23 24/18/25 22/17/23 
f 24/18/25 23/15/23 25/19/26 
f 25/19/26 26/17/27 24/18/25 
f 26/17/27 25/19/26 27/15/11 
f 27/15/11 21/16/24 26/17/27 
f 21/16/24 27/15/11 28/20/24 
f 28/20/24 23/15/23 21/16/24 
f 26/14/28 20/12/20 19/7/19 
f 19/7/19 24/21/29 26/14/28 
f 24/21/29 19/7/19 17/11/17 
f 17/11/17 22/14/22 24/21/29 
f 22/14/22 17/11/17 13/7/13 
f 31/24/23 30/23/23 29/22/23 
f 30/23/23 31/24/23 32/25/23 
f 32/25/23 33/26/23 30/23/23 
f 33/26/23 32/25/23 34/27/23 
f 37/26/19 36/27/19 35/25/19 
f 35/25/19 38/23/19 37/26/19 
f 38/23/19 35/25/19 39/24/19 
f 39/24/19 40/22/19 38/23/19 
f 43/30/19 42/29/17 41/28/19 
f 41/28/19 44/31/24 43/30/19 
f 44/31/24 41/28/19 45/32/24 
f 45/32/24 46/28/23 44/31/24 
f 47/33/17 41/28/19 42/29/17 
f 42/29/17 46/28/23 47/33/17 
f 46/28/23 42/29/17 48/30/23 
f 48/30/23 44/31/24 46/28/23 
f 6/4/6 4/2/4 10/5/10 
f 10/5/10 7/5/7 6/4/6 
f 7/5/7 10/5/10 8/6/8 
f 15/36/30 16/35/30 18/34/30 
f 18/34/30 14/35/30 15/36/30 
f 47/39/31 46/38/31 45/37/31 
f 45/37/31 41/40/31 47/39/31 
f 44/37/30 48/38/30 42/39/30 
f 42/39/30 43/40/30 44/37/30 
f 26/14/28 21/13/21 20/12/20 
f 32/25/23 49/41/23 34/27/23 
f 35/25/19 36/27/19 50/41/19 
f 11/1/11 1/1/1 9/6/9 
f 53/44/33 52/43/32 51/42/23 
f 51/42/23 54/43/34 53/44/33 
f 54/43/34 51/42/23 55/45/35 
f 55/45/35 56/44/36 54/43/34 
f 56/44/36 55/45/35 57/42/37 
f 57/42/37 52/43/32 56/44/36 
f 52/43/32 57/42/37 58/45/38 
f 58/45/38 51/42/23 52/43/32 
f 51/42/23 58/45/38 59/46/39 
f 59/46/39 55/45/35 51/42/23 
f 55/45/35 59/46/39 60/47/40 
f 60/47/40 61/46/41 55/45/35 
f 61/46/41 60/47/40 62/48/42 
f 65/51/45 64/50/44 63/49/43 
f 63/49/43 66/52/46 65/51/45 
f 66/52/46 63/49/43 67/51/47 
f 67/51/47 68/53/48 66/52/46 
f 68/53/48 67/51/47 62/48/42 
f 62/48/42 69/54/49 68/53/48 
f 69/54/49 62/48/42 60/47/40 
f 60/47/40 70/48/50 69/54/49 
f 70/48/50 60/47/40 59/46/39 
f 71/57/51 54/56/34 56/55/36 
f 56/55/36 72/58/52 71/57/51 
f 72/58/52 56/55/36 73/57/53 
f 73/57/53 74/59/31 72/58/52 
f 74/59/31 73/57/53 75/58/54 
f 75/58/54 71/57/51 74/59/31 
f 71/57/51 75/58/54 53/55/33 
f 53/55/33 54/56/34 71/57/51 
f 70/62/57 59/61/56 76/60/55 
f 76/60/55 77/63/58 70/62/57 
f 77/63/58 76/60/55 62/62/59 
f 62/62/59 78/64/60 77/63/58 
f 78/64/60 62/62/59 79/65/61 
f 79/65/61 80/66/62 78/64/60 
f 78/64/60 80/68/64 81/67/63 
f 81/67/63 77/63/58 78/64/60 
f 77/63/58 81/67/63 82/64/65 
f 82/64/65 70/62/57 77/63/58 
f 70/62/57 82/64/65 83/65/66 
f 76/47/67 59/46/39 58/45/38 
f 58/45/38 61/46/41 76/47/67 
f 61/46/41 58/45/38 57/42/37 
f 57/42/37 55/45/35 61/46/41 
f 65/71/70 70/70/69 84/69/68 
f 84/69/68 85/72/71 65/71/70 
f 85/72/71 84/69/68 67/71/72 
f 67/71/72 86/73/73 85/72/71 
f 87/68/74 82/64/65 81/67/63 
f 81/67/63 88/74/75 87/68/74 
f 88/74/75 81/67/63 80/68/64 
f 86/50/76 67/51/47 63/49/43 
f 63/49/43 89/75/77 86/50/76 
f 89/75/77 63/49/43 64/50/44 
f 89/78/80 64/77/79 90/76/78 
f 90/76/78 86/77/81 89/78/80 
f 86/77/81 90/76/78 91/79/30 
f 64/73/82 65/71/70 85/72/71 
f 85/72/71 91/80/83 64/73/82 
f 91/80/83 85/72/71 86/73/73 
f 92/82/86 79/81/85 84/72/84 
f 84/72/84 83/81/87 92/82/86 
f 83/81/87 84/72/84 70/71/88 
f 88/85/91 80/84/90 92/83/89 
f 92/83/89 87/84/92 88/85/91 
f 87/84/92 92/83/89 83/86/93 
f 65/51/45 66/52/46 68/53/48 
f 68/53/48 70/48/50 65/51/45 
f 70/48/50 68/53/48 69/54/49 
f 73/57/53 56/55/36 52/56/32 
f 52/56/32 75/58/54 73/57/53 
f 75/58/54 52/56/32 53/55/33 
f 83/65/66 82/64/65 87/66/94 
f 90/76/78 64/77/79 91/79/30 
f 79/81/85 62/71/95 84/72/84 
f 80/84/90 79/86/96 92/83/89 
f 61/61/97 62/62/59 76/60/55 
f 84/69/68 62/70/98 67/71/72 
f 71/57/51 72/58/52 74/59/31 
# 146 faces

