# 3ds Max Wavefront OBJ Exporter v0.97b - (c)2007 guruware
# File Created: 06.08.2019 17:03:02

mtllib Elucidator72f.mtl

#
# object w00_013_00
#

v  0.2358 1.0329 0.4286
v  0.2063 1.0471 0.4124
v  0.2221 1.0386 0.4023
v  0.2163 1.0669 0.4115
v  0.1821 1.0692 0.3556
v  0.1590 1.0815 0.3702
v  0.1832 1.0594 0.4270
v  0.1443 1.0817 0.4866
v  0.1542 1.1015 0.4857
v  0.1932 1.0792 0.4261
v  0.2458 1.0527 0.4277
v  0.2321 1.0584 0.4014
v  0.4396 0.9692 0.2911
v  0.4301 0.9403 0.2684
v  0.4468 0.9533 0.2839
v  0.4468 0.9332 0.3008
v  0.4397 0.9376 0.3177
v  0.4301 0.9202 0.2854
v  0.4133 0.9170 0.2934
v  0.4133 0.9487 0.2667
v  0.4061 0.9530 0.2836
v  0.4228 0.9661 0.2991
v  0.2457 1.0604 0.4114
v  0.4229 0.9460 0.3160
v  0.2457 1.0403 0.4283
v  0.4061 0.9329 0.3005
v  0.2289 1.0273 0.4128
v  0.2289 1.0474 0.3959
v  0.1925 1.0778 0.3353
v  0.2205 1.0660 0.3895
v  0.1472 1.1019 0.3640
v  0.1752 1.0901 0.4182
v  0.2523 1.0527 0.4509
v  0.1247 1.1207 0.5318
v  0.1634 1.0667 0.4192
v  0.1129 1.0973 0.5328
v  0.2405 1.0293 0.4519
v  0.2087 1.0426 0.3905
v  0.1354 1.0785 0.3651
v  0.1807 1.0544 0.3364
v  0.2146 1.0242 0.4196
v  0.2538 1.0365 0.4341
v  0.2286 1.0168 0.4107
v  0.2285 1.0471 0.3852
v  0.2146 1.0545 0.3940
v  0.2399 1.0742 0.4173
v  0.2399 1.0439 0.4429
v  0.2538 1.0668 0.4085
v  0.0929 1.1340 0.4704
v  0.0811 1.1106 0.4714
v  0.1047 1.1265 0.4987
v  -0.1536 1.2537 0.6971
v  -0.1633 1.2693 0.6686
v  -0.1827 1.2659 0.6410
v  0.0854 1.1231 0.4711
v  -0.1730 1.2502 0.6695
v  0.0951 1.1075 0.4996
v  0.1145 1.1109 0.5272
v  0.1406 1.1075 0.4760
v  0.1106 1.1092 0.4454
v  0.1309 1.0884 0.4769
v  0.1512 1.0776 0.4640
v  0.1522 1.0842 0.3524
v  0.1912 1.0713 0.3707
v  0.1616 1.0902 0.4071
v  0.1345 1.0940 0.3726
v  0.1549 1.0769 0.4077
v  0.1229 1.1011 0.4007
v  0.1019 1.1122 0.4119
v  0.1608 1.0967 0.4632
v  -0.4687 1.4182 0.8222
v  -0.4590 1.4025 0.8507
v  -0.4396 1.4060 0.8783
v  -0.5370 1.4562 0.9028
v  -0.4493 1.4216 0.8499
v  0.1472 1.0939 0.5161
v  0.1720 1.0828 0.5473
v  0.1815 1.0721 0.5164
v  0.1985 1.0622 0.4950
v  0.1974 1.0649 0.5131
v  0.1891 1.0733 0.5272
v  0.1851 1.0793 0.5160
v  0.2024 1.0699 0.4947
v  0.1644 1.0827 0.4583
v  0.1672 1.0792 0.4116
v  0.1863 1.0618 0.3711
v  0.2002 1.0705 0.5128
v  0.2091 1.0630 0.5229
v  0.1604 1.0784 0.3162
v  0.1805 1.0691 0.3345
v  0.2000 1.0609 0.3722
v  0.2113 1.0603 0.4885
# 92 vertices

vn 0.1240 0.8473 -0.5164
vn 0.3764 0.8587 0.3478
vn 0.6053 0.2296 0.7622
vn -0.3185 -0.7582 0.5690
vn -0.5851 0.3279 0.7417
vn 0.8911 -0.4459 0.0839
vn 0.8394 0.5420 0.0408
vn 0.9460 0.2636 0.1887
vn -0.4109 -0.5570 -0.7217
vn 0.2367 -0.9408 0.2428
vn -0.5698 -0.7864 -0.2384
vn 0.0011 -0.7647 0.6443
vn 0.4543 0.8660 -0.2087
vn 0.0634 -0.0759 -0.9951
vn 0.8070 0.5035 -0.3087
vn 0.8986 -0.1380 0.4164
vn 0.4517 -0.1894 0.8718
vn 0.1821 -0.9833 -0.0040
vn -0.4501 -0.8921 0.0394
vn -0.6291 0.0654 -0.7745
vn -0.6601 0.6108 -0.4373
vn 0.0573 0.8829 0.4661
vn 0.4501 0.8921 -0.0394
vn -0.4517 0.1894 -0.8719
vn 0.5708 0.1024 0.8147
vn 0.2861 -0.4618 0.8396
vn -0.2842 -0.9062 0.3131
vn -0.8978 -0.4353 0.0666
vn -0.1804 -0.1632 0.9699
vn 0.7703 -0.4102 -0.4882
vn -0.7703 0.4102 0.4882
vn 0.5928 0.1785 0.7853
vn 0.4192 0.9027 -0.0971
vn -0.1547 0.6225 -0.7672
vn -0.6343 -0.1810 -0.7516
vn -0.4710 -0.8821 -0.0020
vn -0.4192 -0.9027 0.0971
vn 0.4033 -0.1638 0.9003
vn 0.4081 0.9099 -0.0746
vn -0.7525 0.3552 -0.5547
vn -0.4906 -0.8714 0.0040
vn -0.5774 -0.8148 -0.0518
vn -0.6749 0.3110 -0.6692
vn 0.3608 0.9251 -0.1182
vn 0.3216 0.9367 -0.1383
vn -0.7428 0.3496 -0.5710
vn -0.5659 -0.8223 -0.0606
vn -0.7442 0.3504 -0.5686
vn -0.8723 0.4298 -0.2333
vn 0.3091 0.9422 -0.1294
vn -0.5257 0.2291 -0.8192
vn -0.4877 -0.8707 0.0635
vn 0.0751 -0.5780 0.8126
vn 0.4483 0.8931 0.0379
vn -0.1189 0.1035 0.9875
vn 0.5504 0.8143 0.1843
vn 0.4506 0.8859 0.1101
vn 0.0837 0.0018 0.9965
vn -0.4396 -0.8783 0.1880
vn -0.3552 -0.9135 0.1985
vn -0.3824 -0.9165 0.1172
vn -0.3870 -0.9151 0.1128
vn 0.4138 -0.1693 0.8945
vn -0.3592 -0.8812 0.3074
vn 0.5294 0.8397 0.1211
vn 0.5128 0.8576 0.0389
vn 0.2744 -0.0962 0.9568
vn 0.8927 -0.4484 0.0455
vn 0.9675 0.2523 -0.0155
vn 0.8975 0.4243 0.1200
vn 0.7913 -0.3780 0.4806
vn 0.1973 -0.9634 0.1813
vn -0.0232 -0.9221 0.3862
vn 0.5050 0.8314 0.2318
vn 0.1855 -0.0503 0.9814
vn -0.5326 -0.8454 -0.0401
vn -0.8660 0.4253 -0.2629
vn 0.7093 -0.3840 -0.5911
vn 0.6656 0.7069 -0.2392
vn 0.5558 -0.3144 -0.7696
vn -0.1803 -0.9696 -0.1652
vn 0.7404 0.5914 0.3194
vn 0.6583 -0.3017 0.6897
vn 0.5070 -0.2916 -0.8112
vn -0.0960 -0.9050 -0.4143
vn 0.4336 -0.2569 -0.8637
vn 0.6550 0.5835 -0.4800
vn 0.7019 0.3879 -0.5974
vn 0.8779 -0.4340 0.2022
vn -0.1450 -0.9841 0.1021
vn 0.8906 -0.4453 0.0921
vn 0.7077 0.7060 0.0275
vn 0.7533 0.6540 0.0700
vn 0.5087 0.8602 0.0345
vn 0.0848 -0.8352 -0.5434
vn -0.0747 -0.9870 0.1425
vn -0.3200 -0.9109 0.2604
vn 0.3723 -0.9274 0.0366
# 98 vertex normals

vt 0.7254 0.5925 0.0000
vt 0.6602 0.5925 0.0000
vt 0.5950 0.5925 0.0000
vt 0.5950 0.6470 0.0000
vt 0.6711 0.6470 0.0000
vt 0.7254 0.7403 0.0000
vt 0.1169 0.8843 0.0000
vt 0.2255 0.8182 0.0000
vt 0.2255 0.8843 0.0000
vt 0.2255 0.9505 0.0000
vt 0.1169 0.9894 0.0000
vt 0.1169 0.7831 0.0000
vt 0.0191 0.8182 0.0000
vt 0.0191 0.8843 0.0000
vt 0.9210 0.9933 0.0000
vt 0.9862 0.7053 0.0000
vt 0.9210 0.7053 0.0000
vt 0.8558 0.7053 0.0000
vt 0.8558 0.9933 0.0000
vt 0.9862 0.9933 0.0000
vt 0.0191 0.9505 0.0000
vt 0.2581 0.0011 0.0000
vt 0.5516 0.0011 0.0000
vt 0.2581 0.1995 0.0000
vt 0.5516 0.1995 0.0000
vt 0.9971 0.0011 0.0000
vt 0.9971 0.5536 0.0000
vt 0.6711 0.8843 0.0000
vt 0.8232 0.9855 0.0000
vt 0.8232 0.8843 0.0000
vt 0.8232 0.7793 0.0000
vt 0.6711 0.7793 0.0000
vt 0.6711 0.9855 0.0000
vt 0.2581 0.9855 0.0000
vt 0.3234 0.9543 0.0000
vt 0.2581 0.9232 0.0000
vt 0.5733 0.6586 0.0000
vt 0.6820 0.6003 0.0000
vt 0.8015 0.6586 0.0000
vt 0.6820 0.7170 0.0000
vt 0.5516 0.5536 0.0000
vt 0.0191 0.4524 0.0000
vt 0.2255 0.0167 0.0000
vt 0.0191 0.0167 0.0000
vt 0.2255 0.4524 0.0000
vt 0.0191 0.6081 0.0000
vt 0.2255 0.6081 0.0000
vt 0.0191 0.7131 0.0000
vt 0.6494 0.8921 0.0000
vt 0.3559 0.9699 0.0000
vt 0.2690 0.8065 0.0000
vt 0.6494 0.7831 0.0000
vt 0.4972 0.7131 0.0000
vt 0.4972 0.6081 0.0000
vt 0.2690 0.5847 0.0000
vt 0.4864 0.5847 0.0000
vt 0.4864 0.3163 0.0000
vt 0.2690 0.3163 0.0000
vt 0.4864 0.2384 0.0000
vt -0.7742 0.6042 0.0000
vt -0.9915 0.6042 0.0000
vt -0.8829 0.7131 0.0000
vt -0.5025 0.6042 0.0000
vt -0.5786 0.7131 0.0000
vt -0.6981 0.7870 0.0000
vt -0.5786 0.7520 0.0000
vt -0.5025 0.6859 0.0000
vt -0.4699 0.7676 0.0000
vt 1.7360 0.8999 0.0000
vt 1.7795 0.8999 0.0000
vt 1.7795 0.8532 0.0000
vt 1.7360 0.8532 0.0000
vt 1.7795 0.8065 0.0000
vt -0.4047 0.7403 0.0000
vt 0.6494 0.9699 0.0000
vt 1.4970 0.3007 0.0000
vt 1.4426 0.3746 0.0000
vt 1.4426 0.2423 0.0000
vt 1.4970 0.3746 0.0000
vt 1.7360 0.8065 0.0000
vt 1.7795 0.8843 0.0000
vt 1.7360 0.8843 0.0000
vt 1.5948 0.9154 0.0000
vt 1.6382 0.8376 0.0000
vt 1.5948 0.8376 0.0000
vt 1.6382 0.9154 0.0000
# 86 texture coords

o w00_013_00
g w00_013_00
usemtl Material__237
s 1
f 3/2/3 2/2/2 1/1/1 
f 2/2/2 3/2/3 4/2/4 
f 4/2/4 5/3/5 2/2/2 
f 5/3/5 4/2/4 6/4/6 
f 6/4/6 2/2/2 5/3/5 
f 2/2/2 6/4/6 7/5/7 
f 7/5/7 1/1/1 2/2/2 
f 1/1/1 7/5/7 8/6/8 
f 8/6/8 9/6/9 1/1/1 
f 9/6/9 8/6/8 10/5/10 
f 10/5/10 11/1/11 9/6/9 
f 11/1/11 10/5/10 4/2/4 
f 4/2/4 12/2/12 11/1/11 
f 12/2/12 4/2/4 3/2/3 
f 15/9/15 14/8/14 13/7/13 
f 13/7/13 16/10/16 15/9/15 
f 16/10/16 13/7/13 17/11/17 
f 17/11/17 18/9/18 16/10/16 
f 18/9/18 17/11/17 19/7/19 
f 19/7/19 14/8/14 18/9/18 
f 14/8/14 19/7/19 20/12/20 
f 20/12/20 13/7/13 14/8/14 
f 13/7/13 20/12/20 21/13/21 
f 21/13/21 22/14/22 13/7/13 
f 22/17/23 21/16/24 23/15/23 
f 23/15/23 24/18/25 22/17/23 
f 24/18/25 23/15/23 25/19/26 
f 25/19/26 26/17/27 24/18/25 
f 26/17/27 25/19/26 27/15/11 
f 27/15/11 21/16/24 26/17/27 
f 21/16/24 27/15/11 28/20/24 
f 28/20/24 23/15/23 21/16/24 
f 26/14/28 20/12/20 19/7/19 
f 19/7/19 24/21/29 26/14/28 
f 24/21/29 19/7/19 17/11/17 
f 17/11/17 22/14/22 24/21/29 
f 22/14/22 17/11/17 13/7/13 
f 31/24/23 30/23/23 29/22/23 
f 30/23/23 31/24/23 32/25/23 
f 32/25/23 33/26/23 30/23/23 
f 33/26/23 32/25/23 34/27/23 
f 37/26/19 36/27/19 35/25/19 
f 35/25/19 38/23/19 37/26/19 
f 38/23/19 35/25/19 39/24/19 
f 39/24/19 40/22/19 38/23/19 
f 43/30/19 42/29/17 41/28/19 
f 41/28/19 44/31/24 43/30/19 
f 44/31/24 41/28/19 45/32/24 
f 45/32/24 46/28/23 44/31/24 
f 47/33/17 41/28/19 42/29/17 
f 42/29/17 46/28/23 47/33/17 
f 46/28/23 42/29/17 48/30/23 
f 48/30/23 44/31/24 46/28/23 
f 6/4/6 4/2/4 10/5/10 
f 10/5/10 7/5/7 6/4/6 
f 7/5/7 10/5/10 8/6/8 
f 15/36/30 16/35/30 18/34/30 
f 18/34/30 14/35/30 15/36/30 
f 47/39/31 46/38/31 45/37/31 
f 45/37/31 41/40/31 47/39/31 
f 44/37/30 48/38/30 42/39/30 
f 42/39/30 43/40/30 44/37/30 
f 26/14/28 21/13/21 20/12/20 
f 32/25/23 49/41/23 34/27/23 
f 35/25/19 36/27/19 50/41/19 
f 11/1/11 1/1/1 9/6/9 
f 53/44/33 52/43/32 51/42/23 
f 51/42/23 54/43/34 53/44/33 
f 54/43/34 51/42/23 55/45/35 
f 55/45/35 56/44/36 54/43/34 
f 56/44/36 55/45/35 57/42/37 
f 57/42/37 52/43/32 56/44/36 
f 52/43/32 57/42/37 58/45/38 
f 58/45/38 51/42/23 52/43/32 
f 51/42/23 58/45/38 59/46/39 
f 59/46/39 55/45/35 51/42/23 
f 55/45/35 59/46/39 60/47/40 
f 60/47/40 61/46/41 55/45/35 
f 61/46/41 60/47/40 62/48/42 
f 65/51/45 64/50/44 63/49/43 
f 63/49/43 66/52/46 65/51/45 
f 66/52/46 63/49/43 67/51/47 
f 67/51/47 68/53/48 66/52/46 
f 68/53/48 67/51/47 62/48/42 
f 62/48/42 69/54/49 68/53/48 
f 69/54/49 62/48/42 60/47/40 
f 60/47/40 70/48/50 69/54/49 
f 70/48/50 60/47/40 59/46/39 
f 71/57/51 54/56/34 56/55/36 
f 56/55/36 72/58/52 71/57/51 
f 72/58/52 56/55/36 73/57/53 
f 73/57/53 74/59/31 72/58/52 
f 74/59/31 73/57/53 75/58/54 
f 75/58/54 71/57/51 74/59/31 
f 71/57/51 75/58/54 53/55/33 
f 53/55/33 54/56/34 71/57/51 
f 70/62/57 59/61/56 76/60/55 
f 76/60/55 77/63/58 70/62/57 
f 77/63/58 76/60/55 62/62/59 
f 62/62/59 78/64/60 77/63/58 
f 78/64/60 62/62/59 79/65/61 
f 79/65/61 80/66/62 78/64/60 
f 78/64/60 80/68/64 81/67/63 
f 81/67/63 77/63/58 78/64/60 
f 77/63/58 81/67/63 82/64/65 
f 82/64/65 70/62/57 77/63/58 
f 70/62/57 82/64/65 83/65/66 
f 76/47/67 59/46/39 58/45/38 
f 58/45/38 61/46/41 76/47/67 
f 61/46/41 58/45/38 57/42/37 
f 57/42/37 55/45/35 61/46/41 
f 65/71/70 70/70/69 84/69/68 
f 84/69/68 85/72/71 65/71/70 
f 85/72/71 84/69/68 67/71/72 
f 67/71/72 86/73/73 85/72/71 
f 87/68/74 82/64/65 81/67/63 
f 81/67/63 88/74/75 87/68/74 
f 88/74/75 81/67/63 80/68/64 
f 86/50/76 67/51/47 63/49/43 
f 63/49/43 89/75/77 86/50/76 
f 89/75/77 63/49/43 64/50/44 
f 89/78/80 64/77/79 90/76/78 
f 90/76/78 86/77/81 89/78/80 
f 86/77/81 90/76/78 91/79/30 
f 64/73/82 65/71/70 85/72/71 
f 85/72/71 91/80/83 64/73/82 
f 91/80/83 85/72/71 86/73/73 
f 92/82/86 79/81/85 84/72/84 
f 84/72/84 83/81/87 92/82/86 
f 83/81/87 84/72/84 70/71/88 
f 88/85/91 80/84/90 92/83/89 
f 92/83/89 87/84/92 88/85/91 
f 87/84/92 92/83/89 83/86/93 
f 65/51/45 66/52/46 68/53/48 
f 68/53/48 70/48/50 65/51/45 
f 70/48/50 68/53/48 69/54/49 
f 73/57/53 56/55/36 52/56/32 
f 52/56/32 75/58/54 73/57/53 
f 75/58/54 52/56/32 53/55/33 
f 83/65/66 82/64/65 87/66/94 
f 90/76/78 64/77/79 91/79/30 
f 79/81/85 62/71/95 84/72/84 
f 80/84/90 79/86/96 92/83/89 
f 61/61/97 62/62/59 76/60/55 
f 84/69/68 62/70/98 67/71/72 
f 71/57/51 72/58/52 74/59/31 
# 146 faces

