# 3ds Max Wavefront OBJ Exporter v0.97b - (c)2007 guruware
# File Created: 06.08.2019 17:03:12

mtllib Elucidator91f.mtl

#
# object w00_013_00
#

v  -0.3981 0.3899 0.1146
v  -0.3620 0.3954 0.1171
v  -0.3742 0.4044 0.1032
v  -0.3585 0.3785 0.1031
v  -0.3091 0.4180 0.0856
v  -0.2914 0.4048 0.1059
v  -0.3443 0.3822 0.1374
v  -0.3279 0.3377 0.1950
v  -0.3244 0.3209 0.1810
v  -0.3408 0.3654 0.1234
v  -0.3946 0.3731 0.1006
v  -0.3707 0.3876 0.0892
v  -0.5271 0.4770 -0.0862
v  -0.5262 0.5149 -0.0853
v  -0.5379 0.4919 -0.0900
v  -0.5556 0.4971 -0.0712
v  -0.5548 0.4851 -0.0567
v  -0.5438 0.5201 -0.0665
v  -0.5363 0.5213 -0.0493
v  -0.5086 0.5132 -0.0788
v  -0.5078 0.5012 -0.0643
v  -0.5196 0.4782 -0.0689
v  -0.3837 0.3771 0.0867
v  -0.5372 0.4834 -0.0502
v  -0.4013 0.3823 0.1054
v  -0.5255 0.5064 -0.0455
v  -0.3896 0.4053 0.1101
v  -0.3719 0.4001 0.0914
v  -0.3040 0.4214 0.0621
v  -0.3532 0.3915 0.0856
v  -0.2693 0.3955 0.1019
v  -0.3184 0.3657 0.1254
v  -0.4089 0.3577 0.1123
v  -0.3110 0.2849 0.2244
v  -0.3226 0.3856 0.1420
v  -0.3151 0.3048 0.2409
v  -0.4130 0.3776 0.1288
v  -0.3573 0.4114 0.1022
v  -0.2734 0.4154 0.1184
v  -0.3082 0.4413 0.0787
v  -0.3834 0.4067 0.1249
v  -0.4118 0.3799 0.1056
v  -0.3940 0.4147 0.1127
v  -0.3674 0.4069 0.0844
v  -0.3568 0.3989 0.0966
v  -0.3745 0.3642 0.0895
v  -0.4011 0.3720 0.1178
v  -0.3852 0.3721 0.0773
v  -0.2553 0.3187 0.1977
v  -0.2595 0.3386 0.2143
v  -0.2796 0.3047 0.2123
v  -0.1012 0.1443 0.4667
v  -0.0740 0.1517 0.4477
v  -0.0502 0.1753 0.4423
v  -0.2558 0.3283 0.2069
v  -0.0774 0.1679 0.4612
v  -0.2830 0.3209 0.2258
v  -0.3067 0.2973 0.2312
v  -0.3071 0.3251 0.1808
v  -0.2715 0.3488 0.1782
v  -0.3104 0.3413 0.1943
v  -0.3260 0.3529 0.1765
v  -0.2777 0.4150 0.0971
v  -0.3209 0.4053 0.0895
v  -0.3038 0.3754 0.1264
v  -0.2676 0.3992 0.1186
v  -0.3062 0.3867 0.1358
v  -0.2667 0.3794 0.1427
v  -0.2497 0.3687 0.1598
v  -0.3226 0.3367 0.1630
v  0.1691 0.0120 0.6935
v  0.1419 0.0047 0.7124
v  0.1182 -0.0189 0.7179
v  0.2072 -0.0507 0.7784
v  0.1453 -0.0115 0.6989
v  -0.3356 0.3099 0.2089
v  -0.3725 0.2941 0.2186
v  -0.3727 0.3189 0.1952
v  -0.3819 0.3356 0.1732
v  -0.3870 0.3229 0.1853
v  -0.3821 0.3098 0.1974
v  -0.3714 0.3128 0.1901
v  -0.3805 0.3290 0.1678
v  -0.3307 0.3496 0.1624
v  -0.3156 0.3798 0.1299
v  -0.3226 0.4134 0.0962
v  -0.3860 0.3181 0.1814
v  -0.4007 0.3159 0.1854
v  -0.2721 0.4395 0.0691
v  -0.2994 0.4312 0.0722
v  -0.3337 0.4104 0.0886
v  -0.3898 0.3382 0.1613
# 92 vertices

vn 0.5707 -0.3650 -0.7355
vn 0.0375 -0.9508 -0.3075
vn -0.6367 -0.7690 0.0563
vn -0.4005 0.3078 0.8631
vn 0.3063 -0.5703 0.7622
vn -0.9325 0.0951 -0.3483
vn -0.3495 -0.6246 -0.6984
vn -0.6373 -0.5239 -0.5651
vn 0.3015 0.9529 -0.0347
vn -0.7763 0.5224 0.3527
vn 0.0998 0.8719 0.4794
vn -0.6715 0.1970 0.7143
vn 0.2105 -0.6377 -0.7409
vn 0.3181 0.6448 -0.6950
vn -0.2036 -0.3771 -0.9035
vn -0.9093 -0.3432 -0.2354
vn -0.7911 -0.4803 0.3787
vn -0.6580 0.7160 0.2334
vn -0.1585 0.7590 0.6315
vn 0.8168 0.5557 -0.1550
vn 0.9933 -0.0591 -0.0994
vn 0.2386 -0.9706 -0.0327
vn 0.1585 -0.7590 -0.6316
vn 0.7911 0.4803 -0.3787
vn -0.7004 -0.6957 0.1595
vn -0.8006 -0.2157 0.5590
vn -0.4005 0.5681 0.7189
vn 0.4059 0.4909 0.7709
vn -0.3487 -0.4206 0.8376
vn -0.5908 0.4396 -0.6766
vn 0.5908 -0.4396 0.6766
vn -0.6641 -0.7411 0.0983
vn 0.2106 -0.7255 -0.6553
vn 0.7595 0.0200 -0.6502
vn 0.6798 0.7318 -0.0479
vn -0.1208 0.7809 0.6129
vn -0.2106 0.7255 0.6553
vn -0.7532 -0.5065 0.4197
vn 0.2134 -0.7421 -0.6354
vn 0.9732 0.2280 -0.0298
vn -0.1030 0.7733 0.6256
vn 0.0142 0.7828 0.6221
vn 0.9388 0.3139 -0.1416
vn 0.2745 -0.7170 -0.6407
vn 0.3178 -0.7052 -0.6338
vn 0.9697 0.2401 -0.0451
vn 0.0053 0.7912 0.6115
vn 0.9703 0.2383 -0.0428
vn 0.9708 0.0032 0.2398
vn 0.3264 -0.7120 -0.6217
vn 0.8457 0.4345 -0.3098
vn -0.1290 0.7362 0.6643
vn -0.6952 -0.0639 0.7159
vn 0.1289 -0.8059 -0.5778
vn -0.2592 -0.6492 0.7151
vn -0.0485 -0.8564 -0.5141
vn 0.0939 -0.8446 -0.5272
vn -0.4672 -0.6211 0.6292
vn -0.2195 0.6564 0.7218
vn -0.3051 0.6584 0.6880
vn -0.2534 0.7158 0.6507
vn -0.2475 0.7184 0.6501
vn -0.7616 -0.5011 0.4110
vn -0.3293 0.5689 0.7536
vn 0.0064 -0.8331 -0.5531
vn 0.0618 -0.7936 -0.6054
vn -0.6446 -0.5640 0.5160
vn -0.9193 0.1199 -0.3748
vn -0.5761 -0.3968 -0.7146
vn -0.4876 -0.5950 -0.6389
vn -0.9840 -0.1743 -0.0374
vn -0.7342 0.5856 0.3436
vn -0.6322 0.4788 0.6091
vn -0.0250 -0.8882 -0.4588
vn -0.5642 -0.5945 0.5729
vn -0.0401 0.7893 0.6127
vn 0.9759 0.0231 0.2171
vn -0.4896 0.4950 -0.7178
vn -0.0185 -0.5438 -0.8390
vn -0.2659 0.5832 -0.7676
vn -0.3164 0.8825 0.3479
vn -0.3633 -0.8089 -0.4623
vn -0.9299 -0.3298 0.1629
vn -0.2007 0.6015 -0.7732
vn -0.2429 0.9648 0.1006
vn -0.1064 0.6228 -0.7751
vn 0.0216 -0.3016 -0.9532
vn -0.0697 -0.0911 -0.9934
vn -0.9646 0.0175 -0.2632
vn -0.4592 0.7246 0.5139
vn -0.9352 0.0898 -0.3426
vn -0.1590 -0.7133 -0.6826
vn -0.2378 -0.7092 -0.6637
vn 0.0680 -0.7920 -0.6067
vn -0.2870 0.9494 -0.1276
vn -0.5294 0.6869 0.4980
vn -0.3550 0.6114 0.7072
vn -0.7857 0.6068 0.1205
# 98 vertex normals

vt 0.7254 0.5925 0.0000
vt 0.6602 0.5925 0.0000
vt 0.5950 0.5925 0.0000
vt 0.5950 0.6470 0.0000
vt 0.6711 0.6470 0.0000
vt 0.7254 0.7403 0.0000
vt 0.1169 0.8843 0.0000
vt 0.2255 0.8182 0.0000
vt 0.2255 0.8843 0.0000
vt 0.2255 0.9505 0.0000
vt 0.1169 0.9894 0.0000
vt 0.1169 0.7831 0.0000
vt 0.0191 0.8182 0.0000
vt 0.0191 0.8843 0.0000
vt 0.9210 0.9933 0.0000
vt 0.9862 0.7053 0.0000
vt 0.9210 0.7053 0.0000
vt 0.8558 0.7053 0.0000
vt 0.8558 0.9933 0.0000
vt 0.9862 0.9933 0.0000
vt 0.0191 0.9505 0.0000
vt 0.2581 0.0011 0.0000
vt 0.5516 0.0011 0.0000
vt 0.2581 0.1995 0.0000
vt 0.5516 0.1995 0.0000
vt 0.9971 0.0011 0.0000
vt 0.9971 0.5536 0.0000
vt 0.6711 0.8843 0.0000
vt 0.8232 0.9855 0.0000
vt 0.8232 0.8843 0.0000
vt 0.8232 0.7793 0.0000
vt 0.6711 0.7793 0.0000
vt 0.6711 0.9855 0.0000
vt 0.2581 0.9855 0.0000
vt 0.3234 0.9543 0.0000
vt 0.2581 0.9232 0.0000
vt 0.5733 0.6586 0.0000
vt 0.6820 0.6003 0.0000
vt 0.8015 0.6586 0.0000
vt 0.6820 0.7170 0.0000
vt 0.5516 0.5536 0.0000
vt 0.0191 0.4524 0.0000
vt 0.2255 0.0167 0.0000
vt 0.0191 0.0167 0.0000
vt 0.2255 0.4524 0.0000
vt 0.0191 0.6081 0.0000
vt 0.2255 0.6081 0.0000
vt 0.0191 0.7131 0.0000
vt 0.6494 0.8921 0.0000
vt 0.3559 0.9699 0.0000
vt 0.2690 0.8065 0.0000
vt 0.6494 0.7831 0.0000
vt 0.4972 0.7131 0.0000
vt 0.4972 0.6081 0.0000
vt 0.2690 0.5847 0.0000
vt 0.4864 0.5847 0.0000
vt 0.4864 0.3163 0.0000
vt 0.2690 0.3163 0.0000
vt 0.4864 0.2384 0.0000
vt -0.7742 0.6042 0.0000
vt -0.9915 0.6042 0.0000
vt -0.8829 0.7131 0.0000
vt -0.5025 0.6042 0.0000
vt -0.5786 0.7131 0.0000
vt -0.6981 0.7870 0.0000
vt -0.5786 0.7520 0.0000
vt -0.5025 0.6859 0.0000
vt -0.4699 0.7676 0.0000
vt 1.7360 0.8999 0.0000
vt 1.7795 0.8999 0.0000
vt 1.7795 0.8532 0.0000
vt 1.7360 0.8532 0.0000
vt 1.7795 0.8065 0.0000
vt -0.4047 0.7403 0.0000
vt 0.6494 0.9699 0.0000
vt 1.4970 0.3007 0.0000
vt 1.4426 0.3746 0.0000
vt 1.4426 0.2423 0.0000
vt 1.4970 0.3746 0.0000
vt 1.7360 0.8065 0.0000
vt 1.7795 0.8843 0.0000
vt 1.7360 0.8843 0.0000
vt 1.5948 0.9154 0.0000
vt 1.6382 0.8376 0.0000
vt 1.5948 0.8376 0.0000
vt 1.6382 0.9154 0.0000
# 86 texture coords

o w00_013_00
g w00_013_00
usemtl Material__237
s 1
f 3/2/3 2/2/2 1/1/1 
f 2/2/2 3/2/3 4/2/4 
f 4/2/4 5/3/5 2/2/2 
f 5/3/5 4/2/4 6/4/6 
f 6/4/6 2/2/2 5/3/5 
f 2/2/2 6/4/6 7/5/7 
f 7/5/7 1/1/1 2/2/2 
f 1/1/1 7/5/7 8/6/8 
f 8/6/8 9/6/9 1/1/1 
f 9/6/9 8/6/8 10/5/10 
f 10/5/10 11/1/11 9/6/9 
f 11/1/11 10/5/10 4/2/4 
f 4/2/4 12/2/12 11/1/11 
f 12/2/12 4/2/4 3/2/3 
f 15/9/15 14/8/14 13/7/13 
f 13/7/13 16/10/16 15/9/15 
f 16/10/16 13/7/13 17/11/17 
f 17/11/17 18/9/18 16/10/16 
f 18/9/18 17/11/17 19/7/19 
f 19/7/19 14/8/14 18/9/18 
f 14/8/14 19/7/19 20/12/20 
f 20/12/20 13/7/13 14/8/14 
f 13/7/13 20/12/20 21/13/21 
f 21/13/21 22/14/22 13/7/13 
f 22/17/23 21/16/24 23/15/23 
f 23/15/23 24/18/25 22/17/23 
f 24/18/25 23/15/23 25/19/26 
f 25/19/26 26/17/27 24/18/25 
f 26/17/27 25/19/26 27/15/11 
f 27/15/11 21/16/24 26/17/27 
f 21/16/24 27/15/11 28/20/24 
f 28/20/24 23/15/23 21/16/24 
f 26/14/28 20/12/20 19/7/19 
f 19/7/19 24/21/29 26/14/28 
f 24/21/29 19/7/19 17/11/17 
f 17/11/17 22/14/22 24/21/29 
f 22/14/22 17/11/17 13/7/13 
f 31/24/23 30/23/23 29/22/23 
f 30/23/23 31/24/23 32/25/23 
f 32/25/23 33/26/23 30/23/23 
f 33/26/23 32/25/23 34/27/23 
f 37/26/19 36/27/19 35/25/19 
f 35/25/19 38/23/19 37/26/19 
f 38/23/19 35/25/19 39/24/19 
f 39/24/19 40/22/19 38/23/19 
f 43/30/19 42/29/17 41/28/19 
f 41/28/19 44/31/24 43/30/19 
f 44/31/24 41/28/19 45/32/24 
f 45/32/24 46/28/23 44/31/24 
f 47/33/17 41/28/19 42/29/17 
f 42/29/17 46/28/23 47/33/17 
f 46/28/23 42/29/17 48/30/23 
f 48/30/23 44/31/24 46/28/23 
f 6/4/6 4/2/4 10/5/10 
f 10/5/10 7/5/7 6/4/6 
f 7/5/7 10/5/10 8/6/8 
f 15/36/30 16/35/30 18/34/30 
f 18/34/30 14/35/30 15/36/30 
f 47/39/31 46/38/31 45/37/31 
f 45/37/31 41/40/31 47/39/31 
f 44/37/30 48/38/30 42/39/30 
f 42/39/30 43/40/30 44/37/30 
f 26/14/28 21/13/21 20/12/20 
f 32/25/23 49/41/23 34/27/23 
f 35/25/19 36/27/19 50/41/19 
f 11/1/11 1/1/1 9/6/9 
f 53/44/33 52/43/32 51/42/23 
f 51/42/23 54/43/34 53/44/33 
f 54/43/34 51/42/23 55/45/35 
f 55/45/35 56/44/36 54/43/34 
f 56/44/36 55/45/35 57/42/37 
f 57/42/37 52/43/32 56/44/36 
f 52/43/32 57/42/37 58/45/38 
f 58/45/38 51/42/23 52/43/32 
f 51/42/23 58/45/38 59/46/39 
f 59/46/39 55/45/35 51/42/23 
f 55/45/35 59/46/39 60/47/40 
f 60/47/40 61/46/41 55/45/35 
f 61/46/41 60/47/40 62/48/42 
f 65/51/45 64/50/44 63/49/43 
f 63/49/43 66/52/46 65/51/45 
f 66/52/46 63/49/43 67/51/47 
f 67/51/47 68/53/48 66/52/46 
f 68/53/48 67/51/47 62/48/42 
f 62/48/42 69/54/49 68/53/48 
f 69/54/49 62/48/42 60/47/40 
f 60/47/40 70/48/50 69/54/49 
f 70/48/50 60/47/40 59/46/39 
f 71/57/51 54/56/34 56/55/36 
f 56/55/36 72/58/52 71/57/51 
f 72/58/52 56/55/36 73/57/53 
f 73/57/53 74/59/31 72/58/52 
f 74/59/31 73/57/53 75/58/54 
f 75/58/54 71/57/51 74/59/31 
f 71/57/51 75/58/54 53/55/33 
f 53/55/33 54/56/34 71/57/51 
f 70/62/57 59/61/56 76/60/55 
f 76/60/55 77/63/58 70/62/57 
f 77/63/58 76/60/55 62/62/59 
f 62/62/59 78/64/60 77/63/58 
f 78/64/60 62/62/59 79/65/61 
f 79/65/61 80/66/62 78/64/60 
f 78/64/60 80/68/64 81/67/63 
f 81/67/63 77/63/58 78/64/60 
f 77/63/58 81/67/63 82/64/65 
f 82/64/65 70/62/57 77/63/58 
f 70/62/57 82/64/65 83/65/66 
f 76/47/67 59/46/39 58/45/38 
f 58/45/38 61/46/41 76/47/67 
f 61/46/41 58/45/38 57/42/37 
f 57/42/37 55/45/35 61/46/41 
f 65/71/70 70/70/69 84/69/68 
f 84/69/68 85/72/71 65/71/70 
f 85/72/71 84/69/68 67/71/72 
f 67/71/72 86/73/73 85/72/71 
f 87/68/74 82/64/65 81/67/63 
f 81/67/63 88/74/75 87/68/74 
f 88/74/75 81/67/63 80/68/64 
f 86/50/76 67/51/47 63/49/43 
f 63/49/43 89/75/77 86/50/76 
f 89/75/77 63/49/43 64/50/44 
f 89/78/80 64/77/79 90/76/78 
f 90/76/78 86/77/81 89/78/80 
f 86/77/81 90/76/78 91/79/30 
f 64/73/82 65/71/70 85/72/71 
f 85/72/71 91/80/83 64/73/82 
f 91/80/83 85/72/71 86/73/73 
f 92/82/86 79/81/85 84/72/84 
f 84/72/84 83/81/87 92/82/86 
f 83/81/87 84/72/84 70/71/88 
f 88/85/91 80/84/90 92/83/89 
f 92/83/89 87/84/92 88/85/91 
f 87/84/92 92/83/89 83/86/93 
f 65/51/45 66/52/46 68/53/48 
f 68/53/48 70/48/50 65/51/45 
f 70/48/50 68/53/48 69/54/49 
f 73/57/53 56/55/36 52/56/32 
f 52/56/32 75/58/54 73/57/53 
f 75/58/54 52/56/32 53/55/33 
f 83/65/66 82/64/65 87/66/94 
f 90/76/78 64/77/79 91/79/30 
f 79/81/85 62/71/95 84/72/84 
f 80/84/90 79/86/96 92/83/89 
f 61/61/97 62/62/59 76/60/55 
f 84/69/68 62/70/98 67/71/72 
f 71/57/51 72/58/52 74/59/31 
# 146 faces

