# 3ds Max Wavefront OBJ Exporter v0.97b - (c)2007 guruware
# File Created: 06.08.2019 17:03:11

mtllib Elucidator89f.mtl

#
# object w00_013_00
#

v  -0.2218 0.2367 0.2759
v  -0.1937 0.2542 0.2604
v  -0.2135 0.2592 0.2577
v  -0.1948 0.2405 0.2430
v  -0.1766 0.2958 0.2127
v  -0.1478 0.2884 0.2166
v  -0.1649 0.2468 0.2643
v  -0.1077 0.2074 0.2915
v  -0.1088 0.1938 0.2740
v  -0.1660 0.2332 0.2469
v  -0.2229 0.2230 0.2585
v  -0.2146 0.2456 0.2403
v  -0.4599 0.2852 0.2020
v  -0.4683 0.3209 0.2117
v  -0.4743 0.2956 0.2083
v  -0.4784 0.2931 0.2341
v  -0.4664 0.2813 0.2426
v  -0.4724 0.3184 0.2375
v  -0.4569 0.3212 0.2479
v  -0.4504 0.3251 0.2073
v  -0.4384 0.3133 0.2158
v  -0.4444 0.2879 0.2124
v  -0.2235 0.2314 0.2425
v  -0.4486 0.2855 0.2382
v  -0.2277 0.2289 0.2683
v  -0.4425 0.3108 0.2416
v  -0.2216 0.2542 0.2717
v  -0.2175 0.2567 0.2459
v  -0.1871 0.3021 0.1917
v  -0.2041 0.2556 0.2292
v  -0.1306 0.2877 0.1994
v  -0.1476 0.2411 0.2369
v  -0.2234 0.2029 0.2717
v  -0.0642 0.1622 0.2934
v  -0.1463 0.2573 0.2575
v  -0.0629 0.1783 0.3140
v  -0.2220 0.2190 0.2923
v  -0.2028 0.2718 0.2498
v  -0.1293 0.3038 0.2200
v  -0.1858 0.3183 0.2123
v  -0.2086 0.2569 0.2808
v  -0.2351 0.2231 0.2733
v  -0.2260 0.2613 0.2785
v  -0.2197 0.2650 0.2395
v  -0.2024 0.2606 0.2419
v  -0.2115 0.2224 0.2367
v  -0.2177 0.2186 0.2757
v  -0.2288 0.2268 0.2344
v  -0.0449 0.2149 0.2509
v  -0.0436 0.2310 0.2715
v  -0.0518 0.1924 0.2720
v  0.2741 0.0893 0.3453
v  0.2824 0.1068 0.3175
v  0.2917 0.1375 0.3065
v  -0.0425 0.2231 0.2610
v  0.2835 0.1200 0.3343
v  -0.0508 0.2056 0.2888
v  -0.0601 0.1749 0.2998
v  -0.0965 0.2038 0.2659
v  -0.0764 0.2386 0.2510
v  -0.0954 0.2170 0.2827
v  -0.1207 0.2235 0.2793
v  -0.1449 0.3033 0.2048
v  -0.1803 0.2795 0.2188
v  -0.1381 0.2553 0.2324
v  -0.1206 0.2907 0.2130
v  -0.1374 0.2644 0.2442
v  -0.1009 0.2710 0.2272
v  -0.0752 0.2659 0.2296
v  -0.1218 0.2103 0.2625
v  0.6483 0.0462 0.3551
v  0.6401 0.0287 0.3829
v  0.6307 -0.0020 0.3939
v  0.7428 -0.0043 0.3886
v  0.6390 0.0156 0.3661
v  -0.0986 0.1779 0.2999
v  -0.1177 0.1497 0.3232
v  -0.1376 0.1742 0.3105
v  -0.1616 0.1879 0.3016
v  -0.1554 0.1735 0.3110
v  -0.1413 0.1622 0.3149
v  -0.1380 0.1692 0.3041
v  -0.1620 0.1826 0.2948
v  -0.1317 0.2196 0.2694
v  -0.1463 0.2551 0.2426
v  -0.1797 0.2861 0.2272
v  -0.1557 0.1697 0.3061
v  -0.1642 0.1621 0.3165
v  -0.1628 0.3298 0.1851
v  -0.1801 0.3123 0.2000
v  -0.1920 0.2799 0.2261
v  -0.1752 0.1883 0.2967
# 92 vertices

vn 0.1100 -0.0968 -0.9892
vn 0.0914 -0.8570 -0.5071
vn -0.2675 -0.9450 0.1881
vn 0.1104 0.0950 0.9893
vn 0.8221 -0.4727 0.3172
vn -0.9490 -0.2158 0.2297
vn -0.5172 -0.6634 -0.5407
vn -0.6890 -0.6781 -0.2561
vn -0.0266 0.9983 0.0513
vn -0.5305 0.1954 0.8248
vn 0.1345 0.8207 0.5553
vn -0.1580 -0.0942 0.9829
vn -0.1039 -0.4773 -0.8726
vn -0.3176 0.7565 -0.5717
vn -0.5850 -0.3684 -0.7225
vn -0.7551 -0.6243 0.2001
vn -0.2739 -0.7488 0.6036
vn -0.5565 0.4251 0.7139
vn 0.0504 0.6155 0.7865
vn 0.4040 0.8145 -0.4163
vn 0.7283 0.2981 -0.6170
vn 0.4113 -0.8220 -0.3940
vn -0.0504 -0.6155 -0.7865
vn 0.2739 0.7488 -0.6036
vn -0.2758 -0.9050 0.3239
vn -0.2439 -0.5157 0.8213
vn -0.0388 0.3472 0.9370
vn 0.6366 0.5537 0.5367
vn 0.3196 -0.5663 0.7597
vn -0.9604 0.2458 -0.1308
vn 0.9604 -0.2458 0.1308
vn -0.2715 -0.9311 0.2437
vn -0.0322 -0.5645 -0.8248
vn 0.2086 0.3239 -0.9228
vn 0.3152 0.9248 -0.2132
vn 0.0634 0.6503 0.7570
vn 0.0322 0.5645 0.8248
vn -0.2142 -0.7625 0.6105
vn -0.0143 -0.5803 -0.8143
vn 0.6805 0.5552 -0.4782
vn 0.0864 0.6487 0.7561
vn 0.1730 0.6988 0.6941
vn 0.5675 0.6304 -0.5297
vn 0.0237 -0.5352 -0.8444
vn 0.0584 -0.5094 -0.8585
vn 0.6659 0.5662 -0.4858
vn 0.1578 0.7042 0.6922
vn 0.6681 0.5646 -0.4847
vn 0.8912 0.3277 -0.3136
vn 0.0737 -0.5135 -0.8549
vn 0.3676 0.7208 -0.5877
vn 0.0979 0.6026 0.7920
vn -0.1097 -0.3465 0.9316
vn -0.0305 -0.6731 -0.7389
vn 0.3760 -0.7413 0.5560
vn -0.1186 -0.7861 -0.6066
vn -0.0186 -0.7245 -0.6890
vn 0.1578 -0.7825 0.6023
vn 0.0811 0.4928 0.8664
vn -0.0054 0.4668 0.8843
vn -0.0013 0.5409 0.8411
vn 0.0024 0.5454 0.8382
vn -0.2270 -0.7598 0.6092
vn 0.0364 0.3706 0.9281
vn -0.1045 -0.7428 -0.6613
vn -0.1016 -0.6833 -0.7230
vn -0.0597 -0.7842 0.6176
vn -0.9603 -0.1864 0.2074
vn -0.7599 -0.5286 -0.3782
vn -0.5975 -0.6877 -0.4124
vn -0.7413 -0.5047 0.4425
vn -0.5190 0.2698 0.8111
vn -0.2595 0.1893 0.9470
vn -0.0604 -0.8111 -0.5818
vn 0.0432 -0.7881 0.6140
vn 0.1238 0.6864 0.7166
vn 0.8770 0.3495 -0.3297
vn -0.9198 0.3355 -0.2036
vn -0.3620 -0.4636 -0.8087
vn -0.7972 0.4992 -0.3396
vn -0.2672 0.6932 0.6694
vn -0.3450 -0.8549 -0.3873
vn -0.5443 -0.6433 0.5384
vn -0.7544 0.5395 -0.3738
vn -0.3738 0.8110 0.4501
vn -0.6877 0.5925 -0.4196
vn -0.4580 -0.2161 -0.8623
vn -0.6052 -0.0488 -0.7946
vn -0.9051 -0.3047 0.2965
vn -0.2423 0.4854 0.8400
vn -0.9464 -0.2220 0.2344
vn -0.3378 -0.6807 -0.6500
vn -0.3892 -0.7055 -0.5922
vn -0.0980 -0.6796 -0.7270
vn -0.5361 0.7951 0.2837
vn -0.2964 0.4267 0.8545
vn -0.0211 0.4042 0.9144
vn -0.6932 0.2853 0.6618
# 98 vertex normals

vt 0.7254 0.5925 0.0000
vt 0.6602 0.5925 0.0000
vt 0.5950 0.5925 0.0000
vt 0.5950 0.6470 0.0000
vt 0.6711 0.6470 0.0000
vt 0.7254 0.7403 0.0000
vt 0.1169 0.8843 0.0000
vt 0.2255 0.8182 0.0000
vt 0.2255 0.8843 0.0000
vt 0.2255 0.9505 0.0000
vt 0.1169 0.9894 0.0000
vt 0.1169 0.7831 0.0000
vt 0.0191 0.8182 0.0000
vt 0.0191 0.8843 0.0000
vt 0.9210 0.9933 0.0000
vt 0.9862 0.7053 0.0000
vt 0.9210 0.7053 0.0000
vt 0.8558 0.7053 0.0000
vt 0.8558 0.9933 0.0000
vt 0.9862 0.9933 0.0000
vt 0.0191 0.9505 0.0000
vt 0.2581 0.0011 0.0000
vt 0.5516 0.0011 0.0000
vt 0.2581 0.1995 0.0000
vt 0.5516 0.1995 0.0000
vt 0.9971 0.0011 0.0000
vt 0.9971 0.5536 0.0000
vt 0.6711 0.8843 0.0000
vt 0.8232 0.9855 0.0000
vt 0.8232 0.8843 0.0000
vt 0.8232 0.7793 0.0000
vt 0.6711 0.7793 0.0000
vt 0.6711 0.9855 0.0000
vt 0.2581 0.9855 0.0000
vt 0.3234 0.9543 0.0000
vt 0.2581 0.9232 0.0000
vt 0.5733 0.6586 0.0000
vt 0.6820 0.6003 0.0000
vt 0.8015 0.6586 0.0000
vt 0.6820 0.7170 0.0000
vt 0.5516 0.5536 0.0000
vt 0.0191 0.4524 0.0000
vt 0.2255 0.0167 0.0000
vt 0.0191 0.0167 0.0000
vt 0.2255 0.4524 0.0000
vt 0.0191 0.6081 0.0000
vt 0.2255 0.6081 0.0000
vt 0.0191 0.7131 0.0000
vt 0.6494 0.8921 0.0000
vt 0.3559 0.9699 0.0000
vt 0.2690 0.8065 0.0000
vt 0.6494 0.7831 0.0000
vt 0.4972 0.7131 0.0000
vt 0.4972 0.6081 0.0000
vt 0.2690 0.5847 0.0000
vt 0.4864 0.5847 0.0000
vt 0.4864 0.3163 0.0000
vt 0.2690 0.3163 0.0000
vt 0.4864 0.2384 0.0000
vt -0.7742 0.6042 0.0000
vt -0.9915 0.6042 0.0000
vt -0.8829 0.7131 0.0000
vt -0.5025 0.6042 0.0000
vt -0.5786 0.7131 0.0000
vt -0.6981 0.7870 0.0000
vt -0.5786 0.7520 0.0000
vt -0.5025 0.6859 0.0000
vt -0.4699 0.7676 0.0000
vt 1.7360 0.8999 0.0000
vt 1.7795 0.8999 0.0000
vt 1.7795 0.8532 0.0000
vt 1.7360 0.8532 0.0000
vt 1.7795 0.8065 0.0000
vt -0.4047 0.7403 0.0000
vt 0.6494 0.9699 0.0000
vt 1.4970 0.3007 0.0000
vt 1.4426 0.3746 0.0000
vt 1.4426 0.2423 0.0000
vt 1.4970 0.3746 0.0000
vt 1.7360 0.8065 0.0000
vt 1.7795 0.8843 0.0000
vt 1.7360 0.8843 0.0000
vt 1.5948 0.9154 0.0000
vt 1.6382 0.8376 0.0000
vt 1.5948 0.8376 0.0000
vt 1.6382 0.9154 0.0000
# 86 texture coords

o w00_013_00
g w00_013_00
usemtl Material__237
s 1
f 3/2/3 2/2/2 1/1/1 
f 2/2/2 3/2/3 4/2/4 
f 4/2/4 5/3/5 2/2/2 
f 5/3/5 4/2/4 6/4/6 
f 6/4/6 2/2/2 5/3/5 
f 2/2/2 6/4/6 7/5/7 
f 7/5/7 1/1/1 2/2/2 
f 1/1/1 7/5/7 8/6/8 
f 8/6/8 9/6/9 1/1/1 
f 9/6/9 8/6/8 10/5/10 
f 10/5/10 11/1/11 9/6/9 
f 11/1/11 10/5/10 4/2/4 
f 4/2/4 12/2/12 11/1/11 
f 12/2/12 4/2/4 3/2/3 
f 15/9/15 14/8/14 13/7/13 
f 13/7/13 16/10/16 15/9/15 
f 16/10/16 13/7/13 17/11/17 
f 17/11/17 18/9/18 16/10/16 
f 18/9/18 17/11/17 19/7/19 
f 19/7/19 14/8/14 18/9/18 
f 14/8/14 19/7/19 20/12/20 
f 20/12/20 13/7/13 14/8/14 
f 13/7/13 20/12/20 21/13/21 
f 21/13/21 22/14/22 13/7/13 
f 22/17/23 21/16/24 23/15/23 
f 23/15/23 24/18/25 22/17/23 
f 24/18/25 23/15/23 25/19/26 
f 25/19/26 26/17/27 24/18/25 
f 26/17/27 25/19/26 27/15/11 
f 27/15/11 21/16/24 26/17/27 
f 21/16/24 27/15/11 28/20/24 
f 28/20/24 23/15/23 21/16/24 
f 26/14/28 20/12/20 19/7/19 
f 19/7/19 24/21/29 26/14/28 
f 24/21/29 19/7/19 17/11/17 
f 17/11/17 22/14/22 24/21/29 
f 22/14/22 17/11/17 13/7/13 
f 31/24/23 30/23/23 29/22/23 
f 30/23/23 31/24/23 32/25/23 
f 32/25/23 33/26/23 30/23/23 
f 33/26/23 32/25/23 34/27/23 
f 37/26/19 36/27/19 35/25/19 
f 35/25/19 38/23/19 37/26/19 
f 38/23/19 35/25/19 39/24/19 
f 39/24/19 40/22/19 38/23/19 
f 43/30/19 42/29/17 41/28/19 
f 41/28/19 44/31/24 43/30/19 
f 44/31/24 41/28/19 45/32/24 
f 45/32/24 46/28/23 44/31/24 
f 47/33/17 41/28/19 42/29/17 
f 42/29/17 46/28/23 47/33/17 
f 46/28/23 42/29/17 48/30/23 
f 48/30/23 44/31/24 46/28/23 
f 6/4/6 4/2/4 10/5/10 
f 10/5/10 7/5/7 6/4/6 
f 7/5/7 10/5/10 8/6/8 
f 15/36/30 16/35/30 18/34/30 
f 18/34/30 14/35/30 15/36/30 
f 47/39/31 46/38/31 45/37/31 
f 45/37/31 41/40/31 47/39/31 
f 44/37/30 48/38/30 42/39/30 
f 42/39/30 43/40/30 44/37/30 
f 26/14/28 21/13/21 20/12/20 
f 32/25/23 49/41/23 34/27/23 
f 35/25/19 36/27/19 50/41/19 
f 11/1/11 1/1/1 9/6/9 
f 53/44/33 52/43/32 51/42/23 
f 51/42/23 54/43/34 53/44/33 
f 54/43/34 51/42/23 55/45/35 
f 55/45/35 56/44/36 54/43/34 
f 56/44/36 55/45/35 57/42/37 
f 57/42/37 52/43/32 56/44/36 
f 52/43/32 57/42/37 58/45/38 
f 58/45/38 51/42/23 52/43/32 
f 51/42/23 58/45/38 59/46/39 
f 59/46/39 55/45/35 51/42/23 
f 55/45/35 59/46/39 60/47/40 
f 60/47/40 61/46/41 55/45/35 
f 61/46/41 60/47/40 62/48/42 
f 65/51/45 64/50/44 63/49/43 
f 63/49/43 66/52/46 65/51/45 
f 66/52/46 63/49/43 67/51/47 
f 67/51/47 68/53/48 66/52/46 
f 68/53/48 67/51/47 62/48/42 
f 62/48/42 69/54/49 68/53/48 
f 69/54/49 62/48/42 60/47/40 
f 60/47/40 70/48/50 69/54/49 
f 70/48/50 60/47/40 59/46/39 
f 71/57/51 54/56/34 56/55/36 
f 56/55/36 72/58/52 71/57/51 
f 72/58/52 56/55/36 73/57/53 
f 73/57/53 74/59/31 72/58/52 
f 74/59/31 73/57/53 75/58/54 
f 75/58/54 71/57/51 74/59/31 
f 71/57/51 75/58/54 53/55/33 
f 53/55/33 54/56/34 71/57/51 
f 70/62/57 59/61/56 76/60/55 
f 76/60/55 77/63/58 70/62/57 
f 77/63/58 76/60/55 62/62/59 
f 62/62/59 78/64/60 77/63/58 
f 78/64/60 62/62/59 79/65/61 
f 79/65/61 80/66/62 78/64/60 
f 78/64/60 80/68/64 81/67/63 
f 81/67/63 77/63/58 78/64/60 
f 77/63/58 81/67/63 82/64/65 
f 82/64/65 70/62/57 77/63/58 
f 70/62/57 82/64/65 83/65/66 
f 76/47/67 59/46/39 58/45/38 
f 58/45/38 61/46/41 76/47/67 
f 61/46/41 58/45/38 57/42/37 
f 57/42/37 55/45/35 61/46/41 
f 65/71/70 70/70/69 84/69/68 
f 84/69/68 85/72/71 65/71/70 
f 85/72/71 84/69/68 67/71/72 
f 67/71/72 86/73/73 85/72/71 
f 87/68/74 82/64/65 81/67/63 
f 81/67/63 88/74/75 87/68/74 
f 88/74/75 81/67/63 80/68/64 
f 86/50/76 67/51/47 63/49/43 
f 63/49/43 89/75/77 86/50/76 
f 89/75/77 63/49/43 64/50/44 
f 89/78/80 64/77/79 90/76/78 
f 90/76/78 86/77/81 89/78/80 
f 86/77/81 90/76/78 91/79/30 
f 64/73/82 65/71/70 85/72/71 
f 85/72/71 91/80/83 64/73/82 
f 91/80/83 85/72/71 86/73/73 
f 92/82/86 79/81/85 84/72/84 
f 84/72/84 83/81/87 92/82/86 
f 83/81/87 84/72/84 70/71/88 
f 88/85/91 80/84/90 92/83/89 
f 92/83/89 87/84/92 88/85/91 
f 87/84/92 92/83/89 83/86/93 
f 65/51/45 66/52/46 68/53/48 
f 68/53/48 70/48/50 65/51/45 
f 70/48/50 68/53/48 69/54/49 
f 73/57/53 56/55/36 52/56/32 
f 52/56/32 75/58/54 73/57/53 
f 75/58/54 52/56/32 53/55/33 
f 83/65/66 82/64/65 87/66/94 
f 90/76/78 64/77/79 91/79/30 
f 79/81/85 62/71/95 84/72/84 
f 80/84/90 79/86/96 92/83/89 
f 61/61/97 62/62/59 76/60/55 
f 84/69/68 62/70/98 67/71/72 
f 71/57/51 72/58/52 74/59/31 
# 146 faces

