# 3ds Max Wavefront OBJ Exporter v0.97b - (c)2007 guruware
# File Created: 06.08.2019 14:56:40

mtllib Sword60f.mtl

#
# object sword1_LOD003
#

v  -0.6705 0.6034 0.5340
v  -0.6667 0.6726 0.5315
v  -0.6990 0.7407 0.6497
v  -0.7056 0.7006 0.6724
v  -0.7491 0.6919 0.6686
v  -0.7267 0.5923 0.5309
v  -0.7556 0.7503 0.7398
v  -0.7546 0.7200 0.7510
v  -0.4937 0.8310 0.4559
v  -0.4630 0.7920 0.4443
v  -0.4330 0.8015 0.4435
v  -0.4769 0.8573 0.4601
v  -0.3987 0.8329 0.4285
v  -0.4426 0.8887 0.4451
v  -0.7801 0.7183 0.7405
v  -0.7440 0.7294 0.6452
v  -0.7189 0.6398 0.4998
v  -0.7853 0.7431 0.7293
v  -0.5047 0.8555 0.3927
v  -0.5131 0.8298 0.4088
v  -0.4704 0.8869 0.3777
v  -0.7126 0.6385 0.5019
v  -1.2597 0.1320 0.7448
v  -1.2542 0.1600 0.8158
v  -0.7065 0.6731 0.5883
v  -1.3970 -0.0218 0.8241
v  -0.6727 0.6084 0.5301
v  -1.2261 0.1068 0.7685
v  -0.6520 0.5078 0.3914
v  -0.6958 0.5005 0.3895
v  -0.6444 0.5447 0.3640
v  -0.6752 0.4350 0.3356
v  -0.6737 0.4564 0.3114
v  -0.6429 0.6324 0.5194
v  -0.6554 0.6323 0.4728
v  -0.4824 0.7908 0.3972
v  -0.4608 0.7997 0.3761
v  -0.4265 0.8311 0.3611
v  -0.7025 0.4395 0.3341
v  -0.6903 0.5367 0.3643
v  -0.7059 0.4581 0.3139
v  -0.6788 0.5739 0.4437
v  -1.2316 0.0788 0.6975
v  -0.6870 0.6657 0.4881
# 44 vertices

vn 0.6090 -0.5938 0.5258
vn 0.2807 0.8232 0.4935
vn 0.6207 0.7831 -0.0380
vn 0.7201 -0.4298 0.5446
vn -0.6527 -0.7469 0.1269
vn -0.7018 -0.6429 0.3070
vn 0.1940 0.7961 0.5732
vn 0.2447 -0.3152 0.9169
vn -0.3526 0.3458 0.8695
vn 0.4588 -0.6881 0.5621
vn 0.5150 -0.6576 0.5498
vn -0.3129 0.3959 0.8633
vn 0.9728 -0.0565 0.2248
vn 0.2781 0.8274 0.4879
vn -0.7165 -0.4495 0.5335
vn -0.6640 0.6116 -0.4302
vn -0.7724 0.4439 -0.4542
vn -0.8489 0.5089 0.1426
vn -0.8380 0.3618 -0.4085
vn -0.8684 0.3154 -0.3826
vn -0.1624 0.7988 -0.5792
vn -0.6998 0.5196 -0.4902
vn -0.7341 0.4863 -0.4739
vn -0.2622 0.4528 0.8522
vn -0.1701 0.5455 0.8207
vn -0.7018 -0.6429 0.3069
vn 0.6905 -0.5281 0.4943
vn 0.6540 -0.5596 0.5089
vn 0.7471 -0.5355 0.3938
vn -0.7188 -0.5095 0.4730
vn 0.7137 0.4392 -0.5457
vn 0.4105 -0.9105 0.0492
vn 0.4685 -0.1892 -0.8630
vn 0.7200 -0.4988 0.4824
vn 0.5275 -0.0922 -0.8445
vn -0.0531 -0.7206 -0.6913
vn -0.0098 -0.6919 -0.7219
vn 0.5324 -0.0853 -0.8422
vn -0.6247 -0.7791 0.0531
vn -0.6333 0.5094 -0.5826
vn -0.6831 -0.0864 -0.7252
vn 0.1412 -0.5719 -0.8081
vn 0.0453 -0.6515 -0.7573
vn -0.6741 0.5424 -0.5014
# 44 vertex normals

vt 0.4245 0.8426 0.0000
vt 0.4742 0.8079 0.0000
vt 0.6667 0.8270 0.0000
vt 0.6627 0.8536 0.0000
vt 0.6611 0.9149 0.0000
vt 0.4241 0.9218 0.0000
vt 0.7883 0.8831 0.0000
vt 0.7769 0.9013 0.0000
vt 0.3746 0.6193 0.0000
vt 0.4245 0.5915 0.0000
vt 0.4245 0.5481 0.0000
vt 0.3532 0.5879 0.0000
vt 0.4245 0.4919 0.0000
vt 0.3532 0.5317 0.0000
vt 0.7693 0.9458 0.0000
vt 0.0397 0.2775 0.0000
vt 0.6354 0.2775 0.0000
vt 0.6486 0.3847 0.0000
vt 0.0429 0.4122 0.0000
vt 0.8744 0.2775 0.0000
vt 0.4245 0.7887 0.0000
vt 0.4744 0.6193 0.0000
vt 0.4958 0.5879 0.0000
vt 0.4958 0.5317 0.0000
vt 0.0429 0.1428 0.0000
vt 0.6486 0.1704 0.0000
vt 0.3749 0.8079 0.0000
vt 0.7277 0.0334 0.0000
vt 0.7907 0.1010 0.0000
vt 0.7277 0.1487 0.0000
vt 0.6647 0.1010 0.0000
vt 0.8997 0.1898 0.0000
vt 0.8318 0.1317 0.0000
vt 0.8899 0.0638 0.0000
vt 0.9578 0.1219 0.0000
# 35 texture coords

o sword1_LOD003
g sword1_LOD003
usemtl Material__232
s 1
f 1/1/1 2/2/2 3/3/3 
f 3/3/3 4/4/4 1/1/1 
f 4/4/4 5/5/5 6/6/6 
f 6/6/6 1/1/1 4/4/4 
f 3/3/3 7/7/7 8/8/8 
f 8/8/8 4/4/4 3/3/3 
f 9/9/9 10/10/10 11/11/11 
f 11/11/11 12/12/12 9/9/9 
f 12/12/12 11/11/11 13/13/13 
f 13/13/13 14/14/14 12/12/12 
f 5/5/5 4/4/4 8/8/8 
f 8/8/8 15/15/15 5/5/5 
f 16/4/16 17/1/17 6/6/6 
f 6/6/6 5/5/5 16/4/16 
f 3/3/3 16/4/16 18/8/18 
f 18/8/18 7/7/7 3/3/3 
f 9/9/9 12/12/12 19/11/19 
f 19/11/19 20/10/20 9/9/9 
f 12/12/12 14/14/14 21/13/21 
f 21/13/21 19/11/19 12/12/12 
f 5/5/5 15/15/15 18/8/18 
f 18/8/18 16/4/16 5/5/5 
f 22/16/22 23/17/23 24/18/24 
f 24/18/24 25/19/25 22/16/22 
f 23/17/23 26/20/26 24/18/24 
f 27/16/27 25/19/25 24/18/24 
f 24/18/24 28/17/28 27/16/27 
f 28/17/28 24/18/24 26/20/26 
f 29/4/29 1/1/1 6/6/6 
f 6/6/6 30/5/30 29/4/29 
f 31/3/31 29/4/29 32/8/32 
f 32/8/32 33/7/33 31/3/31 
f 10/10/10 34/21/34 35/2/35 
f 35/2/35 36/22/36 10/10/10 
f 36/22/36 37/23/37 11/11/11 
f 11/11/11 10/10/10 36/22/36 
f 37/23/37 38/24/38 13/13/13 
f 13/13/13 11/11/11 37/23/37 
f 30/5/30 39/15/39 32/8/32 
f 32/8/32 29/4/29 30/5/30 
f 17/1/17 35/2/35 31/3/31 
f 31/3/31 40/4/40 17/1/17 
f 40/4/40 30/5/30 6/6/6 
f 6/6/6 17/1/17 40/4/40 
f 31/3/31 33/7/33 41/8/41 
f 41/8/41 40/4/40 31/3/31 
f 20/10/20 19/11/19 37/23/37 
f 37/23/37 36/22/36 20/10/20 
f 19/11/19 21/13/21 38/24/38 
f 38/24/38 37/23/37 19/11/19 
f 30/5/30 40/4/40 41/8/41 
f 41/8/41 39/15/39 30/5/30 
f 22/16/22 42/25/42 43/26/43 
f 43/26/43 23/17/23 22/16/22 
f 23/17/23 43/26/43 26/20/26 
f 27/16/27 28/17/28 43/26/43 
f 43/26/43 42/25/42 27/16/27 
f 28/17/28 26/20/26 43/26/43 
f 9/9/9 2/27/2 34/21/34 
f 34/21/34 10/10/10 9/9/9 
f 29/4/29 31/3/31 35/2/35 
f 35/2/35 1/1/1 29/4/29 
f 7/28/7 18/29/18 15/30/15 
f 15/30/15 8/31/8 7/28/7 
f 39/30/39 41/29/41 33/28/33 
f 33/28/33 32/31/32 39/30/39 
f 2/27/2 1/1/1 34/21/34 
f 34/21/34 1/1/1 35/2/35 
f 20/10/20 44/21/44 2/27/2 
f 2/27/2 9/9/9 20/10/20 
f 2/2/2 17/1/17 16/4/16 
f 16/4/16 3/3/3 2/2/2 
f 20/10/20 36/22/36 35/2/35 
f 35/2/35 44/21/44 20/10/20 
f 44/21/44 17/1/17 2/27/2 
f 35/2/35 17/1/17 44/21/44 
f 38/32/38 21/33/21 14/34/14 
f 14/34/14 13/35/13 38/32/38 
# 78 faces

