# 3ds Max Wavefront OBJ Exporter v0.97b - (c)2007 guruware
# File Created: 06.08.2019 14:56:17

mtllib Sword1f.mtl

#
# object sword1_LOD003
#

v  0.1010 0.5763 0.5784
v  0.0389 0.6026 0.5620
v  -0.0471 0.6294 0.6693
v  -0.0149 0.6160 0.7001
v  -0.0230 0.5730 0.7077
v  0.0902 0.5212 0.5899
v  -0.0859 0.6067 0.7663
v  -0.0587 0.6003 0.7825
v  -0.0344 0.7913 0.4213
v  0.0142 0.8024 0.4108
v  0.0169 0.8323 0.4016
v  -0.0526 0.8165 0.4167
v  0.0024 0.8697 0.3737
v  -0.0672 0.8539 0.3888
v  -0.0658 0.5739 0.7784
v  -0.0534 0.5839 0.6772
v  0.0523 0.5358 0.5494
v  -0.0895 0.5746 0.7642
v  -0.0551 0.7724 0.3587
v  -0.0361 0.7604 0.3808
v  -0.0697 0.8098 0.3308
v  0.0557 0.5416 0.5503
v  0.2922 -0.0558 0.9998
v  0.2618 -0.0218 1.0612
v  0.0181 0.5827 0.6251
v  0.3744 -0.2098 1.1351
v  0.0959 0.5750 0.5742
v  0.3259 -0.0277 1.0198
v  0.2094 0.5210 0.4559
v  0.1998 0.4786 0.4652
v  0.1809 0.5328 0.4210
v  0.2729 0.4599 0.4214
v  0.2561 0.4619 0.3939
v  0.0861 0.6070 0.5527
v  0.0858 0.5828 0.5110
v  0.0125 0.7715 0.3703
v  0.0144 0.7882 0.3437
v  -0.0001 0.8256 0.3158
v  0.2586 0.4365 0.4252
v  0.1709 0.4890 0.4330
v  0.2421 0.4342 0.4031
v  0.1335 0.5338 0.4994
v  0.3563 -0.0618 0.9584
v  0.0417 0.5701 0.5263
# 44 vertices

vn 0.7277 0.4898 0.4802
vn -0.6984 0.6691 0.2542
vn -0.4827 0.8144 -0.3220
vn 0.6170 0.6508 0.4426
vn 0.4288 -0.8063 0.4074
vn 0.2975 -0.7653 0.5708
vn -0.7137 0.6039 0.3548
vn 0.2964 0.3653 0.8825
vn -0.5338 0.0409 0.8446
vn 0.7542 0.3327 0.5661
vn 0.7486 0.3902 0.5360
vn -0.5644 0.0918 0.8204
vn 0.3989 0.9169 0.0100
vn -0.7027 0.6666 0.2486
vn 0.0925 -0.6501 0.7542
vn -0.7738 -0.5068 -0.3799
vn -0.6582 -0.6680 -0.3471
vn -0.8033 -0.5501 0.2284
vn -0.6117 -0.7423 -0.2734
vn -0.5830 -0.7784 -0.2330
vn -0.7424 -0.0333 -0.6691
vn -0.6970 -0.5869 -0.4120
vn -0.6809 -0.6245 -0.3825
vn -0.5965 0.1538 0.7877
vn -0.6440 0.2595 0.7196
vn 0.7010 0.5768 0.4195
vn 0.7148 0.5373 0.4476
vn 0.7386 0.5974 0.3123
vn 0.1526 -0.6893 0.7082
vn -0.0830 0.6407 -0.7633
vn 0.9891 0.0720 0.1282
vn 0.4329 0.1185 -0.8936
vn 0.6863 0.6100 0.3961
vn 0.3641 0.2098 -0.9074
vn 0.7086 -0.4841 -0.5133
vn 0.7015 -0.4438 -0.5576
vn 0.3594 0.2172 -0.9076
vn 0.4760 -0.8124 0.3366
vn -0.6538 -0.5561 -0.5132
vn -0.1105 -0.8434 -0.5259
vn 0.6563 -0.2910 -0.6961
vn 0.6884 -0.3903 -0.6113
vn -0.7072 -0.5591 -0.4327
# 43 vertex normals

vt 0.4245 0.8426 0.0000
vt 0.4742 0.8079 0.0000
vt 0.6667 0.8270 0.0000
vt 0.6627 0.8536 0.0000
vt 0.6611 0.9149 0.0000
vt 0.4241 0.9218 0.0000
vt 0.7883 0.8831 0.0000
vt 0.7769 0.9013 0.0000
vt 0.3746 0.6193 0.0000
vt 0.4245 0.5915 0.0000
vt 0.4245 0.5481 0.0000
vt 0.3532 0.5879 0.0000
vt 0.4245 0.4919 0.0000
vt 0.3532 0.5317 0.0000
vt 0.7693 0.9458 0.0000
vt 0.0397 0.2775 0.0000
vt 0.6354 0.2775 0.0000
vt 0.6486 0.3847 0.0000
vt 0.0429 0.4122 0.0000
vt 0.8744 0.2775 0.0000
vt 0.4245 0.7887 0.0000
vt 0.4744 0.6193 0.0000
vt 0.4958 0.5879 0.0000
vt 0.4958 0.5317 0.0000
vt 0.0429 0.1428 0.0000
vt 0.6486 0.1704 0.0000
vt 0.3749 0.8079 0.0000
vt 0.7277 0.0334 0.0000
vt 0.7907 0.1010 0.0000
vt 0.7277 0.1487 0.0000
vt 0.6647 0.1010 0.0000
vt 0.8997 0.1898 0.0000
vt 0.8318 0.1317 0.0000
vt 0.8899 0.0638 0.0000
vt 0.9578 0.1219 0.0000
# 35 texture coords

o sword1_LOD003
g sword1_LOD003
usemtl Material__232
s 1
f 1/1/1 2/2/2 3/3/3 
f 3/3/3 4/4/4 1/1/1 
f 4/4/4 5/5/5 6/6/6 
f 6/6/6 1/1/1 4/4/4 
f 3/3/3 7/7/7 8/8/8 
f 8/8/8 4/4/4 3/3/3 
f 9/9/9 10/10/10 11/11/11 
f 11/11/11 12/12/12 9/9/9 
f 12/12/12 11/11/11 13/13/13 
f 13/13/13 14/14/14 12/12/12 
f 5/5/5 4/4/4 8/8/8 
f 8/8/8 15/15/15 5/5/5 
f 16/4/16 17/1/17 6/6/6 
f 6/6/6 5/5/5 16/4/16 
f 3/3/3 16/4/16 18/8/18 
f 18/8/18 7/7/7 3/3/3 
f 9/9/9 12/12/12 19/11/19 
f 19/11/19 20/10/20 9/9/9 
f 12/12/12 14/14/14 21/13/21 
f 21/13/21 19/11/19 12/12/12 
f 5/5/5 15/15/15 18/8/18 
f 18/8/18 16/4/16 5/5/5 
f 22/16/22 23/17/23 24/18/24 
f 24/18/24 25/19/25 22/16/22 
f 23/17/23 26/20/6 24/18/24 
f 27/16/26 25/19/25 24/18/24 
f 24/18/24 28/17/27 27/16/26 
f 28/17/27 24/18/24 26/20/6 
f 29/4/28 1/1/1 6/6/6 
f 6/6/6 30/5/29 29/4/28 
f 31/3/30 29/4/28 32/8/31 
f 32/8/31 33/7/32 31/3/30 
f 10/10/10 34/21/33 35/2/34 
f 35/2/34 36/22/35 10/10/10 
f 36/22/35 37/23/36 11/11/11 
f 11/11/11 10/10/10 36/22/35 
f 37/23/36 38/24/37 13/13/13 
f 13/13/13 11/11/11 37/23/36 
f 30/5/29 39/15/38 32/8/31 
f 32/8/31 29/4/28 30/5/29 
f 17/1/17 35/2/34 31/3/30 
f 31/3/30 40/4/39 17/1/17 
f 40/4/39 30/5/29 6/6/6 
f 6/6/6 17/1/17 40/4/39 
f 31/3/30 33/7/32 41/8/40 
f 41/8/40 40/4/39 31/3/30 
f 20/10/20 19/11/19 37/23/36 
f 37/23/36 36/22/35 20/10/20 
f 19/11/19 21/13/21 38/24/37 
f 38/24/37 37/23/36 19/11/19 
f 30/5/29 40/4/39 41/8/40 
f 41/8/40 39/15/38 30/5/29 
f 22/16/22 42/25/41 43/26/42 
f 43/26/42 23/17/23 22/16/22 
f 23/17/23 43/26/42 26/20/6 
f 27/16/26 28/17/27 43/26/42 
f 43/26/42 42/25/41 27/16/26 
f 28/17/27 26/20/6 43/26/42 
f 9/9/9 2/27/2 34/21/33 
f 34/21/33 10/10/10 9/9/9 
f 29/4/28 31/3/30 35/2/34 
f 35/2/34 1/1/1 29/4/28 
f 7/28/7 18/29/18 15/30/15 
f 15/30/15 8/31/8 7/28/7 
f 39/30/38 41/29/40 33/28/32 
f 33/28/32 32/31/31 39/30/38 
f 2/27/2 1/1/1 34/21/33 
f 34/21/33 1/1/1 35/2/34 
f 20/10/20 44/21/43 2/27/2 
f 2/27/2 9/9/9 20/10/20 
f 2/2/2 17/1/17 16/4/16 
f 16/4/16 3/3/3 2/2/2 
f 20/10/20 36/22/35 35/2/34 
f 35/2/34 44/21/43 20/10/20 
f 44/21/43 17/1/17 2/27/2 
f 35/2/34 17/1/17 44/21/43 
f 38/32/37 21/33/21 14/34/14 
f 14/34/14 13/35/13 38/32/37 
# 78 faces

