# 3ds Max Wavefront OBJ Exporter v0.97b - (c)2007 guruware
# File Created: 06.08.2019 14:56:22

mtllib Sword13f.mtl

#
# object sword1_LOD003
#

v  -0.6144 0.8421 0.3321
v  -0.5781 0.8689 0.3847
v  -0.6526 0.9180 0.4928
v  -0.6925 0.9047 0.4728
v  -0.7068 0.9403 0.4502
v  -0.6343 0.8879 0.3040
v  -0.7395 0.9657 0.5327
v  -0.7629 0.9508 0.5162
v  -0.3871 0.7887 0.5183
v  -0.3868 0.7452 0.4918
v  -0.3725 0.7224 0.5082
v  -0.3728 0.7847 0.5461
v  -0.3346 0.7065 0.5347
v  -0.3350 0.7688 0.5726
v  -0.7629 0.9738 0.5008
v  -0.6681 0.9538 0.4673
v  -0.5836 0.9041 0.3252
v  -0.7434 0.9900 0.5118
v  -0.3268 0.8142 0.4980
v  -0.3549 0.8094 0.4847
v  -0.2889 0.7983 0.5245
v  -0.5840 0.8977 0.3274
v  -1.1936 1.1487 -0.0971
v  -1.2370 1.1503 -0.0342
v  -0.6367 0.9003 0.4043
v  -1.3744 1.1987 -0.2138
v  -0.6095 0.8465 0.3331
v  -1.2149 1.1058 -0.0924
v  -0.5371 0.7953 0.1850
v  -0.5524 0.8316 0.1643
v  -0.4946 0.8068 0.2001
v  -0.5331 0.7891 0.0906
v  -0.5025 0.7989 0.0939
v  -0.5800 0.8311 0.3549
v  -0.5456 0.8460 0.3246
v  -0.3546 0.7658 0.4582
v  -0.3264 0.7520 0.4601
v  -0.2886 0.7361 0.4866
v  -0.5381 0.8156 0.0845
v  -0.5127 0.8444 0.1795
v  -0.5136 0.8283 0.0862
v  -0.5568 0.8440 0.2562
v  -1.1715 1.1042 -0.1553
v  -0.5519 0.8876 0.3486
# 44 vertices

vn -0.5309 -0.8466 0.0371
vn 0.0736 0.0664 0.9951
vn 0.5957 -0.2133 0.7743
vn -0.4339 -0.8765 0.2082
vn -0.6614 0.2506 -0.7069
vn -0.7748 0.3254 -0.5420
vn -0.0315 0.1260 0.9915
vn -0.8308 -0.4301 0.3531
vn -0.6580 0.3968 0.6400
vn -0.6518 -0.7558 -0.0624
vn -0.6099 -0.7920 -0.0282
vn -0.6168 0.3835 0.6874
vn 0.0852 -0.9152 0.3940
vn 0.0794 0.0711 0.9943
vn -0.8732 0.4044 -0.2719
vn 0.4438 0.8960 0.0127
vn 0.3503 0.9223 -0.1633
vn -0.1332 0.9713 0.1972
vn 0.2533 0.9417 -0.2213
vn 0.2005 0.9468 -0.2518
vn 0.8095 0.5394 0.2319
vn 0.4383 0.8929 -0.1027
vn 0.3985 0.9079 -0.1298
vn -0.5649 0.3636 0.7407
vn -0.4665 0.3238 0.8232
vn -0.4486 -0.8886 0.0955
vn -0.4869 -0.8708 0.0680
vn -0.3521 -0.9345 0.0515
vn -0.8528 0.3853 -0.3524
vn 0.8775 -0.4054 0.2563
vn -0.3508 -0.7680 -0.5359
vn 0.7630 -0.4332 -0.4798
vn -0.4158 -0.9014 0.1206
vn 0.8123 -0.4454 -0.3766
vn 0.2079 -0.2101 -0.9553
vn 0.2601 -0.2341 -0.9368
vn 0.8151 -0.4470 -0.3684
vn -0.6075 0.2174 -0.7640
vn 0.5298 0.8363 -0.1412
vn 0.3468 0.6334 -0.6918
vn 0.4345 -0.3104 -0.8455
vn 0.3255 -0.2630 -0.9082
vn 0.4662 0.8807 -0.0834
# 43 vertex normals

vt 0.4245 0.8426 0.0000
vt 0.4742 0.8079 0.0000
vt 0.6667 0.8270 0.0000
vt 0.6627 0.8536 0.0000
vt 0.6611 0.9149 0.0000
vt 0.4241 0.9218 0.0000
vt 0.7883 0.8831 0.0000
vt 0.7769 0.9013 0.0000
vt 0.3746 0.6193 0.0000
vt 0.4245 0.5915 0.0000
vt 0.4245 0.5481 0.0000
vt 0.3532 0.5879 0.0000
vt 0.4245 0.4919 0.0000
vt 0.3532 0.5317 0.0000
vt 0.7693 0.9458 0.0000
vt 0.0397 0.2775 0.0000
vt 0.6354 0.2775 0.0000
vt 0.6486 0.3847 0.0000
vt 0.0429 0.4122 0.0000
vt 0.8744 0.2775 0.0000
vt 0.4245 0.7887 0.0000
vt 0.4744 0.6193 0.0000
vt 0.4958 0.5879 0.0000
vt 0.4958 0.5317 0.0000
vt 0.0429 0.1428 0.0000
vt 0.6486 0.1704 0.0000
vt 0.3749 0.8079 0.0000
vt 0.7277 0.0334 0.0000
vt 0.7907 0.1010 0.0000
vt 0.7277 0.1487 0.0000
vt 0.6647 0.1010 0.0000
vt 0.8997 0.1898 0.0000
vt 0.8318 0.1317 0.0000
vt 0.8899 0.0638 0.0000
vt 0.9578 0.1219 0.0000
# 35 texture coords

o sword1_LOD003
g sword1_LOD003
usemtl Material__232
s 1
f 1/1/1 2/2/2 3/3/3 
f 3/3/3 4/4/4 1/1/1 
f 4/4/4 5/5/5 6/6/6 
f 6/6/6 1/1/1 4/4/4 
f 3/3/3 7/7/7 8/8/8 
f 8/8/8 4/4/4 3/3/3 
f 9/9/9 10/10/10 11/11/11 
f 11/11/11 12/12/12 9/9/9 
f 12/12/12 11/11/11 13/13/13 
f 13/13/13 14/14/14 12/12/12 
f 5/5/5 4/4/4 8/8/8 
f 8/8/8 15/15/15 5/5/5 
f 16/4/16 17/1/17 6/6/6 
f 6/6/6 5/5/5 16/4/16 
f 3/3/3 16/4/16 18/8/18 
f 18/8/18 7/7/7 3/3/3 
f 9/9/9 12/12/12 19/11/19 
f 19/11/19 20/10/20 9/9/9 
f 12/12/12 14/14/14 21/13/21 
f 21/13/21 19/11/19 12/12/12 
f 5/5/5 15/15/15 18/8/18 
f 18/8/18 16/4/16 5/5/5 
f 22/16/22 23/17/23 24/18/24 
f 24/18/24 25/19/25 22/16/22 
f 23/17/23 26/20/6 24/18/24 
f 27/16/26 25/19/25 24/18/24 
f 24/18/24 28/17/27 27/16/26 
f 28/17/27 24/18/24 26/20/6 
f 29/4/28 1/1/1 6/6/6 
f 6/6/6 30/5/29 29/4/28 
f 31/3/30 29/4/28 32/8/31 
f 32/8/31 33/7/32 31/3/30 
f 10/10/10 34/21/33 35/2/34 
f 35/2/34 36/22/35 10/10/10 
f 36/22/35 37/23/36 11/11/11 
f 11/11/11 10/10/10 36/22/35 
f 37/23/36 38/24/37 13/13/13 
f 13/13/13 11/11/11 37/23/36 
f 30/5/29 39/15/38 32/8/31 
f 32/8/31 29/4/28 30/5/29 
f 17/1/17 35/2/34 31/3/30 
f 31/3/30 40/4/39 17/1/17 
f 40/4/39 30/5/29 6/6/6 
f 6/6/6 17/1/17 40/4/39 
f 31/3/30 33/7/32 41/8/40 
f 41/8/40 40/4/39 31/3/30 
f 20/10/20 19/11/19 37/23/36 
f 37/23/36 36/22/35 20/10/20 
f 19/11/19 21/13/21 38/24/37 
f 38/24/37 37/23/36 19/11/19 
f 30/5/29 40/4/39 41/8/40 
f 41/8/40 39/15/38 30/5/29 
f 22/16/22 42/25/41 43/26/42 
f 43/26/42 23/17/23 22/16/22 
f 23/17/23 43/26/42 26/20/6 
f 27/16/26 28/17/27 43/26/42 
f 43/26/42 42/25/41 27/16/26 
f 28/17/27 26/20/6 43/26/42 
f 9/9/9 2/27/2 34/21/33 
f 34/21/33 10/10/10 9/9/9 
f 29/4/28 31/3/30 35/2/34 
f 35/2/34 1/1/1 29/4/28 
f 7/28/7 18/29/18 15/30/15 
f 15/30/15 8/31/8 7/28/7 
f 39/30/38 41/29/40 33/28/32 
f 33/28/32 32/31/31 39/30/38 
f 2/27/2 1/1/1 34/21/33 
f 34/21/33 1/1/1 35/2/34 
f 20/10/20 44/21/43 2/27/2 
f 2/27/2 9/9/9 20/10/20 
f 2/2/2 17/1/17 16/4/16 
f 16/4/16 3/3/3 2/2/2 
f 20/10/20 36/22/35 35/2/34 
f 35/2/34 44/21/43 20/10/20 
f 44/21/43 17/1/17 2/27/2 
f 35/2/34 17/1/17 44/21/43 
f 38/32/37 21/33/21 14/34/14 
f 14/34/14 13/35/13 38/32/37 
# 78 faces

