# 3ds Max Wavefront OBJ Exporter v0.97b - (c)2007 guruware
# File Created: 06.08.2019 14:56:47

mtllib Sword78f.mtl

#
# object sword1_LOD003
#

v  -0.0622 0.2602 0.7115
v  -0.0362 0.2742 0.6488
v  0.0896 0.2195 0.6201
v  0.0910 0.1981 0.6614
v  0.1123 0.2262 0.6885
v  -0.0334 0.2952 0.7467
v  0.1874 0.1888 0.6500
v  0.1809 0.1734 0.6777
v  -0.1257 0.2568 0.4197
v  -0.1694 0.2383 0.4382
v  -0.1848 0.2222 0.4159
v  -0.1222 0.2487 0.3895
v  -0.2025 0.2188 0.3705
v  -0.1400 0.2453 0.3441
v  0.1896 0.1968 0.6895
v  0.1103 0.2485 0.6501
v  -0.0378 0.3238 0.6972
v  0.1963 0.2137 0.6686
v  -0.1487 0.3164 0.3947
v  -0.1442 0.3042 0.4233
v  -0.1664 0.3130 0.3493
v  -0.0410 0.3180 0.6957
v  0.2419 0.3690 1.4252
v  0.2962 0.3179 1.4079
v  0.0256 0.2563 0.6744
v  0.3132 0.3625 1.6342
v  -0.0611 0.2655 0.7076
v  0.2251 0.3250 1.4352
v  -0.2068 0.3362 0.7673
v  -0.1835 0.3633 0.7937
v  -0.2133 0.3599 0.7277
v  -0.2595 0.3775 0.8342
v  -0.2667 0.3992 0.8114
v  -0.0765 0.2601 0.6713
v  -0.0985 0.3030 0.6709
v  -0.1879 0.2857 0.4418
v  -0.2113 0.2899 0.4211
v  -0.2290 0.2865 0.3757
v  -0.2413 0.3965 0.8426
v  -0.1875 0.3865 0.7559
v  -0.2440 0.4177 0.8251
v  -0.1277 0.3273 0.7289
v  0.1708 0.3761 1.4525
v  -0.0542 0.3181 0.6582
# 44 vertices

vn -0.3045 -0.9001 0.3117
vn 0.4957 -0.3742 -0.7838
vn -0.0781 -0.1934 -0.9780
vn -0.2917 -0.9490 0.1193
vn 0.1712 0.1538 0.9732
vn 0.3629 0.0704 0.9292
vn 0.5900 -0.3861 -0.7091
vn 0.2978 -0.9099 0.2888
vn 0.9312 -0.3638 -0.0218
vn -0.2270 -0.8538 0.4686
vn -0.2572 -0.8731 0.4143
vn 0.9238 -0.3733 -0.0849
vn -0.4954 -0.7867 -0.3683
vn 0.4956 -0.3674 -0.7870
vn 0.6014 -0.0507 0.7974
vn 0.4084 0.8659 -0.2888
vn 0.3890 0.9163 -0.0952
vn 0.8488 0.5275 -0.0353
vn 0.4242 0.9055 0.0133
vn 0.4401 0.8951 0.0716
vn 0.0764 0.7055 -0.7046
vn 0.3527 0.9142 -0.1999
vn 0.3704 0.9162 -0.1527
vn 0.9092 -0.3845 -0.1596
vn 0.8708 -0.3987 -0.2877
vn -0.3479 -0.9132 0.2122
vn -0.3290 -0.9082 0.2587
vn -0.4513 -0.8742 0.1788
vn 0.5380 -0.0162 0.8428
vn -0.6118 0.0595 -0.7887
vn -0.6221 -0.4835 0.6158
vn -0.9325 0.3196 -0.1680
vn -0.3615 -0.9165 0.1713
vn -0.9160 0.2893 -0.2778
vn -0.7223 0.4033 0.5618
vn -0.7570 0.4054 0.5125
vn -0.9146 0.2859 -0.2858
vn 0.0921 0.1853 0.9784
vn 0.2468 0.9403 -0.2342
vn -0.0711 0.9539 0.2916
vn -0.8559 0.4016 0.3260
vn -0.7971 0.4063 0.4468
vn 0.3391 0.9114 -0.2332
# 43 vertex normals

vt 0.4245 0.8426 0.0000
vt 0.4742 0.8079 0.0000
vt 0.6667 0.8270 0.0000
vt 0.6627 0.8536 0.0000
vt 0.6611 0.9149 0.0000
vt 0.4241 0.9218 0.0000
vt 0.7883 0.8831 0.0000
vt 0.7769 0.9013 0.0000
vt 0.3746 0.6193 0.0000
vt 0.4245 0.5915 0.0000
vt 0.4245 0.5481 0.0000
vt 0.3532 0.5879 0.0000
vt 0.4245 0.4919 0.0000
vt 0.3532 0.5317 0.0000
vt 0.7693 0.9458 0.0000
vt 0.0397 0.2775 0.0000
vt 0.6354 0.2775 0.0000
vt 0.6486 0.3847 0.0000
vt 0.0429 0.4122 0.0000
vt 0.8744 0.2775 0.0000
vt 0.4245 0.7887 0.0000
vt 0.4744 0.6193 0.0000
vt 0.4958 0.5879 0.0000
vt 0.4958 0.5317 0.0000
vt 0.0429 0.1428 0.0000
vt 0.6486 0.1704 0.0000
vt 0.3749 0.8079 0.0000
vt 0.7277 0.0334 0.0000
vt 0.7907 0.1010 0.0000
vt 0.7277 0.1487 0.0000
vt 0.6647 0.1010 0.0000
vt 0.8997 0.1898 0.0000
vt 0.8318 0.1317 0.0000
vt 0.8899 0.0638 0.0000
vt 0.9578 0.1219 0.0000
# 35 texture coords

o sword1_LOD003
g sword1_LOD003
usemtl Material__232
s 1
f 1/1/1 2/2/2 3/3/3 
f 3/3/3 4/4/4 1/1/1 
f 4/4/4 5/5/5 6/6/6 
f 6/6/6 1/1/1 4/4/4 
f 3/3/3 7/7/7 8/8/8 
f 8/8/8 4/4/4 3/3/3 
f 9/9/9 10/10/10 11/11/11 
f 11/11/11 12/12/12 9/9/9 
f 12/12/12 11/11/11 13/13/13 
f 13/13/13 14/14/14 12/12/12 
f 5/5/5 4/4/4 8/8/8 
f 8/8/8 15/15/15 5/5/5 
f 16/4/16 17/1/17 6/6/6 
f 6/6/6 5/5/5 16/4/16 
f 3/3/3 16/4/16 18/8/18 
f 18/8/18 7/7/7 3/3/3 
f 9/9/9 12/12/12 19/11/19 
f 19/11/19 20/10/20 9/9/9 
f 12/12/12 14/14/14 21/13/21 
f 21/13/21 19/11/19 12/12/12 
f 5/5/5 15/15/15 18/8/18 
f 18/8/18 16/4/16 5/5/5 
f 22/16/22 23/17/23 24/18/24 
f 24/18/24 25/19/25 22/16/22 
f 23/17/23 26/20/6 24/18/24 
f 27/16/26 25/19/25 24/18/24 
f 24/18/24 28/17/27 27/16/26 
f 28/17/27 24/18/24 26/20/6 
f 29/4/28 1/1/1 6/6/6 
f 6/6/6 30/5/29 29/4/28 
f 31/3/30 29/4/28 32/8/31 
f 32/8/31 33/7/32 31/3/30 
f 10/10/10 34/21/33 35/2/34 
f 35/2/34 36/22/35 10/10/10 
f 36/22/35 37/23/36 11/11/11 
f 11/11/11 10/10/10 36/22/35 
f 37/23/36 38/24/37 13/13/13 
f 13/13/13 11/11/11 37/23/36 
f 30/5/29 39/15/38 32/8/31 
f 32/8/31 29/4/28 30/5/29 
f 17/1/17 35/2/34 31/3/30 
f 31/3/30 40/4/39 17/1/17 
f 40/4/39 30/5/29 6/6/6 
f 6/6/6 17/1/17 40/4/39 
f 31/3/30 33/7/32 41/8/40 
f 41/8/40 40/4/39 31/3/30 
f 20/10/20 19/11/19 37/23/36 
f 37/23/36 36/22/35 20/10/20 
f 19/11/19 21/13/21 38/24/37 
f 38/24/37 37/23/36 19/11/19 
f 30/5/29 40/4/39 41/8/40 
f 41/8/40 39/15/38 30/5/29 
f 22/16/22 42/25/41 43/26/42 
f 43/26/42 23/17/23 22/16/22 
f 23/17/23 43/26/42 26/20/6 
f 27/16/26 28/17/27 43/26/42 
f 43/26/42 42/25/41 27/16/26 
f 28/17/27 26/20/6 43/26/42 
f 9/9/9 2/27/2 34/21/33 
f 34/21/33 10/10/10 9/9/9 
f 29/4/28 31/3/30 35/2/34 
f 35/2/34 1/1/1 29/4/28 
f 7/28/7 18/29/18 15/30/15 
f 15/30/15 8/31/8 7/28/7 
f 39/30/38 41/29/40 33/28/32 
f 33/28/32 32/31/31 39/30/38 
f 2/27/2 1/1/1 34/21/33 
f 34/21/33 1/1/1 35/2/34 
f 20/10/20 44/21/43 2/27/2 
f 2/27/2 9/9/9 20/10/20 
f 2/2/2 17/1/17 16/4/16 
f 16/4/16 3/3/3 2/2/2 
f 20/10/20 36/22/35 35/2/34 
f 35/2/34 44/21/43 20/10/20 
f 44/21/43 17/1/17 2/27/2 
f 35/2/34 17/1/17 44/21/43 
f 38/32/37 21/33/21 14/34/14 
f 14/34/14 13/35/13 38/32/37 
# 78 faces

