# 3ds Max Wavefront OBJ Exporter v0.97b - (c)2007 guruware
# File Created: 06.08.2019 14:56:20

mtllib Sword8f.mtl

#
# object sword1_LOD003
#

v  -0.0883 1.0607 0.4907
v  -0.1524 1.0350 0.4975
v  -0.2207 1.0692 0.6149
v  -0.1853 1.0958 0.6292
v  -0.1602 1.0693 0.6547
v  -0.0563 1.0276 0.5248
v  -0.2221 1.0915 0.7194
v  -0.1966 1.1113 0.7219
v  -0.3509 1.0312 0.3513
v  -0.3252 1.0574 0.3158
v  -0.3453 1.0720 0.2964
v  -0.3819 1.0346 0.3471
v  -0.3846 1.0712 0.2674
v  -0.4212 1.0338 0.3181
v  -0.1837 1.0888 0.7314
v  -0.1926 1.0423 0.6405
v  -0.0976 0.9932 0.5050
v  -0.2025 1.0685 0.7309
v  -0.3589 0.9720 0.3176
v  -0.3348 0.9875 0.3306
v  -0.3983 0.9713 0.2886
v  -0.0991 0.9990 0.5020
v  0.5328 1.0155 0.9659
v  0.4940 1.0566 1.0175
v  -0.1466 1.0485 0.5652
v  0.7128 1.0423 1.0912
v  -0.0915 1.0547 0.4902
v  0.5392 1.0623 0.9560
v  0.0141 1.0116 0.3606
v  0.0379 0.9858 0.3879
v  -0.0180 0.9837 0.3418
v  0.0982 0.9869 0.3248
v  0.0819 0.9632 0.3099
v  -0.1231 1.0569 0.4661
v  -0.1107 1.0174 0.4413
v  -0.3092 1.0136 0.2952
v  -0.3223 1.0095 0.2668
v  -0.3616 1.0087 0.2379
v  0.1047 0.9671 0.3430
v  0.0068 0.9582 0.3719
v  0.0923 0.9441 0.3338
v  -0.0440 1.0052 0.4270
v  0.5779 1.0212 0.9045
v  -0.1315 0.9953 0.4791
# 44 vertices

vn 0.2240 0.9653 -0.1339
vn -0.9349 0.1974 0.2950
vn -0.9443 0.0635 -0.3228
vn 0.0293 0.9851 -0.1695
vn 0.9095 -0.0368 0.4140
vn 0.8051 0.0153 0.5929
vn -0.8897 0.2078 0.4066
vn 0.0479 0.8974 0.4385
vn -0.3176 0.2394 0.9175
vn 0.3616 0.9321 -0.0211
vn 0.3143 0.9472 -0.0632
vn -0.3773 0.2409 0.8942
vn -0.3566 0.7829 -0.5098
vn -0.9368 0.1903 0.2935
vn 0.5988 0.0866 0.7962
vn -0.2343 -0.9414 0.2426
vn -0.0364 -0.9616 0.2721
vn -0.1608 -0.6280 0.7614
vn 0.0562 -0.9402 0.3360
vn 0.1060 -0.9239 0.3678
vn -0.5731 -0.8006 -0.1748
vn -0.1273 -0.9696 0.2091
vn -0.0866 -0.9672 0.2387
vn -0.4467 0.2433 0.8609
vn -0.5614 0.2442 0.7907
vn 0.1380 0.9698 -0.2013
vn 0.1784 0.9690 -0.1711
vn 0.1390 0.9396 -0.3128
vn 0.6639 0.0668 0.7448
vn -0.5865 -0.0927 -0.8046
vn 0.6638 0.6376 -0.3910
vn 0.1296 -0.2223 -0.9663
vn 0.1020 0.9690 -0.2251
vn 0.0158 -0.2098 -0.9776
vn 0.7857 -0.2289 -0.5747
vn 0.7479 -0.2335 -0.6214
vn 0.0072 -0.2077 -0.9782
vn 0.9398 -0.0573 0.3370
vn -0.1289 -0.9870 0.0962
vn 0.4551 -0.8879 -0.0681
vn 0.5945 -0.2435 -0.7663
vn 0.6956 -0.2386 -0.6777
vn -0.1561 -0.9698 0.1874
# 43 vertex normals

vt 0.4245 0.8426 0.0000
vt 0.4742 0.8079 0.0000
vt 0.6667 0.8270 0.0000
vt 0.6627 0.8536 0.0000
vt 0.6611 0.9149 0.0000
vt 0.4241 0.9218 0.0000
vt 0.7883 0.8831 0.0000
vt 0.7769 0.9013 0.0000
vt 0.3746 0.6193 0.0000
vt 0.4245 0.5915 0.0000
vt 0.4245 0.5481 0.0000
vt 0.3532 0.5879 0.0000
vt 0.4245 0.4919 0.0000
vt 0.3532 0.5317 0.0000
vt 0.7693 0.9458 0.0000
vt 0.0397 0.2775 0.0000
vt 0.6354 0.2775 0.0000
vt 0.6486 0.3847 0.0000
vt 0.0429 0.4122 0.0000
vt 0.8744 0.2775 0.0000
vt 0.4245 0.7887 0.0000
vt 0.4744 0.6193 0.0000
vt 0.4958 0.5879 0.0000
vt 0.4958 0.5317 0.0000
vt 0.0429 0.1428 0.0000
vt 0.6486 0.1704 0.0000
vt 0.3749 0.8079 0.0000
vt 0.7277 0.0334 0.0000
vt 0.7907 0.1010 0.0000
vt 0.7277 0.1487 0.0000
vt 0.6647 0.1010 0.0000
vt 0.8997 0.1898 0.0000
vt 0.8318 0.1317 0.0000
vt 0.8899 0.0638 0.0000
vt 0.9578 0.1219 0.0000
# 35 texture coords

o sword1_LOD003
g sword1_LOD003
usemtl Material__232
s 1
f 1/1/1 2/2/2 3/3/3 
f 3/3/3 4/4/4 1/1/1 
f 4/4/4 5/5/5 6/6/6 
f 6/6/6 1/1/1 4/4/4 
f 3/3/3 7/7/7 8/8/8 
f 8/8/8 4/4/4 3/3/3 
f 9/9/9 10/10/10 11/11/11 
f 11/11/11 12/12/12 9/9/9 
f 12/12/12 11/11/11 13/13/13 
f 13/13/13 14/14/14 12/12/12 
f 5/5/5 4/4/4 8/8/8 
f 8/8/8 15/15/15 5/5/5 
f 16/4/16 17/1/17 6/6/6 
f 6/6/6 5/5/5 16/4/16 
f 3/3/3 16/4/16 18/8/18 
f 18/8/18 7/7/7 3/3/3 
f 9/9/9 12/12/12 19/11/19 
f 19/11/19 20/10/20 9/9/9 
f 12/12/12 14/14/14 21/13/21 
f 21/13/21 19/11/19 12/12/12 
f 5/5/5 15/15/15 18/8/18 
f 18/8/18 16/4/16 5/5/5 
f 22/16/22 23/17/23 24/18/24 
f 24/18/24 25/19/25 22/16/22 
f 23/17/23 26/20/6 24/18/24 
f 27/16/26 25/19/25 24/18/24 
f 24/18/24 28/17/27 27/16/26 
f 28/17/27 24/18/24 26/20/6 
f 29/4/28 1/1/1 6/6/6 
f 6/6/6 30/5/29 29/4/28 
f 31/3/30 29/4/28 32/8/31 
f 32/8/31 33/7/32 31/3/30 
f 10/10/10 34/21/33 35/2/34 
f 35/2/34 36/22/35 10/10/10 
f 36/22/35 37/23/36 11/11/11 
f 11/11/11 10/10/10 36/22/35 
f 37/23/36 38/24/37 13/13/13 
f 13/13/13 11/11/11 37/23/36 
f 30/5/29 39/15/38 32/8/31 
f 32/8/31 29/4/28 30/5/29 
f 17/1/17 35/2/34 31/3/30 
f 31/3/30 40/4/39 17/1/17 
f 40/4/39 30/5/29 6/6/6 
f 6/6/6 17/1/17 40/4/39 
f 31/3/30 33/7/32 41/8/40 
f 41/8/40 40/4/39 31/3/30 
f 20/10/20 19/11/19 37/23/36 
f 37/23/36 36/22/35 20/10/20 
f 19/11/19 21/13/21 38/24/37 
f 38/24/37 37/23/36 19/11/19 
f 30/5/29 40/4/39 41/8/40 
f 41/8/40 39/15/38 30/5/29 
f 22/16/22 42/25/41 43/26/42 
f 43/26/42 23/17/23 22/16/22 
f 23/17/23 43/26/42 26/20/6 
f 27/16/26 28/17/27 43/26/42 
f 43/26/42 42/25/41 27/16/26 
f 28/17/27 26/20/6 43/26/42 
f 9/9/9 2/27/2 34/21/33 
f 34/21/33 10/10/10 9/9/9 
f 29/4/28 31/3/30 35/2/34 
f 35/2/34 1/1/1 29/4/28 
f 7/28/7 18/29/18 15/30/15 
f 15/30/15 8/31/8 7/28/7 
f 39/30/38 41/29/40 33/28/32 
f 33/28/32 32/31/31 39/30/38 
f 2/27/2 1/1/1 34/21/33 
f 34/21/33 1/1/1 35/2/34 
f 20/10/20 44/21/43 2/27/2 
f 2/27/2 9/9/9 20/10/20 
f 2/2/2 17/1/17 16/4/16 
f 16/4/16 3/3/3 2/2/2 
f 20/10/20 36/22/35 35/2/34 
f 35/2/34 44/21/43 20/10/20 
f 44/21/43 17/1/17 2/27/2 
f 35/2/34 17/1/17 44/21/43 
f 38/32/37 21/33/21 14/34/14 
f 14/34/14 13/35/13 38/32/37 
# 78 faces

