# 3ds Max Wavefront OBJ Exporter v0.97b - (c)2007 guruware
# File Created: 06.08.2019 14:56:39

mtllib Sword55f.mtl

#
# object sword1_LOD003
#

v  0.4093 0.6448 0.1180
v  0.4207 0.7106 0.1367
v  0.5540 0.7453 0.1625
v  0.5686 0.7026 0.1512
v  0.5698 0.6800 0.1895
v  0.4125 0.6155 0.1672
v  0.6518 0.7215 0.1984
v  0.6561 0.6921 0.1856
v  0.3542 0.9285 0.0425
v  0.3301 0.9047 0.0044
v  0.3267 0.9240 -0.0202
v  0.3612 0.9581 0.0343
v  0.3135 0.9672 -0.0389
v  0.3480 1.0013 0.0156
v  0.6495 0.6832 0.2110
v  0.5543 0.7199 0.2015
v  0.3912 0.6668 0.1816
v  0.6447 0.7060 0.2259
v  0.3000 0.9565 0.0739
v  0.3114 0.9274 0.0702
v  0.2869 0.9997 0.0552
v  0.3920 0.6674 0.1749
v  0.6049 -0.0270 0.4702
v  0.6784 -0.0096 0.4586
v  0.4818 0.6890 0.1614
v  0.6704 -0.2287 0.5321
v  0.4069 0.6493 0.1225
v  0.6173 -0.0423 0.4262
v  0.2487 0.5835 0.1017
v  0.2520 0.5617 0.1403
v  0.2288 0.6242 0.1121
v  0.1832 0.5160 0.1124
v  0.1640 0.5399 0.1229
v  0.3969 0.6835 0.1047
v  0.3539 0.6857 0.1263
v  0.2874 0.9036 0.0321
v  0.2656 0.9225 0.0194
v  0.2524 0.9657 0.0008
v  0.1868 0.5110 0.1394
v  0.2344 0.6008 0.1520
v  0.1717 0.5299 0.1527
v  0.3171 0.6277 0.1360
v  0.5438 -0.0597 0.4378
v  0.3805 0.7035 0.1627
# 44 vertices

vn 0.2898 -0.4151 -0.8624
vn 0.6056 0.7884 -0.1083
vn 0.0317 0.9466 -0.3210
vn 0.3252 -0.2274 -0.9179
vn 0.0667 -0.9370 0.3428
vn 0.2699 -0.8839 0.3820
vn 0.6902 0.7216 -0.0538
vn 0.7819 -0.3404 -0.5223
vn 0.9663 0.0716 0.2472
vn 0.3283 -0.5599 -0.7607
vn 0.3141 -0.5104 -0.8005
vn 0.9647 0.1326 0.2276
vn 0.0556 0.2527 -0.9659
vn 0.6014 0.7922 -0.1033
vn 0.5314 -0.7428 0.4073
vn -0.1853 0.3986 0.8982
vn -0.2268 0.2092 0.9512
vn 0.3748 0.1560 0.9139
vn -0.1899 0.1036 0.9763
vn -0.1698 0.0464 0.9844
vn -0.3672 0.7679 0.5249
vn -0.2570 0.3097 0.9155
vn -0.2430 0.2646 0.9332
vn 0.9580 0.2045 0.2008
vn 0.9328 0.3270 0.1514
vn 0.2605 -0.3214 -0.9104
vn 0.2737 -0.3654 -0.8897
vn 0.1533 -0.2940 -0.9434
vn 0.4608 -0.7904 0.4038
vn -0.5449 0.7340 -0.4053
vn -0.2062 -0.7082 -0.6753
vn -0.9450 0.1128 -0.3069
vn 0.2507 -0.2823 -0.9260
vn -0.9160 0.2205 -0.3351
vn -0.8102 -0.5855 -0.0275
vn -0.8404 -0.5395 -0.0521
vn -0.9130 0.2283 -0.3380
vn -0.0156 -0.9464 0.3227
vn -0.3586 0.3368 0.8706
vn -0.6132 -0.2118 0.7610
vn -0.9217 -0.3634 -0.1357
vn -0.8746 -0.4777 -0.0828
vn -0.2670 0.3413 0.9012
# 43 vertex normals

vt 0.4245 0.8426 0.0000
vt 0.4742 0.8079 0.0000
vt 0.6667 0.8270 0.0000
vt 0.6627 0.8536 0.0000
vt 0.6611 0.9149 0.0000
vt 0.4241 0.9218 0.0000
vt 0.7883 0.8831 0.0000
vt 0.7769 0.9013 0.0000
vt 0.3746 0.6193 0.0000
vt 0.4245 0.5915 0.0000
vt 0.4245 0.5481 0.0000
vt 0.3532 0.5879 0.0000
vt 0.4245 0.4919 0.0000
vt 0.3532 0.5317 0.0000
vt 0.7693 0.9458 0.0000
vt 0.0397 0.2775 0.0000
vt 0.6354 0.2775 0.0000
vt 0.6486 0.3847 0.0000
vt 0.0429 0.4122 0.0000
vt 0.8744 0.2775 0.0000
vt 0.4245 0.7887 0.0000
vt 0.4744 0.6193 0.0000
vt 0.4958 0.5879 0.0000
vt 0.4958 0.5317 0.0000
vt 0.0429 0.1428 0.0000
vt 0.6486 0.1704 0.0000
vt 0.3749 0.8079 0.0000
vt 0.7277 0.0334 0.0000
vt 0.7907 0.1010 0.0000
vt 0.7277 0.1487 0.0000
vt 0.6647 0.1010 0.0000
vt 0.8997 0.1898 0.0000
vt 0.8318 0.1317 0.0000
vt 0.8899 0.0638 0.0000
vt 0.9578 0.1219 0.0000
# 35 texture coords

o sword1_LOD003
g sword1_LOD003
usemtl Material__232
s 1
f 1/1/1 2/2/2 3/3/3 
f 3/3/3 4/4/4 1/1/1 
f 4/4/4 5/5/5 6/6/6 
f 6/6/6 1/1/1 4/4/4 
f 3/3/3 7/7/7 8/8/8 
f 8/8/8 4/4/4 3/3/3 
f 9/9/9 10/10/10 11/11/11 
f 11/11/11 12/12/12 9/9/9 
f 12/12/12 11/11/11 13/13/13 
f 13/13/13 14/14/14 12/12/12 
f 5/5/5 4/4/4 8/8/8 
f 8/8/8 15/15/15 5/5/5 
f 16/4/16 17/1/17 6/6/6 
f 6/6/6 5/5/5 16/4/16 
f 3/3/3 16/4/16 18/8/18 
f 18/8/18 7/7/7 3/3/3 
f 9/9/9 12/12/12 19/11/19 
f 19/11/19 20/10/20 9/9/9 
f 12/12/12 14/14/14 21/13/21 
f 21/13/21 19/11/19 12/12/12 
f 5/5/5 15/15/15 18/8/18 
f 18/8/18 16/4/16 5/5/5 
f 22/16/22 23/17/23 24/18/24 
f 24/18/24 25/19/25 22/16/22 
f 23/17/23 26/20/6 24/18/24 
f 27/16/26 25/19/25 24/18/24 
f 24/18/24 28/17/27 27/16/26 
f 28/17/27 24/18/24 26/20/6 
f 29/4/28 1/1/1 6/6/6 
f 6/6/6 30/5/29 29/4/28 
f 31/3/30 29/4/28 32/8/31 
f 32/8/31 33/7/32 31/3/30 
f 10/10/10 34/21/33 35/2/34 
f 35/2/34 36/22/35 10/10/10 
f 36/22/35 37/23/36 11/11/11 
f 11/11/11 10/10/10 36/22/35 
f 37/23/36 38/24/37 13/13/13 
f 13/13/13 11/11/11 37/23/36 
f 30/5/29 39/15/38 32/8/31 
f 32/8/31 29/4/28 30/5/29 
f 17/1/17 35/2/34 31/3/30 
f 31/3/30 40/4/39 17/1/17 
f 40/4/39 30/5/29 6/6/6 
f 6/6/6 17/1/17 40/4/39 
f 31/3/30 33/7/32 41/8/40 
f 41/8/40 40/4/39 31/3/30 
f 20/10/20 19/11/19 37/23/36 
f 37/23/36 36/22/35 20/10/20 
f 19/11/19 21/13/21 38/24/37 
f 38/24/37 37/23/36 19/11/19 
f 30/5/29 40/4/39 41/8/40 
f 41/8/40 39/15/38 30/5/29 
f 22/16/22 42/25/41 43/26/42 
f 43/26/42 23/17/23 22/16/22 
f 23/17/23 43/26/42 26/20/6 
f 27/16/26 28/17/27 43/26/42 
f 43/26/42 42/25/41 27/16/26 
f 28/17/27 26/20/6 43/26/42 
f 9/9/9 2/27/2 34/21/33 
f 34/21/33 10/10/10 9/9/9 
f 29/4/28 31/3/30 35/2/34 
f 35/2/34 1/1/1 29/4/28 
f 7/28/7 18/29/18 15/30/15 
f 15/30/15 8/31/8 7/28/7 
f 39/30/38 41/29/40 33/28/32 
f 33/28/32 32/31/31 39/30/38 
f 2/27/2 1/1/1 34/21/33 
f 34/21/33 1/1/1 35/2/34 
f 20/10/20 44/21/43 2/27/2 
f 2/27/2 9/9/9 20/10/20 
f 2/2/2 17/1/17 16/4/16 
f 16/4/16 3/3/3 2/2/2 
f 20/10/20 36/22/35 35/2/34 
f 35/2/34 44/21/43 20/10/20 
f 44/21/43 17/1/17 2/27/2 
f 35/2/34 17/1/17 44/21/43 
f 38/32/37 21/33/21 14/34/14 
f 14/34/14 13/35/13 38/32/37 
# 78 faces

