# 3ds Max Wavefront OBJ Exporter v0.97b - (c)2007 guruware
# File Created: 06.08.2019 14:56:33

mtllib Sword42f.mtl

#
# object sword1_LOD003
#

v  0.3829 0.5219 0.3758
v  0.3171 0.5401 0.3878
v  0.2863 0.5776 0.5193
v  0.3306 0.5721 0.5325
v  0.3333 0.5305 0.5478
v  0.3868 0.4688 0.3971
v  0.2997 0.5685 0.6249
v  0.3319 0.5671 0.6270
v  0.1609 0.6963 0.2783
v  0.1972 0.7092 0.2449
v  0.1910 0.7373 0.2323
v  0.1391 0.7189 0.2800
v  0.1600 0.7683 0.2106
v  0.1081 0.7498 0.2583
v  0.3277 0.5399 0.6297
v  0.2911 0.5338 0.5342
v  0.3330 0.4734 0.3779
v  0.3003 0.5364 0.6283
v  0.1171 0.6656 0.2354
v  0.1455 0.6590 0.2471
v  0.0861 0.6965 0.2137
v  0.3355 0.4795 0.3765
v  0.8356 -0.0139 0.7247
v  0.8319 0.0274 0.7890
v  0.3304 0.5295 0.4550
v  0.9921 -0.1362 0.8215
v  0.3767 0.5195 0.3747
v  0.8702 0.0197 0.7232
v  0.4307 0.4556 0.2237
v  0.4327 0.4147 0.2411
v  0.3881 0.4591 0.2053
v  0.4798 0.3947 0.1704
v  0.4522 0.3908 0.1541
v  0.3536 0.5466 0.3570
v  0.3381 0.5158 0.3233
v  0.1819 0.6719 0.2138
v  0.1690 0.6841 0.1877
v  0.1380 0.7150 0.1660
v  0.4724 0.3712 0.1830
v  0.3912 0.4172 0.2254
v  0.4482 0.3640 0.1718
v  0.3819 0.4695 0.2961
v  0.8740 -0.0217 0.6589
v  0.3081 0.5024 0.3589
# 44 vertices

vn 0.7853 0.6187 0.0226
vn -0.5966 0.6453 0.4771
vn -0.6905 0.7087 -0.1448
vn 0.6472 0.7620 0.0240
vn 0.6808 -0.6907 0.2440
vn 0.6336 -0.6333 0.4443
vn -0.5548 0.5969 0.5796
vn 0.6076 0.5298 0.5917
vn -0.0911 0.1395 0.9860
vn 0.8708 0.4808 0.1027
vn 0.8437 0.5318 0.0727
vn -0.1364 0.1832 0.9736
vn 0.2197 0.9341 -0.2813
vn -0.6026 0.6416 0.4745
vn 0.5199 -0.5055 0.6886
vn -0.7777 -0.6223 0.0888
vn -0.6375 -0.7662 0.0809
vn -0.5207 -0.5654 0.6397
vn -0.5522 -0.8233 0.1318
vn -0.5033 -0.8497 0.1575
vn -0.9514 -0.2028 -0.2317
vn -0.7130 -0.7004 0.0334
vn -0.6799 -0.7311 0.0558
vn -0.1886 0.2361 0.9533
vn -0.2769 0.3249 0.9043
vn 0.7214 0.6920 -0.0275
vn 0.7522 0.6589 -0.0051
vn 0.7027 0.6973 -0.1414
vn 0.5576 -0.5471 0.6244
vn -0.5143 0.4955 -0.7000
vn 0.9166 0.1697 -0.3621
vn -0.0434 0.0010 -0.9991
vn 0.6930 0.7196 -0.0448
vn -0.1235 0.0830 -0.9889
vn 0.4606 -0.5061 -0.7292
vn 0.4283 -0.4744 -0.7691
vn -0.1288 0.0899 -0.9876
vn 0.6910 -0.7048 0.1605
vn -0.7256 -0.6836 -0.0790
vn -0.2118 -0.9255 -0.3141
vn 0.3030 -0.3510 -0.8860
vn 0.3844 -0.4318 -0.8159
vn -0.7355 -0.6773 0.0170
# 43 vertex normals

vt 0.4245 0.8426 0.0000
vt 0.4742 0.8079 0.0000
vt 0.6667 0.8270 0.0000
vt 0.6627 0.8536 0.0000
vt 0.6611 0.9149 0.0000
vt 0.4241 0.9218 0.0000
vt 0.7883 0.8831 0.0000
vt 0.7769 0.9013 0.0000
vt 0.3746 0.6193 0.0000
vt 0.4245 0.5915 0.0000
vt 0.4245 0.5481 0.0000
vt 0.3532 0.5879 0.0000
vt 0.4245 0.4919 0.0000
vt 0.3532 0.5317 0.0000
vt 0.7693 0.9458 0.0000
vt 0.0397 0.2775 0.0000
vt 0.6354 0.2775 0.0000
vt 0.6486 0.3847 0.0000
vt 0.0429 0.4122 0.0000
vt 0.8744 0.2775 0.0000
vt 0.4245 0.7887 0.0000
vt 0.4744 0.6193 0.0000
vt 0.4958 0.5879 0.0000
vt 0.4958 0.5317 0.0000
vt 0.0429 0.1428 0.0000
vt 0.6486 0.1704 0.0000
vt 0.3749 0.8079 0.0000
vt 0.7277 0.0334 0.0000
vt 0.7907 0.1010 0.0000
vt 0.7277 0.1487 0.0000
vt 0.6647 0.1010 0.0000
vt 0.8997 0.1898 0.0000
vt 0.8318 0.1317 0.0000
vt 0.8899 0.0638 0.0000
vt 0.9578 0.1219 0.0000
# 35 texture coords

o sword1_LOD003
g sword1_LOD003
usemtl Material__232
s 1
f 1/1/1 2/2/2 3/3/3 
f 3/3/3 4/4/4 1/1/1 
f 4/4/4 5/5/5 6/6/6 
f 6/6/6 1/1/1 4/4/4 
f 3/3/3 7/7/7 8/8/8 
f 8/8/8 4/4/4 3/3/3 
f 9/9/9 10/10/10 11/11/11 
f 11/11/11 12/12/12 9/9/9 
f 12/12/12 11/11/11 13/13/13 
f 13/13/13 14/14/14 12/12/12 
f 5/5/5 4/4/4 8/8/8 
f 8/8/8 15/15/15 5/5/5 
f 16/4/16 17/1/17 6/6/6 
f 6/6/6 5/5/5 16/4/16 
f 3/3/3 16/4/16 18/8/18 
f 18/8/18 7/7/7 3/3/3 
f 9/9/9 12/12/12 19/11/19 
f 19/11/19 20/10/20 9/9/9 
f 12/12/12 14/14/14 21/13/21 
f 21/13/21 19/11/19 12/12/12 
f 5/5/5 15/15/15 18/8/18 
f 18/8/18 16/4/16 5/5/5 
f 22/16/22 23/17/23 24/18/24 
f 24/18/24 25/19/25 22/16/22 
f 23/17/23 26/20/6 24/18/24 
f 27/16/26 25/19/25 24/18/24 
f 24/18/24 28/17/27 27/16/26 
f 28/17/27 24/18/24 26/20/6 
f 29/4/28 1/1/1 6/6/6 
f 6/6/6 30/5/29 29/4/28 
f 31/3/30 29/4/28 32/8/31 
f 32/8/31 33/7/32 31/3/30 
f 10/10/10 34/21/33 35/2/34 
f 35/2/34 36/22/35 10/10/10 
f 36/22/35 37/23/36 11/11/11 
f 11/11/11 10/10/10 36/22/35 
f 37/23/36 38/24/37 13/13/13 
f 13/13/13 11/11/11 37/23/36 
f 30/5/29 39/15/38 32/8/31 
f 32/8/31 29/4/28 30/5/29 
f 17/1/17 35/2/34 31/3/30 
f 31/3/30 40/4/39 17/1/17 
f 40/4/39 30/5/29 6/6/6 
f 6/6/6 17/1/17 40/4/39 
f 31/3/30 33/7/32 41/8/40 
f 41/8/40 40/4/39 31/3/30 
f 20/10/20 19/11/19 37/23/36 
f 37/23/36 36/22/35 20/10/20 
f 19/11/19 21/13/21 38/24/37 
f 38/24/37 37/23/36 19/11/19 
f 30/5/29 40/4/39 41/8/40 
f 41/8/40 39/15/38 30/5/29 
f 22/16/22 42/25/41 43/26/42 
f 43/26/42 23/17/23 22/16/22 
f 23/17/23 43/26/42 26/20/6 
f 27/16/26 28/17/27 43/26/42 
f 43/26/42 42/25/41 27/16/26 
f 28/17/27 26/20/6 43/26/42 
f 9/9/9 2/27/2 34/21/33 
f 34/21/33 10/10/10 9/9/9 
f 29/4/28 31/3/30 35/2/34 
f 35/2/34 1/1/1 29/4/28 
f 7/28/7 18/29/18 15/30/15 
f 15/30/15 8/31/8 7/28/7 
f 39/30/38 41/29/40 33/28/32 
f 33/28/32 32/31/31 39/30/38 
f 2/27/2 1/1/1 34/21/33 
f 34/21/33 1/1/1 35/2/34 
f 20/10/20 44/21/43 2/27/2 
f 2/27/2 9/9/9 20/10/20 
f 2/2/2 17/1/17 16/4/16 
f 16/4/16 3/3/3 2/2/2 
f 20/10/20 36/22/35 35/2/34 
f 35/2/34 44/21/43 20/10/20 
f 44/21/43 17/1/17 2/27/2 
f 35/2/34 17/1/17 44/21/43 
f 38/32/37 21/33/21 14/34/14 
f 14/34/14 13/35/13 38/32/37 
# 78 faces

