# 3ds Max Wavefront OBJ Exporter v0.97b - (c)2007 guruware
# File Created: 06.08.2019 14:56:50

mtllib Sword84f.mtl

#
# object sword1_LOD003
#

v  -0.0029 0.2546 0.5248
v  -0.0348 0.2243 0.4711
v  0.0129 0.0977 0.4344
v  0.0437 0.0979 0.4693
v  0.0812 0.1142 0.4518
v  0.0462 0.2741 0.5026
v  0.0923 0.0272 0.4229
v  0.1083 0.0313 0.4507
v  -0.2710 0.1810 0.4156
v  -0.2853 0.2025 0.4595
v  -0.3140 0.1926 0.4678
v  -0.2936 0.1618 0.4049
v  -0.3608 0.1840 0.4568
v  -0.3404 0.1532 0.3939
v  0.1256 0.0464 0.4353
v  0.0524 0.1161 0.4180
v  0.0081 0.2776 0.4600
v  0.1153 0.0458 0.4097
v  -0.2977 0.2266 0.3719
v  -0.2739 0.2263 0.3925
v  -0.3445 0.2180 0.3609
v  0.0043 0.2751 0.4650
v  0.7550 0.4113 0.6460
v  0.7685 0.3360 0.6475
v  0.0209 0.1833 0.4661
v  0.9616 0.4418 0.7180
v  -0.0047 0.2561 0.5185
v  0.7474 0.3953 0.6909
v  -0.0383 0.4178 0.5688
v  -0.0003 0.4319 0.5507
v  -0.0705 0.4230 0.5356
v  -0.0130 0.5042 0.5979
v  -0.0327 0.5150 0.5747
v  -0.0432 0.2482 0.5122
v  -0.0519 0.2911 0.4920
v  -0.2882 0.2478 0.4364
v  -0.3181 0.2574 0.4347
v  -0.3649 0.2488 0.4237
v  0.0069 0.5091 0.5794
v  -0.0296 0.4360 0.5176
v  -0.0060 0.5188 0.5569
v  -0.0213 0.3479 0.5173
v  0.7339 0.4706 0.6894
v  -0.0332 0.2692 0.4531
# 44 vertices

vn -0.0460 -0.3092 0.9499
vn -0.3572 -0.8621 -0.3595
vn -0.8377 -0.4554 -0.3014
vn -0.1950 -0.4238 0.8845
vn 0.8859 0.3686 0.2816
vn 0.9583 0.1756 0.2254
vn -0.2427 -0.9005 -0.3609
vn 0.3015 -0.6989 0.6486
vn 0.5070 -0.8363 -0.2087
vn 0.1297 -0.2661 0.9552
vn 0.0664 -0.2811 0.9574
vn 0.4520 -0.8621 -0.2291
vn -0.6826 -0.3712 0.6296
vn -0.3591 -0.8586 -0.3659
vn 0.9858 -0.1057 0.1303
vn 0.1232 0.2300 -0.9654
vn 0.2692 0.3501 -0.8972
vn 0.5506 -0.1793 -0.8153
vn 0.3746 0.3619 -0.8536
vn 0.4287 0.3671 -0.8255
vn -0.4240 0.1684 -0.8899
vn 0.1647 0.3314 -0.9290
vn 0.2127 0.3397 -0.9161
vn 0.3831 -0.8891 -0.2504
vn 0.2575 -0.9236 -0.2840
vn -0.1520 -0.3291 0.9320
vn -0.1035 -0.3197 0.9418
vn -0.2366 -0.2507 0.9387
vn 0.9870 -0.0254 0.1589
vn -0.9844 0.1215 -0.1272
vn 0.0481 0.2891 0.9561
vn -0.6620 0.7347 0.1481
vn -0.1928 -0.3384 0.9210
vn -0.7417 0.6620 0.1080
vn 0.0485 0.9386 0.3417
vn -0.0110 0.9428 0.3331
vn -0.7475 0.6558 0.1058
vn 0.8456 0.4413 0.3005
vn 0.0764 0.4021 -0.9124
vn 0.2972 0.8086 -0.5077
vn -0.2181 0.9308 0.2933
vn -0.0869 0.9434 0.3201
vn 0.1300 0.3253 -0.9366
# 43 vertex normals

vt 0.4245 0.8426 0.0000
vt 0.4742 0.8079 0.0000
vt 0.6667 0.8270 0.0000
vt 0.6627 0.8536 0.0000
vt 0.6611 0.9149 0.0000
vt 0.4241 0.9218 0.0000
vt 0.7883 0.8831 0.0000
vt 0.7769 0.9013 0.0000
vt 0.3746 0.6193 0.0000
vt 0.4245 0.5915 0.0000
vt 0.4245 0.5481 0.0000
vt 0.3532 0.5879 0.0000
vt 0.4245 0.4919 0.0000
vt 0.3532 0.5317 0.0000
vt 0.7693 0.9458 0.0000
vt 0.0397 0.2775 0.0000
vt 0.6354 0.2775 0.0000
vt 0.6486 0.3847 0.0000
vt 0.0429 0.4122 0.0000
vt 0.8744 0.2775 0.0000
vt 0.4245 0.7887 0.0000
vt 0.4744 0.6193 0.0000
vt 0.4958 0.5879 0.0000
vt 0.4958 0.5317 0.0000
vt 0.0429 0.1428 0.0000
vt 0.6486 0.1704 0.0000
vt 0.3749 0.8079 0.0000
vt 0.7277 0.0334 0.0000
vt 0.7907 0.1010 0.0000
vt 0.7277 0.1487 0.0000
vt 0.6647 0.1010 0.0000
vt 0.8997 0.1898 0.0000
vt 0.8318 0.1317 0.0000
vt 0.8899 0.0638 0.0000
vt 0.9578 0.1219 0.0000
# 35 texture coords

o sword1_LOD003
g sword1_LOD003
usemtl Material__232
s 1
f 1/1/1 2/2/2 3/3/3 
f 3/3/3 4/4/4 1/1/1 
f 4/4/4 5/5/5 6/6/6 
f 6/6/6 1/1/1 4/4/4 
f 3/3/3 7/7/7 8/8/8 
f 8/8/8 4/4/4 3/3/3 
f 9/9/9 10/10/10 11/11/11 
f 11/11/11 12/12/12 9/9/9 
f 12/12/12 11/11/11 13/13/13 
f 13/13/13 14/14/14 12/12/12 
f 5/5/5 4/4/4 8/8/8 
f 8/8/8 15/15/15 5/5/5 
f 16/4/16 17/1/17 6/6/6 
f 6/6/6 5/5/5 16/4/16 
f 3/3/3 16/4/16 18/8/18 
f 18/8/18 7/7/7 3/3/3 
f 9/9/9 12/12/12 19/11/19 
f 19/11/19 20/10/20 9/9/9 
f 12/12/12 14/14/14 21/13/21 
f 21/13/21 19/11/19 12/12/12 
f 5/5/5 15/15/15 18/8/18 
f 18/8/18 16/4/16 5/5/5 
f 22/16/22 23/17/23 24/18/24 
f 24/18/24 25/19/25 22/16/22 
f 23/17/23 26/20/6 24/18/24 
f 27/16/26 25/19/25 24/18/24 
f 24/18/24 28/17/27 27/16/26 
f 28/17/27 24/18/24 26/20/6 
f 29/4/28 1/1/1 6/6/6 
f 6/6/6 30/5/29 29/4/28 
f 31/3/30 29/4/28 32/8/31 
f 32/8/31 33/7/32 31/3/30 
f 10/10/10 34/21/33 35/2/34 
f 35/2/34 36/22/35 10/10/10 
f 36/22/35 37/23/36 11/11/11 
f 11/11/11 10/10/10 36/22/35 
f 37/23/36 38/24/37 13/13/13 
f 13/13/13 11/11/11 37/23/36 
f 30/5/29 39/15/38 32/8/31 
f 32/8/31 29/4/28 30/5/29 
f 17/1/17 35/2/34 31/3/30 
f 31/3/30 40/4/39 17/1/17 
f 40/4/39 30/5/29 6/6/6 
f 6/6/6 17/1/17 40/4/39 
f 31/3/30 33/7/32 41/8/40 
f 41/8/40 40/4/39 31/3/30 
f 20/10/20 19/11/19 37/23/36 
f 37/23/36 36/22/35 20/10/20 
f 19/11/19 21/13/21 38/24/37 
f 38/24/37 37/23/36 19/11/19 
f 30/5/29 40/4/39 41/8/40 
f 41/8/40 39/15/38 30/5/29 
f 22/16/22 42/25/41 43/26/42 
f 43/26/42 23/17/23 22/16/22 
f 23/17/23 43/26/42 26/20/6 
f 27/16/26 28/17/27 43/26/42 
f 43/26/42 42/25/41 27/16/26 
f 28/17/27 26/20/6 43/26/42 
f 9/9/9 2/27/2 34/21/33 
f 34/21/33 10/10/10 9/9/9 
f 29/4/28 31/3/30 35/2/34 
f 35/2/34 1/1/1 29/4/28 
f 7/28/7 18/29/18 15/30/15 
f 15/30/15 8/31/8 7/28/7 
f 39/30/38 41/29/40 33/28/32 
f 33/28/32 32/31/31 39/30/38 
f 2/27/2 1/1/1 34/21/33 
f 34/21/33 1/1/1 35/2/34 
f 20/10/20 44/21/43 2/27/2 
f 2/27/2 9/9/9 20/10/20 
f 2/2/2 17/1/17 16/4/16 
f 16/4/16 3/3/3 2/2/2 
f 20/10/20 36/22/35 35/2/34 
f 35/2/34 44/21/43 20/10/20 
f 44/21/43 17/1/17 2/27/2 
f 35/2/34 17/1/17 44/21/43 
f 38/32/37 21/33/21 14/34/14 
f 14/34/14 13/35/13 38/32/37 
# 78 faces

