# 3ds Max Wavefront OBJ Exporter v0.97b - (c)2007 guruware
# File Created: 06.08.2019 14:56:35

mtllib Sword47f.mtl

#
# object sword1_LOD003
#

v  -0.0629 0.6900 0.4800
v  -0.1039 0.7161 0.4305
v  -0.2009 0.8081 0.4726
v  -0.1857 0.8058 0.5165
v  -0.2107 0.7746 0.5360
v  -0.0957 0.6510 0.5062
v  -0.2708 0.8440 0.5449
v  -0.2535 0.8414 0.5721
v  -0.0611 0.8208 0.2114
v  -0.0109 0.8157 0.2188
v  0.0049 0.8361 0.2008
v  -0.0668 0.8434 0.1903
v  0.0134 0.8569 0.1574
v  -0.0583 0.8641 0.1468
v  -0.2682 0.8184 0.5759
v  -0.2251 0.7746 0.4939
v  -0.1127 0.6506 0.4514
v  -0.2850 0.8165 0.5540
v  -0.0688 0.7778 0.1586
v  -0.0625 0.7749 0.1893
v  -0.0603 0.7985 0.1151
v  -0.1078 0.6553 0.4513
v  -0.2406 0.3250 1.1500
v  -0.2725 0.3900 1.1748
v  -0.1474 0.7343 0.4813
v  -0.2615 0.2454 1.3550
v  -0.0667 0.6878 0.4749
v  -0.2061 0.3523 1.1697
v  0.0479 0.5621 0.4457
v  0.0214 0.5325 0.4657
v  0.0367 0.5603 0.4006
v  0.0918 0.4811 0.4674
v  0.0854 0.4725 0.4369
v  -0.0578 0.7063 0.4408
v  -0.0550 0.6652 0.4157
v  -0.0123 0.7699 0.1967
v  0.0030 0.7705 0.1691
v  0.0115 0.7913 0.1257
v  0.0696 0.4658 0.4735
v  0.0085 0.5309 0.4231
v  0.0603 0.4562 0.4493
v  -0.0272 0.6088 0.4449
v  -0.1742 0.2874 1.1449
v  -0.1032 0.6703 0.4148
# 44 vertices

vn 0.6890 0.5143 0.5106
vn -0.4495 0.8260 -0.3399
vn -0.0432 0.6242 -0.7801
vn 0.6596 0.6535 0.3714
vn -0.0258 -0.5649 0.8247
vn -0.1736 -0.4245 0.8886
vn -0.5151 0.8233 -0.2385
vn 0.1475 0.6891 0.7095
vn -0.6971 0.5528 0.4566
vn 0.6315 0.4183 0.6528
vn 0.6558 0.4534 0.6036
vn -0.6990 0.5899 0.4043
vn 0.6839 0.7074 -0.1782
vn -0.4527 0.8220 -0.3454
vn -0.3655 -0.1973 0.9096
vn -0.7644 -0.4705 -0.4407
vn -0.7294 -0.6132 -0.3034
vn -0.9774 -0.2016 0.0643
vn -0.7357 -0.6487 -0.1947
vn -0.7346 -0.6649 -0.1356
vn -0.4835 -0.2172 -0.8479
vn -0.7162 -0.5689 -0.4042
vn -0.7238 -0.5894 -0.3588
vn -0.6959 0.6325 0.3401
vn -0.6806 0.6977 0.2236
vn 0.7139 0.5633 0.4160
vn 0.7040 0.5410 0.4601
vn 0.7850 0.5208 0.3355
vn -0.3135 -0.2648 0.9119
vn 0.3732 0.1830 -0.9095
vn 0.8689 -0.0637 0.4908
vn 0.6789 -0.4225 -0.6004
vn 0.7195 0.5827 0.3778
vn 0.6548 -0.3388 -0.6756
vn 0.5986 -0.7988 0.0597
vn 0.6193 -0.7851 0.0048
vn 0.6533 -0.3317 -0.6806
vn 0.0338 -0.6140 0.7886
vn -0.6381 -0.6009 -0.4814
vn -0.2559 -0.9543 -0.1544
vn 0.6735 -0.7152 -0.1870
vn 0.6422 -0.7637 -0.0655
vn -0.7094 -0.5536 -0.4362
# 43 vertex normals

vt 0.4245 0.8426 0.0000
vt 0.4742 0.8079 0.0000
vt 0.6667 0.8270 0.0000
vt 0.6627 0.8536 0.0000
vt 0.6611 0.9149 0.0000
vt 0.4241 0.9218 0.0000
vt 0.7883 0.8831 0.0000
vt 0.7769 0.9013 0.0000
vt 0.3746 0.6193 0.0000
vt 0.4245 0.5915 0.0000
vt 0.4245 0.5481 0.0000
vt 0.3532 0.5879 0.0000
vt 0.4245 0.4919 0.0000
vt 0.3532 0.5317 0.0000
vt 0.7693 0.9458 0.0000
vt 0.0397 0.2775 0.0000
vt 0.6354 0.2775 0.0000
vt 0.6486 0.3847 0.0000
vt 0.0429 0.4122 0.0000
vt 0.8744 0.2775 0.0000
vt 0.4245 0.7887 0.0000
vt 0.4744 0.6193 0.0000
vt 0.4958 0.5879 0.0000
vt 0.4958 0.5317 0.0000
vt 0.0429 0.1428 0.0000
vt 0.6486 0.1704 0.0000
vt 0.3749 0.8079 0.0000
vt 0.7277 0.0334 0.0000
vt 0.7907 0.1010 0.0000
vt 0.7277 0.1487 0.0000
vt 0.6647 0.1010 0.0000
vt 0.8997 0.1898 0.0000
vt 0.8318 0.1317 0.0000
vt 0.8899 0.0638 0.0000
vt 0.9578 0.1219 0.0000
# 35 texture coords

o sword1_LOD003
g sword1_LOD003
usemtl Material__232
s 1
f 1/1/1 2/2/2 3/3/3 
f 3/3/3 4/4/4 1/1/1 
f 4/4/4 5/5/5 6/6/6 
f 6/6/6 1/1/1 4/4/4 
f 3/3/3 7/7/7 8/8/8 
f 8/8/8 4/4/4 3/3/3 
f 9/9/9 10/10/10 11/11/11 
f 11/11/11 12/12/12 9/9/9 
f 12/12/12 11/11/11 13/13/13 
f 13/13/13 14/14/14 12/12/12 
f 5/5/5 4/4/4 8/8/8 
f 8/8/8 15/15/15 5/5/5 
f 16/4/16 17/1/17 6/6/6 
f 6/6/6 5/5/5 16/4/16 
f 3/3/3 16/4/16 18/8/18 
f 18/8/18 7/7/7 3/3/3 
f 9/9/9 12/12/12 19/11/19 
f 19/11/19 20/10/20 9/9/9 
f 12/12/12 14/14/14 21/13/21 
f 21/13/21 19/11/19 12/12/12 
f 5/5/5 15/15/15 18/8/18 
f 18/8/18 16/4/16 5/5/5 
f 22/16/22 23/17/23 24/18/24 
f 24/18/24 25/19/25 22/16/22 
f 23/17/23 26/20/6 24/18/24 
f 27/16/26 25/19/25 24/18/24 
f 24/18/24 28/17/27 27/16/26 
f 28/17/27 24/18/24 26/20/6 
f 29/4/28 1/1/1 6/6/6 
f 6/6/6 30/5/29 29/4/28 
f 31/3/30 29/4/28 32/8/31 
f 32/8/31 33/7/32 31/3/30 
f 10/10/10 34/21/33 35/2/34 
f 35/2/34 36/22/35 10/10/10 
f 36/22/35 37/23/36 11/11/11 
f 11/11/11 10/10/10 36/22/35 
f 37/23/36 38/24/37 13/13/13 
f 13/13/13 11/11/11 37/23/36 
f 30/5/29 39/15/38 32/8/31 
f 32/8/31 29/4/28 30/5/29 
f 17/1/17 35/2/34 31/3/30 
f 31/3/30 40/4/39 17/1/17 
f 40/4/39 30/5/29 6/6/6 
f 6/6/6 17/1/17 40/4/39 
f 31/3/30 33/7/32 41/8/40 
f 41/8/40 40/4/39 31/3/30 
f 20/10/20 19/11/19 37/23/36 
f 37/23/36 36/22/35 20/10/20 
f 19/11/19 21/13/21 38/24/37 
f 38/24/37 37/23/36 19/11/19 
f 30/5/29 40/4/39 41/8/40 
f 41/8/40 39/15/38 30/5/29 
f 22/16/22 42/25/41 43/26/42 
f 43/26/42 23/17/23 22/16/22 
f 23/17/23 43/26/42 26/20/6 
f 27/16/26 28/17/27 43/26/42 
f 43/26/42 42/25/41 27/16/26 
f 28/17/27 26/20/6 43/26/42 
f 9/9/9 2/27/2 34/21/33 
f 34/21/33 10/10/10 9/9/9 
f 29/4/28 31/3/30 35/2/34 
f 35/2/34 1/1/1 29/4/28 
f 7/28/7 18/29/18 15/30/15 
f 15/30/15 8/31/8 7/28/7 
f 39/30/38 41/29/40 33/28/32 
f 33/28/32 32/31/31 39/30/38 
f 2/27/2 1/1/1 34/21/33 
f 34/21/33 1/1/1 35/2/34 
f 20/10/20 44/21/43 2/27/2 
f 2/27/2 9/9/9 20/10/20 
f 2/2/2 17/1/17 16/4/16 
f 16/4/16 3/3/3 2/2/2 
f 20/10/20 36/22/35 35/2/34 
f 35/2/34 44/21/43 20/10/20 
f 44/21/43 17/1/17 2/27/2 
f 35/2/34 17/1/17 44/21/43 
f 38/32/37 21/33/21 14/34/14 
f 14/34/14 13/35/13 38/32/37 
# 78 faces

