# 3ds Max Wavefront OBJ Exporter v0.97b - (c)2007 guruware
# File Created: 06.08.2019 14:56:36

mtllib Sword49f.mtl

#
# object sword1_LOD003
#

v  0.0348 0.5665 0.4111
v  -0.0212 0.6039 0.3950
v  -0.0892 0.6632 0.5023
v  -0.0579 0.6468 0.5326
v  -0.0745 0.6081 0.5469
v  0.0134 0.5172 0.4312
v  -0.1229 0.6625 0.6036
v  -0.0964 0.6522 0.6189
v  -0.0642 0.7848 0.2331
v  -0.0155 0.7830 0.2181
v  -0.0072 0.8102 0.2045
v  -0.0769 0.8127 0.2259
v  -0.0158 0.8460 0.1724
v  -0.0854 0.8486 0.1938
v  -0.1095 0.6278 0.6192
v  -0.1044 0.6217 0.5170
v  -0.0239 0.5348 0.3914
v  -0.1336 0.6321 0.6064
v  -0.0942 0.7633 0.1753
v  -0.0764 0.7502 0.1977
v  -0.1028 0.7991 0.1432
v  -0.0193 0.5397 0.3912
v  0.1215 -0.0335 0.9074
v  0.1050 0.0142 0.9650
v  -0.0401 0.5975 0.4614
v  0.1802 -0.1836 1.0585
v  0.0292 0.5658 0.4075
v  0.1622 -0.0115 0.9211
v  0.1170 0.4727 0.2916
v  0.0992 0.4351 0.3075
v  0.0887 0.4861 0.2572
v  0.1622 0.3948 0.2627
v  0.1437 0.3971 0.2362
v  0.0247 0.5962 0.3823
v  0.0154 0.5676 0.3446
v  -0.0277 0.7484 0.1827
v  -0.0246 0.7607 0.1539
v  -0.0331 0.7966 0.1218
v  0.1435 0.3760 0.2706
v  0.0705 0.4476 0.2760
v  0.1250 0.3747 0.2501
v  0.0499 0.5079 0.3373
v  0.1787 -0.0591 0.8636
v  -0.0289 0.5673 0.3642
# 44 vertices

vn 0.8577 0.3678 0.3591
vn -0.5096 0.8378 0.1962
vn -0.3211 0.8551 -0.4070
vn 0.7818 0.5437 0.3053
vn 0.2783 -0.8241 0.4933
vn 0.1746 -0.7336 0.6567
vn -0.5294 0.7913 0.3059
vn 0.4483 0.3976 0.8006
vn -0.4325 0.2693 0.8605
vn 0.8572 0.2211 0.4651
vn 0.8615 0.2741 0.4275
vn -0.4533 0.3224 0.8310
vn 0.5883 0.7951 -0.1473
vn -0.5148 0.8357 0.1913
vn 0.0173 -0.5522 0.8335
vn -0.8971 -0.3609 -0.2548
vn -0.8169 -0.5387 -0.2061
vn -0.8795 -0.3182 0.3540
vn -0.7811 -0.6117 -0.1253
vn -0.7574 -0.6478 -0.0820
vn -0.7899 0.0520 -0.6110
vn -0.8429 -0.4598 -0.2795
vn -0.8327 -0.4961 -0.2460
vn -0.4740 0.3853 0.7917
vn -0.5034 0.4895 0.7120
vn 0.8452 0.4501 0.2882
vn 0.8526 0.4124 0.3209
vn 0.8765 0.4478 0.1771
vn 0.0629 -0.6097 0.7902
vn -0.0109 0.5398 -0.8417
vn 0.9885 -0.1401 0.0563
vn 0.3646 -0.0987 -0.9259
vn 0.8360 0.4826 0.2612
vn 0.3164 0.0033 -0.9486
vn 0.5361 -0.6947 -0.4795
vn 0.5339 -0.6598 -0.5287
vn 0.3135 0.0116 -0.9495
vn 0.3164 -0.8498 0.4215
vn -0.8034 -0.4529 -0.3866
vn -0.3393 -0.8559 -0.3903
vn 0.5106 -0.5197 -0.6850
vn 0.5280 -0.6120 -0.5888
vn -0.8486 -0.4334 -0.3034
# 43 vertex normals

vt 0.4245 0.8426 0.0000
vt 0.4742 0.8079 0.0000
vt 0.6667 0.8270 0.0000
vt 0.6627 0.8536 0.0000
vt 0.6611 0.9149 0.0000
vt 0.4241 0.9218 0.0000
vt 0.7883 0.8831 0.0000
vt 0.7769 0.9013 0.0000
vt 0.3746 0.6193 0.0000
vt 0.4245 0.5915 0.0000
vt 0.4245 0.5481 0.0000
vt 0.3532 0.5879 0.0000
vt 0.4245 0.4919 0.0000
vt 0.3532 0.5317 0.0000
vt 0.7693 0.9458 0.0000
vt 0.0397 0.2775 0.0000
vt 0.6354 0.2775 0.0000
vt 0.6486 0.3847 0.0000
vt 0.0429 0.4122 0.0000
vt 0.8744 0.2775 0.0000
vt 0.4245 0.7887 0.0000
vt 0.4744 0.6193 0.0000
vt 0.4958 0.5879 0.0000
vt 0.4958 0.5317 0.0000
vt 0.0429 0.1428 0.0000
vt 0.6486 0.1704 0.0000
vt 0.3749 0.8079 0.0000
vt 0.7277 0.0334 0.0000
vt 0.7907 0.1010 0.0000
vt 0.7277 0.1487 0.0000
vt 0.6647 0.1010 0.0000
vt 0.8997 0.1898 0.0000
vt 0.8318 0.1317 0.0000
vt 0.8899 0.0638 0.0000
vt 0.9578 0.1219 0.0000
# 35 texture coords

o sword1_LOD003
g sword1_LOD003
usemtl Material__232
s 1
f 1/1/1 2/2/2 3/3/3 
f 3/3/3 4/4/4 1/1/1 
f 4/4/4 5/5/5 6/6/6 
f 6/6/6 1/1/1 4/4/4 
f 3/3/3 7/7/7 8/8/8 
f 8/8/8 4/4/4 3/3/3 
f 9/9/9 10/10/10 11/11/11 
f 11/11/11 12/12/12 9/9/9 
f 12/12/12 11/11/11 13/13/13 
f 13/13/13 14/14/14 12/12/12 
f 5/5/5 4/4/4 8/8/8 
f 8/8/8 15/15/15 5/5/5 
f 16/4/16 17/1/17 6/6/6 
f 6/6/6 5/5/5 16/4/16 
f 3/3/3 16/4/16 18/8/18 
f 18/8/18 7/7/7 3/3/3 
f 9/9/9 12/12/12 19/11/19 
f 19/11/19 20/10/20 9/9/9 
f 12/12/12 14/14/14 21/13/21 
f 21/13/21 19/11/19 12/12/12 
f 5/5/5 15/15/15 18/8/18 
f 18/8/18 16/4/16 5/5/5 
f 22/16/22 23/17/23 24/18/24 
f 24/18/24 25/19/25 22/16/22 
f 23/17/23 26/20/6 24/18/24 
f 27/16/26 25/19/25 24/18/24 
f 24/18/24 28/17/27 27/16/26 
f 28/17/27 24/18/24 26/20/6 
f 29/4/28 1/1/1 6/6/6 
f 6/6/6 30/5/29 29/4/28 
f 31/3/30 29/4/28 32/8/31 
f 32/8/31 33/7/32 31/3/30 
f 10/10/10 34/21/33 35/2/34 
f 35/2/34 36/22/35 10/10/10 
f 36/22/35 37/23/36 11/11/11 
f 11/11/11 10/10/10 36/22/35 
f 37/23/36 38/24/37 13/13/13 
f 13/13/13 11/11/11 37/23/36 
f 30/5/29 39/15/38 32/8/31 
f 32/8/31 29/4/28 30/5/29 
f 17/1/17 35/2/34 31/3/30 
f 31/3/30 40/4/39 17/1/17 
f 40/4/39 30/5/29 6/6/6 
f 6/6/6 17/1/17 40/4/39 
f 31/3/30 33/7/32 41/8/40 
f 41/8/40 40/4/39 31/3/30 
f 20/10/20 19/11/19 37/23/36 
f 37/23/36 36/22/35 20/10/20 
f 19/11/19 21/13/21 38/24/37 
f 38/24/37 37/23/36 19/11/19 
f 30/5/29 40/4/39 41/8/40 
f 41/8/40 39/15/38 30/5/29 
f 22/16/22 42/25/41 43/26/42 
f 43/26/42 23/17/23 22/16/22 
f 23/17/23 43/26/42 26/20/6 
f 27/16/26 28/17/27 43/26/42 
f 43/26/42 42/25/41 27/16/26 
f 28/17/27 26/20/6 43/26/42 
f 9/9/9 2/27/2 34/21/33 
f 34/21/33 10/10/10 9/9/9 
f 29/4/28 31/3/30 35/2/34 
f 35/2/34 1/1/1 29/4/28 
f 7/28/7 18/29/18 15/30/15 
f 15/30/15 8/31/8 7/28/7 
f 39/30/38 41/29/40 33/28/32 
f 33/28/32 32/31/31 39/30/38 
f 2/27/2 1/1/1 34/21/33 
f 34/21/33 1/1/1 35/2/34 
f 20/10/20 44/21/43 2/27/2 
f 2/27/2 9/9/9 20/10/20 
f 2/2/2 17/1/17 16/4/16 
f 16/4/16 3/3/3 2/2/2 
f 20/10/20 36/22/35 35/2/34 
f 35/2/34 44/21/43 20/10/20 
f 44/21/43 17/1/17 2/27/2 
f 35/2/34 17/1/17 44/21/43 
f 38/32/37 21/33/21 14/34/14 
f 14/34/14 13/35/13 38/32/37 
# 78 faces

