# 3ds Max Wavefront OBJ Exporter v0.97b - (c)2007 guruware
# File Created: 06.08.2019 14:56:24

mtllib Sword20f.mtl

#
# object sword1_LOD003
#

v  -0.3711 0.5365 0.1234
v  -0.3240 0.5647 0.0811
v  -0.1969 0.5868 0.1360
v  -0.2098 0.5679 0.1765
v  -0.2237 0.6018 0.2016
v  -0.3877 0.5799 0.1569
v  -0.1334 0.6119 0.2182
v  -0.1467 0.5943 0.2418
v  -0.2458 0.5117 -0.1466
v  -0.2777 0.4720 -0.1483
v  -0.2680 0.4511 -0.1698
v  -0.2224 0.5079 -0.1674
v  -0.2525 0.4406 -0.2149
v  -0.2069 0.4974 -0.2125
v  -0.1583 0.6182 0.2493
v  -0.2133 0.6211 0.1629
v  -0.3754 0.6038 0.1062
v  -0.1494 0.6369 0.2310
v  -0.2744 0.5508 -0.1952
v  -0.2821 0.5417 -0.1661
v  -0.2589 0.5403 -0.2403
v  -0.3741 0.5973 0.1050
v  -0.6225 0.7614 0.8304
v  -0.5523 0.7479 0.8577
v  -0.2884 0.5815 0.1382
v  -0.6906 0.7853 1.0392
v  -0.3706 0.5417 0.1192
v  -0.6195 0.7148 0.8423
v  -0.5362 0.5211 0.0753
v  -0.5479 0.5554 0.1011
v  -0.5288 0.5393 0.0331
v  -0.6293 0.5252 0.0922
v  -0.6311 0.5406 0.0639
v  -0.3578 0.5304 0.0832
v  -0.3922 0.5549 0.0600
v  -0.3140 0.5019 -0.1677
v  -0.3200 0.4939 -0.1976
v  -0.3045 0.4834 -0.2427
v  -0.6304 0.5506 0.1030
v  -0.5397 0.5744 0.0617
v  -0.6320 0.5678 0.0814
v  -0.4563 0.5575 0.0861
v  -0.6897 0.7283 0.8151
v  -0.3617 0.5918 0.0676
# 44 vertices

vn 0.0265 -0.9356 0.3522
vn 0.9571 -0.0193 -0.2891
vn 0.5951 -0.1649 -0.7866
vn 0.1677 -0.9622 0.2146
vn -0.5109 0.1813 0.8403
vn -0.3171 0.2150 0.9237
vn 0.9840 0.0179 -0.1774
vn 0.4538 -0.6214 0.6386
vn 0.8126 0.1906 0.5507
vn -0.0317 -0.8615 0.5068
vn -0.0124 -0.8917 0.4524
vn 0.8480 0.1813 0.4980
vn 0.2339 -0.9138 -0.3320
vn 0.9558 -0.0135 -0.2938
vn -0.0240 0.2454 0.9691
vn 0.0468 0.9612 -0.2718
vn -0.1003 0.9855 -0.1369
vn 0.3562 0.9001 0.2509
vn -0.1335 0.9907 -0.0274
vn -0.1513 0.9880 0.0312
vn 0.1323 0.6655 -0.7345
vn -0.0641 0.9686 -0.2403
vn -0.0800 0.9779 -0.1934
vn 0.8860 0.1671 0.4326
vn 0.9396 0.1399 0.3123
vn 0.0599 -0.9657 0.2526
vn 0.0439 -0.9533 0.2987
vn -0.0092 -0.9867 0.1625
vn -0.1089 0.2389 0.9649
vn 0.0079 -0.2440 -0.9698
vn -0.5543 -0.7657 0.3261
vn -0.6846 -0.2209 -0.6946
vn 0.0756 -0.9741 0.2131
vn -0.5967 -0.2332 -0.7678
vn -0.9976 -0.0680 -0.0145
vn -0.9939 -0.0827 -0.0729
vn -0.5896 -0.2350 -0.7728
vn -0.5821 0.1655 0.7961
vn -0.1285 0.9356 -0.3289
vn -0.6519 0.7558 -0.0616
vn -0.9527 -0.1310 -0.2743
vn -0.9840 -0.1006 -0.1471
vn -0.0530 0.9604 -0.2737
# 43 vertex normals

vt 0.4245 0.8426 0.0000
vt 0.4742 0.8079 0.0000
vt 0.6667 0.8270 0.0000
vt 0.6627 0.8536 0.0000
vt 0.6611 0.9149 0.0000
vt 0.4241 0.9218 0.0000
vt 0.7883 0.8831 0.0000
vt 0.7769 0.9013 0.0000
vt 0.3746 0.6193 0.0000
vt 0.4245 0.5915 0.0000
vt 0.4245 0.5481 0.0000
vt 0.3532 0.5879 0.0000
vt 0.4245 0.4919 0.0000
vt 0.3532 0.5317 0.0000
vt 0.7693 0.9458 0.0000
vt 0.0397 0.2775 0.0000
vt 0.6354 0.2775 0.0000
vt 0.6486 0.3847 0.0000
vt 0.0429 0.4122 0.0000
vt 0.8744 0.2775 0.0000
vt 0.4245 0.7887 0.0000
vt 0.4744 0.6193 0.0000
vt 0.4958 0.5879 0.0000
vt 0.4958 0.5317 0.0000
vt 0.0429 0.1428 0.0000
vt 0.6486 0.1704 0.0000
vt 0.3749 0.8079 0.0000
vt 0.7277 0.0334 0.0000
vt 0.7907 0.1010 0.0000
vt 0.7277 0.1487 0.0000
vt 0.6647 0.1010 0.0000
vt 0.8997 0.1898 0.0000
vt 0.8318 0.1317 0.0000
vt 0.8899 0.0638 0.0000
vt 0.9578 0.1219 0.0000
# 35 texture coords

o sword1_LOD003
g sword1_LOD003
usemtl Material__232
s 1
f 1/1/1 2/2/2 3/3/3 
f 3/3/3 4/4/4 1/1/1 
f 4/4/4 5/5/5 6/6/6 
f 6/6/6 1/1/1 4/4/4 
f 3/3/3 7/7/7 8/8/8 
f 8/8/8 4/4/4 3/3/3 
f 9/9/9 10/10/10 11/11/11 
f 11/11/11 12/12/12 9/9/9 
f 12/12/12 11/11/11 13/13/13 
f 13/13/13 14/14/14 12/12/12 
f 5/5/5 4/4/4 8/8/8 
f 8/8/8 15/15/15 5/5/5 
f 16/4/16 17/1/17 6/6/6 
f 6/6/6 5/5/5 16/4/16 
f 3/3/3 16/4/16 18/8/18 
f 18/8/18 7/7/7 3/3/3 
f 9/9/9 12/12/12 19/11/19 
f 19/11/19 20/10/20 9/9/9 
f 12/12/12 14/14/14 21/13/21 
f 21/13/21 19/11/19 12/12/12 
f 5/5/5 15/15/15 18/8/18 
f 18/8/18 16/4/16 5/5/5 
f 22/16/22 23/17/23 24/18/24 
f 24/18/24 25/19/25 22/16/22 
f 23/17/23 26/20/6 24/18/24 
f 27/16/26 25/19/25 24/18/24 
f 24/18/24 28/17/27 27/16/26 
f 28/17/27 24/18/24 26/20/6 
f 29/4/28 1/1/1 6/6/6 
f 6/6/6 30/5/29 29/4/28 
f 31/3/30 29/4/28 32/8/31 
f 32/8/31 33/7/32 31/3/30 
f 10/10/10 34/21/33 35/2/34 
f 35/2/34 36/22/35 10/10/10 
f 36/22/35 37/23/36 11/11/11 
f 11/11/11 10/10/10 36/22/35 
f 37/23/36 38/24/37 13/13/13 
f 13/13/13 11/11/11 37/23/36 
f 30/5/29 39/15/38 32/8/31 
f 32/8/31 29/4/28 30/5/29 
f 17/1/17 35/2/34 31/3/30 
f 31/3/30 40/4/39 17/1/17 
f 40/4/39 30/5/29 6/6/6 
f 6/6/6 17/1/17 40/4/39 
f 31/3/30 33/7/32 41/8/40 
f 41/8/40 40/4/39 31/3/30 
f 20/10/20 19/11/19 37/23/36 
f 37/23/36 36/22/35 20/10/20 
f 19/11/19 21/13/21 38/24/37 
f 38/24/37 37/23/36 19/11/19 
f 30/5/29 40/4/39 41/8/40 
f 41/8/40 39/15/38 30/5/29 
f 22/16/22 42/25/41 43/26/42 
f 43/26/42 23/17/23 22/16/22 
f 23/17/23 43/26/42 26/20/6 
f 27/16/26 28/17/27 43/26/42 
f 43/26/42 42/25/41 27/16/26 
f 28/17/27 26/20/6 43/26/42 
f 9/9/9 2/27/2 34/21/33 
f 34/21/33 10/10/10 9/9/9 
f 29/4/28 31/3/30 35/2/34 
f 35/2/34 1/1/1 29/4/28 
f 7/28/7 18/29/18 15/30/15 
f 15/30/15 8/31/8 7/28/7 
f 39/30/38 41/29/40 33/28/32 
f 33/28/32 32/31/31 39/30/38 
f 2/27/2 1/1/1 34/21/33 
f 34/21/33 1/1/1 35/2/34 
f 20/10/20 44/21/43 2/27/2 
f 2/27/2 9/9/9 20/10/20 
f 2/2/2 17/1/17 16/4/16 
f 16/4/16 3/3/3 2/2/2 
f 20/10/20 36/22/35 35/2/34 
f 35/2/34 44/21/43 20/10/20 
f 44/21/43 17/1/17 2/27/2 
f 35/2/34 17/1/17 44/21/43 
f 38/32/37 21/33/21 14/34/14 
f 14/34/14 13/35/13 38/32/37 
# 78 faces

