# 3ds Max Wavefront OBJ Exporter v0.97b - (c)2007 guruware
# File Created: 06.08.2019 14:56:34

mtllib Sword43f.mtl

#
# object sword1_LOD003
#

v  0.0918 0.6791 0.4983
v  0.0404 0.6928 0.4539
v  -0.0646 0.7715 0.5030
v  -0.0433 0.7763 0.5441
v  -0.0594 0.7437 0.5696
v  0.0704 0.6381 0.5323
v  -0.1291 0.8029 0.5822
v  -0.1080 0.8060 0.6065
v  0.0331 0.7795 0.2232
v  0.0840 0.7835 0.2232
v  0.0933 0.8043 0.2014
v  0.0206 0.7985 0.2015
v  0.0918 0.8215 0.1556
v  0.0192 0.8157 0.1558
v  -0.1178 0.7814 0.6144
v  -0.0793 0.7369 0.5304
v  0.0463 0.6293 0.4810
v  -0.1368 0.7745 0.5955
v  0.0260 0.7305 0.1758
v  0.0369 0.7320 0.2052
v  0.0245 0.7477 0.1300
v  0.0502 0.6346 0.4798
v  0.0763 0.3621 1.2146
v  0.0371 0.4232 1.2388
v  0.0018 0.7088 0.5092
v  0.0985 0.3021 1.4260
v  0.0877 0.6758 0.4941
v  0.1078 0.3966 1.2266
v  0.2177 0.5682 0.4576
v  0.1999 0.5369 0.4837
v  0.2008 0.5599 0.4151
v  0.2779 0.4982 0.4787
v  0.2689 0.4855 0.4503
v  0.0884 0.6918 0.4577
v  0.0950 0.6493 0.4358
v  0.0877 0.7360 0.2052
v  0.0986 0.7363 0.1756
v  0.0972 0.7535 0.1299
v  0.2598 0.4803 0.4893
v  0.1818 0.5287 0.4440
v  0.2492 0.4667 0.4677
v  0.1362 0.6016 0.4647
v  0.1470 0.3356 1.2024
v  0.0470 0.6463 0.4419
# 44 vertices

vn 0.6506 0.6710 0.3556
vn -0.6318 0.7009 -0.3309
vn -0.2610 0.5234 -0.8111
vn 0.5779 0.7881 0.2120
vn 0.1895 -0.4720 0.8610
vn 0.0294 -0.3518 0.9356
vn -0.6811 0.6981 -0.2206
vn 0.1195 0.7744 0.6213
vn -0.7142 0.4758 0.5134
vn 0.6314 0.5823 0.5122
vn 0.6420 0.6155 0.4572
vn -0.7298 0.5064 0.4592
vn 0.5160 0.7874 -0.3372
vn -0.6350 0.6959 -0.3355
vn -0.1951 -0.1582 0.9679
vn -0.7222 -0.6331 -0.2786
vn -0.6437 -0.7528 -0.1375
vn -0.9075 -0.3513 0.2303
vn -0.6285 -0.7774 -0.0266
vn -0.6163 -0.7868 0.0326
vn -0.5499 -0.3812 -0.7431
vn -0.6526 -0.7179 -0.2423
vn -0.6501 -0.7344 -0.1948
vn -0.7433 0.5419 0.3922
vn -0.7561 0.5962 0.2699
vn 0.6530 0.7132 0.2547
vn 0.6535 0.6943 0.3015
vn 0.7187 0.6747 0.1679
vn -0.1321 -0.2155 0.9675
vn 0.2051 0.1455 -0.9679
vn 0.9259 0.1315 0.3542
vn 0.6534 -0.3660 -0.6626
vn 0.6498 0.7292 0.2147
vn 0.6046 -0.2957 -0.7396
vn 0.7334 -0.6791 0.0298
vn 0.7436 -0.6680 -0.0286
vn 0.6012 -0.2895 -0.7448
vn 0.2513 -0.5141 0.8201
vn -0.5816 -0.7445 -0.3278
vn -0.1012 -0.9942 -0.0368
vn 0.7574 -0.6106 -0.2314
vn 0.7524 -0.6506 -0.1031
vn -0.6532 -0.7051 -0.2761
# 43 vertex normals

vt 0.4245 0.8426 0.0000
vt 0.4742 0.8079 0.0000
vt 0.6667 0.8270 0.0000
vt 0.6627 0.8536 0.0000
vt 0.6611 0.9149 0.0000
vt 0.4241 0.9218 0.0000
vt 0.7883 0.8831 0.0000
vt 0.7769 0.9013 0.0000
vt 0.3746 0.6193 0.0000
vt 0.4245 0.5915 0.0000
vt 0.4245 0.5481 0.0000
vt 0.3532 0.5879 0.0000
vt 0.4245 0.4919 0.0000
vt 0.3532 0.5317 0.0000
vt 0.7693 0.9458 0.0000
vt 0.0397 0.2775 0.0000
vt 0.6354 0.2775 0.0000
vt 0.6486 0.3847 0.0000
vt 0.0429 0.4122 0.0000
vt 0.8744 0.2775 0.0000
vt 0.4245 0.7887 0.0000
vt 0.4744 0.6193 0.0000
vt 0.4958 0.5879 0.0000
vt 0.4958 0.5317 0.0000
vt 0.0429 0.1428 0.0000
vt 0.6486 0.1704 0.0000
vt 0.3749 0.8079 0.0000
vt 0.7277 0.0334 0.0000
vt 0.7907 0.1010 0.0000
vt 0.7277 0.1487 0.0000
vt 0.6647 0.1010 0.0000
vt 0.8997 0.1898 0.0000
vt 0.8318 0.1317 0.0000
vt 0.8899 0.0638 0.0000
vt 0.9578 0.1219 0.0000
# 35 texture coords

o sword1_LOD003
g sword1_LOD003
usemtl Material__232
s 1
f 1/1/1 2/2/2 3/3/3 
f 3/3/3 4/4/4 1/1/1 
f 4/4/4 5/5/5 6/6/6 
f 6/6/6 1/1/1 4/4/4 
f 3/3/3 7/7/7 8/8/8 
f 8/8/8 4/4/4 3/3/3 
f 9/9/9 10/10/10 11/11/11 
f 11/11/11 12/12/12 9/9/9 
f 12/12/12 11/11/11 13/13/13 
f 13/13/13 14/14/14 12/12/12 
f 5/5/5 4/4/4 8/8/8 
f 8/8/8 15/15/15 5/5/5 
f 16/4/16 17/1/17 6/6/6 
f 6/6/6 5/5/5 16/4/16 
f 3/3/3 16/4/16 18/8/18 
f 18/8/18 7/7/7 3/3/3 
f 9/9/9 12/12/12 19/11/19 
f 19/11/19 20/10/20 9/9/9 
f 12/12/12 14/14/14 21/13/21 
f 21/13/21 19/11/19 12/12/12 
f 5/5/5 15/15/15 18/8/18 
f 18/8/18 16/4/16 5/5/5 
f 22/16/22 23/17/23 24/18/24 
f 24/18/24 25/19/25 22/16/22 
f 23/17/23 26/20/6 24/18/24 
f 27/16/26 25/19/25 24/18/24 
f 24/18/24 28/17/27 27/16/26 
f 28/17/27 24/18/24 26/20/6 
f 29/4/28 1/1/1 6/6/6 
f 6/6/6 30/5/29 29/4/28 
f 31/3/30 29/4/28 32/8/31 
f 32/8/31 33/7/32 31/3/30 
f 10/10/10 34/21/33 35/2/34 
f 35/2/34 36/22/35 10/10/10 
f 36/22/35 37/23/36 11/11/11 
f 11/11/11 10/10/10 36/22/35 
f 37/23/36 38/24/37 13/13/13 
f 13/13/13 11/11/11 37/23/36 
f 30/5/29 39/15/38 32/8/31 
f 32/8/31 29/4/28 30/5/29 
f 17/1/17 35/2/34 31/3/30 
f 31/3/30 40/4/39 17/1/17 
f 40/4/39 30/5/29 6/6/6 
f 6/6/6 17/1/17 40/4/39 
f 31/3/30 33/7/32 41/8/40 
f 41/8/40 40/4/39 31/3/30 
f 20/10/20 19/11/19 37/23/36 
f 37/23/36 36/22/35 20/10/20 
f 19/11/19 21/13/21 38/24/37 
f 38/24/37 37/23/36 19/11/19 
f 30/5/29 40/4/39 41/8/40 
f 41/8/40 39/15/38 30/5/29 
f 22/16/22 42/25/41 43/26/42 
f 43/26/42 23/17/23 22/16/22 
f 23/17/23 43/26/42 26/20/6 
f 27/16/26 28/17/27 43/26/42 
f 43/26/42 42/25/41 27/16/26 
f 28/17/27 26/20/6 43/26/42 
f 9/9/9 2/27/2 34/21/33 
f 34/21/33 10/10/10 9/9/9 
f 29/4/28 31/3/30 35/2/34 
f 35/2/34 1/1/1 29/4/28 
f 7/28/7 18/29/18 15/30/15 
f 15/30/15 8/31/8 7/28/7 
f 39/30/38 41/29/40 33/28/32 
f 33/28/32 32/31/31 39/30/38 
f 2/27/2 1/1/1 34/21/33 
f 34/21/33 1/1/1 35/2/34 
f 20/10/20 44/21/43 2/27/2 
f 2/27/2 9/9/9 20/10/20 
f 2/2/2 17/1/17 16/4/16 
f 16/4/16 3/3/3 2/2/2 
f 20/10/20 36/22/35 35/2/34 
f 35/2/34 44/21/43 20/10/20 
f 44/21/43 17/1/17 2/27/2 
f 35/2/34 17/1/17 44/21/43 
f 38/32/37 21/33/21 14/34/14 
f 14/34/14 13/35/13 38/32/37 
# 78 faces

