# 3ds Max Wavefront OBJ Exporter v0.97b - (c)2007 guruware
# File Created: 06.08.2019 14:56:33

mtllib Sword40f.mtl

#
# object sword1_LOD003
#

v  0.3490 0.6582 -0.8101
v  0.3926 0.6472 -0.7573
v  0.5221 0.6987 -0.7722
v  0.5112 0.7173 -0.8134
v  0.5228 0.6867 -0.8436
v  0.3650 0.6199 -0.8496
v  0.6067 0.7236 -0.8325
v  0.5923 0.7374 -0.8580
v  0.3777 0.6826 -0.5138
v  0.3308 0.7015 -0.5194
v  0.3232 0.7196 -0.4947
v  0.3904 0.6925 -0.4867
v  0.3203 0.7266 -0.4465
v  0.3874 0.6995 -0.4384
v  0.5965 0.7130 -0.8701
v  0.5322 0.6671 -0.8048
v  0.3755 0.5947 -0.7992
v  0.6090 0.6972 -0.8511
v  0.3624 0.6256 -0.4787
v  0.3582 0.6358 -0.5082
v  0.3594 0.6326 -0.4304
v  0.3730 0.6007 -0.7973
v  0.4186 0.4924 -1.5725
v  0.4765 0.5424 -1.5763
v  0.4440 0.6610 -0.8017
v  0.4227 0.4829 -1.7932
v  0.3512 0.6531 -0.8062
v  0.4003 0.5364 -1.5800
v  0.1929 0.5845 -0.8136
v  0.2065 0.5549 -0.8438
v  0.1984 0.5637 -0.7724
v  0.1216 0.5411 -0.8583
v  0.1213 0.5212 -0.8328
v  0.3477 0.6614 -0.7675
v  0.3261 0.6195 -0.7573
v  0.3112 0.6548 -0.5138
v  0.2952 0.6528 -0.4868
v  0.2923 0.6598 -0.4385
v  0.1360 0.5209 -0.8704
v  0.2138 0.5343 -0.8050
v  0.1384 0.5010 -0.8514
v  0.2802 0.5927 -0.8018
v  0.3425 0.4865 -1.5763
v  0.3718 0.6035 -0.7576
# 44 vertices

vn -0.3691 0.8897 -0.2689
vn 0.7180 0.4036 0.5672
vn 0.2278 0.2580 0.9389
vn -0.2972 0.9502 -0.0935
vn -0.1370 -0.2219 -0.9654
vn 0.0604 -0.1434 -0.9878
vn 0.7851 0.4070 0.4668
vn 0.2115 0.8774 -0.4307
vn 0.8997 0.3278 -0.2882
vn -0.3440 0.8305 -0.4381
vn -0.3559 0.8543 -0.3787
vn 0.9121 0.3416 -0.2267
vn -0.3451 0.8273 0.4433
vn 0.7187 0.3971 0.5708
vn 0.3299 -0.0235 -0.9437
vn 0.4616 -0.8611 0.2132
vn 0.3831 -0.9229 0.0387
vn 0.8095 -0.5570 -0.1858
vn 0.3837 -0.9203 -0.0758
vn 0.3812 -0.9143 -0.1367
vn 0.2754 -0.6617 0.6974
vn 0.3805 -0.9127 0.1491
vn 0.3829 -0.9184 0.0991
vn 0.9212 0.3581 -0.1521
vn 0.9240 0.3819 -0.0197
vn -0.3797 0.9108 -0.1622
vn -0.3761 0.9021 -0.2117
vn -0.4687 0.8781 -0.0962
vn 0.2551 -0.0584 -0.9651
vn -0.3427 0.0147 0.9393
vn -0.7717 0.4674 -0.4313
vn -0.8422 -0.2716 0.4657
vn -0.3801 0.9172 -0.1194
vn -0.7924 -0.2351 0.5629
vn -0.8664 -0.4097 -0.2854
vn -0.8844 -0.4073 -0.2279
vn -0.7886 -0.2312 0.5698
vn -0.2144 -0.2505 -0.9441
vn 0.2898 -0.9325 0.2157
vn -0.1737 -0.9670 -0.1865
vn -0.9215 -0.3878 -0.0209
vn -0.9025 -0.4024 -0.1532
vn 0.3778 -0.9073 0.1847
# 43 vertex normals

vt 0.4245 0.8426 0.0000
vt 0.4742 0.8079 0.0000
vt 0.6667 0.8270 0.0000
vt 0.6627 0.8536 0.0000
vt 0.6611 0.9149 0.0000
vt 0.4241 0.9218 0.0000
vt 0.7883 0.8831 0.0000
vt 0.7769 0.9013 0.0000
vt 0.3746 0.6193 0.0000
vt 0.4245 0.5915 0.0000
vt 0.4245 0.5481 0.0000
vt 0.3532 0.5879 0.0000
vt 0.4245 0.4919 0.0000
vt 0.3532 0.5317 0.0000
vt 0.7693 0.9458 0.0000
vt 0.0397 0.2775 0.0000
vt 0.6354 0.2775 0.0000
vt 0.6486 0.3847 0.0000
vt 0.0429 0.4122 0.0000
vt 0.8744 0.2775 0.0000
vt 0.4245 0.7887 0.0000
vt 0.4744 0.6193 0.0000
vt 0.4958 0.5879 0.0000
vt 0.4958 0.5317 0.0000
vt 0.0429 0.1428 0.0000
vt 0.6486 0.1704 0.0000
vt 0.3749 0.8079 0.0000
vt 0.7277 0.0334 0.0000
vt 0.7907 0.1010 0.0000
vt 0.7277 0.1487 0.0000
vt 0.6647 0.1010 0.0000
vt 0.8997 0.1898 0.0000
vt 0.8318 0.1317 0.0000
vt 0.8899 0.0638 0.0000
vt 0.9578 0.1219 0.0000
# 35 texture coords

o sword1_LOD003
g sword1_LOD003
usemtl Material__232
s 1
f 1/1/1 2/2/2 3/3/3 
f 3/3/3 4/4/4 1/1/1 
f 4/4/4 5/5/5 6/6/6 
f 6/6/6 1/1/1 4/4/4 
f 3/3/3 7/7/7 8/8/8 
f 8/8/8 4/4/4 3/3/3 
f 9/9/9 10/10/10 11/11/11 
f 11/11/11 12/12/12 9/9/9 
f 12/12/12 11/11/11 13/13/13 
f 13/13/13 14/14/14 12/12/12 
f 5/5/5 4/4/4 8/8/8 
f 8/8/8 15/15/15 5/5/5 
f 16/4/16 17/1/17 6/6/6 
f 6/6/6 5/5/5 16/4/16 
f 3/3/3 16/4/16 18/8/18 
f 18/8/18 7/7/7 3/3/3 
f 9/9/9 12/12/12 19/11/19 
f 19/11/19 20/10/20 9/9/9 
f 12/12/12 14/14/14 21/13/21 
f 21/13/21 19/11/19 12/12/12 
f 5/5/5 15/15/15 18/8/18 
f 18/8/18 16/4/16 5/5/5 
f 22/16/22 23/17/23 24/18/24 
f 24/18/24 25/19/25 22/16/22 
f 23/17/23 26/20/6 24/18/24 
f 27/16/26 25/19/25 24/18/24 
f 24/18/24 28/17/27 27/16/26 
f 28/17/27 24/18/24 26/20/6 
f 29/4/28 1/1/1 6/6/6 
f 6/6/6 30/5/29 29/4/28 
f 31/3/30 29/4/28 32/8/31 
f 32/8/31 33/7/32 31/3/30 
f 10/10/10 34/21/33 35/2/34 
f 35/2/34 36/22/35 10/10/10 
f 36/22/35 37/23/36 11/11/11 
f 11/11/11 10/10/10 36/22/35 
f 37/23/36 38/24/37 13/13/13 
f 13/13/13 11/11/11 37/23/36 
f 30/5/29 39/15/38 32/8/31 
f 32/8/31 29/4/28 30/5/29 
f 17/1/17 35/2/34 31/3/30 
f 31/3/30 40/4/39 17/1/17 
f 40/4/39 30/5/29 6/6/6 
f 6/6/6 17/1/17 40/4/39 
f 31/3/30 33/7/32 41/8/40 
f 41/8/40 40/4/39 31/3/30 
f 20/10/20 19/11/19 37/23/36 
f 37/23/36 36/22/35 20/10/20 
f 19/11/19 21/13/21 38/24/37 
f 38/24/37 37/23/36 19/11/19 
f 30/5/29 40/4/39 41/8/40 
f 41/8/40 39/15/38 30/5/29 
f 22/16/22 42/25/41 43/26/42 
f 43/26/42 23/17/23 22/16/22 
f 23/17/23 43/26/42 26/20/6 
f 27/16/26 28/17/27 43/26/42 
f 43/26/42 42/25/41 27/16/26 
f 28/17/27 26/20/6 43/26/42 
f 9/9/9 2/27/2 34/21/33 
f 34/21/33 10/10/10 9/9/9 
f 29/4/28 31/3/30 35/2/34 
f 35/2/34 1/1/1 29/4/28 
f 7/28/7 18/29/18 15/30/15 
f 15/30/15 8/31/8 7/28/7 
f 39/30/38 41/29/40 33/28/32 
f 33/28/32 32/31/31 39/30/38 
f 2/27/2 1/1/1 34/21/33 
f 34/21/33 1/1/1 35/2/34 
f 20/10/20 44/21/43 2/27/2 
f 2/27/2 9/9/9 20/10/20 
f 2/2/2 17/1/17 16/4/16 
f 16/4/16 3/3/3 2/2/2 
f 20/10/20 36/22/35 35/2/34 
f 35/2/34 44/21/43 20/10/20 
f 44/21/43 17/1/17 2/27/2 
f 35/2/34 17/1/17 44/21/43 
f 38/32/37 21/33/21 14/34/14 
f 14/34/14 13/35/13 38/32/37 
# 78 faces

