# 3ds Max Wavefront OBJ Exporter v0.97b - (c)2007 guruware
# File Created: 06.08.2019 14:56:28

mtllib Sword28f.mtl

#
# object sword1_LOD003
#

v  -0.0780 0.4949 0.1541
v  -0.0810 0.4400 0.1120
v  -0.0744 0.3143 0.1736
v  -0.0729 0.3338 0.2159
v  -0.0297 0.3378 0.2255
v  -0.0225 0.4991 0.1679
v  -0.0384 0.2493 0.2504
v  -0.0418 0.2681 0.2765
v  -0.2333 0.3726 -0.0698
v  -0.2609 0.4148 -0.0623
v  -0.2900 0.4110 -0.0736
v  -0.2506 0.3507 -0.0844
v  -0.3202 0.3977 -0.1097
v  -0.2808 0.3374 -0.1204
v  -0.0147 0.2723 0.2736
v  -0.0296 0.3206 0.1844
v  -0.0233 0.4783 0.1144
v  -0.0072 0.2576 0.2514
v  -0.2090 0.3864 -0.1324
v  -0.2043 0.3976 -0.1034
v  -0.2392 0.3731 -0.1684
v  -0.0299 0.4790 0.1158
v  0.4510 0.6942 0.6965
v  0.4306 0.6323 0.7365
v  -0.0542 0.4031 0.1643
v  0.5677 0.7599 0.8721
v  -0.0750 0.4927 0.1485
v  0.4131 0.7057 0.7240
v  -0.0660 0.6552 0.0910
v  -0.0228 0.6571 0.1014
v  -0.0674 0.6411 0.0466
v  -0.0315 0.7433 0.0919
v  -0.0278 0.7394 0.0600
v  -0.1018 0.4825 0.1209
v  -0.0796 0.5071 0.0859
v  -0.2319 0.4398 -0.0958
v  -0.2485 0.4468 -0.1217
v  -0.2787 0.4334 -0.1577
v  -0.0046 0.7372 0.0929
v  -0.0227 0.6420 0.0596
v  0.0031 0.7328 0.0667
v  -0.0507 0.5685 0.1000
v  0.4335 0.7676 0.6839
v  -0.0519 0.4674 0.0847
# 44 vertices

vn -0.7092 0.2671 0.6524
vn -0.3770 -0.9179 -0.1236
vn -0.5957 -0.5480 -0.5872
vn -0.8213 0.1352 0.5543
vn 0.6081 0.4648 0.6436
vn 0.6179 0.2731 0.7373
vn -0.3095 -0.9505 -0.0288
vn -0.4360 -0.2234 0.8718
vn 0.1597 -0.8112 0.5626
vn -0.5705 0.3063 0.7620
vn -0.6227 0.2949 0.7247
vn 0.1225 -0.8441 0.5220
vn -0.9985 0.0371 0.0400
vn -0.3733 -0.9186 -0.1300
vn 0.5845 -0.0139 0.8113
vn 0.7426 -0.3416 -0.5761
vn 0.8530 -0.2034 -0.4806
vn 0.8005 -0.5988 -0.0255
vn 0.9071 -0.1693 -0.3855
vn 0.9311 -0.1493 -0.3328
vn 0.2850 -0.3524 -0.8914
vn 0.7900 -0.2368 -0.5655
vn 0.8199 -0.2227 -0.5274
vn 0.0755 -0.8785 0.4717
vn -0.0075 -0.9261 0.3772
vn -0.7819 0.2404 0.5752
vn -0.7495 0.2538 0.6115
vn -0.8157 0.3093 0.4888
vn 0.5995 0.0689 0.7974
vn -0.5792 0.0288 -0.8147
vn -0.4145 0.7694 0.4861
vn -0.2739 0.6927 -0.6672
vn -0.8081 0.2265 0.5438
vn -0.3352 0.6097 -0.7182
vn 0.1973 0.9711 -0.1340
vn 0.1616 0.9698 -0.1825
vn -0.3405 0.6033 -0.7212
vn 0.5964 0.5357 0.5977
vn 0.7448 -0.1690 -0.6456
vn 0.8220 0.3940 -0.4112
vn 0.0329 0.9374 -0.3468
vn 0.1154 0.9629 -0.2438
vn 0.7674 -0.2462 -0.5920
# 43 vertex normals

vt 0.4245 0.8426 0.0000
vt 0.4742 0.8079 0.0000
vt 0.6667 0.8270 0.0000
vt 0.6627 0.8536 0.0000
vt 0.6611 0.9149 0.0000
vt 0.4241 0.9218 0.0000
vt 0.7883 0.8831 0.0000
vt 0.7769 0.9013 0.0000
vt 0.3746 0.6193 0.0000
vt 0.4245 0.5915 0.0000
vt 0.4245 0.5481 0.0000
vt 0.3532 0.5879 0.0000
vt 0.4245 0.4919 0.0000
vt 0.3532 0.5317 0.0000
vt 0.7693 0.9458 0.0000
vt 0.0397 0.2775 0.0000
vt 0.6354 0.2775 0.0000
vt 0.6486 0.3847 0.0000
vt 0.0429 0.4122 0.0000
vt 0.8744 0.2775 0.0000
vt 0.4245 0.7887 0.0000
vt 0.4744 0.6193 0.0000
vt 0.4958 0.5879 0.0000
vt 0.4958 0.5317 0.0000
vt 0.0429 0.1428 0.0000
vt 0.6486 0.1704 0.0000
vt 0.3749 0.8079 0.0000
vt 0.7277 0.0334 0.0000
vt 0.7907 0.1010 0.0000
vt 0.7277 0.1487 0.0000
vt 0.6647 0.1010 0.0000
vt 0.8997 0.1898 0.0000
vt 0.8318 0.1317 0.0000
vt 0.8899 0.0638 0.0000
vt 0.9578 0.1219 0.0000
# 35 texture coords

o sword1_LOD003
g sword1_LOD003
usemtl Material__232
s 1
f 1/1/1 2/2/2 3/3/3 
f 3/3/3 4/4/4 1/1/1 
f 4/4/4 5/5/5 6/6/6 
f 6/6/6 1/1/1 4/4/4 
f 3/3/3 7/7/7 8/8/8 
f 8/8/8 4/4/4 3/3/3 
f 9/9/9 10/10/10 11/11/11 
f 11/11/11 12/12/12 9/9/9 
f 12/12/12 11/11/11 13/13/13 
f 13/13/13 14/14/14 12/12/12 
f 5/5/5 4/4/4 8/8/8 
f 8/8/8 15/15/15 5/5/5 
f 16/4/16 17/1/17 6/6/6 
f 6/6/6 5/5/5 16/4/16 
f 3/3/3 16/4/16 18/8/18 
f 18/8/18 7/7/7 3/3/3 
f 9/9/9 12/12/12 19/11/19 
f 19/11/19 20/10/20 9/9/9 
f 12/12/12 14/14/14 21/13/21 
f 21/13/21 19/11/19 12/12/12 
f 5/5/5 15/15/15 18/8/18 
f 18/8/18 16/4/16 5/5/5 
f 22/16/22 23/17/23 24/18/24 
f 24/18/24 25/19/25 22/16/22 
f 23/17/23 26/20/6 24/18/24 
f 27/16/26 25/19/25 24/18/24 
f 24/18/24 28/17/27 27/16/26 
f 28/17/27 24/18/24 26/20/6 
f 29/4/28 1/1/1 6/6/6 
f 6/6/6 30/5/29 29/4/28 
f 31/3/30 29/4/28 32/8/31 
f 32/8/31 33/7/32 31/3/30 
f 10/10/10 34/21/33 35/2/34 
f 35/2/34 36/22/35 10/10/10 
f 36/22/35 37/23/36 11/11/11 
f 11/11/11 10/10/10 36/22/35 
f 37/23/36 38/24/37 13/13/13 
f 13/13/13 11/11/11 37/23/36 
f 30/5/29 39/15/38 32/8/31 
f 32/8/31 29/4/28 30/5/29 
f 17/1/17 35/2/34 31/3/30 
f 31/3/30 40/4/39 17/1/17 
f 40/4/39 30/5/29 6/6/6 
f 6/6/6 17/1/17 40/4/39 
f 31/3/30 33/7/32 41/8/40 
f 41/8/40 40/4/39 31/3/30 
f 20/10/20 19/11/19 37/23/36 
f 37/23/36 36/22/35 20/10/20 
f 19/11/19 21/13/21 38/24/37 
f 38/24/37 37/23/36 19/11/19 
f 30/5/29 40/4/39 41/8/40 
f 41/8/40 39/15/38 30/5/29 
f 22/16/22 42/25/41 43/26/42 
f 43/26/42 23/17/23 22/16/22 
f 23/17/23 43/26/42 26/20/6 
f 27/16/26 28/17/27 43/26/42 
f 43/26/42 42/25/41 27/16/26 
f 28/17/27 26/20/6 43/26/42 
f 9/9/9 2/27/2 34/21/33 
f 34/21/33 10/10/10 9/9/9 
f 29/4/28 31/3/30 35/2/34 
f 35/2/34 1/1/1 29/4/28 
f 7/28/7 18/29/18 15/30/15 
f 15/30/15 8/31/8 7/28/7 
f 39/30/38 41/29/40 33/28/32 
f 33/28/32 32/31/31 39/30/38 
f 2/27/2 1/1/1 34/21/33 
f 34/21/33 1/1/1 35/2/34 
f 20/10/20 44/21/43 2/27/2 
f 2/27/2 9/9/9 20/10/20 
f 2/2/2 17/1/17 16/4/16 
f 16/4/16 3/3/3 2/2/2 
f 20/10/20 36/22/35 35/2/34 
f 35/2/34 44/21/43 20/10/20 
f 44/21/43 17/1/17 2/27/2 
f 35/2/34 17/1/17 44/21/43 
f 38/32/37 21/33/21 14/34/14 
f 14/34/14 13/35/13 38/32/37 
# 78 faces

