# 3ds Max Wavefront OBJ Exporter v0.97b - (c)2007 guruware
# File Created: 06.08.2019 14:56:18

mtllib Sword2f.mtl

#
# object sword1_LOD003
#

v  0.0427 0.6237 0.6144
v  -0.0126 0.6615 0.5966
v  -0.0893 0.7125 0.7023
v  -0.0601 0.6945 0.7337
v  -0.0770 0.6547 0.7441
v  0.0207 0.5729 0.6294
v  -0.1304 0.7046 0.8005
v  -0.1049 0.6936 0.8171
v  -0.0465 0.8524 0.4444
v  0.0032 0.8522 0.4330
v  0.0120 0.8803 0.4219
v  -0.0591 0.8806 0.4382
v  0.0053 0.9182 0.3918
v  -0.0658 0.9185 0.4080
v  -0.1175 0.6691 0.8147
v  -0.1049 0.6700 0.7130
v  -0.0139 0.5927 0.5882
v  -0.1407 0.6740 0.8005
v  -0.0718 0.8345 0.3832
v  -0.0554 0.8202 0.4059
v  -0.0786 0.8724 0.3530
v  -0.0094 0.5977 0.5887
v  0.1024 -0.0075 1.0746
v  0.0809 0.0360 1.1339
v  -0.0362 0.6504 0.6608
v  0.1522 -0.1668 1.2193
v  0.0374 0.6232 0.6103
v  0.1416 0.0140 1.0928
v  0.1350 0.5392 0.4954
v  0.1167 0.5004 0.5074
v  0.1091 0.5546 0.4599
v  0.1835 0.4639 0.4647
v  0.1670 0.4678 0.4372
v  0.0342 0.6552 0.5869
v  0.0282 0.6291 0.5468
v  -0.0057 0.8200 0.3946
v  -0.0007 0.8342 0.3670
v  -0.0075 0.8721 0.3368
v  0.1646 0.4444 0.4700
v  0.0902 0.5147 0.4747
v  0.1476 0.4443 0.4481
v  0.0642 0.5705 0.5382
v  0.1631 -0.0295 1.0335
v  -0.0174 0.6270 0.5630
# 44 vertices

vn 0.8228 0.3524 0.4459
vn -0.5363 0.8167 0.2131
vn -0.3042 0.8770 -0.3719
vn 0.7481 0.5307 0.3984
vn 0.2547 -0.8524 0.4567
vn 0.1377 -0.7744 0.6175
vn -0.5635 0.7626 0.3177
vn 0.3815 0.3475 0.8566
vn -0.4991 0.2054 0.8418
vn 0.8168 0.1989 0.5416
vn 0.8230 0.2543 0.5079
vn -0.5186 0.2601 0.8145
vn 0.5844 0.8100 -0.0496
vn -0.5412 0.8149 0.2076
vn -0.0351 -0.6072 0.7938
vn -0.8698 -0.3530 -0.3446
vn -0.7905 -0.5328 -0.3020
vn -0.8978 -0.3515 0.2653
vn -0.7596 -0.6106 -0.2238
vn -0.7385 -0.6494 -0.1813
vn -0.7434 0.0842 -0.6635
vn -0.8123 -0.4494 -0.3717
vn -0.8040 -0.4877 -0.3400
vn -0.5374 0.3253 0.7781
vn -0.5625 0.4344 0.7035
vn 0.8141 0.4392 0.3799
vn 0.8197 0.3995 0.4104
vn 0.8535 0.4447 0.2715
vn 0.0145 -0.6611 0.7502
vn 0.0423 0.5954 -0.8023
vn 0.9839 -0.1323 0.1205
vn 0.4335 -0.0315 -0.9006
vn 0.8065 0.4733 0.3545
vn 0.3854 0.0712 -0.9200
vn 0.5813 -0.6545 -0.4835
vn 0.5822 -0.6164 -0.5302
vn 0.3824 0.0795 -0.9206
vn 0.2983 -0.8728 0.3863
vn -0.7651 -0.4348 -0.4749
vn -0.2955 -0.8313 -0.4708
vn 0.5681 -0.4663 -0.6781
vn 0.5799 -0.5647 -0.5872
vn -0.8167 -0.4215 -0.3941
# 43 vertex normals

vt 0.4245 0.8426 0.0000
vt 0.4742 0.8079 0.0000
vt 0.6667 0.8270 0.0000
vt 0.6627 0.8536 0.0000
vt 0.6611 0.9149 0.0000
vt 0.4241 0.9218 0.0000
vt 0.7883 0.8831 0.0000
vt 0.7769 0.9013 0.0000
vt 0.3746 0.6193 0.0000
vt 0.4245 0.5915 0.0000
vt 0.4245 0.5481 0.0000
vt 0.3532 0.5879 0.0000
vt 0.4245 0.4919 0.0000
vt 0.3532 0.5317 0.0000
vt 0.7693 0.9458 0.0000
vt 0.0397 0.2775 0.0000
vt 0.6354 0.2775 0.0000
vt 0.6486 0.3847 0.0000
vt 0.0429 0.4122 0.0000
vt 0.8744 0.2775 0.0000
vt 0.4245 0.7887 0.0000
vt 0.4744 0.6193 0.0000
vt 0.4958 0.5879 0.0000
vt 0.4958 0.5317 0.0000
vt 0.0429 0.1428 0.0000
vt 0.6486 0.1704 0.0000
vt 0.3749 0.8079 0.0000
vt 0.7277 0.0334 0.0000
vt 0.7907 0.1010 0.0000
vt 0.7277 0.1487 0.0000
vt 0.6647 0.1010 0.0000
vt 0.8997 0.1898 0.0000
vt 0.8318 0.1317 0.0000
vt 0.8899 0.0638 0.0000
vt 0.9578 0.1219 0.0000
# 35 texture coords

o sword1_LOD003
g sword1_LOD003
usemtl Material__232
s 1
f 1/1/1 2/2/2 3/3/3 
f 3/3/3 4/4/4 1/1/1 
f 4/4/4 5/5/5 6/6/6 
f 6/6/6 1/1/1 4/4/4 
f 3/3/3 7/7/7 8/8/8 
f 8/8/8 4/4/4 3/3/3 
f 9/9/9 10/10/10 11/11/11 
f 11/11/11 12/12/12 9/9/9 
f 12/12/12 11/11/11 13/13/13 
f 13/13/13 14/14/14 12/12/12 
f 5/5/5 4/4/4 8/8/8 
f 8/8/8 15/15/15 5/5/5 
f 16/4/16 17/1/17 6/6/6 
f 6/6/6 5/5/5 16/4/16 
f 3/3/3 16/4/16 18/8/18 
f 18/8/18 7/7/7 3/3/3 
f 9/9/9 12/12/12 19/11/19 
f 19/11/19 20/10/20 9/9/9 
f 12/12/12 14/14/14 21/13/21 
f 21/13/21 19/11/19 12/12/12 
f 5/5/5 15/15/15 18/8/18 
f 18/8/18 16/4/16 5/5/5 
f 22/16/22 23/17/23 24/18/24 
f 24/18/24 25/19/25 22/16/22 
f 23/17/23 26/20/6 24/18/24 
f 27/16/26 25/19/25 24/18/24 
f 24/18/24 28/17/27 27/16/26 
f 28/17/27 24/18/24 26/20/6 
f 29/4/28 1/1/1 6/6/6 
f 6/6/6 30/5/29 29/4/28 
f 31/3/30 29/4/28 32/8/31 
f 32/8/31 33/7/32 31/3/30 
f 10/10/10 34/21/33 35/2/34 
f 35/2/34 36/22/35 10/10/10 
f 36/22/35 37/23/36 11/11/11 
f 11/11/11 10/10/10 36/22/35 
f 37/23/36 38/24/37 13/13/13 
f 13/13/13 11/11/11 37/23/36 
f 30/5/29 39/15/38 32/8/31 
f 32/8/31 29/4/28 30/5/29 
f 17/1/17 35/2/34 31/3/30 
f 31/3/30 40/4/39 17/1/17 
f 40/4/39 30/5/29 6/6/6 
f 6/6/6 17/1/17 40/4/39 
f 31/3/30 33/7/32 41/8/40 
f 41/8/40 40/4/39 31/3/30 
f 20/10/20 19/11/19 37/23/36 
f 37/23/36 36/22/35 20/10/20 
f 19/11/19 21/13/21 38/24/37 
f 38/24/37 37/23/36 19/11/19 
f 30/5/29 40/4/39 41/8/40 
f 41/8/40 39/15/38 30/5/29 
f 22/16/22 42/25/41 43/26/42 
f 43/26/42 23/17/23 22/16/22 
f 23/17/23 43/26/42 26/20/6 
f 27/16/26 28/17/27 43/26/42 
f 43/26/42 42/25/41 27/16/26 
f 28/17/27 26/20/6 43/26/42 
f 9/9/9 2/27/2 34/21/33 
f 34/21/33 10/10/10 9/9/9 
f 29/4/28 31/3/30 35/2/34 
f 35/2/34 1/1/1 29/4/28 
f 7/28/7 18/29/18 15/30/15 
f 15/30/15 8/31/8 7/28/7 
f 39/30/38 41/29/40 33/28/32 
f 33/28/32 32/31/31 39/30/38 
f 2/27/2 1/1/1 34/21/33 
f 34/21/33 1/1/1 35/2/34 
f 20/10/20 44/21/43 2/27/2 
f 2/27/2 9/9/9 20/10/20 
f 2/2/2 17/1/17 16/4/16 
f 16/4/16 3/3/3 2/2/2 
f 20/10/20 36/22/35 35/2/34 
f 35/2/34 44/21/43 20/10/20 
f 44/21/43 17/1/17 2/27/2 
f 35/2/34 17/1/17 44/21/43 
f 38/32/37 21/33/21 14/34/14 
f 14/34/14 13/35/13 38/32/37 
# 78 faces

