# 3ds Max Wavefront OBJ Exporter v0.97b - (c)2007 guruware
# File Created: 06.08.2019 14:56:34

mtllib Sword44f.mtl

#
# object sword1_LOD003
#

v  -0.0598 0.7628 0.4789
v  -0.0884 0.7682 0.4159
v  -0.1971 0.8558 0.4045
v  -0.1933 0.8682 0.4492
v  -0.2208 0.8412 0.4714
v  -0.0962 0.7293 0.5079
v  -0.2846 0.9023 0.4446
v  -0.2745 0.9098 0.4743
v  0.0026 0.8091 0.1905
v  0.0496 0.8126 0.2101
v  0.0684 0.8287 0.1906
v  0.0013 0.8237 0.1626
v  0.0864 0.8368 0.1459
v  0.0193 0.8318 0.1179
v  -0.2886 0.8873 0.4818
v  -0.2243 0.8272 0.4293
v  -0.0989 0.7110 0.4537
v  -0.2993 0.8770 0.4584
v  0.0105 0.7520 0.1533
v  0.0091 0.7590 0.1840
v  0.0285 0.7601 0.1086
v  -0.0944 0.7160 0.4532
v  -0.3812 0.5891 1.1719
v  -0.4215 0.6541 1.1674
v  -0.1440 0.7948 0.4475
v  -0.4487 0.5706 1.3814
v  -0.0622 0.7587 0.4740
v  -0.3542 0.6250 1.1893
v  0.0621 0.6450 0.5118
v  0.0329 0.6195 0.5335
v  0.0626 0.6289 0.4681
v  0.1031 0.5799 0.5668
v  0.1049 0.5620 0.5399
v  -0.0459 0.7675 0.4388
v  -0.0350 0.7215 0.4290
v  0.0560 0.7625 0.2036
v  0.0776 0.7570 0.1813
v  0.0957 0.7652 0.1367
v  0.0809 0.5644 0.5723
v  0.0312 0.6040 0.4918
v  0.0784 0.5471 0.5509
v  -0.0126 0.6799 0.4797
v  -0.3139 0.5601 1.1938
v  -0.0816 0.7202 0.4158
# 44 vertices

vn 0.5138 0.7209 0.4650
vn -0.3901 0.6300 -0.6715
vn 0.1227 0.3605 -0.9246
vn 0.5133 0.8090 0.2865
vn -0.2034 -0.2998 0.9321
vn -0.3691 -0.1662 0.9144
vn -0.4787 0.6489 -0.5915
vn -0.0681 0.8781 0.4737
vn -0.8151 0.5716 0.0942
vn 0.4274 0.6641 0.6135
vn 0.4614 0.6860 0.5625
vn -0.8056 0.5915 0.0339
vn 0.6715 0.7036 -0.2325
vn -0.3916 0.6242 -0.6760
vn -0.5711 0.0320 0.8203
vn -0.6063 -0.6683 -0.4309
vn -0.5997 -0.7595 -0.2519
vn -0.9515 -0.2926 -0.0956
vn -0.6313 -0.7625 -0.1417
vn -0.6441 -0.7605 -0.0819
vn -0.2453 -0.5117 -0.8234
vn -0.5640 -0.7452 -0.3558
vn -0.5817 -0.7524 -0.3092
vn -0.7887 0.6136 -0.0379
vn -0.7480 0.6435 -0.1625
vn 0.5591 0.7430 0.3679
vn 0.5396 0.7334 0.4134
vn 0.6500 0.6880 0.3227
vn -0.5180 -0.0249 0.8550
vn 0.5791 -0.0446 -0.8140
vn 0.7209 0.1888 0.6669
vn 0.8271 -0.4920 -0.2717
vn 0.5731 0.7511 0.3278
vn 0.8185 -0.4373 -0.3726
vn 0.6028 -0.6673 0.4374
vn 0.6360 -0.6677 0.3870
vn 0.8179 -0.4322 -0.3798
vn -0.1343 -0.3496 0.9272
vn -0.4676 -0.7884 -0.3997
vn -0.1625 -0.9819 0.0976
vn 0.7328 -0.6503 0.2001
vn 0.6746 -0.6649 0.3205
vn -0.5501 -0.7391 -0.3886
# 43 vertex normals

vt 0.4245 0.8426 0.0000
vt 0.4742 0.8079 0.0000
vt 0.6667 0.8270 0.0000
vt 0.6627 0.8536 0.0000
vt 0.6611 0.9149 0.0000
vt 0.4241 0.9218 0.0000
vt 0.7883 0.8831 0.0000
vt 0.7769 0.9013 0.0000
vt 0.3746 0.6193 0.0000
vt 0.4245 0.5915 0.0000
vt 0.4245 0.5481 0.0000
vt 0.3532 0.5879 0.0000
vt 0.4245 0.4919 0.0000
vt 0.3532 0.5317 0.0000
vt 0.7693 0.9458 0.0000
vt 0.0397 0.2775 0.0000
vt 0.6354 0.2775 0.0000
vt 0.6486 0.3847 0.0000
vt 0.0429 0.4122 0.0000
vt 0.8744 0.2775 0.0000
vt 0.4245 0.7887 0.0000
vt 0.4744 0.6193 0.0000
vt 0.4958 0.5879 0.0000
vt 0.4958 0.5317 0.0000
vt 0.0429 0.1428 0.0000
vt 0.6486 0.1704 0.0000
vt 0.3749 0.8079 0.0000
vt 0.7277 0.0334 0.0000
vt 0.7907 0.1010 0.0000
vt 0.7277 0.1487 0.0000
vt 0.6647 0.1010 0.0000
vt 0.8997 0.1898 0.0000
vt 0.8318 0.1317 0.0000
vt 0.8899 0.0638 0.0000
vt 0.9578 0.1219 0.0000
# 35 texture coords

o sword1_LOD003
g sword1_LOD003
usemtl Material__232
s 1
f 1/1/1 2/2/2 3/3/3 
f 3/3/3 4/4/4 1/1/1 
f 4/4/4 5/5/5 6/6/6 
f 6/6/6 1/1/1 4/4/4 
f 3/3/3 7/7/7 8/8/8 
f 8/8/8 4/4/4 3/3/3 
f 9/9/9 10/10/10 11/11/11 
f 11/11/11 12/12/12 9/9/9 
f 12/12/12 11/11/11 13/13/13 
f 13/13/13 14/14/14 12/12/12 
f 5/5/5 4/4/4 8/8/8 
f 8/8/8 15/15/15 5/5/5 
f 16/4/16 17/1/17 6/6/6 
f 6/6/6 5/5/5 16/4/16 
f 3/3/3 16/4/16 18/8/18 
f 18/8/18 7/7/7 3/3/3 
f 9/9/9 12/12/12 19/11/19 
f 19/11/19 20/10/20 9/9/9 
f 12/12/12 14/14/14 21/13/21 
f 21/13/21 19/11/19 12/12/12 
f 5/5/5 15/15/15 18/8/18 
f 18/8/18 16/4/16 5/5/5 
f 22/16/22 23/17/23 24/18/24 
f 24/18/24 25/19/25 22/16/22 
f 23/17/23 26/20/6 24/18/24 
f 27/16/26 25/19/25 24/18/24 
f 24/18/24 28/17/27 27/16/26 
f 28/17/27 24/18/24 26/20/6 
f 29/4/28 1/1/1 6/6/6 
f 6/6/6 30/5/29 29/4/28 
f 31/3/30 29/4/28 32/8/31 
f 32/8/31 33/7/32 31/3/30 
f 10/10/10 34/21/33 35/2/34 
f 35/2/34 36/22/35 10/10/10 
f 36/22/35 37/23/36 11/11/11 
f 11/11/11 10/10/10 36/22/35 
f 37/23/36 38/24/37 13/13/13 
f 13/13/13 11/11/11 37/23/36 
f 30/5/29 39/15/38 32/8/31 
f 32/8/31 29/4/28 30/5/29 
f 17/1/17 35/2/34 31/3/30 
f 31/3/30 40/4/39 17/1/17 
f 40/4/39 30/5/29 6/6/6 
f 6/6/6 17/1/17 40/4/39 
f 31/3/30 33/7/32 41/8/40 
f 41/8/40 40/4/39 31/3/30 
f 20/10/20 19/11/19 37/23/36 
f 37/23/36 36/22/35 20/10/20 
f 19/11/19 21/13/21 38/24/37 
f 38/24/37 37/23/36 19/11/19 
f 30/5/29 40/4/39 41/8/40 
f 41/8/40 39/15/38 30/5/29 
f 22/16/22 42/25/41 43/26/42 
f 43/26/42 23/17/23 22/16/22 
f 23/17/23 43/26/42 26/20/6 
f 27/16/26 28/17/27 43/26/42 
f 43/26/42 42/25/41 27/16/26 
f 28/17/27 26/20/6 43/26/42 
f 9/9/9 2/27/2 34/21/33 
f 34/21/33 10/10/10 9/9/9 
f 29/4/28 31/3/30 35/2/34 
f 35/2/34 1/1/1 29/4/28 
f 7/28/7 18/29/18 15/30/15 
f 15/30/15 8/31/8 7/28/7 
f 39/30/38 41/29/40 33/28/32 
f 33/28/32 32/31/31 39/30/38 
f 2/27/2 1/1/1 34/21/33 
f 34/21/33 1/1/1 35/2/34 
f 20/10/20 44/21/43 2/27/2 
f 2/27/2 9/9/9 20/10/20 
f 2/2/2 17/1/17 16/4/16 
f 16/4/16 3/3/3 2/2/2 
f 20/10/20 36/22/35 35/2/34 
f 35/2/34 44/21/43 20/10/20 
f 44/21/43 17/1/17 2/27/2 
f 35/2/34 17/1/17 44/21/43 
f 38/32/37 21/33/21 14/34/14 
f 14/34/14 13/35/13 38/32/37 
# 78 faces

