# 3ds Max Wavefront OBJ Exporter v0.97b - (c)2007 guruware
# File Created: 06.08.2019 14:56:35

mtllib Sword46f.mtl

#
# object sword1_LOD003
#

v  -0.0930 0.7455 0.4828
v  -0.1249 0.7617 0.4233
v  -0.2271 0.8571 0.4318
v  -0.2197 0.8628 0.4774
v  -0.2478 0.8348 0.4975
v  -0.1300 0.7108 0.5095
v  -0.3082 0.9033 0.4839
v  -0.2958 0.9058 0.5137
v  -0.0449 0.8280 0.1998
v  0.0032 0.8255 0.2162
v  0.0220 0.8429 0.1979
v  -0.0469 0.8464 0.1743
v  0.0378 0.8561 0.1536
v  -0.0310 0.8596 0.1300
v  -0.3111 0.8834 0.5189
v  -0.2548 0.8272 0.4543
v  -0.1374 0.7006 0.4535
v  -0.3239 0.8773 0.4952
v  -0.0437 0.7763 0.1546
v  -0.0427 0.7790 0.1860
v  -0.0279 0.7895 0.1103
v  -0.1326 0.7053 0.4535
v  -0.3839 0.4973 1.1665
v  -0.4193 0.5647 1.1738
v  -0.1763 0.7872 0.4622
v  -0.4398 0.4538 1.3757
v  -0.0960 0.7424 0.4776
v  -0.3532 0.5284 1.1867
v  0.0213 0.6164 0.4905
v  -0.0084 0.5900 0.5105
v  0.0179 0.6066 0.4451
v  0.0605 0.5415 0.5330
v  0.0593 0.5276 0.5039
v  -0.0813 0.7549 0.4428
v  -0.0745 0.7102 0.4261
v  0.0054 0.7765 0.2025
v  0.0252 0.7728 0.1782
v  0.0410 0.7860 0.1339
v  0.0375 0.5270 0.5378
v  -0.0138 0.5808 0.4673
v  0.0324 0.5130 0.5145
v  -0.0523 0.6604 0.4689
v  -0.3178 0.4610 1.1793
v  -0.1218 0.7139 0.4161
# 44 vertices

vn 0.5947 0.6116 0.5217
vn -0.3811 0.7436 -0.5494
vn 0.0933 0.4790 -0.8729
vn 0.5901 0.7239 0.3575
vn -0.1685 -0.4147 0.8942
vn -0.3243 -0.2690 0.9069
vn -0.4629 0.7568 -0.4615
vn 0.0281 0.8046 0.5932
vn -0.7618 0.6058 0.2293
vn 0.5134 0.5402 0.6668
vn 0.5459 0.5668 0.6171
vn -0.7546 0.6333 0.1718
vn 0.7078 0.6828 -0.1810
vn -0.3833 0.7386 -0.5545
vn -0.5159 -0.0464 0.8554
vn -0.6807 -0.5583 -0.4743
vn -0.6702 -0.6742 -0.3104
vn -0.9751 -0.2116 -0.0670
vn -0.6951 -0.6906 -0.1997
vn -0.7041 -0.6963 -0.1394
vn -0.3334 -0.3722 -0.8662
vn -0.6398 -0.6477 -0.4136
vn -0.6551 -0.6602 -0.3673
vn -0.7404 0.6643 0.1027
vn -0.7052 0.7087 -0.0192
vn 0.6355 0.6441 0.4256
vn 0.6182 0.6296 0.4707
vn 0.7191 0.5901 0.3669
vn -0.4653 -0.1111 0.8781
vn 0.5233 0.0326 -0.8515
vn 0.7725 0.0435 0.6336
vn 0.7690 -0.5028 -0.3947
vn 0.6477 0.6568 0.3861
vn 0.7585 -0.4339 -0.4862
vn 0.5757 -0.7615 0.2979
vn 0.6056 -0.7569 0.2457
vn 0.7579 -0.4278 -0.4925
vn -0.1038 -0.4677 0.8777
vn -0.5499 -0.6906 -0.4697
vn -0.2307 -0.9727 -0.0266
vn 0.6919 -0.7198 0.0566
vn 0.6402 -0.7474 0.1776
vn -0.6276 -0.6380 -0.4462
# 43 vertex normals

vt 0.4245 0.8426 0.0000
vt 0.4742 0.8079 0.0000
vt 0.6667 0.8270 0.0000
vt 0.6627 0.8536 0.0000
vt 0.6611 0.9149 0.0000
vt 0.4241 0.9218 0.0000
vt 0.7883 0.8831 0.0000
vt 0.7769 0.9013 0.0000
vt 0.3746 0.6193 0.0000
vt 0.4245 0.5915 0.0000
vt 0.4245 0.5481 0.0000
vt 0.3532 0.5879 0.0000
vt 0.4245 0.4919 0.0000
vt 0.3532 0.5317 0.0000
vt 0.7693 0.9458 0.0000
vt 0.0397 0.2775 0.0000
vt 0.6354 0.2775 0.0000
vt 0.6486 0.3847 0.0000
vt 0.0429 0.4122 0.0000
vt 0.8744 0.2775 0.0000
vt 0.4245 0.7887 0.0000
vt 0.4744 0.6193 0.0000
vt 0.4958 0.5879 0.0000
vt 0.4958 0.5317 0.0000
vt 0.0429 0.1428 0.0000
vt 0.6486 0.1704 0.0000
vt 0.3749 0.8079 0.0000
vt 0.7277 0.0334 0.0000
vt 0.7907 0.1010 0.0000
vt 0.7277 0.1487 0.0000
vt 0.6647 0.1010 0.0000
vt 0.8997 0.1898 0.0000
vt 0.8318 0.1317 0.0000
vt 0.8899 0.0638 0.0000
vt 0.9578 0.1219 0.0000
# 35 texture coords

o sword1_LOD003
g sword1_LOD003
usemtl Material__232
s 1
f 1/1/1 2/2/2 3/3/3 
f 3/3/3 4/4/4 1/1/1 
f 4/4/4 5/5/5 6/6/6 
f 6/6/6 1/1/1 4/4/4 
f 3/3/3 7/7/7 8/8/8 
f 8/8/8 4/4/4 3/3/3 
f 9/9/9 10/10/10 11/11/11 
f 11/11/11 12/12/12 9/9/9 
f 12/12/12 11/11/11 13/13/13 
f 13/13/13 14/14/14 12/12/12 
f 5/5/5 4/4/4 8/8/8 
f 8/8/8 15/15/15 5/5/5 
f 16/4/16 17/1/17 6/6/6 
f 6/6/6 5/5/5 16/4/16 
f 3/3/3 16/4/16 18/8/18 
f 18/8/18 7/7/7 3/3/3 
f 9/9/9 12/12/12 19/11/19 
f 19/11/19 20/10/20 9/9/9 
f 12/12/12 14/14/14 21/13/21 
f 21/13/21 19/11/19 12/12/12 
f 5/5/5 15/15/15 18/8/18 
f 18/8/18 16/4/16 5/5/5 
f 22/16/22 23/17/23 24/18/24 
f 24/18/24 25/19/25 22/16/22 
f 23/17/23 26/20/6 24/18/24 
f 27/16/26 25/19/25 24/18/24 
f 24/18/24 28/17/27 27/16/26 
f 28/17/27 24/18/24 26/20/6 
f 29/4/28 1/1/1 6/6/6 
f 6/6/6 30/5/29 29/4/28 
f 31/3/30 29/4/28 32/8/31 
f 32/8/31 33/7/32 31/3/30 
f 10/10/10 34/21/33 35/2/34 
f 35/2/34 36/22/35 10/10/10 
f 36/22/35 37/23/36 11/11/11 
f 11/11/11 10/10/10 36/22/35 
f 37/23/36 38/24/37 13/13/13 
f 13/13/13 11/11/11 37/23/36 
f 30/5/29 39/15/38 32/8/31 
f 32/8/31 29/4/28 30/5/29 
f 17/1/17 35/2/34 31/3/30 
f 31/3/30 40/4/39 17/1/17 
f 40/4/39 30/5/29 6/6/6 
f 6/6/6 17/1/17 40/4/39 
f 31/3/30 33/7/32 41/8/40 
f 41/8/40 40/4/39 31/3/30 
f 20/10/20 19/11/19 37/23/36 
f 37/23/36 36/22/35 20/10/20 
f 19/11/19 21/13/21 38/24/37 
f 38/24/37 37/23/36 19/11/19 
f 30/5/29 40/4/39 41/8/40 
f 41/8/40 39/15/38 30/5/29 
f 22/16/22 42/25/41 43/26/42 
f 43/26/42 23/17/23 22/16/22 
f 23/17/23 43/26/42 26/20/6 
f 27/16/26 28/17/27 43/26/42 
f 43/26/42 42/25/41 27/16/26 
f 28/17/27 26/20/6 43/26/42 
f 9/9/9 2/27/2 34/21/33 
f 34/21/33 10/10/10 9/9/9 
f 29/4/28 31/3/30 35/2/34 
f 35/2/34 1/1/1 29/4/28 
f 7/28/7 18/29/18 15/30/15 
f 15/30/15 8/31/8 7/28/7 
f 39/30/38 41/29/40 33/28/32 
f 33/28/32 32/31/31 39/30/38 
f 2/27/2 1/1/1 34/21/33 
f 34/21/33 1/1/1 35/2/34 
f 20/10/20 44/21/43 2/27/2 
f 2/27/2 9/9/9 20/10/20 
f 2/2/2 17/1/17 16/4/16 
f 16/4/16 3/3/3 2/2/2 
f 20/10/20 36/22/35 35/2/34 
f 35/2/34 44/21/43 20/10/20 
f 44/21/43 17/1/17 2/27/2 
f 35/2/34 17/1/17 44/21/43 
f 38/32/37 21/33/21 14/34/14 
f 14/34/14 13/35/13 38/32/37 
# 78 faces

