# 3ds Max Wavefront OBJ Exporter v0.97b - (c)2007 guruware
# File Created: 06.08.2019 14:56:33

mtllib Sword41f.mtl

#
# object sword1_LOD003
#

v  0.6138 0.4069 -0.0092
v  0.5847 0.4089 0.0537
v  0.6720 0.3982 0.1628
v  0.7090 0.3966 0.1345
v  0.7167 0.3534 0.1275
v  0.6252 0.3513 -0.0175
v  0.7604 0.3594 0.2085
v  0.7819 0.3630 0.1846
v  0.4248 0.5618 0.1626
v  0.4235 0.5904 0.1204
v  0.4137 0.6196 0.1273
v  0.4157 0.5786 0.1876
v  0.3821 0.6499 0.1489
v  0.3840 0.6089 0.2092
v  0.7776 0.3360 0.1805
v  0.6804 0.3534 0.1532
v  0.5776 0.3523 0.0144
v  0.7590 0.3284 0.1995
v  0.3602 0.5387 0.1622
v  0.3860 0.5339 0.1449
v  0.3285 0.5690 0.1838
v  0.5789 0.3589 0.0136
v  1.0897 -0.1237 -0.3342
v  1.1427 -0.1055 -0.2821
v  0.6432 0.3805 0.0776
v  1.2446 -0.2409 -0.4394
v  0.6087 0.4039 -0.0058
v  1.1148 -0.0858 -0.3506
v  0.5170 0.4000 -0.1521
v  0.5260 0.3567 -0.1572
v  0.4768 0.4016 -0.1286
v  0.4981 0.3680 -0.2391
v  0.4678 0.3646 -0.2284
v  0.5845 0.4308 0.0107
v  0.5446 0.4097 -0.0062
v  0.3847 0.5625 0.1027
v  0.3583 0.5797 0.1019
v  0.3266 0.6100 0.1235
v  0.4999 0.3408 -0.2340
v  0.4884 0.3568 -0.1334
v  0.4752 0.3334 -0.2241
v  0.5444 0.3823 -0.0698
v  1.0618 -0.1040 -0.4027
v  0.5515 0.3810 0.0322
# 44 vertices

vn 0.5919 0.7075 -0.3862
vn 0.0862 0.3537 0.9314
vn -0.4426 0.5884 0.6767
vn 0.5269 0.8172 -0.2334
vn 0.5155 -0.6038 -0.6081
vn 0.6485 -0.6200 -0.4417
vn 0.1845 0.2840 0.9409
vn 0.9075 0.4182 0.0381
vn 0.7225 -0.1890 0.6650
vn 0.6876 0.5685 -0.4516
vn 0.6548 0.6208 -0.4311
vn 0.6908 -0.1522 0.7069
vn 0.0498 0.9985 -0.0214
vn 0.0800 0.3500 0.9333
vn 0.7837 -0.5953 -0.1771
vn -0.5018 -0.7439 0.4414
vn -0.4407 -0.8518 0.2832
vn 0.0904 -0.8160 0.5710
vn -0.3564 -0.9061 0.2279
vn -0.3098 -0.9303 0.1963
vn -0.7986 -0.2826 0.5314
vn -0.5151 -0.7886 0.3358
vn -0.4816 -0.8186 0.3130
vn 0.6500 -0.1055 0.7526
vn 0.5697 -0.0225 0.8215
vn 0.5237 0.7804 -0.3416
vn 0.5555 0.7479 -0.3633
vn 0.4251 0.8172 -0.3891
vn 0.7519 -0.6079 -0.2551
vn -0.7904 0.5905 0.1631
vn 0.3147 0.4286 -0.8469
vn -0.7967 0.3013 -0.5239
vn 0.4965 0.8066 -0.3206
vn -0.8273 0.3610 -0.4304
vn -0.3458 -0.1692 -0.9229
vn -0.3922 -0.1329 -0.9102
vn -0.8286 0.3662 -0.4234
vn 0.4555 -0.5896 -0.6670
vn -0.6072 -0.7405 0.2881
vn -0.5024 -0.8056 -0.3141
vn -0.5430 -0.0030 -0.8397
vn -0.4496 -0.0861 -0.8891
vn -0.5385 -0.7659 0.3513
# 43 vertex normals

vt 0.4245 0.8426 0.0000
vt 0.4742 0.8079 0.0000
vt 0.6667 0.8270 0.0000
vt 0.6627 0.8536 0.0000
vt 0.6611 0.9149 0.0000
vt 0.4241 0.9218 0.0000
vt 0.7883 0.8831 0.0000
vt 0.7769 0.9013 0.0000
vt 0.3746 0.6193 0.0000
vt 0.4245 0.5915 0.0000
vt 0.4245 0.5481 0.0000
vt 0.3532 0.5879 0.0000
vt 0.4245 0.4919 0.0000
vt 0.3532 0.5317 0.0000
vt 0.7693 0.9458 0.0000
vt 0.0397 0.2775 0.0000
vt 0.6354 0.2775 0.0000
vt 0.6486 0.3847 0.0000
vt 0.0429 0.4122 0.0000
vt 0.8744 0.2775 0.0000
vt 0.4245 0.7887 0.0000
vt 0.4744 0.6193 0.0000
vt 0.4958 0.5879 0.0000
vt 0.4958 0.5317 0.0000
vt 0.0429 0.1428 0.0000
vt 0.6486 0.1704 0.0000
vt 0.3749 0.8079 0.0000
vt 0.7277 0.0334 0.0000
vt 0.7907 0.1010 0.0000
vt 0.7277 0.1487 0.0000
vt 0.6647 0.1010 0.0000
vt 0.8997 0.1898 0.0000
vt 0.8318 0.1317 0.0000
vt 0.8899 0.0638 0.0000
vt 0.9578 0.1219 0.0000
# 35 texture coords

o sword1_LOD003
g sword1_LOD003
usemtl Material__232
s 1
f 1/1/1 2/2/2 3/3/3 
f 3/3/3 4/4/4 1/1/1 
f 4/4/4 5/5/5 6/6/6 
f 6/6/6 1/1/1 4/4/4 
f 3/3/3 7/7/7 8/8/8 
f 8/8/8 4/4/4 3/3/3 
f 9/9/9 10/10/10 11/11/11 
f 11/11/11 12/12/12 9/9/9 
f 12/12/12 11/11/11 13/13/13 
f 13/13/13 14/14/14 12/12/12 
f 5/5/5 4/4/4 8/8/8 
f 8/8/8 15/15/15 5/5/5 
f 16/4/16 17/1/17 6/6/6 
f 6/6/6 5/5/5 16/4/16 
f 3/3/3 16/4/16 18/8/18 
f 18/8/18 7/7/7 3/3/3 
f 9/9/9 12/12/12 19/11/19 
f 19/11/19 20/10/20 9/9/9 
f 12/12/12 14/14/14 21/13/21 
f 21/13/21 19/11/19 12/12/12 
f 5/5/5 15/15/15 18/8/18 
f 18/8/18 16/4/16 5/5/5 
f 22/16/22 23/17/23 24/18/24 
f 24/18/24 25/19/25 22/16/22 
f 23/17/23 26/20/6 24/18/24 
f 27/16/26 25/19/25 24/18/24 
f 24/18/24 28/17/27 27/16/26 
f 28/17/27 24/18/24 26/20/6 
f 29/4/28 1/1/1 6/6/6 
f 6/6/6 30/5/29 29/4/28 
f 31/3/30 29/4/28 32/8/31 
f 32/8/31 33/7/32 31/3/30 
f 10/10/10 34/21/33 35/2/34 
f 35/2/34 36/22/35 10/10/10 
f 36/22/35 37/23/36 11/11/11 
f 11/11/11 10/10/10 36/22/35 
f 37/23/36 38/24/37 13/13/13 
f 13/13/13 11/11/11 37/23/36 
f 30/5/29 39/15/38 32/8/31 
f 32/8/31 29/4/28 30/5/29 
f 17/1/17 35/2/34 31/3/30 
f 31/3/30 40/4/39 17/1/17 
f 40/4/39 30/5/29 6/6/6 
f 6/6/6 17/1/17 40/4/39 
f 31/3/30 33/7/32 41/8/40 
f 41/8/40 40/4/39 31/3/30 
f 20/10/20 19/11/19 37/23/36 
f 37/23/36 36/22/35 20/10/20 
f 19/11/19 21/13/21 38/24/37 
f 38/24/37 37/23/36 19/11/19 
f 30/5/29 40/4/39 41/8/40 
f 41/8/40 39/15/38 30/5/29 
f 22/16/22 42/25/41 43/26/42 
f 43/26/42 23/17/23 22/16/22 
f 23/17/23 43/26/42 26/20/6 
f 27/16/26 28/17/27 43/26/42 
f 43/26/42 42/25/41 27/16/26 
f 28/17/27 26/20/6 43/26/42 
f 9/9/9 2/27/2 34/21/33 
f 34/21/33 10/10/10 9/9/9 
f 29/4/28 31/3/30 35/2/34 
f 35/2/34 1/1/1 29/4/28 
f 7/28/7 18/29/18 15/30/15 
f 15/30/15 8/31/8 7/28/7 
f 39/30/38 41/29/40 33/28/32 
f 33/28/32 32/31/31 39/30/38 
f 2/27/2 1/1/1 34/21/33 
f 34/21/33 1/1/1 35/2/34 
f 20/10/20 44/21/43 2/27/2 
f 2/27/2 9/9/9 20/10/20 
f 2/2/2 17/1/17 16/4/16 
f 16/4/16 3/3/3 2/2/2 
f 20/10/20 36/22/35 35/2/34 
f 35/2/34 44/21/43 20/10/20 
f 44/21/43 17/1/17 2/27/2 
f 35/2/34 17/1/17 44/21/43 
f 38/32/37 21/33/21 14/34/14 
f 14/34/14 13/35/13 38/32/37 
# 78 faces

