# 3ds Max Wavefront OBJ Exporter v0.97b - (c)2007 guruware
# File Created: 06.08.2019 14:56:30

mtllib Sword34f.mtl

#
# object sword1_LOD003
#

v  -0.1179 0.7834 0.5709
v  -0.1840 0.7637 0.5646
v  -0.2624 0.7716 0.6806
v  -0.2268 0.7894 0.7048
v  -0.2068 0.7545 0.7238
v  -0.0925 0.7391 0.5970
v  -0.2738 0.7646 0.7865
v  -0.2473 0.7802 0.7967
v  -0.3645 0.8209 0.4067
v  -0.3331 0.8529 0.3824
v  -0.3496 0.8743 0.3662
v  -0.3945 0.8285 0.4009
v  -0.3854 0.8856 0.3349
v  -0.4302 0.8398 0.3696
v  -0.2373 0.7547 0.8006
v  -0.2394 0.7360 0.6999
v  -0.1338 0.7160 0.5647
v  -0.2574 0.7374 0.7928
v  -0.3732 0.7743 0.3570
v  -0.3496 0.7830 0.3760
v  -0.4090 0.7857 0.3257
v  -0.1346 0.7225 0.5634
v  0.4404 0.5453 1.0663
v  0.3993 0.5746 1.1238
v  -0.1849 0.7576 0.6337
v  0.6066 0.5177 1.2091
v  -0.1214 0.7782 0.5685
v  0.4514 0.5920 1.0705
v  -0.0055 0.7612 0.4418
v  0.0130 0.7265 0.4625
v  -0.0373 0.7430 0.4131
v  0.0799 0.7385 0.4078
v  0.0637 0.7216 0.3855
v  -0.1498 0.7902 0.5434
v  -0.1378 0.7579 0.5097
v  -0.3182 0.8150 0.3517
v  -0.3283 0.8201 0.3223
v  -0.3641 0.8314 0.2910
v  0.0829 0.7139 0.4202
v  -0.0181 0.7078 0.4369
v  0.0698 0.6958 0.4039
v  -0.0710 0.7431 0.4983
v  0.4925 0.5627 1.0130
v  -0.1643 0.7286 0.5377
# 44 vertices

vn 0.3113 0.9361 0.1637
vn -0.9442 0.2067 0.2563
vn -0.8942 0.2482 -0.3725
vn 0.1238 0.9852 0.1184
vn 0.8515 -0.2439 0.4642
vn 0.7319 -0.2318 0.6408
vn -0.9112 0.1815 0.3698
vn 0.0670 0.7336 0.6763
vn -0.3996 0.0122 0.9166
vn 0.4322 0.8591 0.2742
vn 0.3913 0.8900 0.2341
vn -0.4561 0.0262 0.8895
vn -0.2356 0.9253 -0.2973
vn -0.9465 0.2006 0.2527
vn 0.5101 -0.1974 0.8371
vn -0.3318 -0.9418 -0.0541
vn -0.1407 -0.9899 -0.0144
vn -0.2934 -0.7913 0.5364
vn -0.0545 -0.9967 0.0608
vn -0.0075 -0.9950 0.1000
vn -0.6096 -0.6577 -0.4427
vn -0.2243 -0.9708 -0.0847
vn -0.1870 -0.9810 -0.0523
vn -0.5209 0.0449 0.8524
vn -0.6265 0.0769 0.7756
vn 0.2340 0.9678 0.0932
vn 0.2705 0.9545 0.1253
vn 0.2452 0.9692 -0.0218
vn 0.5789 -0.2091 0.7881
vn -0.4974 0.1925 -0.8459
vn 0.7507 0.6465 -0.1361
vn 0.2203 0.0374 -0.9747
vn 0.2009 0.9773 0.0671
vn 0.1097 0.0643 -0.9919
vn 0.8256 -0.1449 -0.5454
vn 0.7930 -0.1325 -0.5946
vn 0.1015 0.0673 -0.9926
vn 0.8886 -0.2456 0.3874
vn -0.2144 -0.9565 -0.1977
vn 0.3902 -0.8784 -0.2760
vn 0.6567 -0.0865 -0.7492
vn 0.7471 -0.1166 -0.6544
vn -0.2504 -0.9621 -0.1081
# 43 vertex normals

vt 0.4245 0.8426 0.0000
vt 0.4742 0.8079 0.0000
vt 0.6667 0.8270 0.0000
vt 0.6627 0.8536 0.0000
vt 0.6611 0.9149 0.0000
vt 0.4241 0.9218 0.0000
vt 0.7883 0.8831 0.0000
vt 0.7769 0.9013 0.0000
vt 0.3746 0.6193 0.0000
vt 0.4245 0.5915 0.0000
vt 0.4245 0.5481 0.0000
vt 0.3532 0.5879 0.0000
vt 0.4245 0.4919 0.0000
vt 0.3532 0.5317 0.0000
vt 0.7693 0.9458 0.0000
vt 0.0397 0.2775 0.0000
vt 0.6354 0.2775 0.0000
vt 0.6486 0.3847 0.0000
vt 0.0429 0.4122 0.0000
vt 0.8744 0.2775 0.0000
vt 0.4245 0.7887 0.0000
vt 0.4744 0.6193 0.0000
vt 0.4958 0.5879 0.0000
vt 0.4958 0.5317 0.0000
vt 0.0429 0.1428 0.0000
vt 0.6486 0.1704 0.0000
vt 0.3749 0.8079 0.0000
vt 0.7277 0.0334 0.0000
vt 0.7907 0.1010 0.0000
vt 0.7277 0.1487 0.0000
vt 0.6647 0.1010 0.0000
vt 0.8997 0.1898 0.0000
vt 0.8318 0.1317 0.0000
vt 0.8899 0.0638 0.0000
vt 0.9578 0.1219 0.0000
# 35 texture coords

o sword1_LOD003
g sword1_LOD003
usemtl Material__232
s 1
f 1/1/1 2/2/2 3/3/3 
f 3/3/3 4/4/4 1/1/1 
f 4/4/4 5/5/5 6/6/6 
f 6/6/6 1/1/1 4/4/4 
f 3/3/3 7/7/7 8/8/8 
f 8/8/8 4/4/4 3/3/3 
f 9/9/9 10/10/10 11/11/11 
f 11/11/11 12/12/12 9/9/9 
f 12/12/12 11/11/11 13/13/13 
f 13/13/13 14/14/14 12/12/12 
f 5/5/5 4/4/4 8/8/8 
f 8/8/8 15/15/15 5/5/5 
f 16/4/16 17/1/17 6/6/6 
f 6/6/6 5/5/5 16/4/16 
f 3/3/3 16/4/16 18/8/18 
f 18/8/18 7/7/7 3/3/3 
f 9/9/9 12/12/12 19/11/19 
f 19/11/19 20/10/20 9/9/9 
f 12/12/12 14/14/14 21/13/21 
f 21/13/21 19/11/19 12/12/12 
f 5/5/5 15/15/15 18/8/18 
f 18/8/18 16/4/16 5/5/5 
f 22/16/22 23/17/23 24/18/24 
f 24/18/24 25/19/25 22/16/22 
f 23/17/23 26/20/6 24/18/24 
f 27/16/26 25/19/25 24/18/24 
f 24/18/24 28/17/27 27/16/26 
f 28/17/27 24/18/24 26/20/6 
f 29/4/28 1/1/1 6/6/6 
f 6/6/6 30/5/29 29/4/28 
f 31/3/30 29/4/28 32/8/31 
f 32/8/31 33/7/32 31/3/30 
f 10/10/10 34/21/33 35/2/34 
f 35/2/34 36/22/35 10/10/10 
f 36/22/35 37/23/36 11/11/11 
f 11/11/11 10/10/10 36/22/35 
f 37/23/36 38/24/37 13/13/13 
f 13/13/13 11/11/11 37/23/36 
f 30/5/29 39/15/38 32/8/31 
f 32/8/31 29/4/28 30/5/29 
f 17/1/17 35/2/34 31/3/30 
f 31/3/30 40/4/39 17/1/17 
f 40/4/39 30/5/29 6/6/6 
f 6/6/6 17/1/17 40/4/39 
f 31/3/30 33/7/32 41/8/40 
f 41/8/40 40/4/39 31/3/30 
f 20/10/20 19/11/19 37/23/36 
f 37/23/36 36/22/35 20/10/20 
f 19/11/19 21/13/21 38/24/37 
f 38/24/37 37/23/36 19/11/19 
f 30/5/29 40/4/39 41/8/40 
f 41/8/40 39/15/38 30/5/29 
f 22/16/22 42/25/41 43/26/42 
f 43/26/42 23/17/23 22/16/22 
f 23/17/23 43/26/42 26/20/6 
f 27/16/26 28/17/27 43/26/42 
f 43/26/42 42/25/41 27/16/26 
f 28/17/27 26/20/6 43/26/42 
f 9/9/9 2/27/2 34/21/33 
f 34/21/33 10/10/10 9/9/9 
f 29/4/28 31/3/30 35/2/34 
f 35/2/34 1/1/1 29/4/28 
f 7/28/7 18/29/18 15/30/15 
f 15/30/15 8/31/8 7/28/7 
f 39/30/38 41/29/40 33/28/32 
f 33/28/32 32/31/31 39/30/38 
f 2/27/2 1/1/1 34/21/33 
f 34/21/33 1/1/1 35/2/34 
f 20/10/20 44/21/43 2/27/2 
f 2/27/2 9/9/9 20/10/20 
f 2/2/2 17/1/17 16/4/16 
f 16/4/16 3/3/3 2/2/2 
f 20/10/20 36/22/35 35/2/34 
f 35/2/34 44/21/43 20/10/20 
f 44/21/43 17/1/17 2/27/2 
f 35/2/34 17/1/17 44/21/43 
f 38/32/37 21/33/21 14/34/14 
f 14/34/14 13/35/13 38/32/37 
# 78 faces

