# 3ds Max Wavefront OBJ Exporter v0.97b - (c)2007 guruware
# File Created: 06.08.2019 14:56:43

mtllib Sword65f.mtl

#
# object sword1_LOD003
#

v  0.2547 0.9977 0.7056
v  0.1994 0.9564 0.7123
v  0.1235 0.9727 0.8289
v  0.1508 1.0077 0.8431
v  0.1816 0.9888 0.8690
v  0.2939 0.9744 0.7403
v  0.1155 0.9948 0.9331
v  0.1349 1.0205 0.9356
v  0.0100 0.9002 0.5648
v  0.0283 0.9318 0.5293
v  0.0054 0.9406 0.5096
v  -0.0208 0.8954 0.5604
v  -0.0322 0.9295 0.4803
v  -0.0584 0.8843 0.5312
v  0.1532 1.0022 0.9454
v  0.1574 0.9543 0.8549
v  0.2631 0.9302 0.7205
v  0.1402 0.9777 0.9450
v  0.0178 0.8407 0.5316
v  0.0370 0.8620 0.5447
v  -0.0198 0.8296 0.5024
v  0.2601 0.9355 0.7175
v  0.8621 1.1186 1.1854
v  0.8135 1.1486 1.2363
v  0.2009 0.9715 0.7799
v  1.0279 1.1920 1.3115
v  0.2532 0.9912 0.7052
v  0.8563 1.1653 1.1750
v  0.3675 0.9758 0.5768
v  0.3969 0.9571 0.6044
v  0.3439 0.9403 0.5580
v  0.4554 0.9733 0.5417
v  0.4460 0.9461 0.5270
v  0.2224 0.9849 0.6808
v  0.2447 0.9497 0.6566
v  0.0553 0.8936 0.5091
v  0.0440 0.8859 0.4808
v  0.0064 0.8748 0.4516
v  0.4667 0.9560 0.5601
v  0.3742 0.9224 0.5886
v  0.4607 0.9306 0.5512
v  0.3124 0.9551 0.6428
v  0.9048 1.1352 1.1241
v  0.2300 0.9233 0.6944
# 44 vertices

vn -0.0319 0.9893 -0.1423
vn -0.9567 -0.0486 0.2868
vn -0.9257 -0.1854 -0.3296
vn -0.2248 0.9577 -0.1794
vn 0.8844 0.2030 0.4203
vn 0.7684 0.2278 0.5980
vn -0.9168 -0.0260 0.3986
vn -0.1896 0.8829 0.4296
vn -0.3769 0.1567 0.9129
vn 0.1085 0.9937 -0.0282
vn 0.0593 0.9957 -0.0708
vn -0.4348 0.1425 0.8892
vn -0.5422 0.6599 -0.5201
vn -0.9568 -0.0560 0.2853
vn 0.5489 0.2450 0.7992
vn 0.0148 -0.9680 0.2507
vn 0.2109 -0.9361 0.2816
vn 0.0002 -0.6420 0.7667
vn 0.2943 -0.8909 0.3460
vn 0.3378 -0.8620 0.3779
vn -0.3451 -0.9230 -0.1704
vn 0.1257 -0.9678 0.2182
vn 0.1642 -0.9547 0.2480
vn -0.5022 0.1266 0.8554
vn -0.6125 0.0972 0.7845
vn -0.1155 0.9708 -0.2103
vn -0.0766 0.9807 -0.1798
vn -0.1058 0.9410 -0.3215
vn 0.6174 0.2423 0.7484
vn -0.5354 -0.2477 -0.8075
vn 0.4799 0.7843 -0.3931
vn 0.1913 -0.1891 -0.9631
vn -0.1499 0.9605 -0.2344
vn 0.0782 -0.2066 -0.9753
vn 0.8233 -0.0227 -0.5671
vn 0.7884 -0.0373 -0.6141
vn 0.0695 -0.2068 -0.9759
vn 0.9196 0.1904 0.3437
vn 0.1297 -0.9859 0.1054
vn 0.6697 -0.7406 -0.0560
vn 0.6442 -0.0878 -0.7598
vn 0.7397 -0.0562 -0.6706
vn 0.0981 -0.9756 0.1963
# 43 vertex normals

vt 0.4245 0.8426 0.0000
vt 0.4742 0.8079 0.0000
vt 0.6667 0.8270 0.0000
vt 0.6627 0.8536 0.0000
vt 0.6611 0.9149 0.0000
vt 0.4241 0.9218 0.0000
vt 0.7883 0.8831 0.0000
vt 0.7769 0.9013 0.0000
vt 0.3746 0.6193 0.0000
vt 0.4245 0.5915 0.0000
vt 0.4245 0.5481 0.0000
vt 0.3532 0.5879 0.0000
vt 0.4245 0.4919 0.0000
vt 0.3532 0.5317 0.0000
vt 0.7693 0.9458 0.0000
vt 0.0397 0.2775 0.0000
vt 0.6354 0.2775 0.0000
vt 0.6486 0.3847 0.0000
vt 0.0429 0.4122 0.0000
vt 0.8744 0.2775 0.0000
vt 0.4245 0.7887 0.0000
vt 0.4744 0.6193 0.0000
vt 0.4958 0.5879 0.0000
vt 0.4958 0.5317 0.0000
vt 0.0429 0.1428 0.0000
vt 0.6486 0.1704 0.0000
vt 0.3749 0.8079 0.0000
vt 0.7277 0.0334 0.0000
vt 0.7907 0.1010 0.0000
vt 0.7277 0.1487 0.0000
vt 0.6647 0.1010 0.0000
vt 0.8997 0.1898 0.0000
vt 0.8318 0.1317 0.0000
vt 0.8899 0.0638 0.0000
vt 0.9578 0.1219 0.0000
# 35 texture coords

o sword1_LOD003
g sword1_LOD003
usemtl Material__232
s 1
f 1/1/1 2/2/2 3/3/3 
f 3/3/3 4/4/4 1/1/1 
f 4/4/4 5/5/5 6/6/6 
f 6/6/6 1/1/1 4/4/4 
f 3/3/3 7/7/7 8/8/8 
f 8/8/8 4/4/4 3/3/3 
f 9/9/9 10/10/10 11/11/11 
f 11/11/11 12/12/12 9/9/9 
f 12/12/12 11/11/11 13/13/13 
f 13/13/13 14/14/14 12/12/12 
f 5/5/5 4/4/4 8/8/8 
f 8/8/8 15/15/15 5/5/5 
f 16/4/16 17/1/17 6/6/6 
f 6/6/6 5/5/5 16/4/16 
f 3/3/3 16/4/16 18/8/18 
f 18/8/18 7/7/7 3/3/3 
f 9/9/9 12/12/12 19/11/19 
f 19/11/19 20/10/20 9/9/9 
f 12/12/12 14/14/14 21/13/21 
f 21/13/21 19/11/19 12/12/12 
f 5/5/5 15/15/15 18/8/18 
f 18/8/18 16/4/16 5/5/5 
f 22/16/22 23/17/23 24/18/24 
f 24/18/24 25/19/25 22/16/22 
f 23/17/23 26/20/6 24/18/24 
f 27/16/26 25/19/25 24/18/24 
f 24/18/24 28/17/27 27/16/26 
f 28/17/27 24/18/24 26/20/6 
f 29/4/28 1/1/1 6/6/6 
f 6/6/6 30/5/29 29/4/28 
f 31/3/30 29/4/28 32/8/31 
f 32/8/31 33/7/32 31/3/30 
f 10/10/10 34/21/33 35/2/34 
f 35/2/34 36/22/35 10/10/10 
f 36/22/35 37/23/36 11/11/11 
f 11/11/11 10/10/10 36/22/35 
f 37/23/36 38/24/37 13/13/13 
f 13/13/13 11/11/11 37/23/36 
f 30/5/29 39/15/38 32/8/31 
f 32/8/31 29/4/28 30/5/29 
f 17/1/17 35/2/34 31/3/30 
f 31/3/30 40/4/39 17/1/17 
f 40/4/39 30/5/29 6/6/6 
f 6/6/6 17/1/17 40/4/39 
f 31/3/30 33/7/32 41/8/40 
f 41/8/40 40/4/39 31/3/30 
f 20/10/20 19/11/19 37/23/36 
f 37/23/36 36/22/35 20/10/20 
f 19/11/19 21/13/21 38/24/37 
f 38/24/37 37/23/36 19/11/19 
f 30/5/29 40/4/39 41/8/40 
f 41/8/40 39/15/38 30/5/29 
f 22/16/22 42/25/41 43/26/42 
f 43/26/42 23/17/23 22/16/22 
f 23/17/23 43/26/42 26/20/6 
f 27/16/26 28/17/27 43/26/42 
f 43/26/42 42/25/41 27/16/26 
f 28/17/27 26/20/6 43/26/42 
f 9/9/9 2/27/2 34/21/33 
f 34/21/33 10/10/10 9/9/9 
f 29/4/28 31/3/30 35/2/34 
f 35/2/34 1/1/1 29/4/28 
f 7/28/7 18/29/18 15/30/15 
f 15/30/15 8/31/8 7/28/7 
f 39/30/38 41/29/40 33/28/32 
f 33/28/32 32/31/31 39/30/38 
f 2/27/2 1/1/1 34/21/33 
f 34/21/33 1/1/1 35/2/34 
f 20/10/20 44/21/43 2/27/2 
f 2/27/2 9/9/9 20/10/20 
f 2/2/2 17/1/17 16/4/16 
f 16/4/16 3/3/3 2/2/2 
f 20/10/20 36/22/35 35/2/34 
f 35/2/34 44/21/43 20/10/20 
f 44/21/43 17/1/17 2/27/2 
f 35/2/34 17/1/17 44/21/43 
f 38/32/37 21/33/21 14/34/14 
f 14/34/14 13/35/13 38/32/37 
# 78 faces

