# 3ds Max Wavefront OBJ Exporter v0.97b - (c)2007 guruware
# File Created: 06.08.2019 14:56:34

mtllib Sword45f.mtl

#
# object sword1_LOD003
#

v  -0.0970 0.7729 0.4763
v  -0.1233 0.7809 0.4126
v  -0.2282 0.8730 0.4002
v  -0.2254 0.8841 0.4453
v  -0.2546 0.8576 0.4658
v  -0.1355 0.7401 0.5033
v  -0.3151 0.9218 0.4387
v  -0.3057 0.9282 0.4690
v  -0.0236 0.8241 0.1913
v  0.0228 0.8253 0.2125
v  0.0428 0.8412 0.1940
v  -0.0235 0.8395 0.1638
v  0.0626 0.8497 0.1502
v  -0.0037 0.8480 0.1200
v  -0.3209 0.9060 0.4754
v  -0.2572 0.8448 0.4233
v  -0.1372 0.7233 0.4485
v  -0.3311 0.8968 0.4514
v  -0.0167 0.7677 0.1529
v  -0.0188 0.7740 0.1837
v  0.0031 0.7763 0.1090
v  -0.1325 0.7281 0.4483
v  -0.4469 0.5941 1.1540
v  -0.4845 0.6606 1.1500
v  -0.1788 0.8089 0.4432
v  -0.5218 0.5728 1.3607
v  -0.0993 0.7691 0.4712
v  -0.4190 0.6285 1.1732
v  0.0193 0.6497 0.5098
v  -0.0115 0.6247 0.5299
v  0.0206 0.6346 0.4658
v  0.0560 0.5816 0.5644
v  0.0580 0.5644 0.5370
v  -0.0816 0.7780 0.4368
v  -0.0721 0.7320 0.4261
v  0.0276 0.7752 0.2048
v  0.0497 0.7694 0.1831
v  0.0694 0.7780 0.1393
v  0.0330 0.5669 0.5687
v  -0.0125 0.6104 0.4878
v  0.0306 0.5502 0.5468
v  -0.0529 0.6883 0.4764
v  -0.3815 0.5620 1.1772
v  -0.1183 0.7328 0.4114
# 44 vertices

vn 0.5255 0.6884 0.4999
vn -0.3441 0.6616 -0.6662
vn 0.1660 0.3790 -0.9104
vn 0.5340 0.7809 0.3240
vn -0.2445 -0.3155 0.9169
vn -0.4044 -0.1751 0.8977
vn -0.4345 0.6818 -0.5886
vn -0.0501 0.8676 0.4947
vn -0.7955 0.6001 0.0840
vn 0.4322 0.6312 0.6441
vn 0.4687 0.6531 0.5948
vn -0.7834 0.6211 0.0246
vn 0.7047 0.6828 -0.1925
vn -0.3457 0.6560 -0.6710
vn -0.5956 0.0331 0.8026
vn -0.6170 -0.6332 -0.4674
vn -0.6196 -0.7291 -0.2907
vn -0.9583 -0.2531 -0.1331
vn -0.6548 -0.7337 -0.1818
vn -0.6694 -0.7327 -0.1223
vn -0.2378 -0.4807 -0.8440
vn -0.5800 -0.7135 -0.3931
vn -0.5994 -0.7212 -0.3472
vn -0.7633 0.6444 -0.0460
vn -0.7175 0.6758 -0.1685
vn 0.5746 0.7112 0.4050
vn 0.5533 0.7012 0.4496
vn 0.6648 0.6539 0.3611
vn -0.5458 -0.0268 0.8375
vn 0.6030 -0.0461 -0.7964
vn 0.7056 0.1437 0.6939
vn 0.8162 -0.5165 -0.2589
vn 0.5902 0.7197 0.3656
vn 0.8129 -0.4590 -0.3585
vn 0.5628 -0.7010 0.4380
vn 0.5975 -0.7014 0.3887
vn 0.8128 -0.4536 -0.3655
vn -0.1772 -0.3677 0.9129
vn -0.4840 -0.7593 -0.4351
vn -0.2026 -0.9770 0.0661
vn 0.7009 -0.6830 0.2054
vn 0.6384 -0.6985 0.3235
vn -0.5649 -0.7072 -0.4252
# 43 vertex normals

vt 0.4245 0.8426 0.0000
vt 0.4742 0.8079 0.0000
vt 0.6667 0.8270 0.0000
vt 0.6627 0.8536 0.0000
vt 0.6611 0.9149 0.0000
vt 0.4241 0.9218 0.0000
vt 0.7883 0.8831 0.0000
vt 0.7769 0.9013 0.0000
vt 0.3746 0.6193 0.0000
vt 0.4245 0.5915 0.0000
vt 0.4245 0.5481 0.0000
vt 0.3532 0.5879 0.0000
vt 0.4245 0.4919 0.0000
vt 0.3532 0.5317 0.0000
vt 0.7693 0.9458 0.0000
vt 0.0397 0.2775 0.0000
vt 0.6354 0.2775 0.0000
vt 0.6486 0.3847 0.0000
vt 0.0429 0.4122 0.0000
vt 0.8744 0.2775 0.0000
vt 0.4245 0.7887 0.0000
vt 0.4744 0.6193 0.0000
vt 0.4958 0.5879 0.0000
vt 0.4958 0.5317 0.0000
vt 0.0429 0.1428 0.0000
vt 0.6486 0.1704 0.0000
vt 0.3749 0.8079 0.0000
vt 0.7277 0.0334 0.0000
vt 0.7907 0.1010 0.0000
vt 0.7277 0.1487 0.0000
vt 0.6647 0.1010 0.0000
vt 0.8997 0.1898 0.0000
vt 0.8318 0.1317 0.0000
vt 0.8899 0.0638 0.0000
vt 0.9578 0.1219 0.0000
# 35 texture coords

o sword1_LOD003
g sword1_LOD003
usemtl Material__232
s 1
f 1/1/1 2/2/2 3/3/3 
f 3/3/3 4/4/4 1/1/1 
f 4/4/4 5/5/5 6/6/6 
f 6/6/6 1/1/1 4/4/4 
f 3/3/3 7/7/7 8/8/8 
f 8/8/8 4/4/4 3/3/3 
f 9/9/9 10/10/10 11/11/11 
f 11/11/11 12/12/12 9/9/9 
f 12/12/12 11/11/11 13/13/13 
f 13/13/13 14/14/14 12/12/12 
f 5/5/5 4/4/4 8/8/8 
f 8/8/8 15/15/15 5/5/5 
f 16/4/16 17/1/17 6/6/6 
f 6/6/6 5/5/5 16/4/16 
f 3/3/3 16/4/16 18/8/18 
f 18/8/18 7/7/7 3/3/3 
f 9/9/9 12/12/12 19/11/19 
f 19/11/19 20/10/20 9/9/9 
f 12/12/12 14/14/14 21/13/21 
f 21/13/21 19/11/19 12/12/12 
f 5/5/5 15/15/15 18/8/18 
f 18/8/18 16/4/16 5/5/5 
f 22/16/22 23/17/23 24/18/24 
f 24/18/24 25/19/25 22/16/22 
f 23/17/23 26/20/6 24/18/24 
f 27/16/26 25/19/25 24/18/24 
f 24/18/24 28/17/27 27/16/26 
f 28/17/27 24/18/24 26/20/6 
f 29/4/28 1/1/1 6/6/6 
f 6/6/6 30/5/29 29/4/28 
f 31/3/30 29/4/28 32/8/31 
f 32/8/31 33/7/32 31/3/30 
f 10/10/10 34/21/33 35/2/34 
f 35/2/34 36/22/35 10/10/10 
f 36/22/35 37/23/36 11/11/11 
f 11/11/11 10/10/10 36/22/35 
f 37/23/36 38/24/37 13/13/13 
f 13/13/13 11/11/11 37/23/36 
f 30/5/29 39/15/38 32/8/31 
f 32/8/31 29/4/28 30/5/29 
f 17/1/17 35/2/34 31/3/30 
f 31/3/30 40/4/39 17/1/17 
f 40/4/39 30/5/29 6/6/6 
f 6/6/6 17/1/17 40/4/39 
f 31/3/30 33/7/32 41/8/40 
f 41/8/40 40/4/39 31/3/30 
f 20/10/20 19/11/19 37/23/36 
f 37/23/36 36/22/35 20/10/20 
f 19/11/19 21/13/21 38/24/37 
f 38/24/37 37/23/36 19/11/19 
f 30/5/29 40/4/39 41/8/40 
f 41/8/40 39/15/38 30/5/29 
f 22/16/22 42/25/41 43/26/42 
f 43/26/42 23/17/23 22/16/22 
f 23/17/23 43/26/42 26/20/6 
f 27/16/26 28/17/27 43/26/42 
f 43/26/42 42/25/41 27/16/26 
f 28/17/27 26/20/6 43/26/42 
f 9/9/9 2/27/2 34/21/33 
f 34/21/33 10/10/10 9/9/9 
f 29/4/28 31/3/30 35/2/34 
f 35/2/34 1/1/1 29/4/28 
f 7/28/7 18/29/18 15/30/15 
f 15/30/15 8/31/8 7/28/7 
f 39/30/38 41/29/40 33/28/32 
f 33/28/32 32/31/31 39/30/38 
f 2/27/2 1/1/1 34/21/33 
f 34/21/33 1/1/1 35/2/34 
f 20/10/20 44/21/43 2/27/2 
f 2/27/2 9/9/9 20/10/20 
f 2/2/2 17/1/17 16/4/16 
f 16/4/16 3/3/3 2/2/2 
f 20/10/20 36/22/35 35/2/34 
f 35/2/34 44/21/43 20/10/20 
f 44/21/43 17/1/17 2/27/2 
f 35/2/34 17/1/17 44/21/43 
f 38/32/37 21/33/21 14/34/14 
f 14/34/14 13/35/13 38/32/37 
# 78 faces

