# 3ds Max Wavefront OBJ Exporter v0.97b - (c)2007 guruware
# File Created: 06.08.2019 14:56:22

mtllib Sword14f.mtl

#
# object sword1_LOD003
#

v  -0.2356 0.9504 0.3982
v  -0.1774 0.9851 0.4130
v  -0.1726 1.0471 0.5386
v  -0.2146 1.0303 0.5498
v  -0.2435 1.0620 0.5382
v  -0.2734 0.9914 0.3849
v  -0.2198 1.0979 0.6198
v  -0.2467 1.0803 0.6234
v  0.0623 0.9287 0.4020
v  0.0505 0.8819 0.3856
v  0.0743 0.8620 0.3912
v  0.0911 0.9289 0.4147
v  0.1218 0.8508 0.3890
v  0.1386 0.9177 0.4125
v  -0.2587 1.1010 0.6094
v  -0.2043 1.0787 0.5255
v  -0.2226 1.0115 0.3675
v  -0.2385 1.1190 0.6040
v  0.0935 0.9525 0.3457
v  0.0640 0.9452 0.3538
v  0.1410 0.9413 0.3436
v  -0.2209 1.0055 0.3700
v  -0.9842 1.1809 0.4071
v  -0.9785 1.1903 0.4828
v  -0.2138 1.0176 0.4623
v  -1.2022 1.2100 0.4275
v  -0.2316 0.9550 0.3954
v  -0.9932 1.1386 0.4283
v  -0.2629 0.8854 0.2405
v  -0.2915 0.9180 0.2310
v  -0.2218 0.8998 0.2241
v  -0.3182 0.8661 0.1662
v  -0.2935 0.8770 0.1483
v  -0.1935 0.9435 0.3948
v  -0.1875 0.9548 0.3484
v  0.0522 0.8984 0.3374
v  0.0767 0.8856 0.3223
v  0.1242 0.8744 0.3201
v  -0.3286 0.8913 0.1621
v  -0.2526 0.9337 0.2163
v  -0.3100 0.9048 0.1468
v  -0.2387 0.9430 0.3031
v  -0.9989 1.1292 0.3526
v  -0.1817 0.9992 0.3669
# 44 vertices

vn -0.2975 -0.8450 0.4443
vn 0.6723 0.2063 0.7110
vn 0.9675 -0.0896 0.2367
vn -0.1124 -0.8485 0.5171
vn -0.9800 0.1344 -0.1468
vn -0.9724 0.2289 0.0447
vn 0.5825 0.2624 0.7693
vn -0.3758 -0.3954 0.8381
vn -0.1503 0.4671 0.8713
vn -0.4628 -0.7717 0.4361
vn -0.4052 -0.8018 0.4392
vn -0.0874 0.4616 0.8828
vn 0.4092 -0.8491 0.3341
vn 0.6758 0.2109 0.7063
vn -0.8879 0.3426 0.3071
vn 0.2561 0.8989 -0.3556
vn 0.0709 0.8982 -0.4338
vn -0.0825 0.9860 0.1449
vn -0.0423 0.9071 -0.4187
vn -0.1028 0.9067 -0.4091
vn 0.7136 0.5848 -0.3857
vn 0.1800 0.8796 -0.4403
vn 0.1307 0.8897 -0.4374
vn -0.0119 0.4505 0.8927
vn 0.1200 0.4248 0.8973
vn -0.1929 -0.8766 0.4409
vn -0.2416 -0.8636 0.4425
vn -0.1410 -0.9260 0.3503
vn -0.9205 0.3129 0.2341
vn 0.8815 -0.3457 -0.3216
vn -0.5250 -0.8430 -0.1170
vn 0.3355 -0.4785 -0.8115
vn -0.1505 -0.8850 0.4406
vn 0.4395 -0.4751 -0.7623
vn -0.4146 -0.3365 -0.8455
vn -0.3601 -0.3565 -0.8621
vn 0.4470 -0.4754 -0.7577
vn -0.9705 0.0948 -0.2217
vn 0.2327 0.8202 -0.5226
vn -0.2317 0.5384 -0.8102
vn -0.1601 -0.4154 -0.8955
vn -0.2887 -0.3798 -0.8789
vn 0.2150 0.8708 -0.4421
# 43 vertex normals

vt 0.4245 0.8426 0.0000
vt 0.4742 0.8079 0.0000
vt 0.6667 0.8270 0.0000
vt 0.6627 0.8536 0.0000
vt 0.6611 0.9149 0.0000
vt 0.4241 0.9218 0.0000
vt 0.7883 0.8831 0.0000
vt 0.7769 0.9013 0.0000
vt 0.3746 0.6193 0.0000
vt 0.4245 0.5915 0.0000
vt 0.4245 0.5481 0.0000
vt 0.3532 0.5879 0.0000
vt 0.4245 0.4919 0.0000
vt 0.3532 0.5317 0.0000
vt 0.7693 0.9458 0.0000
vt 0.0397 0.2775 0.0000
vt 0.6354 0.2775 0.0000
vt 0.6486 0.3847 0.0000
vt 0.0429 0.4122 0.0000
vt 0.8744 0.2775 0.0000
vt 0.4245 0.7887 0.0000
vt 0.4744 0.6193 0.0000
vt 0.4958 0.5879 0.0000
vt 0.4958 0.5317 0.0000
vt 0.0429 0.1428 0.0000
vt 0.6486 0.1704 0.0000
vt 0.3749 0.8079 0.0000
vt 0.7277 0.0334 0.0000
vt 0.7907 0.1010 0.0000
vt 0.7277 0.1487 0.0000
vt 0.6647 0.1010 0.0000
vt 0.8997 0.1898 0.0000
vt 0.8318 0.1317 0.0000
vt 0.8899 0.0638 0.0000
vt 0.9578 0.1219 0.0000
# 35 texture coords

o sword1_LOD003
g sword1_LOD003
usemtl Material__232
s 1
f 1/1/1 2/2/2 3/3/3 
f 3/3/3 4/4/4 1/1/1 
f 4/4/4 5/5/5 6/6/6 
f 6/6/6 1/1/1 4/4/4 
f 3/3/3 7/7/7 8/8/8 
f 8/8/8 4/4/4 3/3/3 
f 9/9/9 10/10/10 11/11/11 
f 11/11/11 12/12/12 9/9/9 
f 12/12/12 11/11/11 13/13/13 
f 13/13/13 14/14/14 12/12/12 
f 5/5/5 4/4/4 8/8/8 
f 8/8/8 15/15/15 5/5/5 
f 16/4/16 17/1/17 6/6/6 
f 6/6/6 5/5/5 16/4/16 
f 3/3/3 16/4/16 18/8/18 
f 18/8/18 7/7/7 3/3/3 
f 9/9/9 12/12/12 19/11/19 
f 19/11/19 20/10/20 9/9/9 
f 12/12/12 14/14/14 21/13/21 
f 21/13/21 19/11/19 12/12/12 
f 5/5/5 15/15/15 18/8/18 
f 18/8/18 16/4/16 5/5/5 
f 22/16/22 23/17/23 24/18/24 
f 24/18/24 25/19/25 22/16/22 
f 23/17/23 26/20/6 24/18/24 
f 27/16/26 25/19/25 24/18/24 
f 24/18/24 28/17/27 27/16/26 
f 28/17/27 24/18/24 26/20/6 
f 29/4/28 1/1/1 6/6/6 
f 6/6/6 30/5/29 29/4/28 
f 31/3/30 29/4/28 32/8/31 
f 32/8/31 33/7/32 31/3/30 
f 10/10/10 34/21/33 35/2/34 
f 35/2/34 36/22/35 10/10/10 
f 36/22/35 37/23/36 11/11/11 
f 11/11/11 10/10/10 36/22/35 
f 37/23/36 38/24/37 13/13/13 
f 13/13/13 11/11/11 37/23/36 
f 30/5/29 39/15/38 32/8/31 
f 32/8/31 29/4/28 30/5/29 
f 17/1/17 35/2/34 31/3/30 
f 31/3/30 40/4/39 17/1/17 
f 40/4/39 30/5/29 6/6/6 
f 6/6/6 17/1/17 40/4/39 
f 31/3/30 33/7/32 41/8/40 
f 41/8/40 40/4/39 31/3/30 
f 20/10/20 19/11/19 37/23/36 
f 37/23/36 36/22/35 20/10/20 
f 19/11/19 21/13/21 38/24/37 
f 38/24/37 37/23/36 19/11/19 
f 30/5/29 40/4/39 41/8/40 
f 41/8/40 39/15/38 30/5/29 
f 22/16/22 42/25/41 43/26/42 
f 43/26/42 23/17/23 22/16/22 
f 23/17/23 43/26/42 26/20/6 
f 27/16/26 28/17/27 43/26/42 
f 43/26/42 42/25/41 27/16/26 
f 28/17/27 26/20/6 43/26/42 
f 9/9/9 2/27/2 34/21/33 
f 34/21/33 10/10/10 9/9/9 
f 29/4/28 31/3/30 35/2/34 
f 35/2/34 1/1/1 29/4/28 
f 7/28/7 18/29/18 15/30/15 
f 15/30/15 8/31/8 7/28/7 
f 39/30/38 41/29/40 33/28/32 
f 33/28/32 32/31/31 39/30/38 
f 2/27/2 1/1/1 34/21/33 
f 34/21/33 1/1/1 35/2/34 
f 20/10/20 44/21/43 2/27/2 
f 2/27/2 9/9/9 20/10/20 
f 2/2/2 17/1/17 16/4/16 
f 16/4/16 3/3/3 2/2/2 
f 20/10/20 36/22/35 35/2/34 
f 35/2/34 44/21/43 20/10/20 
f 44/21/43 17/1/17 2/27/2 
f 35/2/34 17/1/17 44/21/43 
f 38/32/37 21/33/21 14/34/14 
f 14/34/14 13/35/13 38/32/37 
# 78 faces

