# 3ds Max Wavefront OBJ Exporter v0.97b - (c)2007 guruware
# File Created: 06.08.2019 14:56:40

mtllib Sword58f.mtl

#
# object sword1_LOD003
#

v  -0.4934 0.4882 -0.3157
v  -0.5576 0.4949 -0.2905
v  -0.6488 0.3945 -0.3257
v  -0.6159 0.3713 -0.3492
v  -0.6192 0.3854 -0.3912
v  -0.4980 0.5048 -0.3704
v  -0.6870 0.3228 -0.3952
v  -0.6596 0.3095 -0.4060
v  -0.6487 0.5356 -0.0650
v  -0.6014 0.5360 -0.0460
v  -0.6020 0.5297 -0.0151
v  -0.6696 0.5292 -0.0423
v  -0.6200 0.5378 0.0296
v  -0.6876 0.5373 0.0024
v  -0.6636 0.3260 -0.4278
v  -0.6499 0.4094 -0.3698
v  -0.5363 0.5364 -0.3417
v  -0.6868 0.3400 -0.4225
v  -0.6656 0.6011 -0.0537
v  -0.6459 0.5858 -0.0730
v  -0.6837 0.6091 -0.0090
v  -0.5337 0.5327 -0.3368
v  -0.2411 0.4001 -1.0521
v  -0.2766 0.3324 -1.0542
v  -0.5776 0.4504 -0.3397
v  -0.1450 0.3472 -1.2439
v  -0.4982 0.4929 -0.3153
v  -0.2113 0.3667 -1.0340
v  -0.3763 0.6137 -0.2961
v  -0.3812 0.6262 -0.3385
v  -0.4051 0.6410 -0.2718
v  -0.3054 0.6679 -0.3276
v  -0.3217 0.6924 -0.3142
v  -0.5111 0.4975 -0.2779
v  -0.5075 0.5455 -0.2793
v  -0.5986 0.5862 -0.0539
v  -0.5980 0.6016 -0.0265
v  -0.6160 0.6097 0.0182
v  -0.3170 0.6767 -0.3511
v  -0.4103 0.6518 -0.3167
v  -0.3326 0.6984 -0.3441
v  -0.4543 0.5752 -0.3124
v  -0.1757 0.4345 -1.0319
v  -0.5503 0.5414 -0.3017
# 44 vertices

vn 0.6547 -0.7076 0.2657
vn -0.7766 -0.4849 0.4022
vn -0.5651 -0.0628 0.8226
vn 0.5272 -0.7418 0.4145
vn 0.5087 -0.0119 -0.8609
vn 0.3695 -0.1650 -0.9145
vn -0.7868 -0.5416 0.2960
vn 0.2310 -0.9702 -0.0732
vn -0.5553 -0.7215 -0.4136
vn 0.6971 -0.7114 0.0897
vn 0.6856 -0.7115 0.1538
vn -0.5909 -0.7218 -0.3602
vn 0.2905 -0.4699 0.8336
vn -0.7805 -0.4785 0.4023
vn 0.1483 -0.3649 -0.9192
vn -0.7010 0.6309 -0.3324
vn -0.5685 0.6691 -0.4787
vn -0.7400 0.1185 -0.6620
vn -0.5155 0.6356 -0.5746
vn -0.4838 0.6149 -0.6227
vn -0.7172 0.6604 0.2224
vn -0.6148 0.6909 -0.3803
vn -0.5952 0.6815 -0.4258
vn -0.6292 -0.7198 -0.2934
vn -0.6868 -0.7060 -0.1727
vn 0.6197 -0.6931 0.3682
vn 0.6373 -0.7003 0.3216
vn 0.6573 -0.6114 0.4407
vn 0.2136 -0.3105 -0.9263
vn -0.1375 0.3765 0.9161
vn 0.9709 -0.2216 0.0907
vn 0.4379 0.6974 0.5673
vn 0.6019 -0.6870 0.4071
vn 0.3595 0.6719 0.6476
vn 0.7718 0.6251 -0.1162
vn 0.7612 0.6457 -0.0605
vn 0.3539 0.6689 0.6537
vn 0.5579 0.0496 -0.8284
vn -0.5729 0.7622 -0.3014
vn -0.0001 0.8671 -0.4981
vn 0.7021 0.6992 0.1350
vn 0.7434 0.6688 0.0108
vn -0.6276 0.6969 -0.3471
# 43 vertex normals

vt 0.4245 0.8426 0.0000
vt 0.4742 0.8079 0.0000
vt 0.6667 0.8270 0.0000
vt 0.6627 0.8536 0.0000
vt 0.6611 0.9149 0.0000
vt 0.4241 0.9218 0.0000
vt 0.7883 0.8831 0.0000
vt 0.7769 0.9013 0.0000
vt 0.3746 0.6193 0.0000
vt 0.4245 0.5915 0.0000
vt 0.4245 0.5481 0.0000
vt 0.3532 0.5879 0.0000
vt 0.4245 0.4919 0.0000
vt 0.3532 0.5317 0.0000
vt 0.7693 0.9458 0.0000
vt 0.0397 0.2775 0.0000
vt 0.6354 0.2775 0.0000
vt 0.6486 0.3847 0.0000
vt 0.0429 0.4122 0.0000
vt 0.8744 0.2775 0.0000
vt 0.4245 0.7887 0.0000
vt 0.4744 0.6193 0.0000
vt 0.4958 0.5879 0.0000
vt 0.4958 0.5317 0.0000
vt 0.0429 0.1428 0.0000
vt 0.6486 0.1704 0.0000
vt 0.3749 0.8079 0.0000
vt 0.7277 0.0334 0.0000
vt 0.7907 0.1010 0.0000
vt 0.7277 0.1487 0.0000
vt 0.6647 0.1010 0.0000
vt 0.8997 0.1898 0.0000
vt 0.8318 0.1317 0.0000
vt 0.8899 0.0638 0.0000
vt 0.9578 0.1219 0.0000
# 35 texture coords

o sword1_LOD003
g sword1_LOD003
usemtl Material__232
s 1
f 1/1/1 2/2/2 3/3/3 
f 3/3/3 4/4/4 1/1/1 
f 4/4/4 5/5/5 6/6/6 
f 6/6/6 1/1/1 4/4/4 
f 3/3/3 7/7/7 8/8/8 
f 8/8/8 4/4/4 3/3/3 
f 9/9/9 10/10/10 11/11/11 
f 11/11/11 12/12/12 9/9/9 
f 12/12/12 11/11/11 13/13/13 
f 13/13/13 14/14/14 12/12/12 
f 5/5/5 4/4/4 8/8/8 
f 8/8/8 15/15/15 5/5/5 
f 16/4/16 17/1/17 6/6/6 
f 6/6/6 5/5/5 16/4/16 
f 3/3/3 16/4/16 18/8/18 
f 18/8/18 7/7/7 3/3/3 
f 9/9/9 12/12/12 19/11/19 
f 19/11/19 20/10/20 9/9/9 
f 12/12/12 14/14/14 21/13/21 
f 21/13/21 19/11/19 12/12/12 
f 5/5/5 15/15/15 18/8/18 
f 18/8/18 16/4/16 5/5/5 
f 22/16/22 23/17/23 24/18/24 
f 24/18/24 25/19/25 22/16/22 
f 23/17/23 26/20/6 24/18/24 
f 27/16/26 25/19/25 24/18/24 
f 24/18/24 28/17/27 27/16/26 
f 28/17/27 24/18/24 26/20/6 
f 29/4/28 1/1/1 6/6/6 
f 6/6/6 30/5/29 29/4/28 
f 31/3/30 29/4/28 32/8/31 
f 32/8/31 33/7/32 31/3/30 
f 10/10/10 34/21/33 35/2/34 
f 35/2/34 36/22/35 10/10/10 
f 36/22/35 37/23/36 11/11/11 
f 11/11/11 10/10/10 36/22/35 
f 37/23/36 38/24/37 13/13/13 
f 13/13/13 11/11/11 37/23/36 
f 30/5/29 39/15/38 32/8/31 
f 32/8/31 29/4/28 30/5/29 
f 17/1/17 35/2/34 31/3/30 
f 31/3/30 40/4/39 17/1/17 
f 40/4/39 30/5/29 6/6/6 
f 6/6/6 17/1/17 40/4/39 
f 31/3/30 33/7/32 41/8/40 
f 41/8/40 40/4/39 31/3/30 
f 20/10/20 19/11/19 37/23/36 
f 37/23/36 36/22/35 20/10/20 
f 19/11/19 21/13/21 38/24/37 
f 38/24/37 37/23/36 19/11/19 
f 30/5/29 40/4/39 41/8/40 
f 41/8/40 39/15/38 30/5/29 
f 22/16/22 42/25/41 43/26/42 
f 43/26/42 23/17/23 22/16/22 
f 23/17/23 43/26/42 26/20/6 
f 27/16/26 28/17/27 43/26/42 
f 43/26/42 42/25/41 27/16/26 
f 28/17/27 26/20/6 43/26/42 
f 9/9/9 2/27/2 34/21/33 
f 34/21/33 10/10/10 9/9/9 
f 29/4/28 31/3/30 35/2/34 
f 35/2/34 1/1/1 29/4/28 
f 7/28/7 18/29/18 15/30/15 
f 15/30/15 8/31/8 7/28/7 
f 39/30/38 41/29/40 33/28/32 
f 33/28/32 32/31/31 39/30/38 
f 2/27/2 1/1/1 34/21/33 
f 34/21/33 1/1/1 35/2/34 
f 20/10/20 44/21/43 2/27/2 
f 2/27/2 9/9/9 20/10/20 
f 2/2/2 17/1/17 16/4/16 
f 16/4/16 3/3/3 2/2/2 
f 20/10/20 36/22/35 35/2/34 
f 35/2/34 44/21/43 20/10/20 
f 44/21/43 17/1/17 2/27/2 
f 35/2/34 17/1/17 44/21/43 
f 38/32/37 21/33/21 14/34/14 
f 14/34/14 13/35/13 38/32/37 
# 78 faces

