# 3ds Max Wavefront OBJ Exporter v0.97b - (c)2007 guruware
# File Created: 06.08.2019 14:56:27

mtllib Sword27f.mtl

#
# object sword1_LOD003
#

v  -0.1226 0.5025 0.1540
v  -0.1033 0.4566 0.1057
v  -0.0612 0.3315 0.1527
v  -0.0700 0.3437 0.1968
v  -0.0316 0.3596 0.2125
v  -0.0730 0.5218 0.1755
v  -0.0128 0.2702 0.2257
v  -0.0246 0.2827 0.2531
v  -0.2078 0.3734 -0.1015
v  -0.2484 0.4031 -0.0930
v  -0.2734 0.3921 -0.1085
v  -0.2154 0.3497 -0.1207
v  -0.2941 0.3756 -0.1496
v  -0.2361 0.3332 -0.1618
v  -0.0002 0.2957 0.2543
v  -0.0222 0.3499 0.1702
v  -0.0621 0.5103 0.1204
v  0.0137 0.2876 0.2318
v  -0.1839 0.4036 -0.1583
v  -0.1857 0.4111 -0.1277
v  -0.2046 0.3871 -0.1993
v  -0.0686 0.5086 0.1209
v  0.2595 0.7727 0.7822
v  0.2572 0.7021 0.8117
v  -0.0708 0.4225 0.1565
v  0.3316 0.8441 0.9785
v  -0.1185 0.5022 0.1486
v  0.2177 0.7673 0.8055
v  -0.1585 0.6661 0.1120
v  -0.1195 0.6799 0.1283
v  -0.1512 0.6593 0.0665
v  -0.1554 0.7594 0.1277
v  -0.1478 0.7618 0.0964
v  -0.1378 0.4885 0.1166
v  -0.1219 0.5239 0.0880
v  -0.2263 0.4408 -0.1192
v  -0.2419 0.4460 -0.1460
v  -0.2626 0.4295 -0.1871
v  -0.1282 0.7620 0.1317
v  -0.1107 0.6723 0.0854
v  -0.1171 0.7643 0.1065
v  -0.1163 0.5884 0.1129
v  0.2200 0.8379 0.7760
v  -0.0826 0.4956 0.0860
# 44 vertices

vn -0.8134 -0.0733 0.5770
vn -0.0394 -0.9596 -0.2787
vn -0.3254 -0.6109 -0.7218
vn -0.8662 -0.2172 0.4500
vn 0.3594 0.5282 0.7693
vn 0.4236 0.3374 0.8407
vn 0.0263 -0.9833 -0.1801
vn -0.4143 -0.4803 0.7731
vn 0.3676 -0.7957 0.4814
vn -0.7061 -0.0097 0.7081
vn -0.7479 -0.0311 0.6631
vn 0.3472 -0.8320 0.4327
vn -0.9539 -0.2861 -0.0913
vn -0.0350 -0.9580 -0.2846
vn 0.4805 0.0468 0.8758
vn 0.8625 0.0024 -0.5060
vn 0.9120 0.1519 -0.3810
vn 0.9523 -0.3047 0.0140
vn 0.9429 0.1864 -0.2762
vn 0.9541 0.2046 -0.2188
vn 0.4647 -0.1035 -0.8794
vn 0.8715 0.1138 -0.4770
vn 0.8915 0.1307 -0.4338
vn 0.3190 -0.8714 0.3728
vn 0.2653 -0.9276 0.2631
vn -0.8659 -0.1094 0.4881
vn -0.8432 -0.0922 0.5297
vn -0.9127 -0.0423 0.4065
vn 0.4685 0.1311 0.8737
vn -0.4801 -0.0306 -0.8767
vn -0.6877 0.5155 0.5112
vn -0.4262 0.6648 -0.6135
vn -0.8831 -0.1258 0.4520
vn -0.4518 0.5756 -0.6816
vn -0.1238 0.9923 0.0071
vn -0.1526 0.9872 -0.0456
vn -0.4543 0.5684 -0.6859
vn 0.3291 0.5980 0.7308
vn 0.8138 0.1754 -0.5541
vn 0.6790 0.6911 -0.2479
vn -0.2479 0.9415 -0.2285
vn -0.1881 0.9756 -0.1130
vn 0.8558 0.1020 -0.5072
# 43 vertex normals

vt 0.4245 0.8426 0.0000
vt 0.4742 0.8079 0.0000
vt 0.6667 0.8270 0.0000
vt 0.6627 0.8536 0.0000
vt 0.6611 0.9149 0.0000
vt 0.4241 0.9218 0.0000
vt 0.7883 0.8831 0.0000
vt 0.7769 0.9013 0.0000
vt 0.3746 0.6193 0.0000
vt 0.4245 0.5915 0.0000
vt 0.4245 0.5481 0.0000
vt 0.3532 0.5879 0.0000
vt 0.4245 0.4919 0.0000
vt 0.3532 0.5317 0.0000
vt 0.7693 0.9458 0.0000
vt 0.0397 0.2775 0.0000
vt 0.6354 0.2775 0.0000
vt 0.6486 0.3847 0.0000
vt 0.0429 0.4122 0.0000
vt 0.8744 0.2775 0.0000
vt 0.4245 0.7887 0.0000
vt 0.4744 0.6193 0.0000
vt 0.4958 0.5879 0.0000
vt 0.4958 0.5317 0.0000
vt 0.0429 0.1428 0.0000
vt 0.6486 0.1704 0.0000
vt 0.3749 0.8079 0.0000
vt 0.7277 0.0334 0.0000
vt 0.7907 0.1010 0.0000
vt 0.7277 0.1487 0.0000
vt 0.6647 0.1010 0.0000
vt 0.8997 0.1898 0.0000
vt 0.8318 0.1317 0.0000
vt 0.8899 0.0638 0.0000
vt 0.9578 0.1219 0.0000
# 35 texture coords

o sword1_LOD003
g sword1_LOD003
usemtl Material__232
s 1
f 1/1/1 2/2/2 3/3/3 
f 3/3/3 4/4/4 1/1/1 
f 4/4/4 5/5/5 6/6/6 
f 6/6/6 1/1/1 4/4/4 
f 3/3/3 7/7/7 8/8/8 
f 8/8/8 4/4/4 3/3/3 
f 9/9/9 10/10/10 11/11/11 
f 11/11/11 12/12/12 9/9/9 
f 12/12/12 11/11/11 13/13/13 
f 13/13/13 14/14/14 12/12/12 
f 5/5/5 4/4/4 8/8/8 
f 8/8/8 15/15/15 5/5/5 
f 16/4/16 17/1/17 6/6/6 
f 6/6/6 5/5/5 16/4/16 
f 3/3/3 16/4/16 18/8/18 
f 18/8/18 7/7/7 3/3/3 
f 9/9/9 12/12/12 19/11/19 
f 19/11/19 20/10/20 9/9/9 
f 12/12/12 14/14/14 21/13/21 
f 21/13/21 19/11/19 12/12/12 
f 5/5/5 15/15/15 18/8/18 
f 18/8/18 16/4/16 5/5/5 
f 22/16/22 23/17/23 24/18/24 
f 24/18/24 25/19/25 22/16/22 
f 23/17/23 26/20/6 24/18/24 
f 27/16/26 25/19/25 24/18/24 
f 24/18/24 28/17/27 27/16/26 
f 28/17/27 24/18/24 26/20/6 
f 29/4/28 1/1/1 6/6/6 
f 6/6/6 30/5/29 29/4/28 
f 31/3/30 29/4/28 32/8/31 
f 32/8/31 33/7/32 31/3/30 
f 10/10/10 34/21/33 35/2/34 
f 35/2/34 36/22/35 10/10/10 
f 36/22/35 37/23/36 11/11/11 
f 11/11/11 10/10/10 36/22/35 
f 37/23/36 38/24/37 13/13/13 
f 13/13/13 11/11/11 37/23/36 
f 30/5/29 39/15/38 32/8/31 
f 32/8/31 29/4/28 30/5/29 
f 17/1/17 35/2/34 31/3/30 
f 31/3/30 40/4/39 17/1/17 
f 40/4/39 30/5/29 6/6/6 
f 6/6/6 17/1/17 40/4/39 
f 31/3/30 33/7/32 41/8/40 
f 41/8/40 40/4/39 31/3/30 
f 20/10/20 19/11/19 37/23/36 
f 37/23/36 36/22/35 20/10/20 
f 19/11/19 21/13/21 38/24/37 
f 38/24/37 37/23/36 19/11/19 
f 30/5/29 40/4/39 41/8/40 
f 41/8/40 39/15/38 30/5/29 
f 22/16/22 42/25/41 43/26/42 
f 43/26/42 23/17/23 22/16/22 
f 23/17/23 43/26/42 26/20/6 
f 27/16/26 28/17/27 43/26/42 
f 43/26/42 42/25/41 27/16/26 
f 28/17/27 26/20/6 43/26/42 
f 9/9/9 2/27/2 34/21/33 
f 34/21/33 10/10/10 9/9/9 
f 29/4/28 31/3/30 35/2/34 
f 35/2/34 1/1/1 29/4/28 
f 7/28/7 18/29/18 15/30/15 
f 15/30/15 8/31/8 7/28/7 
f 39/30/38 41/29/40 33/28/32 
f 33/28/32 32/31/31 39/30/38 
f 2/27/2 1/1/1 34/21/33 
f 34/21/33 1/1/1 35/2/34 
f 20/10/20 44/21/43 2/27/2 
f 2/27/2 9/9/9 20/10/20 
f 2/2/2 17/1/17 16/4/16 
f 16/4/16 3/3/3 2/2/2 
f 20/10/20 36/22/35 35/2/34 
f 35/2/34 44/21/43 20/10/20 
f 44/21/43 17/1/17 2/27/2 
f 35/2/34 17/1/17 44/21/43 
f 38/32/37 21/33/21 14/34/14 
f 14/34/14 13/35/13 38/32/37 
# 78 faces

