# 3ds Max Wavefront OBJ Exporter v0.97b - (c)2007 guruware
# File Created: 06.08.2019 14:56:44

mtllib Sword68f.mtl

#
# object sword1_LOD003
#

v  -0.0083 1.2659 0.3501
v  -0.0084 1.2116 0.3933
v  -0.0778 1.2287 0.5139
v  -0.0911 1.2716 0.5015
v  -0.0603 1.2988 0.5184
v  0.0302 1.3018 0.3729
v  -0.1104 1.2896 0.5954
v  -0.1198 1.3163 0.5799
v  -0.0608 0.9723 0.3661
v  -0.0718 0.9803 0.3170
v  -0.0905 0.9574 0.3061
v  -0.0747 0.9459 0.3763
v  -0.1009 0.9099 0.3007
v  -0.0851 0.8985 0.3709
v  -0.0953 1.3263 0.5881
v  -0.0456 1.2584 0.5296
v  0.0493 1.2493 0.3856
v  -0.0833 1.3058 0.6023
v  -0.0052 0.9328 0.3586
v  -0.0122 0.9631 0.3537
v  -0.0156 0.8853 0.3532
v  0.0436 1.2479 0.3821
v  0.2063 2.0103 0.4664
v  0.1485 2.0173 0.5161
v  -0.0264 1.2562 0.4433
v  0.2330 2.2293 0.4783
v  -0.0039 1.2616 0.3529
v  0.1664 2.0218 0.4418
v  0.0885 1.2658 0.2071
v  0.1181 1.2931 0.2260
v  0.1048 1.2228 0.2145
v  0.1458 1.3077 0.1446
v  0.1634 1.2807 0.1465
v  -0.0147 1.2238 0.3471
v  0.0290 1.2104 0.3318
v  -0.0233 0.9711 0.3046
v  -0.0211 0.9442 0.2883
v  -0.0314 0.8968 0.2829
v  0.1645 1.3179 0.1622
v  0.1340 1.2526 0.2352
v  0.1822 1.2972 0.1670
v  0.0661 1.2533 0.2918
v  0.2242 2.0148 0.3921
v  0.0378 1.2086 0.3794
# 44 vertices

vn -0.7976 0.3495 -0.4916
vn -0.5538 -0.5426 0.6316
vn -0.3655 -0.9172 0.1584
vn -0.8825 0.1787 -0.4349
vn 0.3181 0.9452 -0.0734
vn 0.2123 0.9709 0.1104
vn -0.5593 -0.4435 0.7004
vn -0.8615 0.5000 0.0886
vn -0.4375 0.3000 0.8477
vn -0.7294 0.5127 -0.4529
vn -0.7559 0.4557 -0.4700
vn -0.4579 0.2398 0.8561
vn -0.7978 -0.3657 -0.4793
vn -0.5478 -0.5468 0.6332
vn 0.0493 0.9327 0.3572
vn 0.7598 -0.2931 0.5803
vn 0.8469 -0.1233 0.5172
vn 0.4394 0.1245 0.8896
vn 0.8536 -0.0089 0.5208
vn 0.8531 0.0523 0.5192
vn 0.5527 -0.7555 0.3519
vn 0.8283 -0.2323 0.5099
vn 0.8377 -0.1830 0.5146
vn -0.4817 0.1667 0.8604
vn -0.5162 0.0368 0.8557
vn -0.8255 0.2451 -0.5084
vn -0.8135 0.2937 -0.5020
vn -0.7850 0.1782 -0.5934
vn 0.0969 0.9524 0.2892
vn -0.0383 -0.9289 -0.3683
vn -0.3067 0.4821 -0.8207
vn 0.3588 -0.4731 -0.8046
vn -0.8352 0.2031 -0.5111
vn 0.3073 -0.5676 -0.7638
vn 0.5596 0.2639 -0.7856
vn 0.5553 0.2071 -0.8054
vn 0.3024 -0.5743 -0.7608
vn 0.3564 0.9228 -0.1462
vn 0.8563 -0.2989 0.4213
vn 0.9941 0.1066 -0.0197
vn 0.5250 0.0032 -0.8511
vn 0.5473 0.1334 -0.8263
vn 0.8205 -0.2672 0.5054
# 43 vertex normals

vt 0.4245 0.8426 0.0000
vt 0.4742 0.8079 0.0000
vt 0.6667 0.8270 0.0000
vt 0.6627 0.8536 0.0000
vt 0.6611 0.9149 0.0000
vt 0.4241 0.9218 0.0000
vt 0.7883 0.8831 0.0000
vt 0.7769 0.9013 0.0000
vt 0.3746 0.6193 0.0000
vt 0.4245 0.5915 0.0000
vt 0.4245 0.5481 0.0000
vt 0.3532 0.5879 0.0000
vt 0.4245 0.4919 0.0000
vt 0.3532 0.5317 0.0000
vt 0.7693 0.9458 0.0000
vt 0.0397 0.2775 0.0000
vt 0.6354 0.2775 0.0000
vt 0.6486 0.3847 0.0000
vt 0.0429 0.4122 0.0000
vt 0.8744 0.2775 0.0000
vt 0.4245 0.7887 0.0000
vt 0.4744 0.6193 0.0000
vt 0.4958 0.5879 0.0000
vt 0.4958 0.5317 0.0000
vt 0.0429 0.1428 0.0000
vt 0.6486 0.1704 0.0000
vt 0.3749 0.8079 0.0000
vt 0.7277 0.0334 0.0000
vt 0.7907 0.1010 0.0000
vt 0.7277 0.1487 0.0000
vt 0.6647 0.1010 0.0000
vt 0.8997 0.1898 0.0000
vt 0.8318 0.1317 0.0000
vt 0.8899 0.0638 0.0000
vt 0.9578 0.1219 0.0000
# 35 texture coords

o sword1_LOD003
g sword1_LOD003
usemtl Material__232
s 1
f 1/1/1 2/2/2 3/3/3 
f 3/3/3 4/4/4 1/1/1 
f 4/4/4 5/5/5 6/6/6 
f 6/6/6 1/1/1 4/4/4 
f 3/3/3 7/7/7 8/8/8 
f 8/8/8 4/4/4 3/3/3 
f 9/9/9 10/10/10 11/11/11 
f 11/11/11 12/12/12 9/9/9 
f 12/12/12 11/11/11 13/13/13 
f 13/13/13 14/14/14 12/12/12 
f 5/5/5 4/4/4 8/8/8 
f 8/8/8 15/15/15 5/5/5 
f 16/4/16 17/1/17 6/6/6 
f 6/6/6 5/5/5 16/4/16 
f 3/3/3 16/4/16 18/8/18 
f 18/8/18 7/7/7 3/3/3 
f 9/9/9 12/12/12 19/11/19 
f 19/11/19 20/10/20 9/9/9 
f 12/12/12 14/14/14 21/13/21 
f 21/13/21 19/11/19 12/12/12 
f 5/5/5 15/15/15 18/8/18 
f 18/8/18 16/4/16 5/5/5 
f 22/16/22 23/17/23 24/18/24 
f 24/18/24 25/19/25 22/16/22 
f 23/17/23 26/20/6 24/18/24 
f 27/16/26 25/19/25 24/18/24 
f 24/18/24 28/17/27 27/16/26 
f 28/17/27 24/18/24 26/20/6 
f 29/4/28 1/1/1 6/6/6 
f 6/6/6 30/5/29 29/4/28 
f 31/3/30 29/4/28 32/8/31 
f 32/8/31 33/7/32 31/3/30 
f 10/10/10 34/21/33 35/2/34 
f 35/2/34 36/22/35 10/10/10 
f 36/22/35 37/23/36 11/11/11 
f 11/11/11 10/10/10 36/22/35 
f 37/23/36 38/24/37 13/13/13 
f 13/13/13 11/11/11 37/23/36 
f 30/5/29 39/15/38 32/8/31 
f 32/8/31 29/4/28 30/5/29 
f 17/1/17 35/2/34 31/3/30 
f 31/3/30 40/4/39 17/1/17 
f 40/4/39 30/5/29 6/6/6 
f 6/6/6 17/1/17 40/4/39 
f 31/3/30 33/7/32 41/8/40 
f 41/8/40 40/4/39 31/3/30 
f 20/10/20 19/11/19 37/23/36 
f 37/23/36 36/22/35 20/10/20 
f 19/11/19 21/13/21 38/24/37 
f 38/24/37 37/23/36 19/11/19 
f 30/5/29 40/4/39 41/8/40 
f 41/8/40 39/15/38 30/5/29 
f 22/16/22 42/25/41 43/26/42 
f 43/26/42 23/17/23 22/16/22 
f 23/17/23 43/26/42 26/20/6 
f 27/16/26 28/17/27 43/26/42 
f 43/26/42 42/25/41 27/16/26 
f 28/17/27 26/20/6 43/26/42 
f 9/9/9 2/27/2 34/21/33 
f 34/21/33 10/10/10 9/9/9 
f 29/4/28 31/3/30 35/2/34 
f 35/2/34 1/1/1 29/4/28 
f 7/28/7 18/29/18 15/30/15 
f 15/30/15 8/31/8 7/28/7 
f 39/30/38 41/29/40 33/28/32 
f 33/28/32 32/31/31 39/30/38 
f 2/27/2 1/1/1 34/21/33 
f 34/21/33 1/1/1 35/2/34 
f 20/10/20 44/21/43 2/27/2 
f 2/27/2 9/9/9 20/10/20 
f 2/2/2 17/1/17 16/4/16 
f 16/4/16 3/3/3 2/2/2 
f 20/10/20 36/22/35 35/2/34 
f 35/2/34 44/21/43 20/10/20 
f 44/21/43 17/1/17 2/27/2 
f 35/2/34 17/1/17 44/21/43 
f 38/32/37 21/33/21 14/34/14 
f 14/34/14 13/35/13 38/32/37 
# 78 faces

