# 3ds Max Wavefront OBJ Exporter v0.97b - (c)2007 guruware
# File Created: 06.08.2019 14:56:21

mtllib Sword11f.mtl

#
# object sword1_LOD003
#

v  -0.4905 1.1495 0.1852
v  -0.4964 1.1199 0.2476
v  -0.5997 1.1677 0.3293
v  -0.6142 1.1968 0.2960
v  -0.5935 1.2353 0.3041
v  -0.4654 1.1999 0.1959
v  -0.6624 1.2468 0.3645
v  -0.6701 1.2614 0.3367
v  -0.5073 0.8861 0.3250
v  -0.5044 0.8700 0.2767
v  -0.5159 0.8408 0.2742
v  -0.5201 0.8638 0.3432
v  -0.5180 0.7944 0.2895
v  -0.5223 0.8175 0.3586
v  -0.6507 1.2796 0.3442
v  -0.5776 1.2082 0.3356
v  -0.4443 1.1639 0.2352
v  -0.6408 1.2706 0.3684
v  -0.4474 0.8621 0.3482
v  -0.4565 0.8849 0.3285
v  -0.4496 0.8157 0.3636
v  -0.4485 1.1599 0.2317
v  -0.4169 1.9025 -0.0178
v  -0.4871 1.9150 0.0100
v  -0.5338 1.1752 0.2662
v  -0.4232 2.1058 -0.1040
v  -0.4866 1.1480 0.1904
v  -0.4489 1.8925 -0.0524
v  -0.3568 1.1139 0.0819
v  -0.3378 1.1530 0.0914
v  -0.3380 1.0835 0.1116
v  -0.2895 1.1389 0.0202
v  -0.2699 1.1204 0.0380
v  -0.4903 1.1097 0.2009
v  -0.4427 1.1026 0.2028
v  -0.4536 0.8688 0.2802
v  -0.4432 0.8390 0.2792
v  -0.4454 0.7927 0.2946
v  -0.2783 1.1597 0.0345
v  -0.3202 1.1253 0.1215
v  -0.2603 1.1480 0.0518
v  -0.4013 1.1326 0.1560
v  -0.3787 1.8801 -0.0802
v  -0.4481 1.1229 0.2465
# 44 vertices

vn -0.6558 -0.0953 -0.7489
vn -0.6406 -0.3499 0.6835
vn -0.2752 -0.8277 0.4891
vn -0.7310 -0.2423 -0.6379
vn 0.2017 0.8757 -0.4387
vn 0.0442 0.9484 -0.3140
vn -0.6788 -0.2358 0.6954
vn -0.9061 0.2615 -0.3325
vn -0.7020 0.5064 0.5007
vn -0.6235 0.0804 -0.7777
vn -0.6362 0.0169 -0.7713
vn -0.7161 0.4520 0.5318
vn -0.5679 -0.7165 -0.4052
vn -0.6349 -0.3514 0.6881
vn -0.1778 0.9771 -0.1170
vn 0.5867 0.1722 0.7913
vn 0.6660 0.3163 0.6756
vn 0.1387 0.5870 0.7977
vn 0.6566 0.4195 0.6268
vn 0.6487 0.4723 0.5968
vn 0.5168 -0.3787 0.7678
vn 0.6644 0.2131 0.7163
vn 0.6656 0.2606 0.6994
vn -0.7305 0.3839 0.5647
vn -0.7452 0.2598 0.6141
vn -0.6638 -0.2006 -0.7205
vn -0.6605 -0.1525 -0.7352
vn -0.5919 -0.2845 -0.7541
vn -0.1153 0.9778 -0.1749
vn 0.1911 -0.9756 0.1078
vn -0.1111 0.0055 -0.9938
vn 0.6371 -0.6595 -0.3990
vn -0.6669 -0.2409 -0.7052
vn 0.5884 -0.7380 -0.3304
vn 0.7272 0.0433 -0.6851
vn 0.7362 -0.0157 -0.6765
vn 0.5837 -0.7438 -0.3257
vn 0.2623 0.8354 -0.4830
vn 0.7255 0.1250 0.6768
vn 0.9337 0.3310 0.1364
vn 0.7471 -0.2207 -0.6271
vn 0.7442 -0.0908 -0.6618
vn 0.6628 0.1787 0.7271
# 43 vertex normals

vt 0.4245 0.8426 0.0000
vt 0.4742 0.8079 0.0000
vt 0.6667 0.8270 0.0000
vt 0.6627 0.8536 0.0000
vt 0.6611 0.9149 0.0000
vt 0.4241 0.9218 0.0000
vt 0.7883 0.8831 0.0000
vt 0.7769 0.9013 0.0000
vt 0.3746 0.6193 0.0000
vt 0.4245 0.5915 0.0000
vt 0.4245 0.5481 0.0000
vt 0.3532 0.5879 0.0000
vt 0.4245 0.4919 0.0000
vt 0.3532 0.5317 0.0000
vt 0.7693 0.9458 0.0000
vt 0.0397 0.2775 0.0000
vt 0.6354 0.2775 0.0000
vt 0.6486 0.3847 0.0000
vt 0.0429 0.4122 0.0000
vt 0.8744 0.2775 0.0000
vt 0.4245 0.7887 0.0000
vt 0.4744 0.6193 0.0000
vt 0.4958 0.5879 0.0000
vt 0.4958 0.5317 0.0000
vt 0.0429 0.1428 0.0000
vt 0.6486 0.1704 0.0000
vt 0.3749 0.8079 0.0000
vt 0.7277 0.0334 0.0000
vt 0.7907 0.1010 0.0000
vt 0.7277 0.1487 0.0000
vt 0.6647 0.1010 0.0000
vt 0.8997 0.1898 0.0000
vt 0.8318 0.1317 0.0000
vt 0.8899 0.0638 0.0000
vt 0.9578 0.1219 0.0000
# 35 texture coords

o sword1_LOD003
g sword1_LOD003
usemtl Material__232
s 1
f 1/1/1 2/2/2 3/3/3 
f 3/3/3 4/4/4 1/1/1 
f 4/4/4 5/5/5 6/6/6 
f 6/6/6 1/1/1 4/4/4 
f 3/3/3 7/7/7 8/8/8 
f 8/8/8 4/4/4 3/3/3 
f 9/9/9 10/10/10 11/11/11 
f 11/11/11 12/12/12 9/9/9 
f 12/12/12 11/11/11 13/13/13 
f 13/13/13 14/14/14 12/12/12 
f 5/5/5 4/4/4 8/8/8 
f 8/8/8 15/15/15 5/5/5 
f 16/4/16 17/1/17 6/6/6 
f 6/6/6 5/5/5 16/4/16 
f 3/3/3 16/4/16 18/8/18 
f 18/8/18 7/7/7 3/3/3 
f 9/9/9 12/12/12 19/11/19 
f 19/11/19 20/10/20 9/9/9 
f 12/12/12 14/14/14 21/13/21 
f 21/13/21 19/11/19 12/12/12 
f 5/5/5 15/15/15 18/8/18 
f 18/8/18 16/4/16 5/5/5 
f 22/16/22 23/17/23 24/18/24 
f 24/18/24 25/19/25 22/16/22 
f 23/17/23 26/20/6 24/18/24 
f 27/16/26 25/19/25 24/18/24 
f 24/18/24 28/17/27 27/16/26 
f 28/17/27 24/18/24 26/20/6 
f 29/4/28 1/1/1 6/6/6 
f 6/6/6 30/5/29 29/4/28 
f 31/3/30 29/4/28 32/8/31 
f 32/8/31 33/7/32 31/3/30 
f 10/10/10 34/21/33 35/2/34 
f 35/2/34 36/22/35 10/10/10 
f 36/22/35 37/23/36 11/11/11 
f 11/11/11 10/10/10 36/22/35 
f 37/23/36 38/24/37 13/13/13 
f 13/13/13 11/11/11 37/23/36 
f 30/5/29 39/15/38 32/8/31 
f 32/8/31 29/4/28 30/5/29 
f 17/1/17 35/2/34 31/3/30 
f 31/3/30 40/4/39 17/1/17 
f 40/4/39 30/5/29 6/6/6 
f 6/6/6 17/1/17 40/4/39 
f 31/3/30 33/7/32 41/8/40 
f 41/8/40 40/4/39 31/3/30 
f 20/10/20 19/11/19 37/23/36 
f 37/23/36 36/22/35 20/10/20 
f 19/11/19 21/13/21 38/24/37 
f 38/24/37 37/23/36 19/11/19 
f 30/5/29 40/4/39 41/8/40 
f 41/8/40 39/15/38 30/5/29 
f 22/16/22 42/25/41 43/26/42 
f 43/26/42 23/17/23 22/16/22 
f 23/17/23 43/26/42 26/20/6 
f 27/16/26 28/17/27 43/26/42 
f 43/26/42 42/25/41 27/16/26 
f 28/17/27 26/20/6 43/26/42 
f 9/9/9 2/27/2 34/21/33 
f 34/21/33 10/10/10 9/9/9 
f 29/4/28 31/3/30 35/2/34 
f 35/2/34 1/1/1 29/4/28 
f 7/28/7 18/29/18 15/30/15 
f 15/30/15 8/31/8 7/28/7 
f 39/30/38 41/29/40 33/28/32 
f 33/28/32 32/31/31 39/30/38 
f 2/27/2 1/1/1 34/21/33 
f 34/21/33 1/1/1 35/2/34 
f 20/10/20 44/21/43 2/27/2 
f 2/27/2 9/9/9 20/10/20 
f 2/2/2 17/1/17 16/4/16 
f 16/4/16 3/3/3 2/2/2 
f 20/10/20 36/22/35 35/2/34 
f 35/2/34 44/21/43 20/10/20 
f 44/21/43 17/1/17 2/27/2 
f 35/2/34 17/1/17 44/21/43 
f 38/32/37 21/33/21 14/34/14 
f 14/34/14 13/35/13 38/32/37 
# 78 faces

