# 3ds Max Wavefront OBJ Exporter v0.97b - (c)2007 guruware
# File Created: 06.08.2019 14:56:50

mtllib Sword83f.mtl

#
# object sword1_LOD003
#

v  0.0176 0.2561 0.5439
v  -0.0113 0.2309 0.4860
v  0.0408 0.1097 0.4386
v  0.0701 0.1068 0.4747
v  0.1079 0.1255 0.4607
v  0.0672 0.2787 0.5261
v  0.1223 0.0423 0.4234
v  0.1369 0.0437 0.4522
v  -0.2439 0.1892 0.4159
v  -0.2605 0.2058 0.4611
v  -0.2893 0.1945 0.4670
v  -0.2656 0.1708 0.4023
v  -0.3354 0.1863 0.4531
v  -0.3117 0.1626 0.3884
v  0.1545 0.0607 0.4393
v  0.0805 0.1304 0.4260
v  0.0308 0.2859 0.4823
v  0.1453 0.0626 0.4133
v  -0.2697 0.2386 0.3759
v  -0.2468 0.2366 0.3974
v  -0.3158 0.2304 0.3620
v  0.0269 0.2828 0.4869
v  0.7659 0.4133 0.7142
v  0.7810 0.3385 0.7085
v  0.0455 0.1917 0.4793
v  0.9685 0.4400 0.7980
v  0.0160 0.2582 0.5377
v  0.7567 0.3926 0.7568
v  -0.0234 0.4131 0.6029
v  0.0150 0.4297 0.5881
v  -0.0543 0.4211 0.5690
v  -0.0013 0.4965 0.6418
v  -0.0203 0.5092 0.6189
v  -0.0220 0.2502 0.5289
v  -0.0308 0.2948 0.5129
v  -0.2634 0.2532 0.4427
v  -0.2935 0.2623 0.4407
v  -0.3396 0.2541 0.4268
v  0.0192 0.5037 0.6248
v  -0.0130 0.4366 0.5542
v  0.0070 0.5153 0.6029
v  -0.0026 0.3493 0.5453
v  0.7416 0.4674 0.7625
v  -0.0100 0.2774 0.4728
# 44 vertices

vn -0.0790 -0.4070 0.9100
vn -0.3218 -0.8265 -0.4618
vn -0.8135 -0.4370 -0.3837
vn -0.2224 -0.5169 0.8266
vn 0.8645 0.3537 0.3572
vn 0.9436 0.1689 0.2847
vn -0.2064 -0.8625 -0.4621
vn 0.2898 -0.7568 0.5859
vn 0.5345 -0.8006 -0.2709
vn 0.0953 -0.3614 0.9275
vn 0.0323 -0.3778 0.9253
vn 0.4810 -0.8252 -0.2963
vn -0.6999 -0.4471 0.5570
vn -0.3234 -0.8225 -0.4679
vn 0.9816 -0.1004 0.1624
vn 0.1586 0.3312 -0.9301
vn 0.2988 0.4463 -0.8435
vn 0.5886 -0.0835 -0.8041
vn 0.4019 0.4555 -0.7943
vn 0.4547 0.4587 -0.7634
vn -0.3897 0.2520 -0.8858
vn 0.1962 0.4291 -0.8817
vn 0.2434 0.4369 -0.8659
vn 0.4137 -0.8511 -0.3233
vn 0.2905 -0.8842 -0.3658
vn 0.9436 0.1690 0.2847
vn -0.1837 -0.4269 0.8855
vn -0.1359 -0.4177 0.8984
vn -0.2703 -0.3512 0.8964
vn 0.9797 -0.0235 0.1992
vn -0.9807 0.1158 -0.1576
vn 0.0009 0.1890 0.9820
vn -0.6844 0.7030 0.1934
vn -0.2237 -0.4357 0.8718
vn -0.7606 0.6334 0.1425
vn 0.0124 0.8988 0.4383
vn -0.0468 0.9028 0.4276
vn -0.7662 0.6273 0.1394
vn 0.8217 0.4232 0.3817
vn 0.1056 0.4960 -0.8619
vn 0.2998 0.8623 -0.4081
vn -0.2516 0.8911 0.3775
vn -0.1221 0.9033 0.4113
vn 0.1620 0.4232 -0.8915
# 44 vertex normals

vt 0.4245 0.8426 0.0000
vt 0.4742 0.8079 0.0000
vt 0.6667 0.8270 0.0000
vt 0.6627 0.8536 0.0000
vt 0.6611 0.9149 0.0000
vt 0.4241 0.9218 0.0000
vt 0.7883 0.8831 0.0000
vt 0.7769 0.9013 0.0000
vt 0.3746 0.6193 0.0000
vt 0.4245 0.5915 0.0000
vt 0.4245 0.5481 0.0000
vt 0.3532 0.5879 0.0000
vt 0.4245 0.4919 0.0000
vt 0.3532 0.5317 0.0000
vt 0.7693 0.9458 0.0000
vt 0.0397 0.2775 0.0000
vt 0.6354 0.2775 0.0000
vt 0.6486 0.3847 0.0000
vt 0.0429 0.4122 0.0000
vt 0.8744 0.2775 0.0000
vt 0.4245 0.7887 0.0000
vt 0.4744 0.6193 0.0000
vt 0.4958 0.5879 0.0000
vt 0.4958 0.5317 0.0000
vt 0.0429 0.1428 0.0000
vt 0.6486 0.1704 0.0000
vt 0.3749 0.8079 0.0000
vt 0.7277 0.0334 0.0000
vt 0.7907 0.1010 0.0000
vt 0.7277 0.1487 0.0000
vt 0.6647 0.1010 0.0000
vt 0.8997 0.1898 0.0000
vt 0.8318 0.1317 0.0000
vt 0.8899 0.0638 0.0000
vt 0.9578 0.1219 0.0000
# 35 texture coords

o sword1_LOD003
g sword1_LOD003
usemtl Material__232
s 1
f 1/1/1 2/2/2 3/3/3 
f 3/3/3 4/4/4 1/1/1 
f 4/4/4 5/5/5 6/6/6 
f 6/6/6 1/1/1 4/4/4 
f 3/3/3 7/7/7 8/8/8 
f 8/8/8 4/4/4 3/3/3 
f 9/9/9 10/10/10 11/11/11 
f 11/11/11 12/12/12 9/9/9 
f 12/12/12 11/11/11 13/13/13 
f 13/13/13 14/14/14 12/12/12 
f 5/5/5 4/4/4 8/8/8 
f 8/8/8 15/15/15 5/5/5 
f 16/4/16 17/1/17 6/6/6 
f 6/6/6 5/5/5 16/4/16 
f 3/3/3 16/4/16 18/8/18 
f 18/8/18 7/7/7 3/3/3 
f 9/9/9 12/12/12 19/11/19 
f 19/11/19 20/10/20 9/9/9 
f 12/12/12 14/14/14 21/13/21 
f 21/13/21 19/11/19 12/12/12 
f 5/5/5 15/15/15 18/8/18 
f 18/8/18 16/4/16 5/5/5 
f 22/16/22 23/17/23 24/18/24 
f 24/18/24 25/19/25 22/16/22 
f 23/17/23 26/20/26 24/18/24 
f 27/16/27 25/19/25 24/18/24 
f 24/18/24 28/17/28 27/16/27 
f 28/17/28 24/18/24 26/20/26 
f 29/4/29 1/1/1 6/6/6 
f 6/6/6 30/5/30 29/4/29 
f 31/3/31 29/4/29 32/8/32 
f 32/8/32 33/7/33 31/3/31 
f 10/10/10 34/21/34 35/2/35 
f 35/2/35 36/22/36 10/10/10 
f 36/22/36 37/23/37 11/11/11 
f 11/11/11 10/10/10 36/22/36 
f 37/23/37 38/24/38 13/13/13 
f 13/13/13 11/11/11 37/23/37 
f 30/5/30 39/15/39 32/8/32 
f 32/8/32 29/4/29 30/5/30 
f 17/1/17 35/2/35 31/3/31 
f 31/3/31 40/4/40 17/1/17 
f 40/4/40 30/5/30 6/6/6 
f 6/6/6 17/1/17 40/4/40 
f 31/3/31 33/7/33 41/8/41 
f 41/8/41 40/4/40 31/3/31 
f 20/10/20 19/11/19 37/23/37 
f 37/23/37 36/22/36 20/10/20 
f 19/11/19 21/13/21 38/24/38 
f 38/24/38 37/23/37 19/11/19 
f 30/5/30 40/4/40 41/8/41 
f 41/8/41 39/15/39 30/5/30 
f 22/16/22 42/25/42 43/26/43 
f 43/26/43 23/17/23 22/16/22 
f 23/17/23 43/26/43 26/20/26 
f 27/16/27 28/17/28 43/26/43 
f 43/26/43 42/25/42 27/16/27 
f 28/17/28 26/20/26 43/26/43 
f 9/9/9 2/27/2 34/21/34 
f 34/21/34 10/10/10 9/9/9 
f 29/4/29 31/3/31 35/2/35 
f 35/2/35 1/1/1 29/4/29 
f 7/28/7 18/29/18 15/30/15 
f 15/30/15 8/31/8 7/28/7 
f 39/30/39 41/29/41 33/28/33 
f 33/28/33 32/31/32 39/30/39 
f 2/27/2 1/1/1 34/21/34 
f 34/21/34 1/1/1 35/2/35 
f 20/10/20 44/21/44 2/27/2 
f 2/27/2 9/9/9 20/10/20 
f 2/2/2 17/1/17 16/4/16 
f 16/4/16 3/3/3 2/2/2 
f 20/10/20 36/22/36 35/2/35 
f 35/2/35 44/21/44 20/10/20 
f 44/21/44 17/1/17 2/27/2 
f 35/2/35 17/1/17 44/21/44 
f 38/32/38 21/33/21 14/34/14 
f 14/34/14 13/35/13 38/32/38 
# 78 faces

