# 3ds Max Wavefront OBJ Exporter v0.97b - (c)2007 guruware
# File Created: 06.08.2019 14:56:26

mtllib Sword24f.mtl

#
# object sword1_LOD003
#

v  -0.2258 0.5554 0.1703
v  -0.1795 0.5614 0.1191
v  -0.0485 0.5217 0.1490
v  -0.0610 0.5087 0.1919
v  -0.0534 0.5441 0.2177
v  -0.2148 0.6001 0.2045
v  0.0331 0.5118 0.2172
v  0.0179 0.5010 0.2436
v  -0.1760 0.4894 -0.1167
v  -0.2220 0.4683 -0.1109
v  -0.2268 0.4463 -0.1329
v  -0.1610 0.4765 -0.1412
v  -0.2261 0.4320 -0.1797
v  -0.1603 0.4622 -0.1879
v  0.0199 0.5272 0.2521
v  -0.0425 0.5584 0.1770
v  -0.2025 0.6182 0.1515
v  0.0327 0.5407 0.2317
v  -0.1922 0.5393 -0.1608
v  -0.1978 0.5333 -0.1304
v  -0.1915 0.5250 -0.2076
v  -0.2045 0.6119 0.1503
v  -0.2173 0.8368 0.9014
v  -0.1570 0.7920 0.9160
v  -0.1305 0.5579 0.1680
v  -0.2286 0.8792 1.1179
v  -0.2237 0.5601 0.1659
v  -0.2335 0.7933 0.9144
v  -0.3859 0.6180 0.1537
v  -0.3761 0.6527 0.1797
v  -0.3789 0.6328 0.1101
v  -0.4624 0.6625 0.1870
v  -0.4622 0.6784 0.1589
v  -0.2241 0.5459 0.1287
v  -0.2474 0.5842 0.1111
v  -0.2439 0.5122 -0.1247
v  -0.2581 0.5091 -0.1526
v  -0.2574 0.4948 -0.1993
v  -0.4501 0.6853 0.1967
v  -0.3674 0.6677 0.1387
v  -0.4477 0.7023 0.1751
v  -0.2977 0.6141 0.1483
v  -0.2938 0.8381 0.8998
v  -0.2028 0.6032 0.1115
# 44 vertices

vn -0.3333 -0.8630 0.3797
vn 0.7768 -0.4333 -0.4569
vn 0.3049 -0.3783 -0.8740
vn -0.2465 -0.9439 0.2199
vn -0.2142 0.3528 0.9109
vn -0.0144 0.2921 0.9563
vn 0.8372 -0.4172 -0.3535
vn 0.2334 -0.7873 0.5707
vn 0.8961 -0.2193 0.3859
vn -0.3231 -0.7778 0.5391
vn -0.3296 -0.8110 0.4834
vn 0.9134 -0.2411 0.3280
vn -0.2654 -0.9055 -0.3311
vn 0.7774 -0.4274 -0.4615
vn 0.2640 0.1857 0.9465
vn 0.4234 0.8494 -0.3150
vn 0.3299 0.9309 -0.1568
vn 0.7611 0.6323 0.1450
vn 0.3230 0.9454 -0.0434
vn 0.3167 0.9484 0.0175
vn 0.2821 0.5682 -0.7731
vn 0.3353 0.9043 -0.2643
vn 0.3341 0.9175 -0.2157
vn 0.9284 -0.2679 0.2574
vn 0.9415 -0.3108 0.1307
vn -0.0144 0.2922 0.9563
vn -0.3355 -0.9004 0.2769
vn -0.3357 -0.8842 0.3247
vn -0.4217 -0.8840 0.2018
vn 0.1860 0.2182 0.9580
vn -0.2775 -0.1772 -0.9442
vn -0.7701 -0.4498 0.4525
vn -0.8236 0.1414 -0.5492
vn -0.3327 -0.9131 0.2357
vn -0.7654 0.0943 -0.6366
vn -0.9062 0.3874 0.1695
vn -0.9201 0.3753 0.1121
vn -0.7609 0.0898 -0.6427
vn -0.2915 0.3726 0.8810
vn 0.2482 0.9077 -0.3383
vn -0.2424 0.9698 0.0267
vn -0.9421 0.3228 -0.0913
vn -0.9329 0.3582 0.0381
vn 0.3353 0.8935 -0.2987
# 44 vertex normals

vt 0.4245 0.8426 0.0000
vt 0.4742 0.8079 0.0000
vt 0.6667 0.8270 0.0000
vt 0.6627 0.8536 0.0000
vt 0.6611 0.9149 0.0000
vt 0.4241 0.9218 0.0000
vt 0.7883 0.8831 0.0000
vt 0.7769 0.9013 0.0000
vt 0.3746 0.6193 0.0000
vt 0.4245 0.5915 0.0000
vt 0.4245 0.5481 0.0000
vt 0.3532 0.5879 0.0000
vt 0.4245 0.4919 0.0000
vt 0.3532 0.5317 0.0000
vt 0.7693 0.9458 0.0000
vt 0.0397 0.2775 0.0000
vt 0.6354 0.2775 0.0000
vt 0.6486 0.3847 0.0000
vt 0.0429 0.4122 0.0000
vt 0.8744 0.2775 0.0000
vt 0.4245 0.7887 0.0000
vt 0.4744 0.6193 0.0000
vt 0.4958 0.5879 0.0000
vt 0.4958 0.5317 0.0000
vt 0.0429 0.1428 0.0000
vt 0.6486 0.1704 0.0000
vt 0.3749 0.8079 0.0000
vt 0.7277 0.0334 0.0000
vt 0.7907 0.1010 0.0000
vt 0.7277 0.1487 0.0000
vt 0.6647 0.1010 0.0000
vt 0.8997 0.1898 0.0000
vt 0.8318 0.1317 0.0000
vt 0.8899 0.0638 0.0000
vt 0.9578 0.1219 0.0000
# 35 texture coords

o sword1_LOD003
g sword1_LOD003
usemtl Material__232
s 1
f 1/1/1 2/2/2 3/3/3 
f 3/3/3 4/4/4 1/1/1 
f 4/4/4 5/5/5 6/6/6 
f 6/6/6 1/1/1 4/4/4 
f 3/3/3 7/7/7 8/8/8 
f 8/8/8 4/4/4 3/3/3 
f 9/9/9 10/10/10 11/11/11 
f 11/11/11 12/12/12 9/9/9 
f 12/12/12 11/11/11 13/13/13 
f 13/13/13 14/14/14 12/12/12 
f 5/5/5 4/4/4 8/8/8 
f 8/8/8 15/15/15 5/5/5 
f 16/4/16 17/1/17 6/6/6 
f 6/6/6 5/5/5 16/4/16 
f 3/3/3 16/4/16 18/8/18 
f 18/8/18 7/7/7 3/3/3 
f 9/9/9 12/12/12 19/11/19 
f 19/11/19 20/10/20 9/9/9 
f 12/12/12 14/14/14 21/13/21 
f 21/13/21 19/11/19 12/12/12 
f 5/5/5 15/15/15 18/8/18 
f 18/8/18 16/4/16 5/5/5 
f 22/16/22 23/17/23 24/18/24 
f 24/18/24 25/19/25 22/16/22 
f 23/17/23 26/20/26 24/18/24 
f 27/16/27 25/19/25 24/18/24 
f 24/18/24 28/17/28 27/16/27 
f 28/17/28 24/18/24 26/20/26 
f 29/4/29 1/1/1 6/6/6 
f 6/6/6 30/5/30 29/4/29 
f 31/3/31 29/4/29 32/8/32 
f 32/8/32 33/7/33 31/3/31 
f 10/10/10 34/21/34 35/2/35 
f 35/2/35 36/22/36 10/10/10 
f 36/22/36 37/23/37 11/11/11 
f 11/11/11 10/10/10 36/22/36 
f 37/23/37 38/24/38 13/13/13 
f 13/13/13 11/11/11 37/23/37 
f 30/5/30 39/15/39 32/8/32 
f 32/8/32 29/4/29 30/5/30 
f 17/1/17 35/2/35 31/3/31 
f 31/3/31 40/4/40 17/1/17 
f 40/4/40 30/5/30 6/6/6 
f 6/6/6 17/1/17 40/4/40 
f 31/3/31 33/7/33 41/8/41 
f 41/8/41 40/4/40 31/3/31 
f 20/10/20 19/11/19 37/23/37 
f 37/23/37 36/22/36 20/10/20 
f 19/11/19 21/13/21 38/24/38 
f 38/24/38 37/23/37 19/11/19 
f 30/5/30 40/4/40 41/8/41 
f 41/8/41 39/15/39 30/5/30 
f 22/16/22 42/25/42 43/26/43 
f 43/26/43 23/17/23 22/16/22 
f 23/17/23 43/26/43 26/20/26 
f 27/16/27 28/17/28 43/26/43 
f 43/26/43 42/25/42 27/16/27 
f 28/17/28 26/20/26 43/26/43 
f 9/9/9 2/27/2 34/21/34 
f 34/21/34 10/10/10 9/9/9 
f 29/4/29 31/3/31 35/2/35 
f 35/2/35 1/1/1 29/4/29 
f 7/28/7 18/29/18 15/30/15 
f 15/30/15 8/31/8 7/28/7 
f 39/30/39 41/29/41 33/28/33 
f 33/28/33 32/31/32 39/30/39 
f 2/27/2 1/1/1 34/21/34 
f 34/21/34 1/1/1 35/2/35 
f 20/10/20 44/21/44 2/27/2 
f 2/27/2 9/9/9 20/10/20 
f 2/2/2 17/1/17 16/4/16 
f 16/4/16 3/3/3 2/2/2 
f 20/10/20 36/22/36 35/2/35 
f 35/2/35 44/21/44 20/10/20 
f 44/21/44 17/1/17 2/27/2 
f 35/2/35 17/1/17 44/21/44 
f 38/32/38 21/33/21 14/34/14 
f 14/34/14 13/35/13 38/32/38 
# 78 faces

