# 3ds Max Wavefront OBJ Exporter v0.97b - (c)2007 guruware
# File Created: 06.08.2019 14:56:45

mtllib Sword72f.mtl

#
# object sword1_LOD003
#

v  0.1456 1.0271 0.4319
v  0.2147 1.0312 0.4357
v  0.2709 1.0133 0.5628
v  0.2290 1.0053 0.5815
v  0.2150 1.0449 0.5962
v  0.1274 1.0774 0.4524
v  0.2677 1.0241 0.6690
v  0.2372 1.0155 0.6752
v  0.3988 0.9258 0.3101
v  0.3649 0.9002 0.2819
v  0.3784 0.8747 0.2692
v  0.4268 0.9114 0.3094
v  0.4149 0.8538 0.2443
v  0.4633 0.8905 0.2845
v  0.2328 1.0427 0.6769
v  0.2541 1.0542 0.5773
v  0.1773 1.0888 0.4266
v  0.2572 1.0546 0.6719
v  0.4253 0.9661 0.2613
v  0.3978 0.9641 0.2764
v  0.4618 0.9453 0.2364
v  0.1767 1.0822 0.4255
v  -0.4110 1.4131 0.8254
v  -0.3868 1.3790 0.8895
v  0.2066 1.0412 0.5038
v  -0.5860 1.4855 0.9392
v  0.1505 1.0312 0.4299
v  -0.4329 1.3703 0.8291
v  0.0618 1.0656 0.2859
v  0.0489 1.1048 0.3026
v  0.1009 1.0746 0.2622
v  -0.0100 1.1046 0.2382
v  0.0128 1.1160 0.2183
v  0.1789 1.0117 0.4099
v  0.1798 1.0437 0.3739
v  0.3639 0.9384 0.2483
v  0.3768 0.9294 0.2211
v  0.4133 0.9085 0.1962
v  -0.0091 1.1299 0.2493
v  0.0869 1.1145 0.2817
v  0.0100 1.1437 0.2348
v  0.1206 1.0722 0.3517
v  -0.4572 1.4044 0.7651
v  0.2078 1.0680 0.4051
# 44 vertices

vn -0.5378 -0.8319 0.1365
vn 0.8228 -0.3946 0.4090
vn 0.8592 -0.4627 -0.2185
vn -0.3620 -0.9241 0.1229
vn -0.8328 0.4546 0.3159
vn -0.7468 0.4273 0.5096
vn 0.7799 -0.3557 0.5150
vn -0.3332 -0.6574 0.6759
vn 0.2448 -0.0439 0.9686
vn -0.6531 -0.7234 0.2242
vn -0.6148 -0.7650 0.1919
vn 0.2999 -0.0718 0.9513
vn 0.0596 -0.9710 -0.2315
vn 0.8270 -0.3894 0.4055
vn -0.5707 0.3567 0.7396
vn 0.5425 0.8397 -0.0251
vn 0.3637 0.9313 -0.0177
vn 0.3830 0.7381 0.5554
vn 0.2711 0.9616 0.0426
vn 0.2197 0.9728 0.0739
vn 0.8028 0.4776 -0.3569
vn 0.4503 0.8899 -0.0732
vn 0.4119 0.9100 -0.0474
vn 0.3635 -0.1066 0.9255
vn 0.4693 -0.1659 0.8673
vn -0.4602 -0.8842 0.0800
vn -0.4971 -0.8613 0.1055
vn -0.4541 -0.8903 -0.0352
vn -0.6268 0.3804 0.6800
vn 0.5609 -0.3498 -0.7504
vn -0.8496 -0.4712 -0.2371
vn -0.0748 -0.0476 -0.9961
vn -0.4266 -0.9025 0.0597
vn 0.0279 -0.0994 -0.9947
vn -0.6796 0.2903 -0.6737
vn -0.6437 0.2681 -0.7167
vn 0.0353 -0.1042 -0.9939
vn -0.8566 0.4598 0.2342
vn 0.4544 0.8712 -0.1859
vn -0.1334 0.9243 -0.3576
vn -0.5000 0.1835 -0.8463
vn -0.5943 0.2387 -0.7680
vn 0.4769 0.8742 -0.0919
# 43 vertex normals

vt 0.4245 0.8426 0.0000
vt 0.4742 0.8079 0.0000
vt 0.6667 0.8270 0.0000
vt 0.6627 0.8536 0.0000
vt 0.6611 0.9149 0.0000
vt 0.4241 0.9218 0.0000
vt 0.7883 0.8831 0.0000
vt 0.7769 0.9013 0.0000
vt 0.3746 0.6193 0.0000
vt 0.4245 0.5915 0.0000
vt 0.4245 0.5481 0.0000
vt 0.3532 0.5879 0.0000
vt 0.4245 0.4919 0.0000
vt 0.3532 0.5317 0.0000
vt 0.7693 0.9458 0.0000
vt 0.0397 0.2775 0.0000
vt 0.6354 0.2775 0.0000
vt 0.6486 0.3847 0.0000
vt 0.0429 0.4122 0.0000
vt 0.8744 0.2775 0.0000
vt 0.4245 0.7887 0.0000
vt 0.4744 0.6193 0.0000
vt 0.4958 0.5879 0.0000
vt 0.4958 0.5317 0.0000
vt 0.0429 0.1428 0.0000
vt 0.6486 0.1704 0.0000
vt 0.3749 0.8079 0.0000
vt 0.7277 0.0334 0.0000
vt 0.7907 0.1010 0.0000
vt 0.7277 0.1487 0.0000
vt 0.6647 0.1010 0.0000
vt 0.8997 0.1898 0.0000
vt 0.8318 0.1317 0.0000
vt 0.8899 0.0638 0.0000
vt 0.9578 0.1219 0.0000
# 35 texture coords

o sword1_LOD003
g sword1_LOD003
usemtl Material__232
s 1
f 1/1/1 2/2/2 3/3/3 
f 3/3/3 4/4/4 1/1/1 
f 4/4/4 5/5/5 6/6/6 
f 6/6/6 1/1/1 4/4/4 
f 3/3/3 7/7/7 8/8/8 
f 8/8/8 4/4/4 3/3/3 
f 9/9/9 10/10/10 11/11/11 
f 11/11/11 12/12/12 9/9/9 
f 12/12/12 11/11/11 13/13/13 
f 13/13/13 14/14/14 12/12/12 
f 5/5/5 4/4/4 8/8/8 
f 8/8/8 15/15/15 5/5/5 
f 16/4/16 17/1/17 6/6/6 
f 6/6/6 5/5/5 16/4/16 
f 3/3/3 16/4/16 18/8/18 
f 18/8/18 7/7/7 3/3/3 
f 9/9/9 12/12/12 19/11/19 
f 19/11/19 20/10/20 9/9/9 
f 12/12/12 14/14/14 21/13/21 
f 21/13/21 19/11/19 12/12/12 
f 5/5/5 15/15/15 18/8/18 
f 18/8/18 16/4/16 5/5/5 
f 22/16/22 23/17/23 24/18/24 
f 24/18/24 25/19/25 22/16/22 
f 23/17/23 26/20/6 24/18/24 
f 27/16/26 25/19/25 24/18/24 
f 24/18/24 28/17/27 27/16/26 
f 28/17/27 24/18/24 26/20/6 
f 29/4/28 1/1/1 6/6/6 
f 6/6/6 30/5/29 29/4/28 
f 31/3/30 29/4/28 32/8/31 
f 32/8/31 33/7/32 31/3/30 
f 10/10/10 34/21/33 35/2/34 
f 35/2/34 36/22/35 10/10/10 
f 36/22/35 37/23/36 11/11/11 
f 11/11/11 10/10/10 36/22/35 
f 37/23/36 38/24/37 13/13/13 
f 13/13/13 11/11/11 37/23/36 
f 30/5/29 39/15/38 32/8/31 
f 32/8/31 29/4/28 30/5/29 
f 17/1/17 35/2/34 31/3/30 
f 31/3/30 40/4/39 17/1/17 
f 40/4/39 30/5/29 6/6/6 
f 6/6/6 17/1/17 40/4/39 
f 31/3/30 33/7/32 41/8/40 
f 41/8/40 40/4/39 31/3/30 
f 20/10/20 19/11/19 37/23/36 
f 37/23/36 36/22/35 20/10/20 
f 19/11/19 21/13/21 38/24/37 
f 38/24/37 37/23/36 19/11/19 
f 30/5/29 40/4/39 41/8/40 
f 41/8/40 39/15/38 30/5/29 
f 22/16/22 42/25/41 43/26/42 
f 43/26/42 23/17/23 22/16/22 
f 23/17/23 43/26/42 26/20/6 
f 27/16/26 28/17/27 43/26/42 
f 43/26/42 42/25/41 27/16/26 
f 28/17/27 26/20/6 43/26/42 
f 9/9/9 2/27/2 34/21/33 
f 34/21/33 10/10/10 9/9/9 
f 29/4/28 31/3/30 35/2/34 
f 35/2/34 1/1/1 29/4/28 
f 7/28/7 18/29/18 15/30/15 
f 15/30/15 8/31/8 7/28/7 
f 39/30/38 41/29/40 33/28/32 
f 33/28/32 32/31/31 39/30/38 
f 2/27/2 1/1/1 34/21/33 
f 34/21/33 1/1/1 35/2/34 
f 20/10/20 44/21/43 2/27/2 
f 2/27/2 9/9/9 20/10/20 
f 2/2/2 17/1/17 16/4/16 
f 16/4/16 3/3/3 2/2/2 
f 20/10/20 36/22/35 35/2/34 
f 35/2/34 44/21/43 20/10/20 
f 44/21/43 17/1/17 2/27/2 
f 35/2/34 17/1/17 44/21/43 
f 38/32/37 21/33/21 14/34/14 
f 14/34/14 13/35/13 38/32/37 
# 78 faces

