# 3ds Max Wavefront OBJ Exporter v0.97b - (c)2007 guruware
# File Created: 01.11.2019 15:28:38

mtllib Bat.mtl

#
# object Box001
#

v  -26.8986 -0.7270 10.9684
v  -60.5757 -0.2035 -0.1142
v  10.9741 -10.0691 -0.1142
v  9.0119 -1.0044 11.0816
v  -26.8986 0.7270 10.9684
v  9.0119 1.0044 11.0816
v  10.9741 10.0691 -0.1142
v  -60.5757 0.2035 -0.1142
v  -23.0274 -3.5636 76.1530
v  -23.0274 -5.0176 76.1530
v  -20.0553 -5.2950 77.3832
v  -20.0553 -3.2862 77.3832
v  -7.2269 -2.3132 23.6412
v  12.5314 -2.0357 28.1593
v  -7.2269 -3.7671 23.6412
v  12.5314 -4.0446 28.1593
v  -2.3086 1.8419 38.7638
v  40.8813 3.7663 48.5251
v  -2.3086 0.3880 38.7638
v  40.8813 1.7574 48.5251
v  -3.7312 2.5382 48.6621
v  28.1447 2.8156 48.9190
v  -3.7312 1.0842 48.6621
v  28.1447 0.8068 48.9190
v  -2.4121 -1.2065 59.6806
v  20.5663 -0.9290 71.7022
v  -2.4121 -2.6604 59.6806
v  20.5663 -2.9379 71.7022
v  17.5737 -5.7135 -0.1142
v  15.8602 -0.5699 9.2740
v  15.8602 0.5699 9.2740
v  17.5737 5.7135 -0.1142
v  22.6020 11.3678 -0.1142
v  16.2005 17.4848 14.9335
v  30.9758 5.6733 6.9361
v  34.5055 3.8389 4.1941
v  37.3016 7.6438 -0.1142
v  30.9758 3.7598 6.9361
v  34.5055 3.0388 4.1941
v  25.1940 -2.4606 7.2620
v  37.7985 -2.4606 -0.1142
v  -26.8986 -0.7270 -11.1969
v  9.0119 -1.0044 -11.3101
v  -26.8986 0.7270 -11.1969
v  9.0119 1.0044 -11.3101
v  -23.0274 -3.5636 -76.3815
v  -20.0553 -3.2862 -77.6117
v  -20.0553 -5.2950 -77.6117
v  -23.0274 -5.0176 -76.3815
v  12.5314 -2.0357 -28.3878
v  -7.2269 -2.3132 -23.8697
v  -7.2269 -3.7671 -23.8697
v  12.5314 -4.0446 -28.3878
v  40.8813 3.7663 -48.7536
v  -2.3086 1.8419 -38.9923
v  -2.3086 0.3880 -38.9923
v  40.8813 1.7574 -48.7536
v  28.1447 2.8156 -49.1475
v  -3.7312 2.5382 -48.8906
v  -3.7312 1.0842 -48.8906
v  28.1447 0.8068 -49.1475
v  20.5663 -0.9290 -71.9307
v  -2.4121 -1.2065 -59.9091
v  -2.4121 -2.6604 -59.9091
v  20.5663 -2.9379 -71.9307
v  15.8602 -0.5699 -9.5025
v  15.8602 0.5699 -9.5025
v  30.9758 5.6733 -7.1646
v  16.2005 17.4848 -15.1620
v  34.5055 3.8389 -4.4226
v  30.9758 3.7598 -7.1646
v  34.5055 3.0388 -4.4226
v  25.1940 -2.4606 -7.4905
# 73 vertices

vn -0.1282 -0.9296 0.3456
vn -0.0080 -0.7779 0.6284
vn -0.0080 0.7779 0.6284
vn -0.1282 0.9296 0.3456
vn -0.3126 0.0000 0.9499
vn -0.3824 0.0000 0.9240
vn -0.0083 0.9694 0.2454
vn -0.0564 0.9809 0.1862
vn -0.5416 0.0000 0.8407
vn -0.0071 -0.9847 -0.1738
vn 0.0598 -0.9456 -0.3197
vn 0.9794 0.0000 -0.2018
vn 0.0505 0.9587 -0.2799
vn 0.0275 0.9506 -0.3091
vn -0.9510 0.0000 0.3093
vn -0.1055 -0.9080 0.4055
vn -0.0315 -0.9611 0.2743
vn 0.5834 0.0000 -0.8122
vn -0.0277 0.9969 -0.0741
vn -0.0114 0.5089 0.8607
vn -0.9898 0.0000 -0.1423
vn 0.0684 -0.9840 -0.1644
vn -0.0092 -0.9976 0.0688
vn 0.0309 0.0000 0.9995
vn -0.0108 0.9464 0.3229
vn -0.0825 0.9874 0.1349
vn -0.9929 0.0000 0.1189
vn -0.0073 -0.9863 -0.1645
vn 0.1640 -0.9278 -0.3350
vn 0.9489 0.0000 0.3156
vn -0.0523 0.9957 0.0770
vn -0.0667 0.9958 -0.0635
vn -0.6242 0.0000 -0.7812
vn 0.0430 -0.9935 -0.1050
vn -0.0222 -0.9854 -0.1687
vn 0.1385 0.0000 0.9904
vn 0.4360 -0.6606 0.6112
vn 0.1852 -0.8472 0.4980
vn 0.2151 0.7402 0.6370
vn 0.4811 0.7289 0.4871
vn 0.2552 0.0000 0.9669
vn -0.7286 0.6479 0.2220
vn 0.6000 0.7971 -0.0688
vn -0.8814 0.1657 -0.4423
vn 0.2472 -0.3119 0.9174
vn 0.5105 0.8557 0.0847
vn 0.1723 0.6802 0.7125
vn 0.1529 0.0000 0.9882
vn 0.6135 0.0000 0.7897
vn 0.1856 -0.1214 0.9751
vn 0.4996 -0.4248 0.7549
vn 0.4731 -0.3501 0.8085
vn 0.8180 0.0402 0.5739
vn 0.8388 0.0000 0.5444
vn -0.0774 -0.8803 0.4681
vn 0.1533 -0.9529 0.2619
vn -0.0080 -0.7779 -0.6284
vn -0.1282 -0.9296 -0.3456
vn -0.1282 0.9296 -0.3456
vn -0.0080 0.7779 -0.6284
vn -0.3126 0.0000 -0.9499
vn -0.3824 0.0000 -0.9240
vn -0.0564 0.9809 -0.1862
vn -0.0083 0.9694 -0.2454
vn -0.5416 0.0000 -0.8407
vn 0.0598 -0.9456 0.3197
vn -0.0071 -0.9847 0.1738
vn 0.9794 0.0000 0.2018
vn 0.0275 0.9506 0.3091
vn 0.0505 0.9587 0.2799
vn -0.9510 0.0000 -0.3093
vn -0.0315 -0.9611 -0.2743
vn -0.1055 -0.9080 -0.4055
vn 0.5834 0.0000 0.8122
vn -0.0114 0.5089 -0.8607
vn -0.0277 0.9969 0.0741
vn -0.9898 0.0000 0.1423
vn -0.0092 -0.9976 -0.0688
vn 0.0684 -0.9840 0.1644
vn 0.0309 0.0000 -0.9995
vn -0.0825 0.9874 -0.1349
vn -0.0108 0.9464 -0.3229
vn -0.9929 0.0000 -0.1189
vn 0.1640 -0.9278 0.3350
vn -0.0073 -0.9863 0.1645
vn 0.9489 0.0000 -0.3156
vn -0.0667 0.9958 0.0635
vn -0.0523 0.9957 -0.0770
vn -0.6242 0.0000 0.7812
vn -0.0222 -0.9854 0.1687
vn 0.0430 -0.9935 0.1050
vn 0.1385 0.0000 -0.9904
vn 0.1852 -0.8472 -0.4980
vn 0.4360 -0.6606 -0.6112
vn 0.4811 0.7289 -0.4871
vn 0.2151 0.7402 -0.6370
vn 0.2552 0.0000 -0.9669
vn -0.7286 0.6479 -0.2220
vn 0.6000 0.7971 0.0688
vn -0.8814 0.1657 0.4423
vn 0.2472 -0.3119 -0.9174
vn 0.1723 0.6802 -0.7125
vn 0.5105 0.8557 -0.0847
vn 0.1529 0.0000 -0.9882
vn 0.6135 0.0000 -0.7897
vn 0.1856 -0.1214 -0.9751
vn 0.4731 -0.3501 -0.8085
vn 0.4996 -0.4248 -0.7549
vn 0.8388 0.0000 -0.5444
vn 0.8180 0.0402 -0.5739
vn -0.0774 -0.8803 -0.4681
vn 0.1533 -0.9529 -0.2619
# 112 vertex normals

vt 0.9121 0.2108 0.0000
vt 0.9896 0.0005 0.0000
vt 0.9738 0.4524 0.0000
vt 0.9035 0.4376 0.0000
vt 0.0705 0.2133 0.0000
vt 0.0713 0.4403 0.0000
vt 0.0005 0.4527 0.0000
vt 0.0005 0.0005 0.0000
vt 0.5003 0.8554 0.0000
vt 0.4911 0.8547 0.0000
vt 0.5101 0.6314 0.0000
vt 0.5126 0.6316 0.0000
vt 0.4903 0.0574 0.0000
vt 0.4903 0.0666 0.0000
vt 0.4715 0.0684 0.0000
vt 0.4715 0.0557 0.0000
vt 0.1506 0.3377 0.0000
vt 0.1792 0.4625 0.0000
vt 0.5095 0.9995 0.0000
vt 0.5003 0.9989 0.0000
vt 0.7949 0.4560 0.0000
vt 0.8277 0.3322 0.0000
vt 0.7918 0.1363 0.0000
vt 0.7918 0.1236 0.0000
vt 0.8998 0.1428 0.0000
vt 0.8998 0.1555 0.0000
vt 0.2462 0.3688 0.0000
vt 0.3079 0.6417 0.0000
vt 0.4903 0.0312 0.0000
vt 0.4903 0.0403 0.0000
vt 0.3947 0.0141 0.0000
vt 0.3947 0.0049 0.0000
vt 0.6600 0.6306 0.0000
vt 0.7311 0.3600 0.0000
vt 0.6291 0.1860 0.0000
vt 0.6167 0.1834 0.0000
vt 0.6181 0.0005 0.0000
vt 0.6305 0.0031 0.0000
vt 0.3088 0.3598 0.0000
vt 0.3104 0.5612 0.0000
vt 0.3322 0.0097 0.0000
vt 0.3322 0.0005 0.0000
vt 0.6603 0.5501 0.0000
vt 0.6689 0.3488 0.0000
vt 0.8392 0.5554 0.0000
vt 0.8392 0.5427 0.0000
vt 0.9197 0.5488 0.0000
vt 0.9197 0.5615 0.0000
vt 0.3784 0.3681 0.0000
vt 0.4544 0.5133 0.0000
vt 0.2625 0.0334 0.0000
vt 0.2625 0.0242 0.0000
vt 0.5181 0.4972 0.0000
vt 0.5991 0.3547 0.0000
vt 0.5113 0.5681 0.0000
vt 0.5113 0.5554 0.0000
vt 0.6553 0.5790 0.0000
vt 0.6553 0.5917 0.0000
vt 0.4825 0.2378 0.0000
vt 0.4903 0.2566 0.0000
vt 0.6553 0.5921 0.0000
vt 0.6544 0.6013 0.0000
vt 0.5232 0.6025 0.0000
vt 0.5242 0.5933 0.0000
vt 0.4911 0.2393 0.0000
vt 0.4996 0.2208 0.0000
vt 0.2148 0.0535 0.0000
vt 0.2148 0.0408 0.0000
vt 0.9723 0.4941 0.0000
vt 0.9134 0.4812 0.0000
vt 0.0598 0.4836 0.0000
vt 0.0005 0.4944 0.0000
vt 0.8996 0.1113 0.0000
vt 0.8952 0.1232 0.0000
vt 0.8541 0.1053 0.0000
vt 0.8566 0.0985 0.0000
vt 0.6984 0.1006 0.0000
vt 0.6319 0.1132 0.0000
vt 0.7094 0.0667 0.0000
vt 0.6935 0.2149 0.0000
vt 0.7900 0.2518 0.0000
vt 0.6888 0.2839 0.0000
vt 0.6309 0.0005 0.0000
vt 0.7773 0.0354 0.0000
vt 0.8998 0.0005 0.0000
vt 0.6608 0.2879 0.0000
vt 0.6290 0.2817 0.0000
vt 0.7731 0.0467 0.0000
vt 0.7489 0.0374 0.0000
vt 0.7472 0.0421 0.0000
vt 0.7934 0.0959 0.0000
vt 0.7098 0.0655 0.0000
vt 0.7345 0.0065 0.0000
vt 0.9241 0.5406 0.0000
vt 0.9679 0.6219 0.0000
# 95 texture coords

o Box001
g Box001
usemtl Material__11
s off
f 1/1/1 2/2/1 3/3/1 
f 3/3/2 4/4/2 1/1/2 
f 5/5/3 6/6/3 7/7/3 
f 7/7/4 8/8/4 5/5/4 
f 1/9/5 5/10/5 8/11/5 
f 8/11/5 2/12/5 1/9/5 
f 9/13/6 10/14/6 11/15/6 
f 11/15/6 12/16/6 9/13/6 
f 6/6/7 5/5/7 13/17/7 
f 13/17/8 14/18/8 6/6/8 
f 5/10/9 1/9/9 15/19/9 
f 15/19/9 13/20/9 5/10/9 
f 1/1/10 4/4/10 16/21/10 
f 16/21/11 15/22/11 1/1/11 
f 4/23/12 6/24/12 14/25/12 
f 14/25/12 16/26/12 4/23/12 
f 14/18/13 13/17/13 17/27/13 
f 17/27/14 18/28/14 14/18/14 
f 13/29/15 15/30/15 19/31/15 
f 19/31/15 17/32/15 13/29/15 
f 15/22/16 16/21/16 20/33/16 
f 20/33/17 19/34/17 15/22/17 
f 16/35/18 14/36/18 18/37/18 
f 18/37/18 20/38/18 16/35/18 
f 18/28/19 17/27/19 21/39/19 
f 21/39/20 22/40/20 18/28/20 
f 17/32/21 19/31/21 23/41/21 
f 23/41/21 21/42/21 17/32/21 
f 19/34/22 20/33/22 24/43/22 
f 24/43/23 23/44/23 19/34/23 
f 20/45/24 18/46/24 22/47/24 
f 22/47/24 24/48/24 20/45/24 
f 22/40/25 21/39/25 25/49/25 
f 25/49/26 26/50/26 22/40/26 
f 21/42/27 23/41/27 27/51/27 
f 27/51/27 25/52/27 21/42/27 
f 23/44/28 24/43/28 28/53/28 
f 28/53/29 27/54/29 23/44/29 
f 24/55/30 22/56/30 26/57/30 
f 26/57/30 28/58/30 24/55/30 
f 26/50/31 25/49/31 9/59/31 
f 9/59/32 12/60/32 26/50/32 
f 25/61/33 27/62/33 10/63/33 
f 10/63/33 9/64/33 25/61/33 
f 27/54/34 28/53/34 11/65/34 
f 11/65/35 10/66/35 27/54/35 
f 28/67/36 26/68/36 12/16/36 
f 12/16/36 11/15/36 28/67/36 
f 4/4/37 3/3/37 29/69/37 
f 29/69/38 30/70/38 4/4/38 
f 7/7/39 6/6/39 31/71/39 
f 31/71/40 32/72/40 7/7/40 
f 6/73/41 4/74/41 30/75/41 
f 30/75/41 31/76/41 6/73/41 
f 32/77/42 31/78/42 33/79/42 
f 33/80/43 34/81/43 35/82/43 
f 34/83/44 33/79/44 31/78/44 
f 31/76/45 35/84/45 34/85/45 
f 33/80/46 35/82/46 36/86/46 
f 36/86/47 37/87/47 33/80/47 
f 35/84/48 31/76/48 30/75/48 
f 30/75/48 38/88/48 35/84/48 
f 36/89/49 35/84/49 38/88/49 
f 38/88/49 39/90/49 36/89/49 
f 38/88/50 30/75/50 40/91/50 
f 39/90/51 38/88/51 40/91/51 
f 40/91/52 41/92/52 39/90/52 
f 39/90/53 41/92/53 37/93/53 
f 37/93/54 36/89/54 39/90/54 
f 40/94/55 30/70/55 29/69/55 
f 41/95/56 40/94/56 29/69/56 
f 42/1/57 43/4/57 3/3/57 
f 3/3/58 2/2/58 42/1/58 
f 44/5/59 8/8/59 7/7/59 
f 7/7/60 45/6/60 44/5/60 
f 42/9/61 2/12/61 8/11/61 
f 8/11/61 44/10/61 42/9/61 
f 46/13/62 47/16/62 48/15/62 
f 48/15/62 49/14/62 46/13/62 
f 45/6/63 50/18/63 51/17/63 
f 51/17/64 44/5/64 45/6/64 
f 44/10/65 51/20/65 52/19/65 
f 52/19/65 42/9/65 44/10/65 
f 42/1/66 52/22/66 53/21/66 
f 53/21/67 43/4/67 42/1/67 
f 43/23/68 53/26/68 50/25/68 
f 50/25/68 45/24/68 43/23/68 
f 50/18/69 54/28/69 55/27/69 
f 55/27/70 51/17/70 50/18/70 
f 51/29/71 55/32/71 56/31/71 
f 56/31/71 52/30/71 51/29/71 
f 52/22/72 56/34/72 57/33/72 
f 57/33/73 53/21/73 52/22/73 
f 53/35/74 57/38/74 54/37/74 
f 54/37/74 50/36/74 53/35/74 
f 54/28/75 58/40/75 59/39/75 
f 59/39/76 55/27/76 54/28/76 
f 55/32/77 59/42/77 60/41/77 
f 60/41/77 56/31/77 55/32/77 
f 56/34/78 60/44/78 61/43/78 
f 61/43/79 57/33/79 56/34/79 
f 57/45/80 61/48/80 58/47/80 
f 58/47/80 54/46/80 57/45/80 
f 58/40/81 62/50/81 63/49/81 
f 63/49/82 59/39/82 58/40/82 
f 59/42/83 63/52/83 64/51/83 
f 64/51/83 60/41/83 59/42/83 
f 60/44/84 64/54/84 65/53/84 
f 65/53/85 61/43/85 60/44/85 
f 61/55/86 65/58/86 62/57/86 
f 62/57/86 58/56/86 61/55/86 
f 62/50/87 47/60/87 46/59/87 
f 46/59/88 63/49/88 62/50/88 
f 63/61/89 46/64/89 49/63/89 
f 49/63/89 64/62/89 63/61/89 
f 64/54/90 49/66/90 48/65/90 
f 48/65/91 65/53/91 64/54/91 
f 65/67/92 48/15/92 47/16/92 
f 47/16/92 62/68/92 65/67/92 
f 43/4/93 66/70/93 29/69/93 
f 29/69/94 3/3/94 43/4/94 
f 7/7/95 32/72/95 67/71/95 
f 67/71/96 45/6/96 7/7/96 
f 45/73/97 67/76/97 66/75/97 
f 66/75/97 43/74/97 45/73/97 
f 32/77/98 33/79/98 67/78/98 
f 33/80/99 68/82/99 69/81/99 
f 69/83/100 67/78/100 33/79/100 
f 67/76/101 69/85/101 68/84/101 
f 33/80/102 37/87/102 70/86/102 
f 70/86/103 68/82/103 33/80/103 
f 68/84/104 71/88/104 66/75/104 
f 66/75/104 67/76/104 68/84/104 
f 70/89/105 72/90/105 71/88/105 
f 71/88/105 68/84/105 70/89/105 
f 71/88/106 73/91/106 66/75/106 
f 72/90/107 41/92/107 73/91/107 
f 73/91/108 71/88/108 72/90/108 
f 72/90/109 70/89/109 37/93/109 
f 37/93/110 41/92/110 72/90/110 
f 73/94/111 29/69/111 66/70/111 
f 41/95/112 29/69/112 73/94/112 
# 142 faces

