# 3ds Max Wavefront OBJ Exporter v0.97b - (c)2007 guruware
# File Created: 17.12.2019 02:07:06

mtllib Heal.mtl

#
# object Cylinder002
#

v  13.169 -6.141 -0.000
v  6.584 -3.070 -12.583
v  16.077 8.128 -19.288
v  26.170 3.422 -0.000
v  -6.584 3.070 -12.583
v  -4.108 17.541 -19.288
v  -13.169 6.141 -0.000
v  -14.201 22.247 -0.000
v  -6.584 3.070 12.583
v  -4.108 17.541 19.288
v  6.584 -3.070 12.583
v  16.077 8.128 19.288
v  22.420 25.412 -16.592
v  31.102 21.363 -0.000
v  5.055 33.509 -16.592
v  -3.626 37.557 -0.000
v  5.055 33.509 16.592
v  22.420 25.412 16.592
v  21.656 38.379 -5.901
v  24.742 36.939 -0.000
v  15.480 41.258 -5.901
v  12.393 42.698 -0.000
v  15.480 41.258 5.901
v  21.656 38.379 5.901
v  35.842 67.537 -6.825
v  28.698 70.868 -6.825
v  25.127 72.534 -0.000
v  28.698 70.868 6.825
v  35.842 67.537 6.825
v  39.412 65.872 -0.000
v  29.263 50.971 -8.626
v  33.777 48.867 -0.000
v  20.236 55.181 -8.626
v  15.723 57.285 -0.000
v  20.236 55.181 8.626
v  29.263 50.971 8.626
v  27.572 51.761 -5.392
v  30.393 50.446 -0.000
v  21.929 54.393 -5.392
v  19.108 55.708 -0.000
v  21.929 54.393 5.392
v  27.572 51.761 5.392
# 42 vertices

vn 0.529 -0.719 -0.452
vn -0.181 -0.388 -0.904
vn -0.891 -0.057 -0.452
vn -0.891 -0.057 0.452
vn -0.181 -0.388 0.904
vn 0.529 -0.719 0.452
vn 0.838 -0.231 -0.495
vn 0.061 0.131 -0.989
vn -0.715 0.494 -0.495
vn -0.715 0.494 0.495
vn 0.061 0.131 0.989
vn 0.838 -0.231 0.495
vn 0.861 0.352 -0.365
vn 0.289 0.619 -0.730
vn -0.284 0.886 -0.365
vn -0.284 0.886 0.365
vn 0.289 0.619 0.730
vn 0.861 0.352 0.365
vn -0.423 -0.906 -0.000
vn 0.423 0.906 -0.000
vn 0.694 -0.526 -0.492
vn -0.077 -0.166 -0.983
vn -0.849 0.194 -0.492
vn -0.849 0.194 0.492
vn -0.077 -0.166 0.983
vn 0.694 -0.526 0.492
vn 0.748 -0.437 -0.498
vn -0.034 -0.073 -0.997
vn -0.816 0.292 -0.498
vn -0.816 0.292 0.498
vn -0.034 -0.073 0.997
vn 0.748 -0.437 0.498
# 32 vertex normals

vt 0.179 0.751 0.000
vt 0.069 0.751 0.000
vt 0.010 0.627 0.000
vt 0.179 0.627 0.000
vt 0.010 0.171 0.000
vt 0.010 0.044 0.000
vt 0.134 0.010 0.000
vt 0.134 0.205 0.000
vt 0.652 0.751 0.000
vt 0.542 0.751 0.000
vt 0.542 0.627 0.000
vt 0.711 0.627 0.000
vt 0.431 0.751 0.000
vt 0.373 0.627 0.000
vt 0.010 0.399 0.000
vt 0.010 0.272 0.000
vt 0.134 0.238 0.000
vt 0.134 0.433 0.000
vt 0.289 0.751 0.000
vt 0.348 0.627 0.000
vt 0.034 0.466 0.000
vt 0.179 0.466 0.000
vt 0.295 0.024 0.000
vt 0.295 0.191 0.000
vt 0.542 0.466 0.000
vt 0.687 0.466 0.000
vt 0.396 0.466 0.000
vt 0.295 0.252 0.000
vt 0.295 0.420 0.000
vt 0.324 0.466 0.000
vt 0.653 0.410 0.000
vt 0.556 0.273 0.000
vt 0.699 0.238 0.000
vt 0.734 0.287 0.000
vt 0.395 0.078 0.000
vt 0.395 0.137 0.000
vt 0.556 0.167 0.000
vt 0.647 0.026 0.000
vt 0.733 0.146 0.000
vt 0.701 0.196 0.000
vt 0.776 0.010 0.000
vt 0.779 0.141 0.000
vt 0.395 0.306 0.000
vt 0.395 0.366 0.000
vt 0.782 0.422 0.000
vt 0.780 0.291 0.000
vt 0.926 0.466 0.000
vt 0.990 0.576 0.000
vt 0.926 0.687 0.000
vt 0.799 0.687 0.000
vt 0.735 0.576 0.000
vt 0.799 0.466 0.000
vt 0.850 0.238 0.000
vt 0.919 0.238 0.000
vt 0.953 0.298 0.000
vt 0.919 0.358 0.000
vt 0.850 0.358 0.000
vt 0.815 0.298 0.000
vt 0.562 0.849 0.000
vt 0.562 0.789 0.000
vt 0.692 0.776 0.000
vt 0.692 0.863 0.000
vt 0.523 0.064 0.000
vt 0.523 0.151 0.000
vt 0.209 0.969 0.000
vt 0.209 0.910 0.000
vt 0.340 0.896 0.000
vt 0.340 0.983 0.000
vt 0.209 0.849 0.000
vt 0.209 0.789 0.000
vt 0.340 0.776 0.000
vt 0.340 0.863 0.000
vt 0.523 0.292 0.000
vt 0.523 0.379 0.000
vt 0.562 0.969 0.000
vt 0.562 0.910 0.000
vt 0.692 0.896 0.000
vt 0.692 0.983 0.000
vt 0.010 0.851 0.000
vt 0.054 0.776 0.000
vt 0.070 0.804 0.000
vt 0.043 0.851 0.000
vt 0.141 0.776 0.000
vt 0.125 0.804 0.000
vt 0.185 0.851 0.000
vt 0.152 0.851 0.000
vt 0.141 0.927 0.000
vt 0.125 0.899 0.000
vt 0.054 0.927 0.000
vt 0.070 0.899 0.000
vt 0.373 0.836 0.000
vt 0.373 0.788 0.000
vt 0.529 0.776 0.000
vt 0.529 0.836 0.000
vt 0.725 0.838 0.000
vt 0.725 0.783 0.000
vt 0.881 0.776 0.000
vt 0.881 0.845 0.000
vt 0.812 0.117 0.000
vt 0.812 0.070 0.000
vt 0.968 0.070 0.000
vt 0.968 0.130 0.000
vt 0.812 0.023 0.000
vt 0.968 0.010 0.000
vt 0.725 0.940 0.000
vt 0.725 0.885 0.000
vt 0.881 0.878 0.000
vt 0.881 0.947 0.000
vt 0.373 0.883 0.000
vt 0.529 0.895 0.000
# 110 texture coords

o Cylinder002
g Cylinder002
usemtl Material__26
s off
f 1/1/1 2/2/1 3/3/1 
f 3/3/1 4/4/1 1/1/1 
f 2/5/2 5/6/2 6/7/2 
f 6/7/2 3/8/2 2/5/2 
f 5/9/3 7/10/3 8/11/3 
f 8/11/3 6/12/3 5/9/3 
f 7/10/4 9/13/4 10/14/4 
f 10/14/4 8/11/4 7/10/4 
f 9/15/5 11/16/5 12/17/5 
f 12/17/5 10/18/5 9/15/5 
f 11/19/6 1/1/6 4/4/6 
f 4/4/6 12/20/6 11/19/6 
f 4/4/7 3/3/7 13/21/7 
f 13/21/7 14/22/7 4/4/7 
f 3/8/8 6/7/8 15/23/8 
f 15/23/8 13/24/8 3/8/8 
f 6/12/9 8/11/9 16/25/9 
f 16/25/9 15/26/9 6/12/9 
f 8/11/10 10/14/10 17/27/10 
f 17/27/10 16/25/10 8/11/10 
f 10/18/11 12/17/11 18/28/11 
f 18/28/11 17/29/11 10/18/11 
f 12/20/12 4/4/12 14/22/12 
f 14/22/12 18/30/12 12/20/12 
f 14/31/13 13/32/13 19/33/13 
f 19/33/13 20/34/13 14/31/13 
f 13/24/14 15/23/14 21/35/14 
f 21/35/14 19/36/14 13/24/14 
f 15/37/15 16/38/15 22/39/15 
f 22/39/15 21/40/15 15/37/15 
f 16/38/16 17/41/16 23/42/16 
f 23/42/16 22/39/16 16/38/16 
f 17/29/17 18/28/17 24/43/17 
f 24/43/17 23/44/17 17/29/17 
f 18/45/18 14/31/18 20/34/18 
f 20/34/18 24/46/18 18/45/18 
f 9/47/19 7/48/19 5/49/19 
f 5/49/19 2/50/19 1/51/19 
f 9/47/19 5/49/19 1/51/19 
f 11/52/19 9/47/19 1/51/19 
f 25/53/20 26/54/20 27/55/20 
f 27/55/20 28/56/20 29/57/20 
f 25/53/20 27/55/20 29/57/20 
f 30/58/20 25/53/20 29/57/20 
f 20/59/21 19/60/21 31/61/21 
f 31/61/21 32/62/21 20/59/21 
f 19/36/22 21/35/22 33/63/22 
f 33/63/22 31/64/22 19/36/22 
f 21/65/23 22/66/23 34/67/23 
f 34/67/23 33/68/23 21/65/23 
f 22/69/24 23/70/24 35/71/24 
f 35/71/24 34/72/24 22/69/24 
f 23/44/25 24/43/25 36/73/25 
f 36/73/25 35/74/25 23/44/25 
f 24/75/26 20/76/26 32/77/26 
f 32/77/26 36/78/26 24/75/26 
f 32/79/20 31/80/20 37/81/20 
f 37/81/20 38/82/20 32/79/20 
f 31/80/20 33/83/20 39/84/20 
f 39/84/20 37/81/20 31/80/20 
f 33/83/20 34/85/20 40/86/20 
f 40/86/20 39/84/20 33/83/20 
f 34/85/20 35/87/20 41/88/20 
f 41/88/20 40/86/20 34/85/20 
f 35/87/20 36/89/20 42/90/20 
f 42/90/20 41/88/20 35/87/20 
f 36/89/20 32/79/20 38/82/20 
f 38/82/20 42/90/20 36/89/20 
f 38/91/27 37/92/27 25/93/27 
f 25/93/27 30/94/27 38/91/27 
f 37/95/28 39/96/28 26/97/28 
f 26/97/28 25/98/28 37/95/28 
f 39/99/29 40/100/29 27/101/29 
f 27/101/29 26/102/29 39/99/29 
f 40/100/30 41/103/30 28/104/30 
f 28/104/30 27/101/30 40/100/30 
f 41/105/31 42/106/31 29/107/31 
f 29/107/31 28/108/31 41/105/31 
f 42/109/32 38/91/32 30/94/32 
f 30/94/32 29/110/32 42/109/32 
# 80 faces

